<svg xmlns="http://www.w3.org/2000/svg" viewBox="0 0 512 512">
	<path d="M233.7538 5.3906c15.0279 0 30.0567 0 45.0846 0 87.8601 10.6712 154.0168 54.1224 198.4702 130.3533 16.3628 30.8447 26.3265 63.5144 29.8931 98.01 0 15.0279 0 30.0567 0 45.0846-10.6713 87.8601-54.1221 154.0168-130.3533 198.4703-30.8447 16.3628-63.5144 26.3265-98.01 29.8931-15.0279 0-30.0567 0-45.0846 0-87.8601-10.6713-154.0166-54.1221-198.4702-130.3533-16.3625-30.8447-26.3269-63.5144-29.893-98.01 0-15.0279 0-30.0567 0-45.0846C16.0614 145.8947 59.5125 79.7383 135.7439 35.2836c30.8447-16.3625 63.5144-26.3269 98.01-29.893ZM255.316 33.8135c92.7371 4.1117 160.2013 47.2361 202.3906 129.3732 25.313 58.5874 26.6205 117.7198 3.9204 177.3981-31.9483 71.7904-86.3439 116.3849-163.1867 133.7836-84.368 12.9363-155.0979-12.0562-212.1917-74.9777C31.1633 328.405 20.0555 250.9771 52.9254 167.107 87.9836 93.2749 145.9732 49.6605 226.8931 36.2637c9.6216-.8514 19.0963-1.6681 28.4229-2.4503ZM150.4453 119.0821c70.5682-.1637 141.1354 0 211.7016.4901 5.269 1.525 8.6994 4.9554 10.291 10.2911-.5498 21.7033-4.1429 42.9382-10.7811 63.7065-24.3712 76.3821-65.699 141.8852-123.9827 196.51-7.5144 4.5741-15.0279 4.5741-22.5423 0-6.3216-7.1028-7.139-14.7799-2.4502-23.0324 56.9115-52.3736 96.4418-115.7537 118.5921-190.1394 2.266-8.0829 4.0635-16.251 5.3906-24.5025-54.5592 0-109.1175 0-163.6767 0 .1637 32.6716 0 65.3413-.49 98.01-3.544 10.7007-10.8948 14.7848-22.0523 12.2513-4.7368-2.1239-8.1672-5.5542-10.2911-10.2911-.6537-40.8378-.6537-81.6747 0-122.5125 2.0053-5.1063 5.4356-8.7003 10.2911-10.7811Z" stroke="#44739e" stroke-width="4" fill="none"/>
</svg>