<svg xmlns="http://www.w3.org/2000/svg" viewBox="0 0 512 512">
	<path d="M232.85 4.51c15.0263 0 30.0537 0 45.08 0 87.8511 10.6701 154.0011 54.1169 198.45 130.34 16.3611 30.8416 26.3238 63.5079 29.89 98 0 15.0263 0 30.0537 0 45.08-10.6702 87.8511-54.1166 154.0011-130.34 198.45-30.8416 16.3611-63.5079 26.3238-98 29.89-15.0263 0-30.0537 0-45.08 0C144.9989 495.5998 78.8491 452.1534 34.4 375.93c-16.3608-30.8416-26.3242-63.5079-29.89-98 0-15.0263 0-30.0537 0-45.08C15.1797 144.9999 58.6264 78.8502 134.85 34.4c30.8416-16.3608 63.5079-26.3242 98-29.89Zm21.56 28.42c92.7276 4.1113 160.1849 47.2313 202.37 129.36 25.3105 58.5815 26.6178 117.7078 3.92 177.38-31.9451 71.783-86.3351 116.373-163.17 133.77-84.3594 12.935-155.0821-12.055-212.17-74.97-55.0799-70.9785-66.1866-148.3985-33.32-232.26C87.0946 92.3854 145.0783 48.7754 225.99 35.38c9.6207-.8513 19.0943-1.668 28.42-2.45Zm-30.38 85.26c9.0336-1.2809 15.73 1.9855 20.09 9.8 3.383 18.5044 6.813 36.9607 10.29 55.37 27.5625-4.0209 55.1662-8.1046 82.81-12.25 14.4893 1.518 19.7156 9.358 15.68 23.52-2.1776 3.8102-5.2802 6.5866-9.31 8.33-27.7095 4.8363-55.4768 9.2463-83.3 13.23 2.1923 13.1526 4.8049 26.2199 7.84 39.2 33.4592-6.9208 66.9428-13.7808 100.45-20.58 11.6101 1.4778 17.1627 8.0105 16.66 19.6-1.1231 6.6581-4.8794 11.0681-11.27 13.23-33.4562 6.5925-66.7762 13.6161-99.96 21.07 6.4553 29.252 12.9889 58.4884 19.6 87.71-1.8297 13.1781-9.3423 18.4044-22.54 15.68-4.41-1.7963-7.5137-4.9-9.31-9.31-7.3863-29.254-14.0826-58.654-20.09-88.2-33.1407 6.5954-66.297 13.1291-99.47 19.6-15.5173-3.0919-20.091-11.9119-13.72-26.46 1.8355-2.1648 3.9592-3.9612 6.37-5.39 33.2416-7.1383 66.5616-13.8347 99.96-20.09-2.2481-13.329-4.8608-26.559-7.84-39.69-26.5854 3.9131-53.2091 7.9958-79.87 12.25-15.5173-3.0919-20.091-11.9119-13.72-26.46 2.7224-3.2409 6.1524-5.3645 10.29-6.37 25.7838-4.2973 51.5901-8.381 77.42-12.25-2.939-18.2858-5.879-36.5785-8.82-54.88.3263-8.1879 4.2463-13.7416 11.76-16.66Z" stroke="#44739e" stroke-width="4" fill="none"/>
</svg>