<svg xmlns="http://www.w3.org/2000/svg" viewBox="0 0 512 512">
	<path d="M338.69 118.19c-2.497 1.1682-4.7844 2.8008-6.86 4.9-49.148 62.0761-107.948 112.5461-176.4 151.41-2.9547 2.8057-4.752 6.2357-5.39 10.29.49 15.191 8.1673 21.2346 23.03 18.13 31.8451-17.6312 61.7351-38.0475 89.67-61.25.3263 46.7137.6537 93.4263.98 140.14 1.7032 3.6662 4.1532 6.7698 7.35 9.31 12.3049 4.5403 20.6349.783 24.99-11.27.3263-56.1863.6537-112.3737.98-168.56 21.7001-21.0396 41.9528-43.2533 60.76-66.64 1.2495-2.1727 2.2295-4.46 2.94-6.86.2646-14.9205-7.0854-21.4532-22.05-19.6ZM254.41 32.93c-9.3257.782-18.7993 1.5987-28.42 2.45C145.0783 48.7754 87.0946 92.3854 52.04 166.21 19.1734 250.0715 30.2801 327.4915 85.36 398.47c57.0879 62.915 127.8106 87.905 212.17 74.97 76.8349-17.397 131.2249-61.987 163.17-133.77 22.6978-59.6722 21.3905-118.7985-3.92-177.38C414.5949 80.1613 347.1376 37.0413 254.41 32.93ZM232.85 4.51c-34.4921 3.5658-67.1584 13.5292-98 29.89C58.6264 78.8502 15.1797 144.9999 4.51 232.85c-0 15.0263-0 30.0537-0 45.08 3.5658 34.4921 13.5292 67.1584 29.89 98 44.4491 76.2234 110.5989 119.6698 198.45 130.34 15.0263 0 30.0537 0 45.08 0 34.4921-3.5662 67.1584-13.5289 98-29.89 76.2234-44.4489 119.6698-110.5989 130.34-198.45 0-15.0263 0-30.0537 0-45.08-3.5662-34.4921-13.5289-67.1584-29.89-98C431.9311 58.6269 365.7811 15.1801 277.93 4.51c-15.0263 0-30.0537 0-45.08 0Z" stroke="#44739e" stroke-width="4" fill="none"/>
</svg>