<svg xmlns="http://www.w3.org/2000/svg" viewBox="0 0 512 512">
	<path d="M251.5-.5c2.667 0 5.333 0 8 0 23.83 24.9856 36.664 54.6523 38.5 89-4.333 4-8.667 4-13 0-4.183-24.8518-13.683-47.3518-28.5-67.5-1.496-.5074-2.663-.0074-3.5 1.5-23.119 33.5839-31.452 70.5839-25 111 3.233 14.028 7.066 27.861 11.5 41.5-1.482 13.482-8.982 20.982-22.5 22.5-9.181-.584-15.848-4.917-20-13-14.603-52.933-47.603-88.9334-99-108 .1706 59.446 25.671 104.279 76.5 134.5 9.089 8.88 10.256 18.713 3.5 29.5-7.495 8.081-16.328 9.914-26.5 5.5-8.116-6.78-16.782-12.78-26-18-11.802-5.373-23.635-10.54-35.5-15.5-2.6568-7.02-.3235-11.353 7-13 23.5 6.499 44.667 17.332 63.5 32.5 3.183.342 5.183-1.158 6-4.5-.54-1.248-1.207-2.415-2-3.5-52.416-31.978-80.0828-78.812-83-140.5.057-6.7017.557-13.3684 1.5-20 1.5663-3.3126 4.2329-4.9792 8-5 48.627 12.2937 84.627 40.627 108 85 5.516 11.214 9.85 22.881 13 35 5.078 4.225 8.911 3.225 11.5-3-21.22-53.066-17.72-104.399 10.5-154 5.286-7.7844 11.12-15.1177 17.5-22Zm260 207c0 2 0 4 0 6-9.005 18.859-21.338 35.359-37 49.5-9.289 2.29-13.122-1.21-11.5-10.5 11.027-11.021 20.527-23.188 28.5-36.5-49.129-11.706-93.129-1.373-132 31-17.42 5.625-27.754-.541-31-18.5.236-4.279 1.403-8.279 3.5-12 10.167-7.5 20.333-15 30.5-22.5 34.475-31.124 51.309-69.957 50.5-116.5-51.397 19.0666-84.397 55.067-99 108-7.158 12.003-17.325 15.503-30.5 10.5-7.843-4.35-11.843-11.017-12-20 2.953-10.529 6.12-21.029 9.5-31.5 1.986-8.903 3.319-17.903 4-27 3.994-7.163 8.994-7.83 15-2 .567 10.47-.433 20.803-3 31-2.666 10.164-5.833 20.164-9.5 30 2.589 6.225 6.422 7.225 11.5 3 13.901-51.628 45.067-88.795 93.5-111.5 8.916-3.6385 18.082-6.4718 27.5-8.5 3.767.0208 6.434 1.6874 8 5 5.135 56.216-13.031 103.383-54.5 141.5-8.446 7.111-17.446 13.445-27 19-2.585 3.696-1.752 6.53 2.5 8.5 23.714-18.769 50.547-30.936 80.5-36.5 26.177-4.438 51.844-2.438 77 6 2.187 1.025 3.854 2.525 5 4.5Zm-252 305c-2.667 0-5.333 0-8 0-.958-1.462-2.124-2.795-3.5-4-.333-48.333-.667-96.667-1-145-4.24-2.883-8.74-4.717-13.5-5.5-11.71 5.052-22.377 11.719-32 20-52.68 30.502-105.6802 31.169-159 2-5.4907-2.482-7.6574-6.649-6.5-12.5 31.8008-36.956 72.301-54.79 121.5-53.5 2.806-1.305 3.64-3.472 2.5-6.5-1.351-1.51-3.018-2.51-5-3-63.6944 1.489-113.0277-24.177-148-77-2.2743-4.887-4.7743-9.554-7.5-14 0-2 0-4 0-6 1.1464-1.975 2.8131-3.475 5-4.5 20.1889-7.218 40.8556-9.551 62-7 5.5623 5.163 5.229 9.829-1 14-10.3614.274-20.6947.941-31 2-5.2617.565-10.2617 1.898-15 4 29.1744 46.606 71.5078 71.106 127 73.5 13.851-3.489 23.684 1.177 29.5 14 2.768 14.652-3.065 23.485-17.5 26.5-39.688-1.335-73.6877 11.665-102 39 43.4071 22.2 86.74 21.867 130-1 10-6.667 20-13.333 30-20-10.151 1.212-20.318 2.712-30.5 4.5-6.839-.688-9.506-4.355-8-11 .785-1.786 1.951-3.286 3.5-4.5 15.482-2.08 30.815-4.913 46-8.5-18.756-19.264-39.423-36.097-62-50.5-4.426-5.441-3.759-10.108 2-14 3.62-.841 6.954-.174 10 2 19.741 12.395 37.741 27.062 54 44 .667.667 1.333.667 2 0-11.66-25.821-23.994-51.321-37-76.5 3.166-8.946 8.333-10.279 15.5-4 12.74 23.479 24.406 47.479 35 72 .017-27.42.684-54.753 2-82 5.441-4.426 10.108-3.759 14 2 .333 26.667.667 53.333 1 80 10.791-25.75 23.291-50.583 37.5-74.5 6.849-3 11.182-.834 13 6.5-12.802 24.604-24.802 49.604-36 75 .167.333.333.667.5 1 13.751-15.097 29.251-27.93 46.5-38.5 8.167-1.167 11.667 2.333 10.5 10.5-18.971 14.29-36.805 30.124-53.5 47.5 16.713 2.91 33.38 5.91 50 9 4.426 5.441 3.759 10.108-2 14-11.344-.906-22.677-1.906-34-3 7.943 4.944 15.609 10.277 23 16 44.359 25.669 89.359 27.003 135 4-28.312-27.335-62.312-40.335-102-39-16.706-4.58-21.873-15.08-15.5-31.5 3.011-4.02 6.844-6.853 11.5-8.5 31.804 1.302 61.804-5.698 90-21 9.548-.747 12.715 3.42 9.5 12.5-28.234 17.225-58.901 24.892-92 23-4.586.908-6.252 3.574-5 8 38.798-.264 73.632 11.236 104.5 34.5 7.068 6.313 13.568 13.146 19.5 20.5.755 2.803.422 5.47-1 8-21.555 15.631-45.721 24.131-72.5 25.5-41.915 2.029-78.915-10.305-111-37-5.253-3.473-10.919-5.473-17-6-3.085 1.96-6.252 3.793-9.5 5.5-.333 48-.667 96-1 144-.997 1.823-2.164 3.49-3.5 5Zm-8-188c10.642-.523 15.809 4.477 15.5 15-4.026 8.342-10.193 10.508-18.5 6.5-7.2-8.303-6.2-15.469 3-21.5Z" stroke="#44739e" stroke-width="4" fill="none"/>
</svg>