<svg xmlns="http://www.w3.org/2000/svg" viewBox="0 0 512 512">
	<path d="M 135.5,-0.5 C 140.5,-0.5 145.5,-0.5 150.5,-0.5C 162.77,2.64347 172.77,9.31014 180.5,19.5C 188.23,9.31014 198.23,2.64347 210.5,-0.5C 215.5,-0.5 220.5,-0.5 225.5,-0.5C 229.232,1.40474 231.732,4.40474 233,8.5C 234.339,21.0534 233.339,33.3867 230,45.5C 227.562,50.2666 224.729,54.7666 221.5,59C 240.224,58.7228 249.057,67.8895 248,86.5C 246.386,94.7528 241.719,100.419 234,103.5C 233.333,121.833 233.333,140.167 234,158.5C 246.483,164.813 250.817,174.813 247,188.5C 244.641,194.859 240.308,199.193 234,201.5C 233.667,211.167 233.333,220.833 233,230.5C 230.565,235.224 226.731,236.724 221.5,235C 220.333,233.833 219.167,232.667 218,231.5C 217.5,221.839 217.334,212.172 217.5,202.5C 192.833,202.5 168.167,202.5 143.5,202.5C 143.5,220.167 143.5,237.833 143.5,255.5C 173.169,255.333 202.835,255.5 232.5,256C 246.032,261.901 250.865,272.067 247,286.5C 244.641,292.859 240.308,297.193 234,299.5C 233.333,317.833 233.333,336.167 234,354.5C 246.483,360.813 250.817,370.813 247,384.5C 244.641,390.859 240.308,395.193 234,397.5C 233.5,415.497 233.333,433.497 233.5,451.5C 248.167,451.5 262.833,451.5 277.5,451.5C 277.667,433.497 277.5,415.497 277,397.5C 262.879,389.715 259.213,378.382 266,363.5C 268.767,359.692 272.267,356.692 276.5,354.5C 277.666,336.176 277.833,317.842 277,299.5C 262.879,291.715 259.213,280.382 266,265.5C 268.767,261.692 272.267,258.692 276.5,256.5C 277.666,238.176 277.833,219.842 277,201.5C 264.51,195.176 260.177,185.176 264,171.5C 268.924,160.615 277.424,155.782 289.5,157C 284.572,151.313 281.072,144.813 279,137.5C 277.495,127.212 277.162,116.878 278,106.5C 280.456,99.4326 285.456,96.4326 293,97.5C 308.526,98.513 321.026,105.18 330.5,117.5C 341.774,102.57 356.774,96.0699 375.5,98C 378.171,99.25 380.337,101.083 382,103.5C 384.421,116.982 383.754,130.315 380,143.5C 377.562,148.267 374.729,152.767 371.5,157C 387.642,156.056 396.642,163.556 398.5,179.5C 398.201,189.942 393.368,197.275 384,201.5C 383.333,214.833 383.333,228.167 384,241.5C 388.333,237.167 392.667,232.833 397,228.5C 397.142,214.407 401.476,201.74 410,190.5C 422.963,172.535 438.796,157.702 457.5,146C 467.653,139.042 478.653,137.042 490.5,140C 495.616,143.392 498.282,148.225 498.5,154.5C 496.681,167.137 491.847,178.47 484,188.5C 468.709,209.795 449.209,225.962 425.5,237C 420.182,238.739 414.848,239.406 409.5,239C 402.468,245.697 395.802,252.697 389.5,260C 397.809,267.054 400.309,275.888 397,286.5C 394.641,292.859 390.308,297.193 384,299.5C 383.333,312.833 383.333,326.167 384,339.5C 388.333,335.167 392.667,330.833 397,326.5C 397.142,312.407 401.476,299.74 410,288.5C 424.5,267.661 443,251.494 465.5,240C 474.939,235.472 484.272,235.472 493.5,240C 498.499,246.494 499.666,253.661 497,261.5C 482.644,295.19 458.81,319.69 425.5,335C 420.182,336.739 414.848,337.406 409.5,337C 402.468,343.697 395.802,350.697 389.5,358C 397.809,365.054 400.309,373.888 397,384.5C 394.641,390.859 390.308,395.193 384,397.5C 383.5,415.497 383.333,433.497 383.5,451.5C 392.938,450.802 400.105,454.469 405,462.5C 409.541,474.289 413.374,486.289 416.5,498.5C 416.21,504.426 413.543,508.759 408.5,511.5C 306.5,511.5 204.5,511.5 102.5,511.5C 97.4567,508.759 94.79,504.426 94.5,498.5C 97.6258,486.289 101.459,474.289 106,462.5C 110.895,454.469 118.062,450.802 127.5,451.5C 127.667,433.497 127.5,415.497 127,397.5C 113.575,390.511 109.575,379.844 115,365.5C 116.36,362.265 118.527,359.765 121.5,358C 115.198,350.697 108.532,343.697 101.5,337C 91.9304,337.357 82.9304,335.023 74.5,330C 51.6667,316.5 33.5,298.333 20,275.5C 13.9029,266.236 11.9029,256.236 14,245.5C 17.1235,238.734 22.4569,235.734 30,236.5C 35.4378,236.485 40.6045,237.651 45.5,240C 75.5247,255.69 97.6913,278.857 112,309.5C 113.124,315.103 113.79,320.769 114,326.5C 118.333,330.833 122.667,335.167 127,339.5C 127.667,326.167 127.667,312.833 127,299.5C 113.575,292.511 109.575,281.844 115,267.5C 116.36,264.265 118.527,261.765 121.5,260C 115.198,252.697 108.532,245.697 101.5,239C 91.9304,239.357 82.9304,237.023 74.5,232C 51.6667,218.5 33.5,200.333 20,177.5C 13.9029,168.236 11.9029,158.236 14,147.5C 17.1235,140.734 22.4569,137.734 30,138.5C 35.4378,138.485 40.6045,139.651 45.5,142C 75.5247,157.69 97.6913,180.857 112,211.5C 113.124,217.103 113.79,222.769 114,228.5C 118.333,232.833 122.667,237.167 127,241.5C 127.667,228.167 127.667,214.833 127,201.5C 113.575,194.511 109.575,183.844 115,169.5C 116.36,166.265 118.527,163.765 121.5,162C 115.198,154.697 108.532,147.697 101.5,141C 91.9304,141.357 82.9304,139.023 74.5,134C 51.6667,120.5 33.5,102.333 20,79.5C 13.9029,70.2364 11.9029,60.2364 14,49.5C 17.1235,42.7338 22.4569,39.7338 30,40.5C 35.4378,40.4846 40.6045,41.6512 45.5,44C 73.6667,58.8333 95.1667,80.3333 110,108.5C 112.851,115.542 114.184,122.875 114,130.5C 118.333,134.833 122.667,139.167 127,143.5C 127.667,130.167 127.667,116.833 127,103.5C 114.51,97.1761 110.177,87.1761 114,73.5C 118.924,62.6154 127.424,57.782 139.5,59C 133.098,51.6927 129.264,43.1927 128,33.5C 127.333,25.1667 127.333,16.8333 128,8.5C 129.268,4.40474 131.768,1.40474 135.5,-0.5 Z M 143.5,15.5 C 158.862,17.6935 168.362,26.3601 172,41.5C 172.499,47.1569 172.666,52.8236 172.5,58.5C 157.138,56.3065 147.638,47.6399 144,32.5C 143.501,26.8431 143.334,21.1764 143.5,15.5 Z M 212.5,15.5 C 214.167,15.5 215.833,15.5 217.5,15.5C 220.604,36.171 212.604,50.3377 193.5,58C 191.866,58.4935 190.199,58.6602 188.5,58.5C 185.407,37.6633 193.407,23.3299 212.5,15.5 Z M 28.5,56.5 C 35.7087,57.5146 42.3754,60.0146 48.5,64C 70.4048,78.0211 86.5715,96.8544 97,120.5C 97.7975,122.259 97.6309,123.926 96.5,125.5C 80.612,119.641 66.7787,110.641 55,98.5C 48.1851,90.8639 41.8517,82.8639 36,74.5C 32.6534,68.8125 30.1534,62.8125 28.5,56.5 Z M 135.5,74.5 C 165.502,74.3334 195.502,74.5 225.5,75C 232.036,76.5722 233.869,80.4055 231,86.5C 229.352,87.717 227.519,88.5503 225.5,89C 195.5,89.6667 165.5,89.6667 135.5,89C 128.964,87.4278 127.131,83.5945 130,77.5C 131.876,76.3913 133.709,75.3913 135.5,74.5 Z M 143.5,104.5 C 168.167,104.5 192.833,104.5 217.5,104.5C 217.5,122.167 217.5,139.833 217.5,157.5C 192.833,157.5 168.167,157.5 143.5,157.5C 143.5,139.833 143.5,122.167 143.5,104.5 Z M 293.5,113.5 C 308.862,115.693 318.362,124.36 322,139.5C 322.499,145.157 322.666,150.824 322.5,156.5C 307.138,154.307 297.638,145.64 294,130.5C 293.501,124.843 293.334,119.176 293.5,113.5 Z M 362.5,113.5 C 364.167,113.5 365.833,113.5 367.5,113.5C 370.604,134.171 362.604,148.338 343.5,156C 341.866,156.494 340.199,156.66 338.5,156.5C 335.407,135.663 343.407,121.33 362.5,113.5 Z M 28.5,154.5 C 35.7087,155.515 42.3754,158.015 48.5,162C 70.4048,176.021 86.5715,194.854 97,218.5C 97.7975,220.259 97.6309,221.926 96.5,223.5C 80.6008,217.636 66.7675,208.636 55,196.5C 48.1851,188.864 41.8517,180.864 36,172.5C 32.6534,166.812 30.1534,160.812 28.5,154.5 Z M 477.5,154.5 C 479.288,154.215 480.955,154.548 482.5,155.5C 476.686,171.132 467.852,184.798 456,196.5C 444.232,208.636 430.399,217.636 414.5,223.5C 413.864,218.207 415.031,213.207 418,208.5C 432.385,184.272 452.218,166.272 477.5,154.5 Z M 135.5,172.5 C 165.502,172.333 195.502,172.5 225.5,173C 232.036,174.572 233.869,178.405 231,184.5C 229.352,185.717 227.519,186.55 225.5,187C 195.5,187.667 165.5,187.667 135.5,187C 128.964,185.428 127.131,181.595 130,175.5C 131.876,174.391 133.709,173.391 135.5,172.5 Z M 285.5,172.5 C 315.502,172.333 345.502,172.5 375.5,173C 382.036,174.572 383.869,178.405 381,184.5C 379.352,185.717 377.519,186.55 375.5,187C 345.5,187.667 315.5,187.667 285.5,187C 278.964,185.428 277.131,181.595 280,175.5C 281.876,174.391 283.709,173.391 285.5,172.5 Z M 293.5,202.5 C 318.167,202.5 342.833,202.5 367.5,202.5C 367.5,220.167 367.5,237.833 367.5,255.5C 342.833,255.5 318.167,255.5 293.5,255.5C 293.5,237.833 293.5,220.167 293.5,202.5 Z M 28.5,252.5 C 35.6874,253.508 42.3541,256.008 48.5,260C 70.4048,274.021 86.5715,292.854 97,316.5C 97.7975,318.259 97.6309,319.926 96.5,321.5C 80.6008,315.636 66.7675,306.636 55,294.5C 48.1851,286.864 41.8517,278.864 36,270.5C 32.6534,264.812 30.1534,258.812 28.5,252.5 Z M 477.5,252.5 C 479.288,252.215 480.955,252.548 482.5,253.5C 476.686,269.132 467.852,282.798 456,294.5C 444.232,306.636 430.399,315.636 414.5,321.5C 413.864,316.207 415.031,311.207 418,306.5C 432.385,282.272 452.218,264.272 477.5,252.5 Z M 135.5,270.5 C 165.502,270.333 195.502,270.5 225.5,271C 232.036,272.572 233.869,276.405 231,282.5C 229.352,283.717 227.519,284.55 225.5,285C 195.5,285.667 165.5,285.667 135.5,285C 128.964,283.428 127.131,279.595 130,273.5C 131.876,272.391 133.709,271.391 135.5,270.5 Z M 285.5,270.5 C 315.502,270.333 345.502,270.5 375.5,271C 382.036,272.572 383.869,276.405 381,282.5C 379.352,283.717 377.519,284.55 375.5,285C 345.5,285.667 315.5,285.667 285.5,285C 278.964,283.428 277.131,279.595 280,273.5C 281.876,272.391 283.709,271.391 285.5,270.5 Z M 143.5,300.5 C 168.167,300.5 192.833,300.5 217.5,300.5C 217.5,318.167 217.5,335.833 217.5,353.5C 192.833,353.5 168.167,353.5 143.5,353.5C 143.5,335.833 143.5,318.167 143.5,300.5 Z M 293.5,300.5 C 318.167,300.5 342.833,300.5 367.5,300.5C 367.5,318.167 367.5,335.833 367.5,353.5C 342.833,353.5 318.167,353.5 293.5,353.5C 293.5,335.833 293.5,318.167 293.5,300.5 Z M 135.5,368.5 C 165.502,368.333 195.502,368.5 225.5,369C 232.036,370.572 233.869,374.405 231,380.5C 229.352,381.717 227.519,382.55 225.5,383C 195.5,383.667 165.5,383.667 135.5,383C 128.964,381.428 127.131,377.595 130,371.5C 131.876,370.391 133.709,369.391 135.5,368.5 Z M 285.5,368.5 C 315.502,368.333 345.502,368.5 375.5,369C 382.036,370.572 383.869,374.405 381,380.5C 379.352,381.717 377.519,382.55 375.5,383C 345.5,383.667 315.5,383.667 285.5,383C 278.964,381.428 277.131,377.595 280,371.5C 281.876,370.391 283.709,369.391 285.5,368.5 Z M 143.5,398.5 C 168.167,398.5 192.833,398.5 217.5,398.5C 217.5,416.167 217.5,433.833 217.5,451.5C 192.833,451.5 168.167,451.5 143.5,451.5C 143.5,433.833 143.5,416.167 143.5,398.5 Z M 293.5,398.5 C 318.167,398.5 342.833,398.5 367.5,398.5C 367.5,416.167 367.5,433.833 367.5,451.5C 350.497,451.333 333.497,451.5 316.5,452C 311.177,456.62 311.177,461.286 316.5,466C 340.23,466.03 363.896,466.696 387.5,468C 389.333,468.5 390.5,469.667 391,471.5C 393.641,479.758 396.475,487.925 399.5,496C 303.5,496.667 207.5,496.667 111.5,496C 114.662,487.183 117.828,478.35 121,469.5C 122.648,468.283 124.481,467.45 126.5,467C 180.833,466.667 235.167,466.333 289.5,466C 291.049,464.786 292.215,463.286 293,461.5C 293.5,440.503 293.667,419.503 293.5,398.5 Z" stroke="#44739e" stroke-width="4" fill="none"/>
</svg>