<svg xmlns="http://www.w3.org/2000/svg" viewBox="0 0 512 512">
	<path d="M227.5 7.5c18.67-.1666 37.336 0 56 .5 1.833.5 3 1.6667 3.5 3.5.167 20.3415.667 40.6749 1.5 61 15.369 8.613 19.203 20.9463 11.5 37-3.117 3.954-6.95 6.954-11.5 9-1.167 28.327-1.333 56.661-.5 85 13.403-20.125 31.57-34.125 54.5-42 1.333-14.333 1.333-28.667 0-43-15.369-8.613-19.203-20.9463-11.5-37 3.117-3.9542 6.95-6.9542 11.5-9 .522-21.0807 1.355-42.0807 2.5-63 .75-.6258 1.584-1.1258 2.5-1.5 18.667-.6667 37.333-.6667 56 0 1.833.5 3 1.6667 3.5 3.5.167 20.3415.667 40.6749 1.5 61 15.369 8.613 19.203 20.9463 11.5 37-3.117 3.954-6.95 6.954-11.5 9-1.333 54-1.333 108 0 162 15.369 8.613 19.203 20.946 11.5 37-3.117 3.954-6.95 6.954-11.5 9-1.166 14.989-1.333 29.989-.5 45 11.789-16.786 26.956-29.62 45.5-38.5 13.667-5.112 27.501-9.612 41.5-13.5 6.167-.5 9 2.333 8.5 8.5-3.888 13.999-8.388 27.833-13.5 41.5-16.943 34.57-44.443 55.237-82.5 62 .48 23.424-.02 46.757-1.5 70-.75.626-1.584 1.126-2.5 1.5-18.667.667-37.333.667-56 0-.916-.374-1.75-.874-2.5-1.5-1.159-58.254-1.992-116.587-2.5-175-15.369-8.613-19.203-20.946-11.5-37 3.117-3.954 6.95-6.954 11.5-9 1.333-14 1.333-28 0-42-15.708 13.911-34.041 22.245-55 25-.333 27.008 0 54.008 1 81 15.369 8.613 19.203 20.946 11.5 37-3.117 3.954-6.95 6.954-11.5 9-.833 36.329-1.333 72.662-1.5 109-.5 1.833-1.667 3-3.5 3.5-19.423.975-38.757.641-58-1-.626-.75-1.126-1.584-1.5-2.5-.167-36.338-.667-72.671-1.5-109-15.369-8.613-19.203-20.946-11.5-37 3.117-3.954 6.95-6.954 11.5-9 1.333-45.667 1.333-91.333 0-137-38.656-7.065-66.156-28.398-82.5-64-4.798-13.228-9.298-26.561-13.5-40 .667-5.3333 3.667-8.3333 9-9 19.781 5.647 38.781 13.147 57 22.5 12.167 8.167 22.333 18.333 30.5 30.5.832-9.684.665-19.351-.5-29-15.369-8.613-19.203-20.9463-11.5-37 3.117-3.9542 6.95-6.9542 11.5-9 .833-20.3251 1.333-40.6585 1.5-61 .69-1.8502 1.856-3.1836 3.5-4Zm12 16c10.667 0 21.333 0 32 0 0 16 0 32 0 48-10.667 0-21.333 0-32 0 0-16 0-32 0-48Zm120 0c10.667 0 21.333 0 32 0 0 16 0 32 0 48-10.667 0-21.333 0-32 0 0-16 0-32 0-48Zm-128 64c16.003-.1666 32.003.0001 48 .5 7.092 2.1593 8.758 6.4926 5 13-1.587.862-3.254 1.529-5 2-16 .667-32 .667-48 0-6.847-1.866-8.68-6.0323-5.5-12.5 1.876-1.1087 3.709-2.1087 5.5-3Zm120 0c16.003-.1666 32.003.0001 48 .5 7.092 2.1593 8.758 6.4926 5 13-1.587.862-3.254 1.529-5 2-16 .667-32 .667-48 0-6.847-1.866-8.68-6.0323-5.5-12.5 1.876-1.1087 3.709-2.1087 5.5-3Zm-202 30c38.378 9.712 62.378 33.712 72 72-38.288-9.622-62.288-33.622-72-72Zm90 2c10.667 0 21.333 0 32 0-.449 74.722-.449 149.388 0 224-10.667 0-21.333 0-32 0 0-74.667 0-149.333 0-224Zm120 0c10.667 0 21.333 0 32 0 0 53.333 0 106.667 0 160-10.667 0-21.333 0-32 0-.167-20.336 0-40.669.5-61 5.031-6.725 9.031-14.058 12-22 4.248-12.075 8.081-24.242 11.5-36.5.5-3.668-.834-6.334-4-8-3-.667-6-.667-9 0-3.665 1.278-7.332 2.444-11 3.5 0-12 0-24 0-36Zm0 54c.876-.131 1.543.202 2 1-10.204 37.872-34.204 61.539-72 71 7.104-30.373 24.771-52.206 53-65.5 5.805-2.097 11.471-4.263 17-6.5Zm-8 122c16.003-.167 32.003 0 48 .5 7.092 2.159 8.758 6.493 5 13-1.587.862-3.254 1.529-5 2-16 .667-32 .667-48 0-6.847-1.866-8.68-6.032-5.5-12.5 1.876-1.109 3.709-2.109 5.5-3Zm8 32c10.667 0 21.333 0 32 0-.469 53.388-.469 106.722 0 160-10.667 0-21.333 0-32 0 0-53.333 0-106.667 0-160Zm120 14c.876-.131 1.543.202 2 1-10.204 37.872-34.204 61.539-72 71 7.104-30.373 24.771-52.206 53-65.5 5.805-2.097 11.471-4.263 17-6.5Zm-248 18c16.003-.167 32.003 0 48 .5 7.092 2.159 8.758 6.493 5 13-1.587.862-3.254 1.529-5 2-16 .667-32 .667-48 0-6.847-1.866-8.68-6.032-5.5-12.5 1.876-1.109 3.709-2.109 5.5-3Zm8 32c10.667 0 21.333 0 32 0 0 32 0 64 0 96-10.667 0-21.333 0-32 0 0-32 0-64 0-96Zm-97-208c15.272-2.874 23.938 3.293 26 18.5-1.323 34.142-1.323 68.309 0 102.5 13.761 7.102 18.261 18.102 13.5 33-3.082 6.084-7.749 10.417-14 13-.333 49.667-.667 99.333-1 149-.5 1.833-1.667 3-3.5 3.5-18.667.667-37.333.667-56 0-1.833-.5-3-1.667-3.5-3.5-.167-14.678-.667-29.345-1.5-44-36.7363-6.926-63.5697-26.926-80.5-60-5.7374-14.379-10.5707-29.045-14.5-44-.1579-5.509 2.5088-8.509 8-9 19.9216 5.299 38.9216 12.799 57 22.5 12.1667 8.167 22.3333 18.333 30.5 30.5.667-15 .667-30 0-45-15.8273-8.482-19.8273-20.815-12-37 3.0923-3.923 6.9256-6.923 11.5-9 .833-26.994 1.333-53.994 1.5-81 5.922-20.087 18.755-33.42 38.5-40Zm3 17c2.477-.449 4.477.217 6 2-4.36 15.693-14.36 25.693-30 30-.915-.828-1.581-1.828-2-3 2.471-8.302 6.805-15.469 13-21.5 4.102-3.046 8.435-5.546 13-7.5Zm5 35c.997 22.16 1.331 44.494 1 67-10.667 0-21.333 0-32 0 0-17.667 0-35.333 0-53 12.27-.639 22.603-5.306 31-14Zm-40 84c16.67-.167 33.337 0 50 .5 5.559 1.458 7.392 4.958 5.5 10.5-.5 1.833-1.667 3-3.5 3.5-18 .667-36 .667-54 0-3.712-2.513-4.878-6.013-3.5-10.5 1.5-1.969 3.333-3.302 5.5-4Zm9 32c10.667 0 21.333 0 32 0 0 45.333 0 90.667 0 136-10.667 0-21.333 0-32 0 .299-45.277.299-90.61 0-136Zm-90 14c38.4186 9.752 62.4186 33.752 72 72-38.2885-9.622-62.2885-33.622-72-72Z" stroke="#44739e" stroke-width="4" fill="none"/>
</svg>