<svg xmlns="http://www.w3.org/2000/svg" viewBox="0 0 500 500">
	<path d="M 316.5,17.5 C 322.221,17.3686 327.888,17.8686 333.5,19C 357.667,23.8333 381.833,28.6667 406,33.5C 413.008,30.4122 419.842,26.9122 426.5,23C 428.167,22.3333 429.833,22.3333 431.5,23C 442.908,28.786 454.075,34.9527 465,41.5C 467.243,48.2648 464.743,51.0981 457.5,50C 447.92,44.9604 438.42,39.7937 429,34.5C 424.742,37.3804 420.242,39.8804 415.5,42C 414.424,43.7261 414.257,45.5594 415,47.5C 417.667,56.1667 420.333,64.8333 423,73.5C 425.387,82.0969 422.221,86.2635 413.5,86C 411.061,85.2261 409.227,83.7261 408,81.5C 404.725,70.511 401.558,59.511 398.5,48.5C 373.115,43.7564 347.782,38.7564 322.5,33.5C 316.61,34.2775 311.277,36.4442 306.5,40C 299.803,47.0317 292.803,53.6984 285.5,60C 252.592,76.6207 219.592,92.9541 186.5,109C 181.333,111.5 177.5,115.333 175,120.5C 172.864,126.709 171.198,133.042 170,139.5C 169.022,147.048 171.522,153.214 177.5,158C 186.27,164.136 194.77,170.636 203,177.5C 205.231,184.736 202.731,188.736 195.5,189.5C 191.829,188.093 187.995,187.093 184,186.5C 175.456,187.171 166.956,188.171 158.5,189.5C 162.121,192.144 166.121,193.977 170.5,195C 193.195,198.147 215.861,201.48 238.5,205C 247.047,210.59 252.213,218.424 254,228.5C 254.302,249.201 253.635,269.867 252,290.5C 248.833,297.667 243.667,302.833 236.5,306C 226.352,314.905 216.018,323.571 205.5,332C 183.547,340.985 161.214,348.985 138.5,356C 132.351,356.861 128.684,354.195 127.5,348C 127.903,345.113 129.236,342.779 131.5,341C 152.726,334.258 173.726,326.925 194.5,319C 208.333,307.833 222.167,296.667 236,285.5C 236.944,268.833 237.778,252.166 238.5,235.5C 238.01,230.023 236.01,225.189 232.5,221C 208.852,217.225 185.185,213.559 161.5,210C 148.344,203.589 135.344,196.922 122.5,190C 110.875,181.87 98.875,174.37 86.5,167.5C 72.5,170.667 58.5,173.833 44.5,177C 40.1667,180 36.5,183.667 33.5,188C 28.6007,190.55 25.2673,189.216 23.5,184C 27.0197,177.472 31.6864,171.805 37.5,167C 51.5803,163.918 65.5803,160.585 79.5,157C 76.5,153.333 73.5,149.667 70.5,146C 63.726,145.922 57.0594,145.255 50.5,144C 46.2424,138.97 46.5757,134.303 51.5,130C 60.5,129.333 69.5,129.333 78.5,130C 85.3558,138.021 92.0225,146.188 98.5,154.5C 109.431,161.882 120.597,168.882 132,175.5C 143.865,174.164 155.698,172.664 167.5,171C 156.116,161.856 151.616,150.023 154,135.5C 155.007,120.321 161.173,107.821 172.5,98C 178.167,94.8333 183.833,91.6667 189.5,88.5C 182.44,84.3035 175.107,80.6368 167.5,77.5C 157.724,80.703 148.058,84.203 138.5,88C 136.5,88.6667 134.5,88.6667 132.5,88C 121.934,83.1356 111.768,77.6356 102,71.5C 101.004,64.8336 103.837,62.3336 110.5,64C 118.939,68.3027 127.439,72.4693 136,76.5C 144.553,73.8232 152.72,70.4899 160.5,66.5C 156.058,58.1203 152.058,49.6203 148.5,41C 149.792,33.1856 154.126,30.8522 161.5,34C 162.333,34.8333 163.167,35.6667 164,36.5C 168.451,45.9038 173.284,55.0704 178.5,64C 188.598,69.3827 198.931,74.216 209.5,78.5C 232.285,67.6078 254.951,56.4411 277.5,45C 283.864,38.3014 290.531,31.9681 297.5,26C 303.446,22.0218 309.779,19.1885 316.5,17.5 Z
M 314.5,37.5 C 324.33,35.8292 328.163,39.8292 326,49.5C 319.333,58.1667 312.667,66.8333 306,75.5C 302.282,79.2735 298.116,82.4401 293.5,85C 269.592,97.8681 246.092,111.368 223,125.5C 221.119,130.253 221.453,134.92 224,139.5C 225.214,141.049 226.714,142.215 228.5,143C 239.808,146.603 251.142,150.103 262.5,153.5C 269.884,148.625 276.55,142.792 282.5,136C 287.592,132.358 293.259,130.191 299.5,129.5C 309.177,130.751 318.843,132.085 328.5,133.5C 329.795,132.902 331.128,132.402 332.5,132C 339.144,125.024 346.144,118.357 353.5,112C 361.654,110.164 365.488,113.331 365,121.5C 364.117,124.102 362.617,126.269 360.5,128C 363.009,129.336 365.676,130.17 368.5,130.5C 375.058,128.303 381.558,125.97 388,123.5C 393.023,124.584 394.69,127.584 393,132.5C 385.242,137.199 376.909,140.532 368,142.5C 362.627,141.043 357.294,139.376 352,137.5C 348.882,139.615 346.048,142.115 343.5,145C 336.773,149.214 329.606,150.381 322,148.5C 318.545,155.247 314.711,161.747 310.5,168C 335.286,173.781 351.786,188.615 360,212.5C 366,237.167 372,261.833 378,286.5C 380.865,297.396 387.031,305.896 396.5,312C 415.075,321.868 433.242,332.368 451,343.5C 454.215,352.58 451.048,356.747 441.5,356C 420.315,344.798 399.649,332.798 379.5,320C 372,312.826 366.5,304.326 363,294.5C 356.667,268.5 350.333,242.5 344,216.5C 339.319,203.151 330.485,193.651 317.5,188C 307.833,185 298.167,182 288.5,179C 281.845,170.134 284.012,164.634 295,162.5C 297.833,157.5 300.667,152.5 303.5,147.5C 300.423,146.201 297.423,146.368 294.5,148C 288.469,154.366 282.136,160.366 275.5,166C 271.227,168.027 266.727,169.193 262,169.5C 248.287,166.485 234.787,162.652 221.5,158C 210.658,152.17 204.991,143.003 204.5,130.5C 205.274,121.445 209.274,114.278 216.5,109C 240.833,95.3333 265.167,81.6667 289.5,68C 298.2,58.0784 306.534,47.9117 314.5,37.5 Z
M 286.5,199.5 C 305.869,204.457 319.702,216.123 328,234.5C 332.643,254.356 336.643,274.356 340,294.5C 344.745,308.403 350.079,322.07 356,335.5C 357.678,343.49 354.678,346.156 347,343.5C 341.471,330.581 336.138,317.581 331,304.5C 326.452,283.211 322.118,261.878 318,240.5C 315.399,233.24 311.232,227.073 305.5,222C 298.418,217.375 291.251,212.875 284,208.5C 282.286,204.807 283.119,201.807 286.5,199.5 Z
M 302.5,252.5 C 305.97,251.875 308.804,252.875 311,255.5C 311.667,259.5 311.667,263.5 311,267.5C 306.906,270.476 303.573,269.809 301,265.5C 299.082,260.646 299.582,256.313 302.5,252.5 Z
M 307.5,274.5 C 311.637,274.482 314.137,276.482 315,280.5C 318.151,300.955 323.151,320.955 330,340.5C 330.667,342.833 330.667,345.167 330,347.5C 326.303,351.582 322.97,351.249 320,346.5C 312.344,325.032 306.844,303.032 303.5,280.5C 303.67,277.674 305.003,275.674 307.5,274.5 Z
M 85.5,364.5 C 216.167,364.333 346.834,364.5 477.5,365C 480.573,365.739 482.74,367.572 484,370.5C 484.667,402.5 484.667,434.5 484,466.5C 483.315,469.057 481.815,470.891 479.5,472C 347.5,472.667 215.5,472.667 83.5,472C 81.3333,471.167 79.8333,469.667 79,467.5C 78.3333,434.833 78.3333,402.167 79,369.5C 80.5631,366.977 82.7298,365.31 85.5,364.5 Z M 94.5,381.5 C 218.833,381.5 343.167,381.5 467.5,381.5C 467.5,406.5 467.5,431.5 467.5,456.5C 343.167,456.5 218.833,456.5 94.5,456.5C 94.5,431.5 94.5,406.5 94.5,381.5 Z
M 98.5,479.5 C 114.837,479.333 131.17,479.5 147.5,480C 152.406,482.314 154.24,486.147 153,491.5C 151.891,493.815 150.057,495.315 147.5,496C 130.833,496.667 114.167,496.667 97.5,496C 91.9022,493.305 90.4022,489.138 93,483.5C 94.4998,481.531 96.3331,480.198 98.5,479.5 Z
M 419.5,479.5 C 435.837,479.333 452.17,479.5 468.5,480C 474.851,482.201 476.685,486.368 474,492.5C 472.786,494.049 471.286,495.215 469.5,496C 452.833,496.667 436.167,496.667 419.5,496C 413.458,493.163 411.958,488.663 415,482.5C 416.652,481.601 418.152,480.601 419.5,479.5 Z" stroke="#44739e" stroke-width="4" fill="none"/>
</svg>