<svg xmlns="http://www.w3.org/2000/svg" viewBox="0 0 512 512">
	<path d="M221.5 15.5c21.281-2.9178 38.281 4.0822 51 21 14.584-2.5615 27.084 1.4385 37.5 12 7.279 9.7762 9.446 20.6095 6.5 32.5 21.153 8.7941 29.986 24.627 26.5 47.5-4.059 15.726-13.892 25.892-29.5 30.5-51.333.667-102.667.667-154 0-31.873-9.919-44.706-31.419-38.5-64.5 10.466-28.1516 30.466-39.8183 60-35 4.648-23.0564 18.148-37.7231 40.5-44Zm8 16c15.303.8134 26.136 8.1467 32.5 22 2.707 3.5349 6.207 4.7016 10.5 3.5 15.531-6.901 25.198-2.0677 29 14.5-1.451 5.5633-3.451 10.8967-6 16 .128 3.5847 1.795 6.0847 5 7.5 19.724 1.7025 28.224 12.203 25.5 31.5-2.526 7.859-7.693 13.026-15.5 15.5-49.667.667-99.333.667-149 0-20.593-8.018-28.427-22.851-23.5-44.5 6.405-15.9578 18.239-23.4578 35.5-22.5 5.571 1.7066 11.071 3.54 16.5 5.5 3.333 0 6-1.3333 8-4-2.23-24.2799 8.27-39.2799 31.5-45Zm-139 64c10.971-1.8663 15.138 2.4671 12.5 13-.833.833-1.667 1.667-2.5 2.5-4.6262.906-8.9596 2.573-13 5-4.3902 4.122-8.0569 8.789-11 14-1.6368.601-3.3034 1.101-5 1.5-4.3454-2.627-9.0121-3.46-14-2.5-6.4896 5.037-7.6562 11.204-3.5 18.5.6667 2.667.6667 5.333 0 8-.5 1.833-1.6667 3-3.5 3.5-15.8188 2.148-20.9855 10.648-15.5 25.5 2.7393 4.119 6.5726 6.286 11.5 6.5 33 .667 66 .667 99 0 9.082-1.208 15.749-5.875 20-14 12.167-3.833 16.333.333 12.5 12.5-5.97 8.902-14.137 14.736-24.5 17.5-38.333.667-76.6667.667-115 0-18.5609-7.284-26.0609-20.784-22.5-40.5 2.7533-9.585 8.5866-16.585 17.5-21-1.0467-19.955 8.2866-31.621 28-35 2.2676 1.044 4.6009 1.211 7 .5 5.5701-7.747 12.9034-12.9136 22-15.5Zm316 40c14.89-2.314 27.557 1.853 38 12.5 21.182-1.309 32.516 8.525 34 29.5 16.007 8.704 20.841 21.704 14.5 39-4.479 7.47-10.979 12.304-19.5 14.5-36.667.667-73.333.667-110 0-23.914-7.993-32.414-24.16-25.5-48.5 9.3-15.899 23.133-22.566 41.5-20 3.997-13.997 12.997-22.997 27-27Zm3 17c8.793-1.568 16.293.766 22.5 7 1.061 3.062 2.894 5.562 5.5 7.5 4.801.65 9.468.15 14-1.5 8.91 1.488 11.077 6.154 6.5 14-1.443 4.712-.277 8.545 3.5 11.5 6.13.078 11.296 2.244 15.5 6.5 3.513 7.776 1.346 13.276-6.5 16.5-34.667.667-69.333.667-104 0-13.366-4.885-17.199-13.718-11.5-26.5 5.189-6.846 12.023-9.679 20.5-8.5 3.802 1.32 7.635 2.487 11.5 3.5 3.804.1 6.471-1.566 8-5-1.524-12.254 3.31-20.587 14.5-25Zm-206 23c5.989-1.435 10.155.565 12.5 6-.561 9.96-.561 19.96 0 30 2.27 14.389 9.437 25.555 21.5 33.5 14.425 5.1 25.925 13.933 34.5 26.5 5.176 10.773 6.843 22.107 5 34-1.123 4.319-3.956 6.319-8.5 6-2.825.381-4.991-.619-6.5-3-.862-7.003-1.529-14.003-2-21-2.53-9.199-8.03-16.032-16.5-20.5-25.877-9.205-40.71-27.372-44.5-54.5-.879-11.05-.546-22.05 1-33 1.376-1.205 2.542-2.538 3.5-4Zm40 0c3.018-.165 6.018.002 9 .5 3.208 4.247 6.042 8.747 8.5 13.5 3.534 3.869 7.367 7.369 11.5 10.5 14.577 5.415 28.91 11.415 43 18 34.803 21.589 47.803 52.256 39 92-3.202 1.483-6.536 1.817-10 1-1.833-.5-3-1.667-3.5-3.5 4.221-39.402-11.945-66.569-48.5-81.5-18.716-3.934-34.216-13.1-46.5-27.5-4.021-5.397-6.021-11.397-6-18 .997-1.823 2.164-3.49 3.5-5Zm-154 48c3.0184-.165 6.0184.002 9 .5 4.624 6.748 9.124 13.581 13.5 20.5 14.673 16.752 33.173 25.586 55.5 26.5 17.667.333 35.333.667 53 1 5.256 4.924 5.256 9.924 0 15-22 .667-44 .667-66 0-32.533-5.545-55.3661-23.378-68.5-53.5-.5216-3.936.6451-7.269 3.5-10Zm38 0c3.018-.165 6.018.002 9 .5 5.257 5.926 11.59 10.26 19 13 11.233 1.966 22.566 2.966 34 3 4.508 4.053 5.174 8.72 2 14-4.772 1.992-9.772 2.826-15 2.5-20.656 1.736-37.822-4.93-51.5-20-2.394-4.973-1.56-9.306 2.5-13Zm256 24c8.608-1.224 12.441 2.443 11.5 11-3.473 4.806-7.639 8.973-12.5 12.5-9.145 2.179-13.311-1.321-12.5-10.5 4.342-4.509 8.842-8.842 13.5-13Zm37 0c7.414-2.066 11.747.6 13 8-9.403 25.069-26.736 42.069-52 51-8.103-2.484-10.27-7.484-6.5-15 12.608-4.97 23.274-12.637 32-23 4.511-7.028 9.011-14.028 13.5-21Zm-321 80c130.667-.167 261.334 0 392 .5 1.833.5 3 1.667 3.5 3.5 1.903 17.361-4.597 30.528-19.5 39.5-3.448 1.927-7.115 3.261-11 4-79 .667-158 .667-237 0-3.016-1.529-4.349-4.029-4-7.5-.349-3.471.984-5.971 4-7.5 78.36-.02 156.693-.687 235-2 6.923-2.625 11.923-7.291 15-14-121.333-.667-242.667-.667-364 0 3.478 6.813 8.812 11.48 16 14 24.631 1.274 49.298 1.941 74 2 1.833.5 3 1.667 3.5 3.5.667 2.667.667 5.333 0 8-.5 1.833-1.667 3-3.5 3.5-25.667.667-51.333.667-77 0-19.06-5.057-29.3929-17.39-31-37-.7605-4.477.5728-7.977 4-10.5Zm32 64c3.757-.429 7.257.237 10.5 2 1.328 7.246 2.328 14.579 3 22 5.353 19.599 18.187 30.099 38.5 31.5 74.667.667 149.333.667 224 0 20.313-1.401 33.147-11.901 38.5-31.5.672-7.421 1.672-14.754 3-22 12.54-4.473 17.373.027 14.5 13.5-1.601 30.442-17.268 49.275-47 56.5-.832 9.316-1.332 18.649-1.5 28-.374.916-.874 1.75-1.5 2.5-19.243 1.641-38.577 1.975-58 1-1.833-.5-3-1.667-3.5-3.5-.5-9.327-.666-18.661-.5-28-37.333 0-74.667 0-112 0 .166 9.339 0 18.673-.5 28-.5 1.833-1.667 3-3.5 3.5-19.423.975-38.757.641-58-1-.626-.75-1.126-1.584-1.5-2.5-.168-9.351-.668-18.684-1.5-28-34.625-9.476-50.125-32.142-46.5-68 .69-1.85 1.856-3.184 3.5-4Zm60 72c10.667 0 21.333 0 32 0 0 5.333 0 10.667 0 16-10.667 0-21.333 0-32 0 0-5.333 0-10.667 0-16Zm176 0c10.667 0 21.333 0 32 0 0 5.333 0 10.667 0 16-10.667 0-21.333 0-32 0 0-5.333 0-10.667 0-16Z" stroke="#44739e" stroke-width="4" fill="none"/>
</svg>