<svg xmlns="http://www.w3.org/2000/svg" viewBox="0 0 512 512">
	<path d="M242.5 15.5c29.669-.1666 59.335 0 89 .5 17.026 4.5094 25.526 15.6761 25.5 33.5 2.066 5.1261 5.9 7.9594 11.5 8.5 5 .3333 10 .6667 15 1 2.946.8061 5.612 2.1395 8 4 5.011-.095 9.678 1.0716 14 3.5 10.618-5.7265 19.785-3.7265 27.5 6 6.123 7.1958 9.623 15.5291 10.5 25 9.549 2.2253 19.216 4.059 29 5.5 12.932 3.734 17.265 11.901 13 24.5 8.863 4.738 12.03 12.071 9.5 22-3.731 13.232-12.231 21.565-25.5 25 3.611 7.242 6.111 14.909 7.5 23 1.478 9.28-.355 17.78-5.5 25.5-4.205 2.756-8.872 4.256-14 4.5-1.798 6.298-5.798 10.465-12 12.5-5.054.781-10.054.614-15-.5-5.157 16.595-16.491 23.595-34 21-1.062 9.662-6.062 16.162-15 19.5-23.573.172-47.073.672-70.5 1.5-9.703 20.107-18.036 40.774-25 62-6.4 23.734-1.734 45.068 14 64 6.569 7.239 13.735 13.739 21.5 19.5 44.667.333 89.333.667 134 1 18.462 6.145 26.962 18.978 25.5 38.5-3.213 15.27-12.38 24.77-27.5 28.5-132 .667-264 .667-396 0-23.2604-7.351-31.7604-22.851-25.5-46.5 4.422-10.756 12.2553-17.589 23.5-20.5 44.3321-.5 88.665-.667 133-.5-3.773-20.97-.273-40.636 10.5-59 6.333-9 12.667-18 19-27 8.525-14.481 10.525-29.814 6-46-6.583-20.004-16.416-38.171-29.5-54.5-18.732-.038-37.398-.705-56-2-9.547-4.395-14.547-11.895-15-22.5-15.706.382-31.3725-.118-47-1.5-15.1024-6.025-21.6024-17.192-19.5-33.5.7804-3.012 1.9471-5.845 3.5-8.5-24.8264-13.193-31.3264-32.693-19.5-58.5 5.9584-8.898 14.1251-14.7317 24.5-17.5 10.3333-.3333 20.6667-.6667 31-1 5.06-.6137 8.893-3.1137 11.5-7.5-.252-15.0125 6.248-25.8458 19.5-32.5 28.653-1.0086 57.32-2.0086 86-3 2.5-1.1667 4.333-3 5.5-5.5.346-16.4231 8.18-27.0897 23.5-32Zm2 17c29.397-.476 58.73.024 88 1.5 2.209 1.8734 4.042 4.04 5.5 6.5 1.359 23.6952 13.859 35.1952 37.5 34.5-7.436 8.0401-11.103 17.5401-11 28.5-15.062-3.5417-28.728-.708-41 8.5-4.806 6.109-5.139 12.443-1 19-12.392 12.864-11.725 25.197 2 37 5.173 4.09 10.84 7.423 17 10-6.969 9.711-9.636 20.545-8 32.5-16.954-1.854-29.954 4.313-39 18.5-1 .667-2 .667-3 0-7.105-5.888-15.105-10.221-24-13-2-1.667-4-3.333-6-5 11.328-8.3 15.828-19.467 13.5-33.5-3.067-12.068-10.567-19.901-22.5-23.5-10.627-1.276-21.293-1.776-32-1.5-1.194-12.25-7.528-20.417-19-24.5-26.667-.667-53.333-.667-80 0-5.312 1.072-9.812 3.572-13.5 7.5-3.255 5.508-6.255 11.175-9 17-1.5578 1.859-3.3911 3.359-5.5 4.5-9.7638 2.228-19.4304 1.895-29-1-12.9498-9.2-15.4498-20.7-7.5-34.5 4.3177-5.076 9.8177-7.909 16.5-8.5 10.3333-.333 20.6667-.667 31-1 15.316-5.771 22.816-16.9374 22.5-33.5 1.5-2.8333 3.667-5 6.5-6.5 25.333-.3333 50.667-.6667 76-1 10.685-.5919 18.851-5.4253 24.5-14.5 1.867-5.534 3.201-11.2007 4-17 1.694-2.8576 3.861-5.191 6.5-7Zm150 49c2.141 2.9718 4.808 5.4718 8 7.5 6.695 1.6505 11.695-.5162 15-6.5 4.607 3.5405 7.441 8.2072 8.5 14 .849 7.429.349 14.762-1.5 22 .709 6.686 4.376 9.519 11 8.5 6.801-5.213 14.467-8.379 23-9.5 3.954.402 7.62 1.569 11 3.5-5.812 7.641-5.146 14.641 2 21 6.968.257 8.468 3.091 4.5 8.5-2.205 2.54-4.705 4.707-7.5 6.5-7.093 2.618-14.426 3.952-22 4-4.011 2.351-5.511 5.851-4.5 10.5 3.994 4.994 8.327 9.66 13 14 4.093 6.801 5.76 14.134 5 22-.414.457-.914.791-1.5 1-10.998-4.33-17.331-.663-19 11 .07 1.272.403 2.438 1 3.5-3.62.841-6.954.174-10-2-6.604-7.269-12.437-15.102-17.5-23.5-4.667-4-9.333-4-14 0-4.188 8.349-9.354 16.016-15.5 23-3.971 2.705-8.304 3.538-13 2.5 2.876-9.43-.457-14.93-10-16.5-3.466.1-6.632 1.1-9.5 3-1.715-8.135-.048-15.469 5-22 4.485-3.908 9.152-7.574 14-11 .667-3 .667-6 0-9-1.214-1.549-2.714-2.715-4.5-3.5-14.628 1.299-26.294-3.868-35-15.5.477-.978 1.143-1.811 2-2.5 10.509-.167 14.675-5.334 12.5-15.5-1.793-2.795-3.96-5.295-6.5-7.5 6.593-3.309 13.593-4.309 21-3 5.142 1.992 10.309 3.825 15.5 5.5 5.5-.167 8.333-3 8.5-8.5-3.121-9.082-2.621-17.9155 1.5-26.5 3.062-3.2322 6.229-6.2322 9.5-9Zm9 57c11.784 1.944 15.95 8.611 12.5 20-5.475 6.537-11.975 7.704-19.5 3.5-6.814-7.291-6.48-14.291 1-21 2.111-.845 4.111-1.678 6-2.5Zm-279 6c24.336-.167 48.669 0 73 .5 1.786.785 3.286 1.951 4.5 3.5 1.481 6.769 3.648 13.269 6.5 19.5 13.627 1.039 27.294 2.039 41 3 11.149 7.856 11.815 16.523 2 26-4.149 1.737-8.483 2.737-13 3-8.239 3.285-12.406 9.452-12.5 18.5-.785 1.786-1.951 3.286-3.5 4.5-26 .667-52 .667-78 0-1.549-1.214-2.715-2.714-3.5-4.5-.333-5-.667-10-1-15-1.167-1.167-2.333-2.333-3.5-3.5-17.333-.333-34.667-.667-52-1-8.1759-1.502-11.6759-6.336-10.5-14.5.8834-2.602 2.3834-4.769 4.5-6.5 20.5481-.568 34.381-10.401 41.5-29.5 1.397-1.57 2.897-2.904 4.5-4Zm119 72c7.489 9.759 17.156 16.592 29 20.5-13.05 6.992-16.884 17.492-11.5 31.5 1.308 2.141 2.808 4.141 4.5 6-1.303 2.468-2.803 4.801-4.5 7-7.597-16.625-15.097-33.291-22.5-50 3.063-4.522 4.73-9.522 5-15Zm79 11c10.333 0 20.667 0 31 0 .608 6.779 4.274 10.945 11 12.5 13.169 2.545 24.502-.788 34-10 5.208-1.294 9.708-.128 13.5 3.5 1.544 5.123-.29 8.289-5.5 9.5-16.554-2.914-26.221 3.753-29 20-32.667.667-65.333.667-98 0-4.733-2.922-5.066-6.255-1-10 15.569-.613 27.236-7.613 35-21 2.824-2.079 5.824-3.579 9-4.5Zm-106 13c2.619-.268 5.119.065 7.5 1 8.333 18.667 16.667 37.333 25 56 1.54 3.919 3.707 7.419 6.5 10.5 4.007 2.166 7.674 1.666 11-1.5 5.252-8.168 10.252-16.501 15-25 3.622-1.159 7.289-1.325 11-.5-8.669 18.002-16.169 36.502-22.5 55.5-9.542 35-1.376 65.167 24.5 90.5-29.665.5-59.331.667-89 .5-3.828-18.672-.662-36.006 9.5-52 9.5-11.654 17.5-24.32 24-38 6.05-18.418 5.717-36.751-1-55-5.885-14.773-13.052-28.773-21.5-42Zm-158 204c131.334-.167 262.667 0 394 .5 11.707 5.997 14.54 14.83 8.5 26.5-2.778 3.307-6.278 5.474-10.5 6.5-130 .667-260 .667-390 0-12.4007-4.635-16.2341-13.135-11.5-25.5 2.772-3.283 5.9386-5.95 9.5-8Zm343-323c23.475 1.305 34.308 13.638 32.5 37-5.674 17.764-17.841 25.264-36.5 22.5-18.201-6.562-25.368-19.395-21.5-38.5 4.744-11.579 13.244-18.579 25.5-21Zm2 17c-1.889.822-3.889 1.655-6 2.5-7.48 6.709-7.814 13.709-1 21 7.525 4.204 14.025 3.037 19.5-3.5 3.45-11.389-.716-18.056-12.5-20Z" stroke="#44739e" stroke-width="4" fill="none"/>
</svg>