<svg xmlns="http://www.w3.org/2000/svg" viewBox="0 0 512 512">
	<path d="M212.375 1.505c13.86 0 27.72 0 41.58 0 15.0332 4.9682 24.9332 15.0332 29.7 30.195 11.5503.33 23.0997.66 34.65.99 17.0706 3.376 27.9606 13.441 32.67 30.195 8.2299.8234 16.4805 1.3184 24.75 1.485 16.6597 3.6251 26.8894 13.6901 30.69 30.195 11.9057-.9752 23.4561.5098 34.65 4.455 17.4398 11.0543 23.8748 26.729 19.305 47.025-3.2046 9.805-9.309 17.23-18.315 22.275 5.5331 5.2916 8.8328 11.7266 9.9 19.305 7.5973-.1643 15.1876 0 22.77.495 17.6982 3.0205 28.9189 13.0858 33.66 30.195 0 5.6103 0 11.2197 0 16.83-4.4402 15.8242-14.6708 25.8895-30.69 30.195-64.6787.495-129.3593.6603-194.04.495-.3297 16.8429.001 33.6729.99 50.49 4.6045-.6098 9.2248-1.2692 13.86-1.98 5.1361-17.4191 16.6865-27.4844 34.65-30.195 32.3403-.6603 64.6797-.6603 97.02 0 23.3214 2.6948 35.5321 15.7301 36.63 39.105-1.1603 23.2749-13.37 36.4746-36.63 39.6-4.5926 16.3073-15.1519 26.3716-31.68 30.195-8.2437.495-16.4934.6593-24.75.495-4.0234 34.9579-22.8334 57.5626-56.43 67.815-11.09 2.3958-22.3106 3.5511-33.66 3.465 0 9.5703 0 19.1397 0 28.71 39.2713-.1653 78.5417 0 117.81.495 3.6749 2.4879 4.8292 5.9529 3.465 10.395-1.0217 1.5117-2.177 2.8314-3.465 3.96-97.6803 0-195.3597 0-293.04 0-4.158-3.4828-4.9827-7.7725-2.475-12.87.7425-.6197 1.5682-1.1147 2.475-1.485 39.2683-.495 78.5387-.6603 117.81-.495-.1653-13.2036 0-26.4043.495-39.6 3.3858-4.2105 7.5111-5.0361 12.375-2.475 1.189.894 2.0147 2.0483 2.475 3.465.495 12.866.6603 25.736.495 38.61 8.5803 0 17.1597 0 25.74 0-.4613-14.2867.0337-28.4764 1.485-42.57.894-1.189 2.0483-2.0147 3.465-2.475 12.5809-.1247 25.1203-.7851 37.62-1.98 27.3191-7.2409 43.1591-24.8955 47.52-52.965-4.6203 0-9.2397 0-13.86 0-6.6211 29.3565-25.1005 42.8868-55.44 40.59-5.6103-.1653-11.2197-.3297-16.83-.495-1.1553-1.1553-2.3097-2.3097-3.465-3.465-.1653-15.1906-.6603-30.3712-1.485-45.54-14.0639-13.368-17.5289-29.208-10.395-47.52 2.475-5.2876 6.1053-9.5783 10.89-12.87.495-19.1367.6603-38.2774.495-57.42-2.3998-.3049-4.7094.0257-6.93.99-2.9096 10.4891-8.8496 18.7397-17.82 24.75-.8247 13.1878-1.3197 26.3875-1.485 39.6-.8247 2.1453-2.3097 3.6303-4.455 4.455-10.5603.6603-21.1197.6603-31.68 0-21.8048-3.8204-35.0044-16.5251-39.6-38.115-4.6203 0-9.2397 0-13.86 0 5.0272 26.9745 20.8672 43.9699 47.52 50.985 12.4997 1.1949 25.0391 1.8553 37.62 1.98 1.4167.4604 2.571 1.286 3.465 2.475 1.6266 20.3712 1.9562 40.8316.99 61.38-2.9829 4.9847-7.1082 6.14-12.375 3.465-1.189-.894-2.0146-2.0483-2.475-3.465-.495-16.1667-.6603-32.3364-.495-48.51-34.5391 3.3056-61.4344-9.2337-80.685-37.62-5.6361-9.4822-8.7714-19.7119-9.405-30.69-9.5753.1643-19.1456 0-28.71-.495-15.2419-2.0364-25.9669-10.1208-32.175-24.255-.9672-2.2176-1.4622-4.5273-1.485-6.93-13.2041.1653-26.4041 0-39.6-.495-17.1211-3.4294-28.0111-13.4947-32.67-30.195 0-5.6103 0-11.2197 0-16.83 4.6589-16.7003 15.5489-26.7656 32.67-30.195 11.2151-.495 22.4352-.6603 33.66-.495 4.476-18.1675 16.0259-28.5625 34.65-31.185 15.5103-.3297 31.0197-.6603 46.53-.99-3.4848-4.1649-5.4648-8.9496-5.94-14.355-26.0716.1653-52.1421 0-78.21-.495-22.9272-5.1173-33.9821-19.4723-33.165-43.065C34.2622 79.4625 44.9873 68.0775 63.875 64.37c10.8851-.4948 21.7751-.6598 32.67-.495 4.2606-17.2947 15.151-27.6897 32.67-31.185 17.82-.33 35.64-.66 53.46-.99 4.8015-15.196 14.7015-25.261 29.7-30.195Zm8.91 14.85c9.9495-.328 19.8495.167 29.7 1.485 10.594 3.4566 15.8737 10.5516 15.84 21.285-9.012 5.8045-14.2926 14.0544-15.84 24.75-8.2566-.1647-16.5063.0003-24.75.495-15.743 4.1925-25.9726 14.0925-30.69 29.7-13.3551-.9664-25.8954 1.6736-37.62 7.92-8.0715 6.239-13.0215 14.3243-14.85 24.255-26.7805.4603-53.5105-.0346-80.19-1.485-11.3682-5.0807-16.4832-13.8254-15.345-26.235 2.145-10.065 8.25-16.17 18.315-18.315 14.2575-.0504 28.4475-.7103 42.57-1.98 1.189-.8935 2.0147-2.0485 2.475-3.465.1089-11.9453 5.5539-20.3603 16.335-25.245 22.0602-1.2777 44.1698-1.9377 66.33-1.98 1.8147-.495 2.97-1.65 3.465-3.465 1.0147-15.6864 9.1001-24.9263 24.255-27.72Zm63.36 31.68c11.9414-.4108 23.8214.0842 35.64 1.485 10.7761 4.8701 16.2211 13.2851 16.335 25.245.4603 1.4165 1.286 2.5715 2.475 3.465 12.5403.99 25.0797 1.98 37.62 2.97 10.2198 4.7479 15.3351 12.833 15.345 24.255.7772 1.7681 1.9315 3.2531 3.465 4.455 9.9.3297 19.8.6603 29.7.99 15.7182 3.5095 22.4839 13.2442 20.295 29.205-3.4155 9.6842-10.1802 15.4598-20.295 17.325-9.5535-.1465-19.1238-.3109-28.71-.495-3.4987-13.8996-12.079-23.3046-25.74-28.215-12.4839-1.5701-25.0232-1.9008-37.62-.99-1.8147.495-2.97 1.6503-3.465 3.465-1.5533 5.0738-.0683 8.8694 4.455 11.385 10.2297.3297 20.4603.6603 30.69.99 11.7721 4.2174 17.8764 12.6324 18.315 25.245.495 1.8147 1.6503 2.97 3.465 3.465 11.5751.2653 23.1254.9247 34.65 1.98 11.0246 4.6995 16.7993 13.1145 17.325 25.245.8247 1.485 1.98 2.6403 3.465 3.465 10.2297.3297 20.4603.6603 30.69.99 14.5956 3.7214 21.0306 13.1264 19.305 28.215-2.4493 9.0486-8.2239 14.8243-17.325 17.325-55.7697.6603-111.5403.6603-167.31 0 11.4672-20.1505 8.4972-37.9705-8.91-53.46-5.0391-3.6739-10.6494-5.9836-16.83-6.93-12.2057-.495-24.4154-.6603-36.63-.495-3.7254-15.6083-13.2947-25.838-28.71-30.69 3.2522-7.0488 8.5318-11.8335 15.84-14.355 21.78-.3297 43.56-.6603 65.34-.99 7.0349-4.06 7.6953-9.01 1.98-14.85-24.4688-.9514-48.8892-.6217-73.26.99-13.5778 4.6995-22.4878 13.9392-26.73 27.72-8.2497.6603-16.5003.6603-24.75 0-16.2627-7.0973-20.7177-18.812-13.365-35.145 3.2819-4.2748 7.4062-7.4102 12.375-9.405 11.5988-.9187 23.1492-1.9087 34.65-2.97 1.7711-6.529 3.9164-12.9638 6.435-19.305 2.8918-3.5557 6.3568-6.3607 10.395-8.415 12.2493-.9469 24.4599-1.9369 36.63-2.97 1.5335-1.2019 2.6878-2.6869 3.465-4.455.7237-13.0719 7.1587-21.6519 19.305-25.74Zm-181.17 124.74c37.0003-.4643 73.9599.0307 110.88 1.485 11.5147 5.3618 17.4547 14.4372 17.82 27.225 1.1533 1.0732 2.473 1.8978 3.96 2.475 14.5203.3297 29.0397.6603 43.56.99 15.1024 4.6213 20.8771 14.6867 17.325 30.195-2.0879 6.9736-6.5429 11.7582-13.365 14.355-11.5899.9445-23.1393 1.9345-34.65 2.97-.8247.8247-1.6503 1.6503-2.475 2.475-.1386 14.6758-7.2329 23.7511-21.285 27.225-40.3059.9672-80.5662.6376-120.78-.99-10.9622-4.3629-16.4072-12.4483-16.335-24.255-.825-2.8047-2.64-4.6203-5.445-5.445-15.84-.3297-31.68-.6603-47.52-.99-17.3686-6.8775-22.1536-18.9219-14.355-36.135 2.959-3.9511 6.754-6.7558 11.385-8.415 15.8785-.9583 31.7185-1.9483 47.52-2.97 1.1894-.894 2.0145-2.0483 2.475-3.465.4141-14.4213 7.5091-23.3313 21.285-26.73Zm78.21 126.72c14.6758-.986 29.5258-1.3157 44.55-.99 0 7.5903 0 15.1797 0 22.77-9.0714.5871-17.9814-.2376-26.73-2.475-8.5813-4.1214-14.5213-10.5564-17.82-19.305Zm153.45 0c33.3709-.4604 66.7003.0346 99.99 1.485 13.3333 5.3816 18.4486 15.1163 15.345 29.205-4.6332 11.4672-13.0482 16.7468-25.245 15.84-2.7443.5207-5.3836 1.3454-7.92 2.475-1.5236 6.6122-3.6689 13.0472-6.435 19.305-3.7511 4.7599-8.5358 7.8953-14.355 9.405-37.6665.9653-75.2865.6356-112.86-.99-11.1137-5.2292-15.8984-13.9748-14.355-26.235 1.6375-8.3932 6.4221-14.1679 14.355-17.325 8.9516-.9266 17.8616-1.9166 26.73-2.97.8247-.8247 1.6503-1.6503 2.475-2.475.6752-14.9708 8.1002-24.2114 22.275-27.72Zm-51.48 93.06c14.7767.8088 29.6267 1.3038 44.55 1.485-3.4016 12.972-11.6513 20.892-24.75 23.76-6.5914.495-13.1917.6593-19.8.495 0-8.5803 0-17.1597 0-25.74Z" stroke="#44739e" stroke-width="4" fill="none"/>
</svg>