<svg xmlns="http://www.w3.org/2000/svg" viewBox="0 0 512 512">
	<path d="M390.5 487.5c-5.635 5.652-5.302 10.819 1 15.5 17.333.667 34.667.667 52 0 6.247-4.514 6.58-9.514 1-15-17.997-.5-35.997-.667-54-.5Zm-322 0c-5.8547 6.066-5.188 11.233 2 15.5 17 .667 34 .667 51 0 2.167-.833 3.667-2.333 4.5-4.5 1.378-4.442.212-7.942-3.5-10.5-17.997-.5-35.9969-.667-54-.5Zm146-169c-.672.767-1.505 1.434-2.5 2-.321 10.862 3.846 19.695 12.5 26.5 6.765 2.243 9.598-.257 8.5-7.5-5.762-5.184-9.762-11.518-12-19-1.897-1.516-4.064-2.183-6.5-2Zm-2-15c-2.784 4.047-3.117 8.213-1 12.5 4.046 2.364 7.213 1.53 9.5-2.5 2.018-7.674-.816-11.008-8.5-10Zm71-160c-16.285 11.011-22.285 26.177-18 45.5-.793 1.085-1.46 2.252-2 3.5-22.228 2.119-31.061 14.119-26.5 36 7.258 12.652 18.091 17.152 32.5 13.5 1.549-1.214 2.715-2.714 3.5-4.5 1.311-6.379-1.189-10.379-7.5-12-4.91 1.934-9.077.934-12.5-3-2.665-6.67-.499-11.003 6.5-13 3.348 1.011 6.682 2.011 10 3 3.604-.049 6.104-1.716 7.5-5 2.113-14.724 10.113-19.39 24-14 1.5-.5 3-1 4.5-1.5 3.106-3.632 5.273-7.799 6.5-12.5 11-12 22-12 33 0 3.339 11.779 9.505 13.779 18.5 6 1.667.833 3.333 1.667 5 2.5 5.367 5.032 10.367 10.365 15 16 1.667.667 3.333.667 5 0 2.667-2 5.333-4 8-6 13.801-7.093 25.635-4.593 35.5 7.5 1.384 5.384 4.717 8.717 10 10 4.676-1.851 9.509-2.351 14.5-1.5 8.243 5.093 10.076 11.926 5.5 20.5-7.61 6.698-15.11 6.531-22.5-.5-2.333-.667-4.667-.667-7 0-4.931 5.969-11.264 9.636-19 11-6.088-.154-12.088-.82-18-2-1.786.785-3.286 1.951-4.5 3.5-3.145 13.862-10.978 17.695-23.5 11.5-2-3-4-6-6-9-2.866-1.457-5.866-1.79-9-1-3.199 3.566-6.033 7.4-8.5 11.5-8.92 6.98-18.42 7.813-28.5 2.5-4.798-4.789-8.798-10.123-12-16-7.112-2.115-11.445.385-13 7.5 2.344 7.522 6.344 14.022 12 19.5 18.678 13.201 36.678 12.368 54-2.5 3.775 3.221 8.109 5.388 13 6.5 14.375 2.605 25.375-2.228 33-14.5 12.622.305 24.122-3.028 34.5-10 4.348 2.339 9.015 3.672 14 4 18.571-1.404 28.737-11.404 30.5-30-2.499-20.636-13.999-30.303-34.5-29-15.719-20.305-35.219-24.971-58.5-14-8.173-9.42-18.506-14.586-31-15.5-4.112-4.888-9.112-8.555-15-11-19.692-6.272-35.025-.772-46 16.5-5.286.613-10.453 1.613-15.5 3 .34-8.009 3.84-14.342 10.5-19 3.576-8.178.909-12.845-8-14Zm-216 269c-.1666 14.337.0001 28.671.5 43 1.0774 3.413 3.2441 5.913 6.5 7.5 120 .667 240 .667 360 0 3.256-1.587 5.423-4.087 6.5-7.5.5-14.329.667-28.663.5-43-124.667 0-249.333 0-374 0Zm-27-27c0 3.667 0 7.333 0 11 142.667 0 285.333 0 428 0 0-3.667 0-7.333 0-11-142.667 0-285.333 0-428 0Zm187-380c-14.293 3.4562-23.626 12.2895-28 26.5-12.737.4417-21.237 6.6084-25.5 18.5-3.29 22.537 6.543 34.3703 29.5 35.5 1.961 2.9628 4.294 5.6294 7 8-5.29 7.413-10.457 14.913-15.5 22.5-9.889-5.405-19.556-5.071-29 1-2.5-1.833-5-3.667-7.5-5.5-21.266-7.197-36.266-.53-45 20-10.801.985-18.3011 6.485-22.5 16.5-3.1383 19.87 5.3617 30.703 25.5 32.5 3.781 4.78 8.448 8.447 14 11 15.235 4.486 26.735-.014 34.5-13.5.488-8.169-3.346-11.336-11.5-9.5-2.707 3.365-6.04 6.032-10 8-5.005.917-9.172-.583-12.5-4.5-.736-6.07-4.069-9.403-10-10-2.871.709-5.705 1.209-8.5 1.5-1.581-.707-3.081-1.54-4.5-2.5-3.116-6.765-1.116-11.099 6-13 6.453 3.582 11.453 2.249 15-4-.225-13.445 6.275-19.611 19.5-18.5 4.951 2.618 8.951 6.284 12 11 3.464.817 6.798.483 10-1 4.611-7.002 10.611-8.335 18-4 2.931 4.386 4.764 9.219 5.5 14.5 4.286 3.805 8.62 3.805 13 0 1.759-4.265 1.926-8.598.5-13 .477-.978 1.143-1.811 2-2.5 11.814-2.885 17.981 1.948 18.5 14.5 3.433 2.151 6.766 4.485 10 7 2.33 6.007.33 10.007-6 12-7.446-2.276-12.112.391-14 8-4.825 5.443-10.325 6.277-16.5 2.5-3.404-6.393-8.404-8.06-15-5-2.793 3.081-4.96 6.581-6.5 10.5-2.31 6.575-4.31 13.242-6 20-18.14-6.715-33.806-3.048-47 11-21.511-10.309-39.6774-6.143-54.5 12.5-8.4487-.77-16.1154 1.23-23 6-11.931 12.858-13.0977 26.691-3.5 41.5 10.4668 9.552 22.3001 11.552 35.5 6 9.1892 6.716 19.522 9.549 31 8.5 7.867 12.685 19.2 17.519 34 14.5-.539 9.713.461 19.213 3 28.5-9.1.681-18.1 2.014-27 4-21.26 5.281-37.9267 16.948-50 35-14 .333-28 .667-42 1-1.8289.273-3.3289 1.107-4.5 2.5-1.1271 6.23-1.6271 12.563-1.5 19-.1271 6.437.3729 12.77 1.5 19 .9025 1.201 2.0692 2.035 3.5 2.5 7.3258.5 14.6591.666 22 .5-.4423 17.056.0577 34.056 1.5 51 3.3262 7.993 9.1595 13.159 17.5 15.5 122.667.667 245.333.667 368 0 8.341-2.341 14.174-7.507 17.5-15.5 1.442-16.944 1.942-33.944 1.5-51 7.341.166 14.674 0 22-.5 1.431-.465 2.597-1.299 3.5-2.5 1.625-11.904 1.958-23.904 1-36-.465-1.431-1.299-2.597-2.5-3.5-18.935-1.296-37.935-1.962-57-2-12.397-20.387-30.063-34.054-53-41-21.813-5.097-43.813-5.931-66-2.5-16.5.533-31.834-3.3-46-11.5-6.122-5.639-6.622-11.806-1.5-18.5 6.585-4.042 13.085-8.209 19.5-12.5 7.079-8.401 8.746-17.734 5-28-4.614-2.402-8.781-1.902-12.5 1.5-1.081 4.297-2.081 8.63-3 13-6.758 3.961-13.258 8.295-19.5 13-10.142 11.666-11.642 24.333-4.5 38 10.79 11.145 23.957 17.645 39.5 19.5 18.342 1.937 36.676 1.77 55-.5 26.93-.312 49.264 9.522 67 29.5-11.333.667-22.667.667-34 0-13.678-12.456-29.845-19.29-48.5-20.5-6.647 1.181-8.147 4.681-4.5 10.5 12.023 1.17 23.356 4.504 34 10-11.333.667-22.667.667-34 0-6.247-5.232-13.247-9.232-21-12-18.038-3.362-36.038-6.862-54-10.5-1.333.167-2.667.333-4 .5-3.16 4.2-2.494 7.533 2 10 18.32 4.093 36.654 8.093 55 12-67.333.667-134.667.667-202 0 3.6306-3.81 7.631-7.143 12-10 18.706-9.899 38.706-14.233 60-13 3.313-1.566 4.979-4.233 5-8-5.148-8.919-7.815-18.586-8-29 1.228-12.254 2.728-24.42 4.5-36.5-4-8-9.333-9-16-3-.05 5.829-2.217 10.662-6.5 14.5-6.402 2.812-11.902 1.645-16.5-3.5-1.03-3.45-2.363-6.783-4-10-.75-.626-1.584-1.126-2.5-1.5-6.593.963-13.259 1.297-20 1-2.876-.438-5.5427-1.438-8-3-2.7655-3.95-6.4322-6.45-11-7.5-3.9812 1.134-7.6479 2.967-11 5.5-9.0372 1.315-14.3705-2.518-16-11.5 3.0112-11.349 10.0112-14.683 21-10 1.799-.077 3.4656-.577 5-1.5 2.4186-4.172 5.0852-8.172 8-12 9.8254-7.832 20.159-8.498 31-2 7.629 7.695 13.795 6.528 18.5-3.5 3.789-4.808 8.622-7.975 14.5-9.5 18.917-.751 28.417 8.415 28.5 27.5 1.293 3.557 3.793 5.557 7.5 6 6.685-3.305 12.851-2.638 18.5 2 4.643 8.451 2.81 14.951-5.5 19.5-3.925.063-7.425 1.229-10.5 3.5-2.446 4.824-1.613 8.991 2.5 12.5 15.792 2.022 26.292-4.478 31.5-19.5 3.172-22.003-6.328-34.337-28.5-37-1.691-5.716-4.191-11.049-7.5-16-.091-7.64 1.409-14.974 4.5-22 15.245 6.52 27.911 3.354 38-9.5 8.318-.903 14.818-4.737 19.5-11.5 6.857-13.866 4.024-25.199-8.5-34-3.811-12.813-12.145-20.813-25-24 2.457-3.414 4.791-6.914 7-10.5 12.303.686 22.136-3.8145 29.5-13.5 3.401-10.931-.433-15.0976-11.5-12.5-6.71 10.1379-14.877 11.6379-24.5 4.5-1.797-4.0719-3.963-7.9052-6.5-11.5-1.373-.8749-2.873-1.3749-4.5-1.5-2.955.8742-5.955 1.5409-9 2-7.685-1.0267-10.685-5.3601-9-13 4.034-6.8981 9.701-8.5648 17-5 3.804.1004 6.471-1.5662 8-5 .208-4.4177.874-8.751 2-13 8.965-12.6638 19.298-13.9972 31-4 3.173 7.6127 8.34 9.4461 15.5 5.5 6.884-9.0054 14.717-9.8388 23.5-2.5 2.404 4.7697 4.07 9.7697 5 15 2.69 1.6817 5.523 3.1817 8.5 4.5 5.42 5.6659 5.087 10.9992-1 16-5.601.865-11.101 2.0316-16.5 3.5-3.197 5.7173-2.031 10.5507 3.5 14.5-.648 1.4397-.981 2.9397-1 4.5-12.55.5222-20.383 6.8555-23.5 19-1.233 16.764 6.434 26.43 23 29 8.458-1.406 10.791-6.073 7-14-4.054-1.515-8.054-3.181-12-5-2.698-11.129 1.469-14.795 12.5-11 3.585-.128 6.085-1.795 7.5-5-.569-12.5638 5.264-19.8971 17.5-22 8.419 1.2499 14.419 5.7499 18 13.5 1.5.5 3 1 4.5 1.5 5.053-2.1096 9.886-4.6096 14.5-7.5 7.165-1.3897 12.999.777 17.5 6.5 1.099 5.2679 4.266 8.268 9.5 9 5.143-3.251 9.643-2.585 13.5 2 2.286 6.266.119 10.266-6.5 12-3.533-2.368-7.366-4.035-11.5-5-1.167.167-2.333.333-3.5.5-4.1 4.385-9.1 7.218-15 8.5-5.257-2.358-10.424-2.358-15.5 0-1.504 3.184-3.004 6.351-4.5 9.5-8.287 3.398-12.787.565-13.5-8.5-2.435-4.724-6.269-6.224-11.5-4.5-1.833.5-3 1.667-3.5 3.5-1.408 7.442.259 14.109 5 20 13.819 11.418 26.652 10.418 38.5-3 8.859-.63 17.192-2.963 25-7 19.788 5.021 31.122-2.479 34-22.5-1.717-16.0451-10.717-24.0451-27-24-11.436-13.8734-25.603-17.3734-42.5-10.5-3.823-2.4847-7.656-4.9847-11.5-7.5-3.57-1.3095-7.237-2.1428-11-2.5 1.33-13.0069-3.504-23.0069-14.5-30-1.768-8.0347-5.934-14.5347-12.5-19.5-11.963-6.1566-23.796-5.99-35.5.5-8.492-8.1704-18.659-11.5037-30.5-10Z" stroke="#44739e" stroke-width="4" fill="none"/>
</svg>