<svg xmlns="http://www.w3.org/2000/svg" viewBox="0 0 512 512">
	<path d="M243.5-.5c50.333 0 100.667 0 151 0 22.223 9.1166 29.056 25.1166 20.5 48-4.326 6.6596-10.159 11.493-17.5 14.5-10.519 1.0793-21.019 1.9127-31.5 2.5-26.333 40.333-52.667 80.667-79 121-3.333 4-3.333 8 0 12 4.5 5.833 9 11.667 13.5 17.5 3.424 1.658 6.758 1.325 10-1 6.68-7.345 13.346-14.678 20-22-8.527-13.541-8.693-27.374-.5-41.5 7.531-12.187 18.364-19.687 32.5-22.5 18.667-.667 37.333-.667 56 0 11.112 2.385 20.112 8.052 27 17 1 .333 2 .667 3 1 15.734.046 31.4.713 47 2 8.008 3.503 13.341 9.336 16 17.5 0 4.667 0 9.333 0 14-3.125 9.957-9.792 16.457-20 19.5-14.333.667-28.667.667-43 0-6.697-5.308-6.364-10.308 1-15 13.761-.035 27.427-.702 41-2 6.935-6.817 6.602-13.15-1-19-15.955-1.255-31.955-1.922-48-2-5.557-2.224-9.89-5.891-13-11-2.401-2.062-5.067-3.729-8-5-9.944-1.115-19.944-1.615-30-1.5-8.667.167-17.333.333-26 .5-14.997 4.165-23.33 13.998-25 29.5.597 4.432 2.93 7.599 7 9.5 25 .333 50 .667 75 1 5.406 1.98 7.239 5.814 5.5 11.5-1.167 1.167-2.333 2.333-3.5 3.5-14.345.167-28.678.667-43 1.5-12.5 15.667-25 31.333-37.5 47-1.422 8.798-3.422 17.465-6 26-1.333 2-2.667 4-4 6-5 4.333-10 8.667-15 13-.667 2.333-.667 4.667 0 7 6.46 10.756 13.293 21.256 20.5 31.5 35.333.333 70.667.667 106 1 5.833 1.833 9.667 5.667 11.5 11.5.667 8.667.667 17.333 0 26-1.35 4.685-4.183 8.185-8.5 10.5-5.178 1.798-10.511 2.798-16 3-17.288 22.744-34.455 45.577-51.5 68.5-.825 3.711-.659 7.378.5 11 8.884 5.272 12.55 13.105 11 23.5 1.798 11.909-2.535 20.409-13 25.5-82.333 0-164.667 0-247 0-10.083-5.172-14.083-13.505-12-25-2.114-10.422 1.22-18.422 10-24 1.159-3.622 1.325-7.289.5-11-16.641-22.808-33.474-45.474-50.5-68-9.4656.289-17.299-3.044-23.5-10-.9734-1.892-1.6401-3.892-2-6-.6667-7.333-.6667-14.667 0-22 1.6748-6.341 5.5082-10.841 11.5-13.5 39.338-.167 78.671-.667 118-1.5 11.833-26.333 23.667-52.667 35.5-79 .5-2.5 1-5 1.5-7.5-1.775-8.054-4.275-15.887-7.5-23.5-1.028-5.701-2.195-11.368-3.5-17-25-13.167-50-26.333-75-39.5-17.28-1.61-34.6136-1.943-52-1-4.5217 4.261-9.8551 6.928-16 8-13.6667.667-27.3333.667-41 0-12.9902-3.161-21.6569-10.995-26-23.5 0-5 0-10 0-15 3.3776-11.879 11.0443-19.713 23-23.5 16.7465-2.27 33.4131-1.937 50 1 3.6649 1.497 6.9983 3.497 10 6 13.3458.833 26.679.666 40-.5 1.247-1.823 1.914-3.823 2-6-19.207 4.184-34.0399-1.816-44.5-18C73.3377 71.1528 78.8377 54.9861 96.5 43c3.4481-1.9272 7.115-3.2606 11-4 10.333-.6667 20.667-.6667 31 0 9.948 2.2817 17.282 7.9484 22 17 12.333.3333 24.667.6667 37 1 16.473 5.7717 22.973 17.2717 19.5 34.5-3.235 8.901-9.402 14.734-18.5 17.5-8.021.168-16.021.668-24 1.5-2.138 5.747-4.471 11.414-7 17 1.931 2.304 4.264 4.138 7 5.5 19.404 9.785 38.571 19.951 57.5 30.5 3.833-4.5 7.667-9 11.5-13.5 10.571-2.073 14.071 2.093 10.5 12.5-7 8.667-14 17.333-21 26-3.949 5.513-6.116 11.679-6.5 18.5 1.775 8.054 4.275 15.887 7.5 23.5 2.704 7.917 3.037 15.917 1 24-10.892 25.451-22.059 50.784-33.5 76 39 1.333 78 1.333 117 0-5.365-8.201-10.531-16.534-15.5-25-2.439-7.955-1.773-15.622 2-23 4.772-5.374 10.105-10.04 16-14 3.124-6.947 4.79-14.28 5-22 1.059-3.118 2.392-6.118 4-9 9.807-12.775 19.974-25.275 30.5-37.5-4.667-.667-9.333-.667-14 0-9.031 8.696-17.697 17.696-26 27-13.012 7.999-24.846 6.499-35.5-4.5-5.747-7.154-10.747-14.821-15-23-2.219-7.255-1.552-14.255 2-21 25.082-37.829 49.915-75.829 74.5-114-2.946-1.1548-5.946-1.3214-9-.5-8.963 10.632-18.297 20.9654-28 31-2.667.6667-5.333.6667-8 0-8.813-9.9674-17.146-20.3007-25-31-3.667-.6667-7.333-.6667-11 0 6.292 10.0835 12.459 20.2501 18.5 30.5 5.548 9.159 5.881 18.492 1 28-3.385 3.717-6.385 7.717-9 12-7.369 7.449-12.869 6.282-16.5-3.5.5-1.5 1-3 1.5-4.5 4.97-5.113 8.804-10.947 11.5-17.5-8.051-15.0609-16.551-29.8943-25.5-44.5-21.572-5.9075-30.572-19.9075-27-42 3.787-11.9557 11.621-19.6224 23.5-23Zm8 15c45.001-.1667 90.001 0 135 .5 14.361 3.2207 18.861 11.7207 13.5 25.5-2.264 2.9335-5.098 5.1001-8.5 6.5-48.333.6667-96.667.6667-145 0-12.072-6.1233-14.572-14.9566-7.5-26.5 3.556-3.53 7.722-5.53 12.5-6Zm-142 40c9.006-.1664 18.006.0002 27 .5 4.833 2.1667 8.333 5.6667 10.5 10.5 2.234 2.1998 4.734 4.0331 7.5 5.5 13.278 1.2583 26.611 1.925 40 2 10.161 6.1561 10.494 12.8227 1 20-30.333.6667-60.667.6667-91 0C91.6682 85.1676 89.5016 75.0009 98 62.5c3.482-3.3392 7.315-6.0058 11.5-8Zm188 9c6.009-.1662 12.009.0005 18 .5-2.813 3.9805-6.147 7.4805-10 10.5-2.93-3.5484-5.597-7.2151-8-11Zm-155 46c5.011-.166 10.011.001 15 .5-5.302 7.883-6.802 16.383-4.5 25.5 1.308 2.141 2.808 4.141 4.5 6 21.333 11.667 42.667 23.333 64 35-2.398 3.071-4.398 6.405-6 10-.865 1.083-1.865 1.249-3 .5-24.56-13.78-49.56-26.78-75-39-14.95-1.416-29.95-1.916-45-1.5 0-4.667 0-9.333 0-14 12.409.439 24.742-.061 37-1.5 2.46-1.458 4.627-3.291 6.5-5.5 2.272-5.322 4.439-10.655 6.5-16Zm-113 14c11.005-.167 22.005 0 33 .5 13.1328 3.767 16.9661 11.933 11.5 24.5-2.3649 3.369-5.5315 5.536-9.5 6.5-12.3333.667-24.6667.667-37 0-9.672-3.507-13.5053-10.34-11.5-20.5 2.6157-6.128 7.1157-9.794 13.5-11Zm43 223c122-.167 244 0 366 .5 1.28 2.894 1.946 6.061 2 9.5-.054 3.439-.72 6.606-2 9.5-122.333.667-244.667.667-367 0-.5-.5-1-1-1.5-1.5-.6667-5.333-.6667-10.667 0-16 .9947-.566 1.828-1.233 2.5-2Zm27 37c103.833-1.166 207.833-1.333 312-.5-16.444 21.055-32.277 42.555-47.5 64.5-.499 4.321-.666 8.654-.5 13-53.001-.167-106.001 0-159 .5-7.975 3.571-8.975 8.571-3 15 57.333.333 114.667.667 172 1 .5.5 1 1 1.5 1.5.667 5.333.667 10.667 0 16-.75.626-1.584 1.126-2.5 1.5-79.028.825-158.028.658-237-.5-.329-6.037.004-12.037 1-18 13.622-.816 27.288-1.316 41-1.5 5.312-4.761 5.312-9.428 0-14-10.254-1.426-20.588-1.926-31-1.5.628-6.262-.205-12.262-2.5-18-14.854-19.735-29.687-39.402-44.5-59Z" stroke="#44739e" stroke-width="4" fill="none"/>
</svg>