<svg xmlns="http://www.w3.org/2000/svg" viewBox="0 0 512 512">
	<path d="M186.5 170.5c-5.773 1.553-11.106 4.22-16 8-2.68-3.182-6.013-5.348-10-6.5-10.191-.656-18.358 3.177-24.5 11.5-3.544 9.441-.377 13.941 9.5 13.5 4.014-2.19 7.514-5.023 10.5-8.5 9.53 10.379 19.363 10.546 29.5.5 7.471-1.721 14.471-.388 21 4 10.07 1.267 13.57-2.899 10.5-12.5-8.912-7.026-19.079-10.359-30.5-10Zm152-66c-6.12 1.433-11.953 3.766-17.5 7-3.462 7.744-1.129 12.41 7 14 4.272-.757 8.439-1.924 12.5-3.5 3.333-.667 6.667-.667 10 0 2.544 4.953 4.711 10.12 6.5 15.5 2.989 3.991 6.822 6.824 11.5 8.5 8.685.428 17.352.094 26-1 2.019-.45 3.852-1.283 5.5-2.5 3.988-10.37.488-15.036-10.5-14-5.672.576-11.338.743-17 .5-1.919-6.838-4.919-13.172-9-19-7.553-5.015-15.887-6.848-25-5.5Zm-86-30c-1.603 1.0964-3.103 2.4297-4.5 4-1.262 4.4094-.428 8.2428 2.5 11.5 6.06 1.8636 11.726 4.5302 17 8 1.372 1.2419 2.372 2.742 3 4.5-1.778 3.89-3.278 7.89-4.5 12-1.656 9.217 1.177 16.717 8.5 22.5 7.9 3.186 14.067 8.353 18.5 15.5 3.488 10.11 4.321 20.444 2.5 31 .399 1.697.899 3.363 1.5 5 5.48 5.537 10.48 5.204 15-1 .998-4.944 1.498-9.944 1.5-15 1.272-17.033-4.395-31.199-17-42.5-5.078-2.421-9.578-5.588-13.5-9.5 1.734-5.847 3.234-11.847 4.5-18-.313-7.7913-3.646-13.958-10-18.5-7.475-5.4034-15.808-8.57-25-9.5Zm-194 370c-3.5614 2.05-6.728 4.717-9.5 8-4.7341 12.365-.9007 20.865 11.5 25.5 130 .667 260 .667 390 0 4.222-1.026 7.722-3.193 10.5-6.5 6.04-11.67 3.207-20.503-8.5-26.5-131.333-.5-262.666-.667-394-.5Zm158-204c8.448 13.227 15.615 27.227 21.5 42 6.717 18.249 7.05 36.582 1 55-6.5 13.68-14.5 26.346-24 38-10.162 15.994-13.328 33.328-9.5 52 29.669.167 59.335 0 89-.5-25.876-25.333-34.042-55.5-24.5-90.5 6.331-18.998 13.831-37.498 22.5-55.5-3.711-.825-7.378-.659-11 .5-4.748 8.499-9.748 16.832-15 25-3.326 3.166-6.993 3.666-11 1.5-2.793-3.081-4.96-6.581-6.5-10.5-8.333-18.667-16.667-37.333-25-56-2.381-.935-4.881-1.268-7.5-1Zm106-13c-3.346.844-6.346 2.511-9 5-8.01 13.007-19.676 19.841-35 20.5-4.163 3.829-3.829 7.163 1 10 32.667.667 65.333.667 98 0 .863-8.732 5.197-15.065 13-19 6.414-.129 12.747-.796 19-2 4-3.667 4-7.333 0-11-7.667-.333-15.333-.667-23-1-2.452-.29-4.785-.956-7-2-18.997-.5-37.997-.667-57-.5Zm-79-11c-.27 5.478-1.937 10.478-5 15 7.403 16.709 14.903 33.375 22.5 50 1.697-2.199 3.197-4.532 4.5-7-1.692-1.859-3.192-3.859-4.5-6-5.384-14.008-1.55-24.508 11.5-31.5-11.844-3.908-21.511-10.741-29-20.5Zm-119-72c-1.603 1.096-3.103 2.43-4.5 4-7.119 19.099-20.9519 28.932-41.5 29.5-2.1166 1.731-3.6166 3.898-4.5 6.5-1.1759 8.164 2.3241 12.998 10.5 14.5 17.333.333 34.667.667 52 1 1.167 1.167 2.333 2.333 3.5 3.5.333 5 .667 10 1 15 .785 1.786 1.951 3.286 3.5 4.5 26 .667 52 .667 78 0 1.549-1.214 2.715-2.714 3.5-4.5.094-9.048 4.261-15.215 12.5-18.5 4.517-.263 8.851-1.263 13-3 9.815-9.477 9.149-18.144-2-26-13.706-.961-27.373-1.961-41-3-2.852-6.231-5.019-12.731-6.5-19.5-1.214-1.549-2.714-2.715-4.5-3.5-24.331-.5-48.664-.667-73-.5Zm120-112c-2.639 1.809-4.806 4.1424-6.5 7-.191 15.2537-7.358 25.4204-21.5 30.5-27.707.043-55.374.7096-83 2-2.833 1.5-5 3.6667-6.5 6.5.316 16.5626-7.184 27.729-22.5 33.5-10.3333.333-20.6667.667-31 1-6.6823.591-12.1823 3.424-16.5 8.5-7.9498 13.8-5.4498 25.3 7.5 34.5 9.5696 2.895 19.2362 3.228 29 1 2.1089-1.141 3.9422-2.641 5.5-4.5 2.745-5.825 5.745-11.492 9-17 3.688-3.928 8.188-6.428 13.5-7.5 26.667-.667 53.333-.667 80 0 11.472 4.083 17.806 12.25 19 24.5 10.707-.276 21.373.224 32 1.5 11.933 3.599 19.433 11.432 22.5 23.5 2.328 14.033-2.172 25.2-13.5 33.5 2 1.667 4 3.333 6 5 8.895 2.779 16.895 7.112 24 13 1.135.749 2.135.583 3-.5 4.797-8.296 11.797-13.796 21-16.5 18.286-1.433 36.62-1.933 55-1.5 1.486-10.318 7.153-17.151 17-20.5 6.746-.121 13.413-.788 20-2 .833-.833 1.667-1.667 2.5-2.5.081-13.695 6.581-22.528 19.5-26.5 10.47 1.1 18.97-2.4 25.5-10.5 7.399-16.698 2.565-28.198-14.5-34.5-10.667-.333-21.333-.667-32-1-4.713-1.19-9.047-3.19-13-6-6.827-7.4735-10.327-16.3068-10.5-26.5-1.167-1.1667-2.333-2.3333-3.5-3.5-7.993-1.2135-15.993-2.5468-24-4-9.084-4.0819-14.917-10.9152-17.5-20.5.616-7.4955-1.884-13.6622-7.5-18.5-29.27-1.476-58.603-1.976-88-1.5Zm-2-17c-15.32 4.9103-23.154 15.5769-23.5 32-1.167 2.5-3 4.3333-5.5 5.5-28.68.9914-57.347 1.9914-86 3-13.251 6.6517-19.751 17.485-19.5 32.5-1.563 3.2284-4.063 5.3951-7.5 6.5-8.6667.3333-17.3333.6667-26 1-14.3071.5684-25.4737 6.735-33.5 18.5-11.8264 25.807-5.3264 45.307 19.5 58.5-1.5529 2.655-2.7196 5.488-3.5 8.5-2.1024 16.308 4.3976 27.475 19.5 33.5 15.6275 1.382 31.294 1.882 47 1.5.646 10.471 5.646 17.971 15 22.5 18.602 1.295 37.268 1.962 56 2 13.084 16.329 22.917 34.496 29.5 54.5 3.796 12.905 3.13 25.572-2 38-6.881 12.208-14.547 23.875-23 35-10.773 18.364-14.273 38.03-10.5 59-44.335-.167-88.6679 0-133 .5-11.2447 2.911-19.078 9.744-23.5 20.5-6.2604 23.649 2.2396 39.149 25.5 46.5 132 .667 264 .667 396 0 14.936-3.936 24.102-13.436 27.5-28.5 1.462-19.522-7.038-32.355-25.5-38.5-45.417-.01-90.75-.677-136-2-6.802-5.801-13.302-11.968-19.5-18.5-17.481-21.366-21.481-45.033-12-71 6.863-18.925 14.696-37.425 23.5-55.5 23.333-.333 46.667-.667 70-1 8.938-3.338 13.938-9.838 15-19.5 5.615-.789 11.282-1.289 17-1.5 7.833-2.5 13-7.667 15.5-15.5 3.084-14.338-2.083-24.171-15.5-29.5-8.758-.083-17.425-.916-26-2.5.532-2.241 1.865-3.741 4-4.5 4.667-.333 9.333-.667 14-1 8.501-.513 15.001-4.346 19.5-11.5 1.56-5.944 3.393-11.777 5.5-17.5 6.691-1.072 13.357-2.405 20-4 13.202-5.2 21.368-14.7 24.5-28.5 2.917-25.354-7.916-41.187-32.5-47.5-11.405-.0659-22.738-.7325-34-2-1.167-1.1667-2.333-2.3333-3.5-3.5-1.075-23.4131-13.242-34.5798-36.5-33.5-5.263-.9332-9.096-3.7665-11.5-8.5.344-15.4998-6.489-26.3332-20.5-32.5-31.284-1.47-62.617-1.97-94-1.5Z" stroke="#44739e" stroke-width="4" fill="none"/>
</svg>