<svg xmlns="http://www.w3.org/2000/svg" viewBox="0 0 512 512">
	<path d="M302.5 4.5c6.737-1.3049 10.737 1.3617 12 8-1.255 9.0353-2.755 18.0353-4.5 27-4.667 5.3333-9.333 5.3333-14 0-.601-1.6368-1.101-3.3034-1.5-5 1.213-7.9892 2.379-15.9892 3.5-24 .599-2.7542 2.099-4.7542 4.5-6Zm-37 3c3.102-.346 5.935.3207 8.5 2 2.883 7.4077 4.883 15.0744 6 23 2.038 11.9769-2.462 15.8102-13.5 11.5-.626-.7504-1.126-1.5838-1.5-2.5-1.9-8.6659-3.733-17.3326-5.5-26 .906-3.5617 2.906-6.2284 6-8Zm76 7c8.707-.4635 12.207 3.5365 10.5 12-5.111 8.1102-10.611 15.9435-16.5 23.5-9.582 2.4206-13.415-1.4128-11.5-11.5 5.342-8.486 11.175-16.486 17.5-24Zm-114 17c3.149-.2886 6.149.2114 9 1.5 6.333 4.5 12.667 9 19 13.5 4.019 4.778 3.686 9.278-1 13.5-3 .6667-6 .6667-9 0-6.667-4.6667-13.333-9.3333-20-14-3.896-5.4747-3.229-10.308 2-14.5Zm141 4c10.4-.1939 13.567 4.4728 9.5 14-6.5 5.8333-13 11.6667-19.5 17.5-9.833 2.1667-13.667-1.6667-11.5-11.5 6.765-7.2637 13.931-13.9304 21.5-20Zm-154 29c11.144.8616 22.144 2.6949 33 5.5 5.424 2.017 7.258 5.8503 5.5 11.5-1.415 3.2054-3.915 4.8721-7.5 5-10-2.1667-20-4.3333-30-6.5-4.724-2.4353-6.224-6.2686-4.5-11.5.69-1.8502 1.856-3.1836 3.5-4Zm90 7c10.596-.839 20.93.3277 31 3.5 11.825 7.4125 15.658 17.9125 11.5 31.5-1.875 4.927-5.042 8.76-9.5 11.5-9.355 4.452-19.022 8.119-29 11-14.211 5.214-25.045 14.381-32.5 27.5-3.106 7.424-5.44 15.091-7 23-3.478 4.162-7.644 4.996-12.5 2.5-2.092-1.853-3.092-4.186-3-7 4.444-29.442 20.444-49.776 48-61 9.077-3.137 18.077-6.47 27-10 4.077-3.139 4.91-6.9719 2.5-11.5-2.707-2.4363-5.873-3.9363-9.5-4.5-6.382-.6887-12.715-.3554-19 1-8.394 2.2422-16.561 5.0756-24.5 8.5-5.167-.5-8-3.3333-8.5-8.5.295-2.9234 1.629-5.2568 4-7 9.941-5.0355 20.275-8.5355 31-10.5Zm83 0c6.136-.3644 9.802 2.4689 11 8.5-.403 2.8872-1.736 5.2205-4 7-9.169 2.8342-18.336 5.6675-27.5 8.5-5.167-.5-8-3.3333-8.5-8.5.295-2.9234 1.629-5.2568 4-7 8.468-2.7665 16.802-5.5998 25-8.5Zm-135 20c10.119-.0482 13.285 4.6185 9.5 14-8.263 4.882-16.763 9.382-25.5 13.5-9.081.34-12.248-3.827-9.5-12.5 8.481-5.152 16.981-10.1525 25.5-15Zm155 12c4.303-.704 7.803.63 10.5 4 1.309 7.631 1.642 15.297 1 23-2.435 4.724-6.269 6.224-11.5 4.5-1.833-.5-3-1.667-3.5-3.5-1.523-7.602-1.856-15.268-1-23 1.025-2.187 2.525-3.854 4.5-5Zm-28 12c3.294-.241 6.294.592 9 2.5 6.025 4.846 10.691 10.679 14 17.5-2.292 7.313-6.959 9.48-14 6.5-4.167-4.167-8.333-8.333-12.5-12.5-2.867-5.87-1.7-10.537 3.5-14Zm60 0c8.661-1.171 12.494 2.496 11.5 11-4.5 5.833-9.667 11-15.5 15.5-8.673 2.748-12.84-.419-12.5-9.5 5.031-6.197 10.531-11.864 16.5-17Zm-263 3c5.989-1.435 10.155.565 12.5 6 1.103 5.68 2.269 11.347 3.5 17-.606 5.106-3.439 8.106-8.5 9-5.891-1.23-8.891-4.897-9-11-.898-4.321-1.731-8.655-2.5-13 .282-3.231 1.615-5.898 4-8Zm35 6c9.646-.527 13.146 3.807 10.5 13-4.287 5.075-8.453 10.242-12.5 15.5-9.634 3.033-13.801-.467-12.5-10.5 4.613-6.253 9.446-12.253 14.5-18Zm-59 10c2.427.023 4.76.523 7 1.5 5.167 3.833 10.333 7.667 15.5 11.5 2.11 4.128 1.61 7.961-1.5 11.5-2.53 1.422-5.197 1.755-8 1-6.112-3.779-11.945-7.945-17.5-12.5-2.458-5.743-.958-10.076 4.5-13Zm211 2c10.935.81 20.768 4.477 29.5 11 2.166 6.989-.334 10.989-7.5 12-9.262-2.027-17.762-5.694-25.5-11-1.407-4.944-.241-8.944 3.5-12Zm91 4c9.542.911 12.208 5.744 8 14.5-8.348 3.588-17.015 5.588-26 6-5.655-3.954-6.322-8.621-2-14 6.679-2.495 13.346-4.662 20-6.5Zm-226 7c10.062-.782 13.562 3.552 10.5 13-5.807 3.82-11.973 6.987-18.5 9.5-10.069 1.268-13.569-2.898-10.5-12.5 6.021-3.758 12.188-7.091 18.5-10Zm186 3c5.639.14 8.972 2.973 10 8.5-3.519 12.521-11.519 20.855-24 25-12.196 3.837-24.696 5.67-37.5 5.5-12.207-.489-24.374-1.489-36.5-3-18.33 1.243-31.83 9.909-40.5 26-4.443 7.551-7.777 15.551-10 24-4.724 5.047-9.391 5.047-14 0-1.753-3.614-1.753-7.281 0-11 17.46-48.262 51.293-65.595 101.5-52 13.347.055 26.014-2.778 38-8.5 3.694-2.687 6.194-6.187 7.5-10.5 1.5-1.969 3.333-3.302 5.5-4Zm-275 7c9.6.487 18.933 2.32 28 5.5 4.215 4.958 3.881 9.625-1 14-9.127-.156-18.127-1.49-27-4-5.292-5.165-5.292-10.332 0-15.5Zm47 4c5.962-.259 11.629.907 17 3.5 5.721 4.388 10.721 9.388 15 15 9.652.573 18.986 2.573 28 6 10.979 8.87 14.146 20.037 9.5 33.5-3.56 8.121-7.893 15.788-13 23-5.095 9.644-9.595 19.477-13.5 29.5-8.971 2.369-13.137-1.131-12.5-10.5 1.405-5.882 3.405-11.549 6-17 6-10.667 12-21.333 18-32 1.943-6.611-.223-11.111-6.5-13.5-8.899-.62-17.565-2.287-26-5-5.122-4.577-9.788-9.577-14-15-3.69-.581-7.356-.415-11 .5-6.773-1.197-9.273-5.197-7.5-12 2.893-3.226 6.393-5.226 10.5-6Zm-55 34c6.532.198 9.532 3.531 9 10-.669 6.687-1.503 13.354-2.5 20-2.695 5.598-6.862 7.098-12.5 4.5-2.208-1.836-3.542-4.169-4-7 1.285-7.435 2.452-14.935 3.5-22.5 1.563-2.523 3.73-4.19 6.5-5Zm-34 3c6.362-.906 10.195 1.76 11.5 8 1.919 7.249 2.919 14.582 3 22-3.274 5.238-7.774 6.404-13.5 3.5-3.0732-7.856-5.0732-16.022-6-24.5-.1231-4.095 1.5435-7.095 5-9Zm293 4c4.78-.859 8.28.808 10.5 5 .334 5.849.834 11.683 1.5 17.5-.473 8.465-4.807 11.465-13 9-1.987-1.319-3.154-3.152-3.5-5.5-.667-7-.667-14 0-21 1.025-2.187 2.525-3.854 4.5-5Zm-228 2c8.653-.513 12.153 3.487 10.5 12-4.71 6.921-9.544 13.754-14.5 20.5-9.974 2.027-13.807-1.807-11.5-11.5 4.29-7.77 9.457-14.77 15.5-21Zm201 10c2.064.187 4.064.687 6 1.5 4.833 4.833 9.667 9.667 14.5 14.5 1.32 10.012-2.846 13.512-12.5 10.5-4.5-4.5-9-9-13.5-13.5-2.335-6.174-.502-10.508 5.5-13Zm59 0c9.686-.619 13.186 3.714 10.5 13-4.532 4.867-9.366 9.367-14.5 13.5-9.601 3.07-13.767-.43-12.5-10.5 5.395-5.564 10.895-10.897 16.5-16Zm-356 4c3.2935-.241 6.2935.592 9 2.5 5.5897 4.045 11.0897 8.212 16.5 12.5 3.2002 9.102.0335 13.269-9.5 12.5-7.2721-4.219-14.1054-9.052-20.5-14.5-2.0365-5.508-.5365-9.841 4.5-13Zm118 4c10.06-.784 13.56 3.549 10.5 13-5.198 5.533-10.698 10.7-16.5 15.5-9.442 2.702-13.609-.798-12.5-10.5 6.035-6.203 12.202-12.203 18.5-18Zm162 13c9.427 1.308 18.427 4.141 27 8.5 4.177 4.954 3.843 9.62-1 14-2.667.667-5.333.667-8 0-6.667-2.667-13.333-5.333-20-8-4.229-5.566-3.563-10.399 2-14.5Zm91 4c9.573.978 12.24 5.811 8 14.5-7.285 2.863-14.785 5.03-22.5 6.5-5.263-.097-8.096-2.763-8.5-8 .056-2.611 1.056-4.778 3-6.5 6.738-2.303 13.405-4.469 20-6.5Zm-238 4c10.119-.048 13.285 4.618 9.5 14-6.901 4.784-14.234 8.784-22 12-7.361-1.725-9.694-6.058-7-13 6.405-4.589 12.905-8.922 19.5-13Zm93 1c10.558-.674 20.891.493 31 3.5 10.558 3.946 20.558 8.946 30 15 16.541 7.481 29.874 3.814 40-11 7.079-1.801 11.079.865 12 8-6.986 14.924-18.82 22.758-35.5 23.5-5.23-.461-10.397-1.295-15.5-2.5-11.122-5.061-22.122-10.394-33-16-24.672-10.005-42.172-2.838-52.5 21.5-5.182 21.467 2.651 35.967 23.5 43.5 20.956 4.983 40.622 12.983 59 24 4.867 4.532 9.367 9.366 13.5 14.5 3.144 5.265 4.977 10.931 5.5 17 22.336-.167 44.669 0 67 .5 4.569 2.541 6.069 6.375 4.5 11.5-1.167 1.167-2.333 2.333-3.5 3.5-131 .667-262 .667-393 0-4.3608-2.226-5.8608-5.726-4.5-10.5.8333-2.167 2.3333-3.667 4.5-4.5 25.3399-.167 50.6732-.667 76-1.5 6.414-22.918 20.747-38.751 43-47.5 12.335-3.417 24.335-7.75 36-13 4.861-3.527 9.027-7.694 12.5-12.5 3.341-9.478.841-16.978-7.5-22.5-5.183-2.815-10.516-3.148-16-1-11.68 7.84-24.347 13.506-38 17-25.44 4.692-45.606-3.474-60.5-24.5-1.9202-3.338-3.4202-6.838-4.5-10.5 1.7371-7.241 6.0705-9.575 13-7 12.112 23.391 30.778 31.391 56 24 9.44-3.886 18.44-8.553 27-14 21.14-6.736 36.64-.236 46.5 19.5 4.936 19.97-1.564 35.137-19.5 45.5-12.216 5.85-24.883 10.517-38 14-15.469 6.303-26.469 17.136-33 32.5 36.662 1.167 73.329 1.333 110 .5-8.695-5.023-16.528-11.19-23.5-18.5-4.021-7.468-1.854-10.968 6.5-10.5 21.705 24.001 48.705 33.668 81 29-5.873-3.436-11.873-6.603-18-9.5-2.194-4.893-.694-7.893 4.5-9 12.253 3.709 23.086 9.875 32.5 18.5 7.667.667 15.333.667 23 0-3.469-9.138-9.469-16.138-18-21-16.254-8.292-33.254-14.625-51-19-33.661-15.64-42.828-40.474-27.5-74.5 7.961-13.473 19.461-22.14 34.5-26Zm-241 2c9.7742.654 19.4409 2.154 29 4.5 5.4242 2.017 7.2575 5.85 5.5 11.5-1.4153 3.205-3.9153 4.872-7.5 5-8.6667-1.833-17.3333-3.667-26-5.5-4.7238-2.435-6.2238-6.269-4.5-11.5.6897-1.85 1.8564-3.184 3.5-4Zm188 83c3.461-.354 5.961.979 7.5 4 .738 2.453 1.238 4.953 1.5 7.5.146 2.034-.52 3.701-2 5-4.839 1.716-8.006.216-9.5-4.5-.667-3.333-.667-6.667 0-10 .995-.566 1.828-1.233 2.5-2Zm10 17c1.699-.16 3.366.006 5 .5 9.385 6.859 19.718 11.859 31 15 3.413 5.016 2.247 8.516-3.5 10.5-13.03-3.016-24.697-8.683-35-17-1.221-3.782-.387-6.782 2.5-9Zm-179 65c4.2943-.302 7.461 1.364 9.5 5 .3333 15.333.6667 30.667 1 46 .8333 2.167 2.3333 3.667 4.5 4.5 104.333.667 208.667.667 313 0 1.167-1.167 2.333-2.333 3.5-3.5.333-15.333.667-30.667 1-46 4.138-7.027 9.138-7.694 15-2 1.952 17.316 1.952 34.649 0 52-2.5 7.833-7.667 13-15.5 15.5-107 .667-214 .667-321 0-8.8333-2.167-14.3333-7.667-16.5-16.5-.6667-16.667-.6667-33.333 0-50 1.1065-2.613 2.9399-4.28 5.5-5Zm9 77c16.0035-.167 32.003 0 48 .5 3.712 2.513 4.878 6.013 3.5 10.5-.833 2.167-2.333 3.667-4.5 4.5-15 .667-30 .667-45 0-7.203-4.314-7.8697-9.481-2-15.5Zm280 0c16.003-.167 32.003 0 48 .5 5.788 5.852 5.121 10.852-2 15-15 .667-30 .667-45 0-5.109-3.366-6.276-7.866-3.5-13.5.995-.566 1.828-1.233 2.5-2Z" stroke="#44739e" stroke-width="4" fill="none"/>
</svg>