<svg xmlns="http://www.w3.org/2000/svg" viewBox="0 0 307 307">
	<path d="M153.9 2.96C155.78 3.46 156.96 4 158.88 5.28 167.82 11.24 172.9 21.36 173.54 34.46L173.66 37.16 175.68 37.9C188.7 42.68 197.46 52.22 200.78 65.26 201.4 67.64 202 71.4 202 72.84 202 74.6 201.86 74.52 205.18 74.68 219.62 75.32 232.4 81.32 240.84 91.4 244.32 95.54 247.7 101.52 249.7 107.06 254.88 121.52 255.54 141.34 251.48 161.78 251.1 163.7 250.82 165.28 250.86 165.32 250.88 165.36 251.64 165.74 252.5 166.18 255.46 167.66 257.36 169.82 258.48 173 259.02 174.54 259.08 174.94 259.08 177.3 259.1 181.12 258.52 183.34 256.16 188.5 246.86 208.76 240.14 229.96 239.66 240.5 239.5 243.84 239.78 245.76 240.82 248.5 242.04 251.72 242.4 253.4 242.52 256.2 242.66 259.22 242.34 261.02 241.3 263.1 238.26 269.22 231.12 270.56 225.4 266.08 223.62 264.68 221.78 262.24 220.78 259.92 220.52 259.32 220.26 258.8 220.2 258.8 220.14 258.8 219.7 259.64 219.24 260.66 216.98 265.6 212.2 273.28 208.74 277.6 196.84 292.38 181.3 300.92 161.94 303.3 146.8 305.16 130.34 302.28 117.6 295.56 103.64 288.18 92.86 276.84 84.48 260.68L82.98 257.78 82.48 258.92C79.96 264.62 74.96 268.4 69.92 268.4 64.98 268.4 61.2 265.48 59.68 260.48 59.4 259.58 59.3 258.64 59.32 256.6 59.32 253.5 59.66 251.84 61 248.32 62.72 243.76 62.5 238.42 60.18 228.8 57.78 218.82 52.26 203.3 46.8 191.2 43.36 183.58 42.82 181.88 42.66 178.18 42.52 175.38 42.88 173.5 43.94 171.4 45.12 169.04 47.54 166.76 49.82 165.88 50.3 165.7 50.76 165.48 50.84 165.42 50.92 165.36 50.76 164.22 50.48 162.9 49.36 157.38 48.5 151.38 47.96 145.2 47.58 140.86 47.64 129.46 48.06 125.6 49.9 108.74 54.96 96.9 64.12 87.98 72.44 79.92 83.82 75.26 96.66 74.68L99.54 74.54 99.86 71.52C100.42 66.48 101.6 62.28 103.7 57.88 108.12 48.62 115.82 41.82 126.32 37.96L128.14 37.3 128.26 33.8C128.46 27.34 129.78 21.84 132.3 16.8 135.42 10.58 141.22 5.02 146.38 3.26 148.44 2.56 151.84 2.44 153.9 2.96ZM148.22 9.18C146.76 9.72 144.32 11.5 142.5 13.3 138.98 16.8 136.54 21.72 135.4 27.54 134.98 29.72 134.44 35.3 134.62 35.5 134.68 35.56 136.12 35.38 137.82 35.12 142.96 34.3 145.94 34.14 153.02 34.26 159.2 34.36 160.8 34.48 165.44 35.22 166.3 35.36 167.04 35.44 167.08 35.38 167.26 35.18 166.74 30.5 166.3 28.28 165 21.9 162.66 17.2 158.82 13.38 156.86 11.42 154.06 9.4 152.8 9.04 151.6 8.7 149.3 8.76 148.22 9.18ZM143.3 40.6C124.1 42.32 111.84 50.98 107.5 65.9 106.92 67.88 106.28 71.56 106.14 73.64L106.04 74.98 106.78 75.08C109.2 75.46 116.34 75.62 128.3 75.56 143.4 75.5 151 75.52 172.5 75.62 186.7 75.7 192.2 75.56 194.98 75.06L195.66 74.94 195.54 73.02C195.18 67.32 193.02 60.88 189.88 56.16 187.7 52.88 184.04 49.34 180.54 47.14 174.64 43.4 166.26 41.02 156.7 40.42 153.58 40.2 146.66 40.32 143.3 40.6ZM196.88 81.08C189.32 81.88 189.54 81.88 141.7 81.82 116.26 81.8 110.74 81.68 104.8 81.08 100.7 80.64 94.72 80.78 91.3 81.38 76.32 84.02 65.6 92.08 59.68 105.18 54.1 117.56 52.66 134.66 55.52 154.3 56.08 158.12 57.34 164.62 57.56 164.82 57.64 164.88 58.12 165.04 58.66 165.18 62.66 166.14 65.9 168.68 67.54 172.1 67.9 172.86 68.38 174.34 68.6 175.36S69.12 177.4 69.26 177.62C69.78 178.48 71.28 178.28 71.52 177.32 71.6 177 71.28 175.36 70.72 173.06 68.5 163.88 67.72 158 67.7 150.4 67.7 143.9 68.18 140.26 69.64 135.9 70.92 132.08 72.76 129.02 75.28 126.48 78.52 123.26 82.02 121.46 87.1 120.46 89.48 120 96.02 119.98 98.8 120.46 99.84 120.62 102.3 121.04 104.24 121.38 116.66 123.5 132.56 124.6 150.8 124.6 169.58 124.6 184.12 123.58 197.9 121.3 204.06 120.28 206.32 120 208.96 120 219.38 119.98 226.96 124.44 230.92 132.92 235.18 142.04 235.2 156.36 230.98 173.24 230.56 174.96 230.2 176.66 230.2 176.98 230.2 177.68 230.9 178.26 231.64 178.16 232.2 178.08 233 176.92 233 176.22 233 175.92 233.14 175.14 233.3 174.5 234.42 170.04 238.1 166.48 242.78 165.28 244.44 164.84 244.22 165.28 245.18 160.4 245.92 156.6 246.68 151.38 247.14 147 247.64 142.16 247.64 128.86 247.14 124.8 246.38 118.72 245.32 113.92 243.8 109.5 242.84 106.74 240.8 102.38 239.46 100.2 233.82 91.06 225.14 84.84 214.36 82.2 212.28 81.68 209.12 81.14 207.2 80.94 205.32 80.74 199.34 80.84 196.88 81.08ZM199.98 127.18C171.4 132.14 127.36 131.98 99.5 126.8 96.66 126.28 91.68 126.06 89.32 126.38 84.72 127 81.18 128.88 78.76 132 73.08 139.32 72.52 153.46 77.14 172.2 77.92 175.38 78.04 176.12 77.96 177.4 77.86 179.22 77.2 180.66 75.86 182.02 72.16 185.82 65.72 184.78 63.3 179.98 63 179.4 62.58 178.08 62.38 177.02 61.94 174.88 61.4 173.8 60.2 172.72 58.94 171.58 57.78 171.16 55.7 171.06 54.18 170.98 53.72 171.04 52.72 171.4 49.88 172.48 48.58 175.32 49.18 179.18 49.5 181.26 50.12 182.96 52.18 187.54 63.16 211.9 69.42 233.86 68.4 244.54 68.18 246.94 67.8 248.5 66.74 251.4 64.7 256.98 65.58 261.3 68.96 262.2 70.04 262.48 70.76 262.34 72.26 261.54 75.48 259.84 77.98 254.76 78.5 248.8 78.64 247.36 78.6 247.18 77.62 244.2 73.04 230.44 70.34 215.78 69.7 201.3 69.58 198.62 69.6 198.46 70.04 197.72 71.22 195.72 74.38 195.66 75.58 197.62 75.86 198.1 75.98 198.8 76.08 200.66 76.9 215.58 79.42 229.3 83.7 242.1 89.56 259.66 98.02 273.14 109.1 282.5 120.78 292.38 135.8 297.66 152.3 297.68 176.08 297.72 195.34 287.36 208.04 267.7 218.44 251.6 224.96 227.86 225.56 203.9 225.72 197.88 225.78 197.6 227.2 196.66 227.98 196.12 229.52 196.04 230.38 196.5 231.2 196.92 231.96 197.9 232.12 198.74 232.3 199.7 231.88 209.6 231.5 213.8 230.44 224.96 227.86 237.76 224.94 246.3 224.52 247.56 224.48 247.88 224.64 249.4 224.98 252.94 225.82 255.98 227.12 258.32 229 261.74 231.96 263.42 233.98 262.18 234.98 261.58 235.34 261.06 235.8 259.62 236.54 257.28 236.22 254.44 234.8 250.7 233.02 246.02 232.8 241.4 234 234 235.96 222.04 242.18 203.58 250.1 186.4 253.34 179.36 253.58 175.14 250.9 172.54 249.72 171.4 248.28 170.94 246.1 171.06 243.96 171.16 242.84 171.6 241.48 172.84 240.3 173.92 239.88 174.8 239.4 177.04 238.7 180.3 237.46 182.18 235.26 183.36 230.5 185.88 224.78 183.24 223.8 178.02 223.56 176.74 223.66 176.06 224.52 172.7 226.68 164.32 228.02 153.92 227.7 148 227.02 135.4 222.78 128.64 214.38 126.72 212.4 126.26 211.94 126.24 208.2 126.3 205.18 126.36 204.06 126.48 199.98 127.18ZM153.74 153.8C155.08 154 157.14 154.96 158.16 155.88 161.88 159.24 161.58 164.96 157.52 167.94 152.52 171.64 145.18 168.82 144.22 162.82 143.38 157.58 148.18 153.02 153.74 153.8ZM151.04 160.52C149.48 162.3 152.12 164.52 153.82 162.82 154.14 162.5 154.4 162.04 154.4 161.82 154.4 160.1 152.18 159.22 151.04 160.52ZM195.5 161.02C203.06 161.72 211.58 165.02 217.88 169.68 219.76 171.06 220.1 171.58 220.1 172.92 220.1 174.74 218.9 175.9 217 175.9 215.98 175.9 215.7 175.8 214.86 175.2 209.64 171.46 204.28 168.96 199 167.84 190.2 165.96 181.66 167.42 174.86 171.98 170.3 175.04 166.74 179.14 164.16 184.28 162.4 187.78 161.38 191.4 160.46 197.2 159.92 200.64 159.98 209.66 160.56 215.14 160.8 217.38 161 219.28 161 219.38 161 219.46 161.76 219.6 162.68 219.66 166.8 219.98 169.78 221.82 171.42 225.04 172.62 227.42 172.88 230.02 172.2 232.7 171.36 235.98 169.3 238.26 166.08 239.44 164.38 240.06 160.74 240.06 158.54 239.44L156.98 239 156.24 239.58C155.26 240.38 153.52 241.12 152.04 241.4 149.8 241.8 146.8 240.82 144.76 239.02L143.82 238.18 142.46 238.62C140.52 239.22 136.72 239.38 135.08 238.9 133.32 238.4 132.1 237.66 130.9 236.36 127.4 232.6 127.58 226.68 131.26 222.92 133.22 220.92 135.74 219.84 139 219.62L140.7 219.5 141.04 216.3C141.84 208.46 141.96 202.74 141.38 198.2 140.18 188.64 137.38 182.02 132.18 176.52 129.3 173.48 126.72 171.6 123 169.82 112.44 164.8 98.88 166.66 87.64 174.66 85.66 176.08 84.78 176.28 83.34 175.64 82.14 175.1 81.6 174.26 81.6 172.86 81.6 171.92 81.68 171.7 82.34 170.98 83.46 169.74 87.54 167.12 90.9 165.48 109.72 156.3 130.1 161.12 140.9 177.3 144.54 182.74 146.54 188.46 147.76 196.86 148.32 200.9 148.22 209.64 147.52 216.6 146.86 223.04 146.86 228.36 147.48 230.92 147.94 232.86 148.88 234.36 149.96 234.96L150.82 235.44 151.76 234.96C152.94 234.38 153.64 233.3 154.24 231.1 154.86 228.78 154.86 222.02 154.2 216.2 153.58 210.62 153.42 202.02 153.88 198.2 154.82 190.04 156.58 184.28 159.74 179.04 167.34 166.36 180.7 159.64 195.5 161.02ZM137.7 226.04C136.66 226.3 135.32 227.64 135.02 228.7 134.7 229.84 134.76 230.58 135.18 231.54 135.84 232.98 137.32 233.44 139.7 232.9 140.52 232.72 141.2 232.52 141.2 232.44 141.2 232.36 141.06 231.54 140.9 230.6S140.6 228.5 140.6 228 140.54 226.76 140.46 226.34L140.34 225.56 139.42 225.7C138.92 225.76 138.14 225.92 137.7 226.04ZM161.14 227.94C161.06 229.14 160.84 230.86 160.62 231.8 160.42 232.74 160.26 233.52 160.3 233.56 160.34 233.6 161.04 233.68 161.86 233.74 163.16 233.84 163.5 233.8 164.28 233.4 165.84 232.66 166.52 230.64 165.92 228.56 165.42 226.84 164.02 225.82 162.08 225.8H161.26L161.14 227.94ZM195.8 180.42C199.6 180.82 204.58 182.38 208.74 184.52 211.32 185.86 214.86 188.14 215.76 189.06 216.6 189.92 216.86 191 216.52 192.02 215.82 194.06 211.8 198.42 208.7 200.52 200.1 206.36 189.78 207.1 178.2 202.76L176.9 202.26 174.9 203.22C171.62 204.82 169.64 205.14 168.08 204.38 166.98 203.86 166.4 202.94 166.4 201.74 166.4 200.98 166.66 200.28 167.8 198.04 173.22 187.34 180.66 181.48 190.26 180.42 192.42 180.18 193.34 180.18 195.8 180.42ZM187.9 187.1C183.78 188.3 179.76 191.26 177.04 195.08L176.38 196H177.1C177.5 196 178.86 196.4 180.16 196.88 181.44 197.36 183.18 197.94 184 198.16 193.44 200.76 201.78 199.06 207.68 193.3L209.06 191.94 208.58 191.58C207.76 190.96 203.18 188.68 201.64 188.12 198 186.82 195.5 186.4 192.2 186.5 190.26 186.56 189.3 186.7 187.9 187.1ZM111.64 180.42C117.58 181.04 122.58 183.58 127.12 188.24 129.98 191.16 132.36 194.66 134.42 198.94 135.54 201.28 135.66 202.16 134.94 203.2 134.14 204.4 133.54 204.7 131.94 204.7 130.24 204.68 128.94 204.3 126.62 203.12L124.96 202.28 122.08 203.26C110.98 207.02 101.16 206.1 93.02 200.54 91.1 199.24 87.38 195.54 86.14 193.7 84.96 191.96 84.8 191.14 85.38 189.94 86.34 187.96 93.26 183.9 98.9 182.04 103.56 180.5 107.54 179.98 111.64 180.42ZM103.7 187.08C102.6 187.36 101.02 187.82 100.2 188.1 98.5 188.72 93.86 191.02 93.16 191.6L92.7 191.98 94.06 193.28C96.82 195.9 100.06 197.72 103.7 198.72 105.54 199.22 106 199.28 109.4 199.28 114.26 199.28 116.08 198.9 122.84 196.42 123.48 196.18 124.32 196 124.72 196H125.44L124.78 195.14C120.94 190.2 117.1 187.64 112.14 186.68 110.04 186.28 106.22 186.46 103.7 187.08ZM163.2 254.18C164.14 254.38 165.6 254.82 166.46 255.18 168.44 255.96 169.36 255.96 171.64 255.18 174.24 254.28 175.4 254.52 176.56 256.22 176.94 256.76 177.02 257.08 176.94 257.86 176.82 259.16 176.32 259.78 174.8 260.54 172.84 261.5 171.02 261.9 168.7 261.88 166.88 261.86 166.5 261.78 164.46 261.04 159.88 259.36 156.74 259.52 152.56 261.62 150.48 262.66 149.72 262.66 147.66 261.6 145.44 260.46 143.7 260.12 140.72 260.26 138.82 260.34 137.84 260.5 136.22 260.98 133.64 261.74 132.16 261.78 129.54 261.12 126.02 260.22 124.8 259.26 124.8 257.42 124.8 255.7 126.08 254.4 127.78 254.4 128.24 254.4 129.4 254.64 130.3 254.92 132.28 255.54 133.02 255.5 135.9 254.7 137.72 254.18 138.2 254.14 141.4 254.12 145.1 254.1 146.68 254.36 149.08 255.4L150.04 255.8 151.86 255.12C152.88 254.74 154.4 254.3 155.24 254.12 157.32 253.7 161 253.72 163.2 254.18ZM164.94 265.42C166.44 265.86 167.38 267.58 166.98 269.08 166.66 270.24 165.74 271 162.96 272.38 158.68 274.48 155.9 275.18 151.2 275.34 147.48 275.46 145.62 275.22 142.52 274.18 139.48 273.16 135.86 271.08 135.08 269.92 134.26 268.64 134.6 266.88 135.9 265.88 136.54 265.4 136.86 265.3 137.78 265.3 138.8 265.3 139.08 265.4 140.54 266.34 143.5 268.26 146.08 269.12 149.4 269.32 153.18 269.56 157.7 268.38 161.4 266.18 162.8 265.36 163.94 265.1 164.94 265.42Z" stroke="#44739e" stroke-width="3" fill="none"/>
</svg>