<svg xmlns="http://www.w3.org/2000/svg" viewBox="0 0 512 512">
	<path d="M32.93 4.51C42.4034 4.51 51.8766 4.51 61.35 4.51 142.445 16.1882 198.4687 59.9615 229.42 135.83 233.9613 149.7548 237.7177 163.8012 240.69 177.97 250.49 172.7437 260.29 172.7437 270.09 177.97 282.6712 106.1184 321.5439 54.0147 386.71 21.66 406.897 12.8592 427.8034 7.1426 449.43 4.51 458.9037 4.51 468.3763 4.51 477.85 4.51 492.2237 9.0833 501.6963 18.5566 506.27 32.93 506.27 40.1166 506.27 47.3034 506.27 54.49 502.7763 69.9744 496.08 84.021 486.18 96.63 482.2139 102.9764 479.6003 109.8365 478.34 117.21 479.2514 181.252 451.6487 228.1284 395.53 257.84 386.9775 261.562 378.1575 264.502 369.07 266.66 431.1579 293.2739 466.9279 340.1502 476.38 407.29 481.5603 441.4254 470.943 469.3554 444.53 491.08 433.7324 498.6074 421.9724 503.671 409.25 506.27 400.43 506.27 391.61 506.27 382.79 506.27 343.6145 497.1452 321.0745 472.6452 315.17 432.77 291.2688 428.3061 276.4051 414.2588 270.58 390.63 270.2537 381.81 269.9263 372.99 269.6 364.17 265.6859 368.6016 260.9495 371.5416 255.39 372.99 249.8305 371.5416 245.0941 368.6016 241.18 364.17 243.824 382.4823 239.904 399.1423 229.42 414.15 220.3599 424.3155 209.0899 430.5229 195.61 432.77 189.5859 473.0911 166.7196 497.5911 127.01 506.27 118.5163 506.27 110.0237 506.27 101.53 506.27 64.9569 497.9537 42.5803 475.4137 34.4 438.65 31.2149 366.4818 60.4515 312.0918 122.11 275.48 128.4114 272.002 134.9441 269.062 141.71 266.66 90.4659 252.6568 56.3293 220.4795 39.3 170.13 34.8391 152.7879 32.5525 135.1479 32.44 117.21 31.6126 113.5732 30.6326 109.9805 29.5 106.43 22.392 94.5025 15.532 82.4158 8.92 70.17 7.2736 65.1943 5.8036 60.2943 4.51 55.47 4.51 47.9566 4.51 40.4434 4.51 32.93 9.0833 18.5566 18.5566 9.0833 32.93 4.51ZM41.75 19.21C99.5059 21.1839 147.0363 44.0506 184.34 87.81 203.3814 111.8484 215.7951 138.9621 221.58 169.15 180.81 85.9797 114.0074 40.7363 21.17 33.42 25.4561 24.7586 32.3161 20.0219 41.75 19.21ZM468.05 19.21C477.9794 19.7658 485.1657 24.5024 489.61 33.42 396.7717 40.7381 329.968 85.9815 289.2 169.15 300.5621 114.5728 330.1258 72.9227 377.89 44.2 406.0052 28.517 436.0589 20.187 468.05 19.21ZM199.53 162.29C170.6043 134.5129 135.978 121.2829 95.65 122.6 91.73 127.1737 91.73 131.7463 95.65 136.32 151.4875 138.3114 191.5038 164.2814 215.7 214.23 221.2782 227.3953 224.3818 241.1153 225.01 255.39 200.7795 255.929 176.6058 255.1127 152.49 252.94 102.9513 241.9483 70.1213 212.3856 54 164.25 51.3887 155.2801 49.9187 146.1337 49.59 136.81 58.0896 136.9727 66.5829 136.81 75.07 136.32 78.99 131.7463 78.99 127.1737 75.07 122.6 66.2561 122.11 57.4361 121.9473 48.61 122.11 48.2989 114.6914 46.8289 107.5051 44.2 100.55 37.588 88.3042 30.728 76.2175 23.62 64.29 22.0104 59.4857 20.8671 54.5857 20.19 49.59 93.1945 54.1495 150.1978 86.4895 191.2 146.61 194.2507 151.7344 197.0281 156.9608 199.53 162.29ZM311.25 162.29C339.9121 109.0613 383.3584 73.9442 441.59 56.94 457.6277 52.4702 473.9614 50.0202 490.59 49.59 489.9128 54.5857 488.7692 59.4857 487.16 64.29 480.0521 76.2175 473.1921 88.3042 466.58 100.55 463.9154 107.5021 462.4454 114.6885 462.17 122.11 439.628 121.9463 417.088 122.11 394.55 122.6 362.1198 126.4044 334.3535 139.6344 311.25 162.29ZM410.23 136.81C427.2163 136.81 444.2037 136.81 461.19 136.81 456.3321 187.5407 430.8521 223.638 384.75 245.1 369.3924 251.5033 353.3861 254.7706 336.73 254.9 319.7466 255.39 302.7603 255.5537 285.77 255.39 289.642 211.8555 309.8956 178.3718 346.53 154.94 366.3799 143.5299 387.6136 137.4872 410.23 136.81ZM252.45 189.73C262.5342 189.5232 268.2505 194.4232 269.6 204.43 270.4908 218.1961 270.1635 231.9161 268.62 245.59 262.8723 255.1411 255.195 256.9384 245.59 250.98 242.9175 248.0831 241.4475 244.6531 241.18 240.69 240.2892 226.9239 240.6165 213.2039 242.16 199.53 244.2239 194.6859 247.6539 191.4195 252.45 189.73ZM240.69 267.15C250.1637 271.0288 259.6373 271.0288 269.11 267.15 270.0861 272.9937 270.4124 278.8737 270.09 284.79 260.29 284.79 250.49 284.79 240.69 284.79 240.69 278.91 240.69 273.03 240.69 267.15ZM190.71 271.07C192.0555 270.9161 193.3629 271.0798 194.63 271.56 188.0268 279.0492 183.6168 287.7055 181.4 297.53 181.2354 307.9984 180.7454 318.452 179.93 328.89 166.8 317.0575 151.4463 312.6475 133.87 315.66 129.1895 317.0075 124.6168 318.3138 120.15 319.58 136.4758 292.9593 159.9958 276.7893 190.71 271.07ZM225.01 271.07C225.988 299.9751 226.3144 329.0488 225.99 358.29 214.5152 360.1892 204.5515 365.0892 196.1 372.99 195.4463 351.43 195.4463 329.87 196.1 308.31 197.5328 289.4019 207.1691 276.9882 225.01 271.07ZM284.79 271.07C303.3688 276.5296 313.3325 288.9432 314.68 308.31 315.3337 329.87 315.3337 351.43 314.68 372.99 306.2285 365.0892 296.2648 360.1892 284.79 358.29 284.79 329.2163 284.79 300.1437 284.79 271.07ZM316.15 272.05C348.8634 275.1948 373.6897 291.0385 390.63 319.58 386.1632 318.3138 381.5905 317.0075 376.91 315.66 359.3337 312.6475 343.98 317.0575 330.85 328.89 330.2777 317.0898 329.4613 305.3298 328.4 293.61 326.0529 285.3084 321.9692 278.1221 316.15 272.05ZM240.69 299.49C250.49 299.49 260.29 299.49 270.09 299.49 270.09 304.39 270.09 309.29 270.09 314.19 260.29 314.19 250.49 314.19 240.69 314.19 240.69 309.29 240.69 304.39 240.69 299.49ZM112.31 301.45C96.8988 324.2203 90.5288 349.373 93.2 376.91 103.0862 409.2235 124.8099 422.4535 158.37 416.6 166.6089 414.2794 173.7962 410.1967 179.93 404.35 183.9274 427.8798 178.8647 449.1135 164.74 468.05 143.5191 490.0569 118.5291 496.0996 89.77 486.18 58.0334 469.914 44.8034 443.944 50.08 408.27 56.0091 363.7202 76.7525 328.1138 112.31 301.45ZM398.47 301.45C438.3315 331.6742 459.2378 372.0178 461.19 422.48 461.189 452.2171 447.7963 473.4508 421.01 486.18 386.8149 497.2128 359.5375 487.9028 339.18 458.25 331.976 444.6202 328.8724 430.0838 329.87 414.64 330.1963 411.21 330.5237 407.78 330.85 404.35 347.3689 418.6276 365.9889 422.0576 386.71 414.64 412.2331 401.3198 422.5231 380.2498 417.58 351.43 414.9497 333.2353 408.5797 316.5753 398.47 301.45ZM241.67 328.89C250.8399 328.5646 259.9862 328.892 269.11 329.87 267.0559 339.3682 262.8096 347.6982 256.37 354.86 255.7163 355.5137 255.0637 355.5137 254.41 354.86 247.6852 347.4532 243.4389 338.7968 241.67 328.89ZM143.67 329.87C165.8298 332.2661 177.9161 344.5161 179.93 366.62 177.9837 388.4946 166.0601 400.7446 144.16 403.37 122.2599 400.7446 110.3363 388.4946 108.39 366.62 110.349 344.8993 122.109 332.6493 143.67 329.87ZM366.13 329.87C388.2898 332.2661 400.3761 344.5161 402.39 366.62 400.4437 388.4946 388.5201 400.7446 366.62 403.37 344.7199 400.7446 332.7963 388.4946 330.85 366.62 332.809 344.8993 344.569 332.6493 366.13 329.87ZM225.01 373.97C226.6652 395.7074 217.0289 410.081 196.1 417.09 195.0994 395.4173 204.7358 381.0436 225.01 373.97ZM284.79 373.97C305.6885 380.6732 315.6522 395.0469 314.68 417.09 294.2029 410.1467 284.2392 395.773 284.79 373.97Z" stroke="#44739e" stroke-width="4" fill="none"/>
</svg>