<svg xmlns="http://www.w3.org/2000/svg" viewBox="0 0 512 512">
	<path d="M189.73 9.41c43.7737 0 87.5463 0 131.32 0 0 10.78 0 21.56 0 32.34 10.78 0 21.56 0 32.34 0-.3254 12.1043.001 24.191.98 36.26 45.08 26.46 90.16 52.92 135.24 79.38.9771 7.4852 1.3044 14.9979.98 22.54-21.56 0-43.12 0-64.68 0 .8781 77.6415 9.5344 154.4088 25.97 230.3 7.8772 33.7943 16.2072 67.4407 24.99 100.94-16.66 0-33.32 0-49.98 0-3.724-13.2614-6.9903-26.655-9.8-40.18-107.8 0-215.6 0-323.4 0-2.8097 13.525-6.0764 26.9186-9.8 40.18-16.66 0-33.32 0-49.98 0 15.5083-55.8296 28.085-112.3433 37.73-169.54 8.1806-53.5923 12.5906-107.4923 13.23-161.7-21.56 0-43.12 0-64.68 0-.3242-7.5421.0025-15.0548.98-22.54 45.08-26.46 90.16-52.92 135.24-79.38.979-12.069 1.3054-24.1557.98-36.26 10.78 0 21.56 0 32.34 0 0-10.78 0-21.56 0-32.34Zm17.64 16.66c32.0137 0 64.0263 0 96.04 0 0 5.2266 0 10.4534 0 15.68-32.0137 0-64.0263 0-96.04 0 0-5.2266 0-10.4534 0-15.68ZM175.03 58.41c53.5737 0 107.1463 0 160.72 0 0 5.2266 0 10.4534 0 15.68-53.5737 0-107.1463 0-160.72 0 0-5.2266 0-10.4534 0-15.68Zm-6.86 32.34c58.1473-.1634 116.2946 0 174.44.49 39.8537 23.52 79.7063 47.04 119.56 70.56-137.8537.6537-275.7063.6537-413.56 0 40.0772-23.4622 79.9308-47.1458 119.56-71.05Zm-66.64 89.18c5.2263 0 10.4537 0 15.68 0-.8781 77.6444-9.5344 154.4108-25.97 230.3-6.7007 28.1084-13.3973 56.202-20.09 84.28-4.9 0-9.8 0-14.7 0 12.7819-48.5159 23.3986-97.5159 31.85-147 8.6834-55.5278 13.0934-111.3878 13.23-167.58Zm32.34 0c81.0137 0 162.0263 0 243.04 0-.1539 15.6937.1725 31.3737.98 47.04-5.5537 0-11.1063 0-16.66 0 0-10.78 0-21.56 0-32.34-70.56 0-141.12 0-211.68 0 0 10.78 0 21.56 0 32.34-5.5537 0-11.1063 0-16.66 0 .785-15.6673 1.1123-31.3473.98-47.04Zm259.7 0c5.2263 0 10.4537 0 15.68 0 .3322 77.6307 8.6622 154.397 24.99 230.3 6.7003 28.1084 13.3976 56.202 20.09 84.28-4.9 0-9.8 0-14.7 0-13.0075-50.1731-23.9512-100.8057-32.83-151.9-8.1957-53.9206-12.6057-108.1469-13.23-162.68ZM167.19 212.27c58.8 0 117.6 0 176.4 0 0 10.78 0 21.56 0 32.34 11.76 0 23.52 0 35.28 0 2.4549 37.7731 6.7012 75.3395 12.74 112.7-7.84 0-15.68 0-23.52 0 0 10.78 0 21.56 0 32.34-13.3937 0-26.7863 0-40.18 0 0 10.78 0 21.56 0 32.34-5.2263 0-10.4537 0-15.68 0 0-10.78 0-21.56 0-32.34-11.1112.1637-22.2186 0-33.32-.49 27.1333-24.2256 37.7496-54.4419 31.85-90.65-4.7775-22.1333-15.7202-40.5906-32.83-55.37-7.3716-6.2289-14.8852-12.2725-22.54-18.13-12.6489 9.5403-24.5725 19.994-35.77 31.36-21.3464 28.2142-26.5727 59.2479-15.68 93.1 5.8281 15.7604 15.1381 28.9904 27.93 39.69-11.1014.49-22.2088.6537-33.32.49 0 10.78 0 21.56 0 32.34-5.2263 0-10.4537 0-15.68 0 0-10.78 0-21.56 0-32.34-13.3937 0-26.7863 0-40.18 0 0-10.78 0-21.56 0-32.34-7.84 0-15.68 0-23.52 0 6.0388-37.3605 10.2851-74.9269 12.74-112.7 11.76 0 23.52 0 35.28 0 0-10.78 0-21.56 0-32.34Zm87.22 35.28c35.6514 23.4818 47.5741 55.8218 35.77 97.02-5.4008 13.7465-13.8944 25.1801-25.48 34.3-.49-20.9044-.6537-41.8107-.49-62.72-5.88 0-11.76 0-17.64 0 .1637 20.9093 0 41.8156-.49 62.72-28.9717-25.0684-37.1381-55.7747-24.5-92.12 2.4431-5.5439 5.3831-10.7702 8.82-15.68 7.251-8.722 15.2537-16.562 24.01-23.52ZM116.23 373.97c2.94 0 5.88 0 8.82 0 0 10.78 0 21.56 0 32.34 13.72 0 27.44 0 41.16 0 0 5.2263 0 10.4537 0 15.68-19.9263 0-39.8537 0-59.78 0 3.2673-16.0093 6.5337-32.0156 9.8-48.02Zm269.5 0c3.4594-.5008 6.5621.1529 9.31 1.96 3.0439 15.3821 6.1475 30.7357 9.31 46.06-19.9263 0-39.8537 0-59.78 0 0-5.2263 0-10.4537 0-15.68 13.72 0 27.44 0 41.16 0 0-10.78 0-21.56 0-32.34ZM215.21 406.31c12.4176-.1637 24.8312 0 37.24.49 1.96 3.2663 3.92 3.2663 5.88 0 12.4088-.49 24.8224-.6537 37.24-.49 0 5.2263 0 10.4537 0 15.68-26.7863 0-53.5737 0-80.36 0 0-5.2263 0-10.4537 0-15.68Zm-112.7 32.34c101.921-.1637 203.841 0 305.76.49 1.6866 4.949 2.9929 10.0127 3.92 15.19-104.5337 0-209.0663 0-313.6 0 1.0045-5.3243 2.3111-10.5517 3.92-15.68ZM246.57 283.81c5.88 0 11.76 0 17.64 0 0 5.88 0 11.76 0 17.64-5.88 0-11.76 0-17.64 0 0-5.88 0-11.76 0-17.64Z" stroke="#44739e" stroke-width="4" fill="none"/>
</svg>