<svg xmlns="http://www.w3.org/2000/svg" viewBox="0 0 512 512">
	<path d="M243.53 4.51C248.1037 4.51 252.6763 4.51 257.25 4.51 275.4055 13.7557 279.1618 27.1491 268.52 44.69 265.2262 47.4784 261.6326 49.7651 257.74 51.55 257.25 75.0677 257.0863 98.5877 257.25 122.11 264.1178 121.9473 270.9778 122.11 277.83 122.6 279.7822 123.1625 281.2522 124.3062 282.24 126.03 282.73 132.5548 282.8927 139.0885 282.73 145.63 297.1742 145.189 311.5469 145.679 325.85 147.1 337.2758 151.9941 343.3195 160.6505 343.98 173.07 344.9316 227.6501 344.6043 282.2038 343 336.73 339.4759 347.1141 332.4532 353.8104 321.93 356.82 310.8286 357.31 299.7212 357.4737 288.61 357.31 290.7748 370.1519 285.5485 377.8292 272.93 380.34 267.7135 380.829 262.4871 380.9927 257.25 380.83 257.25 388.9963 257.25 397.1637 257.25 405.33 269.8734 408.6483 277.2234 416.8146 279.3 429.83 279.7665 454.3369 279.4401 478.8369 278.32 503.33 277.2959 504.1855 276.4796 505.1655 275.87 506.27 258.5563 506.27 241.2437 506.27 223.93 506.27 222.9461 505.1107 222.1288 503.8043 221.48 502.35 220.8263 477.85 220.8263 453.35 221.48 428.85 223.9888 416.3805 231.3388 408.5405 243.53 405.33 243.53 397.1637 243.53 388.9963 243.53 380.83 238.2929 380.9927 233.0665 380.829 227.85 380.34 215.2315 377.8292 210.0052 370.1519 212.17 357.31 201.0588 357.4737 189.9514 357.31 178.85 356.82 168.3268 353.8104 161.3041 347.1141 157.78 336.73 156.1748 281.8774 155.8484 226.9974 156.8 172.09 157.9201 160.1899 163.9628 151.8599 174.93 147.1 189.2331 145.679 203.6058 145.189 218.05 145.63 217.8873 139.0885 218.05 132.5548 218.54 126.03 219.5278 124.3062 220.9978 123.1625 222.95 122.6 229.8022 122.11 236.6622 121.9473 243.53 122.11 243.6937 98.5877 243.53 75.0677 243.04 51.55 226.5574 43.3977 222.311 30.9843 230.3 14.31 233.8074 9.6361 238.2174 6.3694 243.53 4.51ZM246.47 18.23C257.3803 17.5351 261.7903 22.4351 259.7 32.93 250.6272 41.507 243.9308 39.8737 239.61 28.03 240.4744 23.6631 242.7607 20.3965 246.47 18.23ZM231.77 135.83C244.1837 135.83 256.5963 135.83 269.01 135.83 269.01 139.0963 269.01 142.3637 269.01 145.63 256.5963 145.63 244.1837 145.63 231.77 145.63 231.77 142.3637 231.77 139.0963 231.77 135.83ZM180.81 159.35C185.7531 159.0295 190.6531 159.3559 195.51 160.33 193.3334 164.2902 192.1898 168.5365 192.08 173.07 191.4263 225.3363 191.4263 277.6037 192.08 329.87 192.1898 334.4035 193.3334 338.6498 195.51 342.61 189.1135 344.1604 182.9072 343.6704 176.89 341.14 173.3698 338.1843 171.2472 334.428 170.52 329.87 169.8663 277.6037 169.8663 225.3363 170.52 173.07 171.5833 166.6294 175.0133 162.0558 180.81 159.35ZM216.09 159.35C238.9593 159.1863 261.8256 159.35 284.69 159.84 289.1 161.6363 292.2037 164.74 294 169.15 295.1231 196.5518 295.6131 223.9918 295.47 251.47 295.6131 278.9482 295.1231 306.3882 294 333.79 292.1115 338.6194 288.6815 341.7221 283.71 343.1 274.8959 343.59 266.0759 343.7527 257.25 343.59 257.0873 337.3748 257.25 331.1685 257.74 324.97 273.2318 318.4873 279.1118 307.0536 275.38 290.67 270.7671 280.0145 264.3971 270.5408 256.27 262.25 252.35 258.33 248.43 258.33 244.51 262.25 236.3829 270.5408 230.0129 280.0145 225.4 290.67 221.6682 307.0536 227.5482 318.4873 243.04 324.97 243.53 331.1685 243.6927 337.3748 243.53 343.59 233.6516 344.0045 223.8516 343.5145 214.13 342.12 209.0066 339.23 206.2302 334.82 205.8 328.89 205.1463 276.95 205.1463 225.01 205.8 173.07 206.8633 166.6294 210.2933 162.0558 216.09 159.35ZM305.27 159.35C310.1808 159.1873 315.0808 159.351 319.97 159.84 325.9637 162.242 329.3937 166.652 330.26 173.07 330.9137 225.3363 330.9137 277.6037 330.26 329.87 328.3157 339.8141 322.272 344.3867 312.13 343.59 309.8437 343.2637 307.5563 342.9363 305.27 342.61 307.4466 338.6498 308.5902 334.4035 308.7 329.87 309.3537 277.6037 309.3537 225.3363 308.7 173.07 308.4511 168.2455 307.3074 163.6728 305.27 159.35ZM249.41 276.95C256.1945 282.9848 260.7672 290.4975 263.13 299.49 260.4301 310.4748 253.8974 313.9048 243.53 309.78 236.6945 303.8706 235.8772 297.1743 241.08 289.69 244.1004 285.5407 246.8777 281.2943 249.41 276.95ZM225.89 357.31C242.2237 357.31 258.5563 357.31 274.89 357.31 275.0507 359.9433 274.8871 362.5569 274.4 365.15 273.665 365.7635 272.8477 366.2535 271.95 366.62 257.5763 367.2737 243.2037 367.2737 228.83 366.62 227.9323 366.2535 227.115 365.7635 226.38 365.15 225.8929 362.5569 225.7293 359.9433 225.89 357.31ZM246.47 418.07C254.9646 416.9508 261.0083 420.2182 264.6 427.87 265.679 435.8158 266.169 443.8185 266.07 451.88 265.728 465.4383 265.4007 478.9946 265.09 492.55 254.9637 492.55 244.8363 492.55 234.71 492.55 234.5463 471.9671 234.71 451.3871 235.2 430.81 236.7484 424.5292 240.5057 420.2828 246.47 418.07Z" stroke="#44739e" stroke-width="4" fill="none"/>
</svg>