<svg xmlns="http://www.w3.org/2000/svg" viewBox="0 0 512 512">
	<path d="M225.01 4.51c20.2537 0 40.5063 0 60.76 0 4.2248 2.1038 7.3284 5.3704 9.31 9.8 1.3681 7.4288 1.8581 14.9421 1.47 22.54 7.3392.3072 12.4029 3.9005 15.19 10.78.7899 9.1936.6272 18.3402-.49 27.44 62.8807 51.6058 125.9271 103.0558 189.14 154.35 2.207 2.6813 4.167 5.4576 5.88 8.33 0 4.2463 0 8.4937 0 12.74-6.4082 12.1785-16.5346 16.5885-30.38 13.23-9.4129-3.1919-17.5792-8.4192-24.5-15.68-18.6171-.49-37.2371-.6537-55.86-.49 16.0063 86.24 32.0137 172.48 48.02 258.72-16.66 0-33.32 0-49.98 0-2.6881-15.729-5.6281-31.409-8.82-47.04-86.24-1.3063-172.48-1.3063-258.72 0-3.1919 15.631-6.1319 31.311-8.82 47.04-16.66 0-33.32 0-49.98 0 16.0066-86.24 32.0134-172.48 48.02-258.72-18.6228-.1637-37.2428 0-55.86.49-6.9206 7.2608-15.0872 12.4881-24.5 15.68-13.8452 3.3585-23.9719-1.0515-30.38-13.23 0-4.2463 0-8.4937 0-12.74 1.7131-2.8724 3.6731-5.6487 5.88-8.33C73.603 178.1258 136.6493 126.6758 199.53 75.07c-1.1172-9.0998-1.2799-18.2464-.49-27.44 2.7871-6.8795 7.8508-10.4728 15.19-10.78-.1627-6.5415 0-13.0749.49-19.6 1.5033-5.9026 4.9333-10.1492 10.29-12.74Zm6.86 16.66c15.68 0 31.36 0 47.04 0 0 5.2266 0 10.4534 0 15.68-15.68 0-31.36 0-47.04 0 0-5.2266 0-10.4534 0-15.68ZM215.21 53.51c26.7863 0 53.5737 0 80.36 0 0 5.2266 0 10.4534 0 15.68-26.7863 0-53.5737 0-80.36 0 0-5.2266 0-10.4534 0-15.68Zm-.98 32.34c5.5625-.1628 11.1161.0006 16.66.49C165.5995 138.8886 100.5923 191.8086 35.87 245.1c-4.7027 1.713-9.4394 1.8767-14.21.49-.6534-.6537-.6534-1.3063 0-1.96C86.009 191.1353 150.1988 138.5417 214.23 85.85Zm65.66.98c5.3753-1.1287 10.928-1.292 16.66-.49 64.2802 52.3124 128.4702 104.7424 192.57 157.29.6537.6537.6537 1.3063 0 1.96-4.7706 1.3867-9.507 1.223-14.21-.49-64.6183-53.359-129.6246-106.1164-195.02-158.27Zm-25.48 1.96c2.0531.8938 4.0131 2.0371 5.88 3.43 43.12 35.28 86.24 70.56 129.36 105.84-89.5063.6537-179.0137.6537-268.52 0 44.6753-36.2071 89.1026-72.6307 133.28-109.27ZM99.57 215.21c103.881-.1637 207.761 0 311.64.49 6.2063 4.9 12.4137 9.8 18.62 14.7-116.2937.6537-232.5863.6537-348.88 0 6.3918-4.9304 12.5984-9.9931 18.62-15.19Zm33.32 32.34c4.9 0 9.8 0 14.7 0-14.7745 80.7344-29.8018 161.4207-45.08 242.06-4.9 0-9.8 0-14.7 0 15.1322-80.6658 30.1585-161.3531 45.08-242.06Zm32.34 0c8.1732-.1627 16.3395 0 24.5.49-3.1977 4.2728-5.4841 9.0091-6.86 14.21-6.8365 1.1407-13.6965 1.3044-20.58.49 1.2887-4.9755 2.2687-10.0391 2.94-15.19Zm54.88 0c23.522-.1637 47.042 0 70.56.49 16.0465 4.4551 22.9065 15.0714 20.58 31.85 13.3937 0 26.7863 0 40.18 0 6.0054 31.9892 11.8854 64.0028 17.64 96.04-19.2737 0-38.5463 0-57.82 0 2.5333 13.5407-2.0394 23.667-13.72 30.38-.979-10.1058-1.3054-20.2321-.98-30.38-10.78 0-21.56 0-32.34 0-.3224-5.5919.0049-11.1446.98-16.66 24.157-9.1111 34.1207-26.4247 29.89-51.94-1.4994-5.2842-3.7857-10.1842-6.86-14.7-10.438-11.5816-21.3816-22.688-32.83-33.32-11.4484 10.632-22.392 21.7384-32.83 33.32-13.0203 22-10.2439 41.7637 8.33 59.29 4.6266 2.9665 9.5266 5.4165 14.7 7.35.9751 5.5154 1.3024 11.0681.98 16.66-10.78 0-21.56 0-32.34 0 .3254 10.1479-.001 20.2742-.98 30.38-11.6806-6.713-16.2533-16.8393-13.72-30.38-19.2737 0-38.5463 0-57.82 0 5.7546-32.0372 11.6346-64.0508 17.64-96.04 13.3937 0 26.7863 0 40.18 0-2.2236-16.8237 4.6364-27.6037 20.58-32.34Zm100.94.98c7.987-.9731 16.1533-1.2995 24.5-.98.6713 5.1509 1.6513 10.2145 2.94 15.19-6.8835.8144-13.7435.6507-20.58-.49-1.2838-5.1803-3.5701-9.7539-6.86-13.72Zm42.14-.98c4.9 0 9.8 0 14.7 0 14.9215 80.7069 29.9478 161.3942 45.08 242.06-4.9 0-9.8 0-14.7 0-15.2782-80.6393-30.3055-161.3256-45.08-242.06ZM254.41 284.79c7.0991 5.6232 13.7955 11.8306 20.09 18.62 8.0448 14.7549 5.2685 27.0049-8.33 36.75-16.415 5.7301-27.685.3401-33.81-16.17-1.4269-7.3941-.1205-14.2541 3.92-20.58 6.2416-6.078 12.2853-12.2843 18.13-18.62ZM137.79 393.57c15.041-.3263 30.0674.001 45.08.98 1.5886 4.4463 3.5486 8.6936 5.88 12.74-17.6282.98-35.2682 1.3063-52.92.98.5468-4.9157 1.2005-9.8157 1.96-14.7Zm94.08 0c15.68 0 31.36 0 47.04 0 0 4.9 0 9.8 0 14.7-15.68 0-31.36 0-47.04 0 0-4.9 0-9.8 0-14.7Zm96.04 0c15.0263 0 30.0537 0 45.08 0 .7595 4.8843 1.4132 9.7843 1.96 14.7-17.6518.3263-35.2918 0-52.92-.98 2.5304-4.3218 4.4904-8.8955 5.88-13.72Zm-196 32.34c82.32 0 164.64 0 246.96 0 .6145 4.8363 1.5945 9.5726 2.94 14.21-84.28.6537-168.56.6537-252.84 0 1.3455-4.6374 2.3255-9.3737 2.94-14.21Zm352.8-153.86c4.1483 4.1621 7.741 8.8994 10.78 14.21-16.3444 11.5807-33.0044 22.3607-49.98 32.34-3.7377-4.3404-6.515-9.0768-8.33-14.21 16.0181-10.6457 31.8608-21.4257 47.53-32.34Zm-460.6.98c1.7722-.0088 3.4056.4812 4.9 1.47 14.7789 10.0852 29.6423 20.0479 44.59 29.89-1.8153 5.1332-4.592 9.8696-8.33 14.21-1.3796.3087-2.6863-.0176-3.92-.98-15.5231-10.2106-30.8765-20.6643-46.06-31.36 3.1576-4.2944 6.0976-8.7044 8.82-13.23ZM4.51 327.91c21.8866 0 43.7734 0 65.66 0 0 5.5537 0 11.1063 0 16.66-21.8866 0-43.7734 0-65.66 0 0-5.5537 0-11.1063 0-16.66Zm501.76 0c0 5.5537 0 11.1063 0 16.66-21.8863 0-43.7737 0-65.66 0 0-5.5537 0-11.1063 0-16.66 21.8863 0 43.7737 0 65.66 0ZM63.31 353.39c1.4871.0108 2.6304.6635 3.43 1.96 1.7169 3.1086 3.6769 6.0486 5.88 8.82.9623 1.2338 1.2889 2.5402.98 3.92-16.0066 10.78-32.0134 21.56-48.02 32.34-3.5037-4.4815-6.6071-9.2189-9.31-14.21.3266-.49.6534-.98.98-1.47 15.5877-10.2332 30.941-20.6868 46.06-31.36Zm382.2 0c16.9393 10.436 33.5993 21.3787 49.98 32.83-3.1458 4.8216-6.4121 9.5589-9.8 14.21-16.2543-10.6585-32.4243-21.4385-48.51-32.34 2.2138-5.0666 4.9911-9.9666 8.33-14.7Z" stroke="#44739e" stroke-width="4" fill="none"/>
</svg>