<svg xmlns="http://www.w3.org/2000/svg" viewBox="0 0 512 512">
	<path d="M248.53 17.25c23.9669-1.5105 37.6869 9.5962 41.16 33.32-.4733 11.0731-4.8833 20.2198-13.23 27.44-.6537.6534-.6537 1.3066 0 1.96 24.4461 12.7136 45.0261 30.0272 61.74 51.94 4.1738 7.0452 7.2775 14.5589 9.31 22.54 20.4536.684 30.0899 11.1377 28.91 31.36-3.0449 9.9058-9.5785 16.1122-19.6 18.62-.49 58.799-.6537 117.599-.49 176.4 10.4938 1.5082 17.1912 7.3882 20.09 17.64 1.8747 21.0749-7.7616 31.2012-28.91 30.38-1.9355 10.4037-6.0192 19.8773-12.25 28.42-3.2663 3.92-6.5337 7.84-9.8 11.76-18.8033 20.6976-42.1596 28.8639-70.07 24.5-26.5198 4.2797-49.0598-3.0703-67.62-22.05-12.5136-11.7012-20.6809-25.9112-24.5-42.63-21.1925.8575-30.8298-9.2698-28.91-30.38 2.8988-10.2518 9.5962-16.1318 20.09-17.64.1637-58.801 0-117.601-.49-176.4-17.6606-6.2504-23.5406-18.3368-17.64-36.26 6.4611-9.3561 15.4438-13.9297 26.95-13.72 5.146-18.7151 15.2733-34.2314 30.38-46.55 12.7488-10.4581 26.3052-19.7681 40.67-27.93.6537-.6534.6537-1.3066 0-1.96-17.7733-18.2819-17.6096-36.4119.49-54.39 4.4433-2.614 9.016-4.7373 13.72-6.37Zm2.94 14.7c13.277-.2771 21.117 6.0929 23.52 19.11-4.1454 16.9355-14.2717 22.1621-30.38 15.68-11.76-10.4534-11.76-20.9066 0-31.36 2.3765-1.1883 4.6638-2.3317 6.86-3.43Zm2.94 53.9c26.2885 11.7578 48.9922 28.418 68.11 49.98 4.4257 5.9114 7.5293 12.444 9.31 19.6-50.96 0-101.92 0-152.88 0 1.7807-7.156 4.8843-13.6886 9.31-19.6 12.8017-15.0949 27.6654-27.6713 44.59-37.73 7.351-3.9497 14.5373-8.0331 21.56-12.25Zm-98.98 84.28c66.641-.1637 133.281 0 199.92.49 9.1463 6.2063 9.1463 12.4137 0 18.62-66.64.6537-133.28.6537-199.92 0-9.0934-6.3671-9.0934-12.7371 0-19.11Zm14.7 34.3c56.84 0 113.68 0 170.52 0 0 58.4737 0 116.9463 0 175.42-16.9903.1637-33.9766 0-50.96-.49 10.2322-11.0975 13.6622-24.0012 10.29-38.71-3.7887-5.7369-9.1787-8.8406-16.17-9.31-7.5431-2.9861-11.7894-8.5397-12.74-16.66 1.3877-6.3641 2.694-12.7341 3.92-19.11-1.2975-11.4601-7.8312-17.0138-19.6-16.66-7.4735-.0186-14.0071 2.4314-19.6 7.35-18.9228 19.8489-27.5801 43.5326-25.97 71.05 1.5641 8.5201 5.3214 15.8701 11.27 22.05-16.9834.49-33.9697.6537-50.96.49 0-58.4737 0-116.9463 0-175.42Zm82.32 89.18c2.9224-.3881 5.536.2656 7.84 1.96-7.548 18.3113-3.9553 33.8286 10.78 46.55 4.5874 2.6725 9.4874 4.4688 14.7 5.39.9888 11.9472-3.5839 21.2572-13.72 27.93-19.5236 8.8445-34.7136 4.1072-45.57-14.21-2.2491-6.3671-2.9018-12.9007-1.96-19.6 2.7038-14.3315 8.2575-27.3979 16.66-39.2 3.1193-3.9572 6.8757-6.8972 11.27-8.82ZM157.39 394.55c65.3337-.1637 130.6673 0 196 .49 8.4682 2.8606 10.5909 8.2506 6.37 16.17-.8849 1.177-2.0276 1.9943-3.43 2.45-67.2937.6537-134.5863.6537-201.88 0-5.5556-3.4418-7.0256-8.1791-4.41-14.21 2.1266-2.2765 4.5766-3.9102 7.35-4.9Zm21.56 34.3c50.96 0 101.92 0 152.88 0-1.6738 8.574-5.4302 16.0877-11.27 22.54-7.0854 8.3594-15.0891 15.7094-24.01 22.05-4.6374 2.4167-9.5374 4.0503-14.7 4.9-17.64.6537-35.28.6537-52.92 0-11.1034-2.2863-20.5771-7.5127-28.42-15.68-6.4592-6.4553-12.1755-13.4779-17.15-21.07-2.1629-4.0415-3.6329-8.2879-4.41-12.74ZM53.51 170.13c2.3097-.1597 4.5964.0029 6.86.49 8.6566 8.6563 17.3134 17.3137 25.97 25.97 2.759 6.5689.6357 10.4889-6.37 11.76-2.2454-.1196-4.2054-.9359-5.88-2.45-7.6766-7.6763-15.3534-15.3537-23.03-23.03-2.4825-5.046-1.6659-9.2924 2.45-12.74Zm396.9 0c9.7814-.6997 12.885 3.5466 9.31 12.74-7.6763 7.6763-15.3537 15.3537-23.03 23.03-6.7718 4.3228-11.3455 2.6891-13.72-4.9.1225-1.5945.6125-3.0645 1.47-4.41 8.8553-8.6906 17.5116-17.5106 25.97-26.46ZM24.11 247.55c12.7994-.4136 25.5394.0764 38.22 1.47 3.92 4.2463 3.92 8.4937 0 12.74-14.0466 1.96-28.0934 1.96-42.14 0-3.92-4.2463-3.92-8.4937 0-12.74 1.5269-.2058 2.8337-.6958 3.92-1.47Zm428.26 0c12.7998-.4136 25.5398.0764 38.22 1.47 3.92 4.2463 3.92 8.4937 0 12.74-14.0463 1.96-28.0937 1.96-42.14 0-3.92-4.2463-3.92-8.4937 0-12.74 1.5268-.2058 2.8332-.6958 3.92-1.47ZM78.01 302.43c9.1165-.0794 11.8932 4.167 8.33 12.74-8.0034 8.0037-16.0066 16.0063-24.01 24.01-5.3117 2.7989-9.3951 1.6552-12.25-3.43-.6922-2.4216-.3655-4.7089.98-6.86 8.8806-9.0454 17.8638-17.8654 26.95-26.46Zm348.88 0c2.7636-.247 5.3763.243 7.84 1.47 8.33 8.33 16.66 16.66 24.99 24.99 2.3197 4.409 1.5023 8.1654-2.45 11.27-3.0713.7742-6.0113.4479-8.82-.98-8.0037-8.0037-16.0063-16.0063-24.01-24.01-2.4823-5.046-1.666-9.2924 2.45-12.74Z" stroke="#44739e" stroke-width="4" fill="none"/>
</svg>