<svg xmlns="http://www.w3.org/2000/svg" viewBox="0 0 512 512">
	<path d="M432.77 4.51c1.96 0 3.92 0 5.88 0 11.9795 3.9609 18.0222 12.4542 18.13 25.48 8.3006-8.4054 17.9369-10.5286 28.91-6.37 6.3328 4.3336 9.4354 10.3769 9.31 18.13 5.3047 2.5266 9.0621 6.4466 11.27 11.76 0 4.2466 0 8.4934 0 12.74-4.1944 6.9679-10.0744 12.0312-17.64 15.19 4.0503 3.0685 7.8067 6.4985 11.27 10.29 5.587 10.1597 4.117 19.1433-4.41 26.95-2.107 1.3828-4.3943 2.2001-6.86 2.45-3.4594 15.4595-12.9331 20.8495-28.42 16.17-4.3522-2.3932-8.1085-5.4958-11.27-9.31-2.0031 4.9882-4.2895 9.8882-6.86 14.7-10.6889 9.4364-20.9789 8.9464-30.87-1.47-7.5754.4136-14.2717-1.7091-20.09-6.37-.98-1.6337-1.96-3.2663-2.94-4.9-3.2663 2.6137-6.5337 5.2263-9.8 7.84-2.8743 7.154-5.6507 14.3403-8.33 21.56 1.3063 6.5337 1.3063 13.0663 0 19.6.3263.6537.6537 1.3063.98 1.96 9.8088-3.6133 18.7915-2.3069 26.95 3.92 4.3306 6.2779 5.4743 13.1379 3.43 20.58 9.851 21.9285 2.6646 33.8512-21.56 35.77 7.5744 8.8523 9.0444 18.4887 4.41 28.91-4.8853 6.0437-11.2553 8.9837-19.11 8.82-6.9668 10.0215-16.1141 12.4715-27.44 7.35-5.4057-4.7677-9.4893-10.484-12.25-17.15-4.5433 8.1507-11.4033 12.7243-20.58 13.72-10.1018-.6301-16.3082-5.8565-18.62-15.68-.7105-.5478-1.5268-.8742-2.45-.98-22.7007 8.7641-45.2407 17.9115-67.62 27.44 18.7915 10.2136 37.7388 20.1762 56.84 29.89 4.7834 4.2875 5.1107 8.8612.98 13.72-2.4794 1.3936-5.0931 1.7199-7.84.98-24.3461-12.9899-48.8461-25.7299-73.5-38.22-3.7015-2.8959-4.8441-6.6522-3.43-11.27 1.6964-2.0747 3.82-3.5447 6.37-4.41 24.5392-9.8676 49.0392-19.8313 73.5-29.89-1.1446-11.3905 3.1027-20.3732 12.74-26.95-4.165-2.3265-8.2477-4.7765-12.25-7.35-12.5822 3.5133-25.1586 7.107-37.73 10.78-1.8787 4.655-4.9823 8.2487-9.31 10.78-1.3965 16.1053-10.0538 23.128-25.97 21.07-4.4002-1.6768-8.6475-3.3104-12.74-4.9-.5939 6.3582-2.3902 12.4019-5.39 18.13-9.4795 8.771-19.2795 9.0973-29.4.98-4.4237 1.3152-8.8337 1.8052-13.23 1.47-39.5561 38.5767-79.4095 76.7967-119.56 114.66-4.9296 2.1119-8.8496.9682-11.76-3.43 0-2.2863 0-4.5737 0-6.86 38.8448-38.3533 78.2082-76.2469 118.09-113.68.0265-3.5603-.1362-7.154-.49-10.78-.0853-4.0562.5684-7.9762 1.96-11.76-6.4121.0304-12.9458-.1333-19.6-.49-11.7923-6.1652-15.0591-15.3115-9.8-27.44-8.144-10.6046-7.164-20.4046 2.94-29.4 3.4679-1.4739 7.0609-1.8003 10.78-.98 3.9523 3.1046 4.7697 6.861 2.45 11.27-2.0325 1.913-4.1562 3.7093-6.37 5.39 2.1237 3.43 4.9 6.2063 8.33 8.33.6537 2.6137.6537 5.2263 0 7.84-7.9458 8.7318-5.8222 11.8355 6.37 9.31 7.5715-2.3148 14.4315-5.9084 20.58-10.78 9.1032-2.2442 12.8596 1.1858 11.27 10.29-6.908 8.1007-11.318 17.4107-13.23 27.93 1.8297 5.5811 4.7697 5.9074 8.82.98 3.2663-1.96 6.5337-1.96 9.8 0 1.7219 2.7891 3.6819 5.4018 5.88 7.84 1.2583.6703 2.402.5067 3.43-.49 1.1917-3.6721 2.008-7.4284 2.45-11.27-.8575-8.0027-2.4912-15.8427-4.9-23.52 1.4622-6.2896 5.3822-8.576 11.76-6.86 4.4992 6.4631 9.7255 12.3431 15.68 17.64 3.8828 2.5127 7.9664 4.6364 12.25 6.37 1.6415-1.0731 2.7852-2.5431 3.43-4.41-3.2771-4.3728-3.4408-8.7828-.49-13.23 14.2659-3.2281 14.7559-7.6381 1.47-13.23-6.9796-2.1903-14.0032-3.0076-21.07-2.45-9.0111-2.9263-10.4811-7.989-4.41-15.19 8.5926-2.01 16.4326-5.6036 23.52-10.78 2.7283-2.0698 4.6883-4.6834 5.88-7.84-.3136-1.6199-1.2936-2.5999-2.94-2.94-10.779 1.3054-15.189-3.431-13.23-14.21-1.0555-3.2232-2.8518-3.7132-5.39-1.47-8.3231 7.6538-14.0395 16.9638-17.15 27.93-4.8549 4.0935-9.4276 3.7661-13.72-.98-.1744-7.89-.8271-15.73-1.96-23.52-.9692-4.7158-3.0929-8.7994-6.37-12.25-1.4661-.4969-2.6097-.0069-3.43 1.47-1.0633 3.8681-2.8606 7.2981-5.39 10.29-5.0156.39-9.9156.0637-14.7-.98-1.0545 1.6915-1.2181 3.4878-.49 5.39 1.2034 3.4878 2.8361 6.7542 4.9 9.8 5.5537 5.5537 11.1063 11.1063 16.66 16.66.1352 8.6877-3.9484 11.7904-12.25 9.31-10.4723-7.5372-18.4759-17.1735-24.01-28.91-4.7275-18.3289 2.2952-28.1289 21.07-29.4 7.3735-9.1767 16.5199-11.3004 27.44-6.37 5.1087 4.8265 8.8651 10.5438 11.27 17.15 3.8906-4.8755 8.6269-8.6328 14.21-11.27 13.8494-2.7264 22.342 2.6636 25.48 16.17 9.9029 1.9051 15.1302 7.9488 15.68 18.13-1.3436 9.2159-5.9163 16.4023-13.72 21.56 6.7679 2.646 12.8106 6.4023 18.13 11.27 10.2047-2.9998 20.4947-5.6134 30.87-7.84-.196-7.448 2.744-13.328 8.82-17.64 1.6072-18.9071 11.4072-25.9308 29.4-21.07 2.7724 1.2221 5.3851 2.6921 7.84 4.41.6782-9.4129 4.2718-17.4166 10.78-24.01 2.793-1.1476 5.5703-2.2912 8.33-3.43 4.9-9.8 9.8-19.6 14.7-29.4 8.9837-5.7163 17.9663-11.4337 26.95-17.15-6.5033-8.623-6.5033-17.2798 0-25.97-4.8392-9.8779-3.2066-18.5346 4.9-25.97 1.5553-.8452 3.1889-1.4985 4.9-1.96 5.8712-.4895 11.7512-.6529 17.64-.49-1.6797-6.439-2.1697-12.9724-1.47-19.6 4.6423-11.7947 13.1359-16.0413 25.48-12.74 3.6642-3.2158 7.7469-5.5025 12.25-6.86Zm1.96 15.68c3.4545 1.3226 5.2508 3.936 5.39 7.84 1.0976 9.3276.2803 18.4743-2.45 27.44 2.0021 6.7068 6.2495 8.8302 12.74 6.37 4.4815-7.0989 9.7089-13.6323 15.68-19.6 3.2144-2.2415 6.6444-4.0381 10.29-5.39 1.9081.533 2.7244 1.8397 2.45 3.92-1.8395 3.9341-2.0021 7.8541-.49 11.76 3.477 2.1741 7.2344 3.8075 11.27 4.9.7713.7273 1.4239 1.5439 1.96 2.45-5.3773 5.6302-11.9109 9.2235-19.6 10.78-4.8706.8679-9.7706 1.5213-14.7 1.96-4.7834 4.2877-5.1107 8.8611-.98 13.72 11.9246 1.8967 22.2146 6.9601 30.87 15.19.6968 1.8297.2068 3.2997-1.47 4.41-2.6137.3263-5.2263.6537-7.84.98-1.7924.2675-3.2624 1.0849-4.41 2.45-1.1976 4.2189-1.6876 8.4662-1.47 12.74-.7272.7713-1.5435 1.4239-2.45 1.96-4.8216-2.8577-9.0679-6.4504-12.74-10.78-3.9416-5.9221-7.3716-12.1293-10.29-18.62-2.8792-1.0533-5.8192-1.2167-8.82-.49-1.7963.49-2.94 1.6334-3.43 3.43-.6782 4.7645-.5145 9.5011.49 14.21-.342 7.4098-2.1384 14.4334-5.39 21.07-1.8992 1.3328-3.5319 1.0065-4.9-.98-2.9135-10.2165-8.9562-12.5038-18.13-6.86-1.8591-.2234-3.1654-1.2034-3.92-2.94 3.8524-11.2063 10.5497-20.3532 20.09-27.44 2.5157-6.8231.2293-11.0697-6.86-12.74-9.9509 5.3875-20.5673 7.5108-31.85 6.37-4.3002-.9769-4.9529-3.1002-1.96-6.37 5.4488-2.5854 7.2451-6.8321 5.39-12.74-2.0021-1.6738-3.6358-3.6338-4.9-5.88-.6703-1.2582-.5067-2.4015.49-3.43 1.3446-.3937 2.6509-.8837 3.92-1.47 10.1616 1.3252 19.308 5.0818 27.44 11.27 8.4437 1.6829 12.2-1.7471 11.27-10.29-5.0127-5.6688-9.259-11.8754-12.74-18.62-1.9228-4.4154-2.5764-8.9888-1.96-13.72.8751-.5698 1.8551-.8965 2.94-.98 2.3324.6867 4.4561 1.8301 6.37 3.43 2.6137.6534 5.2263.6534 7.84 0 2.4157-3.0452 4.702-6.1485 6.86-9.31Zm-47.04 84.28c1.665-.1568 3.2987.0059 4.9.49-8.9837 7.6763-17.9663 15.3537-26.95 23.03-2.8724 6.4935-5.6487 13.0262-8.33 19.6-4.4894.6615-8.8994 1.6415-13.23 2.94-.49-.3263-.98-.6537-1.47-.98 3.7563-7.5137 7.5137-15.0263 11.27-22.54 11.418-7.4147 22.688-14.9283 33.81-22.54Zm-59.78 56.84c1.3455-.1539 2.6529.0098 3.92.49 2.2364 4.0366 5.5037 6.813 9.8 8.33 3.7024-1.0339 6.9688-2.8302 9.8-5.39 1.2583-.6703 2.402-.5067 3.43.49.8957 5.4194.2421 10.6457-1.96 15.68-2.5255 6.0368-5.7918 11.5905-9.8 16.66-1.5896 9.1042 2.1668 12.5342 11.27 10.29 8.7034-8.5995 19.157-12.8468 31.36-12.74.5478.7105.8742 1.5268.98 2.45-2.3148 3.4584-3.9484 7.2157-4.9 11.27.1637 1.1437.3263 2.2863.49 3.43 2.8371 2.0658 5.4498 4.3522 7.84 6.86.6968 1.8297.2068 3.2997-1.47 4.41-11.5062 2.4549-22.7762 1.6386-33.81-2.45-7.1266 1.6033-9.2502 5.8496-6.37 12.74 10.4429 6.3573 18.2829 15.0136 23.52 25.97-.8634 1.4416-2.1697 2.2579-3.92 2.45-9.5873-4.4355-15.3037-1.4955-17.15 8.82-2.5794 2.6382-4.8667 2.3118-6.86-.98-5.6428-9.9842-8.2565-20.7642-7.84-32.34-4.214-4.8471-8.7877-5.1734-13.72-.98-2.2805 8.8014-5.8741 16.9687-10.78 24.5-2.009 2.3402-4.2963 4.3002-6.86 5.88-1.6199-.3136-2.5999-1.2936-2.94-2.94 1.2544-10.8329-3.4829-15.2429-14.21-13.23-1.3063-.6537-2.2863-1.6337-2.94-2.94 2.2364-4.5237 5.5037-8.1173 9.8-10.78 6.2534-3.5025 12.7861-6.4425 19.6-8.82 4.3375-5.3322 3.6838-9.9058-1.96-13.72-11.0034.7722-21.4571-1.1878-31.36-5.88-2.2511-1.2377-3.0674-3.0351-2.45-5.39 3.8759-1.4475 7.4696-3.4075 10.78-5.88 1.5611-4.3679 1.0711-8.6142-1.47-12.74.4528-1.7552 1.5964-2.7352 3.43-2.94 4.0729 1.1378 7.8292 2.9351 11.27 5.39 5.6291 4.9715 10.5291 10.5252 14.7 16.66 6.5297 2.6146 10.7771.492 12.74-6.37-3.0106-7.2138-4.6442-14.7265-4.9-22.54-.2489-4.8804.7311-9.4541 2.94-13.72ZM433.75 70.17c7.9772-.6804 11.4072 2.913 10.29 10.78-2.1815 4.2736-5.6115 5.7436-10.29 4.41-4.2738-2.1813-5.7438-5.6113-4.41-10.29 1.0045-2.1433 2.4745-3.7765 4.41-4.9ZM158.37 202.47c9.0924-1.1015 12.5224 2.8185 10.29 11.76-7.201 6.0711-12.2637 4.6011-15.19-4.41.8075-3.1095 2.4412-5.5595 4.9-7.35Zm173.46 7.84c7.3284.5919 10.1048 4.5119 8.33 11.76-.49 1.7963-1.6337 2.94-3.43 3.43-9.3463 1.4386-12.7763-2.3177-10.29-11.27 1.47-1.9296 3.2663-3.236 5.39-3.92ZM506.27 344.57c0 4.2463 0 8.4937 0 12.74-5.8143 10.5879-14.9607 15.3252-27.44 14.21 6.273 8.7318 7.4166 18.0418 3.43 27.93-4.8471 6.5964-11.2171 9.2091-19.11 7.84-7.9243 10.3713-17.7243 12.494-29.4 6.37-5.1087-4.8265-8.8651-10.5438-11.27-17.15-5.0676 6.8571-11.7639 10.7771-20.09 11.76-10.6193-1.1437-16.8256-7.0237-18.62-17.64-6.8061-.8712-11.5434-4.4639-14.21-10.78-13.1585 5.8428-26.3885 11.5601-39.69 17.15-2.2863.6537-4.5737.6537-6.86 0-36.0395-12.9576-71.9732-26.1876-107.8-39.69-2.4343 1.9433-4.7207 4.067-6.86 6.37 6.666 2.7607 12.3823 6.8443 17.15 12.25 4.5972 10.8633 2.1472 19.6833-7.35 26.46-1.3798 17.9987-10.8525 25.0223-28.42 21.07-3.2967-1.077-6.3994-2.547-9.31-4.41-.7301 6.8286-2.6901 13.3623-5.88 19.6-9.2581 8.8024-18.8954 9.1297-28.91.98-12.887 4.6756-21.8707.7556-26.95-11.76-.8555-6.1926-.3655-12.2363 1.47-18.13-5.144.636-10.3713 1.2897-15.68 1.96-29.5923 32.0401-59.6456 63.5638-90.16 94.57-1.3067 0-2.6133 0-3.92 0-2.1832-.8595-4.1432-2.1658-5.88-3.92 0-2.6137 0-5.2263 0-7.84 28.3876-29.8596 56.6442-59.9133 84.77-90.16-.8857-3.6044-1.3757-7.3618-1.47-11.27-.14-3.4643.5132-6.7306 1.96-9.8-8.3643-10.4301-7.7109-20.2301 1.96-29.4 5.9359-2.5705 12.1422-4.2032 18.62-4.9-8.9798-11.272-8.9798-22.3783 0-33.32 4.6491-3.0066 9.5491-4.1503 14.7-3.43 7.4754-11.3102 17.2754-13.7602 29.4-7.35 4.5305 4.6432 7.9605 10.0332 10.29 16.17 7.0315-11.4915 16.9952-15.2478 29.89-11.27 5.3577 3.3506 8.9513 8.087 10.78 14.21 9.6011 2.9008 15.1547 9.2708 16.66 19.11 34.7283 12.7733 69.5183 25.3506 104.37 37.73 13.8699-5.7134 27.7536-11.4297 41.65-17.15 1.9159-.9339 3.5496-2.2413 4.9-3.92-14.0777 1.7473-28.124 4.0337-42.14 6.86-2.6137.6537-5.2263.6537-7.84 0-10.0734-4.3835-19.8734-9.2835-29.4-14.7-3.7642-8.9974-.8242-13.2447 8.82-12.74 8.3437 4.3345 16.8374 8.4182 25.48 12.25 13.771-2.5911 27.491-5.3675 41.16-8.33-6.615-8.4309-7.105-17.0873-1.47-25.97 1.8581-1.9894 3.9817-3.6231 6.37-4.9 1.5043-15.0753 9.6706-22.099 24.5-21.07 5.0597 1.7954 9.7961 4.2454 14.21 7.35.4439-8.5309 3.5476-15.8809 9.31-22.05 9.5775-5.1871 18.5612-4.3708 26.95 2.45 15.4448-3.478 24.1011 2.5656 25.97 18.13-.1068 4.5041-.7595 8.9141-1.96 13.23 9.7922-2.4069 18.7758-.7732 26.95 4.9 4.8128 7.204 5.6301 14.8803 2.45 23.03 1.2025 2.252 2.5088 4.3757 3.92 6.37Zm-74.48-55.86c1.3455-.1539 2.6529.0098 3.92.49 1.7219 2.7891 3.6819 5.4018 5.88 7.84 4.4972 1.8159 8.4172.8359 11.76-2.94 1.9022-.7281 3.6985-.5645 5.39.49-.5478 11.8805-5.1215 22.0069-13.72 30.38-2.1452 6.4856.1421 10.732 6.86 12.74 6.5797-3.5349 13.2761-6.9649 20.09-10.29 3.8984-.9222 7.8184-1.7385 11.76-2.45 3.432.1166 4.902 1.7493 4.41 4.9-.9339 1.9159-2.2413 3.5496-3.92 4.9-1.96 3.2663-1.96 6.5337 0 9.8 3.1037 1.7963 5.5537 4.2463 7.35 7.35-.6537.6537-1.3063 1.3063-1.96 1.96-6.124 1.5053-12.3313 1.8326-18.62.98-5.3439-1.6729-10.7339-3.1429-16.17-4.41-3.2085-.195-5.4949 1.1113-6.86 3.92-.6537 2.6137-.6537 5.2263 0 7.84 8.6289 6.3396 15.4889 14.1796 20.58 23.52.4851 1.9335.6488 3.8935.49 5.88-5.1205-1.4092-10.3468-1.8992-15.68-1.47-2.6274 2.1501-4.0974 4.9265-4.41 8.33-1.2377 2.2511-3.0351 3.0674-5.39 2.45-3.0341-3.9465-5.1577-8.3565-6.37-13.23-1.1231-7.4627-1.7758-14.9764-1.96-22.54-.49-1.7963-1.6337-2.94-3.43-3.43-4.0092-1.2025-7.4392-.3861-10.29 2.45-3.0968 10.9339-8.8141 20.2439-17.15 27.93-1.8943.7673-3.3643.2773-4.41-1.47-.6968-2.351-.5331-4.6374.49-6.86-.6997-2.2648-1.6797-4.3884-2.94-6.37-4.5139-.8604-8.9239-2.0041-13.23-3.43-.6537-.98-.6537-1.96 0-2.94 8.1732-8.5799 18.1359-13.9699 29.89-16.17 3.5496-3.922 3.8769-8.1683.98-12.74-9.263-1.323-18.4093-3.283-27.44-5.88-3.5104-1.5876-6.4504-3.8739-8.82-6.86 2.4353-3.1781 5.7026-4.8108 9.8-4.9 4.5697-4.2258 5.2234-9.1258 1.96-14.7.1842-1.8444 1.1642-2.987 2.94-3.43 10.8878 5.1705 19.0541 13.1732 24.5 24.01 6.6728 2.8694 11.2465.9094 13.72-5.88-4.9941-12.0246-4.9941-23.9483 0-35.77ZM140.73 317.13c1.6111-.2097 3.0811.1176 4.41.98 5.8565 10.6114 8.4701 22.0451 7.84 34.3 4.2924 4.7461 8.8651 5.0735 13.72.98 2.302-10.3223 7.0384-19.305 14.21-26.95 1.7963-1.1437 3.5937-2.2863 5.39-3.43.6537.6537 1.3063 1.3063 1.96 1.96-1.4181 11.6483 3.6456 16.7119 15.19 15.19 1.0545 1.6915 1.2181 3.4878.49 5.39-7.8704 8.5946-17.5077 14.3109-28.91 17.15-1.8551 2.8587-2.3451 5.9623-1.47 9.31.8163 2.1237 2.2863 3.5937 4.41 4.41 9.4011-.2783 18.5485 1.028 27.44 3.92 3.0145.8928 5.3008 2.6891 6.86 5.39-.7967 1.2877-1.7767 2.4314-2.94 3.43-9.8764 1.9002-12.4901 7.4539-7.84 16.66.1637 2.45-.98 3.5937-3.43 3.43-11.5993-4.0807-20.5829-11.4307-26.95-22.05-6.4053-2.3883-10.6516-.2646-12.74 6.37 4.6913 10.7467 6.1613 21.853 4.41 33.32-.3606 1.3818-1.177 2.3618-2.45 2.94-3.4819-2.253-6.4219-5.0303-8.82-8.33-2.6137-.6537-5.2263-.6537-7.84 0-7.4421 7.0129-10.5448 5.5429-9.31-4.41 1.8483-8.9239 5.7683-16.7639 11.76-23.52 1.6827-8.4437-1.7473-12.2-10.29-11.27-8.9562 8.0762-19.4099 12.3225-31.36 12.74-.5694-.8751-.8967-1.8551-.98-2.94 2.4853-3.1595 4.1189-6.7532 4.9-10.78-.1637-1.1437-.3263-2.2863-.49-3.43-11.9645-7.7185-10.8212-11.9648 3.43-12.74 7.9115.6311 15.5879 2.2648 23.03 4.9 7.6577-1.2662 9.945-5.5135 6.86-12.74-10.4301-6.3386-17.7801-15.1586-22.05-26.46.2078-2.3402 1.5141-3.3202 3.92-2.94 2.6137.6537 5.2263 1.3063 7.84 1.96 1.763-.0755 3.3967-.5655 4.9-1.47 2.0002-3.5829 3.6338-7.3392 4.9-11.27Zm291.06 20.58c7.547-.1352 10.6497 3.4584 9.31 10.78-2.3863 4.6295-6.1436 6.0995-11.27 4.41-5.6615-6.0329-5.0078-11.0965 1.96-15.19ZM153.47 365.15c6.2965-.9467 9.8902 1.667 10.78 7.84-.3793 5.1156-3.1566 7.7293-8.33 7.84-5.9839-1.1799-8.2702-4.7736-6.86-10.78 1.0045-2.1433 2.4745-3.7769 4.41-4.9Z" stroke="#44739e" stroke-width="4" fill="none"/>
</svg>