<svg xmlns="http://www.w3.org/2000/svg" viewBox="0 0 512 512">
	<path d="M307.395 4.505c8.2497 0 16.5003 0 24.75 0 13.6372 2.5598 25.3519 8.8298 35.145 18.81 1.6998 8.5294-1.7652 12.3245-10.395 11.385-21.0405-17.4791-43.4808-19.4591-67.32-5.94-7.8992 5.5863-14.0035 12.6812-18.315 21.285-6.3964 4.3665-12.1711 3.5415-17.325-2.475-16.3726-9.1552-30.7276-6.6802-43.065 7.425-5.0846 7.8557-6.735 16.4356-4.95 25.74 6.0667 12.4595 2.2721 19.2246-11.385 20.295-4.1333 1.5685-7.7626 3.8788-10.89 6.93-1.7602.697-3.5759 1.192-5.445 1.485-5.3282-2.3453-10.4435-5.15-15.345-8.415-20.9118-5.7965-35.5964 1.2985-44.055 21.285-.7514 3.0947-1.2464 6.2301-1.485 9.405.6287 6.2816 1.9493 12.3869 3.96 18.315.2485 3.963-1.4018 6.7676-4.95 8.415-19.1711-.2911-31.2161 8.7843-36.135 27.225-2.5002 2.9235-5.6353 4.0778-9.405 3.465-3.8608-1.5493-7.4908-3.5293-10.89-5.94-18.7585-5.2223-30.8036 1.5424-36.135 20.295-.3937 17.9279 8.3513 28.1586 26.235 30.69 4.8754-1.684 9.4953-1.189 13.86 1.485 2.021 5.7964 4.166 11.5711 6.435 17.325 12.6642 14.1709 26.5242 15.4915 41.58 3.96 2.478-2.972 4.458-6.2716 5.94-9.9 5.5064-3.9986 10.9514-3.8333 16.335.495 10.9138 4.3253 20.8138 2.675 29.7-4.95 4.6055-1.1811 8.7308-.3564 12.375 2.475 5.7271 14.6639 16.4518 21.0989 32.175 19.305 5.3905-1.8691 10.3405-4.5095 14.85-7.92 4.7965-1.1514 8.5922.3336 11.385 4.455 12.0483 25.4123 32.0126 35.4766 59.895 30.195 22.2008-7.0231 35.2361-22.0384 39.105-45.045 3.1017-3.3432 6.8963-4.4986 11.385-3.465 11.9632 9.4792 24.1738 9.8089 36.63.99 4.5708-1.284 8.3655-.1287 11.385 3.465 8.909 17.4903 22.274 21.9453 40.095 13.365 7.2735-5.6282 11.3989-13.0531 12.375-22.275.8247-.8247 1.6503-1.6503 2.475-2.475 12.1621.1317 22.2275-4.3233 30.195-13.365 7.4834-13.7778 5.3391-25.8232-6.435-36.135-3.0443-2.4285-6.5093-3.9135-10.395-4.455-6.5023.0307-12.9373-.4643-19.305-1.485-2.6116-3.66-4.0966-7.7854-4.455-12.375-3.9699-9.2209-11.0642-13.6759-21.285-13.365-3.96-1.6503-5.94-4.6203-5.94-8.91 1.3266-4.4778 2.8116-8.9328 4.455-13.365 1.9414-18.5071-5.8133-30.8821-23.265-37.125-17.227 2.2415-23.4967-5.0185-18.81-21.78-.991-6.7543-1.486-13.5192-1.485-20.295 4.3362-4.7949 8.9555-5.1249 13.86-.99 2.8363 8.6681 3.9917 17.5781 3.465 26.73 22.2275 3.2478 36.2528 15.7877 42.075 37.62.9286 8.0329.4336 15.9529-1.485 23.76 12.6888 3.7768 20.6088 12.0275 23.76 24.75 27.9111.7306 43.0907 14.9203 45.54 42.57-2.1156 23.8976-14.9856 38.0873-38.61 42.57-11.7285 26.4874-31.5285 35.5618-59.4 27.225-7.6121-3.4888-13.8818-8.6041-18.81-15.345-11.7315 5.252-23.4472 5.252-35.145 0-7.718 20.095-21.4127 34.6144-41.085 43.56-11.0256 26.3429-23.4006 52.0829-37.125 77.22-8.4625 16.43-14.2372 33.755-17.325 51.975 3.1977 15.7984 9.9624 29.8238 20.295 42.075 5.9004 7.5517 12.1701 14.8124 18.81 21.78 1.4464 5.1223.2911 9.4119-3.465 12.87-54.1203 0-108.2397 0-162.36 0-5.1084-4.262-5.9331-9.212-2.475-14.85 13.2383-6.6181 23.7976-16.1885 31.68-28.71 2.9235-7.0745 5.2331-14.3342 6.93-21.78 3.1512-2.0028 6.6162-2.4978 10.395-1.485 2.2414 1.7612 3.561 4.0719 3.96 6.93-2.2037 17.9398-10.1237 32.7898-23.76 44.55 38.61.6603 77.22.6603 115.83 0-17.2399-17.1537-27.8002-37.7794-31.68-61.875 2.1196-15.4064 6.2439-30.2564 12.375-44.55 11.3583-24.0362 23.2383-47.7962 35.64-71.28 1.4523-3.2254 2.6067-6.5261 3.465-9.9-15.3371 1.2405-29.3614-2.3899-42.075-10.89-6.6092 20.4772-18.1596 37.6368-34.65 51.48-16.436 21.0038-26.9953 44.7638-31.68 71.28-7.2745 6.133-12.3889 4.648-15.345-4.455 4.3897-22.9631 12.6393-44.4134 24.75-64.35-3.1165-8.708-6.9112-17.123-11.385-25.245-7.4319-12.2216-14.3619-24.7619-20.79-37.62-3.2185-7.2646-5.0342-14.854-5.445-22.77-7.127.3722-14.057-.6178-20.79-2.97-15.544 17.6002-34.3545 22.0552-56.43 13.365-10.3045-5.5707-17.2345-13.9857-20.79-25.245-32.8488-4.2877-47.2038-22.768-43.065-55.44 9.1083-23.4481 26.1032-33.1828 50.985-29.205 2.9816.7722 5.7866 1.9275 8.415 3.465 7.2662-14.0293 18.6512-22.6096 34.155-25.74-4.2289-29.6703 7.6507-49.635 35.64-59.895 14.4976-3.3322 27.8626-.8572 40.095 7.425 4.1036-2.6243 8.2289-5.0993 12.375-7.425-4.4025-27.8402 6.4875-46.6502 32.67-56.43 14.0412-3.5121 27.0755-1.3671 39.105 6.435 11.0484-15.9962 26.0627-25.8962 45.045-29.7Zm-142.56 256.41c1.6761.9653 3.1611 2.2849 4.455 3.96 4.6995 10.4009 10.6395 19.9703 17.82 28.71 9.4347 9.104 18.51 18.509 27.225 28.215-4.7995 4.9648-9.7495 9.7495-14.85 14.355-9.1535-17.3191-18.5585-34.4787-28.215-51.48-3.3828-7.5923-5.5282-15.5123-6.435-23.76Zm56.43 14.85c1.3088-.1683 2.4641.1614 3.465.99 1.9661 3.1145 3.7808 6.2499 5.445 9.405-1.3088 7.23-3.7838 13.9946-7.425 20.295-8.3912-8.0626-16.4756-16.4776-24.255-25.245 8.2705.4891 15.8608-1.3266 22.77-5.445Zm66.33-188.1c19.4941-2.0497 34.1798 5.2103 44.055 21.78 2.6611 6.3687 3.6511 12.969 2.97 19.8-3.569 7.8418-8.519 8.8318-14.85 2.97.1069-20.3198-9.9584-29.7251-30.195-28.215-9.0833 2.4839-14.8589 8.2586-17.325 17.325-4.257 4.8965-8.8773 5.2262-13.86.99-1.4078-2.5047-1.7374-5.145-.99-7.92 5.3292-14.4116 15.3945-23.3216 30.195-26.73Zm-90.09 44.55c28.0101-.0337 43.5194 13.8263 46.53 41.58-2.2166 7.9883-7.0013 9.9683-14.355 5.94-.494-11.0692-4.949-20.1435-13.365-27.225-14.0976-7.4894-26.1429-5.0143-36.135 7.425-3.6234 6.8944-4.9441 14.155-3.96 21.78-.7772 1.7681-1.9315 3.2531-3.465 4.455-4.9074.7385-9.6921.2435-14.355-1.485-11.5375 2.5879-17.4775 9.8485-17.82 21.78-8.1853 4.4233-12.97 2.1127-14.355-6.93 3.1819-19.6822 14.7322-29.9128 34.65-30.69 3.367-21.187 15.5777-33.3977 36.63-36.63Zm152.46 21.78c22.865-2.4354 38.0447 7.1339 45.54 28.71 17.7408 1.588 27.6408 11.1583 29.7 28.71-.3069 7.0706-3.9372 9.8752-10.89 8.415-1.4167-.4603-2.571-1.286-3.465-2.475-.2049-9.4377-4.8243-15.3777-13.86-17.82-4.0818 2.1968-8.2061 2.3621-12.375.495-2.3522-7.7042-5.4866-15.1292-9.405-22.275-10.9613-10.5108-21.8513-10.5108-32.67 0-2.4305 3.9907-4.0798 8.2804-4.95 12.87-1.1553 1.1553-2.3097 2.3097-3.465 3.465-6.4479-1.2058-13.0482-1.8652-19.8-1.98-6.335 3.0571-9.4693 8.1724-9.405 15.345-3.0403 4.751-7.1656 5.9054-12.375 3.465-3.9857-7.6002-3.4907-15.0252 1.485-22.275 7.6933-10.3861 18.0883-14.8411 31.185-13.365 5.4292-10.5554 13.6788-17.6507 24.75-21.285Z" stroke="#44739e" stroke-width="4" fill="none"/>
</svg>