<svg xmlns="http://www.w3.org/2000/svg" viewBox="0 0 512 512">
	<path d="M 140.5,19.5 C 261.403,23.0206 356.236,74.0206 425,172.5C 483.369,266.454 495.369,366.12 461,471.5C 458.904,477.523 456.404,483.356 453.5,489C 451.541,489.931 449.541,490.764 447.5,491.5C 349.288,477.953 251.122,464.286 153,450.5C 142.77,461.399 131.937,471.566 120.5,481C 92.5694,493.975 69.0694,488.475 50,464.5C 38.1559,443.696 38.8226,423.363 52,403.5C 60.8029,393.696 69.9695,384.196 79.5,375C 62.6797,264.258 46.513,153.424 31,42.5C 31.7739,40.0607 33.2739,38.2273 35.5,37C 69.7763,25.9539 104.776,20.1206 140.5,19.5 Z M 137.5,36.5 C 261.07,39.6725 355.237,93.3392 420,197.5C 463.289,274.863 473.956,356.53 452,442.5C 449.115,453.159 445.448,463.492 441,473.5C 421.942,470.325 402.775,467.659 383.5,465.5C 416.442,384.165 412.275,304.831 371,227.5C 318.785,142.531 242.451,98.198 142,94.5C 113.183,94.5315 85.1831,99.1981 58,108.5C 54.6027,89.555 51.436,70.555 48.5,51.5C 67.0174,45.2883 86.0174,41.1216 105.5,39C 116.323,38.1798 126.99,37.3465 137.5,36.5 Z M 129.5,111.5 C 142.192,111.348 154.859,111.848 167.5,113C 171.37,113.105 175.037,113.938 178.5,115.5C 158.512,189.784 138.679,264.118 119,338.5C 109.623,336.839 100.123,336.172 90.5,336.5C 80.4882,266.249 70.1548,196.083 59.5,126C 82.3281,118.034 105.661,113.201 129.5,111.5 Z M 195.5,117.5 C 247.154,129.988 290.821,155.821 326.5,195C 314.615,206.721 302.282,217.888 289.5,228.5C 285.215,218.719 278.882,210.552 270.5,204C 263.666,201.06 256.666,200.727 249.5,203C 234.138,214.22 225.971,229.387 225,248.5C 208.784,244.453 193.617,246.953 179.5,256C 173.529,263.323 172.029,271.49 175,280.5C 180.264,293.425 188.764,303.592 200.5,311C 185.92,325.584 170.754,339.418 155,352.5C 148.723,348.611 142.223,345.111 135.5,342C 155.731,267.242 175.731,192.408 195.5,117.5 Z M 336.5,208.5 C 367.522,247.933 384.689,292.933 388,343.5C 388.733,357.524 388.399,371.524 387,385.5C 386.5,386 386,386.5 385.5,387C 318.167,387.667 250.833,387.667 183.5,387C 179.673,378.844 174.673,371.511 168.5,365C 178.667,355.5 188.833,346 199,336.5C 198.281,347.087 200.281,357.087 205,366.5C 211.846,373.177 220.012,375.343 229.5,373C 243.257,369.964 254.59,363.131 263.5,352.5C 277.746,366.526 294.746,372.026 314.5,369C 324.71,364.087 329.377,355.92 328.5,344.5C 328.336,331.842 324.669,320.342 317.5,310C 331.479,303.356 341.312,292.856 347,278.5C 348.886,269.193 346.386,261.36 339.5,255C 326.926,246.954 313.259,243.621 298.5,245C 311.365,232.966 324.032,220.8 336.5,208.5 Z M 245.5,267.5 C 244.671,260.995 243.671,254.495 242.5,248C 243.1,238.3 246.6,229.8 253,222.5C 257.067,225.099 261.067,225.099 265,222.5C 275.714,233.624 278.547,246.458 273.5,261C 274.044,266.211 276.878,269.044 282,269.5C 288.081,266.131 294.581,263.631 301.5,262C 309.092,261.418 316.426,262.584 323.5,265.5C 322.799,270.341 324.132,274.674 327.5,278.5C 320.32,290.593 309.654,296.76 295.5,297C 293.714,297.785 292.214,298.951 291,300.5C 290.138,298.913 289.471,297.246 289,295.5C 284.821,292.743 280.821,289.743 277,286.5C 277.439,283.57 277.939,280.57 278.5,277.5C 278.688,272.019 276.022,269.019 270.5,268.5C 266.37,269.625 262.704,271.625 259.5,274.5C 255.326,271.08 250.66,268.746 245.5,267.5 Z M 205.5,263.5 C 215.553,262.428 224.553,264.928 232.5,271C 234.686,272.309 236.853,272.476 239,271.5C 238.578,274.098 238.578,276.764 239,279.5C 240.566,282.866 241.733,286.366 242.5,290C 240.445,292.523 238.611,295.356 237,298.5C 236.381,302.308 237.547,305.474 240.5,308C 244.142,308.914 247.808,309.748 251.5,310.5C 252.668,313.839 253.834,317.172 255,320.5C 256.41,321.787 257.91,322.954 259.5,324C 258.069,324.465 256.903,325.299 256,326.5C 252.109,342.058 242.442,352.058 227,356.5C 225.826,350.822 222.326,348.489 216.5,349.5C 214.314,334.708 218.981,322.708 230.5,313.5C 233.827,307.936 232.827,303.436 227.5,300C 211.46,299.627 199.793,292.293 192.5,278C 196.988,275.022 198.655,270.855 197.5,265.5C 200.373,265.198 203.039,264.531 205.5,263.5 Z M 289.5,302.5 C 289.643,308.589 292.643,312.756 298.5,315C 307.058,323.292 311.392,333.459 311.5,345.5C 305.518,344.827 302.184,347.494 301.5,353.5C 284.97,350.804 274.136,341.471 269,325.5C 267.745,324.789 266.579,323.956 265.5,323C 266.931,322.535 268.097,321.701 269,320.5C 270.247,317.007 271.413,313.507 272.5,310C 277.229,309.727 281.896,309.061 286.5,308C 288.607,306.736 289.607,304.903 289.5,302.5 Z M 93.5,353.5 C 132.678,351.556 158.845,368.889 172,405.5C 174.222,415.703 175.055,426.036 174.5,436.5C 150.864,433.254 127.198,430.254 103.5,427.5C 100.384,402.805 97.0509,378.138 93.5,353.5 Z M 81.5,397.5 C 83.9999,411.794 86.8333,426.127 90,440.5C 91.1711,441.893 92.6711,442.727 94.5,443C 106.833,444.667 119.167,446.333 131.5,448C 124.28,456.896 115.613,463.896 105.5,469C 85.2846,473.64 70.4512,466.807 61,448.5C 56.5727,435.957 58.2394,424.29 66,413.5C 71.3697,408.298 76.5364,402.965 81.5,397.5 Z M 370.5,403.5 C 375.179,403.334 379.845,403.501 384.5,404C 380.371,424.053 374.038,443.386 365.5,462C 307.519,454.646 249.519,447.146 191.5,439.5C 191.933,427.746 191.266,416.08 189.5,404.5C 250.002,404.832 310.336,404.499 370.5,403.5 Z
M 102.5,67.5 C 112.22,67.0396 115.72,71.3729 113,80.5C 107.514,86.0804 102.514,85.747 98,79.5C 96.4742,74.2389 97.9742,70.2389 102.5,67.5 Z
M 186.5,67.5 C 195.153,66.9867 198.653,70.9867 197,79.5C 192.486,85.747 187.486,86.0804 182,80.5C 179.819,74.8769 181.319,70.5436 186.5,67.5 Z
M 252.5,86.5 C 261.705,86.2063 265.205,90.5396 263,99.5C 258,104.833 253,104.833 248,99.5C 246.243,93.8252 247.743,89.4918 252.5,86.5 Z
M 315.5,119.5 C 326.86,118.71 330.193,123.543 325.5,134C 314.964,137.997 310.464,134.497 312,123.5C 312.69,121.65 313.856,120.316 315.5,119.5 Z
M 357.5,157.5 C 364.939,155.431 369.272,158.098 370.5,165.5C 369.011,172.586 364.677,175.086 357.5,173C 352.221,167.836 352.221,162.669 357.5,157.5 Z
M 397.5,212.5 C 408.559,212.054 411.892,216.888 407.5,227C 398.304,231.391 393.47,228.557 393,218.5C 393.804,215.854 395.304,213.854 397.5,212.5 Z
M 421.5,287.5 C 431.648,286.473 435.481,290.806 433,300.5C 428.656,305.436 423.99,305.769 419,301.5C 416.418,296.12 417.251,291.453 421.5,287.5 Z
M 428.5,364.5 C 437.878,364.918 441.044,369.584 438,378.5C 435.005,381.265 431.505,382.098 427.5,381C 422.931,378.459 421.431,374.625 423,369.5C 424.352,367.251 426.185,365.584 428.5,364.5 Z
M 418.5,434.5 C 427.143,433.312 430.977,436.978 430,445.5C 425.076,453.088 419.743,453.421 414,446.5C 412.474,441.239 413.974,437.239 418.5,434.5 Z" stroke="#44739e" stroke-width="4" fill="none"/>
</svg>