<svg xmlns="http://www.w3.org/2000/svg" viewBox="0 0 512 512">
	<path d="M7.45 4.51c2.94 0 5.88 0 8.82 0C67.1663 22.6245 119.4326 35.8545 173.07 44.2c1.7963.49 2.94 1.6334 3.43 3.43 1.7228 6.3626-.5635 10.2826-6.86 11.76C114.2749 50.9796 60.2117 37.4229 7.45 18.72c-.856-1.0241-1.836-1.8407-2.94-2.45 0-2.94 0-5.88 0-8.82 1.3067-.6533 2.2867-1.6333 2.94-2.94Zm487.06 0c2.94 0 5.88 0 8.82 0 .6537 1.3067 1.6337 2.2867 2.94 2.94 0 2.94 0 5.88 0 8.82-3.1938 2.4363-6.7875 4.2329-10.78 5.39-75.2532 26.1902-152.6732 40.7269-232.26 43.61-.3214 5.2671.0049 10.4937.98 15.68 16.4258 4.1757 26.8794 14.4657 31.36 30.87 37.8819-4.0454 69.0792 8.2046 93.59 36.75 14.5893 19.8019 20.9593 42.0155 19.11 66.64.1921 10.2067-.4606 20.333-1.96 30.38 30.5192-6.96 60.5728-15.6163 90.16-25.97 3.9504-.8016 7.2167.342 9.8 3.43 0 2.6137 0 5.2263 0 7.84-1.1172 1.275-2.4235 2.4186-3.92 3.43-24.1962 8.4466-48.6962 15.7966-73.5 22.05 0 25.8063 0 51.6137 0 77.42 14.7578 3.8034 25.2115 12.787 31.36 26.95 24.1413 5.3606 39.495 19.8969 46.06 43.61 0 10.1263 0 20.2537 0 30.38-9.0728 31.0327-29.9792 45.7327-62.72 44.1.1627 7.1942 0 14.3805-.49 21.56-.5527 2.3393-1.6954 4.2993-3.43 5.88-2.6137 0-5.2263 0-7.84 0-1.6111-.7997-2.7538-2.107-3.43-3.92-.49-7.8331-.6527-15.6731-.49-23.52-4.5737 0-9.1463 0-13.72 0 .1627 7.8469 0 15.6869-.49 23.52-.6762 1.813-1.8189 3.1203-3.43 3.92-2.6137 0-5.2263 0-7.84 0-1.7346-1.5807-2.8773-3.5407-3.43-5.88-.49-7.1795-.6527-14.3658-.49-21.56-32.6712 1.7424-53.4149-12.9576-62.23-44.1-5.2606-25.0468 1.4367-46.1168 20.09-63.21 7.7332-5.3028 16.2268-8.8964 25.48-10.78 6.1485-14.163 16.6022-23.1466 31.36-26.95.1637-24.502 0-49.002-.49-73.5-4.0729 1.0604-8.1556 2.203-12.25 3.43-3.7975 7.4362-8.2075 14.4589-13.23 21.07-7.0354 4.4051-11.7727 2.6078-14.21-5.39 3.9337-7.0433 8.0174-14.0669 12.25-21.07 3.2791-7.5519 5.5664-15.3919 6.86-23.52.6537-13.0663.6537-26.1337 0-39.2-8.0105-39.7008-32.0205-62.0781-72.03-67.13 28.4543 21.9687 41.5206 51.0413 39.2 87.22 1.9218 35.3476-10.8182 64.0949-38.22 86.24 3.97.5076 7.89.1803 11.76-.98 7.6969-2.2932 15.2096-5.0695 22.54-8.33 7.1805 1.7767 9.3041 6.0241 6.37 12.74-12.3431 7.9507-25.8994 12.5234-40.67 13.72-.589 7.5656-1.4053 15.0783-2.45 22.54-4.166 5.8055-9.8823 8.0928-17.15 6.86.1637 50.6346 0 101.2673-.49 151.9-.9594 2.4186-2.4294 4.3786-4.41 5.88-1.96 0-3.92 0-5.88 0-1.5709-1.0741-3.0409-2.3814-4.41-3.92-.49-51.2854-.6537-102.5727-.49-153.86-7.5137 0-15.0263 0-22.54 0 .1637 50.961 0 101.921-.49 152.88-1.0045 2.1433-2.4745 3.7769-4.41 4.9-1.96 0-3.92 0-5.88 0-1.9355-1.1231-3.4055-2.7567-4.41-4.9-.49-50.959-.6537-101.919-.49-152.88-7.5137 0-15.0263 0-22.54 0 .1637 51.2873 0 102.5746-.49 153.86-1.3691 1.5386-2.8391 2.8459-4.41 3.92-1.96 0-3.92 0-5.88 0-2.1521-1.3269-3.6221-3.2869-4.41-5.88-.49-50.6327-.6537-101.2654-.49-151.9-8.8808 1.5847-14.9234-1.6817-18.13-9.8-.1656-6.5572-.6556-13.0908-1.47-19.6-36.3453-4.4404-62.8053-22.8967-79.38-55.37-4.0944-1.227-8.1774-2.3696-12.25-3.43-.49 24.498-.6533 48.998-.49 73.5 14.7578 3.8034 25.2115 12.787 31.36 26.95 30.8612 7.351 46.5412 26.951 47.04 58.8.0255 27.7085-12.7145 46.6549-38.22 56.84-8.3692 2.0345-16.8619 2.8508-25.48 2.45.1627 7.1942 0 14.3805-.49 21.56-.5527 2.3393-1.6954 4.2993-3.43 5.88-2.6137 0-5.2263 0-7.84 0-1.6107-.7997-2.7541-2.107-3.43-3.92-.4897-7.8331-.6531-15.6731-.49-23.52-4.5734 0-9.1466 0-13.72 0 .1631 7.8469-.0003 15.6869-.49 23.52-.6759 1.813-1.8193 3.1203-3.43 3.92-2.6134 0-5.2266 0-7.84 0-1.7342-1.5807-2.8776-3.5407-3.43-5.88-.4897-7.1795-.653-14.3658-.49-21.56-32.7531 1.6288-53.6597-13.0712-62.72-44.1 0-10.1263 0-20.2537 0-30.38 6.5398-23.6866 21.8931-38.2229 46.06-43.61 6.1488-14.163 16.6022-23.1466 31.36-26.95 0-25.8063 0-51.6137 0-77.42-24.8043-6.2534-49.3043-13.6034-73.5-22.05-1.4962-1.0114-2.8028-2.155-3.92-3.43 0-2.6137 0-5.2263 0-7.84 2.5834-3.088 5.8501-4.2316 9.8-3.43 29.5871 10.3537 59.6404 19.01 90.16 25.97-2.4044-19.2374-2.5677-38.5111-.49-57.82 10.4889-42.1753 37.1116-67.1653 79.87-74.97 10.4537-.3263 20.9063-.6537 31.36-.98 4.4806-16.4043 14.9342-26.6943 31.36-30.87.9751-5.1863 1.3014-10.4129.98-15.68-15.7251.0732-31.4051-.7434-47.04-2.45-5.1332-3.2083-6.2759-7.6183-3.43-13.23 102.1444 5.1083 201.2871-9.9183 297.43-45.08ZM248.53 96.63c9.4982-1.6801 17.8282.6066 24.99 6.86 2.0188 2.7303 3.4888 5.6703 4.41 8.82-15.0263 0-30.0537 0-45.08 0 2.2834-8.1634 7.5107-13.3905 15.68-15.68Zm-58.8 205.8c-33.5072-4.265-56.2108-22.2313-68.11-53.9-2.893-10.7398-4.0366-21.6835-3.43-32.83-1.6052-41.2502 16.6874-69.3428 54.88-84.28 5.7408-2.0453 11.6208-3.0253 17.64-2.94-28.5729 22.2901-41.6392 51.6901-39.2 88.2-1.4935 35.0595 11.2465 63.6432 38.22 85.75Zm56.84-174.44c5.8888-.1627 11.7688.001 17.64.49 6.9433 8.8259 11.6796 18.7895 14.21 29.89 2.3745 9.3463 4.0072 18.8189 4.9 28.42.6537 19.2737.6537 38.5463 0 57.82-1.4318 19.1316-6.6591 37.0979-15.68 53.9-1.47 1.47-2.94 2.94-4.41 4.41-5.2263.6537-10.4537.6537-15.68 0-7.1667-7.6342-11.9031-16.6179-14.21-26.95-2.9674-10.2645-4.9274-20.7172-5.88-31.36-.6537-18.9463-.6537-37.8937 0-56.84 1.1799-17.0099 5.0999-33.3425 11.76-49 2.2834-3.7456 4.7334-7.3382 7.35-10.78ZM225.99 301.45c-17.8135-3.9347-32.0235-13.4084-42.63-28.42-12.5244-16.6747-17.9144-35.4584-16.17-56.35-1.8483-36.164 12.5244-63.604 43.12-82.32 5.0343-2.8312 10.2606-4.3012 15.68-4.41-11.7727 27.3567-16.6727 55.9394-14.7 85.75-1.813 29.7959 3.087 58.3786 14.7 85.75Zm58.8 0c11.613-27.3714 16.513-55.9541 14.7-85.75 1.9727-29.8126-2.9273-58.3962-14.7-85.75.49-.3263.98-.6537 1.47-.98 19.9714 6.2553 35.3251 18.3417 46.06 36.26 9.4207 15.3586 13.1781 32.0186 11.27 49.98 1.911 32.9251-10.5027 58.8951-37.24 77.91-6.6699 4.1532-13.8562 6.9296-21.56 8.33Zm-78.4 17.64c32.6663 0 65.3337 0 98 0 0 4.5737 0 9.1463 0 13.72-32.6663 0-65.3337 0-98 0 0-4.5737 0-9.1463 0-13.72ZM84.87 348.49c10.6585-1.077 19.1521 2.6793 25.48 11.27-13.72.6537-27.44.6537-41.16 0 4.1518-5.4831 9.3784-9.2404 15.68-11.27Zm331.24 0c10.6585-1.077 19.1521 2.6793 25.48 11.27-13.72.6537-27.44.6537-41.16 0 4.1513-5.4831 9.3786-9.2404 15.68-11.27ZM54.49 375.93c1.9868-.1588 3.9468.0049 5.88.49-4.8337 7.6362-7.937 15.9662-9.31 24.99-.6534 12.4137-.6534 24.8263 0 37.24 1.5735 8.6475 4.6769 16.6512 9.31 24.01-20.4899-.2274-33.7199-10.191-39.69-29.89-.6534-8.82-.6534-17.64 0-26.46 5.3122-16.9158 16.5822-27.0421 33.81-30.38Zm28.42 0c9.8819-2.3765 17.5587.5635 23.03 8.82 6.1642 10.9388 8.9415 22.6988 8.33 35.28.4126 13.0497-2.6901 25.136-9.31 36.26-2.1606 2.4892-4.6106 4.6129-7.35 6.37-12.0784 3.7995-20.735.0431-25.97-11.27-2.3859-4.6413-4.0193-9.5413-4.9-14.7-.8825-12.787-.5559-25.527.98-38.22 2.1915-9.6559 7.2548-17.1696 15.19-22.54Zm36.26.98c20.2752-.1911 33.5052 9.6089 39.69 29.4 2.8234 14.1287.8634 27.5223-5.88 40.18-8.4329 11.3219-19.7029 16.7119-33.81 16.17 7.6479-13.1134 11.2406-27.3234 10.78-42.63.6174-15.5624-2.9753-29.9351-10.78-43.12Zm266.56-.98c1.9865-.1588 3.9465.0049 5.88.49-4.8334 7.6362-7.937 15.9662-9.31 24.99-.6537 12.4137-.6537 24.8263 0 37.24 1.5739 8.6475 4.6766 16.6512 9.31 24.01-20.4898-.2274-33.7198-10.191-39.69-29.89-3.0547-14.6853-.7673-28.4053 6.86-41.16 7.2334-8.429 16.217-13.6553 26.95-15.68Zm28.42 0c9.8823-2.3765 17.5587.5635 23.03 8.82 3.2507 5.5047 5.537 11.3847 6.86 17.64.9036 12.7959.5772 25.5359-.98 38.22-2.1629 9.0748-6.8992 16.4248-14.21 22.05-12.0785 3.7995-20.7348.0431-25.97-11.27-3.5045-7.8116-5.6281-15.9789-6.37-24.5-1.5386-16.219 1.8914-31.2453 10.29-45.08 2.0717-2.5686 4.5217-4.5286 7.35-5.88Zm36.26.98c20.2752-.1911 33.5052 9.6089 39.69 29.4 2.8234 14.1287.8634 27.5223-5.88 40.18-8.4329 11.3219-19.7029 16.7119-33.81 16.17 4.6334-7.3588 7.7361-15.3625 9.31-24.01.6537-12.4137.6537-24.8263 0-37.24-1.2926-8.9533-4.3963-17.1196-9.31-24.5Z" stroke="#44739e" stroke-width="4" fill="none"/>
</svg>