<svg xmlns="http://www.w3.org/2000/svg" viewBox="0 0 512 512">
	<path d="M254.5 9.5c3.678.277 6.512 1.9437 8.5 5 .667 18.3333.667 36.6667 0 55-3.013 5.0352-7.18 6.2019-12.5 3.5-1.201-.9025-2.035-2.0692-2.5-3.5-.667-18.3333-.667-36.6667 0-55 1.603-2.5351 3.769-4.2018 6.5-5Zm-43 13c3.719-.4975 7.053.3358 10 2.5 12.981 11.6037 18.481 26.1037 16.5 43.5-3.994 7.1635-8.994 7.8301-15 2 1.176-14.297-3.657-25.9637-14.5-35-2.864-5.2589-1.864-9.5923 3-13Zm82 0c8.158-.6771 11.658 2.9895 10.5 11-2.964 3.9658-6.297 7.6325-10 11-1 2-2 4-3 6-.953 7.0173-1.953 14.0173-3 21-4.954 4.1767-9.62 3.8433-14-1-3.092-20.1191 3.408-36.1191 19.5-48Zm-120 14c9.398.3654 17.731 3.5321 25 9.5 4.288 5.4103 8.455 10.9103 12.5 16.5 3.215 9.0799.048 13.2466-9.5 12.5-1.786-.7845-3.286-1.9512-4.5-3.5-3.338-5.8464-7.504-11.0131-12.5-15.5-14.214-5.9803-23.714-1.4803-28.5 13.5 2.069 24.5502-2.431 47.717-13.5 69.5-7.397 3.137-11.73.804-13-7 3.226-9.013 6.059-18.18 8.5-27.5 1.203-12.2923 1.87-24.6256 2-37 3.577-18.6809 14.743-29.0142 33.5-31Zm161 0c18.235 1.0715 29.735 10.4049 34.5 28-1.387 23.5813 2.446 46.248 11.5 68-3.323 8.763-8.49 10.096-15.5 4-9.377-22.382-13.377-45.7156-12-70-6.699-13.4567-16.532-16.6234-29.5-9.5-4.653 6.317-9.653 12.317-15 18-10.127.5279-13.294-3.9721-9.5-13.5 4.456-6.1249 9.289-11.9583 14.5-17.5 6.507-4.222 13.507-6.722 21-7.5Zm177 302c0 12 0 24 0 36-3.057 8.892-9.057 15.059-18 18.5-16.614 1.275-33.28 1.941-50 2-3.912 3.922-7.079 8.422-9.5 13.5-11.406 14.287-26.24 22.12-44.5 23.5-27.331.5-54.665.667-82 .5-1.386 13.846 2.947 25.513 13 35 6.986 4.826 13.486 10.16 19.5 16 2.972 9.225-.195 15.059-9.5 17.5-50 .667-100 .667-150 0-9.305-2.441-12.472-8.275-9.5-17.5 6.014-5.84 12.514-11.174 19.5-16 10.053-9.487 14.386-21.154 13-35-7.421.391-14.754-.109-22-1.5-5.496-5.149-5.163-9.816 1-14 71.027-.023 142.027-.689 213-2 15.504-4.833 26.67-14.666 33.5-29.5 2.564-2.227 5.397-4.061 8.5-5.5 16.28-1.273 32.614-1.94 49-2 4.18-1.002 7.014-3.502 8.5-7.5.5-7.659.666-15.326.5-23-160 0-320 0-480 0-.1664 7.674.0003 15.341.5 23 .786 3.083 2.6193 5.249 5.5 6.5 17.3197 1.015 34.6531 2.015 52 3 2.4962 1.08 4.8295 2.414 7 4 3.7884 4.406 6.9551 9.239 9.5 14.5 8.2601 10.589 19.093 16.423 32.5 17.5 9.667.333 19.333.667 29 1 5.839 5.958 5.172 10.958-2 15-14.844 1.28-29.511.28-44-3-15.6046-6.104-27.2712-16.604-35-31.5-1-.833-2-1.667-3-2.5-16.7196-.059-33.3862-.725-50-2-8.9433-3.441-14.9433-9.608-18-18.5 0-12 0-24 0-36 1.872-3.029 4.5386-5.195 8-6.5 71.3326-.5 142.666-.667 214-.5.167-14.004 0-28.004-.5-42-2.329-12.496-8.163-22.996-17.5-31.5-11.333-8.333-22.667-16.667-34-25-9.625-1.058-19.292-2.058-29-3-11.174-3.848-16.841-11.682-17-23.5 1.044-13.88 8.377-22.38 22-25.5-7.333-4-14.667-8-22-12-18.798-5.35-32.2982.817-40.5 18.5-1.3057 25.271-1.9723 50.604-2 76-.3196 18.776-4.4863 36.609-12.5 53.5-7.4848 3.569-11.8181 1.403-13-6.5 3.748-11.418 6.5813-23.084 8.5-35 1.216-28.981 1.8827-57.981 2-87 6.9739-25.74 23.8073-38.24 50.5-37.5 4.443.528 8.777 1.528 13 3 16.494 8.746 32.827 17.746 49 27 16.997.5 33.997.667 51 .5.166-7.341 0-14.674-.5-22-1.755-8.001-5.921-14.501-12.5-19.5-4.667-3.333-9.333-6.667-14-10-20.76.751-30.26-9.082-28.5-29.5 2.5-7.8333 7.667-13 15.5-15.5 44-.6667 88-.6667 132 0 13.11 5.0461 18.277 14.5461 15.5 28.5-5.353 12.271-14.853 17.771-28.5 16.5-7.747 5.076-14.913 10.909-21.5 17.5-2.637 3.572-4.303 7.572-5 12-.5 7.326-.666 14.659-.5 22 17.003.167 34.003 0 51-.5 16.173-9.254 32.506-18.254 49-27 26.803-8.01 46.97.157 60.5 24.5 1.202 3.274 2.202 6.607 3 10 .333 25.667.667 51.333 1 77 1.115 15.457 4.282 30.457 9.5 45-1.289 7.902-5.623 10.068-13 6.5-7.582-15.557-11.749-32.057-12.5-49.5-.035-26.715-.702-53.382-2-80-8.283-17.54-21.783-23.707-40.5-18.5-7.333 4-14.667 8-22 12 20.964 6.878 26.797 20.378 17.5 40.5-3.092 4.428-7.259 7.261-12.5 8.5-9.708.942-19.375 1.942-29 3-11.333 8.333-22.667 16.667-34 25-9.337 8.504-15.171 19.004-17.5 31.5-.5 13.996-.667 27.996-.5 42 71.334-.167 142.667 0 214 .5 3.461 1.305 6.128 3.471 8 6.5Zm-319-238c42.001-.167 84.001 0 126 .5 4.419 4.819 3.752 8.819-2 12-40.667.667-81.333.667-122 0-5.809-3.353-6.476-7.52-2-12.5Zm37 30c17.162-1.162 34.495-1.329 52-.5-7.191 5.881-12.024 13.381-14.5 22.5-1.391 9.6-1.891 19.267-1.5 29-6.667 0-13.333 0-20 0 3.164-18.348-1.003-34.681-12.5-49-1.113-.805-2.279-1.472-3.5-2Zm-83 67c72.667-.167 145.334 0 218 .5 5.661 1.82 7.828 5.653 6.5 11.5-1.26 2.928-3.427 4.761-6.5 5.5-24.667.333-49.333.667-74 1-4.843 4.38-5.177 9.046-1 14 8.591 1.244 17.258 1.911 26 2-16.998 9.331-29.498 22.831-37.5 40.5-1.802 4.875-3.135 9.875-4 15-.5 14.663-.667 29.33-.5 44-12 0-24 0-36 0 .167-14.67 0-29.337-.5-44-3.024-16.885-10.857-31.052-23.5-42.5-6-4.333-12-8.667-18-13 20.667-.333 41.333-.667 62-1 5.238-3.274 6.404-7.774 3.5-13.5-.75-.626-1.584-1.126-2.5-1.5-37.333-.333-74.667-.667-112-1-6.66-2.49-8.493-6.99-5.5-13.5 1.5-1.969 3.333-3.302 5.5-4Zm73 235c24 0 48 0 72 0-1.51 22.352 6.823 39.852 25 52.5-40.667.667-81.333.667-122 0 18.177-12.648 26.51-30.148 25-52.5Zm-120-243c4.294-.302 7.461 1.364 9.5 5 .667 27.333.667 54.667 0 82-.765 12.457-2.432 24.79-5 37-2.541 4.569-6.3747 6.069-11.5 4.5-2.6667-2-4-4.667-4-8 2.1972-11.744 3.6972-23.577 4.5-35.5.3333-26.667.6667-53.333 1-80 1.1065-2.613 2.9399-4.28 5.5-5Zm308 0c4.294-.302 7.461 1.364 9.5 5 .333 27.333.667 54.667 1 82 .844 11.42 2.344 22.753 4.5 34-1.591 7.463-5.925 9.629-13 6.5-1.201-.903-2.035-2.069-2.5-3.5-2.649-11.86-4.316-23.86-5-36-.667-27.667-.667-55.333 0-83 1.107-2.613 2.94-4.28 5.5-5Zm-280 57c5.242-1.229 9.075.437 11.5 5 .667 20.333.667 40.667 0 61-1.98 5.406-5.814 7.239-11.5 5.5-1.167-1.167-2.333-2.333-3.5-3.5-.667-21.333-.667-42.667 0-64 .69-1.85 1.856-3.184 3.5-4Zm248 0c2.687-.164 5.354.003 8 .5 1.833.5 3 1.667 3.5 3.5.667 21.333.667 42.667 0 64-3.42 4.253-7.587 5.087-12.5 2.5-1.393-1.171-2.227-2.671-2.5-4.5-.667-20.333-.667-40.667 0-61 .997-1.823 2.164-3.49 3.5-5Z" stroke="#44739e" stroke-width="4" fill="none"/>
</svg>