<svg xmlns="http://www.w3.org/2000/svg" viewBox="0 0 512 512">
	<path d="M251.5 15.5c3.478-.3158 6.812.1842 10 1.5 8.864 8.5298 17.364 17.3631 25.5 26.5.667 2.6667.667 5.3333 0 8-5.123 9.4153-10.623 18.5819-16.5 27.5 18.333.3333 36.667.6667 55 1 4.5 1.8333 7.667 5 9.5 9.5.92 6.776.586 13.443-1 20-19.636 6.634-31.969 19.967-37 40-1.081 8.635-1.581 17.301-1.5 26 27.002-.167 54.002 0 81 .5 4.503 4.01 5.17 8.676 2 14-6.761 4.13-13.261 8.63-19.5 13.5-1.819 5.873-3.153 11.873-4 18-3.984 8.651-10.484 14.485-19.5 17.5-13.329.5-26.663.667-40 .5 0 10.667 0 21.333 0 32 38.668-.167 77.335 0 116 .5 3.016 1.529 4.349 4.029 4 7.5.096 2.426-.57 4.593-2 6.5-6.253 4.043-12.42 8.21-18.5 12.5-2.584 5.004-3.918 10.337-4 16-3.015 9.016-8.849 15.516-17.5 19.5-23.601 1.47-47.268 1.97-71 1.5-.948 7.69-2.115 15.356-3.5 23-1.243 8.277.423 15.944 5 23 19.88 18.663 24.046 40.33 12.5 65 58.33.833 116.664 1.333 175 1.5 1.833.5 3 1.667 3.5 3.5.667 13.333.667 26.667 0 40-.5 1.833-1.667 3-3.5 3.5-157.333.667-314.667.667-472 0-1.8333-.5-3-1.667-3.5-3.5-.6667-13.333-.6667-26.667 0-40 .5-1.833 1.6667-3 3.5-3.5 58.6667-.333 117.333-.667 176-1-9.516-15.313-10.349-31.146-2.5-47.5 3.902-6.572 8.569-12.572 14-18 4.359-7.1 6.025-14.766 5-23-1.385-7.644-2.552-15.31-3.5-23-23.732.47-47.399-.03-71-1.5-8.651-3.984-14.485-10.484-17.5-19.5-.082-5.663-1.416-10.996-4-16-6.08-4.29-12.247-8.457-18.5-12.5-2.4423-4.052-2.609-8.219-.5-12.5.7504-.626 1.5838-1.126 2.5-1.5 38.665-.5 77.332-.667 116-.5 0-10.667 0-21.333 0-32-13.337.167-26.671 0-40-.5-9.016-3.015-15.516-8.849-19.5-17.5-.847-6.127-2.181-12.127-4-18-6.239-4.87-12.739-9.37-19.5-13.5-2.442-4.052-2.609-8.219-.5-12.5.75-.626 1.584-1.126 2.5-1.5 26.998-.5 53.998-.667 81-.5 3.559-31.867-9.274-53.867-38.5-66-1.586-6.557-1.92-13.224-1-20 1.833-4.5 5-7.6667 9.5-9.5 18.333-.3333 36.667-.6667 55-1-5.877-8.9181-11.377-18.0847-16.5-27.5-.667-2.6667-.667-5.3333 0-8 8.699-9.8653 17.866-19.1986 27.5-28Zm3 21c5.073 3.5656 9.74 7.7323 14 12.5-4.17 6.9895-8.503 13.8229-13 20.5-4.497-6.6771-8.83-13.5105-13-20.5 4.204-4.0356 8.204-8.2022 12-12.5Zm-63 59c42.672-.3333 85.339.0001 128 1-31.045 17.087-44.378 43.42-40 79-16 0-32 0-48 0 3.995-27.188-4.005-50.022-24-68.5-4.503-3.755-9.503-6.755-15-9-.752-.6708-1.086-1.5041-1-2.5Zm-27 97c60.499-1.165 121.165-1.332 182-.5-4.871 6.66-7.371 14.16-7.5 22.5-1.105 3.437-3.272 5.937-6.5 7.5-25.627 1.144-51.294 1.644-77 1.5-25.706.144-51.373-.356-77-1.5-3.228-1.563-5.395-4.063-6.5-7.5-.076-8.298-2.576-15.631-7.5-22Zm67 47c16 0 32 0 48 0 0 10.667 0 21.333 0 32-16 0-32 0-48 0 0-10.667 0-21.333 0-32Zm-102 49c83.832-1.166 167.832-1.332 252-.5-4.947 6.992-7.447 14.826-7.5 23.5-1.5 2.833-3.667 5-6.5 6.5-37.296 1.151-74.629 1.651-112 1.5-37.371.151-74.704-.349-112-1.5-2.833-1.5-5-3.667-6.5-6.5-.912-4.295-1.579-8.628-2-13-1.086-3.846-2.919-7.18-5.5-10Zm96 47c20 0 40 0 60 0-1.766 9.263-3.099 18.597-4 28 .134 8.872 2.301 17.205 6.5 25 6.107 6.773 11.44 14.107 16 22 4.608 14.843.774 27.01-11.5 36.5-24.667.667-49.333.667-74 0-14.281-11.845-17.114-26.012-8.5-42.5 8.799-7.931 14.799-17.597 18-29 .925-3.945 1.425-7.945 1.5-12-.901-9.403-2.234-18.737-4-28Zm-194 128c149.333 0 298.667 0 448 0 0 5.333 0 10.667 0 16-149.333 0-298.667 0-448 0 0-5.333 0-10.667 0-16Zm142-416c8.667 0 17.333 0 26 0 0 5.3333 0 10.6667 0 16-7.714-.2054-15.381.2946-23 1.5-15.535 4.2351-23.535 14.4018-24 30.5-5.667 0-11.333 0-17 0 1.159-25.1547 13.826-41.1547 38-48Zm138 0c27.074-4.9456 47.241 4.3877 60.5 28 2.764 6.3903 3.931 13.0569 3.5 20-5.667 0-11.333 0-17 0-.948-15.7361-8.948-25.9027-24-30.5-7.619-1.2054-15.286-1.7054-23-1.5 0-5.3333 0-10.6667 0-16Zm-176 64c5.333 0 10.667 0 16 0 0 5.333 0 10.667 0 16-5.333 0-10.667 0-16 0 0-5.333 0-10.667 0-16Zm224 0c5.333 0 10.667 0 16 0 0 5.333 0 10.667 0 16-5.333 0-10.667 0-16 0 0-5.333 0-10.667 0-16Zm-232 40c18.667 0 37.333 0 56 0 0 5.333 0 10.667 0 16-16.003-.167-32.003 0-48 .5-9.167 1.167-14.333 6.333-15.5 15.5-.333 16-.667 32-1 48-3.167 12.5-11 20.333-23.5 23.5-7.9755-.352-14.8088 2.148-20.5 7.5-1.7497 2.746-2.7497 5.746-3 9-.5 37.332-.6667 74.665-.5 112-5.3333 0-10.6667 0-16 0-.1667-40.001 0-80.001.5-120C59.1667 251 67 243.167 79.5 240c7.9755.352 14.8088-2.148 20.5-7.5 1.75-2.746 2.75-5.746 3-9 .333-16 .667-32 1-48 3.349-12.515 11.182-20.515 23.5-24Zm200 0c18.67-.167 37.336 0 56 .5 12.5 3.167 20.333 11 23.5 23.5.333 16 .667 32 1 48 .447 7.066 3.947 11.899 10.5 14.5 13.534-.172 24.368 4.995 32.5 15.5 1.725 3.174 3.058 6.507 4 10 .5 39.999.667 79.999.5 120-5.333 0-10.667 0-16 0 .167-37.335 0-74.668-.5-112-.447-7.066-3.947-11.899-10.5-14.5-13.534.172-24.368-4.995-32.5-15.5-1.725-3.174-3.058-6.507-4-10-.333-16-.667-32-1-48-1.167-9.167-6.333-14.333-15.5-15.5-15.997-.5-31.997-.667-48-.5 0-5.333 0-10.667 0-16Zm-232 168c5.333 0 10.667 0 16 0 0 21.333 0 42.667 0 64-5.333 0-10.667 0-16 0 0-21.333 0-42.667 0-64Zm304 0c5.333 0 10.667 0 16 0 0 21.333 0 42.667 0 64-5.333 0-10.667 0-16 0 0-21.333 0-42.667 0-64Zm-344 80c5.3333 0 10.6667 0 16 0 0 8 0 16 0 24-5.3333 0-10.6667 0-16 0 0-8 0-16 0-24Zm40 0c5.333 0 10.667 0 16 0 0 8 0 16 0 24-5.333 0-10.667 0-16 0 0-8 0-16 0-24Zm304 0c5.333 0 10.667 0 16 0 0 8 0 16 0 24-5.333 0-10.667 0-16 0 0-8 0-16 0-24Zm40 0c5.333 0 10.667 0 16 0 0 8 0 16 0 24-5.333 0-10.667 0-16 0 0-8 0-16 0-24Z" stroke="#44739e" stroke-width="4" fill="none"/>
</svg>