<svg xmlns="http://www.w3.org/2000/svg" viewBox="0 0 512 512">
	<path d="M303.455 1.505c10.2297 0 20.4603 0 30.69 0 17.5913 2.8424 34.0916 8.9474 49.5 18.315 6.0261 6.9902 4.7065 12.1051-3.96 15.345-6.5102-2.5951-12.7799-5.73-18.81-9.405C314.1292 8.118 273.7045 17.523 239.6 53.975c-25.446 33.114-30.396 69.0842-14.85 107.91 2.7393 5.7004 5.8747 11.1454 9.405 16.335 3.9719-.2138 7.9319-.8742 11.88-1.98 17.7101-2.5671 32.7245 2.5473 45.045 15.345 8.1883 10.6672 16.934 20.8969 26.235 30.69 24.849.792 46.9587-6.633 66.33-22.275 1.8325-1.6672 3.4828-3.4818 4.95-5.445-5.7212-2.3651-11.3306-5.0054-16.83-7.92-14.8688 11.3632-30.7088 12.8482-47.52 4.455-16.4399-11.784-21.8849-27.4596-16.335-47.025 6.4924-15.7113 18.2081-24.6213 35.145-26.73 9.0456-31.9762 30.1663-49.3012 63.36-51.975-2.9274-4.0393-5.7321-8.1642-8.415-12.375-.2425-8.8181 3.8818-11.7881 12.375-8.91 6.3885 7.324 11.6681 15.409 15.84 24.255 24.5164 8.1748 39.3664 24.8398 44.55 49.995 19.5545 1.8325 32.0948 12.0622 37.62 30.69 0 5.6103 0 11.2197 0 16.83-8.9278 25.7529-26.7478 35.1579-53.46 28.215-4.3946-2.0968-8.5199-4.5718-12.375-7.425-10.2217 5.9816-21.2771 9.4466-33.165 10.395-20.5474 23.1492-46.2874 37.0092-77.22 41.58 48.3981 50.0574 98.8881 97.5774 151.47 142.56 11.9028-.3386 20.1524 4.7767 24.75 15.345 0 6.6003 0 13.1997 0 19.8-.8821 1.7731-1.8721 3.5878-2.97 5.445 1.2682 1.3949 2.2582 2.8799 2.97 4.455 0 26.0697 0 52.1403 0 78.21-1.3197 1.3197-2.6403 2.6403-3.96 3.96-140.58 0-281.16 0-421.74 0-5.2153-4.7886-5.2153-9.5743 0-14.355 136.62-.495 273.24-.6603 409.86-.495 0-21.1197 0-42.2403 0-63.36-158.4 0-316.8 0-475.2 0 0 21.1197 0 42.2403 0 63.36 12.8743-.1653 25.7443 0 38.61.495 5.1756 4.7748 5.1756 9.5594 0 14.355-16.83 0-33.66 0-50.49 0-1.65-.99-2.97-2.3097-3.96-3.96 0-26.4003 0-52.7997 0-79.2 2.4468-2.5928 2.4468-5.2331 0-7.92 0-7.2597 0-14.5203 0-21.78 4.4065-9.4763 11.9964-13.9313 22.77-13.365 11.22-9.9 22.44-19.8 33.66-29.7-.495-.495-.99-.99-1.485-1.485-13.6513 9.9584-27.6763 10.4534-42.075 1.485-6.6047-5.4193-10.8947-12.1839-12.87-20.295 0-4.2897 0-8.5803 0-12.87 4.3323-15.545 14.5623-24.455 30.69-26.73 2.325-11.087 7.605-20.492 15.84-28.215 19.9669-15.8628 41.4169-18.1734 64.35-6.93 9.1456 6.0103 16.4053 13.765 21.78 23.265 30.6435-29.4842 59.6831-60.3395 87.12-92.565-22.6561-34.849-27.1111-71.974-13.365-111.375 18.3635-42.2974 50.2088-67.3774 95.535-75.24Zm98.01 80.19c33.1917.6891 52.1671 17.5191 56.925 50.49.7425.6197 1.5682 1.1147 2.475 1.485 21.9206-1.5068 32.3156 8.5585 31.185 30.195-5.1134 12.7086-14.5183 18.1536-28.215 16.335-6.3776-2.4077-11.6582-6.3677-15.84-11.88-2.6403-.6603-5.2797-.6603-7.92 0-21.1969 16.1123-42.6462 16.4429-64.35.99-2.8373-1.4424-5.8073-1.7721-8.91-.99-12.9977 15.445-26.6924 16.2707-41.085 2.475-7.8586-15.4836-4.064-27.1993 11.385-35.145 5.5291-1.1741 11.1385-1.8335 16.83-1.98 1.5335-1.2019 2.6878-2.6869 3.465-4.455 3.6254-26.2261 18.31-42.0662 44.055-47.52Zm-154.44 109.89c10.7029-1.6533 20.2732.8217 28.71 7.425 22.964 27.5903 47.3834 53.9906 73.26 79.2-2.8958 1.586-5.8657 1.586-8.91 0-15.5994-13.3759-31.4394-13.7056-47.52-.99-4.95 3.2997-9.9 3.2997-14.85 0-16.0806-12.7156-31.9206-12.3859-47.52.99-5.1965 1.7612-10.1465 1.1019-14.85-1.98-10.003-8.5932-21.2236-10.5732-33.66-5.94-5.3668 4.2095-11.3068 7.3448-17.82 9.405-.99-.495-1.98-.99-2.97-1.485 24.3619-24.6866 47.6269-50.2613 69.795-76.725 4.9639-4.2095 10.4089-7.5092 16.335-9.9Zm-166.32 74.25c18.606-.1871 31.9711 8.0635 40.095 24.75.6603 1.3197.6603 2.6403 0 3.96-16.335 15.0153-32.67 30.0297-49.005 45.045-.99.6603-1.98.6603-2.97 0-4.4225-2.6215-8.8775-5.0965-13.365-7.425-4.2593 1.2781-7.7243 3.7531-10.395 7.425-12.4178 6.531-21.4928 3.3957-27.225-9.405-1.3852-9.2753 2.0798-16.04 10.395-20.295 4.8672-1.1494 9.8172-1.8087 14.85-1.98.825-.8247 1.65-1.6503 2.475-2.475 2.3964-21.7038 14.1114-34.9034 35.145-39.6Zm109.89 17.82c7.6527.2039 14.253 3.0086 19.8 8.415 13.2967 5.2242 25.5064 3.2442 36.63-5.94 4.4312-2.8482 9.0516-3.1779 13.86-.99 15.4648 12.7997 30.9751 13.1294 46.53.99 3.6808-2.275 7.6408-2.9353 11.88-1.98 4.95 2.97 9.9 5.94 14.85 8.91 9.3288 3.1482 18.4031 2.3225 27.225-2.475 31.976 31.9829 65.141 62.5076 99.495 91.575-137.2803.6603-274.5597.6603-411.84 0 33.7288-29.4347 66.5636-59.9593 98.505-91.575 9.9168 5.3915 19.9822 5.8865 30.195 1.485 4.2164-3.0888 8.5071-5.8945 12.87-8.415ZM18.335 398.495c157.41-.1653 314.82 0 472.23.495.495.495.99.99 1.485 1.485.791 4.5411.6257 8.9961-.495 13.365-157.7397.6603-315.4803.6603-473.22 0-1.2965-5.1143-1.2965-10.2297 0-15.345Zm59.4 48.51c32.0117-.1653 64.0213 0 96.03.495 4.2105 3.3858 5.0361 7.5111 2.475 12.375-1.1593 1.3791-2.6443 2.2047-4.455 2.475-30.69.6603-61.38.6603-92.07 0-5.3514-1.9602-7.1665-5.7559-5.445-11.385 1.3618-1.1929 2.5169-2.5126 3.465-3.96Zm203.94 14.85c32.0116-.1653 64.0213 0 96.03.495 5.6371 5.8034 4.9767 10.7534-1.98 14.85-30.69.6603-61.38.6603-92.07 0-5.6014-1.8107-7.4171-5.6064-5.445-11.385.6831-1.8315 1.8374-3.1522 3.465-3.96Zm121.77 0c10.2356-.1643 20.4653 0 30.69.495 1.8147.495 2.97 1.6503 3.465 3.465 1.9721 5.7786.1564 9.5743-5.445 11.385-8.91.6603-17.82.6603-26.73 0-7.0231-4.2639-7.6824-9.3793-1.98-15.345Z" stroke="#44739e" stroke-width="4" fill="none"/>
</svg>