<svg xmlns="http://www.w3.org/2000/svg" viewBox="0 0 512 512">
	<path d="M 254.5,15.5 C 334.358,18.648 392.192,55.648 428,126.5C 430.509,133.13 428.342,137.464 421.5,139.5C 419.885,138.846 418.218,138.346 416.5,138C 384.171,71.3116 330.838,35.8116 256.5,31.5C 182.411,35.1457 129.245,70.1457 97,136.5C 82.6422,170.793 79.3089,206.127 87,242.5C 90.041,254.954 93.8743,267.121 98.5,279C 97.2932,285.844 93.2932,288.177 86.5,286C 84.3834,284.269 82.8834,282.102 82,279.5C 54.3852,206.528 65.0519,139.861 114,79.5C 151.966,38.7683 198.799,17.4349 254.5,15.5 Z
M 428.5,153.5 C 432.192,152.971 435.358,153.971 438,156.5C 449.393,199.968 446.06,242.302 428,283.5C 423.924,287.034 419.591,287.367 415,284.5C 414.015,282.634 413.515,280.634 413.5,278.5C 420.672,260.477 425.505,241.811 428,222.5C 429.665,201.917 428.165,181.584 423.5,161.5C 423.672,157.807 425.339,155.141 428.5,153.5 Z
M 511.5,359.5 C 511.5,362.167 511.5,364.833 511.5,367.5C 509.99,368.836 508.323,370.003 506.5,371C 339.167,371.667 171.833,371.667 4.5,371C 2.67694,370.003 1.01027,368.836 -0.5,367.5C -0.5,364.833 -0.5,362.167 -0.5,359.5C 0.316435,357.856 1.64977,356.69 3.5,356C 6.95553,355.82 10.2889,355.153 13.5,354C 42.9852,339.098 71.3186,322.431 98.5,304C 108.349,296.574 118.015,288.907 127.5,281C 131.598,278.114 135.931,277.781 140.5,280C 143.367,284.591 143.034,288.924 139.5,293C 110.335,316.81 79.0014,337.476 45.5,355C 185.833,355.667 326.167,355.667 466.5,355C 416.266,328.77 371.099,295.603 331,255.5C 322.231,261.265 313.731,267.432 305.5,274C 303.1,275.701 300.433,276.534 297.5,276.5C 283.65,272.912 269.817,269.246 256,265.5C 243.444,268.764 230.944,272.264 218.5,276C 215.833,276.667 213.167,276.667 210.5,276C 200.639,268.639 190.639,261.473 180.5,254.5C 174.681,259.818 169.015,265.318 163.5,271C 153,273.833 149.167,270 152,259.5C 180.888,231.631 206.388,201.131 228.5,168C 234.474,166.143 240.141,166.977 245.5,170.5C 252.388,165.2 259.221,165.2 266,170.5C 271.559,167.075 277.392,166.242 283.5,168C 289.057,175.225 294.224,182.725 299,190.5C 300.167,198.667 296.667,202.167 288.5,201C 287.069,200.535 285.903,199.701 285,198.5C 282.148,193.451 278.814,188.784 275,184.5C 268.366,188.772 262.033,188.438 256,183.5C 249.934,188.453 243.601,188.787 237,184.5C 228.099,195.958 219.432,207.624 211,219.5C 204.873,227.295 198.373,234.795 191.5,242C 199.491,248.671 207.991,254.505 217,259.5C 230,255.833 243,252.167 256,248.5C 268.498,251.999 280.998,255.499 293.5,259C 295.167,259.667 296.833,259.667 298.5,259C 305.833,253.667 313.167,248.333 320.5,243C 314.88,236.258 309.38,229.425 304,222.5C 302.833,214.333 306.333,210.833 314.5,212C 328.744,227.916 343.411,243.582 358.5,259C 404.016,301.075 455.016,334.575 511.5,359.5 Z
M 10.5,408.5 C 95.1673,408.333 179.834,408.5 264.5,409C 268.624,409.982 270.624,412.648 270.5,417C 270.302,420.401 268.635,422.734 265.5,424C 180.167,424.667 94.8333,424.667 9.5,424C 6.48396,422.471 5.15062,419.971 5.5,416.5C 5.54596,412.793 7.21263,410.127 10.5,408.5 Z
M 380.5,408.5 C 397.837,408.333 415.17,408.5 432.5,409C 437.069,411.541 438.569,415.375 437,420.5C 435.786,422.049 434.286,423.215 432.5,424C 414.833,424.667 397.167,424.667 379.5,424C 374.465,420.987 373.298,416.82 376,411.5C 377.409,410.219 378.909,409.219 380.5,408.5 Z
M 231.5,445.5 C 255.169,445.333 278.836,445.5 302.5,446C 307.752,449.086 308.752,453.253 305.5,458.5C 304.335,459.584 303.002,460.417 301.5,461C 278.5,461.667 255.5,461.667 232.5,461C 224.851,456.257 224.518,451.09 231.5,445.5 Z
M 269.5,479.5 C 348.167,479.333 426.834,479.5 505.5,480C 508.366,481.393 509.699,483.726 509.5,487C 509.668,491.833 507.335,494.5 502.5,495C 426.167,495.667 349.833,495.667 273.5,495C 264.593,491.873 263.259,486.706 269.5,479.5 Z" stroke="#44739e" stroke-width="4" fill="none"/>
</svg>