<svg xmlns="http://www.w3.org/2000/svg" viewBox="0 0 512 512">
	<path d="M122.285 1.505c10.5603 0 21.1197 0 31.68 0 32.4185 4.7423 59.6435 19.2622 81.675 43.56 3.1829 8.9891.0475 13.1141-9.405 12.375-38.8595-40.5083-84.3995-50.4083-136.62-29.7-40.9646 21.5131-62.4146 55.5031-64.35 101.97 2.0539 48.0289 24.4938 82.6789 67.32 103.95 22.3691 9.5951 45.4687 11.9048 69.3 6.93 2.0008-.5079 3.4858-1.6632 4.455-3.465 14.1263-22.6354 26.9963-46.0657 38.61-70.29 10.9454-16.4469 26.2904-25.3569 46.035-26.73 1.5276-21.2335-2.1018-41.5282-10.89-60.885.6059-4.7327 3.2452-7.2077 7.92-7.425 2.4017-.0955 4.5471.5645 6.435 1.98 10.1683 21.3064 14.2926 43.7461 12.375 67.32 16.3112 3.2848 29.0159 11.8642 38.115 25.74 14.0857 29.1733 29.9257 57.224 47.52 84.15 5.4747-8.0933 12.8997-13.3729 22.275-15.84 2.7482.302 5.2232 1.292 7.425 2.97 2.0434-1.0801 4.1887-1.2454 6.435-.495 10.7663 8.3477 15.7163 19.403 14.85 33.165 12.573.9167 22.3077 6.5271 29.205 16.83.7039 2.375.5386 4.6847-.495 6.93 2.6611 4.9678 2.4968 9.9178-.495 14.85-4.9995 7.6388-11.7642 13.0838-20.295 16.335 1.6315 4.7441 3.7769 9.1991 6.435 13.365 12.9977 15.3094 26.3627 30.3247 40.095 45.045 12.87.3297 25.74.6603 38.61.99 6.1915 2.0641 10.1515 6.1895 11.88 12.375 0 8.5803 0 17.1597 0 25.74-2.6403 3.6303-2.6403 7.2597 0 10.89 0 20.4603 0 40.9197 0 61.38-1.6315 5.5737-4.9322 9.8634-9.9 12.87-162.36 0-324.72 0-487.08 0-4.9804-3.0462-8.2804-7.3359-9.9-12.87 0-20.4603 0-40.9197 0-61.38 2.64-3.6303 2.64-7.2597 0-10.89 0-8.5803 0-17.1597 0-25.74 1.7288-6.1855 5.6888-10.3109 11.88-12.375 12.87-.3297 25.74-.6603 38.61-.99 12.3936-13.5472 24.6037-27.2428 36.63-41.085 4.1629-3.9065 8.2879-3.9065 12.375 0 1.4424 2.8373 1.7721 5.8073.99 8.91-8.822 11.189-18.227 21.9136-28.215 32.175 120.78.6603 241.56.6603 362.34 0-7.8012-8.2922-15.3915-16.7072-22.77-25.245-2.2324 3.8887-5.5321 6.1994-9.9 6.93-2.4908 4.0491-6.1202 5.6984-10.89 4.95-14.5985-1.0237-25.8192-7.624-33.66-19.8-11.2563 7.4319-23.467 9.5773-36.63 6.435-6.142-.8613-9.607-4.3263-10.395-10.395-2.7373-1.086-4.3867-3.066-4.95-5.94-.8702-13.066 3.2551-24.2857 12.375-33.66-6.631-7.6685-10.591-16.5785-11.88-26.73.0634-4.358 1.879-7.6576 5.445-9.9 1.1187-6.3994 4.9144-10.194 11.385-11.385 4.5768-.9484 9.1971-1.6087 13.86-1.98-2.5116-2.8769-4.657-6.0123-6.435-9.405-3.7927-3.5917-8.2477-4.747-13.365-3.465-5.7836 3.7165-11.3939 7.6765-16.83 11.88-8.5803 3.2997-17.1597 3.2997-25.74 0-5.4361-4.2035-11.0464-8.1635-16.83-11.88-2.6403-.6603-5.2797-.6603-7.92 0-5.7836 3.7165-11.3939 7.6765-16.83 11.88-8.5803 3.2997-17.1597 3.2997-25.74 0-5.4361-4.2035-11.0464-8.1635-16.83-11.88-5.1173-1.282-9.5723-.1267-13.365 3.465-17.3963 27.6982-36.3706 54.2629-56.925 79.695-6.6449 2.6176-10.9346.4722-12.87-6.435.5485-2.0889 1.3741-4.0689 2.475-5.94 14.2689-18.3942 27.9645-37.2042 41.085-56.43-54.0357 2.9304-95.7807-18.1903-125.235-63.36-21.2094-39.7921-22.8594-80.3821-4.95-121.77C43.3401 33.0579 76.8352 8.9679 122.285 1.505Zm128.7 153.45c14.7886-.2762 27.1636 5.0045 37.125 15.84 10.0178 19.2129 20.4128 38.1883 31.185 56.925-8.9298 1.9879-16.5201 6.2786-22.77 12.87-5.2797 3.2997-10.5603 3.2997-15.84 0-9.6278-10.987-21.5078-14.6173-35.64-10.89-6.8666 3.9006-13.467 8.1903-19.8 12.87-2.6403.6603-5.2797.6603-7.92 0-4.3144-2.4879-8.2744-5.4579-11.88-8.91-4.6253-2.8086-9.5753-4.7886-14.85-5.94 10.7722-18.7367 21.1672-37.7121 31.185-56.925 8.0527-8.5605 17.7873-13.8412 29.205-15.84Zm119.79 99c1.679.1832 2.9987 1.0088 3.96 2.475 3.662.3307 7.127.496 10.395.495 2.6403 7.0963 3.1353 14.356 1.485 21.78.0554 2.5849 1.0454 4.7302 2.97 6.435 5.1688 1.2197 10.4485 1.88 15.84 1.98 3.3403.5158 6.3103 1.8355 8.91 3.96-1.2058 1.4236-1.8662 3.074-1.98 4.95.6801 3.0126 1.5048 5.8172 2.475 8.415-5.9717 5.6222-13.067 8.7575-21.285 9.405-2.7373 2.9651-3.562 6.43-2.475 10.395 6.5914 6.5736 9.2317 14.4936 7.92 23.76-2.4285-.4366-4.9035.0584-7.425 1.485-1.5216 1.0989-2.181 2.5839-1.98 4.455-7.9744-1.2702-13.7491-5.5608-17.325-12.87-1.1444-3.5868-2.1344-7.2161-2.97-10.89-7.4646-5.6588-13.0739-4.0095-16.83 4.95-6.2152 5.8677-13.6402 8.5081-22.275 7.92.2-2.4641-.295-4.7748-1.485-6.93-1.7622-1.7751-3.5769-3.4254-5.445-4.95 2.9116-8.6873 8.6863-14.6273 17.325-17.82 1.98-3.6303 1.98-7.2597 0-10.89-3.9075-2.2572-7.5369-4.8975-10.89-7.92-1.9404-3.0541-3.7551-6.1895-5.445-9.405 5.444-1.8028 7.7537-5.5984 6.93-11.385 7.1042-.6989 13.7046.7861 19.8 4.455 3.6432 1.0167 6.7785.1921 9.405-2.475 1.091-8.4506 4.556-15.7103 10.395-21.78ZM17.345 400.475c158.4 0 316.8 0 475.2 0 .3089 6.8528-.0208 13.6184-.99 20.295-157.7397.6603-315.4803.6603-473.22 0-.969-6.6766-1.2991-13.4422-.99-20.295Zm0 35.64c158.4 0 316.8 0 475.2 0 0 19.1397 0 38.2803 0 57.42-158.4 0-316.8 0-475.2 0 0-19.1397 0-38.2803 0-57.42Zm394.02-337.59c7.2676-.1646 14.5273.0003 21.78.495 17.5814 5.5598 25.5014 17.6052 23.76 36.135 13.8313 4.6906 21.091 14.4253 21.78 29.205-.7059 14.8945-7.9665 25.1242-21.78 30.69-11.5048 1.0999-23.0541 1.5949-34.65 1.485-11.5959.1099-23.1452-.3851-34.65-1.485-18.6664-8.7932-25.1014-23.1482-19.305-43.065 3.8669-8.6585 10.3019-14.2679 19.305-16.83-1.5246-18.5625 6.3954-30.7732 23.76-36.63Zm2.97 15.84c21.5988-3.3244 29.8495 5.4202 24.75 26.235.0416 1.9473.5366 3.763 1.485 5.445 4.9193 2.179 10.0336 3.9937 15.345 5.445 8.8555 8.217 9.1852 16.7963.99 25.74-2.1948 1.2622-4.5055 2.2523-6.93 2.97-18.4803.6603-36.9597.6603-55.44 0-10.7375-3.8204-14.5332-11.2454-11.385-22.275 1.4434-2.4354 3.2581-4.5807 5.445-6.435 5.3114-1.4513 10.4257-3.266 15.345-5.445.9484-1.682 1.4434-3.4977 1.485-5.445-4.9352-11.7681-1.9651-20.5128 8.91-26.235Zm-47.52 170.28c5.0836-1.0633 8.8783.5871 11.385 4.95 0 3.96 0 7.92 0 11.88 3.7343 4.1293 4.3946 8.7486 1.98 13.86-5.1827 3.0314-9.802 2.371-13.86-1.98-10.6821 2.5186-14.6421-1.4414-11.88-11.88 2.3097-1.3197 4.6203-2.6403 6.93-3.96.4802-4.9381 2.2948-9.2278 5.445-12.87Zm-305.91 165.33c38.2814-.1653 76.5616 0 114.84.495 4.5461 2.7482 5.7004 6.5429 3.465 11.385-1.3058 1.9671-3.1205 3.1225-5.445 3.465-36.9597.6603-73.92.6603-110.88 0-7.1471-4.1243-7.8071-9.2387-1.98-15.345Zm330.66 0c6.9379-.1643 13.8679 0 20.79.495 4.5411 2.7354 5.6965 6.531 3.465 11.385-1.3058 1.9671-3.1205 3.1225-5.445 3.465-5.6103.6603-11.2197.6603-16.83 0-5.3698-1.9968-7.1854-5.7915-5.445-11.385 1.3622-1.1929 2.5166-2.5126 3.465-3.96Zm-188.1 11.88c7.0181-.3802 13.9481.1148 20.79 1.485 4.2362 4.9827 3.9065 9.603-.99 13.86-7.6943.9217-15.2846.592-22.77-.99-4.06-5.8103-3.07-10.596 2.97-14.355Zm234.63 0c7.3725-.4247 14.6332.0703 21.78 1.485 4.161 5.6777 3.171 10.298-2.97 13.86-7.0112.8752-13.9412.5455-20.79-.99-4.3283-5.5361-3.6689-10.3208 1.98-14.355Z" stroke="#44739e" stroke-width="4" fill="none"/>
</svg>