<svg xmlns="http://www.w3.org/2000/svg" viewBox="0 0 512 512">
	<path d="M376.5 474.5c-6.518 5.189-6.518 10.356 0 15.5 30 .667 60 .667 90 0 1.431-.465 2.597-1.299 3.5-2.5 2.702-5.32 1.535-9.487-3.5-12.5-29.998-.5-59.998-.667-90-.5Zm-317-48c-2.7284 1.569-4.5617 3.902-5.5 7-.8146 13.379-.648 26.712.5 40-9.7481.55-19.4147 1.383-29 2.5-4.4258 5.441-3.7591 10.108 2 14 108 .667 216 .667 324 0 6.667-5 6.667-10 0-15-31.332-.5-62.665-.667-94-.5 1.068-12.978 1.234-25.978.5-39-1.952-7.564-6.785-10.397-14.5-8.5-3.333 2.667-6.667 5.333-10 8-4.314 2.66-8.981 4.327-14 5-28.667.333-57.333.667-86 1-5.672 5.954-5.005 10.954 2 15 28.667.667 57.333.667 86 0 7.533-.688 14.367-3.188 20.5-7.5.667 6.667.667 13.333 0 20-.398 2.732-1.898 4.565-4.5 5.5-54.667.667-109.333.667-164 0-1.5488-1.214-2.7155-2.714-3.5-4.5-.8311-7.024-.6644-14.024.5-21 12.4455 7.463 25.7788 9.63 40 6.5 4.279-5.033 3.946-9.7-1-14-7.385-.199-14.7181-.865-22-2-6.8067-3.237-13.1401-7.237-19-12-2.9816-.498-5.9816-.665-9-.5Zm452 1c-1.146-1.975-2.813-3.475-5-4.5-76.333-.667-152.667-.667-229 0-1.167 1.167-2.333 2.333-3.5 3.5-1.724 5.231-.224 9.065 4.5 11.5 76 .667 152 .667 228 0 2.187-1.025 3.854-2.525 5-4.5 0-2 0-4 0-6Zm-512 7c1.5103 1.336 3.1769 2.503 5 3.5 10.6667.667 21.3333.667 32 0 1.4308-.465 2.5975-1.299 3.5-2.5 2.7019-5.32 1.5352-9.487-3.5-12.5-11-.667-22-.667-33 0-1.2051 1.376-2.5384 2.542-4 3.5 0 2.667 0 5.333 0 8Zm182-159c-39.142 33.635-78.475 67.135-118 100.5 128 .667 256 .667 384 0-39.186-33.096-78.186-66.43-117-100-11.871 2.286-23.538 5.62-35 10-5 .667-10 .667-15 0-8.227-3.131-16.561-5.965-25-8.5-7.429 2.198-14.762 4.698-22 7.5-7.333 2-14.667 2-22 0-9.927-3.476-19.927-6.643-30-9.5Zm71-57c-3.176.921-6.176 2.421-9 4.5-15.481 13.57-31.147 26.904-47 40 8.594 2.81 17.26 5.31 26 7.5 10.927-3.299 21.927-6.299 33-9 10.936 2.702 21.769 5.702 32.5 9 8.78-1.76 17.28-4.427 25.5-8-15.626-13.49-31.293-26.99-47-40.5-4.285-2.706-8.952-3.873-14-3.5Zm-146-21c-6.8001 1.932-12.8001 5.432-18 10.5-4.9147-.189-9.7481-1.023-14.5-2.5-9.8333.5-15 5.667-15.5 15.5 2.8243 13.747 10.8243 18.08 24 13 2.3333-.667 4.6667-.667 7 0 3.3866 3.053 7.0533 5.72 11 8 5.667 2 11.333 2 17 0 3.667-2.333 7.333-4.667 11-7 4.637.542 9.304.875 14 1 3.707-.936 6.874-2.769 9.5-5.5 6.475-13.383 2.475-21.716-12-25-4.488.833-8.988 1-13.5.5-5.424-5.645-12.091-8.478-20-8.5Zm-56-35c4.3812 9.762 9.5478 19.095 15.5 28 5.6235-1.295 11.2901-1.295 17 0 3.072-1.787 6.2386-3.453 9.5-5 .7665-7.676 1.4331-15.342 2-23-14.6667 0-29.3333 0-44 0Zm168-31c-5.591 2.068-10.258 5.568-14 10.5-8.694.968-17.36 1.968-26 3-1.541 1.579-2.708 3.413-3.5 5.5-2.148 7.536.352 12.702 7.5 15.5 7 .333 14 .667 21 1 2.211 1.721 4.211 3.721 6 6 16.664 8.42 27.497 3.587 32.5-14.5.848-16.647-6.985-25.647-23.5-27Zm-90-22c-6.228 11.627-11.228 23.794-15 36.5 5.033.829 10.033.662 15-.5 5.607-11.547 10.941-23.214 16-35-5.292-.995-10.625-1.328-16-1Zm251-31c5.59 6.322 10.59 13.1554 15 20.5 10 .6667 20 .6667 30 0 3.025-.1335 5.692-1.1335 8-3 4.94-7.439 3.606-13.439-4-18-16.505-.8282-32.839-.6615-49 .5Zm-217-41c-5.106 1.2196-9.773 3.553-14 7-3.468 4.7802-6.802 9.6135-10 14.5-4.483.7312-8.817.2312-13-1.5-4.584.0804-8.084 2.0804-10.5 6-.908 10.0512-6.408 14.2179-16.5 12.5-9.1868 5.8245-9.1868 11.4912 0 17 42.333.6667 84.667.6667 127 0 9.265-5.5708 9.265-11.2375 0-17-4.451-.1298-8.784-.7964-13-2-2.181-3.8722-3.681-8.0389-4.5-12.5-2.567-3.2831-5.9-5.2831-10-6-3.239 1.4004-6.405 1.2338-9.5-.5-5.314-10.8137-13.98-16.647-26-17.5Zm349 160c-3.667-10.493-11-16.993-22-19.5-12.347-.167-24.68-.667-37-1.5 2.624-16.544-4.043-27.378-20-32.5-6.658-.5-13.325-.666-20-.5-2.042-9.96-5.376-19.46-10-28.5 10-.333 20-.667 30-1 9.934-2.933 16.1-9.433 18.5-19.5 2.296-16.257-4.204-27.0904-19.5-32.5-19-.6667-38-.6667-57 0-2.5.3747-4.833 1.2081-7 2.5-7.525-6.0252-15.191-11.8585-23-17.5-10.266-1.2412-13.6 2.9255-10 12.5 30.596 20.5182 50.93 48.518 61 84-27.669-.167-55.335 0-83 .5-10.394 2.726-17.227 9.226-20.5 19.5-2.664 15.511 3.17 26.344 17.5 32.5 15.617 1.42 31.284 1.92 47 1.5-2.309 10.624.357 19.79 8 27.5 8.411 5.87 17.744 8.037 28 6.5-6.327 18.966-16.327 35.633-30 50-29.106-23.603-57.773-47.77-86-72.5-14.579-8.907-28.913-8.573-43 1-27.885 24.222-56.051 48.056-84.5 71.5-8.287-7.631-15.121-16.465-20.5-26.5 1.317-1.659 2.983-2.826 5-3.5 6.442 1.357 12.775.857 19-1.5 16.02-8.548 21.853-21.714 17.5-39.5-7.412-16.628-20.245-23.794-38.5-21.5-6.386-4.185-13.386-6.685-21-7.5-1.155-6.334-1.155-12.668 0-19 16.333 0 32.667 0 49 0 1.853 8.026 6.519 13.859 14 17.5 7.509 2.033 15.175 3.033 23 3 1.708 2.043 3.708 3.71 6 5 22.809 11.093 40.309 5.593 52.5-16.5 6.865-19.355 2.698-35.855-12.5-49.5-16.689-9.908-32.022-8.242-46 5-7.411.108-14.745.775-22 2-8.09 3.252-13.09 9.085-15 17.5-4.384.326-8.717-.008-13-1 5.333-11.667 10.667-23.333 16-35 21.992-.833 43.992-1.333 66-1.5 9.301-1.967 15.468-7.467 18.5-16.5 3.175-18.3355-4.325-29.6688-22.5-34-2.51-6.1786-6.51-11.1786-12-15 33.578-10.2746 66.745-8.9413 99.5 4 2.7-.2305 5.033-1.2305 7-3 2.348-4.248 1.848-8.0814-1.5-11.5-41.245-16.4691-82.578-16.6357-124-.5-5.739-4.2028-12.072-7.3695-19-9.5-18.769-3.7497-33.436 2.2503-44 18-14.299-.8583-24.633 4.9751-31 17.5-10.6479 2.1556-18.1479 8.1556-22.5 18-3.6257 14.4759 1.2076 24.976 14.5 31.5 6.2697 1.152 12.603 1.818 19 2-6.22 11.493-10.5533 23.66-13 36.5-31.3351-.167-62.6684 0-94 .5-1.5267 1.032-2.86 2.199-4 3.5 0 2.667 0 5.333 0 8 1.5103 1.336 3.1769 2.503 5 3.5 9.0184.168 18.0184.668 27 1.5 6.467 11.629 13.1337 23.129 20 34.5-8.036 8.636-10.8693 18.803-8.5 30.5 7.1944 19.43 20.861 26.763 41 22 8.2485 6.75 17.748 9.916 28.5 9.5 6.561 11.623 14.227 22.457 23 32.5-32.161 27.991-64.4941 55.824-97 83.5-11.6667.333-23.3333.667-35 1-1.8502.69-3.1836 1.856-4 3.5 0 2.667 0 5.333 0 8 1.5103 1.336 3.1769 2.503 5 3.5 167 .667 334 .667 501 0 2.754-.599 4.754-2.099 6-4.5 0-2 0-4 0-6-1.096-1.603-2.43-3.103-4-4.5-11.333-.333-22.667-.667-34-1-32.778-27.144-65.278-54.644-97.5-82.5-.667-.667-.667-1.333 0-2 15.576-17.48 26.743-37.48 33.5-60 9.773.448 19.439-.052 29-1.5 4-4.333 4-8.667 0-13-20.308-1.012-40.642-2.012-61-3-5.333-3.663-6.833-8.497-4.5-14.5 7.431-5.068 8.265-10.902 2.5-17.5-20.731-.034-41.398-.701-62-2-1.431-.465-2.597-1.299-3.5-2.5-4.633-7.98-2.8-13.814 5.5-17.5 38-.667 76-.667 114 0 8.018 3.872 9.851 9.706 5.5 17.5-6.037 3.974-6.87 8.807-2.5 14.5 18.243 1.308 36.576 1.974 55 2 1.333.667 2.667 1.333 4 2 5.548 6.292 5.215 12.292-1 18-10.026.973-20.026 1.973-30 3-4.426 5.441-3.759 10.108 2 14 9 .667 18 .667 27 0 11-2.507 18.333-9.007 22-19.5 0-4.667 0-9.333 0-14Z" stroke="#44739e" stroke-width="4" fill="none"/>
</svg>