<svg xmlns="http://www.w3.org/2000/svg" viewBox="0 0 512 512">
	<path d="M354.31 9.35c59.9094-3.8518 103.5194 20.6482 130.83 73.5 19.8842 51.2158 12.0442 97.6031-23.52 139.16-30.3967 29.7332-66.8193 42.3095-109.27 37.73 9.3129 15.9936 18.7856 31.8363 28.42 47.53 12.0481-16.4718 27.4018-20.2292 46.06-11.27 1.5121 1.8404 3.3085 3.3104 5.39 4.41 10.778-2.8538 20.4144-.7311 28.91 6.37 25.9083 1.4063 37.1783 14.9636 33.81 40.67-7.9478 19.5716-22.1578 26.4316-42.63 20.58-9.2336 2.7714-18.3799 2.4451-27.44-.98-2.7695.5958-5.3822 1.5758-7.84 2.94 12.493 22.0471 25.233 43.9344 38.22 65.66 9.3159 2.9429 18.4632 6.3729 27.44 10.29 6.3661 4.0699 10.4488 9.7873 12.25 17.15.931 10.2243.6047 20.3507-.98 30.38-.735.6135-1.5523 1.1035-2.45 1.47-159.4137.6537-318.8263.6537-478.24 0-.8979-.3665-1.7146-.8565-2.45-1.47-1.5848-10.0293-1.9115-20.1557-.98-30.38 3.1748-12.6479 10.8515-21.3052 23.03-25.97 5.8192-1.5562 11.6992-2.8626 17.64-3.92 37.2891-61.9948 73.7127-124.5511 109.27-187.67 8.0781-17.0461 14.6118-34.6861 19.6-52.92 5.095-20.7789 9.3414-41.6853 12.74-62.72 3.038-5.194 7.448-8.624 13.23-10.29 13.3897-.49 26.7824-.6537 40.18-.49 7.5568-49.2088 34.3431-83.3455 80.36-102.41 9.4031-3.2481 18.8768-5.6981 28.42-7.35Zm14.7 15.68c59.7516 4.3081 96.1752 35.6681 109.27 94.08 4.3522 53.5394-17.3705 92.2494-65.17 116.13-22.4567 8.919-45.4867 10.7163-69.09 5.39-12.3833-24.7401-20.8769-50.8738-25.48-78.4-1.4671-9.1238-2.7734-18.2701-3.92-27.44-2.45-7.6763-7.5137-12.74-15.19-15.19-12.4088-.49-24.8224-.6537-37.24-.49 9.459-49.1503 38.5326-79.6937 87.22-91.63 6.6718-.8656 13.2055-1.6823 19.6-2.45ZM212.21 134.79c27.8291-.4655 55.5954.0245 83.3 1.47 1.9473 1.2926 3.0909 3.089 3.43 5.39 3.5721 36.3384 12.8821 71.1284 27.93 104.37-1.911 3.9857-4.1973 7.742-6.86 11.27-3.1517 2.7636-5.928 2.4373-8.33-.98-3.3222-8.9317-6.9159-17.7517-10.78-26.46-7.156-9.2022-16.1396-11.3259-26.95-6.37-3.6201 2.6333-6.0701 6.0633-7.35 10.29-4.3718 20.8799-8.6191 41.7862-12.74 62.72-.3018.7918-.7918 1.4455-1.47 1.96-5.1548-26.3532-9.8911-52.8132-14.21-79.38-4.1621-11.958-12.4921-16.368-24.99-13.23-3.6662 1.7032-6.7698 4.1532-9.31 7.35-6.2828 12.8929-12.8164 25.6329-19.6 38.22-3.9719 4.6246-8.5446 8.5446-13.72 11.76 19.1825-39.2725 31.2698-80.7589 36.26-124.46 1.47-1.9296 3.2663-3.236 5.39-3.92Zm5.88 87.22c2.8302-.2744 4.3002 1.0319 4.41 3.92 4.2561 26.5188 8.8298 52.9788 13.72 79.38 7.2677 10.5399 16.5777 12.6636 27.93 6.37 1.5905-2.0384 3.0605-4.1611 4.41-6.37 4.948-21.8001 9.5217-43.6874 13.72-65.66.3802-.9094 1.0339-1.5631 1.96-1.96 1.9855.9996 3.2918 2.6333 3.92 4.9 2.94 7.5137 5.88 15.0263 8.82 22.54 8.4182 11.4758 19.0345 13.9258 31.85 7.35 2.4941-2.3285 4.7804-4.7785 6.86-7.35 9.605 16.6247 19.405 33.1211 29.4 49.49-7.4108 6.1662-11.3308 14.1698-11.76 24.01.9241 14.1385 7.7841 24.1021 20.58 29.89 7.4999 1.5925 15.0126 1.9188 22.54.98 12.3333 20.091 24.4196 40.3446 36.26 60.76-22.6164-3.9602-45.4828-6.2465-68.6-6.86-8.9533-2.6813-16.4669-7.5813-22.54-14.7-24.6029-12.8341-46.4892-9.2414-65.66 10.78-3.1105 1.6905-6.3769 2.9968-9.8 3.92-20.2233 1.5357-40.4769 1.863-60.76.98-4.5531-.3195-8.7994-1.6268-12.74-3.92-4.2806-3.9523-8.2006-8.1987-11.76-12.74-19.3717-15.5448-40.6043-18.4848-63.7-8.82-4.4178 2.6979-8.6642 5.6379-12.74 8.82-4.2689 5.2469-8.842 10.1469-13.72 14.7-5.4153 3.5476-11.2953 5.5076-17.64 5.88 28.3004-47.2879 56.2304-94.8179 83.79-142.59 14.944-2.7362 27.684-9.5962 38.22-20.58 8.4368-13.9327 16.1141-28.3063 23.03-43.12Zm186.2 86.24c3.283-.1617 6.5493.002 9.8.49 4.5737 2.9518 8.82 6.2191 12.74 9.8 3.1213.3802 6.0613-.2734 8.82-1.96 3.2663-.6537 6.5337-.6537 9.8 0 3.5378 1.9051 6.8041 4.1915 9.8 6.86 4.5737.3263 9.1463.6537 13.72.98 10.0185 5.1891 12.4685 12.8654 7.35 23.03-3.1419 3.9396-7.2246 5.8996-12.25 5.88-4.066-.3998-7.986-1.3798-11.76-2.94-2.4774.2577-4.7638 1.0741-6.86 2.45-3.2663.6537-6.5337.6537-9.8 0-3.2752-2.4647-6.8688-4.261-10.78-5.39-3.9112 1.129-7.5048 2.9253-10.78 5.39-1.6337.1637-3.2663.3263-4.9.49-4.066-.3998-7.986-1.3798-11.76-2.94-3.774 1.5602-7.694 2.5402-11.76 2.94-13.5103-2.1962-17.9203-9.7089-13.23-22.54 5.0225-5.7634 11.3925-8.5397 19.11-8.33 2.4069-2.3598 4.2032-5.1362 5.39-8.33 2.0717-2.5686 4.5217-4.5286 7.35-5.88ZM133.81 410.17c12.4029-2.1217 23.5102.6546 33.32 8.33 5.6379 7.5999 12.4979 13.8072 20.58 18.62 2.8469 1.2603 5.7869 2.2403 8.82 2.94 24.1737.6537 48.3463.6537 72.52 0 11.1083-2.7773 20.581-8.33 28.42-16.66 11.76-7.1863 23.52-7.1863 35.28 0 6.8933 7.2206 15.0597 12.447 24.5 15.68 12.6587 1.8287 25.3987 2.8087 38.22 2.94 26.6276 2.3285 52.4349 8.2085 77.42 17.64 5.6409 5.4321 7.9272 12.1285 6.86 20.09-151.5737 0-303.1463 0-454.72 0-1.2358-10.1891 2.0309-18.5191 9.8-24.99 2.4082-1.5308 5.0215-2.5108 7.84-2.94 16.4822-2.9694 32.8155-6.5631 49-10.78 4.2416-1.7924 8.1616-4.0788 11.76-6.86 5.5537-6.86 11.76-13.0663 18.62-18.62 3.8955-2.1031 7.8155-3.9004 11.76-5.39ZM56.39 158.31c11.762-1.9012 22.052 1.0388 30.87 8.82 10.778-2.8538 20.4144-.7311 28.91 6.37 21.2111.1411 32.9711 10.7575 35.28 31.85-1.8414 19.8097-12.6214 30.2634-32.34 31.36-4.0768.1558-7.9968-.4978-11.76-1.96-9.2333 2.7714-18.3799 2.4451-27.44-.98-9.0601 3.4251-18.2067 3.7514-27.44.98-18.8947 5.633-32.778-.247-41.65-17.64-5.5519-23.0369 3.1047-37.5732 25.97-43.61 4.7042-7.4872 11.2375-12.5509 19.6-15.19Zm2.94 16.66c3.2829-.1617 6.5495.002 9.8.49 4.5733 2.9518 8.82 6.2191 12.74 9.8 3.1209.3802 6.0609-.2734 8.82-1.96 3.2666-.6537 6.5334-.6537 9.8 0 3.5378 1.9051 6.8041 4.1915 9.8 6.86 4.5737.3263 9.1463.6537 13.72.98 10.0185 5.1891 12.4685 12.8654 7.35 23.03-3.1419 3.9396-7.2246 5.8996-12.25 5.88-4.066-.3998-7.986-1.3798-11.76-2.94-2.4774.2577-4.7638 1.0741-6.86 2.45-3.2666.6537-6.5334.6537-9.8 0-3.275-2.4647-6.8683-4.261-10.78-5.39-3.9117 1.129-7.505 2.9253-10.78 5.39-1.6334.1637-3.2666.3263-4.9.49-4.0663-.3998-7.9863-1.3798-11.76-2.94-3.7737 1.5602-7.6937 2.5402-11.76 2.94-13.5104-2.1962-17.9204-9.7089-13.23-22.54 5.0228-5.7634 11.3928-8.5397 19.11-8.33 2.407-2.3598 4.2036-5.1362 5.39-8.33 2.0718-2.5686 4.5218-4.5286 7.35-5.88Z" stroke="#44739e" stroke-width="4" fill="none"/>
</svg>