<svg xmlns="http://www.w3.org/2000/svg" viewBox="0 0 512 512">
	<path d="M264.5 126.5c-46.305 2.41-77.471 25.41-93.5 69-7.558 28.028-4.058 54.528 10.5 79.5-9.873 7.526-20.04 14.692-30.5 21.5-.923 1.534-1.423 3.201-1.5 5 2.205 8.461 7.205 10.627 15 6.5 28.551-18.775 56.217-38.775 83-60 10.923 1.041 21.923 1.708 33 2 1 .333 2 .667 3 1 10.73 11.399 22.063 22.066 34 32 38.716 28.528 81.049 50.528 127 66-12.888 4.169-25.888 4.503-39 1-11.121-4.929-22.454-9.262-34-13-10.033-2.323-18.033.677-24 9-3.991-.158-7.991-.658-12-1.5-5.884-.283-9.718 2.384-11.5 8-.26 3.75-.927 7.416-2 11-3.315 3.605-6.982 3.939-11 1-1.873-6.356-3.873-12.689-6-19-3.655-7.238-9.488-9.738-17.5-7.5-3.21 2.104-6.543 3.937-10 5.5-2.995-1.164-5.995-2.33-9-3.5-2.667-.667-5.333-.667-8 0-4.951 2.618-8.951 6.284-12 11-1.109.638-2.275 1.138-3.5 1.5-5.49-3.485-10.99-6.985-16.5-10.5-6.177-1.918-12.511-2.752-19-2.5-16.364-.822-30.864 3.844-43.5 14-9.316-5.827-19.482-9.161-30.5-10-14.624 1.818-28.957 4.985-43 9.5-6.2931 1.275-12.6264 1.608-19 1 18.9283-6.963 37.262-15.296 55-25 2.264-1.779 3.597-4.113 4-7-2.069-8.406-7.069-10.739-15-7-25.7304 14.029-52.7304 25.029-81 33-1.786.785-3.286 1.951-4.5 3.5-2.2919 6.781-.1252 11.614 6.5 14.5 20.8591 4.991 41.8591 5.991 63 3 10.575-3.859 21.409-6.692 32.5-8.5 4.23.556 8.397 1.39 12.5 2.5 4.441 2.772 9.108 5.106 14 7 3.333.667 6.667.667 10 0 6.635-3.652 13.302-7.319 20-11 10.597-2.821 21.264-3.154 32-1 4.314 3.824 8.981 7.157 14 10 11.46 3.624 20.794.624 28-9 4.676.031 9.342.531 14 1.5 4.47-.535 8.804-1.535 13-3 .044 11.262 5.044 19.429 15 24.5 18.162 5.177 29.329-1.323 33.5-19.5 9.827 2.724 17.66-.109 23.5-8.5 2.333-.667 4.667-.667 7 0 10.44 4.886 21.106 9.22 32 13 24.895 4.408 48.895 1.408 72-9 7.554-6.003 7.554-12.003 0-18-47.476-12.91-91.476-33.076-132-60.5 3.674-5.344 6.84-11.01 9.5-17 11.381-30.1 9.715-59.433-5-88-1.167-2.5-3-4.333-5.5-5.5-6.667-1.333-10.667 1.334-12 8 3.889 8.287 7.389 16.787 10.5 25.5 6.264 24.005 2.264 46.005-12 66-12.387-9.38-23.887-19.88-34.5-31.5-2-1-4-2-6-3-12.367-.986-24.701-2.152-37-3.5-4.241-.247-8.241.587-12 2.5-13.463 11.23-27.463 21.73-42 31.5-.586-.209-1.086-.543-1.5-1-11.626-20.297-13.959-41.631-7-64 18.977-45.406 52.477-62.572 100.5-51.5 7.284 2.98 14.451 6.147 21.5 9.5 2.887-.403 5.221-1.736 7-4 2.276-6.296.443-11.13-5.5-14.5-14.87-7.134-30.537-11.301-47-12.5Z" stroke="#44739e" stroke-width="4" fill="none"/>
</svg>