<svg xmlns="http://www.w3.org/2000/svg" viewBox="0 0 512 512">
	<path d="M127.5-.5c.667 0 1.333 0 2 0 20.357 18.522 41.191 36.522 62.5 54 10.137-13.0656 23.47-18.7323 40-17 15.811-7.9818 31.645-7.9818 47.5 0 12.898-1.6452 24.065 2.0215 33.5 11 .5-14.6629.667-29.3295.5-44 75.798 14.7926 124.131 59.4592 145 134-17.991.833-35.991 1.333-54 1.5 8.468 11.056 13.635 23.556 15.5 37.5 6.234 59.389-6.266 114.389-37.5 165-18.176-12.588-36.176-25.421-54-38.5-1.717-1.559-3.717-2.392-6-2.5-.166 9.672 0 19.339.5 29 9.164 2.823 16.331 8.323 21.5 16.5 24.087 6.022 48.087 12.355 72 19 18.965 8.974 30.465 23.807 34.5 44.5 4.642 33.99 9.142 67.99 13.5 102-139.333 0-278.667 0-418 0 4.5447-33.313 9.0447-66.647 13.5-100 3.5204-22.853 16.0204-38.686 37.5-47.5 22.812-5.911 45.645-11.745 68.5-17.5 2.774-3.778 5.941-7.278 9.5-10.5 3.874-2.937 8.207-4.771 13-5.5.166-10.339 0-20.672-.5-31-19.399 14.403-39.066 28.403-59 42-29.5874-47.683-42.5874-99.683-39-156 2.2041-33.823 18.704-57.323 49.5-70.5-16.663-.5-33.33-.667-50-.5 0-6 0-12 0-18 20.336.1666 40.669 0 61-.5 2.63-3.6317 5.63-6.965 9-10-21.076-7.8588-42.41-15.0255-64-21.5.9835-5.454 2.4835-10.7873 4.5-16 .561-.5219 1.228-.8552 2-1 22 7.3333 44 14.6667 66 22 2.145-2.1449 4.312-4.3116 6.5-6.5-18.537-16.8725-37.37-33.3725-56.5-49.5-.667-1-.667-2 0-3 3.002-3.8338 6.169-7.5005 9.5-11Zm203 26c9.659 2.6087 18.992 6.1087 28 10.5-5.874 10.249-11.874 20.4157-18 30.5-2.995-2.825-6.162-5.4917-9.5-8-.5-10.995-.667-21.995-.5-33Zm43 20c13.209 8.5394 24.876 18.8727 35 31-14.301 9.1559-28.968 17.8225-44 26-3.574-6.6151-8.241-12.4484-14-17.5 7.805-13.1122 15.471-26.2789 23-39.5Zm-120 2c7.924.307 14.924 2.9737 21 8 14.597-4.3698 25.597.1302 33 13.5 12.794 1.1306 21.127 7.7973 25 20-2.371.7348-4.705 1.5682-7 2.5-34.159-20.3525-70.492-25.1859-109-14.5-13.456 3.7263-25.456 10.0596-36 19-1.333.6667-2.667.6667-4 0 1.965-5.9772 4.465-11.8106 7.5-17.5 5.614-5.7117 12.448-9.0451 20.5-10 7.166-13.3285 17.999-17.6619 32.5-13 5.127-3.6482 10.627-6.3148 16.5-8Zm-12 42c23.542-2.0577 45.875 2.109 67 12.5.457.414.791.914 1 1.5-11.15 7.631-14.983 17.964-11.5 31 2.386 4.104 4.219 8.438 5.5 13-17.761-3.268-33.594.732-47.5 12-19.228-14.576-39.895-16.91-62-7-16.479-14.661-16.646-29.494-.5-44.5 14.537-10.127 30.537-16.2936 48-18.5Zm176 3c1.175-.219 2.175.1143 3 1 5.874 8.622 10.207 17.955 13 28-16.337.167-32.67 0-49-.5-2.087-.792-3.921-1.959-5.5-3.5-.749-1.135-.583-2.135.5-3 12.965-6.997 25.631-14.331 38-22Zm-80 13c6.546 1.22 9.879 5.22 10 12 5.828-1.003 10.661.664 14.5 5 .79 3.134.457 6.134-1 9-2.233 2.233-4.4 4.4-6.5 6.5 4.158 7.768 2.325 13.268-5.5 16.5-3.858-1.013-7.358-2.68-10.5-5-3.023 2.178-6.356 3.845-10 5-8.133-3.081-10.133-8.581-6-16.5-1.771-2.487-3.938-4.654-6.5-6.5-2.446-4.824-1.613-8.991 2.5-12.5 3.56-1.237 7.227-1.737 11-1.5.218-5.804 2.885-9.804 8-12Zm-181 9c3.682-.165 7.348.001 11 .5-6.752 18.456-2.752 34.456 12 48-6.423 6.673-10.923 14.507-13.5 23.5-3.28 23.329-3.28 46.662 0 70 2.05 10.261 5.884 19.761 11.5 28.5-14.194 10.361-28.528 20.528-43 30.5-23.55-44.682-31.716-92.015-24.5-142 3.613-17.583 13.28-30.583 29-39 .49 1.293.657 2.627.5 4 5.667 0 11.333 0 17 0 0-8 0-16 0-24Zm221 24c9.02 4.997 15.52 12.33 19.5 22 5.516 13.791 8.016 28.125 7.5 43 .061 39.755-9.272 77.089-28 112-14.394-9.857-28.394-20.19-42-31 7.485-12.624 11.652-26.291 12.5-41 .667-15.333.667-30.667 0-46-.396-9.857-3.563-18.69-9.5-26.5 22.968 4.421 35.468-5.079 37.5-28.5 1.095-1.193 1.928-2.527 2.5-4Zm-160 25c8.207.235 15.873 2.402 23 6.5 5.149 4.315 10.149 8.815 15 13.5 6.274-6.465 13.274-11.965 21-16.5 21.418-6.862 37.918-.695 49.5 18.5 1 3 2 6 3 9 .667 17.667.667 35.333 0 53-6.271 34.937-26.771 56.104-61.5 63.5-37.61 3.618-64.444-11.549-80.5-45.5-2.609-6.434-4.275-13.101-5-20-.93-17.711-.596-35.378 1-53 5.623-16.799 17.123-26.466 34.5-29Zm-11 152c32.517 18.652 65.017 18.652 97.5 0 .667 6.333.667 12.667 0 19-15.304 18.47-31.137 36.47-47.5 54-17.025-17.524-33.525-35.524-49.5-54-.5-6.325-.666-12.658-.5-19Zm-14 31c1.517.011 2.684.677 3.5 2 43.13 48.798 86.63 97.298 130.5 145.5-5.667.667-11.333.667-17 0-42-47-84-94-126-141 2.714-2.678 5.714-4.845 9-6.5Zm125 0c4.123.898 7.457 3.065 10 6.5-17.383 19.261-34.883 38.428-52.5 57.5-1.793-2.795-3.96-5.295-6.5-7.5 16.169-19.001 32.503-37.834 49-56.5Zm24 17c22.342 5.669 44.675 11.502 67 17.5 12.476 5.808 20.642 15.308 24.5 28.5 4.068 28.311 7.902 56.644 11.5 85-21.667 0-43.333 0-65 0 1.536-9.753 1.036-19.42-1.5-29-4.597-10.793-8.597-21.793-12-33-1.525-9.608-2.358-19.275-2.5-29-5.667 0-11.333 0-17 0-.465 11.436.368 22.769 2.5 34 4.137 12.746 8.471 25.413 13 38 .809 6.249.642 12.416-.5 18.5-3.667.667-7.333.667-11 0-20.883-23.594-41.883-47.094-63-70.5 18.392-19.722 36.392-39.722 54-60Zm-176 1c4.164-.357 7.331 1.31 9.5 5 36.833 41.5 73.667 83 110.5 124.5-45.332.5-90.665.667-136 .5-1.404-7.355-1.237-14.689.5-22 2.605-7.813 5.605-15.48 9-23 4.926-14.941 6.759-30.274 5.5-46-5.667 0-11.333 0-17 0 1.19 20.201-2.977 39.201-12.5 57-3.639 11.11-4.806 22.443-3.5 34-21.677.333-43.3436 0-65-1 4.0018-28.679 8.1684-57.346 12.5-86 3.9242-12.26 11.7575-21.093 23.5-26.5 21.16-5.372 42.16-10.872 63-16.5Zm164-243c6 0 12 0 18 0 0 5.667 0 11.333 0 17-6 0-12 0-18 0 0-5.667 0-11.333 0-17Zm-190 33c5.667 0 11.333 0 17 0 0 6 0 12 0 18-5.667 0-11.333 0-17 0 0-6 0-12 0-18Zm74 41c8.857 1.722 11.357 6.722 7.5 15-3.87 3.559-8.037 3.892-12.5 1-5.078-7.613-3.411-12.947 5-16Zm83 0c8.857 1.722 11.357 6.722 7.5 15-5.628 4.341-10.628 3.674-15-2-1.569-6.88.931-11.213 7.5-13Zm-74 58c12.413.705 23.413 5.038 33 13 9.836-7.778 21.003-12.112 33.5-13 .499 5.991.666 11.991.5 18-6.452.317-12.452 2.15-18 5.5-5.483 4.649-10.816 9.482-16 14.5-5.517-5.351-11.184-10.518-17-15.5-4.997-2.699-10.33-4.199-16-4.5 0-6 0-12 0-18Z" stroke="#44739e" stroke-width="4" fill="none"/>
</svg>