<svg xmlns="http://www.w3.org/2000/svg" viewBox="-2 0 512 512">
	<path d="M11.31 1.51c3.2666 0 6.5334 0 9.8 0 7.6903 6.527 15.8569 12.5704 24.5 18.13 9.2763 4.8343 19.0763 8.101 29.4 9.8 59.1116 1.1181 118.238 1.6081 177.38 1.47 59.142.1381 118.2684-.3519 177.38-1.47 10.3233-1.699 20.1233-4.9657 29.4-9.8 8.6436-5.5596 16.8099-11.603 24.5-18.13 3.2663 0 6.5337 0 9.8 0 3.8534 2.2167 7.1197 5.1567 9.8 8.82 0 15.68 0 31.36 0 47.04-7.1413 31.6449-26.4149 51.8979-57.82 60.76-1.1427 20.8995-1.3063 41.8058-.49 62.72 15.4232 6.0143 24.8969 17.1206 28.42 33.32.3263 67.62.6537 135.24.98 202.86 15.3546 6.2465 24.991 17.3529 28.91 33.32 0 14.7 0 29.4 0 44.1-1.2779 1.4573-2.4206 3.0909-3.43 4.9-1.9747 1.1731-3.772 2.4794-5.39 3.92-161.3737 0-322.7463 0-484.12 0-1.4572-1.2779-3.0905-2.4206-4.9-3.43-1.1726-1.9747-2.4793-3.772-3.92-5.39 0-14.7 0-29.4 0-44.1 3.9188-15.9671 13.5555-27.0735 28.91-33.32.3266-67.62.6534-135.24.98-202.86 3.5232-16.1994 12.9965-27.3057 28.42-33.32.8164-20.9142.6531-41.8205-.49-62.72C27.9248 109.2679 8.6515 89.0149 1.51 57.37c0-15.68 0-31.36 0-47.04 2.6798-3.6633 5.9465-6.6033 9.8-8.82ZM31.89 46.59c12.6191 6.6563 26.0124 11.0663 40.18 13.23 120.2137.6534 240.4263.6534 360.64 0 14.0326-2.0644 27.2626-6.4744 39.69-13.23-.5321 17.8762-8.8621 30.7795-24.99 38.71-5.6115 2.5239-11.4915 3.8305-17.64 3.92-118.2537.6534-236.5063.6534-354.76 0-25.951-2.5946-40.3243-16.8046-43.12-42.63Zm57.82 72.52c29.7263 0 59.4537 0 89.18 0 .1637 30.0546 0 60.1083-.49 90.16-29.6107 33.1162-36.797 70.6825-21.56 112.7 22.1049 45.4446 58.5276 66.1882 109.27 62.23 49.8163-9.31 79.38-38.8737 88.69-88.69 3.6329-33.1995-5.8398-61.9458-28.42-86.24-.49-30.0517-.6537-60.1054-.49-90.16 29.7263 0 59.4537 0 89.18 0 .1637 20.5829 0 41.1629-.49 61.74-15.4232 6.0143-24.8969 17.1206-28.42 33.32-.49 66.9663-.6537 133.9327-.49 200.9-88.8537 0-177.7063 0-266.56 0 .1637-66.9673 0-133.9337-.49-200.9-3.5231-16.1994-12.9968-27.3057-28.42-33.32-.49-20.5771-.6533-41.1571-.49-61.74Zm118.58 0c29.4 0 58.8 0 88.2 0 .3263 22.8761 0 45.7425-.98 68.6-28.7463-11.76-57.4937-11.76-86.24 0-.98-22.8575-1.3063-45.7239-.98-68.6ZM70.11 209.27c10.7034-1.2769 17.0734 3.2967 19.11 13.72.49 64.0254.6534 128.0527.49 192.08-9.8 0-19.6 0-29.4 0-.1634-64.0273 0-128.0546.49-192.08.9402-6.1515 4.0435-10.7251 9.31-13.72Zm171.5 0c41.7892-2.3961 69.0655 16.2239 81.83 55.86 5.9466 44.3274-12.1834 73.5647-54.39 87.71-44.3274 5.9466-73.5647-12.1834-87.71-54.39-5.9643-40.8386 9.8784-69.4212 47.53-85.75 4.3404-1.2916 8.5868-2.4343 12.74-3.43Zm183.26 0c10.7036-1.2769 17.0736 3.2967 19.11 13.72.49 64.0254.6537 128.0527.49 192.08-9.8 0-19.6 0-29.4 0-.1637-64.0273 0-128.0546.49-192.08.9398-6.1515 4.0435-10.7251 9.31-13.72Zm-177.38 58.8c13.869-1.322 19.9126 4.8853 18.13 18.62-5.7477 9.5511-13.425 11.3484-23.03 5.39-6.4621-9.7863-4.8285-17.789 4.9-24.01ZM45.61 444.47c137.8537-.1637 275.7073 0 413.56.49 8.6563.8163 13.3937 5.5537 14.21 14.21.489 4.8892.6527 9.7892.49 14.7-147.6537 0-295.3063 0-442.96 0-.2681-6.5954.2219-13.1291 1.47-19.6 2.9229-5.3851 7.3329-8.6524 13.23-9.8ZM242.59 237.69c27.0813-2.7254 44.884 8.7083 53.41 34.3 3.2017 27.0999-8.0683 44.9036-33.81 53.41-27.0999 3.2017-44.9036-8.0683-53.41-33.81-3.0831-27.1852 8.1869-45.1515 33.81-53.9Zm4.9 30.38c-9.7285 6.221-11.3621 14.2237-4.9 24.01 9.605 5.9584 17.2823 4.1611 23.03-5.39 1.7826-13.7347-4.261-19.942-18.13-18.62Z" stroke="#44739e" stroke-width="4" fill="none"/>
</svg>