<svg xmlns="http://www.w3.org/2000/svg" viewBox="0 0 512 512">
	<path d="M118.13 435.65c-1.7689 17.5832-4.0552 35.0595-6.86 52.43 5.88.6537 11.76.6537 17.64 0-2.8048-17.3695-5.0911-34.8459-6.86-52.43-1.3063 0-2.6137 0-3.92 0Zm.98-31.36c-2.5088.7056-4.3051 2.3393-5.39 4.9-.489 3.579-.6517 7.1716-.49 10.78 4.5737 0 9.1463 0 13.72 0 .3597-4.3777-.1303-8.624-1.47-12.74-1.8061-1.6376-3.9288-2.6176-6.37-2.94ZM29.93 273.95c-5.7832 1.028-9.8665 4.2944-12.25 9.8-1.7958 8.0037.9808 13.721 8.33 17.15 62.72.6537 125.44.6537 188.16 0 2.55-.8653 4.6736-2.3353 6.37-4.41 5.7898-11.4562 2.3598-18.8062-10.29-22.05-60.1054-.49-120.2125-.6537-180.32-.49Zm-3.92-42.14c-2.3208 1.2573-4.4442 2.891-6.37 4.9-5.1986 11.9805-1.442 19.3305 11.27 22.05 59.78.6537 119.56.6537 179.34 0 2.8185-.4292 5.4321-1.4092 7.84-2.94 8.279-9.3639 6.9727-17.2039-3.92-23.52-62.719-.49-125.4391-.6537-188.16-.49Zm0-43.12c-2.3208 1.2573-4.4442 2.891-6.37 4.9-5.1566 11.4082-1.7266 18.7582 10.29 22.05 60.1066.6537 120.2137.6537 180.32 0 4.51-.7056 8.2673-2.8293 11.27-6.37 4.065-9.0493 1.615-15.7457-7.35-20.09-62.719-.49-125.4391-.6537-188.16-.49Zm0-43.12c-2.3208 1.2573-4.4442 2.891-6.37 4.9-5.0798 10.9025-1.9765 18.2525 9.31 22.05 60.76.6537 121.52.6537 182.28 0 2.0658-.3528 4.0258-1.0065 5.88-1.96 9.5197-9.359 8.5397-17.5253-2.94-24.5-62.719-.49-125.4391-.6537-188.16-.49Zm85.26-50.96c-19.4321 5.3544-34.4588 16.7874-45.08 34.3 36.2551 1.1437 72.5151 1.3063 108.78.49-4.8579-6.4935-10.0852-12.7008-15.68-18.62-13.477-12.7137-29.4843-18.1037-48.02-16.17ZM70.11 1.51c-2.2252 1.7306-4.3486 3.6906-6.37 5.88-1.5447 8.4177-1.8713 16.9111-.98 25.48 1.47 4.0834 4.2466 6.86 8.33 8.33 13.7273 1.5002 27.4473 2.9702 41.16 4.41 0 11.1066 0 22.2134 0 33.32-6.7796.8785-13.3133 2.6751-19.6 5.39-19.5506 10.7305-34.904 25.7573-46.06 45.08-7.84.3263-15.68.6537-23.52.98-10.9587 3.283-18.1453 10.3067-21.56 21.07 0 4.9 0 9.8 0 14.7 1.5347 5.5017 4.4747 10.2381 8.82 14.21-4.341 3.9612-7.281 8.6975-8.82 14.21 0 4.9 0 9.8 0 14.7 1.539 5.5125 4.479 10.2488 8.82 14.21-4.341 3.9612-7.281 8.6975-8.82 14.21 0 4.9 0 9.8 0 14.7 1.539 5.5125 4.479 10.2488 8.82 14.21-4.341 3.9612-7.281 8.6975-8.82 14.21 0 4.9 0 9.8 0 14.7 1.539 5.5125 4.479 10.2488 8.82 14.21-4.3453 3.9719-7.2853 8.7083-8.82 14.21 0 4.9 0 9.8 0 14.7 3.4147 10.7633 10.6013 17.787 21.56 21.07 11.1066.6537 22.2134.6537 33.32 0 .8979-.3665 1.7146-.8565 2.45-1.47 2.2573-4.4472 1.7673-8.5309-1.47-12.25-10.3964-1.2123-20.8498-1.8649-31.36-1.96-2.5504-.8653-4.6737-2.3353-6.37-4.41-4.5552-8.7093-2.7586-15.7319 5.39-21.07 61.7042-1.615 123.4447-1.9424 185.22-.98 2.403.2842 4.6893.9369 6.86 1.96 9.5197 9.359 8.5397 17.5253-2.94 24.5-42.7937.3263-85.5863.6537-128.38.98-7.7529 3.4839-8.7329 8.3839-2.94 14.7 9.7945.49 19.5941.6527 29.4.49.3254 10.1479-.001 20.2742-.98 30.38-7.4931 3.085-11.903 8.6387-13.23 16.66-.6534 6.86-.6534 13.72 0 20.58.5078 2.4725 1.8145 4.4325 3.92 5.88-1.619 20.8132-4.0694 41.5569-7.35 62.23.4838 2.9478 1.7906 5.3978 3.92 7.35 14.3737 0 28.7463 0 43.12 0 2.1942-1.9375 3.5015-4.3875 3.92-7.35-3.1389-20.6986-5.5889-41.4422-7.35-62.23 2.105-1.4475 3.4124-3.4075 3.92-5.88.6537-7.1863.6537-14.3737 0-21.56-1.7405-7.4588-6.1505-12.6851-13.23-15.68-.979-10.1058-1.3054-20.2321-.98-30.38 29.7283.1637 59.4546 0 89.18-.49 7.8743-1.8963 13.918-6.3063 18.13-13.23 6.5219-13.476 4.7246-25.726-5.39-36.75 13.0663-14.3737 13.0663-28.7463 0-43.12 13.0663-14.3737 13.0663-28.7463 0-43.12 13.0663-14.3737 13.0663-28.7463 0-43.12 3.0517-2.9988 5.5017-6.4288 7.35-10.29 5.4027-19.4109-1.2936-32.6409-20.09-39.69-7.84-.3263-15.68-.6537-23.52-.98-7.6028-12.8792-17.0765-24.3118-28.42-34.3-10.8721-8.8645-23.2858-14.2545-37.24-16.17-.1637-10.7849 0-21.5649.49-32.34 121.8865 14.0541 242.2629 36.4307 361.13 67.13 5.7722 1.6572 10.3449.1872 13.72-4.41 0-13.0666 0-26.1334 0-39.2-.7517-.6586-1.4053-1.4752-1.96-2.45-22.5145-7.0195-45.3818-12.7362-68.6-17.15-2.3775-.0946-4.5011.5588-6.37 1.96-2.8459 5.6117-1.7032 10.0217 3.43 13.23 19.3599 4.1987 38.6336 8.7721 57.82 13.72.9555 5.6264 1.2818 11.3431.98 17.15-34.5411-8.3083-69.1674-16.3116-103.88-24.01C283.4099 50.7798 181.1636 35.5898 77.95 26.99c0-3.2666 0-6.5334 0-9.8 108.2047 7.1761 215.5147 21.2227 321.93 42.14 2.8645-.2893 5.1519-1.5959 6.86-3.92 1.4141-4.6178.2715-8.3744-3.43-11.27C299.7867 23.892 195.5804 9.682 90.69 1.51c-6.86 0-13.72 0-20.58 0Z" stroke="#44739e" stroke-width="4" fill="none"/>
</svg>