<svg xmlns="http://www.w3.org/2000/svg" viewBox="0 0 512 512">
	<path d="M19.5 7.5c35.508-.9963 63.3414 13.0037 83.5 42 6.511 12.3705 12.344 25.0372 17.5 38 11.872-13.8863 23.872-27.7197 36-41.5 46.805-40.1571 99.138-49.1571 157-27 15.209 6.7634 28.875 15.7634 41 27 12.128 13.7803 24.128 27.6137 36 41.5 5.156-12.9628 10.989-25.6295 17.5-38C428.098 20.3677 455.932 6.5344 491.5 8c.916.3742 1.75.8742 2.5 1.5 1.483 3.2024 1.817 6.5357 1 10-23.778 28.5869-37.444 61.5869-41 99-6.769 20.3-13.102 40.633-19 61 8.082-10.362 18.582-14.195 31.5-11.5 17.278 6.036 24.111 18.203 20.5 36.5-4.776 34.098-10.109 68.098-16 102-9.181 22.689-26.014 35.356-50.5 38-25.167 45.667-50.333 91.333-75.5 137-14.657 19.11-33.824 25.944-57.5 20.5-11.955-3.636-21.288-10.636-28-21-2.667-2-5.333-2-8 0-13.1 18.043-30.766 25.376-53 22-14.837-3.508-26.337-11.675-34.5-24.5-24.246-44.827-48.746-89.494-73.5-134-28.2804-3.118-45.7804-18.451-52.5-46-4.6667-31.333-9.3333-62.667-14-94-2.6596-26.34 9.1737-38.506 35.5-36.5 6.8592 1.856 12.3592 5.689 16.5 11.5-5.8981-20.367-12.2315-40.7-19-61-3.5374-37.3822-17.2041-70.3822-41-99-1.4073-4.944-.2407-8.944 3.5-12Zm235 16c38.914 1.3775 71.414 16.3775 97.5 45 8.833 11 17.667 22 26.5 33-6.333 5.333-12.667 10.667-19 16-5.102-14.341-13.769-26.1738-26-35.5-38.339-28.2207-80.006-34.2207-125-18-20.684 8.3624-37.517 21.529-50.5 39.5-2.059 4.177-3.726 8.51-5 13-.718.951-1.551 1.117-2.5.5-5.853-5.354-11.853-10.52-18-15.5 12.732-16.5709 26.399-32.4043 41-47.5 23.667-19.1647 50.667-29.3314 81-30.5Zm-211 3c30.6869 9.8578 49.8536 30.5244 57.5 62 4.333 8.6638 9.833 16.497 16.5 23.5 10.812 8.645 21.479 17.478 32 26.5.826 4.074.326 8.074-1.5 12-3.074 6.308-7.24 11.808-12.5 16.5-12.101 8.468-23.935 17.301-35.5 26.5-8.6667-26-17.3333-52-26-78-3.0158-19.414-7.6824-38.414-14-57-4.745-11.1592-10.245-21.8259-16.5-32Zm423 0c.543.06.876.3933 1 1-8.082 12.1634-14.582 25.1634-19.5 39-4.416 16.1597-8.082 32.4931-11 49-8.667 26-17.333 52-26 78-14.287-10.619-28.287-21.619-42-33-4.599-5.701-7.432-12.201-8.5-19.5.333-.833.667-1.667 1-2.5 13.961-10.795 27.127-22.462 39.5-35 3.252-4.8343 6.252-9.8343 9-15 7.61-31.1017 26.444-51.7683 56.5-62Zm-212 45c31.967.7374 58.8 12.7374 80.5 36 3.137 4.608 5.47 9.608 7 15-.917 16.6 2.916 31.933 11.5 46-2.337 2.822-5.337 4.655-9 5.5-13.625 1.551-27.292 1.884-41 1-11.322-.996-18.822-6.829-22.5-17.5-1.247-7.279-1.747-14.612-1.5-22-5.333 0-10.667 0-16 0-4.119 20.267 1.548 36.933 17 50-7.722 6.884-13.222 15.218-16.5 25-2.703 13.209.297 24.875 9 35 7.006 8.685 15.839 14.518 26.5 17.5 14.667.667 29.333.667 44 0 17.345-4.68 27.845-15.846 31.5-33.5 2.824-17.019-1.343-32.019-12.5-45 .936-1.474 2.27-2.474 4-3 13.333 10 26.667 20 40 30 .333 6.833.667 13.667 1 20.5.134 7.6-.366 15.1-1.5 22.5-9.593 16.598-21.759 31.098-36.5 43.5-7.363 5.01-14.697 10.01-22 15 2.125 5.084 4.625 9.918 7.5 14.5 20.953-10.278 38.287-24.945 52-44 .667 16.667.667 33.333 0 50-25.667 46.333-51.333 92.667-77 139-12.599 14.875-27.765 18.042-45.5 9.5-6-4.667-11.333-10-16-16-7.869-2.908-15.869-3.241-24-1-5.667 4.333-10.667 9.333-15 15-24.088 12.603-42.255 6.77-54.5-17.5-23.413-43.161-47.079-86.161-71-129-.667-16.667-.667-33.333 0-50 13.713 19.055 31.047 33.722 52 44 2.5-5 5-10 7.5-15-24.975-13.808-44.475-33.141-58.5-58-1.134-7.4-1.634-14.9-1.5-22.5.333-6.833.667-13.667 1-20.5 13-9.833 26-19.667 39-29.5 2.406-.779 4.073.054 5 2.5-12.159 14.308-15.993 30.641-11.5 49 4.608 15.608 14.774 25.441 30.5 29.5 14.667.667 29.333.667 44 0 17.399-5.732 29.232-17.232 35.5-34.5 2.665-12.654-.001-23.987-8-34-3.016-2.849-5.85-5.849-8.5-9 15.452-13.067 21.119-29.733 17-50-5.333 0-10.667 0-16 0 .936 10.092-.564 19.759-4.5 29-4.869 6.518-11.369 10.018-19.5 10.5-13.708.884-27.375.551-41-1-3.672-.831-6.672-2.665-9-5.5 8.584-14.067 12.417-29.4 11.5-46 2.969-10.43 8.802-18.93 17.5-25.5 19.939-15.9223 42.606-24.4223 68-25.5Zm-207 113c4.2924-.465 8.2924.368 12 2.5 9.1667 9.833 18.3333 19.667 27.5 29.5.5 36.665.6667 73.332.5 110-15.5883-3.09-26.0883-12.09-31.5-27-5.7256-34.079-10.8923-68.246-15.5-102.5-.3778-5.749 1.9556-9.916 7-12.5Zm408 0c9.687-.975 14.687 3.358 15 13-4.507 32.711-9.341 65.378-14.5 98-4.078 17.449-14.912 27.783-32.5 31-.167-36.668 0-73.335.5-110 7-7.667 14-15.333 21-23 3.126-3.641 6.626-6.641 10.5-9Zm-291 7c6.675-.166 13.342 0 20 .5-15.258 6.356-20.425 17.523-15.5 33.5 8.843 14.545 21.009 18.045 36.5 10.5 9.866-8.134 12.699-18.301 8.5-30.5-3.314-6.649-8.481-11.149-15.5-13.5 4.333-.667 8.667-.667 13 0 5.167 5.167 10.333 10.333 15.5 15.5 3.804 6.635 4.47 13.635 2 21-5.336 7.676-12.169 13.509-20.5 17.5-10.622 1.511-21.289 1.844-32 1-15.63-2.466-23.63-11.632-24-27.5.028-3.736.528-7.403 1.5-11 3.01-6.03 6.51-11.696 10.5-17Zm135 0c4.346-.166 8.679.001 13 .5-15.258 6.356-20.425 17.523-15.5 33.5 8.843 14.545 21.009 18.045 36.5 10.5 9.866-8.134 12.699-18.301 8.5-30.5-3.314-6.649-8.481-11.149-15.5-13.5 6.667-.667 13.333-.667 20 0 4.124 5.077 7.624 10.577 10.5 16.5 4.219 13.631 1.053 25.131-9.5 34.5-4.021 2.34-8.354 3.674-13 4-8.667.667-17.333.667-26 0-4.646-.326-8.979-1.66-13-4-5.965-4.959-10.798-10.792-14.5-17.5-1.301-6.422-.301-12.422 3-18 5.37-5.202 10.536-10.535 15.5-16Zm-111 17c9.35-.135 12.017 4.032 8 12.5-8.544 3.322-12.377.489-11.5-8.5.69-1.85 1.856-3.184 3.5-4Zm128 0c9.35-.135 12.017 4.032 8 12.5-8.544 3.322-12.377.489-11.5-8.5.69-1.85 1.856-3.184 3.5-4Zm-155 140c2.82-.252 5.486.248 8 1.5 6.523 6.844 14.023 12.344 22.5 16.5 5.401 16.871 10.401 33.871 15 51 1.161 4.333 3.995 6.333 8.5 6 2.426.096 4.593-.57 6.5-2 7.5-15 15-30 22.5-45 7.333-1.333 14.667-1.333 22 0 7.5 15 15 30 22.5 45 3.256 1.929 6.756 2.429 10.5 1.5 2.315-1.109 3.815-2.943 4.5-5.5 4.531-16.76 9.365-33.427 14.5-50 9.037-5.203 17.371-11.369 25-18.5 7.04-.965 11.374 2.035 13 9-.644 2.74-1.811 5.24-3.5 7.5-13.579 18.825-26.913 37.825-40 57-5.103 5.135-11.27 7.968-18.5 8.5-26 .667-52 .667-78 0-7.23-.532-13.397-3.365-18.5-8.5-14-20-28-40-42-60-2.208-6.204-.375-10.871 5.5-14Zm51 27c4.24-.931 8.573-.597 13 1-2.5 5-5 10-7.5 15-1.851-5.442-3.684-10.775-5.5-16Zm80-1c2.027-.162 4.027.005 6 .5-1.828 5.483-3.661 10.983-5.5 16.5-2.5-5-5-10-7.5-15 2.469-.668 4.802-1.335 7-2Zm-45-119c5.333 0 10.667 0 16 0-.167 25.669 0 51.335.5 77 2.838-3.672 5.171-7.672 7-12 8.528-9.417 18.695-11.584 30.5-6.5 5.816 4.649 11.149 9.816 16 15.5-3.667 4.333-7.667 8.333-12 12-4.485-3.985-8.818-8.151-13-12.5-2.757-.782-5.257-.282-7.5 1.5-7.022 17.431-19.856 24.265-38.5 20.5-10.167-3.5-17-10.333-20.5-20.5-2.243-1.782-4.743-2.282-7.5-1.5-4.182 4.349-8.515 8.515-13 12.5-4.333-3.667-8.333-7.667-12-12 4.851-5.684 10.184-10.851 16-15.5 11.805-5.084 21.972-2.917 30.5 6.5 1.829 4.328 4.162 8.328 7 12 .5-25.665.667-51.331.5-77Zm-89 76c6.2-.484 12.2.349 18 2.5 6.333 5 12.667 10 19 15 10.802 6.379 22.468 9.712 35 10 16.667.667 33.333.667 50 0 12.532-.288 24.198-3.621 35-10 6.333-5 12.667-10 19-15 21.924-6.398 34.924 1.602 39 24-1.198 8.893-4.698 16.726-10.5 23.5-12.056 16.39-23.723 33.057-35 50-6.366 8.036-14.533 13.203-24.5 15.5-32 .667-64 .667-96 0-9.967-2.297-18.134-7.464-24.5-15.5-14.581-20.827-28.914-41.827-43-63-4.971-18.059 1.196-30.392 18.5-37Zm3 17c-5.875 3.129-7.708 7.796-5.5 14 14 20 28 40 42 60 5.103 5.135 11.27 7.968 18.5 8.5 26 .667 52 .667 78 0 7.23-.532 13.397-3.365 18.5-8.5 13.087-19.175 26.421-38.175 40-57 1.689-2.26 2.856-4.76 3.5-7.5-1.626-6.965-5.96-9.965-13-9-7.629 7.131-15.963 13.297-25 18.5-5.135 16.573-9.969 33.24-14.5 50-.685 2.557-2.185 4.391-4.5 5.5-3.744.929-7.244.429-10.5-1.5-7.5-15-15-30-22.5-45-7.333-1.333-14.667-1.333-22 0-7.5 15-15 30-22.5 45-1.907 1.43-4.074 2.096-6.5 2-4.505.333-7.339-1.667-8.5-6-4.599-17.129-9.599-34.129-15-51-8.477-4.156-15.977-9.656-22.5-16.5-2.514-1.252-5.18-1.752-8-1.5Zm51 27c1.816 5.225 3.649 10.558 5.5 16 2.5-5 5-10 7.5-15-4.427-1.597-8.76-1.931-13-1Zm80-1c-2.198.665-4.531 1.332-7 2 2.5 5 5 10 7.5 15 1.839-5.517 3.672-11.017 5.5-16.5-1.973-.495-3.973-.662-6-.5Z" stroke="#44739e" stroke-width="4" fill="none"/>
</svg>