<svg xmlns="http://www.w3.org/2000/svg" viewBox="0 0 512 512">
	<path d="M22.11 2.51c5.88 0 11.76 0 17.64 0 69.4105 21.7237 140.6241 32.5037 213.64 32.34 73.0159.1637 144.2295-10.6163 213.64-32.34 5.88 0 11.76 0 17.64 0 9.8 3.2667 16.3337 9.8 19.6 19.6 0 4.5734 0 9.1466 0 13.72-3.4614 11.0795-10.975 17.9395-22.54 20.58-.8163 12.4004-1.3063 24.8138-1.47 37.24-3.5946 17.1216-14.212 24.6352-31.85 22.54.1627 5.8888-.001 11.7688-.49 17.64-1.4847 9.1601-6.8747 14.0601-16.17 14.7 0 16.0063 0 32.0137 0 48.02 16.3337 0 32.6663 0 49 0 0 16.3337 0 32.6663 0 49-16.3337 0-32.6663 0-49 0-.1637 24.8293 0 49.6556.49 74.48 4.9196-4.4306 9.9833-8.6779 15.19-12.74 18.965 15.3762 37.9123 30.7299 56.84 46.06 0 7.1863 0 14.3737 0 21.56-5.2263 0-10.4537 0-15.68 0 0 10.78 0 21.56 0 32.34-5.5537 0-11.1063 0-16.66 0 0 16.0063 0 32.0137 0 48.02 8.1663 0 16.3337 0 24.5 0 0 16.3337 0 32.6663 0 49-43.4463 0-86.8937 0-130.34 0 0-86.24 0-172.48 0-258.72-75.1337 0-150.2663 0-225.4 0 0 86.24 0 172.48 0 258.72-43.4466 0-86.8934 0-130.34 0 0-16.3337 0-32.6663 0-49 8.1666 0 16.3334 0 24.5 0 0-16.0063 0-32.0137 0-48.02-5.5534 0-11.1066 0-16.66 0 0-10.78 0-21.56 0-32.34-5.2266 0-10.4533 0-15.68 0 0-7.1863 0-14.3737 0-21.56 18.928-15.3301 37.8746-30.6838 56.84-46.06 5.2067 4.0621 10.2701 8.3094 15.19 12.74.49-24.8244.6533-49.6507.49-74.48-16.3334 0-32.6666 0-49 0 0-16.3337 0-32.6663 0-49 16.3334 0 32.6666 0 49 0 0-16.0063 0-32.0137 0-48.02-9.2951-.6399-14.6851-5.5399-16.17-14.7-.4895-5.8712-.6529-11.7512-.49-17.64-17.6384 2.0952-28.2551-5.4184-31.85-22.54-.1641-12.4262-.6541-24.8396-1.47-37.24C13.4847 53.7695 5.9714 46.9095 2.51 35.83c0-4.5734 0-9.1466 0-13.72 3.2667-9.8 9.8-16.3333 19.6-19.6Zm4.9 16.66c2.6336-.1608 5.2469.0025 7.84.49C155.8869 55.403 278.3869 61.283 402.35 37.3c24.7068-5.2784 49.2068-11.3216 73.5-18.13 9.4884.8135 12.9184 5.7135 10.29 14.7-2.058 2.9075-4.8353 4.7042-8.33 5.39-84.3819 23.0846-170.2956 32.2312-257.74 27.44-66.7919-.3014-132.1251-10.1014-196-29.4-6.9267-7.3413-5.9467-13.3846 2.94-18.13ZM43.67 61.31c68.8489 17.1231 138.7562 24.6365 209.72 22.54 70.9638 2.0965 140.8711-5.4169 209.72-22.54.1637 11.1114 0 22.2182-.49 33.32-1.6043 2.264-3.7279 3.734-6.37 4.41-135.24.6534-270.48.6534-405.72 0-2.6421-.676-4.7653-2.146-6.37-4.41-.4899-11.1018-.6532-22.2086-.49-33.32Zm32.34 54.88c21.2334 0 42.4663 0 63.7 0 0 5.2263 0 10.4537 0 15.68-21.2337 0-42.4666 0-63.7 0 0-5.2263 0-10.4537 0-15.68Zm80.36 0c16.0063 0 32.0137 0 48.02 0 0 26.7863 0 53.5737 0 80.36-21.2337 0-42.4663 0-63.7 0 0-16.0063 0-32.0137 0-48.02 7.351-.3224 12.4146-3.9161 15.19-10.78.49-7.1795.6527-14.3658.49-21.56Zm64.68 0c21.56 0 43.12 0 64.68 0 0 26.7863 0 53.5737 0 80.36-21.56 0-43.12 0-64.68 0 0-26.7863 0-53.5737 0-80.36Zm81.34 0c16.0063 0 32.0137 0 48.02 0-.1627 7.1942 0 14.3805.49 21.56 2.7754 6.8639 7.839 10.4576 15.19 10.78 0 16.0063 0 32.0137 0 48.02-21.2337 0-42.4663 0-63.7 0 0-26.7863 0-53.5737 0-80.36Zm64.68 0c21.2337 0 42.4663 0 63.7 0 0 5.2263 0 10.4537 0 15.68-21.2337 0-42.4663 0-63.7 0 0-5.2263 0-10.4537 0-15.68ZM91.69 148.53c10.4537 0 20.9063 0 31.36 0 0 113.0263 0 226.0537 0 339.08-4.9 0-9.8 0-14.7 0 0-10.78 0-21.56 0-32.34-8.1666 0-16.3334 0-24.5 0 0-16.0063 0-32.0137 0-48.02 5.5534 0 11.1066 0 16.66 0 0-10.78 0-21.56 0-32.34 5.2263 0 10.4537 0 15.68 0 .1627-6.8678 0-13.7278-.49-20.58-7.5852-6.6493-15.2622-13.183-23.03-19.6-.98-62.0634-1.3066-124.1297-.98-186.2Zm292.04 0c10.4537 0 20.9063 0 31.36 0 .3263 62.0703 0 124.1366-.98 186.2-7.7675 6.417-15.4448 12.9507-23.03 19.6-.49 6.8522-.6527 13.7122-.49 20.58 5.2263 0 10.4537 0 15.68 0 0 10.78 0 21.56 0 32.34 5.5537 0 11.1063 0 16.66 0 0 16.0063 0 32.0137 0 48.02-8.1663 0-16.3337 0-24.5 0 0 10.78 0 21.56 0 32.34-4.9 0-9.8 0-14.7 0 0-113.0263 0-226.0537 0-339.08ZM43.67 213.21c10.4534 0 20.9066 0 31.36 0 0 5.2263 0 10.4537 0 15.68-10.4534 0-20.9066 0-31.36 0 0-5.2263 0-10.4537 0-15.68Zm97.02 0c75.1337 0 150.2663 0 225.4 0 0 5.2263 0 10.4537 0 15.68-75.1337 0-150.2663 0-225.4 0 0-5.2263 0-10.4537 0-15.68Zm291.06 0c10.4537 0 20.9063 0 31.36 0 0 5.2263 0 10.4537 0 15.68-10.4537 0-20.9063 0-31.36 0 0-5.2263 0-10.4537 0-15.68ZM58.37 329.83c11.733 8.8249 23.1662 18.1349 34.3 27.93-22.54.6537-45.08.6537-67.62 0 11.2934-9.1767 22.4001-18.4867 33.32-27.93Zm388.08 0c12.1461 8.7034 23.9061 18.0134 35.28 27.93-22.54.6537-45.08.6537-67.62 0 10.8506-9.3276 21.6306-18.6376 32.34-27.93ZM35.83 374.91c15.68 0 31.36 0 47.04 0 0 5.2263 0 10.4537 0 15.68-15.68 0-31.36 0-47.04 0 0-5.2263 0-10.4537 0-15.68Zm388.08 0c15.68 0 31.36 0 47.04 0 0 5.2263 0 10.4537 0 15.68-15.68 0-31.36 0-47.04 0 0-5.2263 0-10.4537 0-15.68ZM51.51 407.25c5.2266 0 10.4534 0 15.68 0 0 16.0063 0 32.0137 0 48.02-5.2266 0-10.4534 0-15.68 0 0-16.0063 0-32.0137 0-48.02Zm388.08 0c5.2263 0 10.4537 0 15.68 0 0 16.0063 0 32.0137 0 48.02-5.2263 0-10.4537 0-15.68 0 0-16.0063 0-32.0137 0-48.02ZM27.01 471.93c21.2334 0 42.4666 0 63.7 0 0 5.2263 0 10.4537 0 15.68-21.2334 0-42.4666 0-63.7 0 0-5.2263 0-10.4537 0-15.68Zm389.06 0c21.2337 0 42.4663 0 63.7 0 0 5.2263 0 10.4537 0 15.68-21.2337 0-42.4663 0-63.7 0 0-5.2263 0-10.4537 0-15.68ZM236.73 131.87c11.1063 0 22.2137 0 33.32 0 0 5.5537 0 11.1063 0 16.66-11.1063 0-22.2137 0-33.32 0 0-5.5537 0-11.1063 0-16.66Zm0 32.34c11.1063 0 22.2137 0 33.32 0 0 5.5537 0 11.1063 0 16.66-11.1063 0-22.2137 0-33.32 0 0-5.5537 0-11.1063 0-16.66Z" stroke="#44739e" stroke-width="4" fill="none"/>
</svg>