<svg xmlns="http://www.w3.org/2000/svg" viewBox="0 0 512 512">
	<path d="M 244.5,15.5 C 277.002,12.3254 298.835,25.992 310,56.5C 311.015,60.4402 311.515,64.4402 311.5,68.5C 351.66,82.5009 375.493,110.501 383,152.5C 383.667,158.833 383.667,165.167 383,171.5C 381.471,174.516 378.971,175.849 375.5,175.5C 372.029,175.849 369.529,174.516 368,171.5C 366.08,128.613 345.247,99.4463 305.5,84C 290.379,80.5727 275.045,78.906 259.5,79C 258.584,78.6258 257.75,78.1258 257,77.5C 255.517,74.2976 255.183,70.9643 256,67.5C 256.5,65.6667 257.667,64.5 259.5,64C 271.245,63.3785 282.912,63.3785 294.5,64C 285.63,37.5623 267.63,27.8956 240.5,35C 227.312,41.0242 219.645,50.8576 217.5,64.5C 224.226,63.0433 230.893,63.21 237.5,65C 239.942,69.0524 240.109,73.2191 238,77.5C 179.328,82.839 147.328,114.839 142,173.5C 130.589,178.198 125.756,174.365 127.5,162C 130.161,123.998 147.828,95.3314 180.5,76C 186.641,72.9263 192.974,70.4263 199.5,68.5C 202.648,40.691 217.648,23.0244 244.5,15.5 Z
M 211.5,111.5 C 217.621,111.09 223.621,111.59 229.5,113C 231.403,119.563 233.57,126.063 236,132.5C 245.091,143.164 255.924,145.331 268.5,139C 275.929,132.975 279.762,125.141 280,115.5C 280.5,113.667 281.667,112.5 283.5,112C 314.269,110.773 335.769,124.273 348,152.5C 349.156,156.123 350.156,159.789 351,163.5C 351.5,172.827 351.666,182.161 351.5,191.5C 368.804,187.638 381.637,193.304 390,208.5C 395.192,226.946 389.025,239.78 371.5,247C 364.842,247.5 358.175,247.666 351.5,247.5C 348.229,280.396 332.562,305.396 304.5,322.5C 303.502,332.144 303.168,341.81 303.5,351.5C 331.169,351.333 358.835,351.5 386.5,352C 410.667,357.5 425.5,372.333 431,396.5C 431.667,428.167 431.667,459.833 431,491.5C 429.471,494.516 426.971,495.849 423.5,495.5C 420.029,495.849 417.529,494.516 416,491.5C 415.667,463.5 415.333,435.5 415,407.5C 412.5,383.667 399.333,370.5 375.5,368C 350.167,367.333 324.833,367.333 299.5,368C 286.483,384.011 273.15,399.677 259.5,415C 255.171,416.151 251.338,415.318 248,412.5C 235.833,397.667 223.667,382.833 211.5,368C 186.167,367.333 160.833,367.333 135.5,368C 111.667,370.5 98.5,383.667 96,407.5C 95.6667,435.5 95.3333,463.5 95,491.5C 94.5,493.333 93.3333,494.5 91.5,495C 88.0357,495.817 84.7024,495.483 81.5,494C 80.8742,493.25 80.3742,492.416 80,491.5C 79.3333,459.833 79.3333,428.167 80,396.5C 85.4732,372.36 100.307,357.527 124.5,352C 152.165,351.5 179.831,351.333 207.5,351.5C 207.832,341.81 207.498,332.144 206.5,322.5C 178.437,305.394 162.77,280.394 159.5,247.5C 142.196,251.362 129.363,245.696 121,230.5C 115.808,212.054 121.975,199.22 139.5,192C 146.158,191.5 152.825,191.334 159.5,191.5C 154.93,150.151 172.263,123.484 211.5,111.5 Z M 214.5,128.5 C 226.042,156.928 246.375,165.761 275.5,155C 285.423,148.665 292.09,139.832 295.5,128.5C 319.731,134.895 332.898,150.562 335,175.5C 335.667,196.833 335.667,218.167 335,239.5C 330.425,287.908 303.925,314.575 255.5,319.5C 207.075,314.575 180.575,287.908 176,239.5C 175.333,218.167 175.333,196.833 176,175.5C 178.089,150.92 190.923,135.254 214.5,128.5 Z M 147.5,207.5 C 151.5,207.5 155.5,207.5 159.5,207.5C 159.5,215.5 159.5,223.5 159.5,231.5C 154.087,231.771 148.754,231.271 143.5,230C 136.586,226.23 134.753,220.73 138,213.5C 140.551,210.319 143.718,208.319 147.5,207.5 Z M 351.5,207.5 C 357.711,207.016 363.711,207.849 369.5,210C 376.167,216.333 376.167,222.667 369.5,229C 363.711,231.151 357.711,231.984 351.5,231.5C 351.5,223.5 351.5,215.5 351.5,207.5 Z M 223.5,330.5 C 244.667,337.155 265.833,337.155 287,330.5C 287.667,339.167 287.667,347.833 287,356.5C 276.833,368.667 266.667,380.833 256.5,393C 255.551,393.617 254.718,393.451 254,392.5C 244,380.5 234,368.5 224,356.5C 223.5,347.84 223.334,339.173 223.5,330.5 Z
M 139.5,383.5 C 142.187,383.336 144.854,383.503 147.5,384C 149.333,384.5 150.5,385.667 151,387.5C 151.667,422.167 151.667,456.833 151,491.5C 149.471,494.516 146.971,495.849 143.5,495.5C 140.029,495.849 137.529,494.516 136,491.5C 135.333,456.833 135.333,422.167 136,387.5C 136.69,385.65 137.856,384.316 139.5,383.5 Z
M 197.5,383.5 C 201.839,382.846 205.673,383.846 209,386.5C 223.962,405.96 239.462,424.96 255.5,443.5C 272.037,424.461 288.037,404.961 303.5,385C 315.667,381.167 319.833,385.333 316,397.5C 289.484,430.341 262.651,462.841 235.5,495C 225.667,497.167 221.833,493.333 224,483.5C 230.454,474.711 237.287,466.211 244.5,458C 227.88,437.925 211.38,417.759 195,397.5C 192.425,392.034 193.258,387.367 197.5,383.5 Z
M 363.5,383.5 C 366.187,383.336 368.854,383.503 371.5,384C 373.333,384.5 374.5,385.667 375,387.5C 375.667,422.167 375.667,456.833 375,491.5C 373.471,494.516 370.971,495.849 367.5,495.5C 364.029,495.849 361.529,494.516 360,491.5C 359.333,456.833 359.333,422.167 360,387.5C 360.69,385.65 361.856,384.316 363.5,383.5 Z" stroke="#44739e" stroke-width="4" fill="none"/>
</svg>