<?xml version="1.0" standalone="no"?>
<!DOCTYPE svg PUBLIC "-//W3C//DTD SVG 20010904//EN"
 "http://www.w3.org/TR/2001/REC-SVG-20010904/DTD/svg10.dtd">
<svg version="1.0" xmlns="http://www.w3.org/2000/svg"
 width="512.000000pt" height="512.000000pt" viewBox="0 0 512.000000 512.000000"
 preserveAspectRatio="xMidYMid meet">

<g transform="translate(0.000000,512.000000) scale(0.100000,-0.100000)"
fill="#000000" stroke="none">
<path d="M2480 5066 c-86 -75 -194 -134 -286 -157 -43 -11 -101 -32 -129 -48
-42 -23 -56 -39 -85 -96 -34 -67 -35 -71 -34 -184 0 -102 3 -124 27 -185 28
-72 26 -85 -15 -86 -42 0 -275 -87 -403 -149 -161 -79 -281 -153 -412 -253
-137 -103 -150 -129 -133 -264 12 -93 40 -159 71 -170 13 -4 157 -28 319 -53
l295 -46 6 -70 c4 -39 8 -216 10 -394 l3 -324 -125 -105 c-68 -57 -133 -117
-143 -134 -16 -25 -19 -50 -20 -151 -1 -180 19 -212 142 -232 40 -6 45 -11 73
-67 l30 -60 -95 -98 c-52 -54 -111 -123 -131 -154 -137 -215 -205 -571 -192
-1001 8 -252 35 -472 62 -508 15 -21 201 -63 326 -73 118 -10 115 -17 122 262
4 178 10 251 27 327 48 227 112 291 370 370 205 63 269 94 353 175 l47 46 48
-46 c83 -81 147 -113 351 -175 261 -79 321 -140 373 -378 14 -68 21 -147 25
-319 7 -280 4 -272 122 -262 125 10 311 52 326 73 27 36 54 256 62 508 9 278
-16 527 -72 720 -56 192 -113 291 -247 430 l-99 103 30 60 c28 56 33 61 73 67
123 20 143 52 142 232 -1 104 -4 126 -21 153 -11 17 -76 78 -143 134 l-123
102 2 330 c2 181 6 358 10 394 l6 65 301 46 c165 25 309 51 321 57 28 16 53
81 63 171 14 127 4 151 -100 236 -183 147 -487 313 -708 385 -67 22 -130 40
-140 40 -41 1 -43 14 -15 86 24 60 27 83 27 184 1 110 0 118 -31 181 -45 91
-87 117 -258 159 -55 13 -178 87 -248 149 -32 28 -67 51 -77 51 -10 0 -47 -24
-80 -54z m145 -151 c90 -65 184 -111 251 -125 54 -11 57 -13 39 -27 -31 -23
-123 -62 -186 -78 -147 -38 -295 -26 -442 35 -108 45 -111 54 -31 74 72 17
157 61 244 125 30 22 56 40 58 41 2 0 32 -20 67 -45z m-504 -256 c44 -31 150
-76 236 -101 111 -32 295 -32 406 0 88 25 192 70 238 103 36 25 44 19 53 -46
8 -52 -8 -130 -46 -222 -34 -84 -44 -89 -210 -124 -181 -38 -407 -26 -595 32
l-61 19 -32 75 c-48 117 -57 185 -34 268 7 22 10 21 45 -4z m51 -484 c119 -38
345 -68 452 -60 114 8 230 29 333 62 78 24 87 25 150 13 113 -21 240 -67 398
-145 140 -69 385 -218 385 -234 0 -8 -39 -14 -798 -111 l-532 -68 -533 68
c-768 99 -797 103 -797 111 0 16 245 166 385 234 155 76 259 116 368 139 87
20 102 19 189 -9z m-847 -515 c77 -10 284 -38 460 -60 176 -22 422 -54 547
-70 l227 -30 623 80 c343 44 663 87 713 95 49 8 90 13 91 12 1 -1 0 -23 -3
-50 -5 -38 -10 -48 -27 -52 -72 -17 -1212 -185 -1351 -200 -46 -5 -152 7 -450
49 -428 62 -1004 151 -1009 157 -2 2 -7 26 -10 52 l-8 49 29 -6 c15 -3 91 -15
168 -26z m796 -349 c151 -22 298 -42 327 -46 l52 -7 0 -360 0 -360 -27 5 c-16
3 -164 24 -330 48 l-303 42 0 102 c0 56 -3 217 -7 358 -4 163 -3 257 3 257 6
0 134 -18 285 -39z m1166 -218 c-4 -141 -7 -302 -7 -358 l0 -102 -302 -42
c-167 -24 -315 -45 -330 -48 l-28 -5 0 359 0 360 313 45 c171 25 323 46 336
46 l24 2 -6 -257z m-354 -640 l373 53 82 -70 c45 -38 81 -71 79 -72 -2 -2
-183 -26 -402 -54 -220 -28 -424 -54 -453 -59 -28 -4 -76 -4 -105 0 -28 5
-232 31 -452 59 -220 28 -401 52 -402 54 -2 1 34 34 79 72 l82 70 373 -53 373
-54 373 54z m-1238 -228 c190 -23 745 -94 778 -101 27 -6 27 -6 27 -85 0 -65
-3 -79 -15 -79 -9 0 -186 25 -393 56 -207 31 -413 61 -457 68 l-80 11 -3 73
c-2 39 1 72 5 72 4 0 67 -7 138 -15z m1873 -57 l-3 -72 -115 -18 c-247 -38
-801 -118 -815 -118 -12 0 -15 16 -15 79 0 79 0 79 28 85 24 5 309 42 727 95
219 28 196 34 193 -51z m-1433 -289 c202 -30 384 -51 430 -51 44 0 237 23 429
51 192 28 351 50 353 47 3 -2 -3 -18 -11 -35 -36 -69 -24 -92 120 -241 45 -47
98 -110 118 -142 67 -106 119 -268 148 -458 27 -174 11 -827 -21 -878 -5 -7
-169 -42 -201 -42 -4 0 -10 71 -13 157 -18 440 -93 621 -303 726 -38 19 -125
51 -193 72 -218 65 -276 100 -347 207 -69 103 -99 103 -169 -1 -71 -108 -124
-138 -389 -221 -133 -42 -208 -81 -273 -143 -115 -108 -167 -293 -180 -640
l-6 -159 -31 5 c-146 25 -176 32 -180 43 -34 89 -44 733 -13 909 25 143 62
267 110 365 33 66 63 106 137 185 53 55 108 115 123 133 30 38 35 82 12 122
-16 29 -18 40 -7 40 4 0 165 -23 357 -51z"/>
<path d="M1930 3210 c-19 -19 -20 -33 -20 -248 0 -217 1 -230 20 -247 15 -14
63 -24 193 -41 214 -29 232 -29 257 -4 19 19 20 33 20 244 0 198 -2 226 -18
245 -15 19 -41 25 -202 47 -223 29 -225 29 -250 4z"/>
<path d="M2925 3205 c-146 -20 -172 -27 -187 -45 -16 -20 -18 -47 -18 -246 0
-300 -22 -280 277 -240 130 17 178 27 193 41 19 17 20 30 20 247 0 215 -1 229
-20 248 -25 25 -45 24 -265 -5z"/>
</g>
</svg>
