<?xml version="1.0" standalone="no"?>
<!DOCTYPE svg PUBLIC "-//W3C//DTD SVG 20010904//EN"
 "http://www.w3.org/TR/2001/REC-SVG-20010904/DTD/svg10.dtd">
<svg version="1.0" xmlns="http://www.w3.org/2000/svg"
 width="512.000000pt" height="512.000000pt" viewBox="0 0 512.000000 512.000000"
 preserveAspectRatio="xMidYMid meet">

<g transform="translate(0.000000,512.000000) scale(0.100000,-0.100000)"
fill="#000000" stroke="none">
<path d="M2149 5105 c-120 -33 -244 -132 -290 -232 l-24 -53 -273 0 c-211 0
-290 -4 -350 -16 -293 -61 -525 -293 -586 -586 -32 -155 -13 -239 64 -278 37
-19 58 -20 430 -20 l390 0 0 -755 0 -755 -240 0 c-222 0 -244 -2 -280 -20 -71
-36 -80 -69 -80 -284 0 -102 5 -209 11 -238 28 -130 112 -241 226 -301 95 -49
147 -57 370 -57 l195 0 -76 -71 c-147 -138 -285 -351 -351 -544 -56 -163 -67
-240 -72 -516 -5 -246 -5 -257 16 -297 14 -28 35 -49 61 -62 38 -19 58 -20
520 -20 462 0 482 1 520 20 70 36 80 70 80 280 0 209 8 239 78 278 49 27 91
28 142 2 70 -36 80 -70 80 -280 0 -210 10 -244 80 -280 38 -19 58 -20 520 -20
462 0 482 1 520 20 26 13 47 34 61 62 21 40 21 51 16 297 -5 276 -16 353 -72
516 -66 191 -205 407 -350 543 l-77 72 195 0 c108 0 220 5 249 11 128 27 241
113 301 226 49 94 57 147 57 359 0 215 -9 248 -80 284 -36 18 -58 20 -280 20
l-240 0 0 755 0 755 390 0 c372 0 393 1 430 20 77 39 96 123 64 278 -61 294
-292 525 -586 586 -60 12 -139 16 -350 16 l-273 0 -24 53 c-30 64 -129 165
-194 196 -99 48 -129 51 -512 50 -258 -1 -373 -4 -406 -14z m781 -305 c45 -23
80 -80 80 -130 0 -50 35 -107 80 -130 37 -19 58 -20 382 -20 365 0 398 -4 494
-51 86 -43 186 -152 209 -226 l6 -23 -1621 0 -1621 0 7 23 c12 39 75 126 118
163 22 20 75 53 116 73 l75 36 375 5 c334 4 379 7 407 23 38 20 73 82 73 127
0 48 35 107 78 129 35 19 58 20 370 21 314 0 335 -1 372 -20z m380 -1635 l0
-755 -750 0 -750 0 0 755 0 755 750 0 750 0 0 -755z m600 -1145 c0 -112 -20
-159 -80 -190 -39 -20 -56 -20 -1271 -20 l-1231 0 -40 22 c-60 34 -78 78 -78
188 l0 90 1350 0 1350 0 0 -90z m-1204 -521 c340 -47 640 -267 795 -584 72
-148 99 -265 106 -457 l6 -158 -302 0 -301 0 0 95 c0 172 -36 272 -135 371
-176 177 -452 177 -631 -1 -98 -97 -134 -197 -134 -370 l0 -95 -301 0 -302 0
6 158 c7 192 34 309 106 457 132 268 357 462 641 549 144 45 294 56 446 35z"/>
<path d="M2455 3596 c-84 -21 -147 -57 -211 -121 -177 -176 -177 -453 1 -630
258 -259 695 -118 757 244 24 141 -22 281 -127 387 -112 113 -269 158 -420
120z m175 -306 c45 -23 80 -80 80 -130 0 -76 -74 -150 -151 -150 -46 0 -108
39 -130 82 -37 72 -14 151 57 194 48 29 92 30 144 4z"/>
</g>
</svg>
