<?xml version="1.0" standalone="no"?>
<!DOCTYPE svg PUBLIC "-//W3C//DTD SVG 20010904//EN"
 "http://www.w3.org/TR/2001/REC-SVG-20010904/DTD/svg10.dtd">
<svg version="1.0" xmlns="http://www.w3.org/2000/svg"
 width="512.000000pt" height="512.000000pt" viewBox="0 0 512.000000 512.000000"
 preserveAspectRatio="xMidYMid meet">

<g transform="translate(0.000000,512.000000) scale(0.100000,-0.100000)"
fill="#000000" stroke="none">
<path d="M2440 5104 c-155 -42 -258 -151 -268 -283 -7 -97 16 -157 84 -227
l54 -56 0 -74 0 -74 -33 0 c-56 0 -91 -16 -177 -80 -147 -108 -159 -111 -385
-89 -97 9 -117 9 -151 -6 -65 -27 -134 -76 -140 -99 -7 -29 206 -470 234 -485
12 -6 79 -11 161 -11 l141 0 0 -371 0 -372 -60 -104 -60 -105 0 -129 c0 -171
-2 -169 153 -169 l114 0 21 -128 c23 -139 18 -131 112 -185 30 -18 60 -43 67
-57 15 -30 17 -225 3 -324 -9 -57 -120 -352 -201 -529 -12 -26 -16 -27 -79
-27 -53 0 -70 -4 -84 -19 -22 -24 -106 -348 -106 -407 0 -36 -3 -44 -19 -44
-41 0 -58 -32 -105 -201 -42 -153 -46 -175 -46 -281 0 -102 2 -118 21 -142
l20 -26 849 0 849 0 20 26 c19 24 21 40 21 143 0 108 -3 128 -46 276 -25 87
-50 167 -55 177 -6 10 -23 21 -40 25 -27 5 -29 9 -29 48 0 58 -85 383 -106
406 -14 15 -31 19 -84 19 l-68 0 -20 48 c-124 291 -183 447 -192 508 -14 99
-12 294 3 324 7 14 37 39 67 57 94 54 89 46 112 186 l21 127 114 0 c154 0 153
-2 153 167 l0 127 -60 108 -60 107 0 370 0 371 141 0 c81 0 149 5 160 11 29
15 242 457 235 485 -6 23 -76 72 -140 99 -34 15 -54 15 -151 6 -226 -22 -240
-19 -384 89 -83 63 -121 80 -178 80 l-33 0 0 75 0 74 48 48 c26 26 56 66 67
88 27 56 31 151 10 214 -55 168 -291 270 -495 215z m266 -141 c55 -29 111 -94
120 -138 15 -80 -37 -158 -135 -203 -76 -35 -186 -35 -262 0 -139 63 -178 184
-92 279 64 71 115 89 238 86 68 -3 100 -8 131 -24z m-146 -493 c30 0 70 4 88
9 l32 10 0 -45 0 -44 -120 0 -120 0 0 44 0 45 32 -10 c18 -5 58 -9 88 -9z
m240 -198 c72 -7 78 -10 149 -64 92 -71 174 -115 228 -124 22 -3 96 -1 163 6
67 6 124 9 127 7 5 -6 -203 -94 -267 -114 -103 -32 -248 -45 -548 -50 -523 -9
-682 14 -942 136 l-65 30 90 -7 c50 -4 124 -7 165 -7 90 1 141 24 265 119 l80
61 90 6 c128 8 377 9 465 1z m-844 -426 c158 -32 281 -40 599 -40 455 -1 614
21 825 112 63 27 116 48 118 47 2 -2 -22 -53 -52 -114 l-56 -111 -830 0 -830
0 -55 110 c-30 60 -55 112 -55 114 0 2 58 -20 129 -49 71 -29 164 -60 207 -69z
m1074 -571 l0 -345 -470 0 -470 0 0 345 0 345 470 0 470 0 0 -345z m54 -515
l27 -50 -551 0 -551 0 27 50 27 50 497 0 497 0 27 -50z m74 -217 l3 -43 -600
0 -601 0 0 38 c0 21 3 42 7 45 3 4 272 6 597 5 l591 -3 3 -42z m-287 -262
l-16 -89 -65 -44 c-100 -67 -110 -93 -110 -291 0 -88 5 -190 11 -226 7 -39 55
-171 120 -329 60 -146 109 -273 109 -283 0 -18 -15 -19 -360 -19 -344 0 -360
1 -360 19 0 10 48 134 106 276 58 141 112 287 120 324 8 41 14 128 14 232 0
204 -9 229 -110 297 l-65 44 -16 89 -16 89 327 0 327 0 -16 -89z m-793 -1316
c5 -57 12 -72 37 -83 37 -17 853 -17 890 0 25 11 32 26 37 83 2 22 8 30 23 30
20 0 27 -20 69 -187 l6 -28 -580 0 c-549 0 -581 1 -576 18 3 9 15 55 26 102
25 99 27 102 48 98 11 -2 18 -15 20 -33z m1080 -352 l-3 -48 -595 0 -595 0 -3
48 -3 47 601 0 601 0 -3 -47z m-598 -173 c434 0 678 4 690 10 17 9 21 4 35
-42 8 -28 15 -53 15 -55 0 -2 -333 -3 -740 -3 -407 0 -740 1 -740 3 0 2 7 27
15 55 14 46 18 51 35 42 12 -6 256 -10 690 -10z m760 -270 l0 -50 -760 0 -760
0 0 50 0 50 760 0 760 0 0 -50z"/>
<path d="M2175 3525 c-25 -24 -25 -24 -25 -235 0 -207 5 -243 34 -262 14 -10
738 -10 752 0 29 19 34 55 34 262 0 211 0 211 -25 235 l-24 25 -361 0 -361 0
-24 -25z m665 -245 l0 -140 -280 0 -280 0 0 140 0 140 280 0 280 0 0 -140z"/>
</g>
</svg>
