<?xml version="1.0" standalone="no"?>
<!DOCTYPE svg PUBLIC "-//W3C//DTD SVG 20010904//EN"
 "http://www.w3.org/TR/2001/REC-SVG-20010904/DTD/svg10.dtd">
<svg version="1.0" xmlns="http://www.w3.org/2000/svg"
 width="512.000000pt" height="512.000000pt" viewBox="0 0 512.000000 512.000000"
 preserveAspectRatio="xMidYMid meet">

<g transform="translate(0.000000,512.000000) scale(0.100000,-0.100000)"
fill="#000000" stroke="none">
<path d="M2310 5109 c-68 -28 -104 -90 -104 -180 0 -53 5 -74 27 -111 24 -41
25 -47 11 -59 -40 -33 -65 -97 -71 -181 l-6 -84 -64 -12 c-89 -17 -138 -42
-277 -145 -198 -146 -247 -163 -434 -153 -147 8 -173 -1 -203 -69 -33 -73 -21
-97 135 -269 49 -54 113 -113 141 -131 66 -43 172 -75 246 -75 l59 0 0 -248
c0 -237 1 -250 20 -267 28 -25 76 -23 103 4 21 21 22 30 25 266 l3 245 639 0
640 0 0 -500 0 -500 -639 0 -639 0 -3 119 c-4 135 -16 161 -74 161 -62 0 -69
-15 -75 -152 l-5 -123 -87 -5 c-93 -5 -121 -18 -162 -74 -19 -24 -21 -44 -24
-184 -4 -191 7 -253 59 -331 72 -106 154 -151 294 -160 l90 -6 5 -130 c5 -139
9 -152 67 -220 47 -55 63 -118 63 -245 0 -127 -16 -190 -63 -245 -58 -68 -62
-81 -67 -220 l-5 -130 -65 -6 c-83 -7 -144 -35 -198 -90 -69 -71 -82 -120 -82
-317 0 -192 8 -221 76 -259 l39 -23 855 0 855 0 39 23 c59 34 76 74 76 183 0
108 -15 137 -69 137 -54 0 -75 -31 -79 -118 l-4 -75 -819 0 -819 0 0 143 c0
159 9 189 72 227 32 19 52 20 748 20 l715 0 34 -23 c19 -12 46 -30 60 -39 34
-23 53 -23 85 3 43 34 36 77 -20 128 -57 53 -102 73 -184 80 l-65 6 -5 130
c-5 139 -9 152 -67 220 -47 55 -63 118 -63 245 0 127 16 190 63 245 58 68 62
81 67 220 l5 130 90 6 c140 9 222 54 294 160 52 78 63 140 59 331 -3 140 -5
160 -24 184 -41 56 -69 69 -162 74 l-87 5 -3 498 -2 497 59 0 c74 0 180 32
246 75 28 18 92 77 141 131 156 172 168 196 135 269 -30 68 -56 77 -203 69
-134 -7 -194 4 -290 52 -59 30 -89 30 -116 1 -39 -41 -26 -91 32 -125 81 -48
177 -74 293 -79 l113 -6 -81 -88 c-58 -64 -96 -96 -137 -116 l-57 -28 -925 0
-925 0 -56 28 c-41 20 -79 52 -133 111 -42 46 -76 87 -76 90 0 3 37 6 83 6
163 0 265 40 447 176 192 143 121 129 660 129 l465 0 57 -32 c32 -18 67 -33
78 -33 28 0 70 44 70 73 0 56 -92 116 -212 139 l-65 12 -6 83 c-6 85 -19 120
-62 171 l-26 31 21 29 c63 86 43 222 -43 286 -27 20 -42 21 -265 23 -144 1
-247 -2 -262 -8z m456 -164 c14 -54 11 -55 -206 -55 -217 0 -220 1 -206 55 l6
25 200 0 200 0 6 -25z m-27 -254 c49 -59 61 -88 61 -152 l0 -49 -240 0 -240 0
0 49 c0 64 12 93 61 152 l41 49 138 0 138 0 41 -49z m741 -2344 c0 -133 -2
-147 -25 -194 -17 -33 -41 -61 -68 -79 l-42 -29 -785 0 -785 0 -42 29 c-27 18
-51 46 -68 79 -23 47 -25 61 -25 194 l0 143 920 0 920 0 0 -143z m-450 -571
c0 -87 -3 -116 -15 -126 -37 -31 -87 -124 -100 -187 -19 -87 -19 -259 0 -346
13 -63 63 -156 100 -187 12 -10 15 -39 15 -126 l0 -114 -470 0 -470 0 0 114
c0 87 3 116 15 126 37 31 87 124 100 187 19 87 19 259 0 346 -13 63 -63 156
-100 187 -12 10 -15 39 -15 126 l0 114 470 0 470 0 0 -114z"/>
<path d="M3060 2210 c-44 -44 -12 -113 52 -113 35 0 68 32 68 67 0 56 -79 87
-120 46z"/>
<path d="M2714 1735 c-23 -23 -24 -30 -18 -88 10 -98 48 -140 105 -116 38 15
49 36 49 94 0 113 -74 172 -136 110z"/>
<path d="M2519 1651 c-22 -18 -24 -26 -22 -105 3 -96 11 -87 -97 -107 -104
-20 -141 -79 -84 -136 22 -22 31 -25 65 -19 109 17 124 18 114 9 -5 -6 -39
-16 -75 -23 -38 -7 -74 -20 -87 -33 -22 -19 -23 -28 -23 -152 0 -118 2 -133
20 -153 22 -23 59 -28 90 -12 25 13 40 69 40 148 0 55 2 62 20 62 18 0 20 -7
20 -88 0 -75 3 -92 20 -110 24 -26 48 -27 116 -8 27 8 75 21 106 30 82 23 91
43 86 203 -3 122 -4 125 -31 149 -25 21 -34 23 -87 17 -38 -4 -60 -2 -60 4 0
6 26 13 58 16 45 5 62 12 80 32 25 30 27 43 11 79 -14 31 -51 44 -105 38 -39
-4 -41 -3 -48 28 -3 18 -6 50 -6 71 0 70 -68 104 -121 60z m161 -521 c0 -29
-4 -40 -15 -40 -10 0 -15 10 -15 34 0 29 6 38 28 45 1 1 2 -17 2 -39z"/>
<path d="M2253 4240 c-44 -18 -56 -77 -23 -110 41 -41 120 -12 120 44 0 47
-53 83 -97 66z"/>
<path d="M1969 4098 c-36 -12 -55 -58 -38 -90 16 -31 28 -38 65 -38 77 0 88
107 14 132 -8 3 -27 1 -41 -4z"/>
<path d="M2371 3974 c-12 -15 -21 -35 -21 -46 0 -24 44 -68 68 -68 33 0 72 38
72 71 0 65 -80 93 -119 43z"/>
<path d="M2232 3530 c-34 -15 -47 -29 -63 -65 -19 -42 -20 -63 -17 -339 3
-279 4 -296 24 -322 11 -15 33 -37 48 -48 26 -20 40 -21 336 -21 296 0 310 1
336 21 15 11 37 33 48 48 20 26 21 43 24 322 3 272 1 297 -16 338 -15 33 -30
48 -64 65 -42 20 -58 21 -329 21 -260 0 -288 -2 -327 -20z m588 -390 l0 -260
-29 0 -29 0 -4 163 c-4 178 -12 207 -71 251 -24 18 -42 21 -127 21 -85 0 -103
-3 -127 -21 -59 -44 -67 -73 -71 -251 l-4 -163 -29 0 -29 0 0 260 0 260 260 0
260 0 0 -260z m-220 -115 l0 -145 -40 0 -40 0 0 145 0 145 40 0 40 0 0 -145z"/>
</g>
</svg>
