<?xml version="1.0" standalone="no"?>
<!DOCTYPE svg PUBLIC "-//W3C//DTD SVG 20010904//EN"
 "http://www.w3.org/TR/2001/REC-SVG-20010904/DTD/svg10.dtd">
<svg version="1.0" xmlns="http://www.w3.org/2000/svg"
 width="512.000000pt" height="512.000000pt" viewBox="0 0 512.000000 512.000000"
 preserveAspectRatio="xMidYMid meet">

<g transform="translate(0.000000,512.000000) scale(0.100000,-0.100000)"
fill="#000000" stroke="none">
<path d="M2660 5113 c-48 -19 -50 -26 -50 -215 l0 -179 -27 -26 c-16 -14 -64
-56 -108 -93 -44 -37 -86 -75 -94 -84 -8 -10 -22 -56 -30 -104 l-16 -87 -46
-6 c-65 -10 -83 -21 -174 -109 -51 -49 -95 -82 -120 -91 -59 -20 -151 -16
-249 11 l-87 23 -27 -20 c-60 -45 -51 -150 22 -256 44 -64 66 -81 288 -221
164 -103 143 -56 172 -391 l24 -289 -49 -54 c-32 -35 -49 -63 -49 -79 0 -50
41 -268 55 -289 9 -13 78 -45 204 -94 159 -61 193 -78 197 -96 8 -30 0 -40
-33 -49 -46 -11 -184 -84 -252 -133 -155 -110 -307 -299 -415 -517 -115 -232
-161 -398 -191 -695 -8 -84 -15 -157 -15 -161 0 -5 -83 -9 -184 -9 -154 0
-187 -3 -200 -16 -20 -19 -20 -21 -51 -222 -20 -129 -25 -202 -25 -343 0 -166
1 -180 20 -199 20 -20 33 -20 1038 -20 905 0 1020 2 1040 16 21 15 22 20 22
213 0 190 -2 206 -36 367 -21 99 -43 177 -52 188 -16 17 -38 18 -467 15 l-450
-4 -15 30 c-10 20 -16 68 -18 146 -8 254 77 559 200 725 50 66 108 116 108 91
0 -34 64 -138 115 -186 251 -237 643 -105 707 238 30 162 -61 344 -217 432
-56 31 -57 32 -50 68 4 20 10 39 13 42 4 3 69 30 145 58 189 72 243 97 250
116 11 27 57 263 57 289 0 15 -18 44 -49 78 l-49 53 24 290 c28 335 8 288 172
391 222 140 244 157 288 221 73 106 82 211 22 256 l-27 20 -87 -23 c-98 -27
-190 -31 -249 -11 -25 9 -69 42 -120 91 -91 88 -109 99 -173 109 l-46 6 -16
85 c-8 47 -19 91 -23 97 -5 7 -54 52 -110 100 -56 47 -108 93 -114 102 -9 10
-13 65 -13 191 0 225 9 214 -169 217 -69 1 -133 0 -141 -4z m185 -270 c0 -174
3 -182 96 -267 l62 -56 -206 0 c-114 0 -207 2 -207 5 0 2 29 32 64 67 82 80
90 109 83 276 l-5 122 57 0 57 0 -1 -147z m269 -485 c4 -26 3 -44 -4 -48 -31
-19 -608 -20 -639 -1 -5 4 -7 25 -4 49 l6 42 317 0 317 0 7 -42z m-594 -179
c145 -13 558 -6 664 12 97 16 132 3 193 -67 105 -122 249 -168 413 -133 28 6
54 9 57 6 10 -10 -38 -76 -78 -108 -38 -30 -44 -31 -99 -26 -76 8 -160 43
-280 114 -52 31 -106 56 -120 56 -16 0 -54 -21 -99 -55 -259 -198 -496 -198
-760 0 -46 34 -85 55 -101 55 -14 0 -68 -25 -120 -56 -120 -71 -204 -106 -280
-114 -55 -5 -61 -4 -99 26 -40 32 -88 97 -78 107 3 3 33 0 66 -7 80 -15 181
-7 256 21 48 18 74 38 130 96 80 84 102 96 165 89 25 -2 101 -10 170 -16z
m-157 -323 c121 -86 260 -141 386 -152 135 -13 322 48 466 150 l63 45 81 -49
c45 -27 103 -57 129 -66 26 -10 51 -20 55 -24 5 -4 -27 -32 -71 -63 -91 -64
-123 -72 -406 -107 -271 -34 -517 -24 -780 30 -86 17 -105 26 -177 76 -44 31
-77 60 -72 64 4 4 29 14 55 24 25 9 81 39 125 65 43 27 79 49 81 50 2 1 31
-19 65 -43z m995 -383 l-3 -36 -73 -17 c-41 -10 -81 -25 -90 -34 -12 -11 -21
-59 -33 -173 -23 -203 -23 -237 -3 -254 9 -8 57 -27 107 -44 50 -16 92 -34 94
-40 2 -5 -72 -37 -165 -70 l-167 -60 -235 0 -235 0 -168 60 c-92 33 -166 64
-164 70 2 5 44 24 94 40 50 17 98 36 107 44 20 17 20 39 -1 240 -20 198 -23
203 -128 223 -69 13 -70 14 -73 47 l-3 34 38 -7 c216 -37 331 -49 493 -49 171
-1 384 18 530 48 36 7 69 13 73 14 5 0 7 -15 5 -36z m-1075 -180 c7 -11 31
-242 26 -247 -2 -2 -14 -6 -25 -10 -26 -8 -30 7 -40 162 -6 99 -6 102 14 102
12 0 23 -3 25 -7z m1053 -95 c-10 -155 -14 -170 -40 -162 -11 4 -23 8 -25 10
-4 4 20 236 26 247 2 4 13 7 25 7 20 0 20 -3 14 -102z m-858 -563 c11 -11 22
-115 13 -115 -3 0 -70 26 -148 57 -86 34 -145 63 -147 72 -3 9 -7 35 -11 57
l-6 42 145 -52 c80 -28 149 -56 154 -61z m909 50 l-10 -55 -140 -55 c-77 -30
-143 -55 -146 -55 -13 0 4 113 19 122 19 11 261 97 276 97 7 1 8 -15 1 -54z
m-422 -117 c-4 -29 -8 -59 -10 -65 -3 -10 -45 -13 -164 -13 -181 0 -162 -9
-175 88 l-6 42 180 0 181 0 -6 -52z m-19 -266 c-6 -50 -4 -62 14 -85 12 -15
28 -27 36 -27 31 0 113 -51 152 -95 161 -183 35 -481 -206 -488 -166 -5 -299
111 -309 271 -8 114 48 190 145 200 44 4 52 1 85 -27 45 -40 72 -107 63 -157
-9 -47 -46 -84 -85 -84 -43 0 -61 -10 -72 -37 -9 -25 2 -60 25 -75 16 -11 91
-10 123 3 40 15 92 67 114 114 59 127 -17 317 -149 372 -19 8 -64 14 -100 14
-125 0 -221 -75 -260 -202 -16 -51 -24 -63 -63 -87 -171 -110 -304 -371 -353
-692 -42 -277 -25 -432 58 -509 34 -32 22 -46 -52 -62 -136 -28 -356 -8 -392
36 -17 20 -17 31 9 265 34 314 83 485 203 710 154 289 384 492 636 559 55 15
77 47 68 101 l-6 40 161 0 162 0 -7 -58z m-1337 -1671 c58 -91 187 -129 396
-118 173 10 263 46 293 117 l17 40 377 0 378 0 5 -22 c27 -120 35 -155 35
-165 0 -10 -191 -13 -920 -13 -729 0 -920 3 -920 13 0 14 18 129 26 170 l6 27
137 0 138 0 32 -49z m1519 -398 l-3 -108 -932 -3 -933 -2 0 110 0 110 935 0
936 0 -3 -107z"/>
<path d="M2573 3370 c-12 -5 -25 -21 -29 -35 -6 -24 9 -256 22 -348 10 -65 15
-67 208 -67 149 0 175 2 187 16 17 21 50 369 38 402 -5 12 -20 27 -34 32 -32
12 -362 12 -392 0z m297 -157 c0 -21 -3 -68 -7 -105 l-6 -68 -83 0 c-45 0 -85
3 -87 8 -2 4 -8 51 -11 105 l-7 97 100 0 101 0 0 -37z"/>
</g>
</svg>
