<?xml version="1.0" standalone="no"?>
<!DOCTYPE svg PUBLIC "-//W3C//DTD SVG 20010904//EN"
 "http://www.w3.org/TR/2001/REC-SVG-20010904/DTD/svg10.dtd">
<svg version="1.0" xmlns="http://www.w3.org/2000/svg"
 width="512.000000pt" height="512.000000pt" viewBox="0 0 512.000000 512.000000"
 preserveAspectRatio="xMidYMid meet">

<g transform="translate(0.000000,512.000000) scale(0.100000,-0.100000)"
fill="#000000" stroke="none">
<path d="M2495 5106 c-41 -18 -217 -202 -246 -257 -22 -40 -24 -56 -24 -189 0
-119 3 -151 18 -177 9 -18 17 -34 17 -38 0 -3 -30 -5 -67 -5 -95 0 -142 -15
-185 -61 -65 -68 -61 -151 13 -299 46 -92 128 -180 219 -235 l60 -36 0 -115 0
-114 -355 0 c-196 0 -399 -5 -453 -11 -180 -19 -380 -70 -713 -178 -247 -81
-269 -104 -269 -271 0 -80 20 -140 56 -172 44 -39 89 -48 234 -48 l140 0 0
-509 0 -508 -45 -13 c-54 -15 -111 -73 -120 -123 -4 -19 -5 -89 -3 -155 3
-133 12 -154 78 -199 32 -22 40 -23 286 -23 140 0 254 -3 254 -6 0 -3 -23 -40
-50 -82 -90 -136 -134 -279 -145 -471 -10 -168 -35 -236 -160 -436 -86 -137
-95 -158 -95 -207 0 -60 35 -116 89 -145 43 -23 50 -23 332 -23 l288 0 37 32
c102 89 208 278 249 442 19 75 25 125 25 210 0 131 10 174 52 222 26 30 75 64
92 64 27 0 98 -456 111 -715 9 -156 27 -200 98 -234 39 -19 61 -21 206 -21
141 0 167 2 200 20 81 41 96 82 105 280 3 74 12 190 21 258 17 127 69 400 79
409 11 12 95 -49 117 -84 21 -33 24 -56 31 -188 8 -181 29 -270 98 -410 53
-108 161 -253 205 -273 18 -8 108 -12 301 -12 225 0 281 3 311 15 72 30 105
80 105 156 0 51 -1 55 -115 241 -106 175 -128 237 -138 397 -13 209 -58 350
-154 487 -25 36 -45 67 -45 69 0 3 113 5 251 5 285 0 301 3 347 73 24 37 27
51 30 151 3 66 -1 129 -8 156 -15 55 -64 105 -118 119 l-42 12 0 509 0 510
183 0 c155 0 188 3 223 19 80 36 108 100 102 230 -5 102 -25 145 -85 178 -81
45 -581 195 -738 222 -137 24 -291 31 -619 32 l-346 1 0 116 1 117 58 33 c156
90 297 317 277 445 -16 95 -92 146 -219 147 -59 0 -77 3 -73 13 30 72 38 126
34 236 -5 145 -13 162 -145 301 -123 129 -175 153 -258 116z m136 -233 c98
-100 99 -103 99 -208 -1 -157 -49 -220 -170 -220 -122 0 -170 62 -170 218 0
81 3 98 22 123 26 36 140 154 148 154 3 0 35 -30 71 -67z m312 -609 c45 -8 46
-17 7 -98 -57 -121 -186 -215 -326 -239 -177 -30 -376 74 -454 239 -55 114
-88 104 353 104 210 0 399 -3 420 -6z m-295 -592 l-3 -87 -85 0 -85 0 -3 87
-3 87 91 0 91 0 -3 -87z m432 -262 c439 -7 573 -12 640 -24 146 -28 318 -73
520 -139 l195 -63 3 -57 3 -57 -1881 0 -1881 0 3 57 3 56 200 64 c378 120 531
150 825 163 240 10 711 10 1370 0z m850 -1020 l0 -510 -1410 0 -1410 0 0 510
0 510 1410 0 1410 0 0 -510z m168 -767 l3 -83 -1581 0 -1580 0 0 85 0 85 1578
-2 1577 -3 3 -82z m-804 -263 c88 -13 154 -49 219 -120 94 -102 141 -239 156
-455 13 -184 47 -275 187 -502 35 -57 64 -106 64 -108 0 -3 -105 -5 -234 -5
l-234 0 -41 47 c-23 27 -59 82 -80 123 -62 118 -81 201 -90 381 -7 149 -9 160
-39 222 -39 79 -90 126 -187 172 -100 47 -188 66 -351 74 -491 24 -747 -55
-839 -261 -25 -55 -28 -77 -35 -222 -11 -219 -45 -326 -154 -474 l-46 -62
-241 0 -241 0 14 22 c123 188 199 337 222 433 9 33 20 119 25 191 25 314 158
514 364 544 79 12 1480 11 1561 0z m-566 -346 c24 -4 32 -9 28 -20 -13 -33
-66 -318 -81 -434 -8 -69 -19 -185 -22 -257 l-6 -133 -127 0 -127 0 -12 169
c-13 191 -38 370 -75 546 -14 65 -23 121 -20 124 14 15 359 18 442 5z"/>
<path d="M1324 2718 c-40 -19 -44 -47 -44 -329 0 -282 5 -317 45 -333 9 -3
106 -6 216 -6 199 0 200 0 224 25 l25 24 0 291 0 291 -25 24 c-24 25 -25 25
-222 24 -114 0 -207 -5 -219 -11z m296 -328 l0 -170 -85 0 -85 0 0 170 0 170
85 0 85 0 0 -170z"/>
<path d="M1993 2706 l-28 -24 -3 -285 -3 -284 26 -32 27 -31 504 0 505 0 24
25 25 24 0 291 0 291 -25 24 -24 25 -500 0 -500 0 -28 -24z m907 -316 l0 -170
-385 0 -385 0 0 170 0 170 385 0 385 0 0 -170z"/>
<path d="M3273 2706 l-28 -24 -3 -285 -3 -284 26 -32 27 -31 203 0 c190 0 204
1 229 21 l26 20 0 295 0 295 -25 24 c-24 25 -25 25 -224 25 -197 0 -200 0
-228 -24z m307 -316 l0 -170 -85 0 -85 0 0 170 0 170 85 0 85 0 0 -170z"/>
</g>
</svg>
