<?xml version="1.0" standalone="no"?>
<!DOCTYPE svg PUBLIC "-//W3C//DTD SVG 20010904//EN"
 "http://www.w3.org/TR/2001/REC-SVG-20010904/DTD/svg10.dtd">
<svg version="1.0" xmlns="http://www.w3.org/2000/svg"
 width="512.000000pt" height="512.000000pt" viewBox="0 0 512.000000 512.000000"
 preserveAspectRatio="xMidYMid meet">

<g transform="translate(0.000000,512.000000) scale(0.100000,-0.100000)"
fill="#000000" stroke="none">
<path d="M2455 5100 c-202 -55 -447 -236 -526 -391 -38 -76 -18 -203 52 -327
26 -46 30 -62 27 -115 l-3 -61 -155 -52 c-293 -97 -440 -166 -655 -308 -288
-190 -464 -364 -465 -460 0 -35 39 -100 73 -124 48 -32 325 -101 595 -147 115
-20 443 -65 472 -65 4 0 15 -29 24 -64 l18 -64 -31 -60 c-64 -127 -84 -251
-96 -587 -8 -216 -18 -291 -44 -319 -95 -105 -103 -326 -13 -419 l27 -28 -42
-35 c-46 -38 -168 -187 -233 -283 -130 -194 -230 -508 -230 -722 l0 -93 62
-61 c36 -34 96 -78 138 -100 74 -40 76 -40 185 -40 115 0 171 13 199 44 9 10
21 47 27 82 24 151 115 373 179 434 l29 28 9 -24 c27 -71 37 -183 35 -397 l-2
-222 32 -24 c68 -51 256 -91 427 -89 176 1 380 50 422 100 10 12 13 73 14 247
0 174 5 251 17 310 9 44 21 84 25 88 15 15 69 -58 117 -155 38 -80 71 -185
102 -331 5 -23 18 -46 33 -58 35 -26 132 -41 222 -35 98 6 196 55 286 142 l62
61 0 93 c0 214 -100 528 -230 722 -65 96 -187 245 -233 283 l-42 35 27 28 c54
56 76 154 58 254 -11 59 -33 111 -81 186 -18 28 -22 58 -30 235 -19 417 -35
521 -100 650 l-31 60 18 64 c19 72 -11 60 224 89 327 40 792 140 866 185 33
21 74 91 74 126 -1 98 -219 308 -510 491 -202 127 -291 168 -570 264 l-195 67
-3 60 c-3 52 1 68 27 114 46 81 71 163 71 232 0 79 -35 142 -134 241 -119 119
-280 213 -427 249 -82 20 -107 19 -194 -4z m232 -139 c92 -32 225 -116 292
-184 43 -44 43 -45 20 -53 -37 -12 -861 -10 -882 2 -17 10 -12 16 40 64 87 80
181 138 275 171 104 36 152 36 255 0z m-127 -366 c228 0 441 3 473 8 l59 7 -7
-32 c-4 -18 -20 -61 -35 -95 l-29 -63 -461 0 -461 0 -29 63 c-15 34 -31 77
-35 95 l-7 32 59 -7 c32 -5 245 -8 473 -8z m430 -335 l0 -40 -430 0 -430 0 0
40 0 40 430 0 430 0 0 -40z m241 -224 c299 -98 492 -194 714 -354 183 -132
315 -256 315 -298 0 -20 -23 -29 -185 -67 -985 -234 -2089 -232 -3050 4 -141
35 -165 44 -165 63 0 50 188 216 410 362 201 133 376 213 665 305 l120 38 506
0 506 1 164 -54z m-671 -1011 c212 0 422 3 468 8 l83 8 -7 -28 c-4 -16 -9 -31
-11 -35 -2 -5 -242 -8 -533 -8 -291 0 -531 3 -533 8 -2 4 -7 19 -11 35 l-7 28
83 -8 c46 -5 256 -8 468 -8z m-60 -665 l0 -491 -92 7 c-126 9 -292 37 -413 71
-99 28 -100 29 -98 58 0 17 6 143 12 280 15 327 24 383 78 508 l26 57 243 0
244 0 0 -490z m624 453 c59 -122 72 -204 86 -529 5 -133 13 -255 16 -272 l6
-30 -108 -25 c-171 -40 -401 -77 -480 -77 l-24 0 0 485 0 485 243 0 243 0 18
-37z m-1111 -999 c357 -90 729 -83 1142 21 118 30 131 31 143 17 32 -41 42
-153 17 -201 -28 -54 -142 -108 -330 -155 -290 -73 -650 -61 -955 31 -128 38
-203 80 -227 126 -19 38 -14 138 11 185 l16 31 43 -15 c23 -8 86 -26 140 -40z
m7 -414 c361 -108 753 -104 1123 11 l98 30 32 -20 c84 -52 248 -259 326 -411
82 -160 151 -403 151 -533 0 -51 -3 -58 -34 -84 -19 -15 -48 -36 -64 -45 l-30
-18 -37 107 c-98 285 -208 458 -327 519 -116 59 -242 13 -305 -109 -53 -105
-65 -183 -69 -432 -4 -186 -7 -231 -19 -237 -37 -21 -207 -48 -305 -48 -98 0
-268 27 -305 48 -12 6 -15 51 -19 237 -3 194 -7 242 -24 307 -48 178 -124 258
-245 258 -166 0 -305 -175 -432 -543 l-37 -106 -29 15 c-16 8 -45 29 -65 46
l-37 32 7 86 c11 155 66 341 147 500 103 201 313 441 374 427 11 -3 67 -19
125 -37z m-85 -596 c-77 -94 -149 -259 -184 -419 l-17 -80 -57 -3 c-31 -2 -57
-1 -57 3 0 11 83 229 111 292 47 105 116 202 168 234 75 48 89 38 36 -27z
m1286 27 c52 -32 121 -129 168 -234 28 -63 111 -281 111 -292 0 -4 -26 -5 -57
-3 l-57 3 -17 80 c-35 161 -111 333 -191 428 -32 38 -36 47 -21 47 11 0 40
-13 64 -29z"/>
<path d="M2018 2673 c-16 -18 -18 -47 -18 -306 0 -286 0 -287 23 -301 12 -8
89 -22 170 -32 l148 -17 22 22 c21 21 22 28 25 310 3 264 1 290 -15 310 -17
21 -29 22 -178 28 -150 5 -161 4 -177 -14z m242 -318 l0 -205 -22 4 c-13 3
-44 8 -70 11 l-48 6 0 195 0 194 70 0 70 0 0 -205z"/>
<path d="M2812 2683 c-85 -6 -83 -2 -80 -337 3 -279 4 -286 25 -307 l22 -22
148 17 c81 10 158 24 171 32 22 14 22 15 22 303 0 266 -1 289 -18 304 -15 14
-38 17 -128 15 -60 -1 -133 -3 -162 -5z m188 -317 l0 -195 -47 -6 c-27 -3 -58
-8 -70 -11 l-23 -4 0 205 0 205 70 0 70 0 0 -194z"/>
</g>
</svg>
