<?xml version="1.0" standalone="no"?>
<!DOCTYPE svg PUBLIC "-//W3C//DTD SVG 20010904//EN"
 "http://www.w3.org/TR/2001/REC-SVG-20010904/DTD/svg10.dtd">
<svg version="1.0" xmlns="http://www.w3.org/2000/svg"
 width="512.000000pt" height="512.000000pt" viewBox="0 0 512.000000 512.000000"
 preserveAspectRatio="xMidYMid meet">

<g transform="translate(0.000000,512.000000) scale(0.100000,-0.100000)"
fill="#000000" stroke="none">
<path d="M2492 4989 c-48 -14 -109 -80 -123 -131 -23 -89 12 -182 88 -229 57
-36 154 -34 210 3 62 41 88 90 88 168 0 77 -26 127 -85 166 -43 29 -125 39
-178 23z"/>
<path d="M2430 4435 l-125 -75 254 0 c140 0 252 2 250 4 -10 10 -241 146 -247
146 -4 0 -63 -34 -132 -75z"/>
<path d="M2096 4258 c-8 -13 -31 -58 -52 -101 -31 -61 -36 -81 -28 -95 10 -16
50 -17 544 -17 498 0 534 1 544 18 9 14 1 36 -39 115 l-50 97 -452 3 -452 2
-15 -22z"/>
<path d="M2105 3937 c-142 -64 -245 -133 -380 -256 -139 -126 -259 -172 -391
-151 -92 15 -94 12 -94 -138 0 -86 4 -132 12 -140 17 -17 2599 -17 2616 0 18
18 17 277 -1 284 -8 3 -42 0 -75 -5 -140 -23 -256 22 -401 154 -104 95 -234
186 -338 237 l-68 33 -415 2 c-411 3 -415 2 -465 -20z"/>
<path d="M1800 2560 l0 -600 760 0 760 0 0 600 0 600 -760 0 -760 0 0 -600z
m1268 348 c17 -17 17 -679 0 -696 -17 -17 -999 -17 -1016 0 -17 17 -17 679 0
696 17 17 999 17 1016 0z"/>
<path d="M2120 2720 l0 -120 80 0 80 0 0 120 0 120 -80 0 -80 0 0 -120z"/>
<path d="M2360 2720 l0 -120 80 0 80 0 0 120 0 120 -80 0 -80 0 0 -120z"/>
<path d="M2600 2720 l0 -120 80 0 80 0 0 120 0 120 -80 0 -80 0 0 -120z"/>
<path d="M2840 2720 l0 -120 80 0 80 0 0 120 0 120 -80 0 -80 0 0 -120z"/>
<path d="M2120 2400 l0 -120 80 0 80 0 0 120 0 120 -80 0 -80 0 0 -120z"/>
<path d="M2360 2400 l0 -120 80 0 80 0 0 120 0 120 -80 0 -80 0 0 -120z"/>
<path d="M2600 2400 l0 -120 80 0 80 0 0 120 0 120 -80 0 -80 0 0 -120z"/>
<path d="M2840 2400 l0 -120 80 0 80 0 0 120 0 120 -80 0 -80 0 0 -120z"/>
<path d="M1682 1819 c-54 -36 -98 -72 -107 -89 -21 -40 -21 -220 0 -260 8 -16
52 -54 102 -87 l88 -58 796 0 795 0 84 55 c111 73 120 89 120 218 0 73 -4 112
-15 132 -9 17 -53 55 -105 90 l-89 60 -788 0 -788 0 -93 -61z"/>
<path d="M1965 1002 c0 -250 -10 -357 -51 -552 -20 -97 -62 -242 -89 -312 -7
-17 32 -18 735 -18 703 0 742 1 735 17 -27 71 -69 216 -89 313 -41 195 -51
302 -51 552 l0 238 -595 0 -595 0 0 -238z"/>
</g>
</svg>
