<?xml version="1.0" standalone="no"?>
<!DOCTYPE svg PUBLIC "-//W3C//DTD SVG 20010904//EN"
 "http://www.w3.org/TR/2001/REC-SVG-20010904/DTD/svg10.dtd">
<svg version="1.0" xmlns="http://www.w3.org/2000/svg"
 width="512.000000pt" height="512.000000pt" viewBox="0 0 512.000000 512.000000"
 preserveAspectRatio="xMidYMid meet">

<g transform="translate(0.000000,512.000000) scale(0.100000,-0.100000)"
fill="#000000" stroke="none">
<path d="M1676 5107 c-21 -7 -48 -24 -58 -38 -41 -54 3 -125 128 -208 l76 -51
738 0 737 0 74 48 c80 52 118 91 139 142 12 28 11 37 -1 59 -33 58 3 56 -934
58 -639 1 -870 -1 -899 -10z"/>
<path d="M1331 4699 c-97 -12 -195 -45 -305 -101 -89 -46 -115 -67 -289 -232
l-191 -181 1007 -3 c554 -1 1460 -1 2014 0 l1007 3 -186 176 c-222 211 -308
266 -505 321 l-78 23 -1205 1 c-663 1 -1234 -2 -1269 -7z"/>
<path d="M404 4070 c-28 -4 -74 -15 -102 -24 -139 -47 -135 -120 9 -169 62
-21 80 -22 642 -25 l578 -3 -21 -29 c-51 -71 -50 -55 -50 -905 0 -860 -1 -837
55 -911 14 -18 25 -35 25 -38 0 -3 -143 -6 -317 -6 -337 -1 -443 -11 -506 -47
-22 -13 -32 -27 -32 -44 0 -31 64 -64 155 -79 90 -14 3350 -14 3440 0 91 15
155 48 155 79 0 17 -10 31 -32 44 -63 36 -169 46 -505 47 -175 0 -318 3 -318
6 0 3 11 20 25 38 56 74 55 51 55 911 0 850 1 834 -50 905 l-21 29 578 3 c566
3 579 4 644 25 182 62 129 160 -106 194 -73 10 -4229 10 -4301 -1z m2240 -765
c128 -27 220 -101 280 -225 29 -60 31 -73 31 -170 0 -99 -2 -110 -33 -172 -42
-85 -129 -168 -209 -198 -161 -62 -332 -23 -448 101 -69 73 -98 145 -103 251
-4 73 -1 98 19 153 45 129 159 231 289 259 84 18 92 18 174 1z"/>
<path d="M1070 1584 c156 -157 282 -233 465 -279 l98 -25 927 0 927 0 98 25
c183 46 309 122 465 279 l85 86 -1575 0 -1575 0 85 -86z"/>
<path d="M1615 1150 c-152 -32 -300 -95 -429 -183 -87 -59 -236 -206 -296
-293 -99 -143 -190 -371 -190 -475 0 -99 46 -199 90 -199 10 0 32 11 48 25 28
24 44 52 170 315 128 266 338 451 613 543 142 47 173 49 984 45 872 -5 818 1
1030 -103 216 -105 369 -261 477 -485 126 -262 142 -291 170 -315 16 -14 38
-25 48 -25 44 0 90 100 90 199 0 100 -89 326 -181 462 -56 83 -198 230 -274
284 -146 104 -297 171 -462 204 -98 20 -131 21 -950 20 -792 0 -854 -2 -938
-19z"/>
</g>
</svg>
