<svg xmlns="http://www.w3.org/2000/svg" viewBox="0 0 512 512">
	<path d="M352.5 23.5c23.745-2.3203 46.412 1.513 68 11.5 2.928 3.2572 3.762 7.0906 2.5 11.5-1.214 1.5488-2.714 2.7155-4.5 3.5-11.111.3607-21.445 3.3607-31 9-9.358.6477-12.858-3.519-10.5-12.5 1.558-1.8589 3.391-3.3589 5.5-4.5-.333-.3333-.667-.6667-1-1-9.973-1.526-19.973-1.3593-30 .5-8.183-.7007-11.016-5.034-8.5-13 2.64-2.9013 5.807-4.568 9.5-5Zm-102 16c72.737-2.5055 131.237 24.8279 175.5 82 4.937 10.307 1.771 15.14-9.5 14.5-1.786-.785-3.286-1.951-4.5-3.5C378.072 86.1108 332.239 60.9441 274.5 57c4.619 5.292 8.453 11.1253 11.5 17.5 2 8.6667 2 17.3333 0 26-4.333 7-8.667 14-13 21-.667 4-.667 8 0 12 4.302 6.98 8.635 13.98 13 21 2 8.667 2 17.333 0 26-3.241 6.402-7.075 12.402-11.5 18 16.99.833 33.99 1.333 51 1.5 36.913 5.7 63.746 25.2 80.5 58.5 1.808 10.53-2.359 14.363-12.5 11.5-6.461-11.798-14.461-22.465-24-32-13.055-11.026-28.055-18.026-45-21-23.647-1.184-47.314-1.85-71-2-48.035-9.366-74.369-38.366-79-87 3.384-48.5391 28.718-78.0391 76-88.5Zm1 17c1.667 0 3.333 0 5 0 .299 3.6055 1.465 6.9388 3.5 10 3 4 6 8 9 12 2 6 2 12 0 18-4.784 5.456-8.784 11.456-12 18-2.757 11.077-1.757 21.744 3 32 3.726 4.728 7.059 9.728 10 15 .826 5.089.492 10.089-1 15-5.769 6.536-10.269 13.869-13.5 22-33.236-6.674-54.07-26.341-62.5-59-2.877-43.5992 16.623-71.2658 58.5-83Zm-24 31c6.121-.4101 12.121.0899 18 1.5 4.696 10.4498 1.363 15.283-10 14.5-9.835 1.666-13.668-2.334-11.5-12 .69-1.8502 1.856-3.1836 3.5-4Zm80 32c11.945.813 23.278 3.979 34 9.5 38.211 18.543 65.878 47.21 83 86-1.996 8.402-6.996 10.736-15 7-21.163-45.154-55.83-74.487-104-88-1.929-3.256-2.429-6.756-1.5-10.5.69-1.85 1.856-3.184 3.5-4Zm-280 16c22.073-1.214 39.4064 7.12 52 25 9.23-12.709 21.563-20.876 37-24.5 5.781-.903 11.447-.57 17 1 .626.75 1.126 1.584 1.5 2.5.667 15.667.667 31.333 0 47-9.767 33.067-31.934 47.9-66.5 44.5-24.1667-5.5-39-20.333-44.5-44.5-.6667-15.667-.6667-31.333 0-47 .6897-1.85 1.8564-3.184 3.5-4Zm12 18c16.2357 3.735 26.4023 13.735 30.5 30 1.2557 9.959 1.7557 19.959 1.5 30-16.2357-3.735-26.4023-13.735-30.5-30-1.2557-9.959-1.7557-19.959-1.5-30Zm76 0c1.333 0 2.667 0 4 0 .256 10.041-.244 20.041-1.5 30-4.098 16.265-14.264 26.265-30.5 30-.7041-12.536.4625-24.87 3.5-37 5.1637-11.001 13.33-18.668 24.5-23Zm318-5c3.901-.643 7.234.357 10 3 16.72 34.107 23.22 70.107 19.5 108-.5 1.833-1.667 3-3.5 3.5-2.667.667-5.333.667-8 0-1.833-.5-3-1.667-3.5-3.5.754-27.3-2.912-53.967-11-80-3.269-7.364-6.102-14.864-8.5-22.5.025-3.895 1.692-6.728 5-8.5Zm-206 3c6.121-.41 12.121.09 18 1.5 4.696 10.45 1.363 15.283-10 14.5-9.835 1.666-13.668-2.334-11.5-12 .69-1.85 1.856-3.184 3.5-4Zm79 79c5.972 2.785 11.306 6.618 16 11.5 6.088 4.463 12.588 8.297 19.5 11.5 1.397-8.115 5.897-10.615 13.5-7.5 5.126 7.46 11.293 13.96 18.5 19.5 3.534 10.762-.299 15.262-11.5 13.5-20.385-5.026-38.718-14.026-55-27-3.204-2.869-6.037-6.035-8.5-9.5-1.26-6.498 1.24-10.498 7.5-12Zm-167 1c27.869 3.518 51.703 15.185 71.5 35 2.841 10.162-.992 14.328-11.5 12.5-8.746-8.912-18.746-16.078-30-21.5-1.766 8.049-6.433 10.549-14 7.5-5.789-7.79-12.289-14.957-19.5-21.5-1.407-4.857-.24-8.857 3.5-12Zm-29 8c3.81-.121 6.977 1.212 9.5 4 13.562 28.044 35.729 44.878 66.5 50.5 23.314 1.181 46.647 1.848 70 2 48.352 8.849 75.018 37.683 80 86.5-3.126 48.109-28.126 77.609-75 88.5-67.482 3.741-123.315-19.759-167.5-70.5-1.8626-10.472 2.3041-14.306 12.5-11.5 34.169 39.751 77.503 61.418 130 65-12.337-12.178-16.17-26.678-11.5-43.5 4.333-7 8.667-14 13-21 .667-4 .667-8 0-12-4.333-7-8.667-14-13-21-2-8.667-2-17.333 0-26 3.047-6.375 6.881-12.208 11.5-17.5-17.353-.223-34.687-.889-52-2-32.871-5.505-58.037-22.339-75.5-50.5-2.358-3.71-3.858-7.71-4.5-12-.216-4.589 1.784-7.589 6-9Zm144 73c39.515 7.409 60.849 31.076 64 71-1.574 34.313-18.574 57.146-51 68.5-4.254 1.314-8.587 2.147-13 2.5-.299-3.605-1.465-6.939-3.5-10-3-4-6-8-9-12-2-6-2-12 0-18 5.877-6.42 10.21-13.753 13-22 2.986-14.404-.681-26.737-11-37-3.806-6.671-4.473-13.671-2-21 3-4 6-8 9-12 2.035-3.061 3.201-6.395 3.5-10Zm-203-69c4.7225-.947 8.5558.386 11.5 4-1.3098 30.527 3.0235 60.194 13 89 4.7728 11.377 9.9395 22.544 15.5 33.5-1.9934 7.663-6.6601 9.997-14 7C52.9009 337.358 43.0676 294.192 48 247.5c1.3756-1.205 2.5423-2.538 3.5-4Zm369 36c34.518-2.948 56.685 12.052 66.5 45 .667 15.667.667 31.333 0 47-.374.916-.874 1.75-1.5 2.5-17.618 3.017-32.952-1.649-46-14-2.508-3.338-5.175-6.505-8-9.5-9.23 12.709-21.563 20.876-37 24.5-5 .667-10 .667-15 0-.916-.374-1.75-.874-2.5-1.5-1.636-16.241-1.97-32.575-1-49 5.654-24.154 20.488-39.154 44.5-45Zm-1 18c1.333 0 2.667 0 4 0 .256 10.041-.244 20.041-1.5 30-4.098 16.265-14.264 26.265-30.5 30-.704-12.536.463-24.87 3.5-37 5.164-11.001 13.33-18.668 24.5-23Zm20 0c16.236 3.735 26.402 13.735 30.5 30 1.256 9.959 1.756 19.959 1.5 30-16.236-3.735-26.402-13.735-30.5-30-1.256-9.959-1.756-19.959-1.5-30Zm-348-10c3.7568-.429 7.2568.237 10.5 2 21.028 44.954 55.528 74.12 103.5 87.5 4 5.333 3.333 10-2 14-3 .667-6 .667-9 0-50.902-15.074-86.902-46.907-108-95.5.6935-3.41 2.3601-6.077 5-8Zm176 56c6.121-.41 12.121.09 18 1.5 4.696 10.45 1.363 15.283-10 14.5-9.835 1.666-13.668-2.334-11.5-12 .69-1.85 1.856-3.184 3.5-4Zm0 64c6.121-.41 12.121.09 18 1.5 4.696 10.45 1.363 15.283-10 14.5-9.835 1.666-13.668-2.334-11.5-12 .69-1.85 1.856-3.184 3.5-4Zm-144 44c9.346-.168 12.846 4.165 10.5 13-1.558 1.859-3.391 3.359-5.5 4.5.333.333.667.667 1 1 4.586.197 9.086.697 13.5 1.5 6.749-1.243 13.583-1.743 20.5-1.5 4.655 2.897 6.155 7.063 4.5 12.5-1.214 1.549-2.714 2.715-4.5 3.5-25.346 4.388-49.679 1.055-73-10-4-4.667-4-9.333 0-14 6.6617-1.188 13.328-2.521 20-4 4.673-1.67 9.007-3.837 13-6.5Z" stroke="#44739e" stroke-width="4" fill="none"/>
</svg>