<svg xmlns="http://www.w3.org/2000/svg" viewBox="0 0 512 512">
	<path d="M 246.5,-0.5 C 269.833,-0.5 293.167,-0.5 316.5,-0.5C 333.078,7.49423 337.244,19.8276 329,36.5C 326.011,40.4906 322.178,43.324 317.5,45C 309.571,46.3633 301.571,46.8633 293.5,46.5C 293.5,51.8333 293.5,57.1667 293.5,62.5C 309.837,62.3334 326.17,62.5001 342.5,63C 362.945,66.4565 376.445,77.9565 383,97.5C 384.391,109.447 384.891,121.447 384.5,133.5C 393.173,133.334 401.84,133.5 410.5,134C 413.094,135.339 414.594,137.506 415,140.5C 415.667,154.5 415.667,168.5 415,182.5C 414.594,185.494 413.094,187.661 410.5,189C 406.848,189.499 403.182,189.665 399.5,189.5C 399.667,240.834 399.5,292.168 399,343.5C 397.688,346.581 395.355,348.248 392,348.5C 387.782,347.949 385.116,345.616 384,341.5C 383.667,317.833 383.333,294.167 383,270.5C 376.013,277.807 371.68,286.474 370,296.5C 369.5,349.499 369.333,402.499 369.5,455.5C 374.167,455.5 378.833,455.5 383.5,455.5C 383.333,428.165 383.5,400.831 384,373.5C 384.985,369.334 387.652,367.334 392,367.5C 395.274,367.301 397.607,368.634 399,371.5C 399.5,399.498 399.667,427.498 399.5,455.5C 403.637,455.146 407.637,455.646 411.5,457C 413.768,458.558 414.934,460.724 415,463.5C 415.667,477.167 415.667,490.833 415,504.5C 414.867,507.404 413.7,509.738 411.5,511.5C 307.5,511.5 203.5,511.5 99.5,511.5C 97.2995,509.738 96.1328,507.404 96,504.5C 95.3333,490.833 95.3333,477.167 96,463.5C 96.0657,460.724 97.2324,458.558 99.5,457C 103.363,455.646 107.363,455.146 111.5,455.5C 111.333,427.498 111.5,399.498 112,371.5C 113.393,368.634 115.726,367.301 119,367.5C 123.348,367.334 126.015,369.334 127,373.5C 127.5,400.831 127.667,428.165 127.5,455.5C 132.167,455.5 136.833,455.5 141.5,455.5C 141.667,402.499 141.5,349.499 141,296.5C 139.32,286.474 134.987,277.807 128,270.5C 127.667,294.167 127.333,317.833 127,341.5C 124.609,347.468 120.442,349.302 114.5,347C 113.299,346.097 112.465,344.931 112,343.5C 111.5,292.168 111.333,240.834 111.5,189.5C 107.818,189.665 104.152,189.499 100.5,189C 97.9057,187.661 96.4057,185.494 96,182.5C 95.3333,168.5 95.3333,154.5 96,140.5C 96.4057,137.506 97.9057,135.339 100.5,134C 109.16,133.5 117.827,133.334 126.5,133.5C 126.109,121.447 126.609,109.447 128,97.5C 134.699,78.1417 148.199,66.6417 168.5,63C 184.83,62.5001 201.163,62.3334 217.5,62.5C 217.333,51.495 217.5,40.495 218,29.5C 221.909,14.0935 231.409,4.09349 246.5,-0.5 Z M 286.5,15.5 C 293.989,14.3443 301.655,14.1777 309.5,15C 316.183,16.4259 318.349,20.2592 316,26.5C 314.786,28.0488 313.286,29.2155 311.5,30C 305.5,30.6667 299.5,30.6667 293.5,30C 292.342,24.52 290.009,19.6866 286.5,15.5 Z M 249.5,15.5 C 262.018,13.5908 271.018,18.2575 276.5,29.5C 268.187,30.3317 259.853,30.8317 251.5,31C 247.387,34.5094 246.554,38.6761 249,43.5C 250.171,44.8932 251.671,45.7265 253.5,46C 261.493,46.4997 269.493,46.6664 277.5,46.5C 277.5,51.8333 277.5,57.1667 277.5,62.5C 262.833,62.5 248.167,62.5 233.5,62.5C 233.067,51.0898 233.567,39.7564 235,28.5C 238.162,22.1641 242.996,17.8308 249.5,15.5 Z M 169.5,78.5 C 228.212,78.0157 286.879,78.5157 345.5,80C 357.684,83.8687 365.184,92.0353 368,104.5C 368.5,114.161 368.666,123.828 368.5,133.5C 362.379,133.09 356.379,133.59 350.5,135C 346.5,139.333 346.5,143.667 350.5,148C 366.738,149.47 383.071,149.97 399.5,149.5C 399.5,157.5 399.5,165.5 399.5,173.5C 303.5,173.5 207.5,173.5 111.5,173.5C 111.5,165.5 111.5,157.5 111.5,149.5C 182.891,149.99 254.225,149.49 325.5,148C 329.926,142.559 329.259,137.892 323.5,134C 263.168,133.5 202.834,133.333 142.5,133.5C 142.094,122.436 142.594,111.436 144,100.5C 148.978,89.0177 157.478,81.6844 169.5,78.5 Z M 127.5,189.5 C 212.833,189.5 298.167,189.5 383.5,189.5C 383.667,209.169 383.5,228.836 383,248.5C 366.446,259.945 356.78,275.612 354,295.5C 353.5,348.832 353.333,402.166 353.5,455.5C 350.5,455.5 347.5,455.5 344.5,455.5C 344.667,402.499 344.5,349.499 344,296.5C 341.536,277.41 332.703,261.91 317.5,250C 299.858,238.696 283.691,225.529 269,210.5C 260,191.833 251,191.833 242,210.5C 227.309,225.529 211.142,238.696 193.5,250C 182.855,258.482 175.021,268.982 170,281.5C 168.524,286.406 167.524,291.406 167,296.5C 166.5,349.499 166.333,402.499 166.5,455.5C 163.5,455.5 160.5,455.5 157.5,455.5C 157.667,402.166 157.5,348.832 157,295.5C 154.22,275.612 144.554,259.945 128,248.5C 127.5,228.836 127.333,209.169 127.5,189.5 Z M 254.5,220.5 C 260.591,226.417 266.924,232.251 273.5,238C 284.833,246.333 296.167,254.667 307.5,263C 316.795,270.621 323.295,280.121 327,291.5C 328.475,346.134 328.975,400.801 328.5,455.5C 279.833,455.5 231.167,455.5 182.5,455.5C 182.025,400.801 182.525,346.134 184,291.5C 187.705,280.121 194.205,270.621 203.5,263C 217.346,252.91 231.013,242.576 244.5,232C 247.959,228.229 251.292,224.395 254.5,220.5 Z M 111.5,471.5 C 207.5,471.5 303.5,471.5 399.5,471.5C 399.5,479.833 399.5,488.167 399.5,496.5C 303.5,496.5 207.5,496.5 111.5,496.5C 111.5,488.167 111.5,479.833 111.5,471.5 Z" stroke="#44739e" stroke-width="4" fill="none"/>
</svg>