<svg xmlns="http://www.w3.org/2000/svg" viewBox="0 0 512 512">
	<path d="M 511.5,222.5 C 511.5,227.167 511.5,231.833 511.5,236.5C 504.744,293.617 496.244,350.617 486,407.5C 475.866,453.967 447.533,481.967 401,491.5C 399.112,491.204 397.278,490.704 395.5,490C 377.333,466.5 359.167,443 341,419.5C 335.204,411.44 337.037,406.106 346.5,403.5C 364.728,405.406 382.895,407.406 401,409.5C 412.93,389.718 420.93,368.385 425,345.5C 432.321,312.926 436.821,280.093 438.5,247C 416.155,245.017 393.822,245.184 371.5,247.5C 360.213,294.399 342.046,338.399 317,379.5C 297.123,409.044 272.289,433.544 242.5,453C 226.522,462.103 209.522,468.437 191.5,472C 184.202,473.283 176.869,473.617 169.5,473C 163.912,470.322 162.412,466.155 165,460.5C 174.798,452.371 184.298,443.871 193.5,435C 187.554,436.803 181.887,439.47 176.5,443C 172.495,444.098 168.995,443.265 166,440.5C 159.845,420.212 153.845,399.879 148,379.5C 147.639,370.427 151.806,367.261 160.5,370C 161.333,370.833 162.167,371.667 163,372.5C 168,389.5 173,406.5 178,423.5C 181.914,421.46 185.748,419.293 189.5,417C 185.142,406.931 180.976,396.764 177,386.5C 176.312,380.562 178.978,377.229 185,376.5C 187.923,376.795 190.257,378.129 192,380.5C 195.968,390.433 200.301,400.1 205,409.5C 214.23,404.802 223.397,399.968 232.5,395C 226.292,386.087 220.459,376.921 215,367.5C 214.722,358.796 218.889,355.629 227.5,358C 234.331,367.325 240.664,376.991 246.5,387C 250.618,385.951 254.618,384.284 258.5,382C 237.516,355.186 216.183,328.686 194.5,302.5C 178.989,309.753 163.989,317.753 149.5,326.5C 152.298,334.353 154.131,342.353 155,350.5C 152.565,355.224 148.731,356.724 143.5,355C 142.584,354.626 141.75,354.126 141,353.5C 137.667,343.5 134.333,333.5 131,323.5C 110.804,296.298 89.4702,269.964 67,244.5C 31.6213,199.203 9.12128,148.203 -0.5,91.5C -0.5,80.8333 -0.5,70.1667 -0.5,59.5C 1.37107,45.9271 7.37107,34.4271 17.5,25C 28.2654,19.3246 39.5988,17.9912 51.5,21C 72.327,29.169 90.1603,41.669 105,58.5C 145.077,104.325 171.077,157.325 183,217.5C 190.361,241.617 198.028,265.617 206,289.5C 221.667,309.167 237.333,328.833 253,348.5C 266.587,321.075 277.421,292.575 285.5,263C 273.512,264.93 261.512,267.264 249.5,270C 231.932,272.927 217.766,267.427 207,253.5C 200.667,243.5 194.333,233.5 188,223.5C 186.968,216.574 189.968,212.907 197,212.5C 230.317,214.546 263.483,213.046 296.5,208C 302.576,173.943 305.242,139.61 304.5,105C 304.592,99.2461 307.426,96.0795 313,95.5C 331.703,102.069 350.203,109.236 368.5,117C 383.703,123.745 391.37,135.412 391.5,152C 389.988,165.573 387.988,179.073 385.5,192.5C 406.002,188.599 426.335,183.933 446.5,178.5C 454.569,182.62 462.069,187.62 469,193.5C 471.87,203.964 468.036,207.797 457.5,205C 453.173,201.486 448.507,198.653 443.5,196.5C 421.877,201.525 400.211,206.358 378.5,211C 371.398,212.792 367.398,210.125 366.5,203C 369.59,187.548 372.424,172.048 375,156.5C 376.888,144.774 372.388,136.607 361.5,132C 348.249,126.529 334.916,121.362 321.5,116.5C 320.902,151.145 317.402,185.479 311,219.5C 309.786,221.049 308.286,222.215 306.5,223C 275.015,227.749 243.348,230.082 211.5,230C 215.678,236.689 220.345,243.022 225.5,249C 231.807,253.546 238.807,255.213 246.5,254C 263.03,250.627 279.53,247.127 296,243.5C 301.413,244.079 304.246,247.079 304.5,252.5C 295.619,290.98 282.285,327.813 264.5,363C 268.641,368.776 273.141,374.276 278,379.5C 279.879,382.866 279.879,386.2 278,389.5C 263.406,397.881 248.572,405.881 233.5,413.5C 222.762,427.41 211.096,440.576 198.5,453C 217.825,447.838 235.492,439.171 251.5,427C 285.345,399.142 310.845,364.976 328,324.5C 340.185,296.279 350.185,267.279 358,237.5C 358.785,235.714 359.951,234.214 361.5,233C 369.768,231.54 378.102,230.54 386.5,230C 402.167,229.333 417.833,229.333 433.5,230C 440.339,230.568 447.006,231.901 453.5,234C 455.477,236.26 456.477,238.927 456.5,242C 453.479,278.145 448.313,313.979 441,349.5C 436.646,371.562 429.313,392.562 419,412.5C 416.191,416.61 413.025,420.443 409.5,424C 407.13,425.036 404.63,425.536 402,425.5C 389.124,424.162 376.29,422.995 363.5,422C 377.121,439.41 390.621,456.91 404,474.5C 445.713,461.096 468.713,432.429 473,388.5C 481.763,336.327 489.263,283.994 495.5,231.5C 490.756,227.712 485.923,224.045 481,220.5C 477.785,211.42 480.952,207.253 490.5,208C 497.877,212.35 504.877,217.183 511.5,222.5 Z M 32.5,35.5 C 43.4609,34.9875 53.4609,37.8209 62.5,44C 84.0848,59.5839 102.251,78.4172 117,100.5C 139.848,134.703 156.015,171.869 165.5,212C 141.746,224.627 117.912,237.127 94,249.5C 51.9716,203.437 25.9716,149.437 16,87.5C 14.1351,73.0326 15.8018,59.0326 21,45.5C 23.7942,40.8659 27.6275,37.5326 32.5,35.5 Z M 167.5,229.5 C 168.496,229.414 169.329,229.748 170,230.5C 175.734,249.203 181.568,267.869 187.5,286.5C 172.693,294.738 157.693,302.738 142.5,310.5C 129.611,295.109 117.277,279.276 105.5,263C 126.041,251.563 146.708,240.397 167.5,229.5 Z" stroke="#44739e" stroke-width="4" fill="none"/>
</svg>