<svg xmlns="http://www.w3.org/2000/svg" viewBox="0 0 512 512">
	<path d="M144.5 7.5c7.523-.573 14.856.2604 22 2.5 10.618 7.2281 20.784 15.0615 30.5 23.5 23.286-9.8832 47.452-12.7165 72.5-8.5 9.873 1.6754 19.373 4.5087 28.5 8.5 9.881-8.2161 20.048-16.0494 30.5-23.5 15.702-5.8531 29.202-2.6864 40.5 9.5 6.114 9.0986 8.114 19.0986 6 30-3.264 16.2214-6.764 32.388-10.5 48.5 2.84 7.019 5.173 14.186 7 21.5 19.669-.167 39.336 0 59 .5 8.167 2.833 13.667 8.333 16.5 16.5.667 10 .667 20 0 30-2.495 6.997-6.995 12.331-13.5 16 7.322 32.955 14.488 65.955 21.5 99 4.311 26.246-3.522 47.912-23.5 65 17.451 52.265 6.951 97.932-31.5 137-2.333 9.665-8.166 16.165-17.5 19.5-26 .667-52 .667-78 0-5.949-1.948-10.783-5.448-14.5-10.5-14.411 4.471-28.578 3.804-42.5-2-13.764 5.735-27.764 6.402-42 2-2.791 2.289-5.458 4.789-8 7.5-2.217 1.275-4.551 2.275-7 3-27.062.974-54.062.64-81-1-7.818-3.819-12.6516-9.986-14.5-18.5-40.3985-41.623-50.0652-89.623-29-144 3.7471-7.163 7.7471-14.163 12-21 9.242-11.486 18.242-23.153 27-35 4.793-10.427 7.126-21.427 7-33 3.244-15.322 10.744-28.156 22.5-38.5-14.08-26.216-18.58-54.049-13.5-83.5 2.008-10.535 5.175-20.701 9.5-30.5-4.697-18.8195-8.364-37.8195-11-57 .227-17.311 8.56-28.4776 25-33.5Zm3 17c4.949-.5411 9.616.2922 14 2.5 10.048 8.3824 20.381 16.3824 31 24 2.333.6667 4.667.6667 7 0 4.678-2.2261 9.511-4.0594 14.5-5.5 2.223 2.9685 3.89 6.3018 5 10 10.552 15.2932 24.718 19.7932 42.5 13.5 6.443-2.7767 11.277-7.2767 14.5-13.5 1.11-3.6982 2.777-7.0315 5-10 4.989 1.4406 9.822 3.2739 14.5 5.5 2.333.6667 4.667.6667 7 0 11.385-9.052 23.051-17.7187 35-26 12.777-1.7133 19.777 3.7867 21 16.5-3.585 19.1738-7.251 38.3404-11 57.5 2.02 6.846 3.853 13.679 5.5 20.5-2.545 1.022-5.045 2.188-7.5 3.5-1.708 2.043-3.708 3.71-6 5-12.667 5-25.333 10-38 15-.522.561-.855 1.228-1 2 1.71 4.964 3.71 9.798 6 14.5 9.588-3.964 19.255-7.631 29-11-3.299 14.802 1.368 26.136 14 34-2.023 7.946-3.856 15.946-5.5 24-25.306 40.904-62.139 59.404-110.5 55.5-51.178-9.178-83.012-39.011-95.5-89.5-2.455-16.801-1.789-33.468 2-50 2.713-7.803 5.213-15.636 7.5-23.5-3.749-19.1596-7.415-38.3262-11-57.5.086-8.0685 3.753-13.7352 11-17Zm87 16c8.673-.1664 17.34.0002 26 .5.928.3879 1.595 1.0546 2 2-3.461 9.3988-10.128 13.0654-20 11-5.079-2.079-8.412-5.7457-10-11 .556-1.0111 1.222-1.8444 2-2.5Zm-72 16c1.699-.1602 3.366.0065 5 .5 4.667 3.6667 9.333 7.3333 14 11-5.425 2.9777-11.091 5.4777-17 7.5-2.176-4.1969-3.51-8.6969-4-13.5-.105-2.1782.561-4.0115 2-5.5Zm165 0c6.497-.3201 8.664 2.6799 6.5 9-.561 3.5946-1.728 6.9279-3.5 10-5.909-2.0223-11.575-4.5223-17-7.5 4.921-3.6131 9.588-7.4464 14-11.5Zm32 79c21.336-.167 42.669 0 64 .5 4.5.5 7 3 7.5 7.5.87 6.417.536 12.751-1 19-.5 1.833-1.667 3-3.5 3.5-3.56 1.237-7.227 1.737-11 1.5 0-5.333 0-10.667 0-16-5.333 0-10.667 0-16 0 0 5.333 0 10.667 0 16-5.333 0-10.667 0-16 0 0-5.333 0-10.667 0-16-5.333 0-10.667 0-16 0 0 5.333 0 10.667 0 16-4.58.387-8.914-.447-13-2.5-1.217-1.648-2.05-3.481-2.5-5.5-1.113-7.215-.446-14.215 2-21 1.876-1.109 3.709-2.109 5.5-3Zm-123 40c7.341-.166 14.674 0 22 .5 3.795 1.064 4.961 3.564 3.5 7.5-9.667 10.667-19.333 10.667-29 0-1.42-4.061-.254-6.728 3.5-8Zm130 8c16.667 0 33.333 0 50 0 8.053 36.931 15.719 73.931 23 111-1.632 23.112-13.298 38.612-35 46.5-23.488 5.176-41.655-2.324-54.5-22.5-5.389-10.86-7.056-22.194-5-34 7.105-33.695 14.272-67.362 21.5-101Zm-223 44c7.267 9.101 15.433 17.435 24.5 25 6.538 28.066 17.704 54.066 33.5 78-14.97 13.635-29.636 27.635-44 42-23.162-13.496-42.495-31.163-58-53 7.359-9.526 14.526-19.192 21.5-29 1.944-4.223 3.611-8.556 5-13 1.012-10.783 2.679-21.45 5-32 2.944-6.902 7.111-12.902 12.5-18Zm191 18c.597.235.93.735 1 1.5-2.627 11.469-5.127 22.969-7.5 34.5-4.184 25.117 2.983 46.283 21.5 63.5 20.066 15.207 42.066 18.707 66 10.5 2.329 3.466 3.995 7.3 5 11.5-15.678 4.346-25.178 14.512-28.5 30.5-4.019 19.284 1.814 34.784 17.5 46.5-3.044 4.588-6.21 9.088-9.5 13.5-3.167-8.5-9-14.333-17.5-17.5-26-.667-52-.667-78 0-8.167 2.833-13.667 8.333-16.5 16.5-.333 6-.667 12-1 18-6.712 3.699-13.879 4.866-21.5 3.5-6.321-1.845-12.321-4.345-18-7.5-4.782 1.89-9.448 4.057-14 6.5-8.879 2.574-17.379 1.741-25.5-2.5 2.253-12.577-1.247-23.077-10.5-31.5-2.217-1.275-4.551-2.275-7-3-26-.667-52-.667-78 0-8.167 2.833-13.6667 8.333-16.5 16.5-.6667 1.333-1.3333 1.333-2 0-2.8333-4.167-5.6667-8.333-8.5-12.5 15.686-11.716 21.519-27.216 17.5-46.5-3.3223-15.988-12.8223-26.154-28.5-30.5 3.0957-11.625 7.929-22.458 14.5-32.5 16.413 22.769 36.913 40.769 61.5 54 .284 6.332 1.784 12.332 4.5 18 7.247 9.249 15.747 17.083 25.5 23.5 4.583 1.145 9.249 1.811 14 2 3.6 3.634 7.933 5.967 13 7 26.667.667 53.333.667 80 0 12.5-3.167 20.333-11 23.5-23.5.667-32 .667-64 0-96-3.167-12.5-11-20.333-23.5-23.5-26.667-.667-53.333-.667-80 0-1.372.402-2.705.902-4 1.5-5.766-9.104-10.099-18.937-13-29.5.167-.5.333-1 .5-1.5 25.173 12.501 51.673 16.334 79.5 11.5 24.874-4.269 46.208-15.103 64-32.5Zm53 19c10.082-.105 16.248 4.895 18.5 15 1.597 8.854.264 17.187-4 25-7 8-14 8-21 0-6-11.333-6-22.667 0-34 2.063-2.234 4.229-4.234 6.5-6Zm-172 47c21.336-.167 42.669 0 64 .5 9.167 1.167 14.333 6.333 15.5 15.5.667 26.667.667 53.333 0 80-1.167 9.167-6.333 14.333-15.5 15.5-22.089.978-44.089.644-66-1 12.696-12.362 25.03-25.029 37-38 9.661-.5 19.328-.666 29-.5 0-5.333 0-10.667 0-16-8 0-16 0-24 0 .605-5.683-.729-10.849-4-15.5 9.327-.5 18.661-.666 28-.5 0-5.333 0-10.667 0-16-14.67.167-29.337 0-44-.5-5.074-3.913-10.574-7.08-16.5-9.5-2.71-4.253-5.543-8.42-8.5-12.5 1.882-.198 3.548-.698 5-1.5Zm-4 33c3.478-.316 6.812.184 10 1.5 5.167 5.167 10.333 10.333 15.5 15.5 2.109 4.281 1.942 8.448-.5 12.5-.667.667-1.333.667-2 0-4-4-8-8-12-12-4.968 2.782-9.302 6.616-13 11.5 3.985 4.485 8.151 8.818 12.5 13-2.446 4.633-5.946 8.633-10.5 12-4.485-3.985-8.818-8.151-13-12.5-4.968 2.782-9.302 6.616-13 11.5 4.333 4.667 8.667 9.333 13 14-.59 1.299-1.59 2.132-3 2.5-2.667.667-5.333.667-8 0-6.135-5.134-11.969-10.634-17.5-16.5-1.483-3.202-1.817-6.536-1-10 13.7-14.866 27.867-29.2 42.5-43Zm-139 40c7.3868 2.228 11.8868 7.228 13.5 15 2.4357 10.634.1024 19.967-7 28-5.6215-13.736-7.7882-28.069-6.5-43Zm347 0c1 0 2 0 3 0 1.288 14.931-.878 29.264-6.5 43-7.102-8.033-9.436-17.366-7-28 1.555-6.472 5.055-11.472 10.5-15Zm-300 71c21.336-.167 42.669 0 64 .5 4.5.5 7 3 7.5 7.5.87 6.417.536 12.751-1 19-.5 1.833-1.667 3-3.5 3.5-3.56 1.237-7.227 1.737-11 1.5 0-5.333 0-10.667 0-16-5.333 0-10.667 0-16 0 0 5.333 0 10.667 0 16-5.333 0-10.667 0-16 0 0-5.333 0-10.667 0-16-5.333 0-10.667 0-16 0 0 5.333 0 10.667 0 16-4.58.387-8.914-.447-13-2.5-1.217-1.648-2.05-3.481-2.5-5.5-1.113-7.215-.446-14.215 2-21 1.876-1.109 3.709-2.109 5.5-3Zm192 0c21.336-.167 42.669 0 64 .5 4.5.5 7 3 7.5 7.5.87 6.417.536 12.751-1 19-.5 1.833-1.667 3-3.5 3.5-3.56 1.237-7.227 1.737-11 1.5 0-5.333 0-10.667 0-16-5.333 0-10.667 0-16 0 0 5.333 0 10.667 0 16-5.333 0-10.667 0-16 0 0-5.333 0-10.667 0-16-5.333 0-10.667 0-16 0 0 5.333 0 10.667 0 16-4.58.387-8.914-.447-13-2.5-1.217-1.648-2.05-3.481-2.5-5.5-1.113-7.215-.446-14.215 2-21 1.876-1.109 3.709-2.109 5.5-3Zm-154-416c7.082-.8572 13.749.3095 20 3.5 9.05 7.3847 18.384 14.3847 28 21 2.442 4.0524 2.609 8.2191.5 12.5-14.319 6.5522-28.819 12.7189-43.5 18.5-3.795.8372-7.461.5039-11-1-3.818-10.9136-6.818-22.0803-9-33.5.862-10.0909 5.862-17.0909 15-21Zm5 17c-1.439 1.4885-2.105 3.3218-2 5.5.49 4.8031 1.824 9.3031 4 13.5 5.909-2.0223 11.575-4.5223 17-7.5-4.667-3.6667-9.333-7.3333-14-11-1.634-.4935-3.301-.6602-5-.5Zm161-17c20.574-1.5944 29.741 7.739 27.5 28-2.001 8.0049-4.001 16.0049-6 24-3.308 3.8271-7.474 4.9937-12.5 3.5-14.415-5.8049-28.748-11.8049-43-18-2.667-4.3333-2.667-8.6667 0-13 11.224-8.4333 22.557-16.5999 34-24.5Zm4 17c-4.412 4.0536-9.079 7.8869-14 11.5 5.425 2.9777 11.091 5.4777 17 7.5 1.772-3.0721 2.939-6.4054 3.5-10 2.164-6.3201-.003-9.3201-6.5-9Zm-141 39c17.962-2.5152 32.295 3.4848 43 18-3.667 4.333-7.667 8.333-12 12-3.485-2.984-6.818-6.151-10-9.5-8.028-4.611-16.028-4.611-24 0-3.182 3.349-6.515 6.516-10 9.5-4.333-3.667-8.333-7.667-12-12 6.721-8.409 15.054-14.4093 25-18Zm104 0c17.962-2.5152 32.295 3.4848 43 18-3.667 4.333-7.667 8.333-12 12-3.485-2.984-6.818-6.151-10-9.5-8.028-4.611-16.028-4.611-24 0-3.182 3.349-6.515 6.516-10 9.5-4.333-3.667-8.333-7.667-12-12 6.721-8.409 15.054-14.4093 25-18Zm-137 32c13.427 4.866 26.761 10.032 40 15.5.522.561.855 1.228 1 2-1.71 4.964-3.71 9.798-6 14.5-13-5.167-26-10.333-39-15.5-.522-.561-.855-1.228-1-2 1.974-4.756 3.641-9.59 5-14.5Zm76 32c12.005-.167 24.005 0 36 .5 14.572 7.558 18.072 18.725 10.5 33.5-5.9 8.538-14.067 13.371-24.5 14.5 4.967 3.966 9.634 8.299 14 13 4 2 8 2 12 0 3.667-3.667 7.333-7.333 11-11 4.968 2.782 9.302 6.616 13 11.5-5.747 7.923-13.081 13.757-22 17.5-8.029 1.356-15.695.356-23-3-3.146-2.312-6.146-4.812-9-7.5-13.175 12.769-27.509 14.269-43 4.5-3.5-3.5-7-7-10.5-10.5 2.782-4.968 6.616-9.302 11.5-13 4.152 3.651 8.152 7.484 12 11.5 4 2 8 2 12 0 4.366-4.701 9.033-9.034 14-13-20.039-3.022-29.205-14.522-27.5-34.5 2.687-6.519 7.187-11.186 13.5-14Zm7 16c-3.754 1.272-4.92 3.939-3.5 8 9.667 10.667 19.333 10.667 29 0 1.461-3.936.295-6.436-3.5-7.5-7.326-.5-14.659-.666-22-.5Zm-49-8c3.156 4.227 5.49 9.06 7 14.5-.145.772-.478 1.439-1 2-12.96 5.265-25.96 10.431-39 15.5-2.29-4.702-4.29-9.536-6-14.5.145-.772.478-1.439 1-2 12.869-4.943 25.536-10.11 38-15.5Zm118 0c13.423 4.876 26.757 10.043 40 15.5.522.561.855 1.228 1 2-1.71 4.964-3.71 9.798-6 14.5-13-5.167-26-10.333-39-15.5-.522-.561-.855-1.228-1-2 1.974-4.756 3.641-9.59 5-14.5Zm79 80c21.249-.944 34.083 9.056 38.5 30 2.933 16.111-.901 30.278-11.5 42.5-18.29 12.326-33.79 9.493-46.5-8.5-6.519-14.377-7.185-29.044-2-44 4.171-10.009 11.338-16.675 21.5-20Zm3 17c-2.271 1.766-4.437 3.766-6.5 6-6 11.333-6 22.667 0 34 7 8 14 8 21 0 4.264-7.813 5.597-16.146 4-25-2.252-10.105-8.418-15.105-18.5-15Z" stroke="#44739e" stroke-width="4" fill="none"/>
</svg>