<svg xmlns="http://www.w3.org/2000/svg" viewBox="-2 0 512 512">
	<path d="M76.97 1.51c4.5734 0 9.1466 0 13.72 0 5.5156 2.3901 10.4154 5.8201 14.7 10.29 3.6956 2.1743 7.6156 3.8077 11.76 4.9 92.7737.6534 185.5463.6534 278.32 0 7.2236-1.8158 13.4299-5.4092 18.62-10.78 2.9028-1.813 5.8428-3.283 8.82-4.41 4.5737 0 9.1463 0 13.72 0 17.9644 8.5212 22.7007 21.9146 14.21 40.18-15.5673 17.1203-35.0036 25.6137-58.31 25.48 1.4004 12.9797 3.8504 25.7197 7.35 38.22 10.3694 13.6377 22.6194 25.234 36.75 34.79 13.425 7.0893 27.4714 12.642 42.14 16.66.9624 7.5921 1.2887 15.2684.98 23.03-18.9463 0-37.8937 0-56.84 0 0 21.2337 0 42.4663 0 63.7 5.2263 0 10.4537 0 15.68 0-.4655 19.0375.0245 37.9838 1.47 56.84 15.5291 23.8532 36.5991 40.8405 63.21 50.96 0 7.5137 0 15.0263 0 22.54-16.0063 0-32.0137 0-48.02 0 0 37.5663 0 75.1337 0 112.7 5.2263 0 10.4537 0 15.68 0 0 5.5537 0 11.1063 0 16.66-145.6937 0-291.3863 0-437.08 0 0-5.5537 0-11.1063 0-16.66 5.2266 0 10.4534 0 15.68 0 0-37.5663 0-75.1337 0-112.7-16.0066 0-32.0134 0-48.02 0 0-7.5137 0-15.0263 0-22.54 26.6112-10.1195 47.6812-27.1068 63.21-50.96 1.4456-18.8562 1.9356-37.8025 1.47-56.84 5.2266 0 10.4534 0 15.68 0 0-21.2337 0-42.4663 0-63.7-18.9466 0-37.8934 0-56.84 0 0-7.84 0-15.68 0-23.52 33.6868-5.6409 60.3101-22.3009 79.87-49.98 3.5035-13.1771 5.9535-26.5704 7.35-40.18-19.7371-1.1312-36.2337-8.9712-49.49-23.52-9.5581-18.8607-4.8215-32.5807 14.21-41.16Zm4.9 16.66c2.1116-.1254 4.0716.3646 5.88 1.47 7.0959 7.0794 15.5889 11.6528 25.48 13.72 1.2799 5.3373 1.2799 10.7273 0 16.17-15.3156-1.5308-27.8923-8.064-37.73-19.6-1.1778-5.8168.9456-9.7368 6.37-11.76Zm345.94 0c7.5627.435 10.6663 4.355 9.31 11.76-12.2186 14.0454-27.736 20.5787-46.55 19.6 0-5.2266 0-10.4534 0-15.68 6.5121.5247 12.7184-.6187 18.62-3.43 6.665-3.5939 12.8713-7.6772 18.62-12.25ZM131.85 34.83c80.36 0 160.72 0 241.08 0 0 4.9 0 9.8 0 14.7-80.36 0-160.72 0-241.08 0 0-4.9 0-9.8 0-14.7Zm-1.96 32.34c81.6663 0 163.3337 0 245 0 1.421 10.488 3.0547 20.9412 4.9 31.36-84.9337 0-169.8663 0-254.8 0 1.8453-10.4188 3.479-20.872 4.9-31.36Zm-10.78 48.02c88.8537-.1637 177.7073 0 266.56.49 14.8872 21.0955 34.1608 36.7755 57.82 47.04-126.7463.6537-253.4937.6537-380.24 0 23.3716-10.3625 41.992-26.2052 55.86-47.53Zm-19.6 64.68c4.9 0 9.8 0 14.7 0 0 21.2337 0 42.4663 0 63.7-4.9 0-9.8 0-14.7 0 0-21.2337 0-42.4663 0-63.7Zm32.34 0c32.0137 0 64.0263 0 96.04 0 0 10.4537 0 20.9063 0 31.36-32.0137 0-64.0263 0-96.04 0 0-10.4537 0-20.9063 0-31.36Zm112.7 0c5.2263 0 10.4537 0 15.68 0 0 21.2337 0 42.4663 0 63.7-5.2263 0-10.4537 0-15.68 0 0-21.2337 0-42.4663 0-63.7Zm32.34 0c32.0137 0 64.0263 0 96.04 0 0 10.4537 0 20.9063 0 31.36-32.0137 0-64.0263 0-96.04 0 0-10.4537 0-20.9063 0-31.36Zm113.68 0c4.9 0 9.8 0 14.7 0 0 21.2337 0 42.4663 0 63.7-4.9 0-9.8 0-14.7 0 0-21.2337 0-42.4663 0-63.7Zm-258.72 49c32.0137 0 64.0263 0 96.04 0 0 4.9 0 9.8 0 14.7-32.0137 0-64.0263 0-96.04 0 0-4.9 0-9.8 0-14.7Zm145.04 0c32.0137 0 64.0263 0 96.04 0 0 4.9 0 9.8 0 14.7-32.0137 0-64.0263 0-96.04 0 0-4.9 0-9.8 0-14.7ZM82.85 261.21c5.2266 0 10.4534 0 15.68 0 0 10.4537 0 20.9063 0 31.36-5.2266 0-10.4534 0-15.68 0 0-10.4537 0-20.9063 0-31.36Zm32.34 0c10.4537 0 20.9063 0 31.36 0 0 10.4537 0 20.9063 0 31.36-10.4537 0-20.9063 0-31.36 0 0-10.4537 0-20.9063 0-31.36Zm49 0c4.9 0 9.8 0 14.7 0 0 10.4537 0 20.9063 0 31.36-4.9 0-9.8 0-14.7 0 0-10.4537 0-20.9063 0-31.36Zm32.34 0c10.4537 0 20.9063 0 31.36 0 0 10.4537 0 20.9063 0 31.36-10.4537 0-20.9063 0-31.36 0 0-10.4537 0-20.9063 0-31.36Zm48.02 0c5.2263 0 10.4537 0 15.68 0 0 10.4537 0 20.9063 0 31.36-5.2263 0-10.4537 0-15.68 0 0-10.4537 0-20.9063 0-31.36Zm32.34 0c10.4537 0 20.9063 0 31.36 0 0 10.4537 0 20.9063 0 31.36-10.4537 0-20.9063 0-31.36 0 0-10.4537 0-20.9063 0-31.36Zm49 0c4.9 0 9.8 0 14.7 0 0 10.4537 0 20.9063 0 31.36-4.9 0-9.8 0-14.7 0 0-10.4537 0-20.9063 0-31.36Zm32.34 0c10.4537 0 20.9063 0 31.36 0 0 10.4537 0 20.9063 0 31.36-10.4537 0-20.9063 0-31.36 0 0-10.4537 0-20.9063 0-31.36Zm48.02 0c5.2263 0 10.4537 0 15.68 0 0 10.4537 0 20.9063 0 31.36-5.2263 0-10.4537 0-15.68 0 0-10.4537 0-20.9063 0-31.36ZM78.93 309.23c115.642-.3263 231.282 0 346.92.98 11.9952 19.6715 28.0015 35.1889 48.02 46.55-147.6537.6537-295.3063.6537-442.96 0 20.4338-11.4513 36.4405-27.294 48.02-47.53ZM67.17 373.91c4.9 0 9.8 0 14.7 0 0 37.5663 0 75.1337 0 112.7-4.9 0-9.8 0-14.7 0 0-37.5663 0-75.1337 0-112.7Zm32.34 0c10.4537 0 20.9063 0 31.36 0 0 5.2263 0 10.4537 0 15.68-10.4537 0-20.9063 0-31.36 0 0-5.2263 0-10.4537 0-15.68Zm48.02 0c5.2263 0 10.4537 0 15.68 0 0 5.2263 0 10.4537 0 15.68-5.2263 0-10.4537 0-15.68 0 0-5.2263 0-10.4537 0-15.68Zm32.34 0c5.2263 0 10.4537 0 15.68 0 0 5.2263 0 10.4537 0 15.68-5.2263 0-10.4537 0-15.68 0 0-5.2263 0-10.4537 0-15.68Zm32.34 0c5.2263 0 10.4537 0 15.68 0 0 5.2263 0 10.4537 0 15.68-5.2263 0-10.4537 0-15.68 0 0-5.2263 0-10.4537 0-15.68Zm32.34 0c5.2263 0 10.4537 0 15.68 0 0 5.2263 0 10.4537 0 15.68-5.2263 0-10.4537 0-15.68 0 0-5.2263 0-10.4537 0-15.68Zm32.34 0c5.2263 0 10.4537 0 15.68 0 0 5.2263 0 10.4537 0 15.68-5.2263 0-10.4537 0-15.68 0 0-5.2263 0-10.4537 0-15.68Zm32.34 0c5.2263 0 10.4537 0 15.68 0 0 5.2263 0 10.4537 0 15.68-5.2263 0-10.4537 0-15.68 0 0-5.2263 0-10.4537 0-15.68Zm32.34 0c5.2263 0 10.4537 0 15.68 0 0 5.2263 0 10.4537 0 15.68-5.2263 0-10.4537 0-15.68 0 0-5.2263 0-10.4537 0-15.68Zm32.34 0c10.4537 0 20.9063 0 31.36 0 0 5.2263 0 10.4537 0 15.68-10.4537 0-20.9063 0-31.36 0 0-5.2263 0-10.4537 0-15.68Zm49 0c4.9 0 9.8 0 14.7 0 0 37.5663 0 75.1337 0 112.7-4.9 0-9.8 0-14.7 0 0-37.5663 0-75.1337 0-112.7ZM99.51 406.25c101.92 0 203.84 0 305.76 0 0 5.2263 0 10.4537 0 15.68-101.92 0-203.84 0-305.76 0 0-5.2263 0-10.4537 0-15.68Zm0 32.34c26.46 0 52.92 0 79.38 0 0 5.2263 0 10.4537 0 15.68-26.46 0-52.92 0-79.38 0 0-5.2263 0-10.4537 0-15.68Zm97.02 0c10.4537 0 20.9063 0 31.36 0 0 16.0063 0 32.0137 0 48.02-10.4537 0-20.9063 0-31.36 0 0-16.0063 0-32.0137 0-48.02Zm48.02 0c5.2263 0 10.4537 0 15.68 0 0 16.0063 0 32.0137 0 48.02-5.2263 0-10.4537 0-15.68 0 0-16.0063 0-32.0137 0-48.02Zm32.34 0c10.4537 0 20.9063 0 31.36 0 0 16.0063 0 32.0137 0 48.02-10.4537 0-20.9063 0-31.36 0 0-16.0063 0-32.0137 0-48.02Zm49 0c26.46 0 52.92 0 79.38 0 0 5.2263 0 10.4537 0 15.68-26.46 0-52.92 0-79.38 0 0-5.2263 0-10.4537 0-15.68ZM99.51 470.93c4.9 0 9.8 0 14.7 0 0 5.2263 0 10.4537 0 15.68-4.9 0-9.8 0-14.7 0 0-5.2263 0-10.4537 0-15.68Zm32.34 0c4.9 0 9.8 0 14.7 0 0 5.2263 0 10.4537 0 15.68-4.9 0-9.8 0-14.7 0 0-5.2263 0-10.4537 0-15.68Zm32.34 0c4.9 0 9.8 0 14.7 0 0 5.2263 0 10.4537 0 15.68-4.9 0-9.8 0-14.7 0 0-5.2263 0-10.4537 0-15.68Zm161.7 0c4.9 0 9.8 0 14.7 0 0 5.2263 0 10.4537 0 15.68-4.9 0-9.8 0-14.7 0 0-5.2263 0-10.4537 0-15.68Zm32.34 0c4.9 0 9.8 0 14.7 0 0 5.2263 0 10.4537 0 15.68-4.9 0-9.8 0-14.7 0 0-5.2263 0-10.4537 0-15.68Zm32.34 0c4.9 0 9.8 0 14.7 0 0 5.2263 0 10.4537 0 15.68-4.9 0-9.8 0-14.7 0 0-5.2263 0-10.4537 0-15.68ZM1.51 486.61c5.5533 0 11.1066 0 16.66 0 0 5.5537 0 11.1063 0 16.66-5.5534 0-11.1067 0-16.66 0 0-5.5537 0-11.1063 0-16.66Zm501.76 0c0 5.5537 0 11.1063 0 16.66-5.5537 0-11.1063 0-16.66 0 0-5.5537 0-11.1063 0-16.66 5.5537 0 11.1063 0 16.66 0Z" stroke="#44739e" stroke-width="4" fill="none"/>
</svg>