<svg xmlns="http://www.w3.org/2000/svg" viewBox="0 0 512 512">
	<path d="M378.695 398.495c-30.4613 31.9473-61.482 63.463-93.06 94.545 18.8377.8653 37.6477.5356 56.43-.99 20.6078-4.7698 34.3025-17.1448 41.085-37.125 3.0838-13.8432 3.0838-27.7032 0-41.58-.7415-5.3015-2.2265-10.2515-4.455-14.85Zm-248.49 0c-3.3175 12.4819-5.2975 25.1876-5.94 38.115 1.0306 29.1367 15.5499 47.617 43.56 55.44 18.7823 1.5256 37.5923 1.8553 56.43.99-31.5761-31.4107-62.9264-62.9264-94.05-94.545Zm220.77-53.46c-29.004 30.1603-58.209 60.19-87.615 90.09-.6603 19.1397-.6603 38.2803 0 57.42 36.6577-36.3271 72.958-72.9571 108.9-109.89-.1386-4.2639-1.4593-8.2239-3.96-11.88-5.0619-9.1575-10.8375-17.7378-17.325-25.74Zm-193.05 0c-5.6816 8.3843-11.1266 16.9646-16.335 25.74-2.5007 3.6561-3.8214 7.6161-3.96 11.88 35.942 36.9329 72.2423 73.5629 108.9 109.89.6603-19.1397.6603-38.2803 0-57.42-29.404-30.2287-58.9387-60.2583-88.605-90.09Zm155.43-42.57c-16.8241 16.9894-33.4887 34.1491-49.995 51.48-.6603 19.1397-.6603 38.2803 0 57.42 26.4429-25.9469 52.3482-52.3472 77.715-79.2-5.2084-6.7825-10.6534-13.3828-16.335-19.8-3.3947-3.8996-7.1904-7.1993-11.385-9.9Zm-118.8 0c-8.9278 9.5881-17.5072 19.4882-25.74 29.7 25.3668 26.8528 51.2721 53.2531 77.715 79.2.6603-19.1397.6603-38.2803 0-57.42-16.5568-18.0418-33.8818-35.2024-51.975-51.48Zm59.4-74.25c-6.3489 11.0435-13.4442 21.6038-21.285 31.68-8.7447 10.0653-17.4903 20.1297-26.235 30.195 13.365 13.365 26.73 26.73 40.095 40.095.3297-8.5803.6603-17.1597.99-25.74.7772-1.7681 1.9315-3.2531 3.465-4.455 5.1787-1.7068 8.9744-.2218 11.385 4.455.3297 8.5803.6603 17.1597.99 25.74 13.5442-13.3789 26.9092-26.9092 40.095-40.59-12.273-13.4244-23.9877-27.2844-35.145-41.58-4.1125-7.2963-8.8971-13.8966-14.355-19.8Zm12.87-226.71c-21.6404 3.3116-39.6257 13.2116-53.955 29.7-1.385 9.2768 2.4097 12.7418 11.385 10.395 14.6916-15.7891 32.8413-23.7091 54.45-23.76-2.473 6.5977-4.453 13.3626-5.94 20.295 1.4474 9.146 6.7271 12.611 15.84 10.395 5.544-1.7941 11.1543-3.2791 16.83-4.455-1.9919 30.5764-16.8419 52.1914-44.55 64.845-17.2923 6.2924-35.1123 8.9328-53.46 7.92-.8247-.8247-1.6503-1.6503-2.475-2.475-.1267-17.0992 2.0186-33.9292 6.435-50.49.095-2.4016-.5643-4.5467-1.98-6.435-4.5679-2.3783-8.6932-1.8833-12.375 1.485-2.6532 8.655-4.7985 17.4-6.435 26.235-23.4788 6.9563-45.5885 16.8567-66.33 29.7C48.3849 165.1461 13.2399 235.9311 18.83 327.215c10.044 64.5262 42.879 113.5312 98.505 147.015 11.4216 18.2407 27.5913 29.6258 48.51 34.155 59.4 0 118.8 0 178.2 0 20.391-4.4293 36.231-15.4846 47.52-33.165 27.62-15.4094 50.5553-36.035 68.805-61.875 1.6058-9.1971-2.1889-12.6621-11.385-10.395-13.7412 17.8665-29.5812 33.5412-47.52 47.025.0851-14.5639-1.0692-29.0842-3.465-43.56-7.9408-31.0642-22.1315-58.7842-42.57-83.16-20.79-23.0997-41.58-46.2003-62.37-69.3-9.0803-10.7346-17.0003-22.2839-23.76-34.65-7.8032-9.3109-16.5479-10.301-26.235-2.97-9.8208 14.6065-20.2158 28.7971-31.185 42.57-18.2477 20.9761-36.728 41.7661-55.44 62.37-8.6467 10.3643-16.5667 21.2543-23.76 32.67-17.717 29.6198-25.637 61.6295-23.76 96.03-64.9235-52.0225-87.6935-118.6832-68.31-199.98 24.7243-73.5639 73.8946-122.7343 147.51-147.51.1366 6.0202.796 11.9602 1.98 17.82 2.5641 6.1954 7.0191 10.3208 13.365 12.375 8.2497.6603 16.5003.6603 24.75 0 30.3207-1.0078 55.4004-12.7225 75.24-35.145 47.0963 11.2464 87.1913 34.3461 120.285 69.3 53.5184 63.5006 66.2241 134.4509 38.115 212.85 1.2058 6.7142 5.1658 9.1892 11.88 7.425 3.2591-2.7136 5.4044-6.1786 6.435-10.395 16.728-49.5881 16.3984-99.0881-.99-148.5-31.6681-76.2053-87.6031-124.5509-167.805-145.035 7.7042-15.4222 10.8395-31.7572 9.405-49.005-1.6672-5.2925-5.2975-7.9326-10.89-7.92-6.1281 1.0539-12.0681 2.7039-17.82 4.95.9454-6.3225 2.4305-12.5926 4.455-18.81-.591-4.8306-2.9007-8.4606-6.93-10.89-7.5903 0-15.1797 0-22.77 0Z" stroke="#44739e" stroke-width="4" fill="none"/>
</svg>