<svg xmlns="http://www.w3.org/2000/svg" viewBox="0 -2 512 512">
	<path d="M42.67 1.51c13.3934 0 26.7866 0 40.18 0 0 2.6133 0 5.2267 0 7.84 113.0263 0 226.0537 0 339.08 0 0-2.6133 0-5.2267 0-7.84 13.3937 0 26.7863 0 40.18 0 24.257 9.8672 30.9543 26.8539 20.09 50.96-4.7775 6.7166-11.1475 11.1266-19.11 13.23-13.6837 1.3153-27.4037 1.8053-41.16 1.47 0-2.94 0-5.88 0-8.82-4.2463 0-8.4937 0-12.74 0 10.1352 46.3011 29.5715 88.1147 58.31 125.44 11.4278 13.8748 23.3514 27.2685 35.77 40.18 0 6.86 0 13.72 0 20.58-7.84 0-15.68 0-23.52 0 0 10.78 0 21.56 0 32.34-8.1663 0-16.3337 0-24.5 0 0 10.4537 0 20.9063 0 31.36 2.1776-.3156 3.9749.3381 5.39 1.96 5.781 8.4496 12.151 16.4532 19.11 24.01 7.4392 6.6297 15.2792 12.6724 23.52 18.13 0 7.1863 0 14.3737 0 21.56-5.2263 0-10.4537 0-15.68 0 0 43.12 0 86.24 0 129.36-156.8 0-313.6 0-470.4 0 0-43.12 0-86.24 0-129.36-5.2266 0-10.4533 0-15.68 0 0-7.1863 0-14.3737 0-21.56 8.2411-5.4576 16.0811-11.5003 23.52-18.13 6.9594-7.5568 13.3294-15.5604 19.11-24.01 1.4154-1.6219 3.212-2.2756 5.39-1.96 0-10.4537 0-20.9063 0-31.36-8.1666 0-16.3334 0-24.5 0 0-10.78 0-21.56 0-32.34-7.84 0-15.68 0-23.52 0 0-6.86 0-13.72 0-20.58 23.1411-23.0966 43.2311-48.5766 60.27-76.44 15.8143-28.0064 27.0843-57.7332 33.81-89.18-4.2466 0-8.4934 0-12.74 0 0 2.94 0 5.88 0 8.82-13.7564.3353-27.4764-.1547-41.16-1.47-20.7807-8.0788-28.1307-22.9421-22.05-44.59 4.8925-9.9668 12.5691-16.5001 23.03-19.6Zm3.92 16.66c6.5334 0 13.0666 0 19.6 0 0 10.4534 0 20.9066 0 31.36-6.5415.163-13.0749-.0004-19.6-.49-9.4786-3.4371-13.2352-10.1337-11.27-20.09 2.3886-5.1683 6.1452-8.7617 11.27-10.78Zm392 0c7.5979-.3882 15.1116.1018 22.54 1.47 9.0856 5.7076 11.2092 13.3843 6.37 23.03-2.3177 3.3017-5.4214 5.425-9.31 6.37-6.5248.4896-13.0585.653-19.6.49 0-10.4534 0-20.9066 0-31.36ZM82.85 26.01c113.0263 0 226.0537 0 339.08 0 0 5.2266 0 10.4534 0 15.68-113.0263 0-226.0537 0-339.08 0 0-5.2266 0-10.4534 0-15.68Zm31.36 32.34c10.1263 0 20.2537 0 30.38 0-3.1585 16.5535-7.2412 32.8867-12.25 49-6.0907 18.7641-12.4607 37.3841-19.11 55.86-24.8978 1.9149-40.4144 14.9822-46.55 39.2-.4898 8.4868-.6531 16.9805-.49 25.48-14.7036.1637-29.4036 0-44.1-.49 46.9179-47.2693 77.6245-103.6193 92.12-169.05Zm48.02 0c22.2225-.3263 44.4361.0003 66.64.98-2.6921 10.9514.2479 20.098 8.82 27.44-6.8835 8.3525-13.5799 16.8462-20.09 25.48-1.4151 1.6219-3.2124 2.2756-5.39 1.96-1.2368-14.9567-9.4031-23.1233-24.5-24.5-19.5716 3.4077-27.2489 14.8411-23.03 34.3 4.3267 9.4354 11.6767 14.6618 22.05 15.68 0 7.84 0 15.68 0 23.52-18.2937 0-36.5863 0-54.88 0 5.8026-16.9158 11.5189-33.9031 17.15-50.96 5.49-17.7122 9.9-35.679 13.23-53.9Zm89.18 0c7.1893 1.1201 9.6393 5.0401 7.35 11.76-6.4151 5.4349-11.1514 4.1283-14.21-3.92.9653-3.8977 3.2516-6.511 6.86-7.84Zm24.5 0c22.2137 0 44.4263 0 66.64 0 3.33 18.221 7.74 36.1878 13.23 53.9 5.6311 17.0569 11.3474 34.0442 17.15 50.96-18.2937 0-36.5863 0-54.88 0 0-7.84 0-15.68 0-23.52 17.9213-2.8283 25.5976-13.2819 23.03-31.36-3.9994-11.2424-12.003-17.449-24.01-18.62-15.0969 1.3767-23.2632 9.5433-24.5 24.5-2.1776.3156-3.9749-.3381-5.39-1.96-6.5101-8.6338-13.2065-17.1275-20.09-25.48 8.869-7.6166 11.809-17.0898 8.82-28.42Zm84.28 0c10.3704-.3135 20.6604.0131 30.87.98 14.3452 65.1328 44.8889 121.1564 91.63 168.07-14.6961.49-29.3961.6537-44.1.49 3.7328-20.873-1.8208-38.6767-16.66-53.41-8.8974-6.9423-19.0247-10.6987-30.38-11.27-6.6493-18.4759-13.0193-37.0959-19.11-55.86-5.0088-16.1133-9.0915-32.4465-12.25-49ZM251.41 96.57c5.3479 5.196 10.2479 10.9123 14.7 17.15-9.1463.6537-18.2937.6537-27.44 0 4.4835-5.6144 8.7298-11.3317 12.74-17.15Zm-66.64 10.78c9.5981.5723 12.2118 4.9823 7.84 13.23-6.5915 3.0733-10.8388 1.1133-12.74-5.88.8007-3.0899 2.4333-5.5399 4.9-7.35Zm129.36 0c5.5703-.4792 9.164 1.9708 10.78 7.35-2.1433 7.3539-6.5533 9.1503-13.23 5.39-3.037-4.8226-2.2207-9.0689 2.45-12.74Zm-104.86 24.5c28.7483-.1637 57.4956 0 86.24.49 2.1237.8163 3.5937 2.2863 4.41 4.41.49 8.8141.6527 17.6341.49 26.46-32.0137 0-64.0263 0-96.04 0-.1627-8.8259 0-17.6459.49-26.46 1.0045-2.1433 2.4745-3.7769 4.41-4.9Zm-97.02 48.02c95.4167-.4763 190.8031.0137 286.16 1.47 13.3045 4.1591 20.9818 13.1428 23.03 26.95.49 12.0824.6537 24.1688.49 36.26 13.3937 0 26.7863 0 40.18 0 0 5.2263 0 10.4537 0 15.68-18.62 0-37.24 0-55.86 0 .1637-15.6829 0-31.3629-.49-47.04-2.6352-7.2099-7.3716-12.5999-14.21-16.17-46.3432-1.1339-92.7296-1.6239-139.16-1.47-46.4304-.1539-92.8168.3361-139.16 1.47-6.8384 3.5701-11.5748 8.9601-14.21 16.17-.4899 15.6771-.6533 31.3571-.49 47.04-18.62 0-37.24 0-55.86 0 0-5.2263 0-10.4537 0-15.68 13.3934 0 26.7866 0 40.18 0-.1632-12.0912.0001-24.1776.49-36.26 3.0733-16.3043 12.71-25.7779 28.91-28.42Zm9.8 32.34c22.2137 0 44.4263 0 66.64 0 1.1593 5.2577 3.6093 9.8314 7.35 13.72 2.1756 20.4683 13.4456 31.7383 33.81 33.81 10.3027 9.4325 22.0627 11.7198 35.28 6.86 3.9523-1.322 7.2187-3.6084 9.8-6.86 20.3644-2.0717 31.6344-13.3417 33.81-33.81 3.7407-3.8886 6.1907-8.4623 7.35-13.72 22.2156-.1637 44.4293 0 66.64.49 3.0115.7242 5.1352 2.5206 6.37 5.39.49 89.5063.6537 179.0127.49 268.52-5.2263 0-10.4537 0-15.68 0 0-59.4537 0-118.9063 0-178.36-81.0137 0-162.0263 0-243.04 0 0 59.4537 0 118.9063 0 178.36-5.2263 0-10.4537 0-15.68 0-.1637-89.5073 0-179.0137.49-268.52 1.4073-2.8832 3.5309-4.8432 6.37-5.88Zm85.26.98c4.4247-1.2858 8.9984-1.2858 13.72 0 7.4715 18.9267 21.1915 26.2767 41.16 22.05 10.6487-3.9523 17.835-11.3023 21.56-22.05 4.5384-1.1388 9.112-1.3014 13.72-.49-2.3236 2.6519-4.9363 4.9382-7.84 6.86 2.4451 17.1559-5.0686 24.6695-22.54 22.54-5.784 9.2228-13.624 11.5091-23.52 6.86-2.3265-1.9982-4.2865-4.2846-5.88-6.86-17.4714 2.1295-24.9851-5.3841-22.54-22.54-2.7744-1.961-5.3871-4.0837-7.84-6.37Zm32.34 0c8.3202-1.1339 16.8139-1.2975 25.48-.49-8.3496 8.3163-16.8433 8.4799-25.48.49ZM67.17 276.89c10.4534 0 20.9066 0 31.36 0 0 10.4537 0 20.9063 0 31.36-10.4534 0-20.9066 0-31.36 0 0-10.4537 0-20.9063 0-31.36Zm339.08 0c10.4537 0 20.9063 0 31.36 0 0 10.4537 0 20.9063 0 31.36-10.4537 0-20.9063 0-31.36 0 0-10.4537 0-20.9063 0-31.36Zm-351.82 49c3.6515-.3165 7.2448.0108 10.78.98-1.9261 10.5164-5.6827 20.3164-11.27 29.4-9.5608 1.128-19.1975 1.2916-28.91.49 11.6801-8.575 21.4801-18.865 29.4-30.87Zm28.42 0c5.2266 0 10.4534 0 15.68 0 0 10.4537 0 20.9063 0 31.36-8.1666 0-16.3334 0-24.5 0 4.1378-10.1254 7.0778-20.579 8.82-31.36Zm64.68 0c5.2263 0 10.4537 0 15.68 0 0 4.9 0 9.8 0 14.7-5.2263 0-10.4537 0-15.68 0 0-4.9 0-9.8 0-14.7Zm32.34 0c5.2263 0 10.4537 0 15.68 0 0 4.9 0 9.8 0 14.7-5.2263 0-10.4537 0-15.68 0 0-4.9 0-9.8 0-14.7Zm32.34 0c5.2263 0 10.4537 0 15.68 0 0 4.9 0 9.8 0 14.7-5.2263 0-10.4537 0-15.68 0 0-4.9 0-9.8 0-14.7Zm32.34 0c5.2263 0 10.4537 0 15.68 0 0 4.9 0 9.8 0 14.7-5.2263 0-10.4537 0-15.68 0 0-4.9 0-9.8 0-14.7Zm32.34 0c5.2263 0 10.4537 0 15.68 0 0 4.9 0 9.8 0 14.7-5.2263 0-10.4537 0-15.68 0 0-4.9 0-9.8 0-14.7Zm32.34 0c5.2263 0 10.4537 0 15.68 0 0 4.9 0 9.8 0 14.7-5.2263 0-10.4537 0-15.68 0 0-4.9 0-9.8 0-14.7Zm32.34 0c5.2263 0 10.4537 0 15.68 0 0 4.9 0 9.8 0 14.7-5.2263 0-10.4537 0-15.68 0 0-4.9 0-9.8 0-14.7Zm64.68 0c5.4811-.3009 10.8711.0265 16.17.98 1.4916 10.5115 4.2679 20.6378 8.33 30.38-8.1663 0-16.3337 0-24.5 0 0-10.4537 0-20.9063 0-31.36Zm33.32 0c3.6084-.1617 7.201.001 10.78.49 8.1262 11.7198 17.9262 21.8471 29.4 30.38-9.4737.6537-18.9463.6537-28.42 0-6.1377-9.4286-10.0577-19.7186-11.76-30.87ZM147.53 358.23c5.2263 0 10.4537 0 15.68 0 0 42.7937 0 85.5863 0 128.38-5.2263 0-10.4537 0-15.68 0 0-42.7937 0-85.5863 0-128.38Zm32.34 0c48.3463 0 96.6937 0 145.04 0 0 42.7937 0 85.5863 0 128.38-48.3463 0-96.6937 0-145.04 0 0-42.7937 0-85.5863 0-128.38Zm161.7 0c5.2263 0 10.4537 0 15.68 0 0 42.7937 0 85.5863 0 128.38-5.2263 0-10.4537 0-15.68 0 0-42.7937 0-85.5863 0-128.38ZM34.83 373.91c7.5134 0 15.0266 0 22.54 0 0 5.2263 0 10.4537 0 15.68-7.5134 0-15.0266 0-22.54 0 0-5.2263 0-10.4537 0-15.68Zm40.18 0c7.84 0 15.68 0 23.52 0 0 5.2263 0 10.4537 0 15.68-7.84 0-15.68 0-23.52 0 0-5.2263 0-10.4537 0-15.68Zm331.24 0c7.84 0 15.68 0 23.52 0 0 5.2263 0 10.4537 0 15.68-7.84 0-15.68 0-23.52 0 0-5.2263 0-10.4537 0-15.68Zm41.16 0c7.5137 0 15.0263 0 22.54 0 0 5.2263 0 10.4537 0 15.68-7.5137 0-15.0263 0-22.54 0 0-5.2263 0-10.4537 0-15.68ZM34.83 406.25c7.5134 0 15.0266 0 22.54 0 0 5.2263 0 10.4537 0 15.68-7.5134 0-15.0266 0-22.54 0 0-5.2263 0-10.4537 0-15.68Zm40.18 0c7.84 0 15.68 0 23.52 0 0 5.2263 0 10.4537 0 15.68-7.84 0-15.68 0-23.52 0 0-5.2263 0-10.4537 0-15.68Zm331.24 0c7.84 0 15.68 0 23.52 0 0 5.2263 0 10.4537 0 15.68-7.84 0-15.68 0-23.52 0 0-5.2263 0-10.4537 0-15.68Zm41.16 0c7.5137 0 15.0263 0 22.54 0 0 5.2263 0 10.4537 0 15.68-7.5137 0-15.0263 0-22.54 0 0-5.2263 0-10.4537 0-15.68ZM34.83 438.59c7.5134 0 15.0266 0 22.54 0 0 5.2263 0 10.4537 0 15.68-7.5134 0-15.0266 0-22.54 0 0-5.2263 0-10.4537 0-15.68Zm40.18 0c7.84 0 15.68 0 23.52 0 0 5.2263 0 10.4537 0 15.68-7.84 0-15.68 0-23.52 0 0-5.2263 0-10.4537 0-15.68Zm331.24 0c7.84 0 15.68 0 23.52 0 0 5.2263 0 10.4537 0 15.68-7.84 0-15.68 0-23.52 0 0-5.2263 0-10.4537 0-15.68Zm41.16 0c7.5137 0 15.0263 0 22.54 0 0 5.2263 0 10.4537 0 15.68-7.5137 0-15.0263 0-22.54 0 0-5.2263 0-10.4537 0-15.68ZM34.83 470.93c7.5134 0 15.0266 0 22.54 0 0 5.2263 0 10.4537 0 15.68-7.5134 0-15.0266 0-22.54 0 0-5.2263 0-10.4537 0-15.68Zm40.18 0c7.84 0 15.68 0 23.52 0 0 5.2263 0 10.4537 0 15.68-7.84 0-15.68 0-23.52 0 0-5.2263 0-10.4537 0-15.68Zm331.24 0c7.84 0 15.68 0 23.52 0 0 5.2263 0 10.4537 0 15.68-7.84 0-15.68 0-23.52 0 0-5.2263 0-10.4537 0-15.68Zm41.16 0c7.5137 0 15.0263 0 22.54 0 0 5.2263 0 10.4537 0 15.68-7.5137 0-15.0263 0-22.54 0 0-5.2263 0-10.4537 0-15.68ZM211.23 138.71c5.88 0 11.76 0 17.64 0 0 5.5537 0 11.1063 0 16.66-5.88 0-11.76 0-17.64 0 0-5.5537 0-11.1063 0-16.66Zm32.34 0c5.88 0 11.76 0 17.64 0 0 5.5537 0 11.1063 0 16.66-5.88 0-11.76 0-17.64 0 0-5.5537 0-11.1063 0-16.66Zm32.34 0c5.88 0 11.76 0 17.64 0 0 5.5537 0 11.1063 0 16.66-5.88 0-11.76 0-17.64 0 0-5.5537 0-11.1063 0-16.66ZM130.87 227.89c5.5537 0 11.1063 0 16.66 0 0 5.5537 0 11.1063 0 16.66-5.5537 0-11.1063 0-16.66 0 0-5.5537 0-11.1063 0-16.66Zm226.38 0c5.5537 0 11.1063 0 16.66 0 0 5.5537 0 11.1063 0 16.66-5.5537 0-11.1063 0-16.66 0 0-5.5537 0-11.1063 0-16.66Z" stroke="#44739e" stroke-width="4" fill="none"/>
</svg>