<svg xmlns="http://www.w3.org/2000/svg" viewBox="0 0 512 512">
	<path d="M463.09 433.69c0 18.2937 0 36.5863 0 54.88 6.5337 0 13.0663 0 19.6 0 0-18.2937 0-36.5863 0-54.88-6.5337 0-13.0663 0-19.6 0Zm-441 0c0 18.2937 0 36.5863 0 54.88 6.5334 0 13.0666 0 19.6 0 0-18.2937 0-36.5863 0-54.88-6.5334 0-13.0666 0-19.6 0Zm391.02-48.02c-6.5719 1.6562-11.4719 5.5762-14.7 11.76 3.1527 2.4667 6.7453 3.774 10.78 3.92 7.9164-.3577 13.4691-4.115 16.66-11.27-3.5946-3.1105-7.842-4.5805-12.74-4.41Zm-190.12-1.96c-5.2391 4.0984-9.6491 8.9984-13.23 14.7-10.0352 22.2529-5.4615 40.8729 13.72 55.86-2.9498-11.5013-4.7471-23.2613-5.39-35.28.1323-12.0726 2.4186-23.669 6.86-34.79-.5821-.4547-1.2358-.6184-1.96-.49Zm19.6-.98c-11.6718 24.0139-11.6718 48.0239 0 72.03 6.5337.6537 13.0663.6537 19.6 0 11.76-23.8463 11.76-47.6937 0-71.54-6.5248-.49-13.0585-.6527-19.6-.49Zm220.5-18.62c0 18.2937 0 36.5863 0 54.88 6.5337 0 13.0663 0 19.6 0 0-18.2937 0-36.5863 0-54.88-6.5337 0-13.0663 0-19.6 0Zm-441 0c0 18.2937 0 36.5863 0 54.88 6.5334 0 13.0666 0 19.6 0 0-18.2937 0-36.5863 0-54.88-6.5334 0-13.0666 0-19.6 0Zm214.62-8.82c-2.6078 3.774-3.5878 8.0203-2.94 12.74 12.4137 0 24.8263 0 37.24 0 .1617-2.9576-.002-5.8976-.49-8.82-.4557-1.4024-1.273-2.5451-2.45-3.43-10.4478-.49-20.9014-.6537-31.36-.49Zm226.38-60.76c0 18.2937 0 36.5863 0 54.88 6.5337 0 13.0663 0 19.6 0 0-18.2937 0-36.5863 0-54.88-6.5337 0-13.0663 0-19.6 0Zm-441 0c0 18.2937 0 36.5863 0 54.88 6.5334 0 13.0666 0 19.6 0 0-18.2937 0-36.5863 0-54.88-6.5334 0-13.0666 0-19.6 0Zm356.72-59.78c3.6515 11.4552 5.6115 23.2152 5.88 35.28-.4312 12.055-2.2285 23.815-5.39 35.28 5.5968-3.9631 10.1704-8.8631 13.72-14.7 10.4439-22.5772 5.7075-41.1972-14.21-55.86Zm-56.84 69.58c-1.2377-4.5335-2.3804-9.1062-3.43-13.72-3.6221-18.8993-2.1521-37.3556 4.41-55.37-7.2089 3.2889-12.5989 8.6789-16.17 16.17-8.8759 21.8628-3.8122 39.5028 15.19 52.92ZM124.99 234.75c-4.5433 3.7279-8.6269 7.9752-12.25 12.74-11.6855 22.835-7.4382 42.1077 12.74 57.82-1.4377-6.0927-2.745-12.299-3.92-18.62-2.7705-17.199-1.3005-34.0227 4.41-50.47-.0686-.7497-.3949-1.2397-.98-1.47Zm215.6-.98c-11.317 23.7336-11.317 47.4163 0 71.05 6.8835.8144 13.7435.6507 20.58-.49 10.6947-23.5455 10.3684-46.9028-.98-70.07-6.5248-.49-13.0585-.6527-19.6-.49ZM182.81 304.33c14.2227-9.5031 20.5927-22.8967 19.11-40.18-2.0668-13.1996-8.7632-22.836-20.09-28.91 2.0521 4.5256 3.5221 9.262 4.41 14.21 1.3504 4.31.2078 7.74-3.43 10.29-5.1264 1.6895-8.8837.2195-11.27-4.41-1.3916-7.2804-3.8416-14.1404-7.35-20.58-6.5092-1.1407-13.0418-1.3044-19.6-.49-11.3484 23.1672-11.6747 46.5245-.98 70.07 6.8365 1.1407 13.6965 1.3044 20.58.49 3.8073-7.3373 6.7473-15.0136 8.82-23.03 1.7532-1.3495 3.7132-2.3295 5.88-2.94 6.665 1.2387 9.115 5.1587 7.35 11.76-1.0496 4.6138-2.1923 9.1865-3.43 13.72Zm280.28-79.38c0 18.2937 0 36.5863 0 54.88 6.5337 0 13.0663 0 19.6 0 0-18.2937 0-36.5863 0-54.88-6.5337 0-13.0663 0-19.6 0Zm-441 0c0 18.2937 0 36.5863 0 54.88 6.5334 0 13.0666 0 19.6 0 0-18.2937 0-36.5863 0-54.88-6.5334 0-13.0666 0-19.6 0Zm312.62-18.62c-1.8061 3.6133-2.4598 7.5333-1.96 11.76 12.0863 0 24.1737 0 36.26 0 .1617-2.9576-.002-5.8976-.49-8.82-.49-1.1437-1.3063-1.96-2.45-2.45-10.4478-.49-20.9014-.6537-31.36-.49Zm-196 0c-.9496.7928-1.766 1.7728-2.45 2.94-.488 2.9224-.6517 5.8624-.49 8.82 12.0863 0 24.1737 0 36.26 0 .1617-3.283-.002-6.5493-.49-9.8-.49-.49-.98-.98-1.47-1.47-10.4478-.49-20.9014-.6537-31.36-.49Zm23.52-41.16c-0 8.4937-0 16.9863-0 25.48 19.6774-.2401 28.4974 9.5599 26.46 29.4 5.5056 3.3271 10.5693 7.2471 15.19 11.76 14.9499 18.7396 18.0536 39.3196 9.31 61.74 10.3106 1.2887 20.6006 2.2687 30.87 2.94-.785-6.6356 1.9914-10.5556 8.33-11.76 6.173.8898 8.7867 4.4835 7.84 10.78 10.4654-.0157 20.9191-.343 31.36-.98-1.9228-5.4008-3.3928-10.9544-4.41-16.66-2.3197-25.4143 7.3177-44.688 28.91-57.82-2.0374-19.8401 6.7826-29.6401 26.46-29.4 0-8.4937 0-16.9863 0-25.48-60.1073 13.0663-120.2137 13.0663-180.32 0Zm300.86-9.8c0 18.2937 0 36.5863 0 54.88 6.5337 0 13.0663 0 19.6 0 0-18.2937 0-36.5863 0-54.88-6.5337 0-13.0663 0-19.6 0Zm-441 0c0 18.2937 0 36.5863 0 54.88 6.5334 0 13.0666 0 19.6 0 0-18.2937 0-36.5863 0-54.88-6.5334 0-13.0666 0-19.6 0Zm423.36-29.4c-27.2381 15.0802-55.9845 26.6776-86.24 34.79-.9663 9.8823-1.2926 19.846-.98 29.89 7.9792-1.1515 15.0018.8085 21.07 5.88 4.6276 7.1079 6.5876 14.9479 5.88 23.52 15.5742 9.5854 25.3742 23.3054 29.4 41.16 10.6938-5.4282 21.3101-10.9819 31.85-16.66 1.3063-6.5337 1.3063-13.0663 0-19.6-1.9326-.7889-3.4026-2.0962-4.41-3.92-1.5739-4.9245-.1039-8.5182 4.41-10.78 1.3063-18.2937 1.3063-36.5863 0-54.88-1.9326-.7889-3.4026-2.0962-4.41-3.92-1.5739-4.9245-.1039-8.5182 4.41-10.78.3263-2.45.6537-4.9.98-7.35-.0245-2.8704-.6772-5.3204-1.96-7.35Zm-388.08 0c-.3209 4.9431.0058 9.8431.98 14.7 1.9323.7889 3.4023 2.0962 4.41 3.92 1.5744 4.9245.1044 8.5182-4.41 10.78-1.3066 18.2937-1.3066 36.5863 0 54.88 1.9323.7889 3.4023 2.0962 4.41 3.92 1.5744 4.9245.1044 8.5182-4.41 10.78-1.2849 6.7522-1.2849 13.4485 0 20.09 10.4182 5.781 21.0348 11.171 31.85 16.17 4.0259-17.8546 13.8258-31.5746 29.4-41.16.2058-5.6164.8585-11.1691 1.96-16.66 4.9294-10.5507 13.2594-14.798 24.99-12.74.3126-10.044-.0137-20.0077-.98-29.89-30.7152-8.4378-60.1155-20.0351-88.2-34.79ZM463.09 85.79c0 18.2937 0 36.5863 0 54.88 6.5337 0 13.0663 0 19.6 0 0-18.2937 0-36.5863 0-54.88-6.5337 0-13.0663 0-19.6 0Zm-441 0c0 18.2937 0 36.5863 0 54.88 6.5334 0 13.0666 0 19.6 0 0-18.2937 0-36.5863 0-54.88-6.5334 0-13.0666 0-19.6 0ZM86.77 39.73c-2.4769.7517-4.4369 2.2217-5.88 4.41 1.1917 3.1568 3.1517 5.77 5.88 7.84 7.2168 4.841 14.0767 4.5144 20.58-.98-4.2493-8.3347-11.1096-12.0913-20.58-11.27ZM463.09 16.21c0 18.2934 0 36.5866 0 54.88 6.5337 0 13.0663 0 19.6 0 0-18.2934 0-36.5866 0-54.88-6.5337 0-13.0663 0-19.6 0Zm-441 0c0 18.2934 0 36.5866 0 54.88 6.5334 0 13.0666 0 19.6 0 0-18.2934 0-36.5866 0-54.88-6.5334 0-13.0666 0-19.6 0ZM4.45 1.51C3.7967 2.8167 2.8167 3.7967 1.51 4.45c0 2.94 0 5.88 0 8.82 1.2886.9561 2.5952 1.9361 3.92 2.94 1.3067 18.2934 1.3067 36.5866 0 54.88-1.3248 1.0039-2.6314 1.9839-3.92 2.94 0 2.94 0 5.88 0 8.82 1.2886.9561 2.5952 1.9361 3.92 2.94 1.3067 18.2937 1.3067 36.5863 0 54.88-1.3248 1.0035-2.6314 1.9835-3.92 2.94 0 2.94 0 5.88 0 8.82 1.2886.9565 2.5952 1.9365 3.92 2.94 1.3067 18.2937 1.3067 36.5863 0 54.88-1.3248 1.0035-2.6314 1.9835-3.92 2.94 0 2.94 0 5.88 0 8.82 1.2886.9565 2.5952 1.9365 3.92 2.94 1.3067 18.2937 1.3067 36.5863 0 54.88-1.3248 1.0035-2.6314 1.9835-3.92 2.94 0 2.94 0 5.88 0 8.82 1.2886.9565 2.5952 1.9365 3.92 2.94 1.3067 18.2937 1.3067 36.5863 0 54.88-1.3248 1.0035-2.6314 1.9835-3.92 2.94 0 2.94 0 5.88 0 8.82 1.2886.9565 2.5952 1.9365 3.92 2.94 1.3067 18.2937 1.3067 36.5863 0 54.88-1.3248 1.0035-2.6314 1.9835-3.92 2.94 0 2.94 0 5.88 0 8.82 1.2886.9565 2.5952 1.9365 3.92 2.94 1.3067 18.2937 1.3067 36.5863 0 54.88-1.3248 1.0035-2.6314 1.9835-3.92 2.94 0 2.94 0 5.88 0 8.82 1.3067.6537 2.2867 1.6337 2.94 2.94 18.2934 0 36.5866 0 54.88 0 5.4878-5.342 5.1612-10.242-.98-14.7-1.3066-18.2937-1.3066-36.5863 0-54.88 1.9323-.7889 3.4023-2.0962 4.41-3.92 1.5744-4.9245.1044-8.5182-4.41-10.78-1.3066-18.2937-1.3066-36.5863 0-54.88 1.9323-.7889 3.4023-2.0962 4.41-3.92 1.5744-4.9245.1044-8.5182-4.41-10.78-1.3066-18.2937-1.3066-36.5863 0-54.88 1.9323-.7889 3.4023-2.0962 4.41-3.92 1.5744-4.9245.1044-8.5182-4.41-10.78-1.3066-5.5537-1.3066-11.1063 0-16.66 10.3335 5.3302 20.7869 10.3939 31.36 15.19 3.0152 10.4409 7.7518 20.0773 14.21 28.91 11.2004 13.2143 25.4104 17.788 42.63 13.72-.1627 5.5625.001 11.1161.49 16.66 1.1437 1.1437 2.2863 2.2863 3.43 3.43 5.0225 1.5376 8.7798.0676 11.27-4.41.489-5.2165.6527-10.4429.49-15.68 8.1732.1627 16.3395 0 24.5-.49 6.0143-2.4157 11.2406-6.0094 15.68-10.78 14.012.8448 28.0584 1.3348 42.14 1.47 0 9.4737 0 18.9463 0 28.42-19.5853-.1715-28.569 9.6285-26.95 29.4-15.7653 9.2992-25.2389 23.0192-28.42 41.16-2.6293 26.266 7.3343 46.0296 29.89 59.29 8.4417 1.2711 16.9354 1.7611 25.48 1.47-.1627 4.9108.001 9.8108.49 14.7.7693 1.7503 1.912 3.2203 3.43 4.41 5.1264 1.6895 8.8837.2195 11.27-4.41.489-4.8892.6527-9.7892.49-14.7 6.5415.1627 13.0752 0 19.6-.49 4.2895-.1842 8.2095-1.4906 11.76-3.92 9.6265-7.3402 16.6492-16.6502 21.07-27.93.9398-3.8426-.2038-6.9462-3.43-9.31-4.6178-1.4141-8.3741-.2715-11.27 3.43-3.6681 8.6436-9.2218 15.8309-16.66 21.56 2.9498-11.5003 4.7471-23.2603 5.39-35.28-.1323-12.0736-2.4186-23.6699-6.86-34.79.6537-.6537 1.3063-.6537 1.96 0 8.1085 6.1515 13.9885 13.9915 17.64 23.52 7.0276 3.7554 11.6012 1.7954 13.72-5.88-4.6521-14.1238-13.3094-25.0674-25.97-32.83 1.619-19.7715-7.3647-29.5715-26.95-29.4 0-9.4737 0-18.9463 0-28.42 14.0806-.1352 28.127-.6252 42.14-1.47 4.4394 4.7706 9.6657 8.3643 15.68 10.78 8.1605.49 16.3268.6527 24.5.49-.1627 5.2371.001 10.4635.49 15.68.4557 1.4024 1.273 2.5451 2.45 3.43 4.8147 2.5353 8.8984 1.7179 12.25-2.45.489-5.5439.6527-11.0975.49-16.66 8.1732.1627 16.3395 0 24.5-.49 17.2421-8.6083 27.6958-22.492 31.36-41.65 11.2857-4.9078 22.2293-10.4615 32.83-16.66.8134 5.9074.6507 11.7874-.49 17.64-1.9326.7889-3.4026 2.0962-4.41 3.92-1.5739 4.9245-.1039 8.5182 4.41 10.78 1.3063 18.2937 1.3063 36.5863 0 54.88-1.9326.7889-3.4026 2.0962-4.41 3.92-1.5739 4.9245-.1039 8.5182 4.41 10.78 1.1388 4.8677 1.3024 9.7677.49 14.7-8.5544-7.056-18.0281-12.6097-28.42-16.66-4.5207.7644-7.2981 3.3781-8.33 7.84-8.8435 2.2148-16.1935 6.7885-22.05 13.72-9.6471 12.1834-7.8508 22.147 5.39 29.89 21.2268 7.5725 37.2331 1.5288 48.02-18.13 1.9433 1.4524 3.7397 3.086 5.39 4.9.8144 6.2318.6507 12.4391-.49 18.62-1.9326.7889-3.4026 2.0962-4.41 3.92-1.5739 4.9245-.1039 8.5182 4.41 10.78 1.3063 18.2937 1.3063 36.5863 0 54.88-6.1495 4.5041-6.4768 9.4041-.98 14.7 18.2937 0 36.5863 0 54.88 0 .6537-1.3063 1.6337-2.2863 2.94-2.94 0-2.94 0-5.88 0-8.82-1.2887-.9565-2.595-1.9365-3.92-2.94-1.3063-18.2937-1.3063-36.5863 0-54.88 1.325-1.0035 2.6313-1.9835 3.92-2.94 0-2.94 0-5.88 0-8.82-1.2887-.9565-2.595-1.9365-3.92-2.94-1.3063-18.2937-1.3063-36.5863 0-54.88 1.325-1.0035 2.6313-1.9835 3.92-2.94 0-2.94 0-5.88 0-8.82-1.2887-.9565-2.595-1.9365-3.92-2.94-1.3063-18.2937-1.3063-36.5863 0-54.88 1.325-1.0035 2.6313-1.9835 3.92-2.94 0-2.94 0-5.88 0-8.82-1.2887-.9565-2.595-1.9365-3.92-2.94-1.3063-18.2937-1.3063-36.5863 0-54.88 1.325-1.0035 2.6313-1.9835 3.92-2.94 0-2.94 0-5.88 0-8.82-1.2887-.9565-2.595-1.9365-3.92-2.94-1.3063-18.2937-1.3063-36.5863 0-54.88 1.325-1.0035 2.6313-1.9835 3.92-2.94 0-2.94 0-5.88 0-8.82-1.2887-.9565-2.595-1.9365-3.92-2.94-1.3063-18.2937-1.3063-36.5863 0-54.88 1.325-1.0039 2.6313-1.9839 3.92-2.94 0-2.94 0-5.88 0-8.82-1.2887-.9561-2.595-1.9361-3.92-2.94-1.3063-18.2934-1.3063-36.5866 0-54.88 1.325-1.0039 2.6313-1.9839 3.92-2.94 0-2.94 0-5.88 0-8.82-1.3063-.6533-2.2863-1.6333-2.94-2.94-18.2937 0-36.5863 0-54.88 0-5.4968 5.2955-5.1695 10.1955.98 14.7 1.3063 18.2934 1.3063 36.5866 0 54.88-1.9326.7891-3.4026 2.0957-4.41 3.92-1.5739 4.9248-.1039 8.5182 4.41 10.78 1.1417 7.1645 1.3044 14.3511.49 21.56-27.9388 15.8476-57.3388 28.2603-88.2 37.24.1842-3.6574-1.2858-6.4347-4.41-8.33-9.3169-1.2985-13.2369 2.7852-11.76 12.25-59.4056 14.0738-118.8593 14.2374-178.36.49-1.5798-3.1948-2.7234-6.6248-3.43-10.29-7.8998-5.3655-12.7998-3.4055-14.7 5.88-30.8788-8.9062-60.2791-21.3199-88.2-37.24-.8147-7.2089-.6513-14.3955.49-21.56 1.9323-.7891 3.4023-2.0957 4.41-3.92 1.5744-4.9248.1044-8.5182-4.41-10.78-3.0468-8.943-.9235-16.1296 6.37-21.56 12.7257 21.556 30.2024 26.6193 52.43 15.19 4.3688-2.7293 6.6562-6.6493 6.86-11.76-2.8146-15.555-11.9609-25.0283-27.44-28.42-1.1389-6.044-4.7322-8.6572-10.78-7.84-10.067 4.5197-19.377 10.2364-27.93 17.15-.8137-5.907-.6503-11.787.49-17.64 6.1499-4.5045 6.4765-9.4045.98-14.7-18.2934 0-36.5866 0-54.88 0Z" stroke="#44739e" stroke-width="4" fill="none"/>
</svg>