<svg xmlns="http://www.w3.org/2000/svg" viewBox="0 0 512 512">
	<path d="M 247.5,31.5 C 277.617,28.9163 302.45,38.9163 322,61.5C 334.564,78.6524 338.564,97.6524 334,118.5C 331.913,126.006 328.746,133.006 324.5,139.5C 342.537,149.71 353.37,165.043 357,185.5C 363,240.833 369,296.167 375,351.5C 380.239,386.862 366.739,412.029 334.5,427C 330.57,428.477 326.57,429.644 322.5,430.5C 322.5,435.167 322.5,439.833 322.5,444.5C 329.633,443.735 335.466,446.068 340,451.5C 343.75,458.002 347.75,464.335 352,470.5C 352.769,473.099 352.602,475.599 351.5,478C 319.584,479.16 287.584,479.66 255.5,479.5C 223.416,479.66 191.416,479.16 159.5,478C 158.398,475.599 158.231,473.099 159,470.5C 163.25,464.335 167.25,458.002 171,451.5C 176.503,445.575 183.336,443.242 191.5,444.5C 191.8,439.901 191.467,435.401 190.5,431C 159.054,424.222 140.554,405.056 135,373.5C 140.524,310.785 146.857,248.119 154,185.5C 157.621,163.089 169.787,147.255 190.5,138C 172.008,104.453 177.008,74.7859 205.5,49C 218.058,39.5501 232.058,33.7168 247.5,31.5 Z M 250.5,42.5 C 280.653,40.9892 303.486,52.9892 319,78.5C 327.886,98.6843 325.886,117.684 313,135.5C 309.963,134.291 306.796,133.457 303.5,133C 297.702,113.542 284.702,102.209 264.5,99C 243.531,95.8729 226.365,102.373 213,118.5C 210.271,123.19 208.437,128.19 207.5,133.5C 205.533,133.261 203.699,133.594 202,134.5C 186.251,111.442 186.918,88.7749 204,66.5C 216.623,52.7729 232.123,44.7729 250.5,42.5 Z M 248.5,109.5 C 263.722,107.839 276.556,112.506 287,123.5C 288.753,126.005 290.253,128.671 291.5,131.5C 267.5,132.833 243.5,132.833 219.5,131.5C 225.366,119.076 235.032,111.743 248.5,109.5 Z M 224.5,143.5 C 245.167,143.5 265.833,143.5 286.5,143.5C 286.5,155.833 286.5,168.167 286.5,180.5C 265.833,180.5 245.167,180.5 224.5,180.5C 224.5,168.167 224.5,155.833 224.5,143.5 Z M 205.5,144.5 C 208.167,144.5 210.833,144.5 213.5,144.5C 213.5,150.167 213.5,155.833 213.5,161.5C 195.402,163.443 182.902,172.776 176,189.5C 168.087,249.719 161.42,310.052 156,370.5C 160.978,391.44 174.145,403.94 195.5,408C 235.5,408.667 275.5,408.667 315.5,408C 337.594,404.239 350.76,391.405 355,369.5C 349.507,309.393 342.84,249.393 335,189.5C 328.098,172.776 315.598,163.443 297.5,161.5C 297.5,155.833 297.5,150.167 297.5,144.5C 320.541,146.108 336.041,157.774 344,179.5C 351.677,242.264 358.844,305.097 365.5,368C 361.41,395.759 345.743,413.092 318.5,420C 315.167,420.333 311.833,420.667 308.5,421C 272.833,421.667 237.167,421.667 201.5,421C 173.557,418.721 155.39,404.221 147,377.5C 146.593,374.318 146.093,371.151 145.5,368C 152.156,305.097 159.323,242.264 167,179.5C 173.714,160.946 186.548,149.279 205.5,144.5 Z M 207.5,173.5 C 209.5,173.5 211.5,173.5 213.5,173.5C 213.5,175.833 213.5,178.167 213.5,180.5C 205.698,180.787 203.698,184.287 207.5,191C 209.473,191.495 211.473,191.662 213.5,191.5C 213.666,197.842 213.5,204.175 213,210.5C 204.556,228.265 198.889,246.932 196,266.5C 191.41,293.708 190.41,321.041 193,348.5C 194.206,355.992 196.04,363.326 198.5,370.5C 196.784,372.915 196.284,375.582 197,378.5C 197.5,379.667 198.333,380.5 199.5,381C 203.114,381.936 206.78,382.436 210.5,382.5C 210.413,387.537 210.746,392.537 211.5,397.5C 195.519,398.92 182.352,393.587 172,381.5C 169.174,376.688 167.34,371.521 166.5,366C 173,309.502 179.5,253.002 186,196.5C 188.909,184.76 196.076,177.094 207.5,173.5 Z M 297.5,173.5 C 311.639,175.133 320.806,182.8 325,196.5C 331.464,252.842 337.964,309.176 344.5,365.5C 341.705,381.13 332.705,391.296 317.5,396C 311.565,397.239 305.565,397.739 299.5,397.5C 299.334,392.821 299.501,388.155 300,383.5C 303.759,382.51 307.593,381.677 311.5,381C 312.667,380.5 313.5,379.667 314,378.5C 314.716,375.582 314.216,372.915 312.5,370.5C 317.986,354.113 320.319,337.28 319.5,320C 319.403,291.323 315.57,263.156 308,235.5C 305.636,226.734 302.303,218.401 298,210.5C 297.5,204.175 297.334,197.842 297.5,191.5C 302.156,192.66 304.823,190.993 305.5,186.5C 304.863,181.869 302.196,179.869 297.5,180.5C 297.5,178.167 297.5,175.833 297.5,173.5 Z M 224.5,191.5 C 245.167,191.5 265.833,191.5 286.5,191.5C 286.5,195.5 286.5,199.5 286.5,203.5C 265.833,203.5 245.167,203.5 224.5,203.5C 224.5,199.5 224.5,195.5 224.5,191.5 Z M 223.5,214.5 C 244.836,214.333 266.169,214.5 287.5,215C 294.324,228.805 299.157,243.305 302,258.5C 308.13,287.258 309.797,316.258 307,345.5C 305.782,353.372 303.782,361.039 301,368.5C 300.5,370.333 299.333,371.5 297.5,372C 292.514,372.916 287.514,373.25 282.5,373C 294.037,360.368 298.203,345.534 295,328.5C 293.641,319.403 289.807,311.569 283.5,305C 280.32,303.964 277.82,304.797 276,307.5C 275.497,312.19 274.83,316.857 274,321.5C 272.874,304.755 266.374,290.588 254.5,279C 251.364,277.959 248.864,278.793 247,281.5C 247.419,290.146 247.419,298.813 247,307.5C 245.098,311.739 242.765,315.739 240,319.5C 239.667,315.833 239.333,312.167 239,308.5C 236.997,306.078 234.497,305.245 231.5,306C 222.992,315.822 218.659,327.322 218.5,340.5C 218.914,350.411 221.414,359.744 226,368.5C 227.5,370 229,371.5 230.5,373C 224.145,372.931 217.812,372.264 211.5,371C 206.639,360.035 203.805,348.535 203,336.5C 201.48,304.327 204.813,272.66 213,241.5C 215.626,232.117 219.126,223.117 223.5,214.5 Z M 258.5,306.5 C 260.108,310.59 261.275,314.923 262,319.5C 263.46,328.176 263.96,336.842 263.5,345.5C 265.867,347.395 268.534,347.895 271.5,347C 276.589,342.646 280.589,337.48 283.5,331.5C 286.8,348.052 281.466,360.886 267.5,370C 243.588,375.442 231.255,365.775 230.5,341C 229.612,330.439 231.112,329.939 235,339.5C 238.541,344.852 243.375,347.352 249.5,347C 250.87,345.559 251.87,343.892 252.5,342C 250.631,336.655 249.797,331.155 250,325.5C 251.752,322.328 253.752,319.328 256,316.5C 257.352,313.28 258.186,309.947 258.5,306.5 Z M 222.5,383.5 C 244.416,385.727 266.416,386.061 288.5,384.5C 288.665,388.182 288.499,391.848 288,395.5C 287.5,396 287,396.5 286.5,397C 265.833,397.667 245.167,397.667 224.5,397C 224,396.5 223.5,396 223,395.5C 222.501,391.514 222.334,387.514 222.5,383.5 Z M 203.5,432.5 C 239.167,432.5 274.833,432.5 310.5,432.5C 310.5,436.5 310.5,440.5 310.5,444.5C 274.833,444.5 239.167,444.5 203.5,444.5C 203.5,440.5 203.5,436.5 203.5,432.5 Z M 184.5,455.5 C 231.835,455.333 279.168,455.5 326.5,456C 327.766,456.309 328.933,456.809 330,457.5C 332.167,461 334.333,464.5 336.5,468C 282.5,468.667 228.5,468.667 174.5,468C 176.815,462.786 180.149,458.62 184.5,455.5 Z
M 92.5,221.5 C 94.1992,221.34 95.8659,221.506 97.5,222C 108.256,228.46 118.756,235.293 129,242.5C 129.668,248.829 126.834,251.329 120.5,250C 111.001,243.749 101.334,237.749 91.5,232C 88.6149,228.056 88.9483,224.556 92.5,221.5 Z
M 413.5,221.5 C 421.619,221.469 423.619,224.969 419.5,232C 409.666,237.749 399.999,243.749 390.5,250C 384.166,251.329 381.332,248.829 382,242.5C 382.833,241.667 383.667,240.833 384.5,240C 394.57,234.308 404.237,228.141 413.5,221.5 Z
M 94.5,282.5 C 101.284,282.08 107.95,282.58 114.5,284C 117.197,287.271 116.864,290.271 113.5,293C 100.204,294.524 86.8708,294.857 73.5,294C 69.5,290.667 69.5,287.333 73.5,284C 80.6787,283.829 87.6787,283.329 94.5,282.5 Z
M 398.5,282.5 C 411.507,282.762 424.507,283.262 437.5,284C 441.5,287.333 441.5,290.667 437.5,294C 424.133,294.832 410.799,294.499 397.5,293C 393.442,289.027 393.776,285.527 398.5,282.5 Z
M 119.5,326.5 C 129.216,326.946 130.882,330.779 124.5,338C 115.167,344 105.833,350 96.5,356C 91.9682,356.9 89.3015,355.066 88.5,350.5C 88.7605,348.813 89.4272,347.313 90.5,346C 100.577,339.972 110.244,333.472 119.5,326.5 Z
M 385.5,326.5 C 387.527,326.338 389.527,326.505 391.5,327C 400.996,333.582 410.662,339.915 420.5,346C 422.886,348.707 423.052,351.54 421,354.5C 419.087,356.187 416.92,356.687 414.5,356C 404.833,349.667 395.167,343.333 385.5,337C 381.565,333.504 381.565,330.004 385.5,326.5 Z" stroke="#44739e" stroke-width="4" fill="none"/>
</svg>