<svg xmlns="http://www.w3.org/2000/svg" viewBox="0 0 512 512">
	<path d="M234.71-.49c10.4537 0 20.9063 0 31.36 0 4.2248 2.1038 7.3284 5.3704 9.31 9.8.49 25.8046.6537 51.6113.49 77.42 13.3976-.1633 26.7903.0001 40.18.49 18.4652 10.0497 37.0852 19.8499 55.86 29.4 4.2307 2.2687 7.007 5.6987 8.33 10.29.6537 71.2137.6537 142.4263 0 213.64-2.9527 4.9343-7.0364 6.078-12.25 3.43-1.3651-1.1476-2.1825-2.6176-2.45-4.41-.3263-54.88-.6537-109.76-.98-164.64-14.7-6.2063-29.4-12.4137-44.1-18.62-.6537 91.7937-.6537 183.5863 0 275.38 14.6098-6.5572 29.4735-12.4372 44.59-17.64-.4449-15.7496.0451-31.4296 1.47-47.04 5.3322-4.3375 9.9058-3.6838 13.72 1.96.6537 30.7063.6537 61.4137 0 92.12-.9447 3.8886-3.0684 6.9923-6.37 9.31-19.1639 10.0685-38.1102 20.3585-56.84 30.87-44.4263 0-88.8537 0-133.28 0-18.7298-10.5115-37.6761-20.8015-56.84-30.87-3.3016-2.3177-5.4253-5.4214-6.37-9.31-.6537-111.3937-.6537-222.7863 0-334.18 1.323-4.5913 4.0993-8.0213 8.33-10.29 18.7748-9.5501 37.3948-19.3503 55.86-29.4 13.3897-.4899 26.7824-.6533 40.18-.49-.1627-8.4996 0-16.9929.49-25.48 2.9527-4.9345 7.0364-6.0779 12.25-3.43 1.3651 1.1477 2.1825 2.6177 2.45 4.41.49 8.1602.6527 16.3268.49 24.5 6.5337 0 13.0663 0 19.6 0 0-24.1734 0-48.3466 0-72.52-6.5337 0-13.0663 0-19.6 0 .4116 6.648-.0784 13.1814-1.47 19.6-3.6446 3.3343-7.7283 3.8243-12.25 1.47-.6135-.7354-1.1035-1.5521-1.47-2.45-.6537-7.84-.6537-15.68 0-23.52 1.9816-4.4296 5.0852-7.6962 9.31-9.8Zm-46.06 102.9c41.161-.1637 82.321 0 123.48.49 17.3989 9.4345 34.8753 18.7445 52.43 27.93.8154 8.8376.6517 17.6576-.49 26.46-15.7907-6.0985-31.4707-12.4685-47.04-19.11-44.4263-.6537-88.8537-.6537-133.28 0-15.8466 6.859-31.8539 13.229-48.02 19.11-.1627-8.8259 0-17.6459.49-26.46 17.7723-9.1277 35.2486-18.6004 52.43-28.42Zm6.86 49.98c36.5863 0 73.1737 0 109.76 0 0 94.4063 0 188.8137 0 283.22-36.5863 0-73.1737 0-109.76 0 0-94.4063 0-188.8137 0-283.22Zm-15.68 3.92c1.1427 91.629 1.3054 183.4227.49 275.38-14.6098-6.5572-29.4735-12.4372-44.59-17.64-.1637-79.7073 0-159.4137.49-239.12 14.6667-6.1132 29.203-12.3206 43.61-18.62Zm55.86 48.02c.98 0 1.96 0 2.94 0 .1607 2.6333-.0029 5.2469-.49 7.84-2.8116 2.4588-4.9353 1.8052-6.37-1.96.9477-2.2442 2.254-4.2042 3.92-5.88Zm-5.88 76.44c1.3063 0 2.6137 0 3.92 0 .2509 2.3638-.7291 3.9974-2.94 4.9-2.1599-1.2564-2.4872-2.89-.98-4.9ZM135.73 430.71c16.7541 6.4023 33.4141 13.0997 49.98 20.09 43.12.6537 86.24.6537 129.36 0 16.4454-6.4259 32.7781-13.1222 49-20.09 1.1417 8.8024 1.3054 17.6224.49 26.46-17.8968 10.0107-36.0268 19.648-54.39 28.91-39.8537.6537-79.7063.6537-119.56 0-18.3632-9.262-36.4932-18.8993-54.39-28.91-.49-8.8141-.6527-17.6341-.49-26.46Zm88.2-266.56c16.1004-.4606 32.1068.0294 48.02 1.47 3.92 4.2463 3.92 8.4937 0 12.74-5.7614 1.3818-11.6414 1.8718-17.64 1.47 0 2.94 0 5.88 0 8.82 20.2047-.049 30.331 10.0773 30.38 30.38 1.9375 9.9764-1.9825 14.3864-11.76 13.23-1.1437-1.1437-2.2863-2.2863-3.43-3.43-.3263-5.2263-.6537-10.4537-.98-15.68-2.2364-6.762-6.9727-9.702-14.21-8.82 1.9061 14.8372-4.4639 23.3309-19.11 25.48-16.7061-3.3702-22.2597-13.1702-16.66-29.4 4.411-7.84 11.1073-11.76 20.09-11.76 0-2.94 0-5.88 0-8.82-4.9108.1627-9.8108-.001-14.7-.49-4.6295-2.3863-6.0995-6.1436-4.41-11.27 1.3691-1.5386 2.8391-2.8459 4.41-3.92Zm11.76 40.18c-1.666 1.6758-2.9723 3.6358-3.92 5.88 1.4347 3.7652 3.5584 4.4188 6.37 1.96.4871-2.5931.6507-5.2067.49-7.84-.98 0-1.96 0-2.94 0Zm-19.6 32.34c7.5205-.1627 15.0342 0 22.54.49 13.2231 4.7158 18.4495 14.0258 15.68 27.93 3.6084.1617 7.201-.001 10.78-.49 3.626-3.9543 7.546-7.548 11.76-10.78 6.2975-1.4298 9.8902 1.0202 10.78 7.35-.2626 3.1389-1.57 5.7526-3.92 7.84 5.4263 6.225 7.2226 13.4113 5.39 21.56-3.3516 4.1679-7.4353 4.9853-12.25 2.45-2.1531-3.4006-3.4604-7.1569-3.92-11.27-2.1638 3.8387-4.4502 7.595-6.86 11.27-8.8984 3.1507-12.9821.047-12.25-9.31.3665-.8977.8565-1.715 1.47-2.45-1.9022-.7281-3.6985-.5645-5.39.49-2.2677 15.3478-10.9241 21.3914-25.97 18.13-9.8519-5.6987-12.9546-14.0287-9.31-24.99 5.5497-7.9174 13.2261-11.5111 23.03-10.78 3.2722-4.5991 2.6186-8.3555-1.96-11.27-7.2902-.0686-14.4766-.7223-21.56-1.96-4.3571-5.4909-3.7034-10.2273 1.96-14.21Zm13.72 44.1c-1.5072 2.01-1.1799 3.6436.98 4.9 2.2109-.9026 3.1909-2.5362 2.94-4.9-1.3063 0-2.6137 0-3.92 0Zm36.26 20.58c9.3423-.2538 12.445 3.9925 9.31 12.74-6.9717 3.4202-13.9954 6.8502-21.07 10.29-4.1973 2.5627-8.1173 5.5027-11.76 8.82 5.2793 4.2748 11.1593 7.5411 17.64 9.8 4.1934 4.9323 3.8671 9.506-.98 13.72-13.7278-1.2319-24.9978-7.2755-33.81-18.13-2.2177-4.6609-1.5651-8.9072 1.96-12.74 11.2818-10.8045 24.1854-18.9708 38.71-24.5Zm-43.12 59.78c5.1372-1.2044 8.8935.4283 11.27 4.9.0343 13.4858.688 26.8785 1.96 40.18.735.6135 1.5523 1.1035 2.45 1.47 7.84.6537 15.68.6537 23.52 0 .8977-.3665 1.715-.8565 2.45-1.47.8644-4.0023 2.3344-7.7587 4.41-11.27 7.6126-3.0596 11.86-.6096 12.74 7.35-.9957 10.632-6.5493 17.6557-16.66 21.07-9.8.6537-19.6.6537-29.4 0-8.33-2.45-13.72-7.84-16.17-16.17-.6537-14.0463-.6537-28.0937 0-42.14.6762-1.813 1.8189-3.1203 3.43-3.92Zm42.14 2.94c6.2161-.7301 10.2998 1.8836 12.25 7.84 2.0992 4.3806 2.7528 8.9543 1.96 13.72-5.3116 6.763-10.2116 6.4357-14.7-.98-1.0006-4.4747-2.4706-8.721-4.41-12.74.1686-3.6191 1.8022-6.2318 4.9-7.84Zm-20.58 5.88c5.7742-1.3985 9.8578.5615 12.25 5.88 1.6395 4.2797 2.7832 8.6897 3.43 13.23-1.6141 7.1765-5.8604 9.4639-12.74 6.86-1.177-.8849-1.9943-2.0276-2.45-3.43-1.076-5.1871-2.546-10.2508-4.41-15.19.4185-2.9625 1.7258-5.4125 3.92-7.35Z" stroke="#44739e" stroke-width="4" fill="none"/>
</svg>