<svg xmlns="http://www.w3.org/2000/svg" viewBox="0 0 512 512">
	<path d="M79.5 119.5c2.6873-.164 5.354.003 8 .5 20.955 6.155 41.955 12.155 63 18 1 .833 2 1.667 3 2.5 16.107 33.88 31.94 67.88 47.5 102 8.941-18.881 17.607-37.881 26-57 1.54-3.919 3.707-7.419 6.5-10.5 13.781-1.131 27.614-1.631 41.5-1.5 13.566-.14 27.066.36 40.5 1.5 2.117 1.731 3.617 3.898 4.5 6.5 8.94 25.487 18.273 50.821 28 76 44.5-44.5 89-89 133.5-133.5 11.178-3.995 15.678-.162 13.5 11.5-33.943 82.22-67.61 164.553-101 247-1.211 3.259-3.044 6.092-5.5 8.5-82 .667-164 .667-246 0-2.31-1.637-3.81-3.804-4.5-6.5-20.692-68.771-41.6921-137.437-63-206-16.0757 5.692-32.2424 11.192-48.5 16.5-9.2163.777-12.7163-3.39-10.5-12.5 21.0617-21.229 42.2283-42.229 63.5-63Zm-23 47c9.3403-10.174 19.1736-19.84 29.5-29 10.343 2.782 20.51 5.949 30.5 9.5-19.9254 6.809-39.9254 13.309-60 19.5Zm84-10c2.865 2.69 5.031 6.023 6.5 10 14.97 32.44 29.804 64.94 44.5 97.5-13.939 31.377-28.273 62.543-43 93.5-19.478-61.434-38.145-123.101-56-185 16.284-4.761 32.284-10.095 48-16Zm321 12c.543.06.876.393 1 1-25.833 63-51.667 126-77.5 189-10.648-27.107-20.815-54.44-30.5-82 35.688-36.021 71.354-72.021 107-108Zm-211 23c15.828-1.161 31.828-1.328 48-.5-7.595 19.354-15.595 38.521-24 57.5-8.023-19.091-16.023-38.091-24-57Zm-14 14c1.25.077 2.083.744 2.5 2 9.428 24.02 19.261 47.853 29.5 71.5 4.94 3.473 9.44 2.973 13.5-1.5 9.132-23.592 18.799-46.926 29-70 7.642 21.26 15.475 42.427 23.5 63.5-20.217 17.888-40.717 35.388-61.5 52.5-23.508-14.324-46.342-29.491-68.5-45.5 10.769-24.149 21.436-48.316 32-72.5Zm100 76c.997-.03 1.664.47 2 1.5 10.902 30.205 21.902 60.372 33 90.5-30.659 1-61.326 1.333-92 1-.167-14.67 0-29.337.5-44 18.999-16.233 37.832-32.566 56.5-49Zm-137 6c23.728 14.95 47.228 30.283 70.5 46 .5 13.663.667 27.329.5 41-36.673.333-73.339 0-110-1 13.393-28.523 26.393-57.19 39-86Z" stroke="#44739e" stroke-width="4" fill="none"/>
</svg>