<svg xmlns="http://www.w3.org/2000/svg" viewBox="0 0 512 512">
	<path d="M137.73 1.51c2.6137 0 5.2263 0 7.84 0 1.6111.8001 2.7538 2.1068 3.43 3.92.49 13.7161.6537 27.4361.49 41.16 9.8059-.1632 19.6059.0002 29.4.49 17.5106 5.4277 24.698 17.3511 21.56 35.77 43.9491 4.2547 71.5527 27.7752 82.81 70.56 1.6699 10.0577 2.6499 20.1841 2.94 30.38 4.9039-1.6621 9.9676-2.6421 15.19-2.94-1.9384-12.3176 1.6542-22.6076 10.78-30.87 3.9151-2.4461 8.1614-4.0788 12.74-4.9 9.1405-.49 18.2878-.6527 27.44-.49-.1637-46.0612 0-92.1212.49-138.18.9771-1.7866 2.1207-3.4199 3.43-4.9 2.6137 0 5.2263 0 7.84 0 1.6111.8001 2.7538 2.1068 3.43 3.92.49 46.3856.6537 92.7722.49 139.16 9.4786-.1627 18.9522 0 28.42.49 17.7537 5.2626 25.2673 17.1863 22.54 35.77 46.0257 5.195 74.1194 30.3486 84.28 75.46 0 22.2137 0 44.4263 0 66.64-2.3589 12.1275-6.7689 23.5602-13.23 34.3-3.8436 5.635-8.4172 6.2877-13.72 1.96-1.4279-2.8087-1.7542-5.7487-.98-8.82 8.3859-12.4186 12.6322-26.1386 12.74-41.16.783-17.0099.4567-33.9962-.98-50.96-6.5925-31.4208-25.3751-51.5108-56.35-60.27-7.7606-1.7875-15.6006-2.4402-23.52-1.96 14.8911 11.9648 23.8748 27.4812 26.95 46.55.6537 31.36.6537 62.72 0 94.08-2.9861 18.5622-11.6424 33.7522-25.97 45.57.98.49 1.96.98 2.94 1.47 15.4164-.6282 29.9527-4.5482 43.61-11.76 7.4607 2.5 9.2581 7.2363 5.39 14.21-12.6116 7.7273-26.3316 11.811-41.16 12.25 3.0253 16.3288-2.8547 27.9251-17.64 34.79-2.5647.8056-5.1783 1.2956-7.84 1.47.1637 15.0303 0 30.0566-.49 45.08-4.0552 6.8865-8.9552 7.5401-14.7 1.96-.49-15.6771-.6537-31.3571-.49-47.04-3.2663 0-6.5337 0-9.8 0 .1637 21.5629 0 43.1229-.49 64.68-.6762 1.813-1.8189 3.1203-3.43 3.92-2.6137 0-5.2263 0-7.84 0-1.3093-1.4798-2.4529-3.1135-3.43-4.9-.49-21.2307-.6537-42.4644-.49-63.7-2.94 0-5.88 0-8.82 0 .1637 15.0303 0 30.0566-.49 45.08-4.0552 6.8865-8.9552 7.5401-14.7 1.96-.49-15.6771-.6537-31.3571-.49-47.04-13.5279-1.275-22.1843-8.4613-25.97-21.56-.489-4.8892-.6527-9.7892-.49-14.7-44.8438-6.4592-71.7938-31.9392-80.85-76.44-.7762-8.1712-1.5925-16.3386-2.45-24.5-5.7702 1.615-11.6502 2.595-17.64 2.94 2.792 20.2713-5.7016 32.3586-25.48 36.26.1637 14.7039 0 29.4039-.49 44.1-3.4996 7.8155-8.3996 8.7955-14.7 2.94-.49-15.6771-.6537-31.3571-.49-47.04-3.2663 0-6.5337 0-9.8 0 .1637 21.5629 0 43.1229-.49 64.68-3.3516 4.1679-7.4353 4.9853-12.25 2.45-1.177-.8849-1.9943-2.0276-2.45-3.43-.49-21.2307-.6537-42.4644-.49-63.7-2.94 0-5.88 0-8.82 0 .1637 14.7039 0 29.4039-.49 44.1-3.5937 7.5137-8.4937 8.4937-14.7 2.94-.49-15.6771-.6537-31.3571-.49-47.04-20.0007-3.6917-28.8207-15.778-26.46-36.26-44.4871-6.5983-71.6004-31.752-81.34-75.46 0-22.2137 0-44.4263 0-66.64 6.4659-34.4088 26.0659-58.0924 58.8-71.05 7.3147-2.5409 14.8281-4.0109 22.54-4.41-2.6608-18.058 4.5259-29.9813 21.56-35.77 9.7941-.4898 19.5941-.6532 29.4-.49-.1637-13.3973 0-26.7907.49-40.18.9771-1.7866 2.1207-3.4199 3.43-4.9ZM107.35 62.27c23.1956-.1633 46.3893 0 69.58.49 3.6623 1.2555 6.1123 3.7055 7.35 7.35.489 3.9065.6527 7.8265.49 11.76-28.7463 0-57.4937 0-86.24 0-1.9216-9.0018 1.0184-15.5351 8.82-19.6ZM85.79 97.55c3.9335-.1622 7.8535.0012 11.76.49-15.9123 13.034-25.0589 29.8577-27.44 50.47.2886 6.9805 3.882 9.7569 10.78 8.33 1.4022-.4557 2.5455-1.273 3.43-2.45 4.7811-34.0178 24.2178-52.9651 58.31-56.84 24.7705 1.445 42.5741 13.2055 53.41 35.28 1.7062 4.4629 3.0125 9.0366 3.92 13.72.9359 31.3933.6096 62.7533-.98 94.08-8.1428 27.7222-26.7628 42.4222-55.86 44.1-27.3783-1.2515-45.6716-14.6451-54.88-40.18-.7784-2.9116-1.4318-5.8516-1.96-8.82-.3266-16.3337-.6534-32.6663-.98-49-4.0861-6.7806-8.9861-7.4333-14.7-1.96-.6534 17.9663-.6534 35.9337 0 53.9 2.9545 18.4906 11.6112 33.6806 25.97 45.57-35.2874.9575-60.2774-14.5599-74.97-46.55-4.3292-15.0234-6.1258-30.3761-5.39-46.06-2.7725-24.5627 2.9442-46.7754 17.15-66.64 13.9499-16.0387 31.4266-25.1853 52.43-27.44Zm102.9.98c31.3816-1.3753 55.3916 11.3651 72.03 38.22 7.9488 16.7845 10.5624 34.4245 7.84 52.92-34.9997 20.0155-51.1697 50.2328-48.51 90.65-9.802 3.7563-19.9283 5.0637-30.38 3.92 14.6432-12.1324 23.2995-27.6497 25.97-46.55.6537-31.0337.6537-62.0663 0-93.1-2.9821-19.0532-11.9648-34.4058-26.95-46.06Zm138.18 61.74c22.542-.1637 45.082 0 67.62.49 8.2957 4.1278 11.2357 10.8241 8.82 20.09-28.7463 0-57.4937 0-86.24 0-2.1511-9.7383 1.1152-16.5983 9.8-20.58Zm-21.56 35.28c3.6084-.1617 7.201.001 10.78.49-14.6804 12.102-23.6641 27.6184-26.95 46.55-.6537 31.36-.6537 62.72 0 94.08 3.2154 18.8866 12.1981 34.4029 26.95 46.55-35.6201.4116-60.9364-15.4321-75.95-47.53-1.766-4.7775-3.0723-9.6775-3.92-14.7-.6537-20.9063-.6537-41.8137 0-62.72 8.5995-36.8578 31.6295-57.7641 69.09-62.72Zm49 .98c27.8594-1.8414 47.9494 9.5922 60.27 34.3 1.766 4.7775 3.0723 9.6775 3.92 14.7.6537 29.4.6537 58.8 0 88.2-6.2269 31.0523-25.1742 47.385-56.84 49-31.3914-1.9659-50.3387-18.2995-56.84-49-.6537-29.4-.6537-58.8 0-88.2 5.3596-27.7369 21.856-44.0706 49.49-49ZM98.53 300.41c28.7463 0 57.4937 0 86.24 0 2.4157 9.2659-.5243 15.9622-8.82 20.09-11.27.1637-22.54.3263-33.81.49-12.3157.1352-24.5657-.3548-36.75-1.47-3.1634-1.5317-5.2871-3.9817-6.37-7.35-.4888-3.9063-.6522-7.8263-.49-11.76Zm218.54 98c28.7463 0 57.4937 0 86.24 0 .5988 5.8153-.2176 11.368-2.45 16.66-1.5474 1.5102-3.3447 2.6538-5.39 3.43-11.5963.1637-23.1937.3263-34.79.49-12.642.1362-25.2183-.3538-37.73-1.47-5.3978-5.1685-7.3578-11.5385-5.88-19.11Zm4.9-80.36c4.0209-.7164 7.4509.2636 10.29 2.94 1.47 21.07 12.74 32.34 33.81 33.81 4.2375 4.1229 4.5648 8.3692.98 12.74-20.8848 3.0311-36.0748-4.9725-45.57-24.01-3.0262-6.9129-4.0062-14.0993-2.94-21.56.6762-1.813 1.8189-3.1203 3.43-3.92Z" stroke="#44739e" stroke-width="4" fill="none"/>
</svg>