<svg xmlns="http://www.w3.org/2000/svg" viewBox="0 0 512 512">
	<path d="M245.49-.49c3.2663 0 6.5337 0 9.8 0 2.9606 2.8091 5.4106 6.0757 7.35 9.8 11.27 19.9266 22.54 39.8534 33.81 59.78 4.5394.8117 9.112 1.3017 13.72 1.47 2.8234 1.2256 4.6197 3.349 5.39 6.37.49 11.7555.6537 23.5151.49 35.28 36.897 9.9431 62.2133 32.8094 75.95 68.6 2.3814 6.6797 4.0151 13.5397 4.9 20.58.6537 16.0063.6537 32.0137 0 48.02-6.2063 6.5337-12.4137 6.5337-18.62 0-.2499-15.3723-.9036-30.7259-1.96-46.06-6.1103-32.3135-24.2403-55.0162-54.39-68.11-6.0094-2.3785-12.2167-4.0111-18.62-4.9-35.28-1.96-70.56-1.96-105.84 0-45.7101 10.4301-70.3738 39.0138-73.99 85.75-.6537 46.3863-.6537 92.7737 0 139.16 3.6162 46.7362 28.2799 75.3199 73.99 85.75 35.28 1.96 70.56 1.96 105.84 0 40.0163-8.6563 64.3537-32.9937 73.01-73.01 1.0025-13.375 1.6562-26.7687 1.96-40.18 6.2063-7.84 12.4137-7.84 18.62 0 7.4 46.4275-6.81 84.4838-42.63 114.17-11.5375 8.3819-24.2775 14.0983-38.22 17.15.1637 11.7649 0 23.5249-.49 35.28-.9477 3.0586-2.744 5.3449-5.39 6.86-39.8537 0-79.7063 0-119.56 0-2.646-1.5151-4.4423-3.8014-5.39-6.86-.49-11.7551-.6537-23.5151-.49-35.28-33.9345-8.6103-58.2718-28.863-73.01-60.76-3.6828-9.1767-6.2955-18.6494-7.84-28.42-.6537-56.1863-.6537-112.3737 0-168.56 6.564-38.9001 27.634-66.8301 63.21-83.79 5.6811-2.4931 11.5611-4.2895 17.64-5.39-.1637-11.7649 0-23.5245.49-35.28.7703-3.021 2.5666-5.1444 5.39-6.37 4.608-.1683 9.1806-.6583 13.72-1.47 11.27-19.9266 22.54-39.8534 33.81-59.78 1.9394-3.7243 4.3894-6.9909 7.35-9.8Zm3.92 31.36c.8585-.1283 1.5121.1984 1.96.98 6.9903 12.7029 14.1777 25.2795 21.56 37.73-15.0263.6534-30.0537.6534-45.08 0 7.8312-12.5618 15.0175-25.4652 21.56-38.71Zm-44.1 58.8c30.0537 0 60.1063 0 90.16 0 0 6.5334 0 13.0663 0 19.6-30.0537 0-60.1063 0-90.16 0 0-6.5337 0-13.0666 0-19.6Zm0 372.4c30.0537 0 60.1063 0 90.16 0 0 6.5337 0 13.0663 0 19.6-30.0537 0-60.1063 0-90.16 0 0-6.5337 0-13.0663 0-19.6Zm31.36-249.9c5.486-.1323 10.0597 1.8277 13.72 5.88 4.6197-5.1901 10.1734-6.6601 16.66-4.41 8.577 7.6773 14.1296 17.151 16.66 28.42 11.8747-.5272 22.981 2.0864 33.32 7.84 3.8347 5.5233 3.8347 11.0769 0 16.66 2.8645 2.0041 5.6419 4.1278 8.33 6.37 1.3406 3.1732 1.667 6.4406.98 9.8-5.2949 9.8686-12.6449 17.8723-22.05 24.01 5.2675 11.3053 6.0838 22.9016 2.45 34.79-1.1897 1.518-2.6597 2.6607-4.41 3.43-3.579.489-7.1716.6517-10.78.49-.0225 7.695-3.7789 12.2676-11.27 13.72-11.5424-1.2818-21.5051-5.8555-29.89-13.72-9.9901 9.4815-21.7501 13.5642-35.28 12.25-3.5486-3.282-5.5086-7.3647-5.88-12.25-13.0556 1.8091-18.9356-3.9073-17.64-17.15.0627-7.5705 1.6954-14.7568 4.9-21.56-9.4051-6.1377-16.7551-14.1414-22.05-24.01-.687-3.3594-.3606-6.6268.98-9.8 2.6881-2.2422 5.4655-4.3659 8.33-6.37-3.6054-5.3008-3.7691-10.6908-.49-16.17 10.388-6.172 21.658-8.9484 33.81-8.33 2.5382-12.7978 9.0719-22.7615 19.6-29.89Zm3.92 25.48c6.371 5.1862 12.741 5.1862 19.11 0 2.8851 6.1946 4.5188 12.7273 4.9 19.6 1.47 3.43 3.92 5.88 7.35 7.35 6.2808.5478 12.4881.0578 18.62-1.47 2.1678-.0862 4.1278.4038 5.88 1.47-3.6897 7.1961-2.057 12.9125 4.9 17.15-4.5648 4.902-10.1175 8.332-16.66 10.29-3.0968 2.8881-4.7305 6.4817-4.9 10.78 3.2007 7.058 6.1407 14.2453 8.82 21.56-8.8896-1.1946-14.2796 2.5617-16.17 11.27-5.3449-3.0576-9.7549-7.1413-13.23-12.25-5.88-3.2663-11.76-3.2663-17.64 0-3.4751 5.1087-7.8851 9.1924-13.23 12.25-1.8904-8.7083-7.2804-12.4646-16.17-11.27 2.6793-7.3147 5.6193-14.502 8.82-21.56-.2724-3.724-1.5788-6.9903-3.92-9.8-3.7142-2.3295-7.6342-4.2895-11.76-5.88-2.4265-1.2828-4.3865-3.0792-5.88-5.39 6.957-4.2375 8.5897-9.9539 4.9-17.15 1.7522-1.0662 3.7122-1.5562 5.88-1.47 4.5737.6537 9.1463 1.3063 13.72 1.96 5.7379-.0206 9.8216-2.6333 12.25-7.84.5292-6.7836 1.9992-13.3172 4.41-19.6Zm8.82 40.18c9.5864 1.2093 13.0164 6.4357 10.29 15.68-3.232 4.6256-7.642 6.0956-13.23 4.41-5.4968-3.2115-7.2932-7.9478-5.39-14.21 2.1658-3.0066 4.9421-4.9666 8.33-5.88Zm137.2 0c9.0464 1.3916 12.4764 6.6189 10.29 15.68-6.2063 6.5337-12.4137 6.5337-18.62 0-2.3197-8.2271.4567-13.4534 8.33-15.68Z" stroke="#44739e" stroke-width="4" fill="none"/>
</svg>