<svg xmlns="http://www.w3.org/2000/svg" viewBox="0 0 512 512">
	<path d="M246.51 21.11c25.9563.2963 42.4526 13.0363 49.49 38.22.9947 3.8614 1.4847 7.7814 1.47 11.76 13.0703-.1633 26.1376.0001 39.2.49 14.258 2.8245 23.078 11.3178 26.46 25.48 9.6912 2.9635 16.7149 9.0072 21.07 18.13 32.6046 92.7188 31.9519 185.1661-1.96 277.34-4.9137 7.0335-11.4474 11.9335-19.6 14.7-1.3994 9.2326-5.9721 16.4199-13.72 21.56-.8124 4.9323-.6488 9.8323.49 14.7 14.895 8.4231 17.6714 19.8568 8.33 34.3-8.4407 6.7404-17.4244 7.5568-26.95 2.45-11.76-11.4337-11.76-22.8663 0-34.3 2.107-1.3828 4.3943-2.2001 6.86-2.45 0-3.2663 0-6.5337 0-9.8-11.4337 0-22.8663 0-34.3 0-.3136 3.33.0127 6.5974.98 9.8 13.5309 7.1089 16.9609 17.5616 10.29 31.36-11.4337 11.76-22.8663 11.76-34.3 0-6.5219-13.7788-3.0919-24.2325 10.29-31.36.9673-3.2026 1.2936-6.47.98-9.8-11.1063 0-22.2137 0-33.32 0-.3136 3.33.0127 6.5974.98 9.8 13.5309 7.1089 16.9609 17.5616 10.29 31.36-11.4337 11.76-22.8663 11.76-34.3 0-6.6562-13.8405-3.2262-24.2932 10.29-31.36.9673-3.2026 1.2936-6.47.98-9.8-11.1063 0-22.2137 0-33.32 0-.1617 3.283.002 6.5493.49 9.8 12.9252 6.5846 16.8452 16.711 11.76 30.38-6.0319 8.968-14.3619 12.0716-24.99 9.31-12.2137-5.6507-16.2974-14.9607-12.25-27.93 2.6725-5.6125 6.9188-9.5325 12.74-11.76.488-3.2507.6517-6.517.49-9.8-11.4337 0-22.8663 0-34.3 0-.1617 3.283.002 6.5493.49 9.8 12.3784 5.1558 16.9511 14.3021 13.72 27.44-5.2361 11.027-13.8925 15.1106-25.97 12.25-13.8141-7.1452-17.2441-17.7615-10.29-31.85 2.9331-3.5839 6.5268-6.1965 10.78-7.84.6537-4.9.6537-9.8 0-14.7-7.2971-5.0166-11.8707-11.8766-13.72-20.58-7.6107-2.7166-13.817-7.2902-18.62-13.72-30.7719-79.8161-35.3453-161.1561-13.72-244.02 3.1977-11.5532 6.7914-22.9869 10.78-34.3 4.1964-9.3855 11.22-15.7555 21.07-19.11 3.382-14.1622 12.202-22.6555 26.46-25.48 13.0624-.4899 26.1297-.6533 39.2-.49 1.6288-25.8629 14.6951-42.5229 39.2-49.98Zm1.96 10.78c17.0579.2901 28.6542 8.4567 34.79 24.5 1.9188 4.7326 3.0615 9.6326 3.43 14.7-22.8663 0-45.7337 0-68.6 0 1.7199-19.8482 11.8462-32.9149 30.38-39.2Zm-78.4 49.98c54.881-.1634 109.761 0 164.64.49 8.0213 1.327 13.575 5.737 16.66 13.23-65.9863 1.3066-131.9737 1.3066-197.96 0 3.2477-7.5051 8.8014-12.0784 16.66-13.72Zm-20.58 24.5c68.601-.1637 137.201 0 205.8.49 7.3196.148 13.0369 3.2516 17.15 9.31 33.5944 90.9567 33.2681 181.7694-.98 272.44-3.0302 4.3394-7.1138 7.1158-12.25 8.33-71.2137.6537-142.4263.6537-213.64 0-5.1362-1.2142-9.2198-3.9906-12.25-8.33-33.8556-89.5406-34.5088-179.3743-1.96-269.5 3.8279-7.5372 9.8715-11.7845 18.13-12.74Zm94.08 46.06c40.7592-1.1015 72.2819 15.2321 94.57 49 21.2376 40.1261 18.2976 78.3461-8.82 114.66-27.7879 30.6044-61.9252 41.5481-102.41 32.83-43.5502-13.8219-68.2129-43.3856-73.99-88.69-.7928-46.941 19.9508-80.4237 62.23-100.45 9.3267-3.5554 18.8003-6.0054 28.42-7.35Zm6.86 45.08c3.9131-.2499 6.6895 1.3828 8.33 4.9 1.6817 5.7124 1.8444 11.4288.49 17.15-2.2863.1637-4.5737.3263-6.86.49-2.7313-.0725-5.1813-.7252-7.35-1.96-.7566-5.2959-.4302-10.5232.98-15.68 1.0045-2.1433 2.4745-3.7769 4.41-4.9Zm-35.28 14.7c3.5584-.3332 6.8247.4841 9.8 2.45 3.6289 3.2997 6.8953 6.8933 9.8 10.78-3.7563 2.45-6.86 5.5537-9.31 9.31-5.2714-3.6378-9.5187-8.2114-12.74-13.72-1.0515-3.528-.2352-6.468 2.45-8.82Zm67.62 0c5.4174-1.4024 8.6848.5576 9.8 5.88-2.3863 7.1275-6.7963 12.6802-13.23 16.66-2.6205-3.7632-5.7242-7.0295-9.31-9.8 3.3144-5.2744 7.5607-9.5207 12.74-12.74Zm-35.28 18.62c15.0832-.7546 23.9032 6.2691 26.46 21.07-4.2111 19.5833-15.6437 25.4633-34.3 17.64-11.9717-12.054-11.6444-23.814.98-35.28 2.3765-1.1887 4.6638-2.3314 6.86-3.43Zm39.2 12.74c6.0358-.2783 11.9158.538 17.64 2.45 4.2395 4.9431 3.5868 9.1904-1.96 12.74-5.8457 1.7013-11.7257 1.8649-17.64.49.2969-4.8216-.0294-9.7216-.98-14.7 1.2652.2323 2.2452-.0941 2.94-.98Zm-81.34.98c4.9637-.2754 9.8637.051 14.7.98 0 4.9 0 9.8 0 14.7-7.593 1.6503-14.6157.343-21.07-3.92-2.2736-6.2308-.1499-10.1508 6.37-11.76Zm19.6 25.48c2.9194 3.5731 6.1858 6.8394 9.8 9.8-2.7538 4.5511-6.3475 8.3075-10.78 11.27-7.3451 3.579-11.1014 1.4553-11.27-6.37 2.8724-5.9702 6.956-10.8702 12.25-14.7Zm53.9 0c5.5556 3.4329 9.9656 8.0066 13.23 13.72.0657 9.164-4.018 11.2867-12.25 6.37-3.6289-3.2997-6.8953-6.8933-9.8-10.78 3.824-2.352 6.764-5.4547 8.82-9.31Zm-33.32 13.72c5.3185.2577 10.3821 1.2377 15.19 2.94.9153 6.2034-.0647 12.0834-2.94 17.64-4.7011 4.216-8.6211 3.5633-11.76-1.96-1.7483-6.172-1.911-12.3794-.49-18.62ZM153.41 408.21c65.66 0 131.32 0 196.98 0-2.0266 8.7142-7.5803 13.4515-16.66 14.21-54.2263.6537-108.4537.6537-162.68 0-8.9827-.9869-14.8627-5.7232-17.64-14.21Zm6.86 45.08c9.8774 1.129 12.9801 6.3553 9.31 15.68-8.3574 5.98-14.0738 4.02-17.15-5.88.8369-4.7501 3.4506-8.0174 7.84-9.8Zm45.08 0c9.9646 1.322 13.0683 6.5484 9.31 15.68-8.3574 5.98-14.0738 4.02-17.15-5.88.8653-4.7746 3.479-8.0409 7.84-9.8Zm45.08 0c9.9705 1.3348 13.0742 6.5611 9.31 15.68-8.1918 5.7996-13.9091 3.8396-17.15-5.88.8653-4.7746 3.479-8.0409 7.84-9.8Zm45.08 0c9.2737.9251 12.7037 5.8251 10.29 14.7-8.3065 7.2118-14.3501 5.5782-18.13-4.9.8702-4.7785 3.4839-8.0448 7.84-9.8Zm45.08 0c9.4962.8203 12.9262 5.7203 10.29 14.7-8.0125 7.1991-14.0561 5.7291-18.13-4.41.6301-5.0284 3.2428-8.4584 7.84-10.29ZM240.63 141.65c52.8396-1.9345 90.897 20.6055 114.17 67.62 17.6155 50.1397 6.9992 93.0961-31.85 128.87-39.5126 29.1991-81.3263 32.7928-125.44 10.78-45.8277-29.4588-63.3051-71.1088-52.43-124.95 15.0979-46.9518 46.9479-74.3918 95.55-82.32Zm2.94 10.78c-9.6197 1.3446-19.0933 3.7946-28.42 7.35-42.2792 20.0263-63.0228 53.509-62.23 100.45 5.7771 45.3044 30.4398 74.8681 73.99 88.69 40.4848 8.7181 74.6221-2.2256 102.41-32.83 27.1176-36.3139 30.0576-74.5339 8.82-114.66-22.2881-33.7679-53.8108-50.1015-94.57-49Zm6.86 45.08c-1.9355 1.1231-3.4055 2.7567-4.41 4.9-1.4102 5.1568-1.7366 10.3841-.98 15.68 2.1687 1.2348 4.6187 1.8875 7.35 1.96 2.2863-.1637 4.5737-.3263 6.86-.49 1.3544-5.7212 1.1917-11.4376-.49-17.15-1.6405-3.5172-4.4169-5.1499-8.33-4.9Zm-35.28 14.7c-2.6852 2.352-3.5015 5.292-2.45 8.82 3.2213 5.5086 7.4686 10.0822 12.74 13.72 2.45-3.7563 5.5537-6.86 9.31-9.31-2.9047-3.8867-6.1711-7.4803-9.8-10.78-2.9753-1.9659-6.2416-2.7832-9.8-2.45Zm67.62 0c-5.1793 3.2193-9.4256 7.4656-12.74 12.74 3.5858 2.7705 6.6895 6.0368 9.31 9.8 6.4337-3.9798 10.8437-9.5325 13.23-16.66-1.1152-5.3224-4.3826-7.2824-9.8-5.88Zm-35.28 18.62c-2.1962 1.0986-4.4835 2.2413-6.86 3.43-12.6244 11.466-12.9517 23.226-.98 35.28 18.6563 7.8233 30.0889 1.9433 34.3-17.64-2.5568-14.8009-11.3768-21.8246-26.46-21.07Zm39.2 12.74c-.6948.8859-1.6748 1.2123-2.94.98.9506 4.9784 1.2769 9.8784.98 14.7 5.9143 1.3749 11.7943 1.2113 17.64-.49 5.5468-3.5496 6.1995-7.7969 1.96-12.74-5.7242-1.912-11.6042-2.7283-17.64-2.45Zm-81.34.98c-6.5199 1.6092-8.6436 5.5292-6.37 11.76 6.4543 4.263 13.477 5.5703 21.07 3.92 0-4.9 0-9.8 0-14.7-4.8363-.929-9.7363-1.2554-14.7-.98Zm19.6 25.48c-5.294 3.8298-9.3776 8.7298-12.25 14.7.1686 7.8253 3.9249 9.949 11.27 6.37 4.4325-2.9625 8.0262-6.7189 10.78-11.27-3.6142-2.9606-6.8806-6.2269-9.8-9.8Zm53.9 0c-2.056 3.8553-4.996 6.958-8.82 9.31 2.9047 3.8867 6.1711 7.4803 9.8 10.78 8.232 4.9167 12.3157 2.794 12.25-6.37-3.2644-5.7134-7.6744-10.2871-13.23-13.72Zm-33.32 13.72c-1.421 6.2406-1.2583 12.448.49 18.62 3.1389 5.5233 7.0589 6.176 11.76 1.96 2.8753-5.5566 3.8553-11.4366 2.94-17.64-4.8079-1.7023-9.8715-2.6823-15.19-2.94ZM59.33 146.55c1.6652-.1568 3.2986.0059 4.9.49 10.2045 9.5472 19.6779 19.6745 28.42 30.38-1.732 5.1117-4.9987 6.419-9.8 3.92-8.33-8.33-16.66-16.66-24.99-24.99-2.2156-3.7691-1.7256-7.0364 1.47-9.8Zm381.22 0c7.2863-.1313 9.41 3.136 6.37 9.8-8.33 8.33-16.66 16.66-24.99 24.99-4.801 2.499-8.0683 1.1917-9.8-3.92.3548-1.2005.8448-2.3432 1.47-3.43 9.1816-9.018 18.1653-18.1643 26.95-27.44ZM247.49 186.73c14.3933-.8075 22.3959 6.0525 24.01 20.58 10.2106-8.1546 20.0106-7.8282 29.4.98 4.7687 8.6514 3.9523 16.8178-2.45 24.5 5.5821 1.5896 10.6457 4.2032 15.19 7.84 5.4586 9.6295 4.3149 18.2868-3.43 25.97-4.2512 1.9032-8.4976 3.6995-12.74 5.39 8.8484 11.4111 7.5421 21.3748-3.92 29.89-8.5113 2.8567-16.1886 1.3867-23.03-4.41-1.7228 15.4771-10.0528 21.8471-24.99 19.11-7.6028-4.0278-11.6855-10.3978-12.25-19.11-10.2106 8.1546-20.0106 7.8282-29.4-.98-4.7687-8.6514-3.9523-16.8178 2.45-24.5-4.2424-1.6905-8.4888-3.4868-12.74-5.39-6.8041-6.0584-8.6005-13.4084-5.39-22.05 4.5884-6.6277 10.9584-10.3851 19.11-11.27-8.1546-10.2106-7.8282-20.0106.98-29.4 8.6514-4.7687 16.8178-3.9523 24.5 2.45 1.6905-4.2424 3.4868-8.4888 5.39-12.74 2.4784-3.3173 5.5821-5.6036 9.31-6.86Zm2.94 10.78c-1.9355 1.1231-3.4055 2.7567-4.41 4.9-1.4102 5.1568-1.7366 10.3841-.98 15.68 2.1687 1.2348 4.6187 1.8875 7.35 1.96 2.2863-.1637 4.5737-.3263 6.86-.49 1.3544-5.7212 1.1917-11.4376-.49-17.15-1.6405-3.5172-4.4169-5.1499-8.33-4.9Zm-35.28 14.7c-2.6852 2.352-3.5015 5.292-2.45 8.82 3.2213 5.5086 7.4686 10.0822 12.74 13.72 2.45-3.7563 5.5537-6.86 9.31-9.31-2.9047-3.8867-6.1711-7.4803-9.8-10.78-2.9753-1.9659-6.2416-2.7832-9.8-2.45Zm67.62 0c-5.1793 3.2193-9.4256 7.4656-12.74 12.74 3.5858 2.7705 6.6895 6.0368 9.31 9.8 6.4337-3.9798 10.8437-9.5325 13.23-16.66-1.1152-5.3224-4.3826-7.2824-9.8-5.88Zm-35.28 18.62c-2.1962 1.0986-4.4835 2.2413-6.86 3.43-12.6244 11.466-12.9517 23.226-.98 35.28 18.6563 7.8233 30.0889 1.9433 34.3-17.64-2.5568-14.8009-11.3768-21.8246-26.46-21.07Zm39.2 12.74c-.6948.8859-1.6748 1.2123-2.94.98.9506 4.9784 1.2769 9.8784.98 14.7 5.9143 1.3749 11.7943 1.2113 17.64-.49 5.5468-3.5496 6.1995-7.7969 1.96-12.74-5.7242-1.912-11.6042-2.7283-17.64-2.45Zm-81.34.98c-6.5199 1.6092-8.6436 5.5292-6.37 11.76 6.4543 4.263 13.477 5.5703 21.07 3.92 0-4.9 0-9.8 0-14.7-4.8363-.929-9.7363-1.2554-14.7-.98Zm19.6 25.48c-5.294 3.8298-9.3776 8.7298-12.25 14.7.1686 7.8253 3.9249 9.949 11.27 6.37 4.4325-2.9625 8.0262-6.7189 10.78-11.27-3.6142-2.9606-6.8806-6.2269-9.8-9.8Zm53.9 0c-2.056 3.8553-4.996 6.958-8.82 9.31 2.9047 3.8867 6.1711 7.4803 9.8 10.78 8.232 4.9167 12.3157 2.794 12.25-6.37-3.2644-5.7134-7.6744-10.2871-13.23-13.72Zm-33.32 13.72c-1.421 6.2406-1.2583 12.448.49 18.62 3.1389 5.5233 7.0589 6.176 11.76 1.96 2.8753-5.5566 3.8553-11.4366 2.94-17.64-4.8079-1.7023-9.8715-2.6823-15.19-2.94ZM45.61 246.51c12.4177-.1637 24.8309 0 37.24.49 4.4171 1.812 5.5604 4.9157 3.43 9.31-1.0461.6772-2.1894 1.1672-3.43 1.47-12.4134.6537-24.8266.6537-37.24 0-4.4171-1.812-5.5604-4.9157-3.43-9.31 1.2764-.5733 2.4196-1.226 3.43-1.96Zm376.32 0c12.4176-.1637 24.8312 0 37.24.49 4.4169 1.812 5.5605 4.9157 3.43 9.31-1.0457.6772-2.1893 1.1672-3.43 1.47-12.4137.6537-24.8263.6537-37.24 0-4.4169-1.812-5.5605-4.9157-3.43-9.31 1.276-.5733 2.4196-1.226 3.43-1.96Zm-5.88 75.46c2.1119-.1254 4.0719.3646 5.88 1.47 8.33 8.33 16.66 16.66 24.99 24.99 3.0507 6.8208.9281 9.9235-6.37 9.31-10.2047-9.5472-19.6774-19.6745-28.42-30.38.4969-2.4941 1.8042-4.2914 3.92-5.39Zm-333.2.98c2.6336-.1607 5.2469.0029 7.84.49 2.3031 2.3255 2.4664 4.7755.49 7.35-8.9834 8.9837-17.9666 17.9663-26.95 26.95-7.2977.6135-9.4209-2.4892-6.37-9.31 8.5283-8.3643 16.8583-16.858 24.99-25.48Z" stroke="#44739e" stroke-width="4" fill="none"/>
</svg>