<svg xmlns="http://www.w3.org/2000/svg" viewBox="0 0 512 512">
	<path d="M246.47-.49c2.6137 0 5.2263 0 7.84 0 .9388 1.4324 2.0815 2.739 3.43 3.92.1646 9.4901.6546 18.9635 1.47 28.42 13.3153 7.4998 17.7253 18.6065 13.23 33.32 9.31 9.31 18.62 18.62 27.93 27.93 11.1063.3266 22.2137.6534 33.32.98 5.39 1.47 8.82 4.9 10.29 10.29.3263 8.4937.6537 16.9863.98 25.48 5.3126 6.9384 10.2126 14.1257 14.7 21.56 1.9032 8.4417-.8742 14.8117-8.33 19.11 5.1715 4.6266 8.1115 10.3429 8.82 17.15-.0696 6.5062-3.0096 11.2435-8.82 14.21 5.1715 4.6266 8.1115 10.3429 8.82 17.15-.0696 6.5062-3.0096 11.2435-8.82 14.21 6.7816 5.879 9.5579 13.229 8.33 22.05-1.5415 4.2405-4.3189 7.3431-8.33 9.31 3.383 3.6593 6.1593 7.742 8.33 12.25 2.3118 9.7637-1.1182 16.4601-10.29 20.09-4.2346.489-8.4809.6527-12.74.49 2.0531 14.9323-3.0096 26.6923-15.19 35.28-.8154 9.8167-.6527 19.6167.49 29.4 7.4862 3.2134 12.2226 8.7671 14.21 16.66.6537 23.8463.6537 47.6937 0 71.54-.8163 1.47-1.96 2.6137-3.43 3.43-13.0663.6537-26.1337.6537-39.2 0-1.518-1.1897-2.6607-2.6597-3.43-4.41-.6537-23.1937-.6537-46.3863 0-69.58 1.6621-8.3584 6.3984-14.2384 14.21-17.64.978-8.4682 1.3044-16.9618.98-25.48-10.7849-.1637-21.5649 0-32.34.49-2.7763 6.6963-7.5137 11.4337-14.21 14.21-.8163 19.2815-.6527 38.5552.49 57.82 7.401 3.3144 12.1373 8.868 14.21 16.66.6537 23.8463.6537 47.6937 0 71.54-1.0114 1.4965-2.155 2.8028-3.43 3.92-13.0663 0-26.1337 0-39.2 0-1.275-1.1172-2.4186-2.4235-3.43-3.92-.6537-23.8463-.6537-47.6937 0-71.54 2.0727-7.792 6.809-13.3456 14.21-16.66 1.1427-19.2648 1.3063-38.5385.49-57.82-6.6963-2.7763-11.4337-7.5137-14.21-14.21-10.7751-.49-21.5551-.6537-32.34-.49-.3244 8.5182.002 17.0118.98 25.48 7.8116 3.4016 12.5479 9.2816 14.21 17.64.6537 23.1937.6537 46.3863 0 69.58-.7693 1.7503-1.912 3.2203-3.43 4.41-13.0663.6537-26.1337.6537-39.2 0-1.47-.8163-2.6137-1.96-3.43-3.43-.6537-23.8463-.6537-47.6937 0-71.54 1.9874-7.8929 6.7238-13.4466 14.21-16.66 1.1427-9.7833 1.3054-19.5833.49-29.4-12.1804-8.5877-17.2431-20.3477-15.19-35.28-6.6199.8154-12.8272-.3283-18.62-3.43-4.4972-4.8667-5.9672-10.584-4.41-17.15 2.1707-4.508 4.947-8.5907 8.33-12.25-9.5638-6.5043-11.3602-14.8343-5.39-24.99 1.6807-2.2138 3.477-4.3375 5.39-6.37-8.6818-5.2018-11.1318-12.5518-7.35-22.05 2.45-3.1037 4.9-6.2063 7.35-9.31-8.6818-5.2018-11.1318-12.5518-7.35-22.05 2.45-3.1037 4.9-6.2063 7.35-9.31-7.4558-4.2983-10.2332-10.6683-8.33-19.11 4.4874-7.4343 9.3874-14.6216 14.7-21.56.3263-8.4937.6537-16.9863.98-25.48 1.47-5.39 4.9-8.82 10.29-10.29 11.1063-.3266 22.2137-.6534 33.32-.98 9.31-9.31 18.62-18.62 27.93-27.93-4.5188-14.7077-.1088-25.8145 13.23-33.32.8154-9.4565 1.3054-18.9299 1.47-28.42 1.0114-1.4962 2.155-2.8028 3.43-3.92Zm.98 47.04c8.8788-.4448 11.9825 3.4752 9.31 11.76-4.2463 5.2266-8.4937 5.2266-12.74 0-2.4912-5.036-1.3485-8.956 3.43-11.76Zm-7.84 29.4c3.6289.399 7.2226 1.0522 10.78 1.96 3.5613-1.0746 7.155-1.5646 10.78-1.47 5.5537 5.5534 11.1063 11.1066 16.66 16.66-18.2937.6534-36.5863.6534-54.88 0 5.7526-5.5879 11.3053-11.3046 16.66-17.15Zm-67.62 33.32c52.2663 0 104.5337 0 156.8 0 0 5.2263 0 10.4537 0 15.68-52.2663 0-104.5337 0-156.8 0 0-5.2263 0-10.4537 0-15.68Zm-4.9 31.36c55.5376-.3263 111.0703 0 166.6.98 3.7122 4.6491 7.3059 9.3855 10.78 14.21-11.4337.3263-22.8663.6537-34.3.98-4.9666 2.9233-6.1103 7.006-3.43 12.25 1.1476 1.3651 2.6176 2.1825 4.41 2.45 7.1863.3263 14.3737.6537 21.56.98 3.92 4.9 7.84 9.8 11.76 14.7-62.72.6537-125.44.6537-188.16 0 3.92-4.9 7.84-9.8 11.76-14.7 38.5463-.3263 77.0937-.6537 115.64-.98 4.997-1.6611 6.7934-5.0911 5.39-10.29-.7693-1.7503-1.912-3.2203-3.43-4.41-43.12-.3263-86.24-.6537-129.36-.98 3.8328-4.9627 7.4264-10.0264 10.78-15.19Zm.98 62.72c54.881-.1637 109.761 0 164.64.49 3.92 4.9 7.84 9.8 11.76 14.7-62.72.6537-125.44.6537-188.16 0 4.0474-5.0039 7.9674-10.0675 11.76-15.19Zm0 31.36c54.881-.1637 109.761 0 164.64.49 3.92 4.9 7.84 9.8 11.76 14.7-45.4063.3263-90.8137.6537-136.22.98-4.2738 2.1815-5.7438 5.6115-4.41 10.29.8163 2.1237 2.2863 3.5937 4.41 4.41 41.4863.3263 82.9737.6537 124.46.98 3.92 4.9 7.84 9.8 11.76 14.7-62.72.6537-125.44.6537-188.16 0 3.92-4.9 7.84-9.8 11.76-14.7 4.9-.3263 9.8-.6537 14.7-.98 4.2738-2.1815 5.7438-5.6115 4.41-10.29-.8163-2.1237-2.2863-3.5937-4.41-4.41-8.82-.3263-17.64-.6537-26.46-.98 4.0474-5.0039 7.9674-10.0675 11.76-15.19Zm11.76 62.72c47.04 0 94.08 0 141.12 0 1.9218 9.4482-1.0182 16.7982-8.82 22.05-13.3211 1.4171-26.7148 1.9071-40.18 1.47-5.4998-13.23-15.2998-17.9663-29.4-14.21-6.7816 2.696-11.3543 7.4333-13.72 14.21-13.4652.4371-26.8589-.0529-40.18-1.47-7.8018-5.2518-10.7418-12.6018-8.82-22.05Zm68.6 23.52c6.8257.4518 9.9294 4.0454 9.31 10.78-2.1815 4.2738-5.6115 5.7438-10.29 4.41-6.6111-5.3782-6.2838-10.4409.98-15.19Zm-62.72 54.88c8.1654.8046 10.9417 5.0509 8.33 12.74-5.3322 4.3375-9.9058 3.6838-13.72-1.96-.6537-1.96-.6537-3.92 0-5.88 1.6954-1.864 3.4917-3.4976 5.39-4.9Zm125.44 0c6.8737.4949 9.9764 4.0886 9.31 10.78-2.9527 4.9343-7.0364 6.078-12.25 3.43-4.3855-5.8173-3.4055-10.5536 2.94-14.21ZM179.83 406.21c4.901 1.2524 9.801 1.2524 14.7 0 .979 10.7604 1.3054 21.5404.98 32.34-5.2263 0-10.4537 0-15.68 0 0-10.78 0-21.56 0-32.34Zm125.44 0c4.901 1.2524 9.801 1.2524 14.7 0 .979 10.7604 1.3054 21.5404.98 32.34-5.2263 0-10.4537 0-15.68 0 0-10.78 0-21.56 0-32.34Zm-55.86 16.66c8.6554 2.109 10.6154 6.8463 5.88 14.21-9.7892 2.9469-13.5465-.4831-11.27-10.29 1.47-1.9296 3.2663-3.236 5.39-3.92Zm-6.86 30.38c5.0637 1.2838 10.1273 1.2838 15.19 0 .49 11.1014.6537 22.2088.49 33.32-5.2263 0-10.4537 0-15.68 0 0-11.1063 0-22.2137 0-33.32Z" stroke="#44739e" stroke-width="4" fill="none"/>
</svg>