<svg xmlns="http://www.w3.org/2000/svg" viewBox="0 0 512 512">
	<path d="M109.27-.49c66.9663 0 133.9337 0 200.9 0 4.116 3.4476 4.9323 7.6943 2.45 12.74-.735.6133-1.5523 1.1033-2.45 1.47-64.68.3266-129.36.6534-194.04.98-8.4858 2.5866-9.7922 7.1599-3.92 13.72 1.3063.3266 2.6137.6534 3.92.98 85.9137.3266 171.8263.6534 257.74.98.8163.8166 1.6337 1.6334 2.45 2.45 1.6307 154.4353 1.9571 308.9479.98 463.54-.9771 1.7865-2.1207 3.4202-3.43 4.9-2.6137 0-5.2263 0-7.84 0-1.6111-.7997-2.7538-2.107-3.43-3.92-.49-150.92-.6537-301.84-.49-452.76-37.8946-.1634-75.7883 0-113.68.49 4.6687 12.4387 8.9151 25.0154 12.74 37.73 9.1522-.1632 18.2995.0002 27.44.49 6.0437 2.1234 10.1263 6.2066 12.25 12.25 1.2485 6.4709 1.7385 13.0046 1.47 19.6 16.6012-2.4049 27.8712 4.1287 33.81 19.6.6537 81.34.6537 162.68 0 244.02-5.9133 15.4605-17.1833 21.9932-33.81 19.6.882 8.9523-.588 17.446-4.41 25.48-2.1893 2.156-4.6393 3.9523-7.35 5.39-21.8266 1.128-43.7129 1.618-65.66 1.47-22.2607.1431-44.4734-.3469-66.64-1.47-4.3149-1.909-7.4186-5.0117-9.31-9.31-1.3632-7.1011-1.8532-14.2874-1.47-21.56-24.8548 1.7679-36.4521-9.6657-34.79-34.3 4.214-4.8471 8.7877-5.1734 13.72-.98 1.1662 3.8034 1.8199 7.7234 1.96 11.76 1.1437 3.7563 3.5937 6.2063 7.35 7.35 14.0424.49 28.0897.6537 42.14.49 0-19.9263 0-39.8537 0-59.78-12.7772-2.9919-19.6372-11.1583-20.58-24.5.3165-6.0133 2.2765-11.4033 5.88-16.17-18.3368-4.1817-25.6868-15.4517-22.05-33.81 4.1719-10.3419 11.8492-16.0593 23.03-17.15-8.5182-10.5487-9.0082-21.4924-1.47-32.83 3.9994-4.4492 8.8994-7.3892 14.7-8.82.49-19.5971.6537-39.1971.49-58.8-14.3766-.1637-28.7503 0-43.12.49-3.1909 1.5553-5.3145 4.0053-6.37 7.35-.3263 67.2937-.6537 134.5863-.98 201.88-.9624 4.0415-3.575 6.0015-7.84 5.88-3.333-.194-5.6193-1.8277-6.86-4.9-.6537-68.6-.6537-137.2 0-205.8 5.6742-16.4875 17.2705-23.3475 34.79-20.58-.1627-6.5415 0-13.0752.49-19.6 2.1237-6.0434 6.2063-10.1266 12.25-12.25 9.164-.1645 18.3103-.6545 27.44-1.47 4.0533-12.1606 8.2996-24.2473 12.74-36.26-30.3751-.8165-60.7551-1.3065-91.14-1.47C97.2936 39.5902 91.9036 30.9336 93.1 18.13c2.1066-9.1256 7.497-15.3322 16.17-18.62Zm107.8 45.08c5.1568-.2986 10.2194.028 15.19.98 4.1915 12.4116 8.2751 24.825 12.25 37.24-10.0832-2.0898-14.1659 1.8302-12.25 11.76.8163.8166 1.6337 1.6334 2.45 2.45 16.5953 1.2652 33.2553 1.9188 49.98 1.96.6135.735 1.1035 1.5523 1.47 2.45.489 4.5619.6527 9.1346.49 13.72-41.16 0-82.32 0-123.48 0-.3009-5.4811.0265-10.8711.98-16.17 16.0063-.3263 32.0137-.6537 48.02-.98 7.2167-4.598 7.5431-9.498.98-14.7-2.9919-.175-5.9319-.665-8.82-1.47 4.6413-12.2901 8.8876-24.7034 12.74-37.24Zm-22.54 86.24c19.9293-.1637 39.8556 0 59.78.49.6135.735 1.1035 1.5523 1.47 2.45.6537 19.2737.6537 38.5463 0 57.82-1.96 1.3063-3.92 2.6137-5.88 3.92-4.6932-20.0714-16.9432-27.0941-36.75-21.07-8.1859 4.6099-12.9233 11.6336-14.21 21.07-1.2172-1.3446-2.6872-2.3246-4.41-2.94-1.2936-20.6437-1.2936-41.2237 0-61.74Zm77.42 0c14.0503-.1637 28.0976 0 42.14.49 2.7763 1.47 4.9 3.5937 6.37 6.37.1637 39.69.3263 79.38.49 119.07.1578 40.424-.3322 80.7677-1.47 121.03-1.6964 2.0747-3.82 3.5447-6.37 4.41-14.0463.6537-28.0937.6537-42.14 0 .9731-19.6892 1.3005-39.4519.98-59.29 12.8037-3.0341 19.3374-11.2014 19.6-24.5.0764-6.1417-1.8836-11.5317-5.88-16.17 18.6357-4.4414 25.9857-16.0377 22.05-34.79-4.4149-9.3198-11.7649-14.7098-22.05-16.17 8.8631-13.4848 7.5568-25.8975-3.92-37.24-3.0596-1.6121-6.1622-3.0821-9.31-4.41-.49-19.5971-.6537-39.1971-.49-58.8Zm-49.98 56.84c7.7038-.4606 11.6238 3.1321 11.76 10.78-1.126 12.0207-4.2287 23.4534-9.31 34.3-4.8608-11.1112-7.9635-22.7076-9.31-34.79.246-4.9294 2.5323-8.3594 6.86-10.29Zm-43.12 17.64c5.1352-.9428 9.2189.6909 12.25 4.9 6.3974 8.0527 11.6238 16.8727 15.68 26.46.734 1.1123.5713 2.0923-.49 2.94-11.8678-5.0284-22.4841-11.8884-31.85-20.58-2.1923-5.7438-.7223-10.3165 4.41-13.72Zm84.28 0c9.2973-.6674 13.3809 3.5799 12.25 12.74-9.4599 9.2688-20.4036 16.4562-32.83 21.56-.3263-.3263-.6537-.6537-.98-.98 5.2587-12.5087 12.445-23.616 21.56-33.32ZM161.21 247.45c13.7572.3361 26.8236 3.4398 39.2 9.31-11.8619 5.4165-24.2756 8.3565-37.24 8.82-7.4431-3.0566-9.2404-8.1203-5.39-15.19 1.4876-.6497 2.6313-1.6297 3.43-2.94Zm116.62 0c11.5816-1.9727 16.318 2.5999 14.21 13.72-1.5121 1.8404-3.3085 3.3104-5.39 4.41-13.3153-.3067-26.0553-3.2467-38.22-8.82 9.4933-4.3287 19.2933-7.4313 29.4-9.31Zm-55.86 2.94c1.4112.8457 2.7185.8457 3.92 0 3.7642 1.8767 5.3978 4.653 4.9 8.33-3.6858 4.2973-7.4421 4.461-11.27.49-.6752-3.3643.1421-6.3043 2.45-8.82Zm-14.7 23.52c-4.1856 10.9838-9.9019 21.1102-17.15 30.38-8.1938 6.2798-13.9111 4.4835-17.15-5.39.4008-2.2746 1.2181-4.3973 2.45-6.37 9.507-8.1017 20.1233-14.308 31.85-18.62Zm34.3 0c10.3125 3.5231 19.7862 8.5858 28.42 15.19 5.7732 3.8573 7.2432 8.9209 4.41 15.19-3.5349 3.8436-7.6185 4.6599-12.25 2.45-8.965-9.5962-15.825-20.5388-20.58-32.83Zm-17.64 6.86c1.2642.5468 2.0805 1.5268 2.45 2.94 3.6074 10.0185 6.0574 20.3085 7.35 30.87.1166 6.417-2.987 10.1734-9.31 11.27-5.7536-1.3406-8.8563-4.9343-9.31-10.78 1.5641-11.8119 4.5041-23.2456 8.82-34.3Zm25.48 36.26c1.6758 1.666 3.6358 2.9723 5.88 3.92 1.2946 19.9606 1.2946 39.888 0 59.78-.5145.6782-1.1682 1.1682-1.96 1.47-19.2737.6537-38.5463.6537-57.82 0-.49-.49-.98-.98-1.47-1.47-.8163-19.9352-.6527-39.8615.49-59.78 1.3857-1.1015 2.8557-2.0815 4.41-2.94 4.164 18.3299 15.434 25.6799 33.81 22.05 10.288-4.2454 15.8407-11.9217 16.66-23.03Zm-86.24 81.34c41.16 0 82.32 0 123.48 0 .1627 4.5854-.001 9.1581-.49 13.72-.49 1.1437-1.3063 1.96-2.45 2.45-39.5263.6537-79.0537.6537-118.58 0-.49-.49-.98-.98-1.47-1.47-.489-4.8892-.6527-9.7892-.49-14.7ZM331.73-.49c19.9263 0 39.8537 0 59.78 0 8.6456 3.2635 14.0356 9.4702 16.17 18.62.6537 159.4137.6537 318.8263 0 478.24-.9771 1.7865-2.1207 3.4202-3.43 4.9-2.6137 0-5.2263 0-7.84 0-1.6111-.7997-2.7538-2.107-3.43-3.92-.3263-159.0863-.6537-318.1737-.98-477.26-1.3524-3.3152-3.8024-5.1119-7.35-5.39-17.64-.3266-35.28-.6534-52.92-.98-5.1626-4.7328-5.1626-9.4694 0-14.21Z" stroke="#44739e" stroke-width="4" fill="none"/>
</svg>