<svg xmlns="http://www.w3.org/2000/svg" viewBox="0 0 512 512">
	<path d="M46.59 1.51c23.1934 0 46.3866 0 69.58 0 0 5.2267 0 10.4534 0 15.68-17.64 0-35.28 0-52.92 0 0 4.2466 0 8.4934 0 12.74 131.6463 0 263.2937 0 394.94 0 0 5.5534 0 11.1066 0 16.66-72.8473-.1634-145.6937 0-218.54.49 2.2364 3.4416 3.7064 7.1982 4.41 11.27.489 5.871.6527 11.751.49 17.64 14.0463 0 28.0937 0 42.14 0-.3263 13.4092.001 26.803.98 40.18 32.5311 8.5191 50.9874 29.4255 55.37 62.72.6537 73.8263.6537 147.6537 0 221.48-3.8318 34.3735-22.6145 55.2798-56.35 62.72 0 13.3937 0 26.7863 0 40.18-53.5737 0-107.1463 0-160.72 0 0-13.3937 0-26.7863 0-40.18-34.1774-7.5842-52.9608-28.8179-56.35-63.7-.6534-73.1737-.6534-146.3463 0-219.52 3.9171-33.811 22.3737-55.0437 55.37-63.7.979-13.377 1.3063-26.7708.98-40.18 14.0463 0 28.0937 0 42.14 0-1.1466-9.9981.4871-19.4714 4.9-28.42-42.1351-.9799-84.2749-1.3066-126.42-.98 0-15.0266 0-30.0534 0-45.08Zm151.9 45.08c22.3264-2.8272 32.4527 6.9728 30.38 29.4-15.0263 0-30.0537 0-45.08 0-1.0898-9.3669 1.1966-17.6969 6.86-24.99 2.547-1.7591 5.1607-3.2291 7.84-4.41ZM141.65 92.65c43.12 0 86.24 0 129.36 0 0 7.5137 0 15.0263 0 22.54-43.12 0-86.24 0-129.36 0 0-7.5137 0-15.0263 0-22.54Zm-3.92 38.22c45.7346-.1637 91.4683 0 137.2.49 25.7877 1.9522 42.6114 15.1822 50.47 39.69 1.0996 4.51 1.5896 9.0826 1.47 13.72-80.36 0-160.72 0-241.08 0-.3013-7.8067 1.332-15.1567 4.9-22.05 53.899-.49 107.799-.6537 161.7-.49 0-5.2263 0-10.4537 0-15.68-49.981.1637-99.961 0-149.94-.49 9.9078-9.557 21.6678-14.6206 35.28-15.19ZM85.79 201.43c80.36 0 160.72 0 241.08 0 0 12.0863 0 24.1737 0 36.26-10.78 0-21.56 0-32.34 0 0 5.2263 0 10.4537 0 15.68 10.78 0 21.56 0 32.34 0 0 9.4737 0 18.9463 0 28.42-10.78 0-21.56 0-32.34 0 0 5.2263 0 10.4537 0 15.68 10.78 0 21.56 0 32.34 0 0 9.8 0 19.6 0 29.4-10.78 0-21.56 0-32.34 0 0 5.5537 0 11.1063 0 16.66 10.78 0 21.56 0 32.34 0 0 12.4137 0 24.8263 0 37.24-80.36 0-160.72 0-241.08 0 0-12.4137 0-24.8263 0-37.24 10.78 0 21.56 0 32.34 0 0-5.5537 0-11.1063 0-16.66-10.78 0-21.56 0-32.34 0 0-9.8 0-19.6 0-29.4 10.78 0 21.56 0 32.34 0 0-5.2263 0-10.4537 0-15.68-10.78 0-21.56 0-32.34 0 0-9.4737 0-18.9463 0-28.42 10.78 0 21.56 0 32.34 0 0-5.2263 0-10.4537 0-15.68-10.78 0-21.56 0-32.34 0 0-12.0863 0-24.1737 0-36.26Zm0 195.02c80.36 0 160.72 0 241.08 0 .1156 7.5862-1.517 14.7735-4.9 21.56-77.0937 1.3063-154.1863 1.3063-231.28 0-3.1795-6.8375-4.8128-14.0248-4.9-21.56Zm18.62 40.18c67.7817-1.1417 135.729-1.3054 203.84-.49-7.7244 6.3102-16.5444 10.2302-26.46 11.76-35.278.49-70.558.6537-105.84.49 0 5.5537 0 11.1063 0 16.66 31.6863 0 63.3737 0 95.06 0 0 7.5137 0 15.0263 0 22.54-43.12 0-86.24 0-129.36 0 0-7.5137 0-15.0263 0-22.54 6.5337 0 13.0663 0 19.6 0 0-5.5537 0-11.1063 0-16.66-11.8119.3832-23.5719-.1068-35.28-1.47-7.8586-2.1335-15.045-5.5635-21.56-10.29ZM129.89 1.51c109.4337 0 218.8663 0 328.3 0 0 5.2267 0 10.4534 0 15.68-109.4337 0-218.8663 0-328.3 0 0-5.2266 0-10.4533 0-15.68ZM266.11 146.55c5.5537 0 11.1063 0 16.66 0 0 5.2263 0 10.4537 0 15.68-5.5537 0-11.1063 0-16.66 0 0-5.2263 0-10.4537 0-15.68Zm-117.6 68.6c10.4194 9.9284 20.7094 20.0557 30.87 30.38.6537.6537.6537 1.3063 0 1.96-3.1037 3.1037-6.2063 6.2063-9.31 9.31-.98.6537-1.96.6537-2.94 0-10.1567-9.8284-19.9567-19.9557-29.4-30.38 3.7926-3.628 7.3863-7.3853 10.78-11.27Zm115.64 0c4.1523 2.6734 7.9096 5.9398 11.27 9.8.6537.98.6537 1.96 0 2.94-9.8137 9.9774-19.7774 19.7774-29.89 29.4-3.578-3.088-7.008-6.3543-10.29-9.8-.6537-.98-.6537-1.96 0-2.94 9.8353-9.6706 19.4716-19.4706 28.91-29.4Zm-68.6 5.88c5.5537 0 11.1063 0 16.66 0 0 17.64 0 35.28 0 52.92 17.64 0 35.28 0 52.92 0 0 5.2263 0 10.4537 0 15.68-7.5137 0-15.0263 0-22.54 0 0 17.64 0 35.28 0 52.92 6.86 0 13.72 0 20.58 0 0-5.2263 0-10.4537 0-15.68 5.2263 0 10.4537 0 15.68 0 0 10.4537 0 20.9063 0 31.36-17.3137 0-34.6263 0-51.94 0 0-22.8663 0-45.7337 0-68.6-15.0263 0-30.0537 0-45.08 0 .1637 12.0912 0 24.1776-.49 36.26-6.4425 25.236-22.6125 38.3023-48.51 39.2 0-5.2263 0-10.4537 0-15.68 18.3877-.9134 29.3314-10.387 32.83-28.42.49-10.4478.6537-20.9014.49-31.36-7.5137 0-15.0263 0-22.54 0 0-5.2263 0-10.4537 0-15.68 17.3137 0 34.6263 0 51.94 0 0-17.64 0-35.28 0-52.92Z" stroke="#44739e" stroke-width="4" fill="none"/>
</svg>