<svg xmlns="http://www.w3.org/2000/svg" viewBox="0 0 512 512">
	<path d="M246.51 163.21c18.7386-1.0231 28.0486 7.7969 27.93 26.46-3.282 10.9535-10.632 17.1608-22.05 18.62-20.7103-4.8343-26.754-16.9217-18.13-36.26 3.233-4.2944 7.3167-7.2344 12.25-8.82Zm-2.94-15.68c-15.9828 5.0421-25.6192 15.8221-28.91 32.34-.6546 25.971 11.9217 40.671 37.73 44.1 28.467-4.1336 40.717-20.4673 36.75-49-7.8508-21.0053-23.0408-30.1517-45.57-27.44ZM365.09 345.49c-9.0944 3.918-11.5444 10.4507-7.35 19.6 6.86 7.84 13.72 7.84 20.58 0 4.655-12.5656.245-19.0992-13.23-19.6Zm-232.26 0c-10.3018 6.4445-11.2818 14.1208-2.94 23.03 10.632 4.1542 17.1657.5606 19.6-10.78-1.9414-8.8249-7.4941-12.9076-16.66-12.25Zm211.68-94.08c-8.1242 9.9245-16.4542 19.7245-24.99 29.4-.6537 8.4937-.6537 16.9863 0 25.48 18.13-18.13 36.26-36.26 54.39-54.39-9.7941-.49-19.5941-.6527-29.4-.49Zm-25.48 0c-.1568 1.665.0059 3.2987.49 4.9 1.0251-1.5582 2.1687-3.0282 3.43-4.41-1.2671-.4802-2.5745-.6439-3.92-.49Zm-20.58.98c1.912 1.1917 3.382 2.8244 4.41 4.9.4851-1.9335.6488-3.8935.49-5.88-1.8767-.2783-3.5094.048-4.9.98Zm-71.54-.98c-7.8459 10.4272-16.1759 20.5535-24.99 30.38-.49 12.4088-.6537 24.8224-.49 37.24 33.9737 0 67.9463 0 101.92 0 .1637-12.4176 0-24.8312-.49-37.24-8.5142-9.6559-16.8442-19.4559-24.99-29.4-16.9746-.98-33.9609-1.3063-50.96-.98Zm-25.48 0c-.1588 1.9865.0049 3.9465.49 5.88 1.1182-2.0668 2.5882-3.8632 4.41-5.39-1.6013-.4841-3.235-.6468-4.9-.49Zm-19.6.98c1.3573 1.0525 2.5 2.3589 3.43 3.92.4841-1.6013.6468-3.235.49-4.9-1.567-.2626-2.8734.0647-3.92.98Zm-50.96 0c18.2594 17.7694 36.3894 35.7357 54.39 53.9.6537-8.4937.6537-16.9863 0-25.48-8.33-9.6363-16.66-19.2737-24.99-28.91-9.9715-.8085-19.7715-.6448-29.4.49Zm253.82-88.2c-4.5041 2.7058-8.2614 6.2985-11.27 10.78-5.3283 13.9866-1.4083 24.4402 11.76 31.36.8105-14.2159.6478-28.2622-.49-42.14Zm-265.58 0c-.1637 14.0503 0 28.0976.49 42.14 4.1866-2.2285 7.7802-5.1685 10.78-8.82 6.4974-14.6461 2.7411-25.7524-11.27-33.32Zm127.4-.98c-4.9333 1.5856-9.017 4.5256-12.25 8.82-8.624 19.3383-2.5803 31.4257 18.13 36.26 11.418-1.4592 18.768-7.6665 22.05-18.62.1186-18.6631-9.1914-27.4831-27.93-26.46Zm72.52-28.42c0 33.6463 0 67.2937 0 100.94 22.2137 0 44.4263 0 66.64 0 .1627-4.2591-.001-8.5054-.49-12.74-13.8552-4.0533-23.3279-12.8733-28.42-26.46-4.6962-24.5843 4.7775-40.917 28.42-49 .489-4.2346.6527-8.4809.49-12.74-22.2137 0-44.4263 0-66.64 0Zm-117.6 0c0 33.6463 0 67.2937 0 100.94 33.9737 0 67.9463 0 101.92 0 0-33.6463 0-67.2937 0-100.94-33.9737 0-67.9463 0-101.92 0Zm-82.32 0c-.1627 4.2591.001 8.5054.49 12.74 12.7616 3.6142 21.9089 11.4542 27.44 23.52 6.5778 25.7201-2.5686 43.0338-27.44 51.94-.489 4.2346-.6527 8.4809-.49 12.74 22.2137 0 44.4263 0 66.64 0 0-33.6463 0-67.2937 0-100.94-22.2137 0-44.4263 0-66.64 0Zm65.66-19.6c-.7742 1.2681-1.7542 2.4118-2.94 3.43 1.2671.4802 2.5745.6439 3.92.49.2626-1.567-.0647-2.8734-.98-3.92Zm134.26-.98c0 1.6337 0 3.2663 0 4.9 1.3455.1539 2.6529-.0098 3.92-.49-1.5386-1.3691-2.8459-2.8391-3.92-4.41Zm-16.66 0c-1.1025 1.5964-2.4098 3.0664-3.92 4.41 1.6013.4841 3.235.6468 4.9.49.2783-1.8767-.048-3.5094-.98-4.9Zm-100.94 0c0 1.6337 0 3.2663 0 4.9 1.665.1568 3.2987-.0059 4.9-.49-1.5063-1.6729-3.1399-3.1429-4.9-4.41Zm0-61.74c-.1637 12.4177 0 24.8309.49 37.24 8.4456 9.5452 16.7756 19.1815 24.99 28.91 16.9863.6537 33.9737.6537 50.96 0 8.33-9.6363 16.66-19.2734 24.99-28.91.49-12.4091.6537-24.8223.49-37.24-33.9737 0-67.9463 0-101.92 0Zm43.12-36.26c0 6.86 0 13.72 0 20.58 5.2263 0 10.4537 0 15.68 0 0-6.5334 0-13.0666 0-19.6-5.2871.2288-10.5134-.0978-15.68-.98Zm-5.88-14.7c-4.6393 2.1946-7.743 5.7879-9.31 10.78-.49 8.1602-.6527 16.3268-.49 24.5-12.4176-.1633-24.8312.0001-37.24.49-11.5346 9.5722-22.4783 19.8622-32.83 30.87-.8203 1.8136-1.6376 3.6102-2.45 5.39 1.6846 7.0924 5.931 9.379 12.74 6.86 5.39-5.39 10.78-10.78 16.17-16.17.6537 8.82.6537 17.64 0 26.46-7.8204 9.2918-15.8241 18.4387-24.01 27.44-10.1107 1.1427-20.238 1.3054-30.38.49 6.075-5.7467 11.7914-11.7904 17.15-18.13.7458-9.3765-3.3379-12.4799-12.25-9.31-9.9637 9.9637-19.9263 19.9263-29.89 29.89-.8448 1.5553-1.4984 3.1889-1.96 4.9-.6537 39.5263-.6537 79.0537 0 118.58.4616 1.7111 1.1152 3.3447 1.96 4.9 7.5137 7.5137 15.0263 15.0263 22.54 22.54.8163 19.6078.6527 39.2078-.49 58.8-8.0723 2.6832-13.7886 7.9106-17.15 15.68-5.9153 18.5661.1284 31.4698 18.13 38.71 15.387 3.1683 26.657-2.2217 33.81-16.17 5.4831-18.1026-.3969-30.8426-17.64-38.22-.6537-14.0463-.6537-28.0937 0-42.14 14.21 14.21 28.42 28.42 42.63 42.63 4.2248 2.2883 8.7984 3.431 13.72 3.43-.1637 16.3366 0 32.6703.49 49 6.3161 5.7928 11.2161 4.8128 14.7-2.94.49-15.3497.6537-30.7034.49-46.06 14.0463 0 28.0937 0 42.14 0-.1637 27.7683 0 55.5356.49 83.3.7693 1.7503 1.912 3.2203 3.43 4.41 5.1264 1.6895 8.8837.2195 11.27-4.41.49-27.7644.6537-55.5317.49-83.3 4.2463 0 8.4937 0 12.74 0 .3263 44.1049 0 88.2049-.98 132.3-2.2863-1.7963-4.5737-3.5937-6.86-5.39-4.0327-2.7156-7.9527-2.7156-11.76 0-4.7785 7.4343-9.6785 14.7843-14.7 22.05-5.8359-10.8584-12.0422-21.4747-18.62-31.85-1.6043-.589-3.2369-1.079-4.9-1.47-5.1234 2.3432-9.2071 5.9359-12.25 10.78-.3263-16.3337-.6537-32.6663-.98-49-3.4839-7.7528-8.3839-8.7328-14.7-2.94-.6537 22.54-.6537 45.08 0 67.62 2.205 4.4884 5.7987 7.1011 10.78 7.84 6.8747-1.6386 12.101-5.5586 15.68-11.76 5.1489 8.6622 10.0489 17.4822 14.7 26.46 1.3691 1.5386 2.8391 2.8459 4.41 3.92 3.2663 0 6.5337 0 9.8 0 1.321-1.079 2.791-2.059 4.41-2.94 4.2885-6.7806 8.6985-13.477 13.23-20.09 3.3055.6292 6.2455 2.2628 8.82 4.9 8.234 4.3287 14.604 2.5323 19.11-5.39.49-48.3454.6537-96.6927.49-145.04 3.6142-.2754 7.2079-.7654 10.78-1.47 15.4889-14.5079 30.6789-29.3716 45.57-44.59.6537 14.0463.6537 28.0937 0 42.14-4.1229 1.4896-7.8792 3.6123-11.27 6.37-12.3451 15.5271-11.3651 30.2271 2.94 44.1 17.6518 9.1199 31.8618 5.3635 42.63-11.27 5.7771-18.1672.0608-31.2336-17.15-39.2-1.1427-19.5922-1.3063-39.1922-.49-58.8 7.5137-7.5137 15.0263-15.0263 22.54-22.54.8448-1.5553 1.4984-3.1889 1.96-4.9.6537-39.5263.6537-79.0537 0-118.58-.4616-1.7111-1.1152-3.3447-1.96-4.9-9.31-9.31-18.62-18.62-27.93-27.93-8.5877-2.6583-12.6704.445-12.25 9.31 4.704 5.686 9.7677 11.076 15.19 16.17-10.142.8154-20.2693.6527-30.38-.49-7.7724-9.3306-15.776-18.4769-24.01-27.44-.6537-8.82-.6537-17.64 0-26.46 6.4004 6.7278 13.0967 13.0978 20.09 19.11 8.8651.4208 11.9687-3.6626 9.31-12.25-11.3308-11.9869-23.2544-23.2569-35.77-33.81-12.4088-.4899-24.8224-.6533-37.24-.49.1627-8.1732 0-16.3398-.49-24.5-1.567-4.9921-4.6707-8.5854-9.31-10.78-9.1463 0-18.2937 0-27.44 0Z" stroke="#44739e" stroke-width="4" fill="none"/>
</svg>