<svg xmlns="http://www.w3.org/2000/svg" viewBox="0 0 512 512">
	<path d="M154.35-.49c40.18 0 80.36 0 120.54 0 4.116 3.4476 4.9323 7.6943 2.45 12.74-.735.6133-1.5523 1.1033-2.45 1.47-37.8917.49-75.7854.6534-113.68.49 0 9.1466 0 18.2934 0 27.44 59.4537 0 118.9063 0 178.36 0 0-9.1466 0-18.2934 0-27.44-12.7439.1633-25.4839-.0001-38.22-.49-5.1626-4.7328-5.1626-9.4694 0-14.21 15.0263 0 30.0537 0 45.08 0 4.6423 2.0736 7.4186 5.667 8.33 10.78.3263 12.0866.6537 24.1734.98 36.26 13.427 11.7926 25.8397 24.5326 37.24 38.22 11.5062 16.8746 18.3662 35.4946 20.58 55.86.6537 73.1737.6537 146.3463 0 219.52-2.7156 23.8414-11.5356 45.0751-26.46 63.7-10.1557 10.4831-20.6084 20.6094-31.36 30.38-.3263 12.0863-.6537 24.1737-.98 36.26-.9114 5.1127-3.6877 8.7063-8.33 10.78-64.0263 0-128.0537 0-192.08 0-2.9126-2.0982-5.3626-4.7118-7.35-7.84-.3263-12.74-.6537-25.48-.98-38.22-13.7533-12.1187-26.4933-25.186-38.22-39.2-11.5059-16.8746-18.3659-35.4946-20.58-55.86-.6534-73.1737-.6534-146.3463 0-219.52 2.7156-23.8414 11.5356-45.0747 26.46-63.7 10.4821-10.8094 21.2621-21.2628 32.34-31.36.3263-12.74.6537-25.48.98-38.22 1.9874-3.1284 4.4374-5.7417 7.35-7.84Zm2.94 56.84c62.0673-.1634 124.1346 0 186.2.49 8.4643 7.483 16.6306 15.323 24.5 23.52-13.8993 3.7924-27.9457 6.8957-42.14 9.31-10.2243-7.724-21.657-12.7873-34.3-15.19-25.1223-1.5675-50.276-1.8942-75.46-.98-15.2282 1.6443-28.9482 7.0343-41.16 16.17-14.1894-2.4134-28.2358-5.5167-42.14-9.31 8.0634-8.2285 16.2308-16.2317 24.5-24.01Zm58.8 32.34c22.8693-.1633 45.7356 0 68.6.49 22.8918 3.9495 39.7155 16.1994 50.47 36.75 3.1889 7.5284 5.1489 15.3684 5.88 23.52.6537 67.2937.6537 134.5863 0 201.88-3.0596 27.8418-17.5959 46.9518-43.61 57.33-4.1542 1.3847-8.4006 2.3647-12.74 2.94-24.8616.9232-49.688.5968-74.48-.98-26.5061-7.5587-43.0024-24.7087-49.49-51.45-1.1476-13.3623-1.8012-26.756-1.96-40.18-4.6658-5.2058-9.2394-5.2058-13.72 0-.9575 2.1952-1.4475 4.4815-1.47 6.86-13.6298-1.8561-27.0235-4.7961-40.18-8.82-1.3063-14.0463-1.3063-28.0937 0-42.14 13.2251 3.2389 26.6188 5.5252 40.18 6.86-.782 5.1107.5253 9.5207 3.92 13.23 4.409 2.3197 8.1654 1.5023 11.27-2.45.3263-47.6937.6537-95.3863.98-143.08 4.7687-33.3484 23.5514-53.6021 56.35-60.76Zm-95.06 4.9c13.2682 3.7253 26.6619 6.9923 40.18 9.8-9.3806 12.1265-14.9342 25.8465-16.66 41.16-14.0062-1.8689-27.7262-4.9715-41.16-9.31 3.3124-15.0097 9.1924-28.8924 17.64-41.65Zm257.74 0c9.31 12.3803 15.5163 26.264 18.62 41.65-13.375 4.408-27.095 7.5107-41.16 9.31-1.6376-15.2145-7.1912-28.7708-16.66-40.67 13.2633-2.8783 26.3306-6.3084 39.2-10.29ZM220.99 126.91c7.1863 0 14.3737 0 21.56 0 0 5.5537 0 11.1063 0 16.66-7.84 0-15.68 0-23.52 0-.5018-5.7702.1519-11.3239 1.96-16.66Zm37.24 0c8.4995-.1627 16.9932 0 25.48.49.9535 5.2989 1.2809 10.6889.98 16.17-8.82 0-17.64 0-26.46 0 0-5.5537 0-11.1063 0-16.66ZM102.41 152.39c13.5975 3.236 27.3175 5.8486 41.16 7.84 0 14.7 0 29.4 0 44.1-13.5573-1.3338-26.95-3.6201-40.18-6.86-.979-15.0126-1.3063-30.039-.98-45.08Zm292.04 0c1.3063 0 2.6137 0 3.92 0 .3263 15.041-.001 30.0674-.98 45.08-13.1957 3.4231-26.5894 5.7095-40.18 6.86 0-14.7 0-29.4 0-44.1 12.7596-1.5053 25.1733-4.1189 37.24-7.84Zm-160.72 29.4c2.2863 0 4.5737 0 6.86 0 0 1.6337 0 3.2663 0 4.9-2.2863 0-4.5737 0-6.86 0 0-1.6337 0-3.2663 0-4.9ZM102.41 214.13c13.5975 2.2305 27.1538 4.5168 40.67 6.86.49 15.0234.6537 30.0497.49 45.08-13.8062-1.7816-27.5262-4.068-41.16-6.86 0-15.0263 0-30.0537 0-45.08Zm291.06 0c1.6337 0 3.2663 0 4.9 0 0 15.0263 0 30.0537 0 45.08-13.6102 2.9214-27.3302 5.2087-41.16 6.86-.1637-15.0303 0-30.0566.49-45.08 12.103-1.8248 24.0267-4.1111 35.77-6.86Zm-191.1 11.76c13.3937 0 26.7863 0 40.18 0 0 2.94 0 5.88 0 8.82-13.3937 0-26.7863 0-40.18 0 0-2.94 0-5.88 0-8.82Zm55.86 0c13.3937 0 26.7863 0 40.18 0 0 2.94 0 5.88 0 8.82-13.3937 0-26.7863 0-40.18 0 0-2.94 0-5.88 0-8.82Zm-55.86 24.5c13.3937 0 26.7863 0 40.18 0 0 2.6137 0 5.2263 0 7.84-13.3937 0-26.7863 0-40.18 0 0-2.6137 0-5.2263 0-7.84Zm55.86 0c13.3937 0 26.7863 0 40.18 0 0 2.6137 0 5.2263 0 7.84-13.3937 0-26.7863 0-40.18 0 0-2.6137 0-5.2263 0-7.84Zm139.16 24.5c1.2995 13.8886 1.2995 27.9359 0 42.14-13.1496 4.067-26.5433 7.007-40.18 8.82 0-14.7 0-29.4 0-44.1 13.7053-1.176 27.098-3.4633 40.18-6.86ZM205.31 297.43c5.2371-.1627 10.4635.001 15.68.49 2.5725 2.1521 3.5525 4.9294 2.94 8.33-7.1863 0-14.3737 0-21.56 0-.5645-3.5398.4155-6.4798 2.94-8.82Zm74.48 0c5.2371-.1627 10.4635.001 15.68.49 2.5725 2.1521 3.5525 4.9294 2.94 8.33-7.1863 0-14.3737 0-21.56 0-.5645-3.5398.4155-6.4798 2.94-8.82Zm-77.42 24.5c7.1863 0 14.3737 0 21.56 0 .3156 2.1776-.3381 3.9749-1.96 5.39-6.5248.49-13.0585.6527-19.6.49 0-1.96 0-3.92 0-5.88Zm74.48 0c7.1863 0 14.3737 0 21.56 0 0 1.96 0 3.92 0 5.88-6.5415.1627-13.0752 0-19.6-.49-1.6219-1.4151-2.2756-3.2124-1.96-5.39ZM102.41 333.69c13.5387 3.1321 27.095 6.0721 40.67 8.82.2744 16.7766 4.1944 32.4566 11.76 47.04-8.9435-1.7885-17.9262-3.5848-26.95-5.39-7.2657-1.4475-14.2884-3.5701-21.07-6.37-3.9239-14.4344-5.3939-29.1344-4.41-44.1Zm293.02 0c.98 0 1.96 0 2.94 0 .9839 14.9656-.4861 29.6656-4.41 44.1-6.7365 2.791-13.7602 4.9137-21.07 6.37-9.0238 1.8052-18.0065 3.6015-26.95 5.39 7.5656-14.5834 11.4856-30.2634 11.76-47.04 12.7939-2.3922 25.3702-5.3322 37.73-8.82ZM115.15 398.37c.2303-.5851.7203-.9114 1.47-.98 17.9801 4.2218 36.1101 7.6518 54.39 10.29 10.7937 9.3169 23.2064 15.5232 37.24 18.62 14.013 1.08 28.0603 1.57 42.14 1.47 14.0797.1 28.127-.39 42.14-1.47 14.0336-3.0968 26.4463-9.3031 37.24-18.62 18.7797-2.7479 37.3997-6.0152 55.86-9.8-11.9335 17.1657-25.9808 32.5193-42.14 46.06-62.0663.6537-124.1337.6537-186.2 0-16.0504-13.5906-30.0978-28.7806-42.14-45.57Zm46.06 60.76c59.4537 0 118.9063 0 178.36 0 0 9.1463 0 18.2937 0 27.44-59.4537 0-118.9063 0-178.36 0 0-9.1463 0-18.2937 0-27.44Zm56.84-347.9c22.8693-.1637 45.7356 0 68.6.49 6.6023 1.7013 11.0123 5.7849 13.23 12.25.3263 8.4937.6537 16.9863.98 25.48 4.2463 11.4337 8.4937 22.8663 12.74 34.3 1.5896 9.1042-2.1668 12.5342-11.27 10.29-.8163-.8163-1.6337-1.6337-2.45-2.45-3.8112-10.5624-7.8949-21.0161-12.25-31.36-23.8463-1.3063-47.6937-1.3063-71.54 0-4.9902 11.7796-10.8702 23.0496-17.64 33.81-9.1032 2.2442-12.8596-1.1858-11.27-10.29 5.2861-11.5532 10.8398-22.9869 16.66-34.3.0774-9.5452.7301-19.0189 1.96-28.42 2.8293-4.9647 6.9129-8.231 12.25-9.8Zm2.94 15.68c-1.8081 5.3361-2.4618 10.8898-1.96 16.66 7.84 0 15.68 0 23.52 0 0-5.5537 0-11.1063 0-16.66-7.1863 0-14.3737 0-21.56 0Zm37.24 0c0 5.5537 0 11.1063 0 16.66 8.82 0 17.64 0 26.46 0 .3009-5.4811-.0265-10.8711-.98-16.17-8.4868-.49-16.9805-.6527-25.48-.49Zm-24.5 54.88c0 1.6337 0 3.2663 0 4.9 2.2863 0 4.5737 0 6.86 0 0-1.6337 0-3.2663 0-4.9-2.2863 0-4.5737 0-6.86 0Zm-6.86-15.68c6.8678-.1627 13.7278 0 20.58.49 4.7363.8163 7.5137 3.5937 8.33 8.33.6537 6.5337.6537 13.0663 0 19.6-.6762 2.6421-2.1462 4.7657-4.41 6.37-9.0474 1.5788-18.1937 1.9061-27.44.98-1.7503-.7693-3.2203-1.912-4.41-3.43-1.5749-8.3927-1.9012-16.8854-.98-25.48 1.8287-3.6417 4.605-5.929 8.33-6.86Zm6.86 15.68c0 1.6337 0 3.2663 0 4.9 2.2863 0 4.5737 0 6.86 0 0-1.6337 0-3.2663 0-4.9-2.2863 0-4.5737 0-6.86 0Zm40.18-15.68c3.8543-.0872 6.6307 1.5464 8.33 4.9.6537 9.1463.6537 18.2937 0 27.44-1.1437 1.1437-2.2863 2.2863-3.43 3.43-4.5737.6537-9.1463.6537-13.72 0-1.7963-.49-2.94-1.6337-3.43-3.43-1.7875-5.4459-.1539-9.3659 4.9-11.76.3263-4.9.6537-9.8.98-14.7 1.4073-2.8832 3.5309-4.8432 6.37-5.88Zm-75.46 44.1c35.6671-.4714 71.2734.0186 106.82 1.47 3.8102 2.1776 6.5866 5.2802 8.33 9.31.6537 14.0463.6537 28.0937 0 42.14-2.2109 5.1519-5.9682 8.5819-11.27 10.29-35.6651.9614-71.2725.6341-106.82-.98-3.8102-2.1776-6.5866-5.2802-8.33-9.31-.6537-14.0463-.6537-28.0937 0-42.14 2.3883-5.1685 6.1456-8.7612 11.27-10.78Zm3.92 15.68c0 2.94 0 5.88 0 8.82 13.3937 0 26.7863 0 40.18 0 0-2.94 0-5.88 0-8.82-13.3937 0-26.7863 0-40.18 0Zm55.86 0c0 2.94 0 5.88 0 8.82 13.3937 0 26.7863 0 40.18 0 0-2.94 0-5.88 0-8.82-13.3937 0-26.7863 0-40.18 0Zm-55.86 24.5c0 2.6137 0 5.2263 0 7.84 13.3937 0 26.7863 0 40.18 0 0-2.6137 0-5.2263 0-7.84-13.3937 0-26.7863 0-40.18 0Zm55.86 0c0 2.6137 0 5.2263 0 7.84 13.3937 0 26.7863 0 40.18 0 0-2.6137 0-5.2263 0-7.84-13.3937 0-26.7863 0-40.18 0Zm-54.88 31.36c6.5415-.1627 13.0752 0 19.6.49 14.6794 4.8441 20.2331 14.9705 16.66 30.38-.1637 5.39-.3263 10.78-.49 16.17-2.1237 7.35-6.86 12.0863-14.21 14.21-7.5058.49-15.0195.6527-22.54.49.441 14.4442-.049 28.8169-1.47 43.12-4.9323 4.1934-9.506 3.8671-13.72-.98-.6537-29.7263-.6537-59.4537 0-89.18 3.1419-7.5597 8.5319-12.4597 16.17-14.7Zm1.96 15.68c-2.5245 2.3402-3.5045 5.2802-2.94 8.82 7.1863 0 14.3737 0 21.56 0 .6125-3.4006-.3675-6.1779-2.94-8.33-5.2165-.489-10.4429-.6527-15.68-.49Zm-2.94 24.5c0 1.96 0 3.92 0 5.88 6.5415.1627 13.0752 0 19.6-.49 1.6219-1.4151 2.2756-3.2124 1.96-5.39-7.1863 0-14.3737 0-21.56 0Zm75.46-40.18c7.9096-.3557 15.7496.1343 23.52 1.47 4.6883 2.401 8.4447 5.831 11.27 10.29 1.6052 24.4383 1.9316 48.9383.98 73.5-8.0879 20.7799-22.6243 27.1499-43.61 19.11-14.4511-9.997-18.0447-22.737-10.78-38.22 3.9249-1.076 7.3549-.2597 10.29 2.45 1.1907 4.46 1.8434 9.0336 1.96 13.72 4.5766 9.5589 11.5993 12.0089 21.07 7.35 2.5539-1.8992 4.3502-4.3492 5.39-7.35.49-6.8522.6527-13.7122.49-20.58-7.5205.1627-15.0342 0-22.54-.49-6.2142-1.6415-10.6242-5.3978-13.23-11.27-1.5719-11.6904-1.8983-23.4504-.98-35.28 3.1184-7.5333 8.5084-12.4333 16.17-14.7Zm1.96 15.68c-2.5245 2.3402-3.5045 5.2802-2.94 8.82 7.1863 0 14.3737 0 21.56 0 .6125-3.4006-.3675-6.1779-2.94-8.33-5.2165-.489-10.4429-.6527-15.68-.49Zm-2.94 24.5c-.3156 2.1776.3381 3.9749 1.96 5.39 6.5248.49 13.0585.6527 19.6.49 0-1.96 0-3.92 0-5.88-7.1863 0-14.3737 0-21.56 0Z" stroke="#44739e" stroke-width="4" fill="none"/>
</svg>