<svg xmlns="http://www.w3.org/2000/svg" viewBox="0 0 512 512">
	<path d="M347.45 407.23c0 6.5337 0 13.0663 0 19.6 38.5463 0 77.0937 0 115.64 0 0-6.5337 0-13.0663 0-19.6-38.5463 0-77.0937 0-115.64 0Zm-24.5-55.86c0 13.3937 0 26.7863 0 40.18 54.881.1637 109.761 0 164.64-.49.6448-6.4572.9712-12.9909.98-19.6-.0088-6.6091-.3352-13.1428-.98-19.6-54.879-.49-109.759-.6537-164.64-.49Zm180.32-4.9c-2.4931-4.9363-6.4131-8.3663-11.76-10.29-58.5295-.9682-117.0032-.6419-175.42.98-3.8102 2.1776-6.5866 5.2802-8.33 9.31-.6537 16.66-.6537 33.32 0 49.98 5.192 9.3708 13.1957 12.9644 24.01 10.78 0 6.5337 0 13.0663 0 19.6-18.2094-2.8577-26.3767 4.8187-24.5 23.03-1.7464 18.0163 6.42 26.019 24.5 24.01-.1627 8.1732 0 16.3395.49 24.5.9771 1.7865 2.1207 3.4202 3.43 4.9 2.6137 0 5.2263 0 7.84 0 1.3093-1.4798 2.4529-3.1135 3.43-4.9.49-8.1605.6527-16.3268.49-24.5 5.9986.4018 11.8786-.0882 17.64-1.47 3.5496-3.922 3.8769-8.1683.98-12.74-14.2786-1.4377-28.6513-1.9277-43.12-1.47 0-5.2263 0-10.4537 0-15.68 54.88 0 109.76 0 164.64 0 0 5.2263 0 10.4537 0 15.68-32.7516-.4763-65.4189.0137-98 1.47-4.1189 5.6203-3.1389 10.194 2.94 13.72 23.518.49 47.038.6537 70.56.49-.1627 8.1732 0 16.3395.49 24.5.9771 1.7865 2.1207 3.4202 3.43 4.9 2.6137 0 5.2263 0 7.84 0 1.3093-1.4798 2.4529-3.1135 3.43-4.9.49-8.1605.6527-16.3268.49-24.5 11.32 2.0139 19.4863-1.9061 24.5-11.76 0-7.84 0-15.68 0-23.52-4.6442-10.6144-12.8106-14.5344-24.5-11.76 0-6.5337 0-13.0663 0-19.6 10.9378 2.1178 19.1041-1.4759 24.5-10.78 0-16.66 0-33.32 0-49.98ZM342.55 106.37c4.7334.1205 8.9797 1.5905 12.74 4.41 2.696 4.7403 5.636 9.3129 8.82 13.72 4.4521 2.791 9.1895 3.6084 14.21 2.45 13.5446 3.2477 18.1173 11.4141 13.72 24.5-2.6333 3.6201-6.0633 6.0701-10.29 7.35-5.634.145-11.1867.7977-16.66 1.96-3.92 4.9-7.84 9.8-11.76 14.7-10.8143 5.1215-18.817 2.3451-24.01-8.33-.6537-3.2663-.6537-6.5337 0-9.8 3.3398-4.556 5.4625-9.6187 6.37-15.19-.1284-2.2079-.6184-4.3306-1.47-6.37-7.2834-8.8915-7.1207-17.5479.49-25.97 2.6048-1.4484 5.2185-2.5921 7.84-3.43Zm-2.94-15.68c-13.4956 2.8749-22.1519 11.0417-25.97 24.5-2.1717 10.0852-.048 19.0688 6.37 26.95-3.5574 3.6868-5.6811 8.0968-6.37 13.23-2.2177 22.7772 8.0723 35.5172 30.87 38.22 12.8174-.6831 22.2911-6.5631 28.42-17.64 21.8197-.4302 34.2334-11.3729 37.24-32.83-2.7381-21.5355-14.8254-31.8255-36.26-30.87-.2499-2.4657-1.0672-4.753-2.45-6.86-7.9047-10.5648-18.521-15.4648-31.85-14.7ZM149.49 251.41c-4.1875 2.0933-8.4339 4.2169-12.74 6.37 14.1071 11.8766 29.9508 20.8603 47.53 26.95 1.3906-9.752 2.2079-19.552 2.45-29.4-5.539.786-11.0916.9496-16.66.49-6.8923-1.4965-13.7523-2.9665-20.58-4.41Zm71.54-106.82c-5.3635 1.3112-9.1199 4.5776-11.27 9.8-1.0594 6.5052-1.8767 13.0379-2.45 19.6 18.4407 20.1478 20.237 41.7078 5.39 64.68-3.9171 3.2467-7.0197 7.0031-9.31 11.27-1.2613 16.1925-2.7313 32.3625-4.41 48.51-1.8326 2.4676-4.2826 3.775-7.35 3.92-23.6964-5.1528-44.9301-15.2802-63.7-30.38-1.1593 3.97-2.793 7.7273-4.9 11.27 4.5403 5.5223 9.4403 10.7486 14.7 15.68 16.8687 13.8327 35.4887 24.94 55.86 33.32 1.4896 1.8473 2.4696 3.97 2.94 6.37-4.4512 49.9869-11.3112 99.6395-20.58 148.96 32.0146.1637 64.0283 0 96.04-.49-8.9719-43.8374-15.3419-88.101-19.11-132.79-5.8751-66.248-10.7751-132.5607-14.7-198.94-3.1331-7.692-8.8504-11.2857-17.15-10.78Zm121.52-38.22c-2.6215.8379-5.2352 1.9816-7.84 3.43-7.6107 8.4221-7.7734 17.0785-.49 25.97.8516 2.0394 1.3416 4.1621 1.47 6.37-.9075 5.5713-3.0302 10.634-6.37 15.19-.6537 3.2663-.6537 6.5337 0 9.8 5.193 10.6751 13.1957 13.4515 24.01 8.33 3.92-4.9 7.84-9.8 11.76-14.7 5.4733-1.1623 11.026-1.815 16.66-1.96 4.2267-1.2799 7.6567-3.7299 10.29-7.35 4.3973-13.0859-.1754-21.2523-13.72-24.5-5.0205 1.1584-9.7579.341-14.21-2.45-3.184-4.4071-6.124-8.9797-8.82-13.72-3.7603-2.8195-8.0066-4.2895-12.74-4.41ZM212.21 17.19c-8.3055 2.5679-14.8392 7.6312-19.6 15.19-2.3402 1.8233-4.9529 3.13-7.84 3.92-46.1404-7.1475-79.7877 9.8391-100.94 50.96-6.9198 4.1987-14.4331 6.8121-22.54 7.84-7.8707 3.4659-12.1173 9.5089-12.74 18.13 1.9289 6.2798 3.5623 12.6498 4.9 19.11-.5677 3.4927-1.3844 6.9227-2.45 10.29-3.0328 4.0072-5.6462 8.2545-7.84 12.74-2.5441 12.2284 1.8659 20.7221 13.23 25.48 3.3357-5.0303 6.439-10.2567 9.31-15.68 7.0489-8.429 12.7656-7.7753 17.15 1.96-5.16 8.0311-9.57 16.5248-13.23 25.48-6.316 2.5215-12.686 4.9715-19.11 7.35-9.3844 6.5131-14.611 15.4967-15.68 26.95 1.5324 5.4615 2.0224 11.0152 1.47 16.66-5.4292 2.8077-10.3292 6.4014-14.7 10.78-5.8752 9.8372-5.8752 19.6372 0 29.4 12.1341 12.4823 24.7108 12.9723 37.73 1.47 5.5278-3.036 11.4078-4.016 17.64-2.94 13.0855 6.4631 24.0286 4.0131 32.83-7.35 2.0502-6.4131 3.6838-12.9468 4.9-19.6 1.8836-3.2761 4.3336-6.0535 7.35-8.33 8.2771-4.1395 16.7707-7.7332 25.48-10.78 3.2663-.6537 6.5337-.6537 9.8 0 5.7928 2.4657 11.8355 3.9357 18.13 4.41 22.4538-2.8606 32.5811-15.6006 30.38-38.22-5.5439-18.2104-17.7939-26.213-36.75-24.01-5.2861 2.9674-10.5125 2.9674-15.68 0-13.1222-17.9869-30.7622-25.1733-52.92-21.56-5.9311-4.1385-6.2578-8.7112-.98-13.72 24.5706-5.8555 45.1506.6782 61.74 19.6 7.4901-.4204 15.0028-.4204 22.54 0 2.8714.5939 5.6477 1.4112 8.33 2.45-.7448-14.4893 4.9715-25.433 17.15-32.83 21.364-7.5274 36.2277-.8301 44.59 20.09 2.0453 28.7316 3.8426 57.478 5.39 86.24 4.6521-1.5063 9.2247-3.3026 13.72-5.39 5.6223-.7732 11.1749-.4469 16.66.98 5.4468 2.6284 11.1632 4.4247 17.15 5.39 6.5631-1.077 12.2794-3.8534 17.15-8.33 5.4674-2.5901 11.0211-2.9165 16.66-.98 4.9 2.2863 9.8 4.5737 14.7 6.86 18.9718 5.2655 34.4891.2029 46.55-15.19 5.0754-9.7147 9.4854-19.6784 13.23-29.89 1.7395-1.4102 3.6995-2.3902 5.88-2.94 20.7133.1725 35.2496-9.1375 43.61-27.93 6.7483-27.8271-3.2154-46.9371-29.89-57.33-5.4674-3.2565-8.8974-7.9931-10.29-14.21.8869-16.7482-6.9531-25.2416-23.52-25.48-29.1138 2.3047-58.0238.8347-86.73-4.41-27.2567-5.6245-51.1041-17.7111-71.54-36.26-9.357-5.6869-19.4844-7.8102-30.38-6.37ZM210.25 1.51c-7.8802 1.8187-15.0675 5.2487-21.56 10.29-2.3059 3.2817-4.9196 6.2217-7.84 8.82-48.4581-5.9892-84.3909 12.1408-107.8 54.39-5.473 1.6768-11.0264 3.1468-16.66 4.41-22.2535 11.8955-28.4603 29.5352-18.62 52.92-2.7609 4.7265-5.5376 9.4639-8.33 14.21-5.7785 16.2327-2.6751 30.4427 9.31 42.63-3.3953 2.4137-6.4986 5.1901-9.31 8.33-7.8735 11.2426-11.1401 23.6562-9.8 37.24-8.9873 6.516-15.0306 15.0097-18.13 25.48 0 5.88 0 11.76 0 17.64 8.0824 23.9786 24.7424 33.9413 49.98 29.89 7.1797-2.6352 13.8763-6.0652 20.09-10.29 3.8039 1.0045 7.5605 2.1482 11.27 3.43 10.2376 1.8787 19.7107.0823 28.42-5.39 19.5794 20.3889 42.2821 36.3952 68.11 48.02-3.6897 50.9081-10.7124 101.3781-21.07 151.41-.3587 3.6887.9477 6.4651 3.92 8.33 41.16 0 82.32 0 123.48 0 2.3373-2.06 3.6436-4.6736 3.92-7.84-3.0909-13.6573-5.8673-27.3773-8.33-41.16-9.5462-65.7384-16.5698-131.7247-21.07-197.96 6.321-3.1615 12.8547-5.7742 19.6-7.84 5.6899 1.2975 11.2435 3.0939 16.66 5.39 4.8432 1.3014 9.7432 1.6278 14.7.98 8.2506-1.8385 15.7633-5.2685 22.54-10.29 4.216 2.108 8.4633 4.2316 12.74 6.37 41.9126 10.733 68.3726-4.7844 79.38-46.55 23.1084-1.3985 40.2584-12.1785 51.45-32.34 13.3603-38.9325 1.274-66.6988-36.26-83.3-1.8483-5.7385-3.1546-11.6185-3.92-17.64-6.5307-15.7747-18.4544-23.288-35.77-22.54-17.3029 1.0597-34.6165 1.223-51.94.49-38.7933-2.2492-72.767-15.9692-101.92-41.16-6.0838-2.8437-12.2902-4.9671-18.62-6.37-6.2063 0-12.4137 0-18.62 0Z" stroke="#44739e" stroke-width="4" fill="none"/>
</svg>