<svg xmlns="http://www.w3.org/2000/svg" viewBox="0 0 512 512">
	<path d="M503.27 228.87c0 6.2063 0 12.4137 0 18.62-5.2665 17.5293-16.3738 30.1056-33.32 37.73-28.7365 12.4117-58.7902 18.2917-90.16 17.64 23.2005 14.6324 43.2905 32.7624 60.27 54.39 10.6712 14.3639 14.9185 30.3702 12.74 48.02-5.7457 18.8297-18.3231 30.4261-37.73 34.79-9.7843 1.5984-19.5843 1.9257-29.4.98-2.5362 23.7268-14.6226 40.3868-36.26 49.98-15.5702 4.9118-29.9439 2.6244-43.12-6.86-18.6053-15.8005-32.8153-34.9105-42.63-57.33-4.3179-10.3449-8.2379-20.7985-11.76-31.36-8.2144 33.27-24.3844 61.8527-48.51 85.75-23.0231 17.983-45.4005 17.1667-67.13-2.45-9.2051-11.0965-14.9215-23.8365-17.15-38.22-22.8081 5.0813-42.2448-.7987-58.31-17.64-10.8511-15.8182-12.1579-32.4782-3.92-49.98 8.3059-16.4797 19.2493-31.016 32.83-43.61 10.8741-9.5697 22.3077-18.3897 34.3-26.46-30.1631.5811-59.2364-4.6452-87.22-15.68-17.8379-7.5401-29.5979-20.4438-35.28-38.71 0-6.86 0-13.72 0-20.58 6.0473-18.6288 18.134-31.8588 36.26-39.69-13.5042-22.0637-13.0142-43.7874 1.47-65.17 9.9605-10.4566 22.2105-15.6829 36.75-15.68 22.3105 1.7199 43.217 8.0899 62.72 19.11 11.5346 6.5003 22.4783 13.8503 32.83 22.05-3.8553-12.1491-7.1217-24.5617-9.8-37.24-4.3924-20.6382-4.3924-41.2182 0-61.74 7.89-5.3945 12.6263-3.4345 14.21 5.88-3.9661 34.028 1.0976 66.6949 15.19 98 4.8882 11.0838 10.2782 21.8638 16.17 32.34-2.2462 7.1667-6.8198 9.2904-13.72 6.37-27.0029-32.2841-60.6493-54.4978-100.94-66.64-9.086-2.6568-18.2327-2.9831-27.44-.98-14.0353 5.5723-21.2219 16.025-21.56 31.36 1.1053 12.8243 5.8421 24.0943 14.21 33.81 1.1776 4.2071.0342 7.6371-3.43 10.29-21.7717 4.4561-34.5117 17.5224-38.22 39.2 1.1481 9.8108 5.3947 17.9771 12.74 24.5 21.9078 13.4035 45.7544 20.9171 71.54 22.54 22.9986 1.7983 45.7023.001 68.11-5.39 5.8143 1.8248 8.1007 5.7448 6.86 11.76-1.1437 1.1437-2.2863 2.2863-3.43 3.43-29.7381 12.448-56.0354 29.9243-78.89 52.43-9.7848 10.4115-17.6248 22.1715-23.52 35.28-5.694 17.5469-.304 30.4506 16.17 38.71 13.0456 5.8751 26.1121 5.8751 39.2 0 4.8294-1.6101 8.2594-.1401 10.29 4.41-1.5974 19.8234 5.4263 35.6661 21.07 47.53 13.6269 6.3318 26.0396 4.3718 37.24-5.88 18.5945-18.716 31.8245-40.766 39.69-66.15 5.784-18.5612 9.704-37.5075 11.76-56.84 4.5737-3.92 9.1463-3.92 13.72 0 3.1429 29.8871 11.3092 58.3071 24.5 85.26 7.7106 14.5844 17.6733 27.487 29.89 38.71 21.3326 13.7367 38.4826 9.653 51.45-12.25 4.2238-10.0136 6.1838-20.4663 5.88-31.36.4557-1.4024 1.273-2.5451 2.45-3.43 2.94-.6537 5.88-.6537 8.82 0 20.3673 7.496 37.8437 3.4124 52.43-12.25 5.5125-9.2786 5.8388-18.7513.98-28.42-7.5538-15.58-17.8438-29.1374-30.87-40.67-21.6051-18.9787-45.7787-34.006-72.52-45.08-3.674-3.1723-4.4904-6.9286-2.45-11.27 1.5876-2.1815 3.7103-3.4888 6.37-3.92 41.5628 9.5305 82.3955 7.0805 122.5-7.35 11.4386-4.9127 20.4222-12.5901 26.95-23.03 5.4557-17.6057.7193-31.8157-14.21-42.63-7.1501-4.0641-14.6637-7.3304-22.54-9.8-1.8551-2.8587-2.3451-5.9623-1.47-9.31 12.0736-13.3417 15.9936-28.6944 11.76-46.06-5.538-13.8053-15.828-20.6653-30.87-20.58-17.7674 1.9482-34.4274 7.3382-49.98 16.17-25.0282 14.0052-46.9146 31.9715-65.66 53.9-6.9002 2.9204-11.4738.7967-13.72-6.37 22.1039-37.1273 32.7202-77.3073 31.85-120.54-1.0388-14.3327-7.0825-25.9293-18.13-34.79-14.2874-6.1687-27.6811-4.5353-40.18 4.9-5.9261 5.272-11.1524 11.152-15.68 17.64-1.569.2679-3.039.7579-4.41 1.47-1.371-.7121-2.841-1.2021-4.41-1.47-8.7837-15.8001-22.1774-24.7833-40.18-26.95-4.706.6208-9.2786 1.7641-13.72 3.43-3.6133 2.317-7.2069 4.6036-10.78 6.86-7.5215.6433-10.6242-2.7867-9.31-10.29 4.7236-6.6671 11.0936-11.0771 19.11-13.23 23.471-4.9715 43.3983 1.3985 59.78 19.11 19.7254-21.4873 42.9191-26.224 69.58-14.21 10.8839 7.6234 17.9066 17.9134 21.07 30.87 4.1503 19.5316 4.4766 39.1316.98 58.8-2.5 14.0062-5.7673 27.7262-9.8 41.16 27.342-23.6298 59.0283-37.6771 95.06-42.14 22.8595.6615 37.8858 11.7678 45.08 33.32 3.8808 16.9197 1.4308 32.7634-7.35 47.53 18.9973 8.0419 31.0836 21.9255 36.26 41.65ZM251.41 126.95c3.6466.2773 6.4229 1.911 8.33 4.9.6537 19.6.6537 39.2 0 58.8-4.4443 7.401-9.3443 7.7273-14.7.98-.6537-19.9263-.6537-39.8537 0-59.78 1.2466-2.9322 3.3692-4.5658 6.37-4.9Zm23.52 71.54c21.0122.5988 30.3222 11.3788 27.93 32.34-1.1985 4.0327-3.1585 7.6264-5.88 10.78-.6537 1.6337-.6537 3.2663 0 4.9 20.1047 7.399 25.6584 20.7917 16.66 40.18-9.1316 9.7363-20.0753 12.5136-32.83 8.33-1.5004 3.5731-2.6431 7.3294-3.43 11.27-4.9323 4.1934-9.506 3.8671-13.72-.98-2.06-9.1728.39-16.8491 7.35-23.03 3.6054-2.2364 7.5254-3.38 11.76-3.43 4.5452 1.0319 9.1189 1.5219 13.72 1.47 7.4274-5.0637 7.7538-10.6163.98-16.66-13.4515-3.5329-18.8415-12.1892-16.17-25.97 1.1495-3.7603 3.1095-7.0276 5.88-9.8 1.1927-11.563-3.5447-15.3194-14.21-11.27-7.5009 12.7361-17.9546 16.0024-31.36 9.8-3.1634-4.0572-6.7571-7.6499-10.78-10.78-6.663-1.0261-10.9094 1.7503-12.74 8.33.6409 1.5827 1.1309 3.2164 1.47 4.9 6.2014 6.2044 7.9988 13.5544 5.39 22.05-.982 3.5976-2.942 6.5376-5.88 8.82-4.999 2.3059-9.899 4.7559-14.7 7.35-4.2748 8.0664-1.9884 12.9664 6.86 14.7 3.3869-.3116 6.6532-1.129 9.8-2.45 12.2226-1.1809 19.8989 4.2091 23.03 16.17-1.8032 11.2563 2.9341 17.2999 14.21 18.13 3.92 4.2463 3.92 8.4937 0 12.74-14.0189 2.6734-23.6552-2.7166-28.91-16.17-.3263-3.92-.6537-7.84-.98-11.76-.4557-1.4024-1.273-2.5451-2.45-3.43-2.2765.2999-4.5629.9526-6.86 1.96-15.5114 3.0645-26.1288-2.6529-31.85-17.15-2.3373-10.6252.439-19.6078 8.33-26.95 4.6824-2.3197 9.4198-4.4433 14.21-6.37.6537-1.3063.6537-2.6137 0-3.92-9.8813-12.3999-9.7177-24.6499.49-36.75 10.3076-7.6773 21.0876-8.33 32.34-1.96 3.4947 3.4947 6.9247 6.9247 10.29 10.29 3.7446-3.0419 7.1746-6.4719 10.29-10.29 3.7083-2.4784 7.6283-4.2748 11.76-5.39Zm94.08 13.72c8.0321.0284 11.1357 3.9484 9.31 11.76-.8163 1.47-1.96 2.6137-3.43 3.43-17.0481 5.3557-34.0344 10.9094-50.96 16.66-8.4897.98-11.9197-2.7763-10.29-11.27 1.1437-1.1437 2.2863-2.2863 3.43-3.43 17.5165-5.4586 34.8302-11.1749 51.94-17.15Zm-237.16 1.96c20.1949 4.7638 39.9575 10.9711 59.29 18.62 3.8357 7.2647 1.7121 11.8374-6.37 13.72-17.7311-5.4204-35.3711-11.1367-52.92-17.15-5.0852-2.8547-6.2289-6.9384-3.43-12.25 1.1221-1.1133 2.2658-2.0933 3.43-2.94Zm119.56 23.52c7.547-.1352 10.6497 3.4584 9.31 10.78-2.4902 4.4776-6.2475 5.9476-11.27 4.41-5.6536-6.076-5-11.1397 1.96-15.19Zm-10.78 22.54c9.409 2.6362 11.0426 7.6999 4.9 15.19-9.8676 1.2426-13.2976-2.84-10.29-12.25 1.8385-1.0868 3.6348-2.0668 5.39-2.94Zm23.52 0c6.8855 1.0349 9.6618 4.9549 8.33 11.76-2.8959 3.7015-6.6522 4.8441-11.27 3.43-5.732-6.4553-4.752-11.5189 2.94-15.19Zm27.44 49c2.9576-.1617 5.8976.002 8.82.49 10.9437 14.8637 21.8863 29.7263 32.83 44.59 3.4996 10.1989.0696 14.2815-10.29 12.25-12.7498-16.0504-24.5098-32.7104-35.28-49.98.5155-2.9037 1.8218-5.3537 3.92-7.35Zm-83.3.98c9.8608-.7664 13.2908 3.481 10.29 12.74-10.4537 14.3737-20.9063 28.7463-31.36 43.12-3.9543 3.6446-8.038 3.8073-12.25.49-2.3745-3.3114-2.5382-6.7414-.49-10.29 10.8006-15.731 22.0706-31.0836 33.81-46.06Z" stroke="#44739e" stroke-width="4" fill="none"/>
</svg>