<svg xmlns="http://www.w3.org/2000/svg" viewBox="0 0 512 512">
	<path d="M503.27 210.25c0 2.6137 0 5.2263 0 7.84-14.5305 36.8696-38.3768 66.2696-71.54 88.2 3.9033 6.6581 6.8433 13.6818 8.82 21.07-.5949 6.6718-4.1875 9.2845-10.78 7.84-1.4024-.4557-2.5451-1.273-3.43-2.45-21.9373-56.7185-63.261-82.8521-123.97-78.4-1.1368 3.8798-1.3005 7.7998-.49 11.76 17.9438 9.2777 33.4611 21.6913 46.55 37.24 16.3317-4.7403 28.2554.4871 35.77 15.68 4.7187 16.1945-.345 28.1182-15.19 35.77-17.4803 4.9725-29.7303-.7438-36.75-17.15-2.6235-8.5603-1.4808-16.564 3.43-24.01-10.9446-13.918-24.3373-24.3716-40.18-31.36-1.9071 3.8034-4.5198 7.0697-7.84 9.8 23.9394 46.7901 21.6531 92.1964-6.86 136.22 21.0161 16.5434 44.8634 26.997 71.54 31.36 6.4994 1.1388 13.033 1.9561 19.6 2.45 1.4729-17.0157 3.2693-34.0021 5.39-50.96.7693-1.7503 1.912-3.2203 3.43-4.41 17.9899.099 35.9562.9163 53.9 2.45 1.4749-15.7123 1.1476-31.3923-.98-47.04.9692-8.0007 5.2165-10.4507 12.74-7.35 2.3236 2.6205 3.4663 5.7242 3.43 9.31 1.422 13.3652 1.7483 26.7589.98 40.18-.2097 6.0348-1.1897 11.9148-2.94 17.64-1.7081 2.3236-3.9955 3.6309-6.86 3.92-16.4846-1.469-32.9809-2.7754-49.49-3.92-1.4729 17.0157-3.2693 34.0021-5.39 50.96-.8163 2.1237-2.2863 3.5937-4.41 4.41-41.1296.7164-78.0433-11.2063-110.74-35.77-28.7258 30.0439-63.6784 48.1739-104.86 54.39-1.7503-.7693-3.2203-1.912-4.41-3.43-4.5893-16.5404-9.653-32.8741-15.19-49-14.653 3.9082-29.353 7.6646-44.1 11.27-3.6692.9104-7.0992.4204-10.29-1.47-10.7423-28.1593-14.3355-57.233-10.78-87.22 1.599-10.2792 3.559-20.4056 5.88-30.38-36.443-16.3611-65.0263-41.5138-85.75-75.46 0-2.6137 0-5.2263 0-7.84 14.0518-10.4605 28.0986-20.9132 42.14-31.36-9.31-14.0463-18.62-28.0937-27.93-42.14-1.0069-3.6064-.1902-6.7101 2.45-9.31 37.5191-30.0909 80.3125-43.3209 128.38-39.69 4.5423-47.7969 24.796-87.4869 60.76-119.07 5.4282-3.5545 10.3282-2.9012 14.7 1.96 10.6457 10.9727 21.5884 21.5894 32.83 31.85 11.6248-11.9525 23.5484-23.5491 35.77-34.79 3.2663-1.96 6.5337-1.96 9.8 0 30.4221 26.3454 50.0221 59.1754 58.8 98.49 13.3701-2.1942 26.7628-2.3579 40.18-.49 6.0593 4.1415 6.3857 8.7142.98 13.72-1.5033.9045-3.137 1.3945-4.9 1.47-46.062-4.2101-83.1383 11.7963-111.23 48.02-8.429 12.9389-14.1463 26.9863-17.15 42.14 3.7554.4351 7.1854 1.7424 10.29 3.92 14.8313-13.5465 31.655-24.0002 50.47-31.36 5.241-25.4859 19.941-33.4895 44.1-24.01 11.8619 9.4786 14.9656 21.4022 9.31 35.77-10.3596 15.4223-23.9159 18.8523-40.67 10.29-2.45-2.45-4.9-4.9-7.35-7.35-16.2141 5.8976-30.4241 14.8803-42.63 26.95 2.2863 3.5937 4.5737 7.1863 6.86 10.78 52.7132-6.0515 94.6896 12.0785 125.93 54.39 28.0162-18.7092 48.7589-43.5365 62.23-74.48-16.074-7.791-31.9166-15.9583-47.53-24.5-1.96-2.94-1.96-5.88 0-8.82 6.6395-14.258 13.0095-28.6317 19.11-43.12-2.5774-2.2746-5.5174-4.0709-8.82-5.39-7.4402-2.8067-14.9528-5.4204-22.54-7.84-6.077-7.1628-4.607-12.2255 4.41-15.19 15.436 4.216 29.9723 10.4223 43.61 18.62 1.8973 2.6538 2.3873 5.5938 1.47 8.82-6.6963 14.7-13.3937 29.4-20.09 44.1 15.3233 7.6616 30.676 15.338 46.06 23.03.5547.9751 1.2083 1.7914 1.96 2.45ZM213.19 26.99c12.2441 12.0809 24.6578 24.0041 37.24 35.77 4.5384 1.236 8.4584.256 11.76-2.94 9.4737-9.4734 18.9463-18.9466 28.42-28.42 1.8316-1.5697 3.7916-2.5497 5.88-2.94 24.4647 22.9555 40.1447 50.8855 47.04 83.79-50.42 14.0013-81.29 46.6686-92.61 98-4.4061 1.2426-8.8161 2.549-13.23 3.92-7.2981-15.9123-10.5654-32.5723-9.8-49.98 16.7845-7.1099 22.8281-19.5236 18.13-37.24-7.1824-13.963-18.4524-19.353-33.81-16.17-14.5011 5.633-20.8711 16.2504-19.11 31.85 1.9825 9.9852 7.6999 16.8452 17.15 20.58 1.1819 20.1204 5.4282 39.5577 12.74 58.31-1.7826 2.4392-3.579 4.8892-5.39 7.35-.8203 1.4769-1.9639 1.9669-3.43 1.47-42.8632-30.231-59.0332-71.2274-48.51-122.99 8.5809-31.2266 24.4236-58.0133 47.53-80.36Zm2.94 98.98c12.8654-.6899 17.6018 5.1901 14.21 17.64-8.4662 8.3359-15.6535 7.3559-21.56-2.94-1.1437-6.8208 1.3063-11.7208 7.35-14.7Zm-99.96 18.62c7.8469-.1627 15.6869 0 23.52.49 2.352.1823 4.6393.6723 6.86 1.47 4.9853 42.681 25.4016 75.6746 61.25 98.98-.6546 7.205-.491 14.3913.49 21.56-17.1588 4.3365-34.4725 4.9902-51.94 1.96-1.1672-11.4582-7.0472-19.4618-17.64-24.01-16.8482-4.3973-28.7708 1.3201-35.77 17.15-3.9943 16.0191 1.3955 27.6154 16.17 34.79 15.0391 4.2473 26.6354-.1627 34.79-13.23 19.4471 4.0151 38.8835 3.6877 58.31-.98 3.2624 2.7401 6.2024 5.8437 8.82 9.31-17.1147 17.8713-37.6947 29.9586-61.74 36.26-4.2228 5.3116-3.5692 9.8843 1.96 13.72 6.7346-.048 13.2682-1.3544 19.6-3.92 20.6515-8.3614 38.6189-20.6114 53.9-36.75 4.1091 1.8983 8.3555 3.3683 12.74 4.41-2.6587 16.4709-8.0487 31.9872-16.17 46.55-20.4722-1.7503-32.3949 7.5597-35.77 27.93 1.471 17.151 10.781 26.461 27.93 27.93 17.15-1.47 26.46-10.78 27.93-27.93-.6556-6.8531-2.942-13.0605-6.86-18.62 10.0519-17.492 16.4219-36.2757 19.11-56.35 3.5172-1.0104 6.9472-2.3167 10.29-3.92 24.8528 52.5966 16.3591 99.1466-25.48 139.65-21.0857 18.2603-45.2584 30.8377-72.52 37.73-1.1241-.3116-1.9414-.9643-2.45-1.96-4.2463-15.0263-8.4937-30.0537-12.74-45.08-1.4984-3.4604-4.1121-5.4204-7.84-5.88-16.7482 4.361-33.5709 8.281-50.47 11.76-6.5101-24.8714-7.9801-50.0241-4.41-75.46 1.0441-7.4441 3.0037-14.6304 5.88-21.56 9.1091 2.7979 18.4191 4.2679 27.93 4.41 5.5448-1.7924 7.3422-5.5497 5.39-11.27-.49-1.7963-1.6337-2.94-3.43-3.43-30.7671-3.0605-57.8807-14.4932-81.34-34.3-12.4214-10.9417-23.2014-23.1917-32.34-36.75 12.9553-10.4987 26.3487-20.4624 40.18-29.89 1.8899-3.1909 2.3799-6.6209 1.47-10.29-8.9469-13.8121-18.2569-27.3685-27.93-40.67 24.4651-18.6053 51.9051-29.8753 82.32-33.81Zm237.16 28.42c13.134.883 17.2176 7.4166 12.25 19.6-8.7661 6.3083-15.6261 4.6756-20.58-4.9-.7742-6.9482 2.0031-11.8482 8.33-14.7Zm-104.86 53.9c25.7789-.1921 38.0289 12.5479 36.75 38.22-5.9368 18.3387-18.5142 26.3424-37.73 24.01-17.8438-5.7663-25.8465-18.0163-24.01-36.75 3.281-13.5701 11.611-22.0637 24.99-25.48Zm-122.5 32.34c13.2584.7017 17.3421 7.2353 12.25 19.6-6.5248 5.4135-12.7312 5.0872-18.62-.98-3.8338-8.2614-1.7111-14.4677 6.37-18.62Zm230.3 57.82c12.6538 1.4631 16.4101 7.9968 11.27 19.6-4.4551 4.164-9.5187 4.9804-15.19 2.45-6.1681-4.7079-7.3118-10.4243-3.43-17.15 2.1266-2.2765 4.5766-3.9102 7.35-4.9ZM222.99 368.03c11.1671 2.7332 14.4334 9.2669 9.8 19.6-6.6366 6.6787-13.0066 6.3524-19.11-.98-3.7162-9.555-.6125-15.7613 9.31-18.62ZM221.03 68.15c2.9576-.1613 5.8976.002 8.82.49 5.39 5.39 10.78 10.78 16.17 16.17 2.5353 4.8146 1.7179 8.898-2.45 12.25-3.0713.7743-6.0113.4477-8.82-.98-5.39-5.39-10.78-10.78-16.17-16.17-1.2025-4.4708-.3851-8.3908 2.45-11.76Zm57.82 0c9.7696-1.5051 13.526 2.4149 11.27 11.76-5.39 5.39-10.78 10.78-16.17 16.17-8.9121 3.1699-12.9958.0665-12.25-9.31 5.5576-6.3735 11.2749-12.5803 17.15-18.62Zm133.28 93.1c9.1052-1.762 12.8615 1.8306 11.27 10.78-3.1311 7.7332-6.8874 15.0832-11.27 22.05-9.6912 2.0688-13.4476-1.6876-11.27-11.27 3.3055-7.5048 7.0629-14.6912 11.27-21.56ZM75.99 190.65c3.0862-.2832 6.0262.2068 8.82 1.47 3.9631 5.8026 8.0464 11.5199 12.25 17.15 3.5946 7.4117 1.4709 11.9854-6.37 13.72-1.4092-.2146-2.7159-.7046-3.92-1.47-6.46-7.0462-11.6866-14.8862-15.68-23.52.3369-3.4192 1.9702-5.8692 4.9-7.35Zm339.08 15.68c9.3414 2.2177 18.1614 5.8114 26.46 10.78 3.8308 5.0235 3.1772 9.4335-1.96 13.23-2.2863.6537-4.5737.6537-6.86 0-6.7757-3.4555-13.6357-6.7228-20.58-9.8-3.3477-5.8006-2.3677-10.5379 2.94-14.21ZM82.85 235.73c9.3666-.2744 12.47 3.9719 9.31 12.74-6.6107 4.8569-13.3073 9.5942-20.09 14.21-9.3572.6782-12.4605-3.4045-9.31-12.25 6.8498-4.801 13.5464-9.701 20.09-14.7Zm289.1 134.26c8.1614.7624 16.3288 1.5788 24.5 2.45 7.4157 4.4884 7.743 9.3884.98 14.7-9.2061.3214-18.3525-.3312-27.44-1.96-4.1679-3.3516-4.9853-7.4353-2.45-12.25 1.3808-1.2554 2.8508-2.2354 4.41-2.94Zm-22.54 18.62c7.35-.1617 10.6173 3.431 9.8 10.78-.3861 7.2471-1.2025 14.4334-2.45 21.56-3.3095 4.164-7.3921 4.9804-12.25 2.45-1.2387-1.8238-2.2187-3.7838-2.94-5.88.9506-7.6499 1.7679-15.3262 2.45-23.03 1.3328-2.4725 3.1291-4.4325 5.39-5.88Zm-196 .98c3.6819-.4204 7.1119.2323 10.29 1.96 2.2569 4.4472 1.7669 8.5309-1.47 12.25-8.0468 2.5833-16.2131 4.7069-24.5 6.37-4.9-.3263-7.5137-2.94-7.84-7.84.0549-2.5588 1.0349-4.6824 2.94-6.37 6.9903-2.06 13.8503-4.1836 20.58-6.37Zm28.42 13.72c2.5382.4096 4.8245 1.3896 6.86 2.94 2.5754 6.7061 4.6991 13.5661 6.37 20.58 2.0502 7.0207-.3998 11.2671-7.35 12.74-2.6342-.4949-4.7579-1.8012-6.37-3.92-2.1099-6.8051-4.0699-13.6651-5.88-20.58-1.6611-6.1613.4626-10.0813 6.37-11.76Z" stroke="#44739e" stroke-width="4" fill="none"/>
</svg>