<svg xmlns="http://www.w3.org/2000/svg" viewBox="0 0 512 512">
	<path d="M503.27 107.35c0 5.88 0 11.76 0 17.64-2.8822 7.9537-8.1085 13.9973-15.68 18.13 5.9741 14.7539 3.0341 27.4939-8.82 38.22-7.891 6.8257-17.0373 10.9084-27.44 12.25-8.2095-.1754-15.2331-3.1154-21.07-8.82-7.8978 7.4215-17.2078 9.8715-27.93 7.35-11.7071-2.891-21.0171-9.261-27.93-19.11-17.005 5.8457-33.8276 12.2157-50.47 19.11-2.7009 3.3585-5.9682 5.9711-9.8 7.84 4.4992 10.6702 3.6828 20.9602-2.45 30.87-9.8451 12.2725-22.5851 18.8052-38.22 19.6-9.8 20.2537-19.6 40.5063-29.4 60.76-1.1133 2.5441-1.9296 5.1577-2.45 7.84 13.6014 3.4388 27.3214 6.3788 41.16 8.82 12.2902-1.0839 23.0702-5.6566 32.34-13.72-13.6651-11.2014-17.4215-25.2477-11.27-42.14 5.391-17.6978 17.151-25.8642 35.28-24.5 4.5678-18.4034 16.4905-26.8971 35.77-25.48 18.7944-.9869 30.7181 7.5058 35.77 25.48 17.0167-1.3181 28.4494 6.1956 34.3 22.54 4.8598 11.6297 4.5335 23.0633-.98 34.3-2.989 4.46-6.7453 8.0536-11.27 10.78 5.5723 17.4626.6723 31.3463-14.7 41.65-14.7539 9.9215-29.2902 9.7588-43.61-.49-7.8978 7.4215-17.2078 9.8715-27.93 7.35-5.7016-1.7895-11.0916-4.2395-16.17-7.35-8.4486 6.4749-17.4322 12.1922-26.95 17.15-4.1248 1.6023-8.3712 2.746-12.74 3.43-26.2493-2.3265-52.2193-6.2465-77.91-11.76-8.1859 8.2585-17.4959 14.9548-27.93 20.09-29.3392 10.2694-58.4129 21.2131-87.22 32.83-7.9074-2.1942-9.8674-6.9306-5.88-14.21 26.9814-11.6081 54.4214-22.0608 82.32-31.36 7.8331-3.2585 15.0195-7.5058 21.56-12.74-8.6446-9.1522-10.1146-19.4422-4.41-30.87 7.6852-12.9919 18.7915-17.5655 33.32-13.72 11.4709-23.7591 23.0682-47.4418 34.79-71.05-.8163-.8163-1.6337-1.6337-2.45-2.45-9.455 8.0066-20.0714 9.9666-31.85 5.88-8.8092 18.2848-19.0992 35.5975-30.87 51.94-15.1214 19.6872-34.5587 33.2445-58.31 40.67-12.5597 3.5897-25.2997 6.3671-38.22 8.33-10.4346 16.3464-25.4613 25.8191-45.08 28.42-4.6084-.4312-8.855-1.9012-12.74-4.41-2.75-3.0909-5.3632-6.1946-7.84-9.31-5.2554 1.6435-10.4821 3.2771-15.68 4.9-.3264 22.5498.0003 45.0898.98 67.62 14.911-6.9658 29.9377-13.6622 45.08-20.09 8.0034-1.1437 11.4334 2.2863 10.29 10.29-1.9056 3.1693-4.6822 5.292-8.33 6.37-16.4959 6.8061-32.8293 13.9924-49 21.56-5.772 1.6572-10.3453.1872-13.72-4.41 0-29.7263 0-59.4537 0-89.18 1.4478-2.2609 3.4078-4.0572 5.88-5.39 8.7831-3.1997 17.6031-6.3034 26.46-9.31 7.4044-16.4434 15.081-32.7761 23.03-49 2.8171-6.0025 4.9405-12.2088 6.37-18.62-24.0501-7.9302-33.6867-24.2628-28.91-49-12.0368-8.3261-16.6101-19.7597-13.72-34.3 2.0804-12.8311 8.4504-22.7948 19.11-29.89 5.7002-1.9463 11.5802-2.9263 17.64-2.94 3.8889-14.014 13.0356-22.1803 27.44-24.5 11.0234-1.7503 21.4767-.1176 31.36 4.9 7.0844 4.85 11.3308 11.5473 12.74 20.09 18.9385-.8418 30.8612 7.9782 35.77 26.46 5.7673 17.2774 1.3573 31.1601-13.23 41.65 4.4325 11.4572 2.9625 22.0745-4.41 31.85-9.6657 11.2847-21.9157 17.1647-36.75 17.64-2.007 16.8942-5.2734 33.5542-9.8 49.98 33.2563-.8663 60.5326-14.5863 81.83-41.16 10.4311-15.4654 19.7411-31.6354 27.93-48.51-8.4015-6.9668-13.3015-15.9495-14.7-26.95.9339-4.6315 1.7513-9.2042 2.45-13.72-14.0601-10.1714-18.3074-23.5641-12.74-40.18 4.9225-18.229 16.8462-27.7026 35.77-28.42 5.7653-16.513 17.5253-24.6803 35.28-24.5 18.4622-.6135 30.5486 7.7165 36.26 24.99 11.7355-.6664 21.2092 3.5799 28.42 12.74 14.1933-1.9247 28.2407-4.8647 42.14-8.82-4.5345-5.7173-6.4945-12.251-5.88-19.6-.4038-17.1721 6.7836-29.9121 21.56-38.22 4.999-2.0536 10.0617-2.5436 15.19-1.47 5.2606-17.9763 17.347-26.4697 36.26-25.48 11.4827-.856 21.2827 2.7373 29.4 10.78 4.4845 9.8217 1.3818 14.2317-9.31 13.23-9.0905-8.6475-19.5441-10.9342-31.36-6.86-2.55.8657-4.6736 2.3357-6.37 4.41-1.5739 6.4427-3.3702 12.8127-5.39 19.11-1.9933.9855-4.116 1.4755-6.37 1.47-8.7906-3.8617-16.3043-2.2283-22.54 4.9-5.341 8.2496-6.6473 17.0696-3.92 26.46 3.7524 4.41 8.4888 7.1863 14.21 8.33 2.8939 2.4755 4.0366 5.5782 3.43 9.31-8.2183 8.9151-8.3819 17.8977-.49 26.95 5.0186 4.6334 10.8986 7.4098 17.64 8.33 7.1364-.4263 12.3627-3.8563 15.68-10.29 3.5937-1.96 7.1863-1.96 10.78 0 7.4323 11.366 16.905 13.326 28.42 5.88 12.0452-7.84 13.8415-17.4763 5.39-28.91-.9104-3.6691-.4204-7.0991 1.47-10.29 16.1769-4.4041 20.9132-14.3678 14.21-29.89-.98-1.96-1.96-3.92-2.94-5.88-3.1625-3.1882-6.4288-6.1282-9.8-8.82-1.716-6.3778.5704-10.2978 6.86-11.76 8.2712 2.7131 14.4775 7.9398 18.62 15.68 2.2618 4.8477 4.0582 9.7481 5.39 14.7Zm-74.48 4.9c8.4741 1.1005 11.5777 5.6742 9.31 13.72-7.7449 7.006-13.4613 5.536-17.15-4.41 1.0839-4.5051 3.6975-7.6087 7.84-9.31Zm-175.42 9.8c6.5836-.0882 12.79 1.3818 18.62 4.41 2.0747 1.6964 3.5447 3.82 4.41 6.37.3263 3.5937.6537 7.1863.98 10.78 1.1378 4.2463 3.9151 6.2063 8.33 5.88 15.4017-4.95 24.7117.6037 27.93 16.66 1.0692 5.4851.4155 10.7114-1.96 15.68-5.094 3.5241-10.3204 6.7914-15.68 9.8-.6537 2.94-.6537 5.88 0 8.82 8.2438 10.7075 6.7738 20.0175-4.41 27.93-12.248 8.7681-22.3754 6.8081-30.38-5.88-2.94-.6537-5.88-.6537-8.82 0-10.2714 14.2159-21.705 15.0332-34.3 2.45-5.1656-4.4531-6.9619-10.0068-5.39-16.66 2.1403-4.0935 4.263-8.1761 6.37-12.25-.49-1.47-.98-2.94-1.47-4.41-4.0886-2.9988-8.4986-5.4488-13.23-7.35-5.3351-5.4361-6.8051-11.8061-4.41-19.11 1.7072-7.8351 6.1172-13.5514 13.23-17.15 6.1897.4841 12.397.8105 18.62.98 1.1437-1.1437 2.2863-2.2863 3.43-3.43-1.1701-13.7504 4.8726-21.5904 18.13-23.52Zm115.64 27.44c1.2769 2.7979 1.2769 5.7379 0 8.82-12.74 4.5737-25.48 9.1463-38.22 13.72-.7027-4.1836-1.6827-8.2663-2.94-12.25 13.9905-2.844 27.7105-6.274 41.16-10.29ZM86.77 152.43c8.9144-1.324 16.9177.636 24.01 5.88 2.4255 5.2646 3.7328 10.8172 3.92 16.66 1.5347 3.2467 4.1483 4.8794 7.84 4.9 12.9164-5.1362 21.7364-1.2162 26.46 11.76 5.3684 13.9258.9584 22.9095-13.23 26.95-3.5574 2.989-4.7011 6.7453-3.43 11.27 8.6681 10.3116 7.5244 19.6216-3.43 27.93-12.0207 9.702-22.147 8.0683-30.38-4.9-7.2065-2.6097-12.4332-.3234-15.68 6.86-7.988 5.7987-15.828 5.4713-23.52-.98-12.4993-8.3682-13.9693-18.3319-4.41-29.89 1.0069-3.6064.1902-6.7101-2.45-9.31-3.71-1.3651-7.3033-2.9978-10.78-4.9-2.5826-1.9218-4.3792-4.3718-5.39-7.35-1.387-9.4786.8997-17.9722 6.86-25.48 6.7155-4.5305 13.9023-5.1842 21.56-1.96 3.7279-.4596 6.3413-2.4196 7.84-5.88-1.3293-11.4288 3.4074-18.6151 14.21-21.56Zm167.58 16.66c9.9382.9075 13.0418 5.8075 9.31 14.7-5.1754 4.115-10.0754 3.7887-14.7-.98-2.2775-6.2201-.4802-10.7927 5.39-13.72ZM89.71 199.47c11.0652-.2254 14.4952 4.6746 10.29 14.7-5.5441 4.3149-10.4441 3.6613-14.7-1.96-1.5882-5.4655-.1182-9.7128 4.41-12.74Zm284.2 37.24c15.6134.097 22.9634 7.937 22.05 23.52 1.1437 1.1437 2.2863 2.2863 3.43 3.43 5.1617.6605 10.2253.1705 15.19-1.47 10.8045 2.9802 16.6845 10.1665 17.64 21.56.9663 5.1038-.1774 9.6765-3.43 13.72-3.8093 3.0488-8.0556 5.3351-12.74 6.86-2.5931 2.8146-3.4094 6.0809-2.45 9.8 9.0297 10.1254 8.2134 19.4354-2.45 27.93-12.6126 9.8813-23.3926 8.2477-32.34-4.9-3.3947-.8007-6.662-.4733-9.8.98-7.9066 11.905-17.7066 13.5387-29.4 4.9-11.5268-8.4839-12.6694-18.1202-3.43-28.91 1.1172-3.8112.3009-7.0776-2.45-9.8-15.633-3.9161-20.3693-13.3897-14.21-28.42 4.5923-12.6979 13.2486-16.6179 25.97-11.76 3.9229.246 6.6993-1.3877 8.33-4.9-.9349-14.5236 5.7614-22.0363 20.09-22.54ZM91.67 271.99c2.0921-.3459 3.3987.4704 3.92 2.45-3.6178 24.4324-9.0078 48.4424-16.17 72.03-7.2498 7.302-15.9066 12.202-25.97 14.7-3.3866-.2842-5.3466-2.0815-5.88-5.39 7.5635-18.7572 15.8935-37.2145 24.99-55.37 2.8357-6.5464 5.2857-13.2427 7.35-20.09 4.4385-2.0551 8.3585-4.8314 11.76-8.33Zm281.26 11.76c8.7436.8408 11.8472 5.4145 9.31 13.72-4.5413 6.0329-9.4413 6.3592-14.7.98-3.1203-6.81-1.323-11.71 5.39-14.7ZM214.17 328.83c18.9973 4.0954 37.9436 8.5054 56.84 13.23 15.6261 2.9763 30.1624.1989 43.61-8.33.9016 3.6877 2.3716 7.1177 4.41 10.29-8.5681 8.1232-18.5308 13.8396-29.89 17.15-27.8359-2.9498-55.4396-7.3598-82.81-13.23-2.5451-2.2707-3.3614-5.047-2.45-8.33 1.6768-5.4302 5.1068-9.0238 10.29-10.78ZM426.83 96.57c16.6678.1721 26.1415 8.5025 28.42 24.99-1.7326 14.6363-9.899 22.9663-24.5 24.99-15.1283-1.5719-23.6219-9.9019-25.48-24.99 1.4808-13.3956 8.6671-21.7252 21.56-24.99Zm1.96 15.68c-4.1425 1.7013-6.7561 4.8049-7.84 9.31 3.6887 9.946 9.4051 11.416 17.15 4.41 2.2677-8.0458-.8359-12.6195-9.31-13.72Zm-176.4 41.16c17.1608-.3146 26.9608 8.0154 29.4 24.99-3.7436 19.847-15.5036 27.3606-35.28 22.54-14.6833-9.0483-18.1133-21.2983-10.29-36.75 3.9886-5.8006 9.3786-9.3933 16.17-10.78Zm1.96 15.68c-5.8702 2.9273-7.6675 7.4999-5.39 13.72 4.6246 4.7687 9.5246 5.095 14.7.98 3.7318-8.8925.6282-13.7925-9.31-14.7ZM86.77 183.79c18.5387-2.0296 28.9923 6.1368 31.36 24.5-1.3838 15.2674-9.7138 23.4338-24.99 24.5-18.2666-2.5911-26.1066-13.0448-23.52-31.36 2.6297-8.9984 8.3464-14.8784 17.15-17.64Zm2.94 15.68c-4.5282 3.0272-5.9982 7.2745-4.41 12.74 4.2559 5.6213 9.1559 6.2749 14.7 1.96 4.2052-10.0254.7752-14.9254-10.29-14.7Zm281.26 68.6c17.1853-.2519 26.6589 8.0781 28.42 24.99-1.0349 15.2459-9.2012 23.5759-24.5 24.99-18.5073-2.3442-26.511-12.7968-24.01-31.36 3.1576-10.1861 9.8539-16.3925 20.09-18.62Zm1.96 15.68c-6.713 2.99-8.5103 7.89-5.39 14.7 5.2587 5.3792 10.1587 5.0529 14.7-.98 2.5372-8.3055-.5664-12.8792-9.31-13.72Z" stroke="#44739e" stroke-width="4" fill="none"/>
</svg>