<svg xmlns="http://www.w3.org/2000/svg" viewBox="0 0 512 512">
	<path d="M89.71 1.51c2.94 0 5.88 0 8.82 0 15.9279 6.2902 27.1979 17.3969 33.81 33.32 14.6138-7.1386 29.4764-7.6286 44.59-1.47 4.1611 2.5546 5.9574 6.3113 5.39 11.27 3.5319.781 6.1456 2.741 7.84 5.88 2.1942 17.9192-3.1958 33.1092-16.17 45.57 5.6732 3.3856 10.4096 7.7959 14.21 13.23 7.4901-1.2211 14.8401-3.0174 22.05-5.39 35.28-20.2534 70.56-40.5066 105.84-60.76 19.2668-5.081 30.3741 2.1057 33.32 21.56.0382 8.7421-3.5545 15.6021-10.78 20.58-15.0263 11.1066-30.0537 22.2137-45.08 33.32-9.3668.7076-12.4705-3.3761-9.31-12.25 16.2866-12.0387 32.2939-24.452 48.02-37.24 2.5784-6.2798.6184-10.5265-5.88-12.74-38.222 20.9921-76.2783 42.3887-114.17 64.19-5.1675 1.2622-10.3939 2.0796-15.68 2.45 2.0286 6.0564 2.8449 12.2627 2.45 18.62-.5488 4.1415-2.8351 6.7551-6.86 7.84.3714 4.8236-1.0986 8.9062-4.41 12.25-21.1484 9.5442-41.2384 7.7469-60.27-5.39-8.3594 18.816-22.5694 30.4133-42.63 34.79-4.337.7752-8.5837.4479-12.74-.98-2.0212-1.5014-3.3278-3.4614-3.92-5.88-5.2971.7311-9.7071-1.0653-13.23-5.39-3.7357-9.752-5.6957-19.8793-5.88-30.38-10.5211 2.3255-21.1377 4.2855-31.85 5.88 0 26.7863 0 53.5737 0 80.36 50.6801-9.6461 101.3134-19.6088 151.9-29.89 9.2669-1.8355 17.7605-.0392 25.48 5.39 3.6574-5.2548 8.5574-6.8874 14.7-4.9 4.5609-3.3046 9.4609-3.7946 14.7-1.47 11.8894 6.4984 20.0567 16.1347 24.5 28.91 12.838-3.3859 25.2517-2.2422 37.24 3.43 3.1478 2.6764 4.6178 6.1064 4.41 10.29 6.662 4.4335 8.132 10.3135 4.41 17.64 11.3082 6.566 22.7419 12.936 34.3 19.11 1.47 1.47 2.94 2.94 4.41 4.41 30.6485 65.5424 61.0285 131.2024 91.14 196.98 5.7467 5.1744 10.1567 4.0307 13.23-3.43-18.7788-48.4933-37.5624-97.0033-56.35-145.53-7.0041-3.3996-13.2104-7.9723-18.62-13.72-1.1897-2.6352-1.3534-5.2489-.49-7.84-1.3553-2.4284-2.3353-5.0421-2.94-7.84 1.1691-4.6236 3.1291-8.871 5.88-12.74-2.8724-6.8208-5.6487-13.6808-8.33-20.58-45.6268-32.2322-91.5232-64.0822-137.69-95.55-6.5337-7.5137-6.5337-15.0263 0-22.54 13.0663-9.8 26.1337-19.6 39.2-29.4 10.1822-3.529 14.2659-.099 12.25 10.29-11.9717 9.6863-24.2217 18.9963-36.75 27.93-1.4769.8203-1.9669 1.9639-1.47 3.43 44.2637 30.5437 88.5263 61.0863 132.79 91.63 5.8339 6.2749 9.7539 13.6249 11.76 22.05.49.3263.98.6537 1.47.98 2.8449-1.177 5.6213-2.4843 8.33-3.92-5.3508-11.5336-5.1871-22.9663.49-34.3 1.9894-2.1923 4.4394-3.6623 7.35-4.41 2.6029-4.4071 6.5229-6.5307 11.76-6.37 10.1459.7468 19.1286 4.3394 26.95 10.78 10.3694-10.9701 22.9457-15.0528 37.73-12.25 1.3446 1.2172 2.3246 2.6872 2.94 4.41 4.1768.3675 7.2804 2.3275 9.31 5.88 4.608 11.6522 4.4453 23.2485-.49 34.79 9.2963 6.3533 16.1563 14.6833 20.58 24.99 0 1.96 0 3.92 0 5.88-1.0741 1.5709-2.3814 3.0409-3.92 4.41 1.6405 4.5031.6605 8.4231-2.94 11.76-8.6759 6.5395-18.4759 9.6422-29.4 9.31.2313 12.2108-3.5251 22.9908-11.27 32.34-3.4712 3.6534-7.5548 4.6334-12.25 2.94-2.0629 1.9286-4.5129 2.9086-7.35 2.94-12.7782-3.3006-21.5982-11.1406-26.46-23.52-1.7366-3.7367-2.5529-7.6567-2.45-11.76-3.086-.2832-6.026.2068-8.82 1.47 19.1668 47.5398 37.4605 95.3971 54.88 143.57-.7477 11.1847-6.3014 18.6984-16.66 22.54-4.2463 0-8.4937 0-12.74 0-4.9333-1.5856-9.017-4.5256-12.25-8.82-30.38-65.66-60.76-131.32-91.14-196.98-10.3802-6.2534-20.9965-12.1334-31.85-17.64-2.5705 3.0625-5.3469 6.0025-8.33 8.82-.6537.6537-.6537 1.3063 0 1.96 12.0736 11.0956 16.9736 24.8156 14.7 41.16-1.5396 2.3745-3.6623 3.6809-6.37 3.92.2891 3.5055-.6909 6.6081-2.94 9.31-18.965 7.8331-36.4413 5.3831-52.43-7.35-11.0593 18.3515-27.2293 26.3542-48.51 24.01-2.3745-1.5396-3.6809-3.6623-3.92-6.37-7.7126-.0343-11.7963-3.9543-12.25-11.76-2.7352-12.1638-1.2652-23.7611 4.41-34.79-10.1518-4.9304-18.4818-11.9531-24.99-21.07-3.4182-5.882-3.2546-11.5993.49-17.15-2.1991-6.7199-.2391-11.9472 5.88-15.68 8.7622-6.3524 18.5622-10.1097 29.4-11.27-.6321-6.5278.3479-12.8978 2.94-19.11-3.2291-2.1864-6.6591-3.9827-10.29-5.39-53.9745 11.1867-108.038 22.1304-162.19 32.83-5.5613 1.7219-9.808.2519-12.74-4.41 0-34.3 0-68.6 0-102.9 1.327-2.1521 3.287-3.6221 5.88-4.41 15.3346-2.7195 30.688-5.3322 46.06-7.84 2.3244-1.4416 2.3244-2.5843 0-3.43-14.1114-3.5055-25.0547-11.3455-32.83-23.52-3.6922-5.7239-3.2022-10.9505 1.47-15.68-4.0868-6.202-3.5968-12.082 1.47-17.64 9.9953-9.6521 21.9186-15.2055 35.77-16.66-3.1072-19.2572 2.1194-35.7538 15.68-49.49 3.1483-.6885 6.2516-.5252 9.31.49 1.9514-1.4613 3.7481-3.0947 5.39-4.9Zm7.84 17.64c12.3059 5.9565 19.6559 15.7565 22.05 29.4 2.0355 4.5288 5.4655 6.3255 10.29 5.39 10.6301-7.8676 22.3901-10.481 35.28-7.84-2.6754 8.8643.5919 13.6009 9.8 14.21-1.9747 14.3906-9.3247 25.1706-22.05 32.34-2.2236 4.1292-1.7336 7.8861 1.47 11.27 15.1175 5.1519 24.5911 15.4419 28.42 30.87-8.6681 1.3152-11.6081 6.2152-8.82 14.7-19.2991 5.8173-34.6528.4273-46.06-16.17-5.6115-2.8459-10.0215-1.7032-13.23 3.43-1.5935 20.3683-12.2108 33.1083-31.85 38.22-.3013-6.1809-3.568-9.4482-9.8-9.8-1.972.3332-3.932.6595-5.88.98-3.6934-14.1728-.9168-26.9128 8.33-38.22 2.4162-5.1568 1.2728-9.2404-3.43-12.25-14.2097.3361-25.9697-4.7275-35.28-15.19 6.0912-5.9267 6.4179-12.1335.98-18.62 3.3666-3.4868 7.2866-6.2636 11.76-8.33 8.6336-2.2491 17.2902-4.0457 25.97-5.39.965-1.8286 1.455-3.7886 1.47-5.88-4.0759-11.1754-3.9127-22.2821.49-33.32.7008-4.3505 2.8241-5.4939 6.37-3.43 6.6932 2.2008 11.2666.0774 13.72-6.37Zm122.5 200.9c8.867 6.9462 13.9307 16.0936 15.19 27.44.4557 1.4024 1.273 2.5451 2.45 3.43 2.94.6537 5.88.6537 8.82 0 8.1036-4.4982 16.5973-5.4782 25.48-2.94-1.7179 6.2024.4057 10.6124 6.37 13.23-2.3922 10.5742-8.7622 17.9242-19.11 22.05-4.0739 4.5893-3.7475 8.8367.98 12.74 10.7633 5.0431 17.297 13.3731 19.6 24.99-7.1511 1.2779-10.0911 5.5243-8.82 12.74-16.1955 1.3759-28.2828-4.9941-36.26-19.11-3.5486-2.0482-6.9786-1.8845-10.29.49-1.7963 7.349-4.7363 14.209-8.82 20.58-5.388 6.0427-12.0854 9.6354-20.09 10.78-1.1838-6.9864-5.4302-9.9264-12.74-8.82-.9251-12.1863 2.8322-22.639 11.27-31.36 1.3504-4.3973.2078-7.8273-3.43-10.29-11.4092-.8026-20.5565-5.7026-27.44-14.7 4.5619-2.8391 6.0319-6.9217 4.41-12.25-.3665-.8977-.8565-1.715-1.47-2.45 3.3732-2.9929 7.2932-4.9529 11.76-5.88 6.2063-.3263 12.4137-.6537 18.62-.98 2.4676-1.8326 3.775-4.2826 3.92-7.35-2.646-10.2841-1.176-20.0841 4.41-29.4 6.0623 3.383 11.125 2.403 15.19-2.94Zm236.18 26.46c1.1515-.2146 2.1315.1117 2.94.98 2.3726 4.7844 6.2926 7.0707 11.76 6.86.0147 3.9788-.4753 7.8988-1.47 11.76-2.4529 4.9049-4.9029 9.8049-7.35 14.7.3263 2.4598 1.3063 4.5835 2.94 6.37 7.9586 1.765 14.3286 5.8477 19.11 12.25-.39 2.0884-1.37 4.0484-2.94 5.88-.7615 2.8704-.5978 5.6477.49 8.33-8.2516 4.0004-16.7453 4.4904-25.48 1.47-4.7706.3577-7.3833 2.9704-7.84 7.84 4.2356 9.5344 3.5819 18.6817-1.96 27.44-1.7591-.7497-3.5554-1.4034-5.39-1.96-3.2928 1.0947-6.3965 2.2383-9.31 3.43-8.671-8.3898-11.2847-18.3534-7.84-29.89-1.1936-6.6464-5.1136-9.0964-11.76-7.35-9.7579 7.3627-20.0479 8.1801-30.87 2.45.4724-3.1948.4724-6.4611 0-9.8-.7693-1.7503-1.912-3.2203-3.43-4.41 3.2193-3.8935 7.1393-6.8335 11.76-8.82 5.5096-1.2132 10.8996-2.6832 16.17-4.41 1.4533-3.138 1.7807-6.4053.98-9.8-5.8976-6.0985-8.3476-13.2849-7.35-21.56 5.4733-.439 9.066-3.2164 10.78-8.33 7.9831 1.7228 14.5158 5.9702 19.6 12.74 2.94 1.96 5.88 1.96 8.82 0 4.2081-7.3157 10.0881-12.7057 17.64-16.17ZM101.47 72.07c4.6285-.928 8.3849.3787 11.27 3.92 1.0457 3.9542 2.1893 7.8742 3.43 11.76 3.6956 2.0506 7.4519 4.0106 11.27 5.88 2.6176 12.8253-2.1197 16.4189-14.21 10.78-2.4735 1.6562-4.4335 3.7799-5.88 6.37-9.4096 3.0076-13.4929-.4224-12.25-10.29 2.4162-2.5756 4.2128-5.5156 5.39-8.82-1.0572-4.0654-2.0372-8.1487-2.94-12.25.4189-2.9629 1.7255-5.4129 3.92-7.35Zm338.1 31.36c9.7079-.4204 13.9552 4.1532 12.74 13.72 9.7951-1.3112 14.0424 2.9351 12.74 12.74-1.9453 27.5909-16.6453 43.4346-44.1 47.53-6.5082 1.0966-13.0418 1.4239-19.6.98-4.9715-1.3779-8.4015-4.4806-10.29-9.31-1.1672-15.0704 1.4465-29.4431 7.84-43.12 10.1401-13.8053 23.6964-21.3189 40.67-22.54Zm-6.86 16.66c.8585-.1284 1.5121.198 1.96.98-2.3922 12.1442 2.5078 16.8805 14.7 14.21-3.8906 15.3213-13.6906 24.1413-29.4 26.46-4.5256.9741-9.0993 1.4641-13.72 1.47-.8624-14.4021 3.7113-26.6521 13.72-36.75 4.0739-2.6901 8.3202-4.8138 12.74-6.37Zm-112.7 21.56c33.1211.2862 51.5774 16.9462 55.37 49.98.6537 4.9.6537 9.8 0 14.7-2.8057 7.0442-8.0321 10.6369-15.68 10.78-16.0926-.247-30.6289-4.9833-43.61-14.21-12.0099-12.1824-16.7462-26.7187-14.21-43.61 2.9704-4.4365 6.8904-5.7428 11.76-3.92-.6889-2.9469-.3616-5.8869.98-8.82 1.325-2.204 3.1213-3.8377 5.39-4.9Zm11.76 16.66c13.5309 2.9116 22.1872 11.0779 25.97 24.5 1.4573 6.1289 2.2736 12.3362 2.45 18.62-12.2059-.1078-23.3122-3.5378-33.32-10.29-4.702-4.8726-7.9684-10.5889-9.8-17.15 12.3382 1.7091 17.2382-3.5172 14.7-15.68ZM218.09 262.19c4.3208-.8644 7.7508.443 10.29 3.92.7585 3.5741 1.4122 7.1677 1.96 10.78 2.94 1.96 5.88 3.92 8.82 5.88 3.0664 6.9335.9437 11.1808-6.37 12.74-2.7205-.2989-5.1705-1.2789-7.35-2.94-4.3306 6.421-9.557 7.401-15.68 2.94-1.225-2.5255-1.5523-5.1381-.98-7.84 1.9375-2.7558 4.0611-5.3684 6.37-7.84-1.3485-4.164-1.8385-8.4104-1.47-12.74 1.0045-2.1433 2.4745-3.7769 4.41-4.9Zm-108.78.98c8.0644-1.0751 14.1071 1.8649 18.13 8.82 4.4237 20.7005.1774 39.3205-12.74 55.86-8.2996 7.499-17.9364 12.5626-28.91 15.19-11.6779 2.6587-17.3945-1.7513-17.15-13.23-7.6255 2.5568-12.5255-.0568-14.7-7.84-1.2435-28.3926 11.6598-46.8489 38.71-55.37 5.6494-1.3583 11.2024-2.501 16.66-3.43Zm.98 15.68c.98 0 1.96 0 2.94 0 .6439 11.6767-1.4798 22.783-6.37 33.32-5.0548 7.6901-12.0782 12.1001-21.07 13.23 2.3656-12.4979-2.5344-16.9079-14.7-13.23 1.0404-15.9309 9.5336-25.8945 25.48-29.89 4.6991-1.175 9.2728-2.3187 13.72-3.43Zm330.26-2.94c4.9872.5772 7.9272 3.3536 8.82 8.33-.9369 4.1621-2.8969 7.7547-5.88 10.78 2.9194 4.9196 2.5931 9.4933-.98 13.72-7.4206 2.9861-11.9932.5361-13.72-7.35-8.526 1.4357-11.956-2.157-10.29-10.78 1.1437-1.1437 2.2863-2.2863 3.43-3.43 3.0145-.3391 5.9545-.9918 8.82-1.96 1.6337-2.2863 3.2663-4.5737 4.9-6.86 1.7787-.7419 3.4114-1.5582 4.9-2.45ZM134.79 385.67c10.5007-1.3691 17.5244 2.8773 21.07 12.74 7.1256 17.6772 8.1056 35.6436 2.94 53.9-6.37 14.21-16.66 24.5-30.87 30.87-10.4488 3.5113-16.1651-.245-17.15-11.27-5.0107 5.5733-10.5644 6.2269-16.66 1.96-8.5258-16.5591-9.5058-33.5454-2.94-50.96 4.5734-5.2263 9.1463-5.2263 13.72 0 .1637 1.47.3263 2.94.49 4.41-1.5278 5.9496-2.5078 11.9923-2.94 18.13-.1303 3.7593.5223 7.352 1.96 10.78 2.8302-2.0217 5.7702-3.8191 8.82-5.39 4.6521-.8448 8.4084.6252 11.27 4.41.9261 3.5417 1.5798 7.1354 1.96 10.78 13.4427-8.0968 20.4663-20.0204 21.07-35.77-1.3328-10.0705-4.1091-19.7068-8.33-28.91-6.1309 3.6397-12.5009 6.5797-19.11 8.82-4.6276-.2146-7.2402-2.6646-7.84-7.35.2891-2.8645 1.5964-5.1519 3.92-6.86 5.9839-3.969 12.1902-7.399 18.62-10.29Zm123.48 4.9c32.4439-2.9616 52.3712 11.2484 59.78 42.63-.8947 6.7679-4.8147 10.0342-11.76 9.8 3.7916 9.0758.8516 14.6294-8.82 16.66-30.5819 4.0592-50.9992-8.5182-61.25-37.73-2.7156-5.9555-3.6956-12.1628-2.94-18.62 1.372-3.334 3.4957-6.1113 6.37-8.33 6.2054-2.0531 12.4117-3.5231 18.62-4.41Zm.98 15.68c18.0634-2.5637 31.457 3.97 40.18 19.6-13.0036.8595-16.5973 7.0658-10.78 18.62-12.1177 1.0515-22.0814-3.1948-29.89-12.74-4.0866-7.1903-7.5166-14.7039-10.29-22.54 3.6387-1.2524 7.2324-2.2324 10.78-2.94Z" stroke="#44739e" stroke-width="4" fill="none"/>
</svg>