<svg xmlns="http://www.w3.org/2000/svg" viewBox="0 0 512 512">
	<path d="M407.23 1.51c3.5937 0 7.1863 0 10.78 0 4.5149 2.007 9.0875 4.1303 13.72 6.37 5.931 6.2464 7.0746 13.2698 3.43 21.07-7.2236 16.5694-14.5736 33.0661-22.05 49.49 9.5462.8968 19.0198 2.2034 28.42 3.92 2.0747 1.6963 3.5447 3.8196 4.41 6.37.1392 4.3193-.1882 8.5659-.98 12.74 8.5231 5.3008 10.1567 12.1608 4.9 20.58-8.1663 10.78-16.3337 21.56-24.5 32.34 1.2956 9.0758-2.4618 12.8331-11.27 11.27-2.55-.9163-4.02-2.7126-4.41-5.39-.9575-5.1293-.3038-10.0293 1.96-14.7 7.8008-10.2194 15.4781-20.5094 23.03-30.87-6.5621-4.8657-8.5221-11.2357-5.88-19.11-13.2261-.3849-26.2934-1.8549-39.2-4.41-1.1437-1.1434-2.2863-2.2866-3.43-3.43-5.6311-10.9369-11.5111-21.7169-17.64-32.34-6.2063 5.2266-12.4137 5.2266-18.62 0-6.1289 10.6231-12.0089 21.4031-17.64 32.34-2.7979 3.7668-6.5542 5.5635-11.27 5.39-10.78.98-21.56 1.96-32.34 2.94 3.7024 7.9566 1.7424 14.1639-5.88 18.62 9.4433 11.3954 18.1006 23.3191 25.97 35.77-.2078 15.9995-.6978 32.0068-1.47 48.02 7.594-1.8267 14.1267.1333 19.6 5.88 8.0223-6.4641 15.8623-13.1614 23.52-20.09 4.4688-3.6711 9.3688-4.3247 14.7-1.96 8.6769 7.5342 17.4969 14.8842 26.46 22.05 5.3724-5.9153 11.905-7.8753 19.6-5.88-2.1129-5.7124-1.1329-10.7761 2.94-15.19 4.3414-2.0404 8.0977-1.224 11.27 2.45 2.2775 8.9837 1.9502 17.8037-.98 26.46-2.354 2.1491-5.1313 3.4555-8.33 3.92-6.7091-3.6123-12.2627-2.4696-16.66 3.43-5.7987 3.48-11.3523 3.1527-16.66-.98-5.88-5.2263-11.76-10.4537-17.64-15.68-2.1472-1.8806-4.4335-3.1879-6.86-3.92-2.3589 2.2393-4.8089 4.362-7.35 6.37-15.0342 26.1591-31.5315 51.3128-49.49 75.46.5782 1.273 1.5582 2.0894 2.94 2.45 10.1263 3.5937 20.2537 7.1863 30.38 10.78 10.1479-.001 20.2742-.6546 30.38-1.96 6.4092-11.3504 12.9429-22.6204 19.6-33.81 6.221-4.2689 11.9374-3.6162 17.15 1.96 6.6473-6.4562 13.181-6.4562 19.6 0 5.5919 10.6947 11.3082 21.3111 17.15 31.85 10.78.98 21.56 1.96 32.34 2.94 10.0773 2.353 13.0173 8.3966 8.82 18.13 2.9341 2.1188 5.3841 4.7314 7.35 7.84.6537 2.6137.6537 5.2263 0 7.84-7.9694 11.856-16.2994 23.4524-24.99 34.79 1.2309 15.7692 1.7209 31.6128 1.47 47.53-.7703 3.0213-2.5666 5.144-5.39 6.37-4.2806.6948-8.527.5312-12.74-.49-3.1105 2.2814-6.3778 4.4041-9.8 6.37-2.6137.6537-5.2263.6537-7.84 0-8.6338-6.5101-17.1275-13.2065-25.48-20.09-8.3525 6.8835-16.8462 13.5799-25.48 20.09-2.6137.6537-5.2263.6537-7.84 0-3.4222-1.9659-6.6895-4.0886-9.8-6.37-4.9843 1.4602-9.8843 1.2975-14.7-.49-1.518-1.1897-2.6607-2.6597-3.43-4.41-.0725-16.661-.0725-33.321 0-49.98-6.8345-9.6118-13.8582-19.0845-21.07-28.42-17.934-2.6097-35.9003-4.8961-53.9-6.86-6.0329 6.1975-11.9129 12.5675-17.64 19.11 13.8533.8722 27.5733 2.5059 41.16 4.9 2.2638 1.6043 3.7338 3.7279 4.41 6.37.296 4.6638-.0304 9.2375-.98 13.72 8.2222 4.4237 10.5085 10.9564 6.86 19.6-9.3845 11.9109-18.5318 23.9973-27.44 36.26-.1166 4.6864-.7693 9.26-1.96 13.72-5.3322 4.3375-9.9058 3.6838-13.72-1.96-.6537-5.5537-.6537-11.1063 0-16.66 8.7436-12.5871 17.7262-24.9998 26.95-37.24-7.7949-4.9323-9.7549-11.6287-5.88-20.09-13.3995-1.2475-26.7922-2.5549-40.18-3.92-1.3063-.6537-2.6137-1.3063-3.92-1.96-7.4343-12.2529-14.6206-24.6666-21.56-37.24-3.2115 1.5229-6.6415 2.6666-10.29 3.43-4.3198-.0363-7.9135-1.6699-10.78-4.9-5.88 11.1063-11.76 22.2137-17.64 33.32-1.4288 2.4108-3.2252 4.5345-5.39 6.37-13.9474 2.2628-27.9937 3.7328-42.14 4.41 3.1076 8.7651.8212 15.6251-6.86 20.58 8.9837 12.0863 17.9663 24.1737 26.95 36.26.4243 18.2966.2617 36.5903-.49 54.88 8.6054-2.5215 15.6281-.2352 21.07 6.86 9.31-8.0037 18.62-16.0063 27.93-24.01 6.4533-3.1311 12.3333-2.1511 17.64 2.94 8.0948 6.908 16.0985 13.9317 24.01 21.07 3.1781-2.8587 6.6081-5.3087 10.29-7.35 3.5966-.2734 7.1903-.1098 10.78.49-.3714-4.7011.1186-9.2747 1.47-13.72 4.8549-4.0935 9.4276-3.7661 13.72.98.49 5.39.98 10.78 1.47 16.17.6566 5.8927-1.6297 10.1391-6.86 12.74-5.5801.3763-11.1328.3763-16.66 0-2.5754 1.5935-4.8618 3.5535-6.86 5.88-6.4533 3.1311-12.3333 2.1511-17.64-2.94-8.0948-6.908-16.0985-13.9317-24.01-21.07-8.6563 7.35-17.3137 14.7-25.97 22.05-8.6367 6.0976-16.1504 4.7912-22.54-3.92-5.8594.3234-11.7394.3234-17.64 0-4.264-2.3177-6.5503-5.9114-6.86-10.78 1.125-7.9262 1.2887-15.9289.49-24.01-20.4212 15.0165-40.5117 30.3702-60.27 46.06-2.94 0-5.88 0-8.82 0-5.3615-5.3518-5.0348-10.4145.98-15.19 23.3082-17.1 46.3383-34.5773 69.09-52.43.6537-2.94.6537-5.88 0-8.82-3.92-5.2263-7.84-10.4537-11.76-15.68-29.6272 22.734-59.5172 45.1114-89.67 67.13-8.4929 1.6307-12.2496-1.7993-11.27-10.29.4559-1.4024 1.2726-2.5451 2.45-3.43 30.0036-21.8364 59.7302-44.049 89.18-66.64-10.562-9.3845-10.3987-18.3681.49-26.95-.639-4.5296-.9653-9.1032-.98-13.72.8653-2.55 2.3353-4.6736 4.41-6.37 15.3007-2.253 30.6534-4.213 46.06-5.88 7.5921-13.8797 15.4321-27.5997 23.52-41.16 7.3422-2.8479 13.7122-1.3779 19.11 4.41 3.1987-3.8044 7.2814-5.928 12.25-6.37 13.6347-14.2845 26.5384-29.1472 38.71-44.59 7.2393-8.4133 12.9556-7.596 17.15 2.45-12.3529 17.9614-26.2366 34.7851-41.65 50.47-.6252 1.0868-1.1152 2.2295-1.47 3.43 3.3771 6.9188 7.1344 13.6151 11.27 20.09 5.5948-5.9192 10.8221-12.1265 15.68-18.62 1.8963-1.57 4.019-2.7136 6.37-3.43 19.305 1.1466 38.5777 2.9429 57.82 5.39 2.595-.4577 4.8814-1.6013 6.86-3.43-1.3397-2.255-1.9933-4.705-1.96-7.35-11.8335-3.7897-23.5935-7.8723-35.28-12.25-6.3504-4.606-7.4931-10.3233-3.43-17.15 13.3025-17.7821 25.8789-36.0758 37.73-54.88-2.7969-2.6342-5.7369-5.0842-8.82-7.35-2.9194-.0069-5.8594.3205-8.82.98-5.8281 8.7681-12.0344 17.2617-18.62 25.48-6.7914 2.5235-11.0377.2362-12.74-6.86.1225-1.5945.6125-3.0645 1.47-4.41 5.9339-7.5676 11.4876-15.4076 16.66-23.52.6713-17.0255 1.4876-34.0119 2.45-50.96-9.7892-12.3921-19.0992-25.1321-27.93-38.22-.687-3.3594-.3606-6.6268.98-9.8 2.3971-2.4098 4.8471-4.6962 7.35-6.86-3.3408-6.8432-2.3608-12.8866 2.94-18.13 13.9346-2.2182 27.9819-3.8516 42.14-4.9 7.1863-12.74 14.3737-25.48 21.56-38.22 2.2226-1.5209 4.6726-2.3375 7.35-2.45 4.1934.71 7.9498 2.3434 11.27 4.9 3.1987-2.4145 6.7914-4.0478 10.78-4.9 5.2371.5022 8.9935 3.1154 11.27 7.84 6.2063-12.4134 12.4137-24.8266 18.62-37.24 2.0717-2.5684 4.5217-4.5284 7.35-5.88Zm4.9 15.68c3.285.4982 6.225 1.805 8.82 3.92-7.6577 17.7553-15.4977 35.3953-23.52 52.92-2.2863-3.92-4.5737-7.84-6.86-11.76 7.7381-14.8204 14.9244-29.8471 21.56-45.08Zm-54.88 107.8c8.182.8173 10.9593 5.0646 8.33 12.74-4.8265 5.1352-9.3992 4.8079-13.72-.98-.6537-2.2863-.6537-4.5737 0-6.86 1.6954-1.864 3.4917-3.4976 5.39-4.9Zm36.26 148.96c5.6546 5.0068 11.3709 5.0068 17.15 0 5.4233 11.0152 11.467 21.6315 18.13 31.85 11.6346 2.2021 23.3946 3.6721 35.28 4.41-2.008 6.8825-.048 12.2725 5.88 16.17-8.085 10.3635-15.7613 20.9808-23.03 31.85.096 14.3756.586 28.7493 1.47 43.12-6.518-1.7483-12.0716-.1147-16.66 4.9-7.6175-5.4909-14.8039-11.5336-21.56-18.13-5.292-3.2075-10.5183-3.2075-15.68 0-7.005 6.2759-14.1914 12.3196-21.56 18.13-4.5884-5.0147-10.142-6.6483-16.66-4.9.8859-15.0185 1.0486-30.0448.49-45.08-7.35-9.9637-14.7-19.9263-22.05-29.89 5.4517-3.9974 7.4117-9.3874 5.88-16.17 8.8092-.8457 17.6292-1.6621 26.46-2.45 3.526-.1509 6.7924-1.1309 9.8-2.94 5.8065-10.1998 11.3592-20.4898 16.66-30.87Zm7.84 60.76c8.9464 2.0541 11.2328 6.9541 6.86 14.7-3.7485 3.7103-7.6685 3.8739-11.76.49-4.4149-7.0139-2.7812-12.0775 4.9-15.19ZM197.51 396.45c7.2344-1.2466 11.4807 1.6934 12.74 8.82-.6076 5.1813-3.5476 8.1213-8.82 8.82-9.9588-4.0631-11.2651-9.9431-3.92-17.64ZM356.27 96.57c9.4717.2656 13.0654 5.1656 10.78 14.7 3.7475.8183 6.8502 2.7783 9.31 5.88 4.0601-2.6117 8.4701-3.428 13.23-2.45 3.9523 3.1046 4.7697 6.861 2.45 11.27-2.6029 2.4461-5.5429 4.4061-8.82 5.88-.1803 4.067-.9976 7.987-2.45 11.76 1.324 2.6421 3.1203 4.9294 5.39 6.86.9369 10.6869-3.4731 13.7896-13.23 9.31-1.4867-1.6513-3.1203-3.1213-4.9-4.41-6.0407 2.5656-12.0844 2.5656-18.13 0-2.1109.8036-3.5809 2.2736-4.41 4.41-9.7569 4.4796-14.1669 1.3769-13.23-9.31 1.6101-2.4275 3.4065-4.7138 5.39-6.86-1.4524-3.773-2.2697-7.693-2.45-11.76-2.8577-1.5102-5.634-3.1429-8.33-4.9-2.9567-4.656-2.303-8.7387 1.96-12.25 4.0866-.7958 8.0066-.3058 11.76 1.47 3.3977-2.0982 6.9913-3.7318 10.78-4.9-.1617-3.283.002-6.5493.49-9.8 1.0045-2.1433 2.4745-3.7765 4.41-4.9Zm.98 28.42c-1.8983 1.4024-3.6946 3.036-5.39 4.9-.6537 2.2863-.6537 4.5737 0 6.86 4.3208 5.7879 8.8935 6.1152 13.72.98 2.6293-7.6754-.148-11.9227-8.33-12.74ZM128.91 141.65c5.0735-.7811 9.4835.5253 13.23 3.92 6.5591-5.5066 12.7655-5.1803 18.62.98 4.9392 9.3884 10.0019 18.6984 15.19 27.93 11.0877 1.4239 22.195 2.7303 33.32 3.92 6.1172 4.0562 7.7508 9.4462 4.9 16.17 5.6281 3.7495 7.7508 8.9758 6.37 15.68-7.1863 9.8-14.3737 19.6-21.56 29.4-.0274 15.3537-.0274 30.7073 0 46.06-4.4139 6.6581-10.2939 8.2918-17.64 4.9-4.0719 5.5507-9.4619 7.6734-16.17 6.37-7.9478-6.0192-15.6241-12.3892-23.03-19.11-7.4059 6.7208-15.0822 13.0908-23.03 19.11-6.7081 1.3034-12.0981-.8193-16.17-6.37-7.3458 3.3918-13.2258 1.7581-17.64-4.9.0783-15.3517.0783-30.7054 0-46.06-6.86-9.1463-13.72-18.2937-20.58-27.44-1.4536-3.138-1.7803-6.4053-.98-9.8 1.7362-2.9145 3.8594-5.5282 6.37-7.84-2.5622-5.6193-1.5822-10.682 2.94-15.19 11.684-1.9247 23.4441-3.5584 35.28-4.9 5.1881-9.2316 10.2508-18.5416 15.19-27.93 1.6954-1.864 3.4917-3.4976 5.39-4.9Zm4.9 18.62c5.245 3.7132 10.4723 3.7132 15.68 0 4.5815 7.2001 8.6652 14.7137 12.25 22.54 1.225 2.6176 3.0213 4.7403 5.39 6.37 10.4213 1.616 20.874 3.086 31.36 4.41-1.7591 4.9882-.6164 9.2355 3.43 12.74.6537.98.6537 1.96 0 2.94-6.5856 8.2183-12.7919 16.7119-18.62 25.48-.6321 13.4054-.4694 26.7991.49 40.18-5.879-1.1005-10.779.5321-14.7 4.9-6.0241-4.8804-11.9041-9.9431-17.64-15.19-4.8481-4.4629-10.0744-5.1166-15.68-1.96-7.0031 5.5321-13.8631 11.2484-20.58 17.15-3.921-4.3679-8.821-6.0005-14.7-4.9.9849-13.379 1.1476-26.7726.49-40.18-5.8279-8.7681-12.0346-17.2617-18.62-25.48-.6534-.98-.6534-1.96 0-2.94 4.0461-3.5045 5.1895-7.7518 3.43-12.74 10.4858-1.324 20.9387-2.794 31.36-4.41 1.7963-1.1437 3.2663-2.6137 4.41-4.41 4.3394-8.0791 8.4221-16.2464 12.25-24.5Zm5.88 53.9c8.818-.1676 12.5744 4.0788 11.27 12.74-2.5803 5.1274-6.663 6.9237-12.25 5.39-5.1274-2.5803-6.9237-6.663-5.39-12.25 1.4073-2.8832 3.5309-4.8432 6.37-5.88Zm-.98-29.4c6.0819-1.2956 9.8382.9908 11.27 6.86.3263 2.6137.6537 5.2263.98 7.84 3.3722 1.7405 6.4758 3.8641 9.31 6.37 3.3977-.6174 6.8277-1.4337 10.29-2.45 6.2495.3685 8.8631 3.6348 7.84 9.8-2.3451 3.8857-5.7751 6.4984-10.29 7.84-.4243 5.0186-1.7317 9.7559-3.92 14.21 5.7879 3.5682 7.9115 8.6309 6.37 15.19-3.1046 3.9523-6.861 4.7697-11.27 2.45-2.1393-2.303-4.4257-4.4267-6.86-6.37-6.86 2.6137-13.72 2.6137-20.58 0-2.4343 1.9433-4.7207 4.067-6.86 6.37-8.9778 2.4588-12.7351-.9712-11.27-10.29 1.7571-2.7391 3.8808-5.1891 6.37-7.35-2.1883-4.4541-3.4957-9.1914-3.92-14.21-4.5149-1.3416-7.9449-3.9543-10.29-7.84-1.0231-6.1652 1.5905-9.4315 7.84-9.8 3.2252.5488 6.3288 1.5288 9.31 2.94 3.0997-2.3677 6.3661-4.4904 9.8-6.37.6958-3.7485 1.5131-7.5048 2.45-11.27.6762-1.813 1.8189-3.1203 3.43-3.92Zm.98 29.4c-2.8391 1.0368-4.9627 2.9968-6.37 5.88-1.5337 5.587.2626 9.6697 5.39 12.25 5.587 1.5337 9.6697-.2626 12.25-5.39 1.3044-8.6612-2.452-12.9076-11.27-12.74Zm259.7 92.12c3.6182-.5184 6.7208.4616 9.31 2.94 1.0084 3.8504 1.8257 7.7704 2.45 11.76 3.1242 1.0711 5.7379 2.8675 7.84 5.39 4.3238-1.8071 8.8974-2.4598 13.72-1.96 4.555 3.3506 5.535 7.4333 2.94 12.25-2.4931 2.0864-5.2704 3.7201-8.33 4.9-.588 4.4169-1.7317 8.6632-3.43 12.74 3.4829 2.8302 5.7693 6.4229 6.86 10.78-1.2319 6.663-5.1519 9.113-11.76 7.35-2.1717-2.5019-4.6217-4.6256-7.35-6.37-6.3837 2.5803-12.7537 2.5803-19.11 0-2.107 1.616-4.067 3.4124-5.88 5.39-8.8984 3.1507-12.9821.047-12.25-9.31 1.7571-2.7391 3.8808-5.1891 6.37-7.35-2.1325-4.1189-3.2752-8.5289-3.43-13.23-3.2242-1.1221-6.1642-2.7558-8.82-4.9-2.7901-6.8571-.6664-11.1044 6.37-12.74 3.135.392 6.075 1.372 8.82 2.94 3.0096-2.35 6.2769-4.31 9.8-5.88.8075-3.2193 1.2975-6.4856 1.47-9.8 1.0045-2.1433 2.4745-3.7769 4.41-4.9Zm1.96 28.42c-7.6812 3.1125-9.3149 8.1761-4.9 15.19 4.0915 3.3839 8.0115 3.2203 11.76-.49 4.3728-7.7459 2.0864-12.6459-6.86-14.7ZM198.49 367.05c4.3208-.8644 7.7508.443 10.29 3.92.1715 3.6368.6615 7.2304 1.47 10.78 3.2673 1.3044 6.2073 3.1017 8.82 5.39 3.3898-.5762 6.8198-1.3936 10.29-2.45 6.2896 1.4622 8.576 5.3822 6.86 11.76-2.3912 3.0743-5.4949 5.0343-9.31 5.88-.6615 4.4894-1.6415 8.8994-2.94 13.23 1.6719 2.5206 3.4682 4.9706 5.39 7.35 1.6827 8.4437-1.7473 12.2-10.29 11.27-2.7871-2.1374-5.5644-4.2601-8.33-6.37-6.2063 2.6137-12.4137 2.6137-18.62 0-2.4 1.4151-4.5227 3.2124-6.37 5.39-8.8984 3.1507-12.9821.047-12.25-9.31 1.7571-2.7391 3.8808-5.1891 6.37-7.35-2.057-4.506-3.3634-9.2424-3.92-14.21-9.5393-2.5637-11.8266-7.9537-6.86-16.17 5.1283-1.8943 9.8647-1.078 14.21 2.45 2.4147-3.232 5.5174-5.5194 9.31-6.86.8075-3.2193 1.2975-6.4856 1.47-9.8 1.0045-2.1433 2.4745-3.7769 4.41-4.9Zm-.98 29.4c-7.3451 7.6969-6.0388 13.5769 3.92 17.64 5.2724-.6987 8.2124-3.6387 8.82-8.82-1.2593-7.1266-5.5056-10.0666-12.74-8.82Z" stroke="#44739e" stroke-width="4" fill="none"/>
</svg>