<svg xmlns="http://www.w3.org/2000/svg" viewBox="0 0 525 525">
	<path d="M164.1 480.2c1-2.7 2.5-2.8 6.6-.3 5.8 3.6 14.4 25.1 10 25.1-2.8 0-15.1-5-19.2-7.8-2.5-1.8-4.4-4.1-5.1-6.2-1.1-3.2-1-3.6.9-4.3 3-1.1 5.8-3.8 6.8-6.5Zm9.8-15.5c-2.4-.8-7.3-1.6-10.8-1.6-5.9-.1-6.5.1-9.7 3.3-1.9 1.9-3.4 4.1-3.4 5 0 .9-.8 1.6-1.9 1.6-2.7 0-7 4.7-7.7 8.7-1.5 7.9 2.7 19.5 9 24.9 4.8 4.2 18.2 10.9 24.6 12.3 9.9 2.3 16.6.4 20.7-5.8 7.8-11.7-5.7-43-20.8-48.4Zm181.7-4.5c-.5-3-.4-3.2 2.2-3.2 3.1.1 12.2 3.6 17.6 6.9 7.2 4.5 8.6 9.6 3.3 12.1-1.7.8-3.9 2.9-4.7 4.5-1.6 3.3-3.5 3.5-7.7.7-2.6-1.6-9.7-15.7-10.7-21Zm13.6-15.8c-17.7-6.2-28.8-.7-28.5 14.1.2 11 8.8 29 16.6 34.6 10.9 7.9 25.5 7.6 29.3-.5 1-2 3-4 4.6-4.7 4.5-1.8 6-5 6-12.3-.1-14.6-9-24.5-28-31.2Zm-138-30.2-.3-7.2H264h33.1l-.3 7.2-.3 7.3H264 231.5l-.3-7.3Zm-178-25-.3-7.2H86h33.1l-.3 7.2-.3 7.3H86 53.5l-.3-7.3Zm356-0-.3-7.2H442h33.1l-.3 7.2-.3 7.3H442 409.5l-.3-7.3ZM201 368.2V362h63 63v6.2c0 3.9-.7 7.8-1.9 10.4-2.3 4.9-8.8 10.7-14 12.2-5.4 1.7-88.8 1.7-94.2 0-5.2-1.5-11.7-7.3-14-12.2-1.2-2.6-1.9-6.5-1.9-10.4Zm178-24.7V337h63 63v5.1c0 7.9-1.9 12.9-7 18-7 7-7.1 7-58.5 6.7-49.3-.3-47.6-.1-53.9-6.4-4.7-4.8-6.6-9.6-6.6-16.9Zm-356-37L23 291H86h63v15.5V322H115.1h-34l-2 2.6c-3.6 4.6-2.2 9.3 3.3 11.4 1.7.6 15 1 34.7 1H149v6.5c0 7.3-1.9 12.1-6.6 16.9-6.3 6.3-4.6 6.1-53.9 6.4-51.4.3-51.5.3-58.5-6.7-5.1-5.1-7-10.1-7-18V337H35.9c13.5 0 18.5-1 20.1-4s1.2-6.4-1-8.8c-2-2.1-2.9-2.2-17-2.2H23l-0-15.5Zm356-0V291h63 63v15.5V322H442 379V306.5ZM201 286V271h63 63v15 15H303 278.9l-2.4 2.5c-3.2 3.1-3.2 6.9 0 10l2.4 2.5H303h24v15.5V347H264 201V331.5 316h24 24.1l2.4-2.5c1.4-1.3 2.5-3.6 2.5-5s-1.1-3.7-2.5-5l-2.4-2.5H225 201V286ZM23 261l-0-15H86h63v15 15H86 23l-0-15Zm194.9-35c4.2-1.2 88.3-1.2 92.1-.1 11.2 3.4 17 11.5 17 23.6V256H263.9 200.8l.3-7.9c.4-6.9.8-8.5 3.4-12.3 3.5-4.9 8.2-8.3 13.4-9.8ZM38.7 201.4c3-1 13.4-1.3 47.3-1.3 24.9.1 45.1.5 47.2 1.1 4.9 1.3 11.6 7.2 13.9 12.2 1.2 2.7 1.9 6.5 1.9 10.8V231H86 23v-6.3c-0-11.1 5.9-19.7 15.7-23.3Zm356.8-.3c5-1.3 88.4-1.4 92.5-.2 10.9 3.3 16.9 11.9 17 23.8V231H489.1h-16l-2 2.6c-2.7 3.5-2.6 5.7.3 9.1l2.4 2.8 15.6.3 15.6.3v15V276H442 379V261 246.1l33.1-.3 33.1-.3 1.9-2.4c2.5-3 2.4-7.6-.1-10.1-1.9-1.9-3.3-2-35-2H379v-6.8c0-4.3.7-8.1 1.9-10.8 2.4-5.3 9.1-10.9 14.6-12.3Zm-164.3 1.6.3-7.2 32.1-.3c17.6-.1 32.3.1 32.7.5.4.3.7 3.7.7 7.5V210H264 230.9l.3-7.3ZM53.6 171.6c.5-1.4 4.3-1.6 32.3-1.6 17.5 0 32.1.3 32.4.7.4.3.7 3.7.7 7.5V185H86 53v-5.9c0-3.3.3-6.6.6-7.5Zm355.6 6.1.3-7.2 32.1-.3c36.5-.3 33.4-1.1 33.4 8.9V185H442 408.9l.3-7.3ZM257.1 167.4c3.3-6.3 6.4-11.4 6.9-11.4.8 0 13 21.9 13 23.4 0 .3-5.9.6-13 .6-7.2 0-13-.3-13-.6 0-.4 2.7-5.8 6.1-12ZM79 142.8c3.4-6.2 6.5-11.6 6.8-12 .4-.4 3.7 4.8 7.3 11.5l6.7 12.2-13.1.3c-7.1.1-13.2.1-13.4-.2-.3-.2 2.3-5.5 5.7-11.8Zm362.2 12-13-.3 6.8-12.3 6.8-12.4 2.9 5.4c8.2 14.6 10.4 19 10 19.4-.2.3-6.3.3-13.5.2Zm76.7-61.2c-1.2-1.5-3-2.6-4.5-2.6-1.3 0-10.9 2-21.2 4.4-59 13.9-122 23.5-181.7 27.7-21.8 1.5-71.1 1.5-93 0-60-4.2-122.6-13.7-181.7-27.7C25.5 93 15.9 91 14.6 91 11.7 91 8 95.2 8 98.5c0 4.7 2.9 6.3 17.5 9.9 12.8 3.2 46.4 10.6 48 10.6 1.2 0 0 2.6-9 19.3C58 150.3 55 155 53.7 155c-2.5 0-8.8 3.4-11 5.8-3.1 3.4-4.6 9.2-4.7 17.4v7.6l-3.8 1.3c-10.1 3.2-19.4 11.9-23.4 21.7l-2.3 5.7 0 69.5 0 69.5 2.7 5.7c3.6 7.7 10.7 15.1 18.1 18.8 3.3 1.6 6.6 3 7.4 3 1 0 1.3 1.9 1.3 7.2 0 9 1.3 13.8 4.7 17.9 4.9 5.8 5.9 5.9 43.9 5.9h34.7l4.3-2.5c6.1-3.6 8.4-8.8 8.4-19.6v-8.4l4.9-1.8c11.1-3.9 20.5-13.5 23.6-24.1 2.3-7.5 2.2-136.8-0-144.3-3-10.1-14.7-21.6-24.6-24.3l-3.9-1.1v-8.5c0-5-.6-9.8-1.4-11.7-1.9-4.5-6.6-8.6-11.7-10.1-4.2-1.3-4.4-1.6-12.2-16-4.4-8.1-7.8-14.8-7.6-15s9.8 1.2 21.4 3c39.8 6.1 78.8 10 110.5 11 10.7.3 20 .7 20.7.9s-3 8.1-9.5 20.1l-10.7 19.7-4.4 1.3c-9 2.6-13 9.4-13.1 22v8.1l-6 2.2c-8.3 3-16.8 11-20.6 19.3l-2.9 6.3v70 70l2.9 6.2c3.4 7.5 11.2 15.3 18.8 18.8 2.9 1.4 5.8 2.5 6.4 2.5.8 0 1.3 3.4 1.6 9.9.3 9.3.6 10.2 3.4 13.8 5.9 7.3 5.7 7.3 44.1 7.3 21.7 0 35.2-.4 37-1.1 4.2-1.5 9.2-6.8 10.3-10.9.5-1.9 1-7 1-11.3 0-5.5.4-7.7 1.2-7.7.7 0 3.7-1.1 6.6-2.5 7.6-3.5 15.4-11.3 18.8-18.8l2.9-6.2v-70-70l-2.9-6.2c-4.3-9.5-14.8-18.5-23.9-20.7-2.7-.6-2.7-.7-2.7-8.9-.1-12.7-4.1-19.5-13.1-22.1l-4.4-1.3-10.7-19.7c-6.5-12-10.2-19.9-9.5-20.1.7-.2 10-.6 20.7-.9 34.7-1.1 80.8-6 126-13.5 3-.5 5.7-.7 5.9-.5.2.1-3.2 6.9-7.6 15-7.8 14.4-8 14.7-12.2 16-5.1 1.5-9.8 5.6-11.7 10.1-.8 1.9-1.4 6.7-1.4 11.7 0 8.5 0 8.6-2.8 9.2-9 2.2-19.4 11-24 20.4l-2.7 5.5-.3 68.9c-.3 76.8-.5 74.6 6.5 84.5 4.3 6.1 11.1 11.2 18.4 13.8l4.9 1.8v8.4c0 10.8 2.3 16 8.4 19.6l4.3 2.5h34.7c38-0 39-.1 43.9-5.9 3.4-4.1 4.7-8.9 4.7-17.9 0-5.3.3-7.2 1.3-7.2.8 0 4.1-1.4 7.4-3 7.4-3.7 14.5-11.1 18.1-18.8l2.7-5.7v-70-70l-2.7-5.7c-4.5-9.8-13.2-17.6-23.1-20.7l-3.7-1.3v-7.6c-.1-8.2-1.6-14-4.7-17.4-2.2-2.4-8.5-5.8-11-5.8-1.3 0-4.3-4.7-10.8-16.7-8.8-16.4-10.2-19.3-9.1-19.3 1.4 0 30.9-6.5 45.9-10.1 13.1-3.2 17-4.5 18.2-6.2 2.1-3 1.9-6-.6-9.1ZM253.3 68.7c-.5-3.6-.5-3.7 2.3-3.6 7.1.1 20.5 7.5 22.9 12.5 2 4.2 2 4.2-2.1 5.9-2.3 1-4 2.5-4.7 4.5-1.4 3.6-4.2 4-8 1-3.1-2.5-9.5-14.9-10.4-20.3Zm12.2-16.8c-7-2.5-16.8-2.5-21 .1S238 59.5 238 65.7c0 14.9 12.8 35.9 23.8 39.1 11.6 3.5 19.2 1.9 22.2-4.5.8-1.8 2.1-3.3 2.7-3.3.7 0 2.7-1.3 4.5-2.9 3.2-2.8 3.3-3.3 3.3-10.3 0-15.2-8.4-24.4-29-31.9ZM122.3 24.7c.8-2.2 1.7-2.2 5.8.5 3.9 2.6 10.5 14.8 11.6 21.2l.6 3.9-3.9-.6c-6.4-1.1-18.6-7.7-21.2-11.6-1.2-1.9-2.2-3.8-2.2-4.3s1-1.2 2.2-1.7c2.6-1 6.2-4.7 7.1-7.4Zm8.5-14.8c-3.6-1.3-7.2-1.8-11.2-1.6-5.2.3-6.3.8-8.7 3.5-1.6 1.8-2.9 3.9-2.9 4.7s-.7 1.5-1.5 1.5-2.9 1.3-4.7 2.9c-3.2 2.8-3.3 3.2-3.3 10.3.1 12.6 5.2 20.3 18.3 27.1 13.9 7.3 27.3 8.8 32.8 3.6 5.9-5.5 7-13.3 3.3-24.2-4.8-14.5-12.8-24.6-22.1-27.8ZM413.2 24.4c3.6-1.9 3.5-1.9 5.3 2 1 2 3 4.1 5 5 3.2 1.5 3.3 1.8 2.3 4.7-.5 1.6-2.5 4.1-4.2 5.4-4.2 3.2-13.6 7.5-18.2 8.2l-3.7.6.7-4.3c.7-4.5 5.6-15.3 8.4-18.4.9-1 2.9-2.4 4.4-3.2ZM425.6 8.9c-3.3-1.4-13.7-.4-18.7 1.8-6 2.7-10.9 7.9-15.2 16.1-9.2 17.6-8.8 31.9 1 36.7 12.7 6.2 42.4-7.7 47.4-22.1.7-2.1 1.3-7 1.4-10.7 0-6.5-.2-7-3.3-9.8-1.8-1.6-3.9-2.9-4.7-2.9s-1.5-.6-1.5-1.4c0-1.9-3.9-6.6-6.4-7.7Z" stroke="#44739e" stroke-width="4" fill="none"/>
</svg>