<svg xmlns="http://www.w3.org/2000/svg" viewBox="0 0 478 478">
	<path d="M394.4 420.1C390.9 417.4 387.8 417.5 384.4 420.3 382.4 422 381.7 423.6 381.7 426S382.4 430 384.4 431.7C389.8 436.3 397 433 397 426 397 423 396.4 421.7 394.4 420.1ZM406.5 382.8C403.6 382.2 399.1 383.9 398 386 395.3 391.1 398.8 398 404.1 398 408.2 398 409.9 397.1 411.6 393.9 414 389.2 411.5 383.8 406.5 382.8ZM428.7 349.5C421.3 344.3 411.6 354.6 418 361 422.2 365.2 428.2 364.2 431 358.9 432.5 356.2 431.3 351.3 428.7 349.5ZM383.5 378.1C398.9 347.8 411.7 323.1 412 323.1 412.8 323.1 458.3 347.9 459.2 348.8 459.9 349.5 403.4 455.9 401.1 458.3 400.7 458.7 393.6 455.4 385.4 450.9S367 441 362.7 438.8C358.4 436.7 355 434.5 355.2 434S368.1 408.4 383.5 378.1ZM267.5 277.4C287.1 273 293.1 272 300 272.1 304.7 272.2 309.4 272.4 310.5 272.6 317.8 274.2 325.3 276.6 330.5 279.2 342.4 285.2 394.5 313.3 395.9 314.6 397 315.6 392.5 325.2 369.2 371.2 353.7 401.6 340.5 427.3 339.8 428.2 338.7 429.6 337.5 429.7 331.5 429.1 326.8 428.6 308.7 429.2 276.5 431.1 218 434.6 203.4 434.7 187.4 432 172.9 429.5 155.5 423.8 142.4 417.2 111.5 401.5 58.1 371.9 54.5 368.4 49 363.1 46.7 357.8 46.2 349.8 45.9 344.3 46.2 342.2 48.2 337.8 53.2 327 61.8 321.5 73.5 321.6 81.6 321.6 78.7 320.3 119.8 342.5 152.4 360 157.2 362.2 169.1 364.6 181.3 367 197.4 366 234 360.5 260 356.6 264.8 355.6 266.7 353.8 270.6 350.2 269.7 343.9 265 341.5 262.5 340.2 259.9 340.4 238.8 343.5 226 345.5 214.6 347.1 213.5 347.3 211.7 347.5 211.4 346.6 210.3 337.5 207.6 314.1 209.2 305.5 217.7 296 225.9 286.9 226.8 286.6 267.5 277.4ZM316 257.5C311.9 256.6 305.1 256.2 297.5 256.4 287 256.7 282.1 257.5 258.7 262.9 228.7 269.8 223 271.5 215.9 276.1 205.8 282.5 196.8 295.4 194.1 307 192.7 313 192.8 325.1 194.4 338.3 195.1 344.2 195.4 349.3 195.1 349.5 193.8 350.9 175.6 349.8 168.4 348 160.6 346 156.4 343.9 106.5 317.2 84.5 305.4 77.3 303.5 64.8 306.1 51.3 308.9 40.4 317.4 34.3 329.8 30.6 337.2 30.5 337.7 30.5 348.5 30.5 359.3 30.6 359.8 34.3 367.2 40.7 380.2 43.6 382.3 93 409 140.8 434.8 148.8 438.6 166.1 443.5 191.9 451 205.6 451.4 277 447.1 327.9 444 333.4 444.1 344.5 448.1 347.8 449.3 362.1 456.5 376.2 464.1 390.3 471.8 403 478 404.3 478 405.7 478 407.7 477.2 408.8 476.3 411.8 473.7 479 348.7 479 345.7 479 344.3 478.2 342.3 477.2 341.1 475.8 339.4 362.5 277.4 339.5 265.8 332 261.9 324.3 259.2 316 257.5ZM105.2 176.2C110 175 115.6 173.4 117.6 172.5L121.2 171 119.8 173.3C109.2 189.6 108 193 112 197 114.6 199.6 120 200 122.7 197.8 123.3 197.3 126.9 192 130.7 186L137.4 175.2H143.2 149V180.3C149 188.4 145.6 202.9 141.8 211.1 133.5 228.8 117.4 243.7 98.5 251.2 89.5 254.7 87.8 254.8 88.6 251.5 89.6 247.6 87.2 239.7 83.8 235.5 79.5 230.4 72 227 64.9 227 59.3 227 59.2 227 58.7 223.7 58 219.4 59.7 206 61.7 200.2 63.9 193.4 66.3 189.1 70.7 183.6L74.7 178.7 85.6 178.5C92.7 178.4 99.6 177.5 105.2 176.2ZM174 155C174.7 153.3 175.5 152 175.9 152 176.2 152 180 153.9 184.3 156.2 198.8 163.8 212.4 178.9 218.6 194.1 222.2 202.8 225 216.9 225 226.2 225 236.5 224.6 237.4 221 235.5 216.5 233.2 210.4 232.6 205.2 234.1 199.1 235.8 190.7 243.9 188.9 249.9 187.5 254.7 187.4 254.7 176.2 249.4 168.4 245.6 158.3 237 154.3 230.6L151.8 226.7 155.9 218.1C160.9 207.5 163.8 196.2 164.8 184L165.5 174.8 170.8 182.4C173.7 186.6 176.9 190.4 178 191 184.5 194.5 192.3 187.3 188.9 180.8 188.3 179.6 184.4 173.9 180.2 168.2 173.1 158.3 172.8 157.8 174 155ZM135.2 126.1C140.8 123.4 145.4 123.4 150.8 126.1 161 131.2 163.7 144.2 156.4 153 152.7 157.3 148.9 159 143 159S133.3 157.3 129.7 153.1C122.2 144.1 124.8 131.2 135.2 126.1ZM203.4 93C213.5 90.7 224.5 90 233.2 91 239.7 91.8 247 93.7 247 94.6 247 94.8 245.9 96.8 244.5 98.9 240.8 104.5 240.2 111.3 243 117.8 245.3 123.1 253.7 132 256.5 132 258.6 132 258.4 132.7 254.8 139 249.9 147.6 239.8 157.1 230.9 161.3 226.7 163.4 222.6 165 221.9 165 221.1 165 217.3 161.9 213.5 158.2 204.9 149.8 196.5 144.1 184.7 138.5L175.7 134.2 179.6 133.1C181.7 132.6 186.5 131.4 190.2 130.4 197.9 128.5 201 126.1 201 122 201 117.8 200.1 116.1 196.9 114.5 194.3 113.1 193 113.3 181 116.2 168.7 119.3 167.9 119.3 166.3 117.7 164.7 116.1 164.8 115.8 168.5 111.9 177.2 102.9 189.6 96.2 203.4 93ZM51.1 89.3C63.2 85 85.8 85.4 88 90 88.4 90.8 89.7 95.4 90.8 100.3 92.5 107.3 96.1 116.1 101.8 127.2 102 127.7 99.2 128 95.5 128 87.7 128 85.7 128.9 84 132.9 83.1 135.3 83.1 136.4 84.2 138.6 86.2 142.9 89.4 144 100.2 144 109.8 144 110 144 110 146.4 110 147.7 110.7 150.6 111.5 152.9 112.9 157 112.9 157.1 110.5 158 91.9 165.1 69 163.5 49.7 153.9 42.3 150.2 32.6 143.4 28.5 139.1 26 136.4 25.8 135.8 27 135 27.8 134.5 29.1 134 29.8 134 32.5 134 39.6 125.5 40.9 120.8 42.6 114.7 41.6 106.7 38.5 101.2L36.1 97 39.9 94.4C42.1 93 47.1 90.7 51.1 89.3ZM116.8 34.1C118.8 31.1 120.9 28.5 121.5 28.3 122 28.2 124 29.9 125.9 32.1 134.1 42 149.3 42.5 159.1 33.4L161.6 31 164.2 33.7C172.6 42.5 178.4 57.4 178.5 70 178.5 83.9 178 85.1 170.2 90.1 166.5 92.5 160.2 97.7 156.2 101.7S148.7 109 148.5 109C148.2 109 148 104.3 148 98.6 148 87.5 146.9 82.5 144 81 141 79.4 136.5 79.9 134.2 82 132.2 83.9 132 85 132 96.9V109.6L128.5 111.3C126.6 112.2 123.3 114.5 121.2 116.5 119 118.4 117 120 116.6 120 115.6 120 109.4 106.9 107 100 100.6 81 105 51.5 116.8 34.1ZM129.6 11.9C115.1 3 94.5 29.5 89 64.3 87.8 71.6 87.5 72.1 85.6 71.5 84.4 71.2 78.8 70.6 73 70.3 60.3 69.6 50.2 71.8 37.4 77.9 25 83.8 18 91 18 97.7 18 100.6 21.3 107 22.8 107 24 107 26 111.6 26 114.4 26 117.2 23.9 119.2 17.8 121.8 10 125.2 7.1 132.5 10.4 140.3 14.8 150.7 32.2 164.3 49.5 171.1 52.8 172.4 55.9 173.7 56.3 174.1 56.8 174.4 55.3 177.6 53.1 181 50.8 184.5 47.8 191 46.3 195.4 43.9 202.7 43.6 205 43.6 218.5 43.5 231.8 43.7 233.9 45.5 236.9 49.5 243.7 52.7 244.9 62.5 243.5 66.8 242.9 67.9 243.1 70.2 245 72.8 247 72.9 247.5 72.4 252.8 70.8 268.2 81.7 273.8 100.8 267.4 112.8 263.4 125.3 255.7 135.6 245.7L140.8 240.8 148.6 248.8C164.4 264.7 187.6 273.9 198.1 268.4 201.4 266.7 204 261.8 204 257.2 204 254.2 208.1 249 210.5 249 211.2 249 214.3 250.2 217.5 251.6 225.1 255.1 230.2 254.5 234.7 249.6 239.4 244.5 240.5 239.5 240.4 224 240.3 209.5 238.6 201.1 233.5 188.8 232 185.3 230.6 181.8 230.4 181 230 179.9 231.7 178.7 236.2 176.7 257.9 167.2 279.3 137.9 274 125 272.4 121.2 268.5 118 265.3 118 262.4 118 257 113 257 110.3 257 109.3 258.6 106.3 260.5 103.6 262.4 100.9 264.2 97.2 264.6 95.4 266.1 87.5 257.4 79.7 243.6 76.4 234.2 74.2 214.1 74.2 204 76.4 199.9 77.3 196 78 195.5 78 194.9 78 194.4 74 194.4 68.2 194.2 60.6 193.6 56.7 191.5 50.5 185.3 31.8 172.5 15.8 161.9 13.5 158.3 12.7 152.7 15.3 150.9 18.6 149.3 21.6 145.2 24 141.5 24 139.5 24 138.3 22.9 135.8 18.9 134.1 16.1 131.3 12.9 129.6 11.9Z" stroke="#44739e" stroke-width="4" fill="none"/>
</svg>