<svg xmlns="http://www.w3.org/2000/svg" viewBox="0 0 512 512">
	<path d="M503.27 203.39c0 5.88 0 11.76 0 17.64-7.4098 23.47-23.4171 34.5764-48.02 33.32-3.0047 15.2557-12.152 24.5657-27.44 27.93-6.4847.8781-12.8547.3881-19.11-1.47-18.1741 25.7828-40.7141 30.3565-67.62 13.72-13.1389 6.8139-26.3689 13.5113-39.69 20.09-7.5891 4.9402-10.5291 11.9638-8.82 21.07 1.1878 25.8691 2.9841 51.6754 5.39 77.42 1.0486 2.6872 2.5186 5.1372 4.41 7.35 6.1034 3.0841 12.3098 6.0241 18.62 8.82 9.9049 7.5578 14.3149 17.5214 13.23 29.89-.4557 1.4024-1.273 2.5451-2.45 3.43-26.214 1.1358-52.5104 1.6258-78.89 1.47-26.3796.1558-52.676-.3342-78.89-1.47-3.3202-4.7207-3.8102-9.7843-1.47-15.19 2.1864-6.7571 5.9427-12.4744 11.27-17.15 6.0045-3.3114 12.2118-6.2514 18.62-8.82 3.2409-2.7224 5.3645-6.1524 6.37-10.29.2058-5.6164.8585-11.1691 1.96-16.66 4.5737-5.2263 9.1463-5.2263 13.72 0 3.0909 15.5957-.9927 28.8257-12.25 39.69-4.7873 3.2311-10.0136 5.5184-15.68 6.86-2.7548 1.6111-5.0411 3.7338-6.86 6.37 42.14 1.3063 84.28 1.3063 126.42 0-1.4524-1.9433-3.086-3.7397-4.9-5.39-17.4371-3.7142-27.4008-14.3305-29.89-31.85-2.3667-29.3667-3.673-58.7667-3.92-88.2 1.7552-7.3039 5.5115-13.3476 11.27-18.13 24.9988-13.3162 50.1525-26.3836 75.46-39.2 1.1437-1.1437 2.2863-2.2863 3.43-3.43 4.362-24.8685 8.9356-49.6948 13.72-74.48 5.0637-5.0637 10.1263-10.1263 15.19-15.19-1.7963-1.7963-3.5937-3.5937-5.39-5.39-5.7663 4.0278-11.9727 6.9678-18.62 8.82-8.086-1.5719-16.0887-3.5319-24.01-5.88-1.6141.7624-2.9204 1.9051-3.92 3.43 6.0417 4.165 12.248 8.085 18.62 11.76 1.177.8849 1.9943 2.0276 2.45 3.43.2087 5.9457-.4449 11.8257-1.96 17.64-2.3863 4.6295-6.1436 6.0995-11.27 4.41-1.1437-1.1437-2.2863-2.2863-3.43-3.43-.3195-3.9494-.3195-7.8694 0-11.76-5.8379-3.9788-11.8805-7.5725-18.13-10.78-7.4813 2.2854-14.995 2.448-22.54.49-7.2569-1.9375-9.3806-6.3475-6.37-13.23.8163-.8163 1.6337-1.6337 2.45-2.45 5.88.3263 11.76.6537 17.64.98 12.2373-4.8275 15.8309-13.4838 10.78-25.97 1.2319-6.663 5.1519-9.113 11.76-7.35 4.5766 4.7461 6.5366 10.4625 5.88 17.15 6.9619 1.5582 13.8219 3.5182 20.58 5.88 5.0627-2.693 9.9627-5.633 14.7-8.82-1.4965-4.7109-.8438-9.1209 1.96-13.23 4.3267-2.2981 8.2467-1.8081 11.76 1.47.7095 4.5786 1.5259 9.1512 2.45 13.72 7.3382 11.9687 16.6482 13.7651 27.93 5.39 10.0195-1.2534 13.2868 2.8302 9.8 12.25-8.1673 6.8365-17.641 9.9401-28.42 9.31-5.0637 5.0637-10.1263 10.1263-15.19 15.19-4.5727 24.1658-9.1454 48.3395-13.72 72.52-2.0335 3.9974-4.8098 7.4274-8.33 10.29-5.3822 2.5274-10.6085 5.3038-15.68 8.33 19.6539 6.2583 32.5566-.6017 38.71-20.58 2.3638-3.2262 5.4674-4.3698 9.31-3.43 13.5593 9.0229 24.502 6.5729 32.83-7.35.8604-5.1626 2.0031-10.2253 3.43-15.19 1.8522-1.0898 3.8122-1.9071 5.88-2.45 16.7805 5.7869 29.3569.8869 37.73-14.7 4.2757-16.6012-1.2769-28.6875-16.66-36.26-1.96-3.5937-1.96-7.1863 0-10.78 13.5563-7.0207 17.149-17.4744 10.78-31.36-7.4343-8.1879-16.4179-10.4742-26.95-6.86-5.7928.2499-8.4064-2.5264-7.84-8.33 2.4157-15.2684-3.9543-24.2521-19.11-26.95-4.0533.1529-7.8096 1.2965-11.27 3.43-5.1264 1.6895-8.8837.2195-11.27-4.41-.8369-20.3271-11.2896-31.7603-31.36-34.3-12.8076 1.3915-22.1176 7.7615-27.93 19.11-3.138 1.4536-6.4053 1.7803-9.8.98-2.8508-3.3066-4.9745-7.0633-6.37-11.27-13.083-12.0906-25.0057-10.9472-35.77 3.43-2.9037 1.8133-5.8437 1.8133-8.82 0-2.8155-3.5057-5.2655-7.2624-7.35-11.27-13.5857-13.0146-28.1221-14.158-43.61-3.43-4.7991 4.8548-8.2291 10.5715-10.29 17.15-7.35 3.8422-12.5763 1.8822-15.68-5.88-12.1726-13.0622-26.0562-15.1855-41.65-6.37-6.1573 4.6367-10.241 10.6799-12.25 18.13-6.9168 4.7449-12.3068 3.2749-16.17-4.41-10.6448-7.7722-20.6084-6.9555-29.89 2.45-2.8371 4.8047-4.4708 10.0314-4.9 15.68-2.5499 3.6378-5.9799 4.7804-10.29 3.43-3.8614-1.8483-7.2914-4.2988-10.29-7.35-1.9719-7.3327.8048-11.2527 8.33-11.76 4.3456-12.6675 13.1653-20.3442 26.46-23.03 10.2567-1.8041 19.5667.3193 27.93 6.37 16.3827-20.8553 36.799-25.9186 61.25-15.19 3.3702 2.0958 6.4739 4.5458 9.31 7.35 18.0222-21.0477 39.4195-25.131 64.19-12.25 4.0503 3.0685 7.8067 6.4985 11.27 10.29 14.3923-10.2587 28.9296-10.422 43.61-.49 2.1237 2.1234 4.2463 4.2466 6.37 6.37 18.4524-15.5152 38.2151-17.3118 59.29-5.39 9.41 7.2212 15.78 16.5312 19.11 27.93 23.8934-2.6637 38.4307 7.7896 43.61 31.36 28.1407 4.0366 40.0634 20.0439 35.77 48.02-1.9639 5.2263-4.7403 9.9627-8.33 14.21 6.7404 6.469 11.3141 14.1453 13.72 23.03ZM1.51 180.85c0-6.2063 0-12.4137 0-18.62 3.8324-13.1487 11.8358-22.9487 24.01-29.4-1.2736-21.8011 7.7097-37.6448 26.95-47.53 8.6709-.149 11.7743 3.9344 9.31 12.25-17.4256 9.7089-23.9588 24.4089-19.6 44.1-1.1434 1.1437-2.2866 2.2863-3.43 3.43-17.9937 5.9398-24.6904 18.1898-20.09 36.75 3.1693 6.4376 7.7426 11.664 13.72 15.68.6534 2.6137.6534 5.2263 0 7.84-10.5663 18.7043-6.8095 33.8943 11.27 45.57 14.0221 5.392 26.4355 2.7783 37.24-7.84 4.3101-1.3504 7.7401-.2078 10.29 3.43-1.5216 16.7404 5.5016 28.0104 21.07 33.81 4.2463.6537 8.4937.6537 12.74 0 1.5131-.2842 2.8195-.9369 3.92-1.96-3.43-2.1237-6.2063-4.9-8.33-8.33-3.0645-12.3843-6.0045-24.7979-8.82-37.24-5.5409-2.2824-10.4409-5.5488-14.7-9.8-2.7576-10.3086.999-14.0659 11.27-11.27 9.8186 8.8994 19.1286 8.4094 27.93-1.47 1.5151-4.5217 2.8214-9.0954 3.92-13.72 5.8124-4.4257 10.386-3.4457 13.72 2.94.4361 6.4758-.7066 12.6832-3.43 18.62 2.7273 8.0683 5.9947 15.9083 9.8 23.52 14.114 6.812 27.9976 13.9983 41.65 21.56-.8918-8.5485-2.3618-17.0422-4.41-25.48-19.5677-4.5933-28.5513-16.6796-26.95-36.26 4.5737-5.2263 9.1463-5.2263 13.72 0 1.2956 16.3895 9.6256 22.1068 24.99 17.15 2.2785-2.2452 4.5648-4.5315 6.86-6.86 3.3947-.8007 6.662-.4733 9.8.98 4.2875 6.9874 10.4938 9.6001 18.62 7.84 7.5627-3.1987 11.319-8.916 11.27-17.15 4.5982-7.2167 9.4982-7.5431 14.7-.98 1.1113 15.7329-5.585 26.8402-20.09 33.32 3.7563 8.1663 7.5137 16.3337 11.27 24.5 26.5129-6.9139 53.1366-13.4476 79.87-19.6.3528-11.5219 5.4165-14.4619 15.19-8.82.8575 1.3455 1.3475 2.8155 1.47 4.41-.7634 4.4198-1.5807 8.8298-2.45 13.23-.8163 2.1237-2.2863 3.5937-4.41 4.41-31.2885 7.985-62.6485 15.6624-94.08 23.03-2.3775.0941-4.5011-.5586-6.37-1.96-6.1485-12.6224-12.0285-25.3624-17.64-38.22-4.0268-1.2328-7.7832-3.0302-11.27-5.39-3.6701-.1068-6.6101 1.3632-8.82 4.41 2.989 13.6367 5.6017 27.3567 7.84 41.16-.7487 7.0864-4.6687 9.5364-11.76 7.35-20.4065-10.0391-40.6592-20.3291-60.76-30.87-3.7877-6.9237-7.054-14.11-9.8-21.56-.6537-.3263-1.3063-.6537-1.96-.98-2.4716 1.2368-5.0852 1.8904-7.84 1.96 1.3524 9.5403 3.1487 19.013 5.39 28.42.4557 1.4024 1.273 2.5451 2.45 3.43 24.3363 15.2723 48.8363 30.2996 73.5 45.08 9.3404 5.0921 15.3831 12.7684 18.13 23.03.4635 11.122.1372 22.2293-.98 33.32-1.7924 5.5448-5.5497 7.3422-11.27 5.39-1.7963-.49-2.94-1.6337-3.43-3.43-.5439-8.3388-.3812-16.6688.49-24.99.7967-7.4147-1.8169-13.2947-7.84-17.64-19.8597-11.6983-39.4597-23.7846-58.8-36.26-6.1985 2.7489-12.7312 5.0362-19.6 6.86-24.8273 2.7518-41.4876-7.5382-49.98-30.87-28.2443 10.241-49.3143 2.0747-63.21-24.5-4.8506-12.5068-4.3606-24.7568 1.47-36.75-6.7404-6.469-11.3138-14.1453-13.72-23.03ZM147.53 306.29c23.2299 2.8165 31.8863 15.5565 25.97 38.22-7.0717 11.4689-17.3617 18.1653-30.87 20.09-6.86.6537-13.72.6537-20.58 0-2.1237-.8163-3.5937-2.2863-4.41-4.41-2.3608-16.2611 1.2328-30.9611 10.78-44.1 5.3243-5.5194 11.6943-8.7857 19.11-9.8Zm.98 15.68c13.4407 4.6413 15.0734 11.9913 4.9 22.05-6.3426 3.7906-13.2026 5.587-20.58 5.39-.0588-9.1356 2.8812-17.1382 8.82-24.01 2.1687-1.5837 4.4561-2.7273 6.86-3.43Zm260.68-12.74c15.6094-1.1652 29.4921 3.0811 41.65 12.74.49 1.47.98 2.94 1.47 4.41-5.2459 15.4262-15.0459 26.8598-29.4 34.3-21.5228 5.9016-34.2628-2.1021-38.22-24.01 1.3632-15.4017 9.5295-24.548 24.5-27.44Zm1.96 15.68c7.9115-.5537 15.4242.9163 22.54 4.41-4.4178 9.6481-11.7678 15.6918-22.05 18.13-10.4772-3.0262-13.0899-9.2336-7.84-18.62 2.4637-1.4739 4.9137-2.7812 7.35-3.92Zm-70.56 10.78c19.2305 1.0986 28.8679 11.2259 28.91 30.38-4.408 16.5003-14.698 27.7703-30.87 33.81-2.7205 1.0163-5.4978 1.8326-8.33 2.45-2.3579-.1989-4.3179-1.1789-5.88-2.94-9.4433-16.4091-10.7496-33.3955-3.92-50.96 4.9412-7.1197 11.6375-11.366 20.09-12.74Zm.98 15.68c12.8792 3.2232 15.6555 10.4105 8.33 21.56-4.1209 4.4267-8.8572 8.0193-14.21 10.78-5.8692-9.3198-6.0319-18.7935-.49-28.42 1.9727-1.713 4.0964-3.0204 6.37-3.92ZM85.79 373.91c13.0282-1.2436 22.9918 3.6564 29.89 14.7 7.3 13.2447 9.0973 27.1274 5.39 41.65-16.513 4.4884-31.8664 1.8757-46.06-7.84-13.5853-13.476-14.2387-27.5223-1.96-42.14 4.0739-2.6901 8.3206-4.8138 12.74-6.37Zm1.96 15.68c10.1729.8565 16.2161 6.4092 18.13 16.66 1.0858 3.5143 1.5758 7.1079 1.47 10.78-9.6826.0951-18.0126-3.1713-24.99-9.8-3.8261-7.6303-2.0295-13.5103 5.39-17.64Zm299.88 5.88c15.7917-1.8218 27.7154 4.0582 35.77 17.64 4.2532 8.3486 7.0295 17.1686 8.33 26.46-.1245 2.8293-1.1045 5.2793-2.94 7.35-15.1743 6.1299-30.2016 5.8026-45.08-.98-11.8864-6.8816-16.6228-17.1716-14.21-30.87 2.5353-9.8813 8.5779-16.415 18.13-19.6Zm2.94 15.68c9.2443-.5204 15.9417 3.3996 20.09 11.76 1.4749 3.773 2.9449 7.5293 4.41 11.27-9.8568 2.2785-19.0032.6458-27.44-4.9-4.5325-6.9864-3.5525-13.0301 2.94-18.13Z" stroke="#44739e" stroke-width="4" fill="none"/>
</svg>