<svg xmlns="http://www.w3.org/2000/svg" viewBox="0 0 476 476">
	<path d="M315.33 466.9C294.18 463.3 271.23 448.18 251.88 425.05 235.14 405.07 221.28 378.43 215.79 355.75 214.71 351.34 213.63 347.11 213.36 346.39 213.09 345.67 211.29 348.01 209.04 351.97 200.94 366.19 189.69 380.41 177 392.47 146.31 421.72 110.94 437.29 83.58 433.6 75.57 432.52 72.96 431.62 71.07 429.19 69.27 426.85 69.63 425.32 74.76 414.61 79.8 403.99 81.96 396.97 81.06 394.54 79.8 391.12 71.34 393.19 56.67 400.48 49.92 403.81 49.02 404.08 46.59 403 42.45 401.38 40.83 396.34 40.92 385.45 40.92 373.93 42.27 366.1 46.05 354.76 49.2 345.13 56.13 330.46 58.65 327.94 60.99 325.6 65.85 326.05 68.01 328.84 70.53 332.08 70.44 333.34 66.84 340.09L63.78 345.85 75.21 345.94C88.44 346.03 96.72 348.19 105.36 353.95 120.93 364.3 128.85 386.08 124.8 407.5 124.26 410.11 123.99 412.36 124.17 412.54 124.26 412.63 127.59 411.1 131.55 409.12 158.73 395.35 185.82 368.17 199.59 340.72 202.83 334.33 209.4 316.42 209.4 314.17 209.4 313.63 207.06 312.37 204.27 311.38 199.59 309.67 193.56 306.43 186.9 301.93 184.56 300.4 184.56 300.4 178.08 306.97L171.6 313.45 172.59 317.05C176.37 330.64 164.49 344.77 150.54 343.33 138.57 342.16 130.83 333.61 130.92 321.82 131.01 313.63 136.23 305.89 143.88 302.74 147.84 301.03 156.12 300.85 159.45 302.38 161.61 303.37 162.15 303.1 168 297.25 171.51 293.83 174.3 290.77 174.3 290.41 174.3 290.14 172.5 287.17 170.34 283.75 168.09 280.42 165.21 274.75 163.86 271.06 162.51 267.37 160.89 264.4 160.26 264.4 157.11 264.4 143.7 269.44 134.52 274.12 119.13 281.95 107.25 290.77 93.12 305.08 79.98 318.22 78.36 319.21 74.58 315.7 71.79 313.09 71.16 309.85 73.05 306.97 75.75 302.83 88.98 289.6 97.17 282.76 107.43 274.12 116.79 267.82 128.13 261.97 133.26 259.36 137.13 257.2 136.86 257.2 136.59 257.2 132.36 256.39 127.5 255.4 90.33 247.84 49.74 221.74 26.79 190.69 20.4 182.05 12.21 165.85 10.05 157.75 9.24 154.78 8.34 148.84 8.07 144.52 7.62 137.05 7.62 136.69 9.87 134.44 12.75 131.56 13.38 131.56 24 134.26 35.88 137.23 46.14 137.68 47.13 135.25 47.94 133 42.54 123.28 36.15 115.45 27.6 104.92 27.96 101.5 38.4 97.45 52.08 92.05 72.15 91.24 89.97 95.2 119.67 101.77 151.62 119.5 174.93 142.27L181.32 148.57 180.87 141.46C179.88 127.51 183.84 97.99 187.08 93.76 189.6 90.61 194.46 91.06 197.07 94.48 198.96 96.91 198.96 97.09 197.43 104.92 194.64 119.32 193.74 135.43 194.91 148.12 195.9 159.46 198.15 170.44 200.76 176.47L202.02 179.71 208.23 177.55C214.35 175.39 225.51 173.5 231.81 173.5L235.14 173.5 237.12 160.36 239.1 147.13 235.05 143.44C230.01 138.67 228.03 134.08 228.03 127.15 228.12 117.61 233.7 110.14 242.88 107.35 248.37 105.73 248.55 105.73 254.22 106.99 262.41 108.7 269.25 116.62 270.33 125.62 271.32 134.62 264.57 144.97 256.11 147.58 252.33 148.66 252.87 146.86 249.63 168.19L248.37 176.02 252.06 177.1C256.74 178.45 265.38 182.86 270.42 186.28 275.1 189.52 275.1 189.43 281.49 179.89 292.92 162.79 301.74 139.21 305.25 115.9 306.69 106.63 307.41 77.65 306.24 76.57 305.88 76.21 304.53 76.84 303.18 77.92 296.43 83.41 287.43 88.63 280.59 90.97 273.66 93.4 272.22 93.58 263.94 93.22 253.14 92.68 247.11 90.7 239.19 84.85 232.17 79.72 225.69 71.53 220.83 61.63L216.87 53.71 214.53 57.58C213.36 59.74 210.66 64.96 208.68 69.28 204 79.36 200.13 81.52 195.27 76.66 192.21 73.6 192.75 70.72 198.51 59.2 211.11 34 228.75 15.01 245.58 8.62 251.25 6.55 252.87 6.55 255.66 8.98 257.64 10.78 258.09 12.22 258.9 20.32 259.98 30.4 262.59 40.3 264.66 42.01 267.45 44.35 273.75 37.96 281.31 25.09 288.15 13.39 291.57 12.94 299.85 22.93 309.39 34.54 315.15 48.22 318.39 67.12 320.01 77.11 320.28 80.89 319.83 97 319.2 123.55 314.7 144.07 304.89 165.76 303.36 169.18 302.19 172.06 302.37 172.24 302.46 172.42 306.69 170.89 311.55 168.91 322.44 164.5 337.02 160.63 350.79 158.47 364.29 156.4 388.95 156.4 401.55 158.56 425.49 162.52 446.1 172.51 456.27 184.84 461.85 191.77 460.68 193.93 447.81 200.68 437.91 205.81 430.8 211.39 430.8 214 430.8 217.24 440.34 220.57 457.98 223.45 461.58 223.99 465 227.41 465 230.38 465 233.35 458.97 243.97 453.84 249.91 429.9 278.26 380.4 296.71 333.69 294.73L321.63 294.28 326.58 299.32C344.58 317.95 360.6 345.94 368.25 372.04 374.91 395.26 375.09 419.38 368.7 436.48 365.64 444.58 363.3 447.46 359.52 447.82 356.64 448.09 355.56 447.46 349.62 442.15 338.37 431.98 329.91 427.21 328.11 430.09 326.76 432.25 327.3 443.59 329.1 452.41 331.35 463.03 331.35 462.94 328.65 465.55 326.31 467.98 323.52 468.25 315.33 466.9ZM314.07 442.33C313.44 430.45 314.88 423.79 318.93 419.92 326.22 412.99 336.39 414.61 349.62 424.6 354.12 428.02 356.73 429.46 357.18 428.83 358.26 426.85 359.7 417.04 359.7 411.37 359.7 405.79 359.61 405.7 356.37 403.63 350.07 399.67 339.63 395.62 332.43 394.36 323.16 392.74 316.41 393.73 307.95 398.05 304.53 399.76 300.93 401.2 300.03 401.2 297.6 401.2 294 397.15 294 394.36 294 386.8 314.25 378.61 329.01 380.14 335.94 380.86 348.45 384.28 353.4 386.8 355.38 387.79 357.18 388.6 357.54 388.6 359.7 388.6 352.5 366.01 345.84 352.15 332.97 325.33 314.52 302.65 295.53 290.41L289.05 286.18 282.3 293.2C278.61 296.98 274.38 301.03 272.85 302.11L270.15 304.18 276.63 316.42C282.66 327.94 283.2 328.75 285.45 328.48 292.74 327.58 302.1 332.98 305.88 340.36 308.58 345.49 308.58 354.4 305.97 359.35 302.01 366.82 295.44 370.87 287.25 370.96 270.15 371.23 259.89 352.51 269.16 338.2L271.23 335.05 264.84 323.08C259.44 312.91 258.18 311.2 256.65 311.56 255.66 311.83 251.79 312.91 248.1 313.9 244.41 314.89 237.84 315.97 233.52 316.33L225.78 316.87 225.24 319.57C224.34 323.8 226.41 341.26 228.84 350.98 234.33 372.94 243.78 392.65 257.1 410.2 262.5 417.22 274.83 430.9 275.82 430.9 276.18 430.9 277.17 427.12 278.07 422.62 279.78 413.62 281.85 410.2 285.63 410.2 291.66 410.2 293.64 414.07 291.84 422.17 291.12 425.23 290.4 430.9 290.22 434.77L289.95 441.88 296.7 445.57C302.91 448.99 310.92 452.32 313.53 452.41 314.34 452.5 314.52 449.98 314.07 442.33ZM104.01 419.11C108.15 418.21 108.6 417.85 109.5 414.88 114.27 397.87 112.38 381.49 104.64 371.32 97.62 362.23 83.76 357.73 68.55 359.62 63.96 360.16 59.64 360.88 58.92 361.15 57.12 361.87 54.6 373.39 54.6 380.59 54.6 385.45 54.78 385.99 56.22 385.45 66.3 381.13 73.23 379.42 79.35 379.78 84.75 380.05 86.37 380.5 89.07 382.57 95.73 387.7 96.45 398.23 91.05 411.28 87.09 420.73 86.91 420.1 93.57 420.1 96.81 420.1 101.58 419.65 104.01 419.11ZM291.03 356.29C296.34 353.05 295.71 345.76 289.95 342.97 286.98 341.53 286.62 341.53 283.65 342.97 278.25 345.58 277.8 353.77 283.11 356.65 286.26 358.36 287.61 358.27 291.03 356.29ZM157.29 327.49C158.73 326.05 159.9 323.98 159.9 322.99 159.9 316.06 151.98 312.28 146.94 316.87 143.52 319.93 143.43 324.52 146.85 327.85 149.91 331 153.87 330.82 157.29 327.49ZM245.49 300.76C254.31 298.15 263.94 292.48 270.42 286.09 299.22 257.38 290.85 209.77 253.95 192.85 245.31 188.89 240 187.72 230.55 187.81 219.48 187.9 213.9 189.16 204.36 193.84 183.48 204.01 171.15 225.97 172.77 249.91 173.94 267.64 183.84 283.93 199.5 294.01 212.1 302.2 231.18 304.99 245.49 300.76ZM358.89 280.15C377.88 277.9 397.5 272.23 412.35 264.67L417.66 261.97 413.7 259.9C388.23 247.12 376.17 222.73 384 200.05 386.7 192.22 391.56 184.03 397.14 178 400.56 174.4 401.82 172.51 401.01 172.15 400.29 171.88 393.9 171.34 386.7 170.89 366.81 169.54 348.9 171.52 329.37 177.1 314.34 181.42 295.89 190.15 287.79 196.81L284.82 199.33 287.97 203.74C292.29 209.86 295.71 216.88 298.05 224.35 299.13 227.86 300.12 230.65 300.39 230.56 300.57 230.56 303.9 230.02 307.86 229.3L314.88 228.13 316.59 224.08C319.29 217.96 321.36 215.44 326.4 212.74 334.32 208.42 344.58 209.59 351.06 215.62 354.39 218.77 357.9 226.24 357.9 230.29 357.9 237.85 353.31 245.68 346.47 249.73 339.18 253.96 328.56 252.7 322.17 246.67 320.73 245.32 319.11 243.43 318.66 242.53 317.85 241.09 317.4 241.09 309.75 242.62L301.65 244.24 300.93 251.71C300.48 255.76 299.13 262.51 297.78 266.65L295.26 274.21 298.5 275.56C310.56 280.87 336.21 282.85 358.89 280.15ZM440.07 244.51C444.48 240.01 447.9 236.23 447.72 235.96 447.45 235.78 444.12 234.79 440.16 233.8 426.75 230.38 419.46 225.34 417.21 217.78 414.87 209.95 421.08 200.86 434.13 192.67 437.73 190.42 440.7 188.53 440.7 188.35 440.7 187.45 430.26 181.42 424.5 178.99L417.84 176.11 410.1 184.03C401.46 193.03 397.32 200.14 395.61 209.5 393.72 220.21 398.13 231.19 407.76 239.74 411.81 243.34 428.82 252.7 431.25 252.7 431.7 252.7 435.75 249.01 440.07 244.51ZM157.56 244.06C158.64 243.7 159 242.26 159 239.29 159 236.86 159.81 231.82 160.89 227.86 161.88 223.99 162.87 220.21 162.87 219.49 162.96 218.59 159.09 216.61 151.35 213.46 139.92 208.87 139.65 208.78 137.85 210.4 134.61 213.46 128.13 215.8 122.91 215.8 103.11 215.89 94.38 191.59 109.5 178.63 119.58 169.99 135.42 172.78 141.27 184.21 142.62 187 143.7 190.6 143.7 192.49L143.7 195.82 156.84 201.04 169.89 206.26 172.23 203.2C175.2 199.24 184.83 189.52 187.62 187.72 189.69 186.37 189.69 186.19 188.25 182.86 187.44 180.97 184.2 175.48 181.05 170.71 163.23 144.07 128.4 119.86 94.29 110.59 90.6 109.51 87.45 108.88 87.18 109.06 87 109.24 87.54 110.68 88.26 112.12 89.07 113.65 90.69 118.42 91.95 122.83 95.01 133.18 95.19 145.78 92.4 154.78 86.82 173.05 69.63 185.47 46.95 187.81L41.55 188.35 48.75 195.91C72.42 220.57 105.27 238.21 136.95 243.25 144.78 244.51 155.31 244.96 157.56 244.06ZM339.36 238.3C342.78 237.04 344.67 233.53 344.04 229.75 342.87 223.72 335.13 221.56 331.17 226.15 328.11 229.66 328.38 233.98 331.89 236.86 334.86 239.38 335.94 239.65 339.36 238.3ZM128.76 199.51C131.82 195.91 131.73 192.85 128.49 189.61 123.45 184.66 115.71 187.54 115.53 194.47 115.35 201.85 123.99 205.27 128.76 199.51ZM53.61 172.96C73.41 167.83 83.22 153.43 80.52 133.45 79.53 126.61 76.02 116.53 72.24 110.14 69.99 106.36 69.54 106 66.3 106 62.88 106 49.02 107.71 48.48 108.25 48.39 108.34 50.28 111.4 52.8 115.09 58.29 123.1 61.26 131.74 60.45 137.32 59.73 142.18 54.96 147.76 50.28 149.29 46.05 150.73 35.07 150.64 28.23 149.2 25.35 148.66 22.74 148.39 22.47 148.66 21.48 149.65 24.9 160.36 28.68 168.01L32.37 175.48 40.47 174.85C44.88 174.49 50.82 173.68 53.61 172.96ZM255.84 131.02C259.35 124.18 252.33 117.25 245.58 120.76 242.61 122.29 241.8 123.82 241.8 127.96 241.8 135.43 252.42 137.68 255.84 131.02ZM280.86 76.48C287.61 73.33 297.24 65.95 300.75 61.36L303 58.39 300.75 52.27C298.5 45.88 293.55 36.16 292.2 35.35 291.75 35.08 289.68 37.33 287.61 40.39 277.62 55.15 267.18 59.74 257.55 53.8 253.41 51.28 248.73 41.56 246.93 31.93 246.21 28.06 245.4 24.73 245.13 24.46 244.5 23.83 236.76 29.86 231.27 35.08L226.68 39.58 228.75 45.61C234.33 62.08 243.06 73.15 254.22 77.83 258.54 79.63 260.61 79.9 267 79.72 273.48 79.45 275.64 79 280.86 76.48ZM223.26 272.14C214.35 269.98 207.33 263.59 204 254.77 198.96 241.27 204.81 226.69 217.86 220.3 240.36 209.23 264.93 231.37 256.2 254.77 252.78 263.86 245.22 270.34 235.68 272.41 230.01 273.58 229.2 273.58 223.26 272.14ZM237.75 257.29C239.19 256.48 241.35 254.14 242.43 252.16 247.92 242.44 241.26 230.92 230.1 230.92 219.48 230.92 212.55 241.81 217.14 251.35 220.74 259.09 230.01 261.79 237.75 257.29Z" stroke="#44739e" stroke-width="6" fill="none"/>
</svg>