<svg xmlns="http://www.w3.org/2000/svg" viewBox="0 0 512 512">
	<path d="M237.69 1.51c9.8 0 19.6 0 29.4 0 43.9824 7.3787 74.8524 31.5521 92.61 72.52 4.2708 11.389 6.7208 23.149 7.35 35.28 57.4721-5.1646 98.7948 18.0291 123.97 69.58 17.4724 49.4929 7.8351 92.7766-28.91 129.85-7.6303 6.32-15.7966 11.8737-24.5 16.66 20.1057 32.1528 24.1893 66.2901 12.25 102.41-17.2392 42.5055-48.4365 67.6592-93.59 75.46-9.8 0-19.6 0-29.4 0-29.9449-4.5178-54.7722-18.2378-74.48-41.16-19.7078 22.9222-44.5351 36.6422-74.48 41.16-9.8 0-19.6 0-29.4 0-56.2891-10.7202-89.4459-44.3666-99.47-100.94-3.1205-27.8585 2.9229-53.5021 18.13-76.93C18.5367 296.884-1.2266 254.5803 7.88 198.49c5.3949-24.3158 17.3183-44.7331 35.77-61.25 6.5301-2.6146 10.7769-.492 12.74 6.37-3.0771 6.519-7.4871 12.0716-13.23 16.66-26.4178 36.506-29.0311 74.726-7.84 114.66 11.9818 18.5122 28.1518 32.0685 48.51 40.67 2.7095 2.9351 3.5261 6.3651 2.45 10.29-26.4585 36.4883-29.0718 74.7083-7.84 114.66 23.4367 35.0497 56.2667 50.567 98.49 46.55 29.9263-5.1538 53.4463-20.1811 70.56-45.08 3.2663-1.96 6.5337-1.96 9.8 0 25.5241 35.8474 60.1504 50.5474 103.88 44.1 44.9732-11.3709 71.2695-39.9546 78.89-85.75 2.8479-27.8193-4.3385-52.6456-21.56-74.48-1.076-3.9249-.2597-7.3549 2.45-10.29 39.7704-17.9291 60.6767-48.7991 62.72-92.61-1.4974-38.124-18.4838-67.034-50.96-86.73-23.1525-12.2676-47.4888-15.3703-73.01-9.31-4.1444-.5517-6.7571-2.8381-7.84-6.86-1.4122-49.7286-25.4222-82.8853-72.03-99.47-47.3712-10.6763-84.7739 3.8603-112.21 43.61-10.1028 16.8913-15.0028 35.1846-14.7 54.88-.3146 4.8882-2.9282 7.5009-7.84 7.84-12.1148-2.7303-24.3648-3.5466-36.75-2.45-10.8963 1.7826-21.513 4.559-31.85 8.33-2.2153.0598-4.1753-.5939-5.88-1.96-3.6509-8.4603-.8743-13.524 8.33-15.19 19.0575-7.054 38.6571-9.1777 58.8-6.37 4.3326-47.9248 28.5062-81.4081 72.52-100.45 9.0317-3.3989 18.178-5.8489 27.44-7.35Zm7.84 176.4c13.3672-1.8875 24.3109 2.3589 32.83 12.74 2.0845 4.0072 4.5345 7.7645 7.35 11.27 16.2435-1.5925 29.1472 4.1238 38.71 17.15 4.9617 9.1767 5.6154 18.6494 1.96 28.42-2.5862 4.2101-4.7089 8.6201-6.37 13.23 1.6611 4.6099 3.7838 9.0199 6.37 13.23 5.5752 18.2398.1852 32.1234-16.17 41.65-6.5317 2.8802-13.228 3.6975-20.09 2.45-1.371.7125-2.841 1.2025-4.41 1.47-3.3516 5.3969-6.9443 10.6242-10.78 15.68-15.9162 12.6753-31.4325 12.1853-46.55-1.47-2.9929-4.853-6.0966-9.5893-9.31-14.21-3.1144-1.3847-6.3818-1.5474-9.8-.49-20.3673-1.5847-31.4737-12.5273-33.32-32.83.1166-4.2218.933-8.3055 2.45-12.25 2.5862-4.2101 4.7089-8.6201 6.37-13.23-3.4339-6.3847-6.2112-13.081-8.33-20.09-1.6121-17.0079 5.4116-28.9316 21.07-35.77 7.2304-.8987 14.4178-1.8787 21.56-2.94 3.824-6.4406 8.3976-12.3206 13.72-17.64 4.0739-2.6901 8.3202-4.8138 12.74-6.37Zm-109.76 5.88c9.4315 1.5562 12.5352 6.7826 9.31 15.68-5.5154 6.4151-11.0691 6.4151-16.66 0-2.5431-7.6518-.0931-12.8782 7.35-15.68Zm231.28 0c8.9033 1.8012 12.006 7.0276 9.31 15.68-8.8347 7.7048-14.8784 5.9084-18.13-5.39.688-5.4204 3.628-8.8504 8.82-10.29ZM132.83 318.05c9.7922-1.1495 14.2022 3.0968 13.23 12.74-6.1662 9.0278-12.3725 9.0278-18.62 0-.8683-5.4429.9281-9.6893 5.39-12.74Zm231.28 0c9.7432-1.1985 14.1532 3.0478 13.23 12.74-6.2475 9.0278-12.4538 9.0278-18.62 0-1.4004-5.684.3959-9.9303 5.39-12.74ZM248.47 384.69c9.7922-1.1495 14.2022 3.0968 13.23 12.74-6.2063 9.1463-12.4137 9.1463-18.62 0-1.4004-5.684.3959-9.9303 5.39-12.74Zm2.94-283.22c19.3109 2.1658 27.9672 12.9458 25.97 32.34-2.6323 9.0013-8.3496 14.8813-17.15 17.64-.2871 3.8583.0392 7.6146.98 11.27 11.6728 2.3236 21.3091 8.0399 28.91 17.15 4.7765-9.0679 10.1665-17.7253 16.17-25.97 7.9566-1.8375 11.713 1.2662 11.27 9.31-4.1621 7.9988-8.5721 15.8388-13.23 23.52 6.3259 2.1766 12.5322 4.9529 18.62 8.33 3.7681 3.1164 7.5244 6.2201 11.27 9.31 2.7616-1.3818 5.3753-3.0155 7.84-4.9-.8947-17.8821 7.4353-28.3347 24.99-31.36 18.8777 2.0502 27.5341 12.5028 25.97 31.36-5.979 17.6086-17.9026 23.6513-35.77 18.13-2.55-.8653-4.6736-2.3353-6.37-4.41-3.3516 1.5925-6.4553 3.5525-9.31 5.88 3.873 11.4337 3.873 22.8663 0 34.3 10.1322-.1627 20.2586 0 30.38.49 5.2116 4.6187 5.2116 9.1924 0 13.72-10.0724 1.0731-20.1988 1.8894-30.38 2.45 3.919 10.7878 3.919 21.5678 0 32.34 2.7352 2.1903 5.6752 4.1503 8.82 5.88 11.3063-7.6205 22.7399-7.7832 34.3-.49 9.9215 10.4654 11.3915 22.0618 4.41 34.79-11.6473 12.4372-24.551 13.9072-38.71 4.41-6.6748-6.958-9.4511-15.288-8.33-24.99-2.9782-2.0639-6.0809-3.5339-9.31-4.41-7.5529 8.6857-17.0255 14.4021-28.42 17.15 4.6579 7.6812 9.0679 15.5212 13.23 23.52 1.4533 6.2377-.9967 9.8304-7.35 10.78-1.6631-.391-3.2957-.881-4.9-1.47-5.0666-8.4829-10.2929-16.8129-15.68-24.99-7.4803 8.8082-16.953 14.3619-28.42 16.66-2.7322 7.3716-.4449 12.1089 6.86 14.21 10.8016 10.5174 12.5979 22.441 5.39 35.77-14.0463 14.3737-28.0937 14.3737-42.14 0-7.2079-13.329-5.4116-25.2526 5.39-35.77 7.3049-2.1011 9.5922-6.8384 6.86-14.21-11.467-2.2981-20.9397-7.8518-28.42-16.66-5.3871 8.1771-10.6134 16.5071-15.68 24.99-8.6113 2.6489-12.6949-.4547-12.25-9.31 4.1621-7.9988 8.5721-15.8388 13.23-23.52-11.3945-2.7479-20.8671-8.4643-28.42-17.15-3.2291.8761-6.3318 2.3461-9.31 4.41 1.4543 14.257-4.262 24.2197-17.15 29.89-17.1716 3.9122-28.4416-2.4578-33.81-19.11-1.8297-18.5798 6.5003-28.7062 24.99-30.38 6.6346-.1842 12.5146 1.7758 17.64 5.88 3.1448-1.7297 6.0848-3.6897 8.82-5.88-3.92-10.78-3.92-21.56 0-32.34-10.1812-.5606-20.3076-1.3769-30.38-2.45-5.2116-4.5276-5.2116-9.1013 0-13.72 10.1214-.49 20.2478-.6527 30.38-.49-3.873-11.4337-3.873-22.8663 0-34.3-2.8547-2.3275-5.9584-4.2875-9.31-5.88-13.8376 9.9901-26.5776 8.6838-38.22-3.92-7.2246-13.3309-5.4272-25.2546 5.39-35.77 13.6759-7.9292 25.9259-6.1328 36.75 5.39 3.7171 6.3377 5.3498 13.1977 4.9 20.58 2.4647 1.8845 5.0784 3.5182 7.84 4.9 3.7456-3.0899 7.5019-6.1936 11.27-9.31 6.0878-3.3771 12.2941-6.1534 18.62-8.33-4.6579-7.6812-9.0679-15.5212-13.23-23.52-.443-8.0438 3.3134-11.1475 11.27-9.31 6.0035 8.2447 11.3935 16.9021 16.17 25.97 7.6009-9.1101 17.2372-14.8264 28.91-17.15.9408-3.6554 1.2671-7.4117.98-11.27-8.8004-2.7587-14.5177-8.6387-17.15-17.64-2.1638-18.5543 5.8398-29.3343 24.01-32.34Zm0 15.68c9.4315 1.5562 12.5352 6.7826 9.31 15.68-5.5537 6.5337-11.1063 6.5337-16.66 0-3.0811-7.8812-.6311-13.1085 7.35-15.68Zm-5.88 60.76c-4.4198 1.5562-8.6661 3.6799-12.74 6.37-5.3224 5.3194-9.896 11.1994-13.72 17.64-7.1422 1.0613-14.3296 2.0413-21.56 2.94-15.6584 6.8384-22.6821 18.7621-21.07 35.77 2.1188 7.009 4.8961 13.7053 8.33 20.09-1.6611 4.6099-3.7838 9.0199-6.37 13.23-1.517 3.9445-2.3334 8.0282-2.45 12.25 1.8463 20.3027 12.9527 31.2453 33.32 32.83 3.4182-1.0574 6.6856-.8947 9.8.49 3.2134 4.6207 6.3171 9.357 9.31 14.21 15.1175 13.6553 30.6338 14.1453 46.55 1.47 3.8357-5.0558 7.4284-10.2831 10.78-15.68 1.569-.2675 3.039-.7575 4.41-1.47 6.862 1.2475 13.5583.4302 20.09-2.45 16.3552-9.5266 21.7452-23.4102 16.17-41.65-2.5862-4.2101-4.7089-8.6201-6.37-13.23 1.6611-4.6099 3.7838-9.0199 6.37-13.23 3.6554-9.7706 3.0017-19.2433-1.96-28.42-9.5628-13.0262-22.4665-18.7425-38.71-17.15-2.8155-3.5055-5.2655-7.2628-7.35-11.27-8.5191-10.3811-19.4628-14.6275-32.83-12.74Zm-109.76 5.88c-7.4431 2.8018-9.8931 8.0282-7.35 15.68 5.5909 6.4151 11.1446 6.4151 16.66 0 3.2252-8.8974.1215-14.1238-9.31-15.68Zm231.28 0c-5.192 1.4396-8.132 4.8696-8.82 10.29 3.2516 11.2984 9.2953 13.0948 18.13 5.39 2.696-8.6524-.4067-13.8788-9.31-15.68ZM132.83 318.05c-4.4619 3.0507-6.2583 7.2971-5.39 12.74 6.2475 9.0278 12.4538 9.0278 18.62 0 .9722-9.6432-3.4378-13.8895-13.23-12.74Zm231.28 0c-4.9941 2.8097-6.7904 7.056-5.39 12.74 6.1662 9.0278 12.3725 9.0278 18.62 0 .9232-9.6922-3.4868-13.9385-13.23-12.74ZM248.47 384.69c-4.9941 2.8097-6.7904 7.056-5.39 12.74 6.2063 9.1463 12.4137 9.1463 18.62 0 .9722-9.6432-3.4378-13.8895-13.23-12.74Zm0-176.4c29.5176.2911 47.9749 14.6647 55.37 43.12.8389 7.5774.5125 15.09-.98 22.54-3.0243 5.147-7.1079 6.127-12.25 2.94-1.0623-1.1417-1.8787-2.448-2.45-3.92 3.9778-25.874-6.6395-42.044-31.85-48.51-20.6398-.541-33.8698 9.0954-39.69 28.91-2.0002 26.0739 9.9235 40.7739 35.77 44.1 3.3349-.0598 6.6013-.5498 9.8-1.47 4.8481-1.6974 9.5854-3.4937 14.21-5.39 6.761 1.0898 9.0474 5.0098 6.86 11.76-6.6023 5.6909-14.2796 9.1209-23.03 10.29-31.5795 2.0492-51.3432-12.1608-59.29-42.63-2.35-34.7136 13.4936-55.2936 47.53-61.74Z" stroke="#44739e" stroke-width="4" fill="none"/>
</svg>