<svg xmlns="http://www.w3.org/2000/svg" viewBox="0 0 512 512">
	<path d="M147.411 175.626c-8.514 3.564-18.117 2.673-25.641-2.475-8.019-5.445-11.979-12.969-11.781-22.572.099-10.098 5.148-18.513 13.86-23.364 4.554-2.574 6.336-2.97 12.771-2.97s8.217.396 12.771 2.97c8.91 4.851 13.761 13.266 13.86 23.76.099 10.098-6.732 20.889-15.84 24.651Zm-3.267 41.877c2.97 2.97 6.831 2.871 9.801-.198 2.97-2.871 2.97-2.772.495-14.85-1.089-5.247-1.98-10.395-1.98-11.286 0-.99 1.485-2.475 3.564-3.366 1.98-.99 5.247-3.069 7.326-4.752l3.762-3.069 9.702 6.534c5.445 3.564 10.791 6.534 12.078 6.534 2.871 0 7.128-4.158 7.128-6.93 0-3.762-1.881-5.841-11.187-11.979-5.049-3.366-9.306-6.237-9.405-6.435-.198-.099.198-1.881.792-3.96.693-1.98 1.485-5.94 1.881-8.712l.594-4.95 11.286-2.277c6.336-1.287 12.078-2.97 13.167-3.861 2.277-2.079 2.376-8.019.099-10.494-2.376-2.673-8.712-2.277-25.641 1.683-1.584.297-2.376-.396-3.762-3.168-.99-2.079-3.069-5.346-4.653-7.326s-2.871-3.861-2.871-4.257c0-.297 2.673-4.653 5.94-9.702 6.93-10.494 7.524-14.355 2.772-17.919-4.554-3.366-7.227-1.584-14.652 9.504-5.742 8.712-6.732 9.603-8.91 9.108-1.386-.297-5.445-1.089-9.108-1.782l-6.633-1.089-.99-4.554c-.495-2.475-1.485-7.326-2.178-10.89-1.98-10.197-7.821-13.959-13.266-8.415-2.97 2.871-2.97 2.772-.495 14.85 2.376 11.385 2.475 13.365.594 13.365-.792 0-4.059 1.98-7.227 4.356l-5.94 4.356-9.702-6.336c-5.544-3.663-10.692-6.336-12.177-6.336-5.247 0-8.712 6.138-6.237 10.791.594.99 5.247 4.554 10.395 8.019 5.247 3.366 9.504 6.237 9.504 6.336 0 0-.693 2.277-1.485 4.95s-1.485 6.534-1.485 8.613c0 4.257 1.188 3.762-13.662 6.732-5.148.99-9.999 2.574-11.088 3.564-2.574 2.376-2.574 7.821 0 10.395 2.475 2.475 5.247 2.475 17.424 0 7.029-1.485 9.9-1.683 10.197-.891.198.594 2.277 3.96 4.653 7.425 2.376 3.465 4.356 6.633 4.356 6.831 0 .297-2.772 4.653-6.138 9.603-6.534 9.801-7.425 13.167-4.257 16.632 1.386 1.584 2.871 1.98 5.841 1.782 3.96-.297 4.257-.594 10.89-10.395l6.732-9.999 3.663 1.287c1.98.693 5.94 1.584 8.712 1.98l5.148.693.99 4.554c.495 2.574 1.485 7.524 2.178 11.088.792 4.059 2.079 7.128 3.465 8.613Zm-3.366 86.328c8.019 4.653 11.286 4.059 19.503-3.267 2.871-2.475 5.247-4.554 5.445-4.554.099 0 2.871.891 6.039 1.98 13.068 4.455 17.523 2.079 25.641-13.86 7.722-14.949 12.474-36.036 12.474-55.044V218.097l13.662-.594c16.335-.693 30.195-3.861 42.372-9.504 11.979-5.643 14.355-10.593 10.89-23.364l-1.287-4.95 5.643-5.445c8.811-8.514 9.009-12.87.99-25.146-10.692-16.335-28.314-31.581-47.52-40.887-6.237-3.069-11.484-5.643-11.682-5.742-.099-.099 1.287-4.95 3.267-10.692 4.95-14.652 6.732-27.819 6.138-44.253-.594-15.939-2.277-22.77-6.534-27.126-2.871-2.871-3.663-3.069-11.484-3.465l-8.316-.297-3.663-6.435c-5.94-10.593-10.593-12.078-23.958-7.623-19.998 6.633-43.362 23.661-55.935 40.788-2.475 3.366-4.653 6.633-4.851 7.326-.297.792-2.772-.297-7.128-3.069C91.872 35.937 63.162 28.512 41.877 29.997c-12.87.891-18.612 4.653-19.701 13.068-1.485 11.088-.99 10.395-7.722 13.365C6.138 60.192 2.97 64.053 2.97 70.191c0 16.236 13.761 45.144 30.096 63.162l5.544 6.138-4.653 4.752C17.226 160.974 4.158 186.714.99 208.692c-1.584 11.187.891 15.246 11.88 19.602l6.633 2.574.99 6.831c1.98 12.672 5.148 15.048 20.196 15.543 10.395.396 10.692.297 13.167-2.079 3.267-3.267 3.267-7.029.099-10.098-2.079-2.178-3.267-2.475-10.197-2.475-8.811 0-8.217.594-9.702-9.306-.891-6.534-4.653-10.593-12.276-13.365-5.643-2.079-5.94-2.376-5.94-5.544 0-8.019 8.613-28.908 17.127-41.58 5.148-7.524 13.563-16.434 20.196-21.483 4.653-3.366 5.247-4.257 5.247-7.326 0-2.871-.693-4.158-4.158-7.128-12.474-10.692-21.978-23.265-29.007-38.115-4.059-8.712-7.92-20.592-7.227-22.671.198-.495 3.267-2.376 6.732-4.059 7.92-3.861 10.395-7.326 11.286-15.642.297-3.366.792-6.435 1.089-6.732 1.287-1.188 14.256-1.287 22.671-.099 19.701 2.673 39.501 10.692 49.797 20.196 9.999 9.207 12.969 8.613 19.008-3.663 7.425-15.345 25.641-32.076 45.144-41.382 13.86-6.633 13.662-6.633 18.117.99 4.653 8.019 8.118 9.999 17.226 9.999 6.435 0 6.732.099 7.425 2.772.495 1.485.792 9.999.693 19.008-.099 14.355-.396 17.523-2.673 26.136-1.485 5.346-4.455 13.464-6.633 18.018-2.178 4.455-3.96 9.306-3.96 10.692 0 3.663 2.97 6.138 8.91 7.425 18.315 3.96 44.649 22.671 55.935 39.996l3.762 5.643-5.445 5.742c-6.633 6.831-7.326 9.603-5.247 18.612 1.881 8.217 2.079 8.118-10.89 12.177-12.672 4.059-21.582 5.148-39.006 4.95-15.048-.198-15.246-.198-17.127 2.079-1.485 1.782-1.782 3.267-1.386 5.94.297 1.881.891 8.811 1.188 15.345.693 13.959-.891 25.542-5.643 39.501-2.475 7.425-8.217 19.404-9.207 19.404-.198 0-2.871-.891-6.039-1.98-10.197-3.465-13.365-2.772-21.978 5.247l-3.168 2.97-4.059-2.772c-14.058-9.702-30.789-35.244-35.64-54.351-1.089-4.356-2.772-8.712-3.663-9.702-2.574-2.871-6.93-1.98-18.018 3.465-11.484 5.742-13.365 8.019-10.791 13.266 1.98 4.059 5.742 5.049 11.484 2.871 2.574-.99 5.346-1.98 6.138-2.277 1.089-.297 2.178 1.485 3.96 6.732 6.732 19.8 27.324 46.431 42.768 55.242Zm237.006 72.963c-7.425 3.465-16.236 3.069-23.958-.891-3.96-2.079-10.098-8.91-12.078-13.464-2.178-5.247-1.98-15.444.495-20.988 4.356-9.702 12.375-14.949 23.859-15.543 6.237-.396 7.821-.099 12.573 2.178 20.493 10.098 19.998 39.006-.891 48.708Zm-33.165 40.392c2.673 3.366 7.623 3.564 10.494.396 1.089-1.287 3.267-6.93 4.851-12.771l2.871-10.593 6.93-.495c3.762-.297 7.821-.792 8.91-1.188 1.782-.495 2.772.693 6.831 8.118 2.673 4.752 5.742 9.702 6.831 10.989 4.158 4.554 12.573 1.584 12.573-4.356 0-1.386-2.475-6.93-5.445-12.375l-5.544-9.702 4.257-5.346c2.376-2.97 4.752-6.138 5.346-7.227 1.089-1.881 1.287-1.782 9.9.495 13.563 3.762 16.533 3.762 19.107.594 4.356-5.643 1.881-10.197-7.227-12.771-3.069-.891-7.92-2.277-10.89-3.069l-5.247-1.584-.693-6.633c-.297-3.663-.891-7.722-1.188-9.108-.495-2.277.198-2.871 7.524-6.732 10.593-5.742 13.86-8.514 13.86-12.078 0-1.485-.792-3.663-1.683-4.752-3.366-4.059-6.039-3.564-17.127 2.574l-10.395 5.841-4.059-3.762c-2.277-1.98-5.544-4.455-7.227-5.247-1.683-.891-3.069-1.782-3.069-1.881s1.386-4.851 2.97-10.593c3.564-12.276 3.564-13.761.99-16.632-2.475-2.574-8.019-2.97-10.296-.693-1.386 1.485-3.564 7.821-6.633 19.404l-1.287 4.653-7.425.495c-4.158.198-8.217.693-9.009 1.089-1.089.396-2.97-2.079-7.227-9.702-6.534-11.781-9.108-13.761-14.454-11.088-5.841 3.069-5.346 5.742 3.96 22.572l3.069 5.544-4.356 5.346c-2.277 2.97-4.752 6.237-5.346 7.227-.99 1.782-1.485 1.782-11.385-.891-12.771-3.465-14.553-3.465-17.424-.198-5.247 6.138-1.683 10.296 12.573 14.256l10.296 2.871 1.188 7.92c.594 4.356 1.386 8.415 1.683 8.91.297.495-3.96 3.564-9.504 6.732s-10.593 6.435-11.286 7.326c-1.782 2.376-1.485 5.445.792 8.415 3.069 3.96 6.633 3.366 17.82-2.97l9.801-5.445 3.168 3.069c1.683 1.782 4.851 4.356 6.93 5.643 2.079 1.386 3.762 2.772 3.762 3.168 0 .297-1.386 5.049-2.97 10.494-3.465 11.88-3.564 12.375-.891 15.741Zm-5.544 88.605c11.781 6.831 45.342-23.265 59.103-53.064 1.683-3.663 3.168-6.831 3.366-7.029.099-.198 3.267 1.188 6.93 3.069 15.444 7.821 34.452 12.771 48.906 12.969 13.068.099 15.741-1.881 18.81-14.256l1.584-6.435 6.831-2.277c4.257-1.386 8.118-3.366 9.9-5.148 2.871-2.97 2.97-3.267 2.871-12.672-.099-20.691-11.682-49.302-27.027-66.825l-5.049-5.742 8.811-8.811c14.553-14.553 26.631-34.65 30.888-51.579 3.069-11.979 1.287-15.246-12.87-22.869-2.97-1.683-3.069-1.881-3.069-8.415 0-14.751-7.128-18.612-33.957-18.414-12.078 0-14.058.297-16.335 1.98-3.168 2.376-4.059 7.623-1.782 10.692 1.287 1.782 2.574 1.98 16.632 2.079 20.79.099 20.196-.198 20.889 9.009.693 9.207 2.079 11.385 10.494 16.137 6.039 3.366 6.138 3.564 5.544 6.93-.891 4.752-7.326 18.216-12.771 26.631-5.247 8.217-17.622 21.483-24.75 26.532-10.494 7.524-10.395 9.108 1.683 21.186 6.138 6.336 10.494 11.88 13.563 17.127 7.722 13.761 13.266 29.502 14.553 41.283l.594 5.643-6.831 2.178c-9.999 3.267-12.078 5.544-14.256 16.236l-1.188 5.742-6.534-.693c-16.038-1.584-33.264-7.227-46.827-15.345-12.177-7.326-15.345-6.732-18.711 3.663-3.069 9.207-9.9 22.176-15.84 30.096-5.841 7.821-19.998 21.384-25.047 24.156l-3.564 1.881-5.94-5.643c-5.346-5.049-6.336-5.643-10.197-5.643-2.376 0-6.633.693-9.504 1.386l-5.346 1.485-2.772-6.237c-6.534-14.256-9.801-36.63-7.92-52.866.693-5.148 1.584-10.494 2.079-11.781 1.485-4.059 1.089-9.009-1.089-11.187-1.683-1.683-3.267-1.98-12.276-1.98-11.286 0-23.265-1.782-33.759-5.049-7.326-2.178-18.909-7.425-19.8-8.91-.297-.396.396-3.96 1.485-7.722 2.673-8.613 1.782-12.177-4.653-19.107l-4.455-4.653 2.079-3.465c3.564-5.643 19.107-19.503 28.314-25.245 10.593-6.633 22.572-11.484 31.68-12.969 3.762-.594 7.722-1.782 8.613-2.673 2.475-2.178 2.178-7.029-.693-13.365-5.544-12.078-6.831-19.503-6.831-39.897 0-14.058.396-19.899 1.485-23.265l1.485-4.455 8.91-.495c10.197-.594 10.791-.891 16.335-9.108l3.861-5.742 5.643 2.475c21.879 9.702 43.857 31.68 50.787 50.787 3.762 10.395 8.019 11.385 16.731 4.257 2.475-2.178 6.831-5.049 9.702-6.435 7.227-3.564 9.207-8.217 5.643-13.266-2.178-3.168-7.326-2.871-14.553 1.089-4.554 2.376-6.039 2.871-6.435 1.782-1.782-4.95-13.266-19.8-21.681-27.918-11.088-10.593-20.097-16.929-32.373-22.77-14.85-7.128-20.295-6.336-27.324 4.059l-4.059 5.94h-7.92c-9.603 0-12.969 1.485-15.84 7.128-7.92 15.543-7.623 55.836.594 76.131.495 1.386-.693 2.079-6.138 3.861-24.453 8.019-52.569 29.601-61.281 47.124-3.465 7.029-2.673 10.692 3.861 17.82l4.95 5.445-2.178 7.821c-1.98 6.633-2.079 8.316-1.089 11.385 3.267 9.9 31.977 21.681 58.41 23.859l8.019.693-.792 4.554c-1.485 8.91-.594 29.7 1.584 40.392 3.861 18.513 10.395 33.462 16.335 37.026 3.762 2.277 6.93 2.376 14.751.297l5.94-1.485 5.049 4.851c2.772 2.673 5.94 5.445 7.029 6.039Z" stroke="#44739e" stroke-width="4" fill="none"/>
</svg>