<svg xmlns="http://www.w3.org/2000/svg" viewBox="0 0 508 508">
	<path d="M118 366v-8h24 24v8 8H142 118v-8Zm61.5-21.5-2.4-2.5H142 106.9l-2.4 2.5c-2.5 2.4-2.5 2.6-2.5 21.5s0 19.1 2.5 21.5l2.4 2.5H142h35.1l2.4-2.5c2.5-2.4 2.5-2.6 2.5-21.5s0-19.1-2.5-21.5ZM342 366v-8h24 24v8 8H366 342v-8Zm61.5-21.5-2.4-2.5H366 330.9l-2.4 2.5c-2.5 2.4-2.5 2.6-2.5 21.5s0 19.1 2.5 21.5l2.4 2.5H366h35.1l2.4-2.5c2.5-2.4 2.5-2.6 2.5-21.5s0-19.1-2.5-21.5ZM166 198v-8H142 118v8 8h24 24v-8Zm224 0v-8H366 342v8 8h24 24v-8ZM22 478v-8H254 486v8 8H254 22v-8Zm112-40V422h8 8v16 16h-8-8V438Zm224 0V422h8 8v16 16h-8-8V438ZM38 423.1l-0-30.9 16-4 16-4v34.9V454H54 38l-0-30.9ZM438 419c0-19.3.1-35 .2-34.9.2 0 7.4 1.9 16 4.1l15.8 4v30.9V454H454 438V419ZM214 406V358h40 40v48 48H254 214V406ZM22 372v-7.8l24-6 24-6V360v7.8l-24 6-24 6V372Zm416-12.1c0-4.4.1-7.9.2-7.8.2 0 11 2.8 24 6.1l23.8 6V372v7.8l-24-6-24-6v-7.9ZM86 390l-0-64H254 422v64 64H406 390V432.5c0-28.6 1.9-26.5-24-26.5s-24-2.1-24 26.5V454H326 310V400.5 346.9l-2.5-2.4-2.4-2.5H254 202.9l-2.4 2.5-2.5 2.4v53.6V454H182 166V432.5c0-28.6 1.9-26.5-24-26.5s-24-2.1-24 26.5V454H102 86l-0-64ZM70 302v-8H254 438v8 8H254 70v-8Zm32-32v-8h8 8v8 8h-8-8v-8Zm32 0v-8h16 16v8 8H150 134v-8Zm48 0v-8h16 16v8 8H198 182v-8Zm48 0v-8h24 24v8 8H254 230v-8Zm64 0v-8h16 16v8 8H310 294v-8Zm48 0v-8h16 16v8 8H358 342v-8Zm48 0v-8h8 8v8 8h-8-8v-8ZM78.6 240.2c1.1-1.6 10.6-1.7 175.1-2 134.4-.1 174.2.1 175.1 1 1.6 1.6 1.5 4.3-.2 5.7-1 .8-47.5 1-175.1.9-164.3-.3-173.8-.4-174.9-2.1-.8-1.2-.8-2.2 0-3.5Zm168.3-33c7.8-2.4 15.3-1 21.7 4.2 3.3 2.6 7.4 8.1 7.4 9.8 0 .5-9.9.8-22 .8s-22-.2-22-.5c0-4 8.9-12.6 14.9-14.3ZM102 198V174l152-0 152-0v24 24H349.5c-47.1 0-56.5-.2-56.5-1.4 0-3.2-7.3-15.6-11.6-19.6-19.8-18.2-50.9-12.7-62.9 11.2-1.9 3.9-3.5 7.7-3.5 8.4 0 1.2-9.4 1.4-56.5 1.4H102V198Zm152-72.5c97.1-0 178.6-.4 181.2-.8l4.7-.8-3.6 9-3.7 9.1H421.8c-10.2 0-11 .1-13.3 2.5-2.1 2-2.5 3.4-2.5 8V158l-152 0-152 0v-5.5c0-4.6-.4-6-2.5-8-2.3-2.4-3.1-2.5-13.3-2.5H75.4l-3.7-9.1-3.6-9 4.7.8c2.6.4 84.1.8 181.2.8ZM460.2 79.4c3.7-1.9 7-3.4 7.3-3.4s-.2 1.7-1 3.7c-6.1 14.5-18 24.9-33.2 28.8-8.6 2.3-350 2.3-358.6 0C61.1 105 49.5 95.8 43.5 83.7c-1.9-3.9-3.4-7.2-3.2-7.4.2-.2 3.5 1.2 7.3 3.1 9.6 4.7 22.7 9.2 34.7 11.8l10.2 2.3 161.5-0 161.5-0 10.2-2.3c12.1-2.6 25.3-7.2 34.5-11.8Zm.4-32c5-2.4 12.8-6.9 17.2-9.9L486 32v5.5V43l-6.8 5.5c-18.1 15-39.2 24.3-63.2 28-14.1 2.2-309.8 2.2-324 0-24.1-3.6-45.5-13.1-63.8-28.4L22 42.9V37.4 31.9l7.2 4.9C49.9 50.6 70 58.1 94 61c6.8.8 53.7 1 166 .8l156.5-.4 9.6-2.2c13.3-3 23.8-6.6 34.5-11.8ZM499.5 8.5c-4.2-4.3-7.4-3.4-16 4.2-17.8 15.7-36.3 25.2-60.5 30.9-7 1.7-17.9 1.8-163 2.2-111.5.2-158.1 0-164.8-.8-26.4-3.3-51.3-14.6-71-32.4C15.9 5.1 12.7 4.2 8.5 8.5 6 10.9 6 11.1 6 29.7 6 51.3 5.6 50 15.3 57.9l6.4 5.2 1.1 7.4c2.3 14.7 7.6 25.5 17.6 35.9 5.6 5.8 6.3 7.2 14.3 27.1 4.6 11.6 9.3 21.8 10.5 22.7 1.6 1.4 3.9 1.8 11.4 1.8H86v31.9 31.8l-5.5.6c-6.8.7-11.8 3.6-15.3 9-2.3 3.4-2.7 5.2-2.7 10.7s.4 7.3 2.7 10.7c3.5 5.4 8.5 8.3 15.3 9l5.5.6v7.8V278H72.5c-13.1 0-13.7.1-16 2.5C54 282.9 54 283.1 54 302s0 19.1 2.5 21.5c2 2.1 3.4 2.5 8 2.5H70v4.9 4.9l-29.8 7.3c-22.8 5.7-30.2 7.9-32 9.6C6.1 354.8 6 355.5 6 374c0 18.9 0 19.1 2.5 21.5 2.6 2.7 5.1 3 10.3 1.6l3.2-1 0 29L22 454H16.5c-4.6 0-6 .4-8 2.5C6 458.9 6 459.1 6 478s0 19.1 2.5 21.5l2.4 2.5L254 502l243.1-0 2.4-2.5c2.5-2.4 2.5-2.6 2.5-21.5s0-19.1-2.5-21.5c-2-2.1-3.4-2.5-8-2.5H486V425.1v-29l3.2 1c5.2 1.4 7.7 1.1 10.3-1.6 2.5-2.4 2.5-2.6 2.5-21.5 0-18.5-.1-19.2-2.3-21.3-1.7-1.7-9.1-3.9-32-9.6L438 335.8v-4.9V326h5.5c4.6 0 6-.4 8-2.5 2.5-2.4 2.5-2.6 2.5-21.5s0-19.1-2.5-21.5c-2.3-2.4-2.9-2.5-16-2.5H422v-7.9-7.8l5.6-.6c6.7-.7 12.2-4 15.5-9.4 1.9-3 2.4-5.2 2.4-10.3 0-5.1-.5-7.3-2.4-10.3-3.3-5.4-8.8-8.7-15.5-9.4l-5.6-.6V189.9 158h9.4c7.5 0 9.8-.4 11.4-1.8 1.2-.9 5.9-11.1 10.5-22.7 8-19.9 8.7-21.3 14.3-27.1 10-10.4 15.3-21.2 17.6-35.9l1.1-7.4 6.9-5.7c3.8-3.2 7.3-6.6 7.9-7.5.5-1 .9-10.1.9-20.4 0-18.4 0-18.6-2.5-21Z" stroke="#44739e" stroke-width="4" fill="none"/>
</svg>