<svg xmlns="http://www.w3.org/2000/svg" viewBox="0 0 200 200">
	<path d="M4.5-.5Zm125.5 6.5c8.333 0 16.667 0 25 0 0 62.3333 0 108-.5 186.5-8.333 0-16.667 0-23.5-.5-1-107 13-154-1-160-8 0-16 0-24 0 .166 6.3421 0 12.6754-.5 19-3.5786 6.2531-7.5786 6.5865-12 1-.4996-6.6583-.6663-13.325-.5-20-8.2942 1.4637-11.7942-1.8696-10.5-10 1.129-1.6412 2.629-2.6412 4.5-3 14.6667 0 29.333 0 48 0Zm-35 62c3.787-.6856 6.9537.3144 9.5 3 .667 7.6667.667 15.3333 0 23-4.0979 5.3036-8.0979 5.3036-12 0-.6667-7.6667-.6667-15.3333 0-23 1.045-.8734 1.8783-1.8734 2.5-3ZM61 146c7-3.791 20-5 23-4 8.7942 4.899 17.4609 10.066 20 10 2 8-37 14-37 14Zc28-11 1 13 15-43-8.3333 0-16.6667 0-25 0 0 30 0 60 0 93L76 196zM95 109c4.1838-.796 7.3504.537 9.5 4 .667 7.333.667 14.667 0 22-3.601 4.821-7.601 5.154-12 1-.6667-8-.6667-16 0-24C93.545 111.127 94.3783 110.127 95 109Zm-39 79Z" stroke="#44739e" stroke-width="4" fill="none"/>
</svg>