<svg xmlns="http://www.w3.org/2000/svg" viewBox="0 0 200 200">
	<path d="M19.5-.5Zm127 6c8.333 0 16.667 0 25 0 0 62.3333 0 124.667 0 187-8.333 0-16.667 0-25 0 .332-53.503-.001-106.8359-1-160-8 0-16 0-24 0 .166 6.3421 0 12.6754-.5 19-3.5786 6.2531-7.5786 6.5865-12 1-.4996-6.6583-.6663-13.325-.5-20-8.2942 1.4637-11.7942-1.8696-10.5-10 1.129-1.6412 2.629-2.6412 4.5-3 14.6667 0 29.333 0 44 0 0-4.6667 0-9.3333 0-14Zc0 4.6667 0 9.3333 0 14-14.667 0-29.3333 0-44 0 14.1569-.9959 28.49-1.3293 43-1-.318-4.5323.015-8.8656 1-13Zm-35 62c3.787-.6856 6.9537.3144 9.5 3 .667 7.6667.667 15.3333 0 23-4.0979 5.3036-8.0979 5.3036-12 0-.6667-7.6667-.6667-15.3333 0-23 1.045-.8734 1.8783-1.8734 2.5-3Zm-55 79c14.2841-3.791 28.6174-7.458 43-11 8.7942 4.899 17.4609 10.066 26 15.5-23.2065 6.803-46.5399 13.303-70 19.5-.9916 7.148-1.325 14.481-1 22-8.3333 0-16.6667 0-25 0 0-30 0-60 0-90 8.3333 0 16.6667 0 25 0-.3327 15.015.0007 30.015 1 45 .6067-.124.94-.457 1-1Zc-.06.543-.3933.876-1 1-.9993-14.985-1.3327-29.985-1-45-8.3333 0-16.6667 0-25 0 0 30 0 60 0 90-.3333 0-.6667 0-1 0 0-30.333 0-60.667 0-91 9 0 18 0 27 0-.3294 15.176.0039 30.176 1 45Zm55-38c4.1838-.796 7.3504.537 9.5 4 .667 7.333.667 14.667 0 22-3.601 4.821-7.601 5.154-12 1-.6667-8-.6667-16 0-24 1.045-.873 1.8783-1.873 2.5-3Zm-56 62c0 7.667 0 15.333 0 23-9.1822.327-18.1822-.007-27-1 .3333 0 .6667 0 1 0 8.3333 0 16.6667 0 25 0-.325-7.519.0084-14.852 1-22Zm116-165c.999 62.4978 1.332 125.164 1 188-9 0-18 0-27 0 0-53.667 0-107.3333 0-161 .999 53.1641 1.332 106.497 1 160 8.333 0 16.667 0 25 0 0-62.333 0-124.6667 0-187Z" stroke="#44739e" stroke-width="3" fill="none"/>
</svg>