<svg xmlns="http://www.w3.org/2000/svg" viewBox="0 0 512 512">
	<path d="M96.34 11.276c1.862 1.96 1.96 3.332 1.96 20.58 0 10.29.49 20.482 1.078 22.834.588 2.352 2.646 6.076 4.508 8.33 5.39 6.272 9.702 7.938 22.736 8.82 17.542 1.176 27.342 5.488 37.534 16.562 10.388 11.172 13.524 21.266 13.524 43.022 0 14.602-.098 15.092-2.45 17.346-2.842 2.94-6.272 3.136-9.408.588-2.254-1.862-2.352-2.45-2.842-18.914-.49-16.758-.588-17.15-3.724-23.52-3.724-7.644-9.898-13.72-17.64-17.248-4.508-2.058-7.84-2.646-16.856-3.234-12.642-.882-17.836-2.352-24.99-7.252-5.978-4.116-9.604-8.526-13.034-15.974-2.548-5.488-2.646-6.174-2.94-27.146-.294-20.874-.294-21.658 1.764-24.304 2.744-3.43 7.84-3.626 10.78-.49Zm-73.598.392c1.96 2.548 2.058 3.724 2.058 37.534 0 38.71.49 42.728 6.076 53.41 4.018 7.644 14.308 17.934 21.952 21.854 10.29 5.488 14.994 6.174 40.18 6.174 12.446 0 24.99.49 27.832.98 16.072 3.038 27.244 14.21 30.38 30.184 2.352 11.76-.196 18.816-6.762 18.816-4.214 0-6.958-3.626-6.958-9.212 0-10.584-4.606-18.914-13.132-23.422-3.822-1.96-5.684-2.156-32.438-2.744-31.654-.588-34.006-1.078-47.53-8.428-9.31-5.096-22.05-18.326-26.754-27.734C10.59 94.87 10.1 90.95 10.1 49.594c-0-35.28.098-36.652 1.96-38.514 2.94-2.94 8.134-2.646 10.682.588ZM322.72 127.308c11.858 1.47 17.346 2.646 18.816 4.018 2.45 2.254 2.352 8.33-.196 10.584-2.254 2.058-4.116 2.156-17.15.588-40.376-4.802-86.142 5.292-105.546 23.324-7.154 6.566-9.996 11.662-9.996 18.228 0 6.37 2.646 11.368 9.31 17.738 15.386 14.406 43.414 23.226 78.302 24.598 46.942 1.764 89.474-12.936 99.568-34.496 2.646-5.488 2.842-8.428 1.176-13.328-2.94-8.624-11.76-16.758-25.676-23.52-9.506-4.606-11.368-6.272-11.368-9.898 0-3.43 3.92-7.644 7.154-7.644 3.332 0 19.894 8.624 26.95 14.014 6.86 5.39 12.74 12.642 16.072 19.796 3.038 6.86 3.038 18.62 0 25.284-3.234 7.154-8.134 13.426-14.896 18.816l-5.978 4.802 5.684 2.058c24.402 9.212 45.864 25.872 53.508 41.748 6.664 13.524 6.664 26.362.196 39.69-1.862 3.822-5.096 8.918-7.252 11.368l-4.018 4.508 9.114 4.606c25.088 12.74 43.316 29.106 52.528 47.334 3.136 6.174 5.978 18.13 5.978 25.186 0 7.35-2.842 19.012-6.37 26.166-15.778 31.556-60.858 57.33-121.03 69.384-27.44 5.488-37.632 6.37-73.5 6.37-33.516 0-41.454-.588-65.562-4.508l-12.054-2.058-9.016 2.548c-4.9 1.47-11.564 3.038-14.798 3.528-3.234.588-26.754.98-52.528.98-49.588 0-53.802-.294-69.286-5.096-34.104-10.388-62.818-40.082-73.108-75.46-4.116-14.406-4.606-21.658-4.312-68.992l.294-44.198 2.842-3.626c1.568-2.156 4.802-4.606 7.252-5.684 4.116-1.862 5.096-1.862 15.288-.882 18.914 1.96 33.81 6.37 50.078 14.7 4.802 2.45 9.114 4.606 9.408 4.802.392.196 2.058-2.156 3.822-5.194 4.998-8.82 7.546-11.27 11.368-11.27 4.116 0 7.252 2.842 7.252 6.664 0 1.47-1.96 5.88-4.606 9.996-8.722 14.014-14.7 29.204-18.522 47.04-2.548 11.662-2.548 39.298-.098 50.96 2.548 12.152 3.724 15.484 15.19 44.786L113.49 484.42h36.848 36.848l10.976-28.028c14.602-37.142 16.17-43.806 16.268-68.502 0-14.602-.392-20.384-1.862-26.95-5.586-25.578-17.052-48.118-33.712-65.758-8.134-8.624-27.048-25.382-28.714-25.382-.49 0-5.782 4.214-11.76 9.31-8.918 7.742-11.172 9.31-13.916 9.31-3.724 0-6.076-2.058-7.154-6.272-.588-2.45 0-3.332 5.684-8.82 3.43-3.234 10.29-9.408 15.288-13.622 10.486-8.722 12.838-9.31 18.228-4.508l3.43 2.94 8.624-8.722c11.27-11.466 25.97-20.776 42.63-27.048l5.684-2.156-5.194-4.312c-6.86-5.782-10.78-10.29-13.72-15.974-14.112-26.558 8.526-54.488 54.194-66.836 15.974-4.312 25.774-5.488 47.04-5.88 11.074-.196 21.658-.098 23.52.098ZM363.978 232.07c-35.868 12.152-84.28 12.348-119.952.49l-8.526-2.94-7.938 2.548c-19.6 6.174-35.868 15.092-46.452 25.382-10.388 10.094-10.388 9.8-2.744 16.17 10.192 8.624 23.52 24.99 32.144 39.494.882 1.47 1.862 1.176 9.604-2.842 16.268-8.428 31.948-13.132 50.862-15.092 11.858-1.274 15.386-.686 20.58 3.724 5.194 4.41 5.684 6.958 5.684 28.616v19.6h3.724c9.31 0 35.574-2.254 45.472-3.822 12.348-2.058 15.288-1.568 16.856 2.94 1.372 4.018 0 7.644-3.626 9.212-4.998 2.058-23.128 4.41-43.61 5.586l-18.816 1.078v16.464c0 9.016-.49 19.796-1.078 24.01-3.92 28.028-19.012 54.684-40.768 72.03-5.488 4.312-6.762 5.782-5.39 6.174 4.802 1.568 35.476 3.528 53.998 3.528 30.87-.098 57.33-3.038 83.398-9.31 44.492-10.878 79.674-30.478 94.472-52.92 19.796-29.694 2.94-62.426-44.198-85.946l-12.25-6.076-3.626 2.156c-6.664 4.116-22.148 11.662-28.322 13.916l-6.174 2.254-2.646-1.96c-1.47-1.078-3.038-3.136-3.528-4.606-1.568-4.214 1.47-6.958 13.72-12.25 25.186-10.78 40.474-25.382 43.512-41.454 3.92-20.286-18.816-42.238-56.84-55.076-5.684-1.96-10.29-3.528-10.388-3.528 0 0-3.234 1.078-7.154 2.45ZM261.274 311.548c-13.328 2.352-29.498 8.33-39.2 14.406l-4.018 2.548 3.234 9.31c5.292 14.602 7.35 26.46 8.036 44.198.98 27.048-1.764 39.788-16.464 77.322-4.802 12.348-8.526 22.638-8.33 22.932.686.686 9.996-1.764 16.464-4.312 28.91-11.27 50.666-36.162 58.8-67.228 1.96-7.644 2.156-10.682 2.45-53.606.294-24.99.196-46.06-.098-46.844-.686-1.568-6.958-1.176-20.874 1.274ZM18.43 355.06c0 40.866.196 46.354 1.862 53.41 6.566 28.518 25.774 53.214 51.058 65.66 9.016 4.41 23.52 9.212 24.598 8.134.294-.392-3.332-10.682-8.232-23.03-14.896-37.73-16.268-43.61-16.268-71.344 0-21.952 1.47-31.458 7.644-49.784l3.332-9.604-4.116-2.646c-13.426-8.526-43.806-17.248-57.428-16.464l-2.45.098 0 45.57Z" stroke="#44739e" stroke-width="4" fill="none"/>
</svg>