<svg xmlns="http://www.w3.org/2000/svg" viewBox="0 0 512 512">
	<path d="M204 273v-8h4 4v8 8h-4-4v-8Zm24 0v-8h4 4v8 8h-4-4v-8Zm24 0v-8h4 4v8 8h-4-4v-8Zm24 0v-8h4 4v8 8h-4-4v-8Zm-72-32v-8h4 4v8 8h-4-4v-8Zm24 0v-8h4 4v8 8h-4-4v-8Zm24 0v-8h4 4v8 8h-4-4v-8Zm24 0v-8h4 4v8 8h-4-4v-8Zm21.5-21.5-2.4-2.5H244 192.9l-2.4 2.5-2.5 2.4V257v35.1l2.5 2.4 2.4 2.5H244h51.1l2.4-2.5 2.5-2.4V257 221.9l-2.5-2.4ZM158.7 334.2l7.9-5.2h77.5 77.4l8.2 5.5c4.5 3 8.7 6.4 9.3 7.4 1.6 3.1 1.3 20.3-.4 22.7-.8 1.1-5 4.4-9.3 7.2l-7.9 5.2H269.1 216.9l-2.4 2.5c-1.6 1.5-2.5 3.6-2.5 5.5s.9 4 2.5 5.5l2.4 2.5h40.9 40.9l.6 23.7c.3 13.3 1.2 28.3 2.1 34.1 1.9 12.8 6.1 31.3 8.6 38.8 1.1 3.2 2 6.1 2 6.6 0 .4-30.6.8-68 .8-38.1 0-68-.4-68-.9s.7-2.8 1.5-5.2c6.8-19.2 10.5-43.7 11.2-74.2l.6-23.7h4.9c6 0 9.8-3.1 9.8-8 0-1.9-.9-4-2.5-5.5-2.4-2.4-2.7-2.5-18.6-2.5H166.6l-7.9-5.2c-4.3-2.8-8.5-6.1-9.3-7.2-2-2.9-2-20.3 0-23.2.8-1.1 5-4.4 9.3-7.2Zm41.1-211.1c5-2 7.1-2.1 44.5-2 35.6 0 39.6.2 43.7 1.8 10.8 4.4 25.6 14.6 39.4 27 4.4 4 10.7 8.5 14.1 10.1 7.5 3.6 18.1 5.3 25.2 4.2l5.3-.9v10.8V185H328.4 284.8l-2.9 2.9c-1.6 1.6-2.9 3.9-2.9 5.1s1.3 3.5 2.9 5.1l2.9 2.9h15.6H316v56 56H244 172V257 201h42.9c41.8 0 42.9 0 45.5-2.1 3.7-2.9 3.7-8.9 0-11.8-2.6-2.1-3.4-2.1-73.5-2.1H116V174.1 163.3l5.2.9c7.2 1.1 17.8-.6 25.3-4.2 3.4-1.6 9.7-6.1 14.1-10.1 14.8-13.3 28.3-22.5 39.2-26.8ZM197 97l4-8h43 43l4 8 4 8H244 193l4-8Zm41.2-27.3c5.7-3.3 6.2-3.3 11.8.1l4.5 2.7-5.3.3c-2.8.2-7.6.2-10.5 0l-5.2-.3 4.7-2.8Zm-.5-51.3c9.1-3.9 20.1 1.7 21.9 11.1 2.9 15.8-15.5 25.9-26.7 14.6-8-8-5.5-21.4 4.8-25.7ZM251.5 1.9c-5.4-1.5-15.9-.2-21.3 2.5-7.3 3.7-10.5 6.8-14.3 13.8-3 5.6-3.3 7.2-3.4 14.3 0 9.4 2.9 16.8 8.9 22.8l3.6 3.6-2.2 1.5C212.1 67.2 201.6 73 200 73c-2.9 0-7.2 1.9-9.9 4.3-3.5 3.2-13.1 23.3-13.1 27.4 0 1.8.7 4.9 1.5 6.8l1.4 3.5-4.2 2.7c-6.5 4.1-15.5 11.1-23.7 18.7-11.9 10.9-17.8 12.9-34 11.2-6.9-.7-7.8-.6-11 1.6-6.3 4.3-7.1 7.1-6.8 25.5.3 17.6.7 18.9 7.2 23.7 2.5 2 4.3 2.1 25.7 2.4l22.9.3v57.8 57.7l-8.7 6c-6.4 4.3-9.6 7.2-11.8 10.8-3 4.9-3 5-3 19.6 0 14.5 0 14.7 3 19.5 2.1 3.4 5.6 6.7 12 11.1 9.8 6.9 15.7 9.4 21.8 9.4h4l-.6 23.2c-.7 32-4.9 56.3-13.3 78.2-4 10.5-4.2 12.9-.9 16.1l2.4 2.5H244h83.1l2.4-2.5c3.2-3.1 3.1-5.8-.5-15-8.5-21.4-12.9-47.1-13.7-79.8l-.6-22.7h4c6.1 0 12-2.5 21.8-9.4 6.4-4.4 9.9-7.7 12-11.1 3-4.8 3-5 3-19.5s0-14.7-3-19.5c-2.2-3.5-5.5-6.6-11.8-10.9l-8.7-6V258.8 201.1l22.9-.3c21.4-.3 23.2-.4 25.7-2.4 6.6-4.9 6.9-5.9 6.9-24.3 0-16.7 0-16.8-2.7-20.3-4.1-5.3-9.9-7.3-18-6-12 1.9-19-.7-30.8-11.5-7.9-7.1-16.6-14-23.7-18.6l-4.2-2.7 1.4-3.5c.8-1.9 1.5-5 1.5-6.8 0-4.1-9.6-24.2-13.1-27.4-2.7-2.4-7-4.3-9.9-4.3-1.6 0-12.1-5.8-22.8-12.6L263 58.9l3.6-3.6c2-2 4.8-6.1 6.3-9.2 3.6-7.7 3.6-19.2.1-26.6-4.2-8.5-12.3-15.2-21.5-17.6Z" stroke="#44739e" stroke-width="4" fill="none"/>
</svg>