<svg xmlns="http://www.w3.org/2000/svg" viewBox="0 0 512 512">
	<path d="M227.89 1.51c16.3337 0 32.6663 0 49 0 9.799 5.6768 13.229 14.1701 10.29 25.48-.7115 3.0583-2.1815 5.6716-4.41 7.84 7.2402 8.1028 9.8539 17.5762 7.84 28.42 9.0278-.3846 17.1941 2.0654 24.5 7.35 5.0323 4.9597 4.706 9.533-.98 13.72-4.4502 1.092-8.3702.112-11.76-2.94-3.7701-1.5833-7.6901-2.5633-11.76-2.94-25.48-.6534-50.96-.6534-76.44 0-4.0699.3767-7.9899 1.3567-11.76 2.94-10.7682 7.9986-21.8746 15.5118-33.32 22.54-10.3968 3.9651-21.1768 5.9251-32.34 5.88 5.5919 7.2265 12.1255 13.4329 19.6 18.62 3.7701 1.5837 7.6901 2.5637 11.76 2.94 56.1863.6537 112.3737.6537 168.56 0 6.0603-.6037 11.614-2.5637 16.66-5.88 5.585-5.2577 10.8123-10.8104 15.68-16.66-15.9505 1.6885-30.4868-2.0678-43.61-11.27-2.6029-6.5543-.4792-10.801 6.37-12.74 7.9723 4.2361 16.465 7.0127 25.48 8.33 6.1162.581 12.1589.091 18.13-1.47 12.4303 2.6476 16.024 9.8343 10.78 21.56-7.6763 8.33-15.3537 16.66-23.03 24.99-9.8167 6.3749-20.5967 9.4776-32.34 9.31 0 32.0137 0 64.0263 0 96.04 5.9555-.2979 11.8355.1921 17.64 1.47 5.3939 2.7832 8.4976 7.1932 9.31 13.23.8095 11.1446.4822 22.2519-.98 33.32-6.9149 20.0577-21.1249 29.204-42.63 27.44.1627 7.5205 0 15.0342-.49 22.54-.6537 1.96-1.3063 3.92-1.96 5.88-3.3173 3.6427-6.2573 7.5627-8.82 11.76-1.077 5.8026-1.567 11.6826-1.47 17.64-.097 5.9574.393 11.8374 1.47 17.64 2.5627 4.1973 5.5027 8.1173 8.82 11.76.6537 1.96 1.3063 3.92 1.96 5.88.49 7.5058.6527 15.0195.49 22.54 12.2843-.7977 21.9216 3.7759 28.91 13.72.443 8.0438-3.3134 11.1475-11.27 9.31-3.2036-3.5339-7.1236-5.8202-11.76-6.86-46.4314-.9604-92.8178-.6341-139.16.98-4.2307 2.2687-7.007 5.6987-8.33 10.29-.6537 8.4937-.6537 16.9863 0 25.48 53.0141 1.1407 106.0977 1.3044 159.25.49.7909-4.9813 1.2809-10.045 1.47-15.19 3.6309-4.3924 7.8772-5.046 12.74-1.96 2.9282 7.6705 3.2546 15.5105.98 23.52-1.6542 4.1013-4.4306 7.0413-8.33 8.82-57.4937 0-114.9863 0-172.48 0-4.9862-2.7528-8.0899-7.0001-9.31-12.74-.6537-9.4737-.6537-18.9463 0-28.42 3.4594-18.6416 14.7294-27.7879 33.81-27.44-.1627-7.5205 0-15.0342.49-22.54.6537-1.96 1.3063-3.92 1.96-5.88 3.3173-3.6427 6.2573-7.5627 8.82-11.76 1.077-5.8026 1.567-11.6826 1.47-17.64.097-5.9574-.393-11.8374-1.47-17.64-2.5627-4.1973-5.5027-8.1173-8.82-11.76-.6537-1.96-1.3063-3.92-1.96-5.88-.49-7.5058-.6527-15.0195-.49-22.54-21.5051 1.764-35.7151-7.3823-42.63-27.44-1.4622-11.0681-1.7895-22.1754-.98-33.32.8124-6.0368 3.9161-10.4468 9.31-13.23 5.8045-1.2779 11.6845-1.7679 17.64-1.47-.1627-7.1942 0-14.3805.49-21.56 2.4275-5.831 6.5101-7.301 12.25-4.41 1.177.8849 1.9943 2.0276 2.45 3.43.49 7.5058.6527 15.0195.49 22.54 41.8137 0 83.6263 0 125.44 0 0-32.0137 0-64.0263 0-96.04-41.8137 0-83.6263 0-125.44 0 .1637 16.0103 0 32.0166-.49 48.02-3.3516 4.1679-7.4353 4.9853-12.25 2.45-1.3651-1.1476-2.1825-2.6176-2.45-4.41-.49-15.3497-.6537-30.7034-.49-46.06-11.7433.1676-22.5233-2.9351-32.34-9.31-9.0621-9.0581-17.3921-18.6945-24.99-28.91-1.7777-8.9748 1.6523-14.692 10.29-17.15 13.9738 3.1636 27.3675 1.5304 40.18-4.9 8.4937-6.2066 16.9863-12.4134 25.48-18.62 6.6503-3.9493 13.8376-5.7459 21.56-5.39-2.0139-10.8438.5998-20.3172 7.84-28.42-2.2285-2.1684-3.6985-4.7817-4.41-7.84-2.939-11.3099.491-19.8032 10.29-25.48Zm5.88 14.7c12.4176-.1633 24.8312.0001 37.24.49 1.3063 2.2866 1.3063 4.5734 0 6.86-12.4137.6534-24.8263.6534-37.24 0-1.2534-2.4476-1.2534-4.8976 0-7.35Zm4.9 23.52c9.1522-.1632 18.2995.0002 27.44.49 2.8939 3.3402 5.6713 6.7702 8.33 10.29.489 4.2342.6527 8.4808.49 12.74-15.0263 0-30.0537 0-45.08 0-.1627-4.2592.001-8.5058.49-12.74 2.7852-3.6228 5.5615-7.2161 8.33-10.78ZM163.21 259.25c59.4546-.1637 118.9073 0 178.36.49 1.5896 10.68 1.0996 21.2964-1.47 31.85-3.481 6.4102-8.871 10.1675-16.17 11.27-47.6937.6537-95.3863.6537-143.08 0-11.0564-1.5837-17.1-7.9537-18.13-19.11-.785-8.2438-.6213-16.4101.49-24.5Zm43.12 59.78c30.7063 0 61.4137 0 92.12 0 .1627 6.5415 0 13.0752-.49 19.6-9.9646 10.7633-14.0483 23.5033-12.25 38.22-1.7983 14.7167 2.2854 27.4567 12.25 38.22.49 6.5248.6527 13.0585.49 19.6-30.7063 0-61.4137 0-92.12 0-.1627-6.5415 0-13.0752.49-19.6 9.9646-10.7633 14.0483-23.5033 12.25-38.22 1.7983-14.7167-2.2854-27.4567-12.25-38.22-.49-6.5248-.6527-13.0585-.49-19.6Zm54.88 70.56c.98 0 1.96 0 2.94 0 .3312 2.6039-.3224 4.8902-1.96 6.86-.9545-2.1981-1.2818-4.4845-.98-6.86ZM222.01 86.77c9.1287-.3719 12.0687 3.5481 8.82 11.76-6.418 4.4737-10.9907 3.0037-13.72-4.41.3116-3.4009 1.9443-5.8509 4.9-7.35Zm-28.42 13.72c5.9025-1.2773 9.4952 1.0094 10.78 6.86-.9094 6.3377-4.5031 8.7877-10.78 7.35-5.1695-4.7804-5.1695-9.5168 0-14.21Zm44.1 9.8c7.2089 1.0329 9.6589 4.9529 7.35 11.76-4.2463 3.92-8.4937 3.92-12.74 0-1.9247-5.8486-.1284-9.7686 5.39-11.76Zm-15.68 45.08c20.2556-.1637 40.5093 0 60.76.49 5.0637 1.1437 8.1663 4.2463 9.31 9.31.6537 20.2537.6537 40.5063 0 60.76-1.7963 4.41-4.9 7.5137-9.31 9.31-20.2537.6537-40.5063.6537-60.76 0-4.41-1.7963-7.5137-4.9-9.31-9.31-.6537-20.2537-.6537-40.5063 0-60.76 1.323-5.0774 4.4267-8.3437 9.31-9.8Zm5.88 15.68c16.3337 0 32.6663 0 49 0 0 16.3337 0 32.6663 0 49-1.6337 0-3.2663 0-4.9 0 .4273-11.5081-.0627-22.9418-1.47-34.3-4.2365-6.4455-10.2802-9.3855-18.13-8.82-7.8498-.5655-13.8935 2.3745-18.13 8.82-1.4073 11.3582-1.8973 22.7919-1.47 34.3-1.6337 0-3.2663 0-4.9 0 0-16.3337 0-32.6663 0-49Zm20.58 21.56c2.6137 0 5.2263 0 7.84 0 0 9.1463 0 18.2937 0 27.44-2.6137 0-5.2263 0-7.84 0 0-9.1463 0-18.2937 0-27.44Zm55.86 91.14c7.8077.245 10.584 4.165 8.33 11.76-6.5836 4.9245-11.32 3.6182-14.21-3.92.5655-3.7779 2.5255-6.3916 5.88-7.84Zm-32.34 46.06c2.7812.6566 5.2312 1.9639 7.35 3.92 3.039 6.2789 3.039 12.4852 0 18.62-4.8628 3.086-9.1091 2.4324-12.74-1.96-.49-3.92-.98-7.84-1.47-11.76-.1715-5.0372 2.1148-7.9772 6.86-8.82Zm-6.86 43.12c11.2543-1.321 16.1543 3.7426 14.7 15.19-.3067 6.4768-1.1231 12.8468-2.45 19.11-7.7008 3.4388-15.7045 6.0515-24.01 7.84-3.4663-.6889-5.9163-2.6489-7.35-5.88-.3263-5.5537-.6537-11.1063-.98-16.66-.4057.4479-.8957.7752-1.47.98-.8134 5.5252-1.3034 11.0779-1.47 16.66-5.1548 6.1613-10.0548 5.8339-14.7-.98-.6537-7.84-.6537-15.68 0-23.52 1.566-4.901 4.996-7.351 10.29-7.35-9.0758 1.2956-12.8331-2.4618-11.27-11.27 1.0868-2.2687 2.8841-3.7387 5.39-4.41 4.5511-1.0084 9.1238-1.8248 13.72-2.45-.1627-5.5625.001-11.1161.49-16.66 5.2626-6.7796 10.1626-6.4523 14.7.98.489 4.2346.6527 8.4809.49 12.74 3.8837-.9212 7.8037-1.0849 11.76-.49 3.7015 2.8959 4.8441 6.6522 3.43 11.27-3.2173 3.0762-6.9747 4.7099-11.27 4.9Zm-3.92 16.66c-.3018 2.3755.0255 4.6619.98 6.86 1.6376-1.9698 2.2912-4.2561 1.96-6.86-.98 0-1.96 0-2.94 0Z" stroke="#44739e" stroke-width="4" fill="none"/>
</svg>