<svg xmlns="http://www.w3.org/2000/svg" viewBox="0 0 512 512">
	<path d="M264 16.765c4.8 1.805 5 2.47 5 20.425V54.195l2.7 2.47c1.6 1.33 6.4 5.32 10.8 8.835 4.4 3.515 8.6 7.125 9.4 7.98.8.95 2.2 5.32 3 9.88l1.6 8.265 4.6.57c6.5.95 8.3 1.995 17.4 10.355 5.1 4.655 9.5 7.79 12 8.645 5.9 1.9 15.1 1.52 24.9-1.045l8.7-2.185 2.7 1.9c6 4.275 5.1 14.25-2.2 24.32-4.4 6.08-6.6 7.695-28.8 20.995-16.4 9.785-14.3 5.32-17.2 37.145l-2.4 27.455 4.9 5.13c3.2 3.325 4.9 5.985 4.9 7.505 0 4.75-4.1 25.46-5.5 27.455-.9 1.235-7.8 4.275-20.4 8.93-15.9 5.795-19.3 7.41-19.7 9.12-.8 2.85 0 3.8 3.3 4.655 4.6 1.045 18.4 7.98 25.2 12.635 15.5 10.45 30.7 28.405 41.5 49.115 11.5 22.04 16.1 37.81 19.1 66.025.8 7.98 1.5 14.915 1.5 15.295 0 .475 8.3.855 18.4.855 15.4 0 18.7.285 20 1.52 2 1.805 2 1.995 5.1 21.09 2 12.255 2.5 19.19 2.5 32.585 0 15.77-.1 17.1-2 18.905-2 1.9-3.3 1.9-103.8 1.9-90.5 0-102-.19-104-1.52-2.1-1.425-2.2-1.9-2.2-20.235 0-18.05.2-19.57 3.6-34.865 2.1-9.405 4.3-16.815 5.2-17.86 1.6-1.615 3.8-1.71 46.7-1.425l45 .38 1.5-2.85c1-1.9 1.6-6.46 1.8-13.87.8-24.13-7.7-53.105-20-68.875-5-6.27-10.8-11.02-10.8-8.645 0 3.23-6.4 13.11-11.5 17.67-25.1 22.515-64.3 9.975-70.7-22.61-3-15.39 6.1-32.68 21.7-41.04 5.6-2.945 5.7-3.04 5-6.46-.4-1.9-1-3.705-1.3-3.99-.4-.285-6.9-2.85-14.5-5.51-18.9-6.84-24.3-9.215-25-11.02-1.1-2.565-5.7-24.985-5.7-27.455 0-1.425 1.8-4.18 4.9-7.41l4.9-5.035-2.4-27.55c-2.8-31.825-.8-27.36-17.2-37.145-22.2-13.3-24.4-14.915-28.8-20.995-7.3-10.07-8.2-20.045-2.2-24.32l2.7-1.9 8.7 2.185c9.8 2.565 19 2.945 24.9 1.045 2.5-.855 6.9-3.99 12-8.645 9.1-8.36 10.9-9.405 17.3-10.355l4.6-.57L207 83.55c.8-4.465 1.9-8.645 2.3-9.215.5-.665 5.4-4.94 11-9.5 5.6-4.465 10.8-8.835 11.4-9.69.9-.95 1.3-6.175 1.3-18.145 0-21.375-.9-20.33 16.9-20.615 6.9-.095 13.3 0 14.1.38Zm-18.5 25.65c0 16.53-.3 17.29-9.6 25.365l-6.2 5.32h20.6c11.4 0 20.7-.19 20.7-.475 0-.19-2.9-3.04-6.4-6.365-8.2-7.6-9-10.355-8.3-26.22l.5-11.59h-5.7-5.7l.1 13.965ZM218.6 88.49c-.4 2.47-.3 4.18.4 4.56 3.1 1.805 60.8 1.9 63.9.095.5-.38.7-2.375.4-4.655l-.6-3.99H251 219.3l-.7 3.99ZM278 105.495c-14.5 1.235-55.8.57-66.4-1.14-9.7-1.52-13.2-.285-19.3 6.365-10.5 11.59-24.9 15.96-41.3 12.635-2.8-.57-5.4-.855-5.7-.57-1 .95 3.8 7.22 7.8 10.26 3.8 2.85 4.4 2.945 9.9 2.47 7.6-.76 16-4.085 28-10.83 5.2-2.945 10.6-5.32 12-5.32 1.6 0 5.4 1.995 9.9 5.225 25.9 18.81 49.6 18.81 76-0 4.6-3.23 8.5-5.225 10.1-5.225 1.4 0 6.8 2.375 12 5.32 12 6.745 20.4 10.07 28 10.83 5.5.475 6.1.38 9.9-2.47 4-3.04 8.8-9.215 7.8-10.165-.3-.285-3.3 0-6.6.665-8 1.425-18.1.665-25.6-1.995-4.8-1.71-7.4-3.61-13-9.12-8-7.98-10.2-9.12-16.5-8.455-2.5.19-10.1.95-17 1.52Zm15.7 30.685c-12.1 8.17-26 13.395-38.6 14.44-13.5 1.235-32.2-4.56-46.6-14.25l-6.3-4.275-8.1 4.655c-4.5 2.565-10.3 5.415-12.9 6.27-2.6.95-5.1 1.9-5.5 2.28-.5.38 2.7 3.04 7.1 5.985 9.1 6.08 12.3 6.84 40.6 10.165 27.1 3.23 51.7 2.28 78-2.85 8.6-1.615 10.5-2.47 17.7-7.22 4.4-2.945 7.7-5.7 7.2-6.08-.4-.38-2.9-1.33-5.5-2.28-2.5-.855-8.1-3.705-12.5-6.175-4.3-2.565-7.9-4.655-8.1-4.75-.2-.095-3.1 1.805-6.5 4.085Zm-99.5 36.385.3 3.42 7.3 1.615c4.1.95 8.1 2.375 9 3.23 1.2 1.045 2.1 5.605 3.3 16.435 2.3 19.285 2.3 22.515.3 24.13-.9.76-5.7 2.565-10.7 4.18-5 1.52-9.2 3.23-9.4 3.8-.2.475 7.2 3.515 16.5 6.65l16.7 5.7H251h23.5l16.8-5.7c9.2-3.135 16.6-6.08 16.4-6.65-.2-.475-4.4-2.28-9.4-3.8-5-1.615-9.8-3.42-10.7-4.18-2-1.615-2-3.705.1-22.8 2-18.81 2.3-19.285 12.8-21.185 6.9-1.235 7-1.33 7.3-4.465l.3-3.23-3.8.665c-21.6 3.515-33.1 4.655-49.3 4.655-17.1.095-38.4-1.71-53-4.56-3.6-.665-6.9-1.235-7.3-1.33-.5 0-.7 1.425-.5 3.42Zm107.5 17.1c-.7 1.045-3.1 22.99-2.6 23.465.2.19 1.4.57 2.5.95 2.6.76 3-.665 4-15.39.6-9.405.6-9.69-1.4-9.69-1.2 0-2.3.285-2.5.665ZM196.4 198.69c1 14.725 1.4 16.15 4 15.39 1.1-.38 2.3-.76 2.5-.95.4-.38-2-22.42-2.6-23.465-.2-.38-1.3-.665-2.5-.665-2 0-2 .285-1.4 9.69Zm85.8 53.485c-1.1 1.045-2.2 10.925-1.3 10.925.3 0 7-2.47 14.8-5.415 8.6-3.23 14.5-5.985 14.7-6.84.3-.855.7-3.325 1.1-5.415l.6-3.99-14.5 4.94c-8 2.66-14.9 5.32-15.4 5.795Zm-90.9-4.75 1 5.225 14 5.225c7.7 2.85 14.3 5.225 14.6 5.225 1.3 0-.4-10.735-1.9-11.59-1.9-1.045-26.1-9.215-27.6-9.215-.7-.095-.8 1.425-.1 5.13Zm42.2 11.115c.4 2.755.8 5.605 1 6.175.3.95 4.5 1.235 16.4 1.235 18.1 0 16.2.855 17.5-8.36l.6-3.99H251 232.9l.6 4.94Zm1.9 25.27c.6 4.75.4 5.89-1.4 8.075-1.2 1.425-2.8 2.565-3.6 2.565-3.1 0-11.3 4.845-15.2 9.025-16.1 17.385-3.5 45.695 20.6 46.36 16.6.475 29.9-10.545 30.9-25.745.8-10.83-4.8-18.05-14.5-19-4.4-.38-5.2-.095-8.5 2.565-4.5 3.8-7.2 10.165-6.3 14.915.9 4.465 4.6 7.98 8.5 7.98 4.3 0 6.1.95 7.2 3.515.9 2.375-.2 5.7-2.5 7.125-1.6 1.045-9.1.95-12.3-.285-4-1.425-9.2-6.365-11.4-10.83-5.9-12.065 1.7-30.115 14.9-35.34 1.9-.76 6.4-1.33 10-1.33 12.5 0 22.1 7.125 26 19.19 1.6 4.845 2.4 5.985 6.3 8.265 17.1 10.45 30.4 35.245 35.3 65.74 4.2 26.315 2.5 41.04-5.8 48.355-3.4 3.04-2.2 4.37 5.2 5.89 13.6 2.66 35.6.76 39.2-3.42 1.7-1.9 1.7-2.945-.9-25.175-3.4-29.83-8.3-46.075-20.3-67.45-15.4-27.455-38.4-46.74-63.6-53.105-5.5-1.425-7.7-4.465-6.8-9.595l.6-3.8H250.9 234.7l.7 5.51ZM369.1 442.555c-5.8 8.645-18.7 12.255-39.6 11.21-17.3-.95-26.3-4.37-29.3-11.115l-1.7-3.8H260.8 223l-.5 2.09c-2.7 11.4-3.5 14.725-3.5 15.675s19.1 1.235 92 1.235c72.9 0 92-.285 92-1.235 0-1.33-1.8-12.255-2.6-16.15l-.6-2.565H386.1 372.3l-3.2 4.655Zm-151.9 37.81.3 10.26 93.2.285 93.3.19V480.65 470.2H310.5 216.9l.3 10.165ZM272.7 182.35c1.2.475 2.5 1.995 2.9 3.325.6 2.28-.9 24.32-2.2 33.06-1 6.175-1.5 6.365-20.8 6.365-14.9 0-17.5-.19-18.7-1.52-1.7-1.995-5-35.055-3.8-38.19.5-1.14 2-2.565 3.4-3.04 3.2-1.14 36.2-1.14 39.2 0ZM243 197.265c0 1.995.3 6.46.7 9.975l.6 6.46h8.3c4.5 0 8.5-.285 8.7-.76.2-.38.8-4.845 1.1-9.975l.7-9.215h-10H243v3.515Z" stroke="#44739e" stroke-width="4" fill="none"/>
</svg>