<svg xmlns="http://www.w3.org/2000/svg" viewBox="0 0 512 512">
	<path d="M223.97 1.51c18.9463 0 37.8937 0 56.84 0 2.9253 1.7199 5.3753 4.0065 7.35 6.86 3.8955 11.3612 7.9792 22.6312 12.25 33.81 30.77 4.9865 54.78 20.1765 72.03 45.57 14.259 25.3575 6.909 35.8112-22.05 31.36 0 45.4063 0 90.8137 0 136.22 15.6271-2.6646 22.8134 3.869 21.56 19.6.735 15.6751-6.125 26.6188-20.58 32.83-7.7704 1.3357-15.6104 1.8257-23.52 1.47 4.2503 37.924 8.8239 75.8177 13.72 113.68-.3263 4.9-2.94 7.5137-7.84 7.84-5.7222-.6644-8.4986-3.9308-8.33-9.8-4.5413-37.1508-9.2786-74.2272-14.21-111.23-39.4332-.8134-78.7959-.6497-118.09.49-7.351 59.4635-14.701 118.9161-22.05 178.36 54.2263 0 108.4537 0 162.68 0-1.7924-11.7188-2.9351-23.4788-3.43-35.28 3.8142-5.6438 8.3878-6.2975 13.72-1.96 2.7156 12.741 4.5129 25.6446 5.39 38.71.6654 6.0211-1.6209 10.4311-6.86 13.23-60.1063 0-120.2137 0-180.32 0-5.2391-2.7989-7.5254-7.2089-6.86-13.23 7.2236-60.2729 14.4099-120.5429 21.56-180.81-18.0996 3.5986-31.9823-2.2814-41.65-17.64-2.4284-8.9788-3.0821-18.1251-1.96-27.44 1.4132-3.6995 3.8632-6.4758 7.35-8.33 4.5619-.489 9.1346-.6527 13.72-.49 0-45.4063 0-90.8137 0-136.22-7.1942.1627-14.3805 0-21.56-.49-5.147-1.9541-7.7596-5.7114-7.84-11.27 3.8014-15.9351 11.9687-29.1651 24.5-39.69 8.2193-3.1643 12.3029-.3877 12.25 8.33-2.8577 4.8215-6.4504 9.0682-10.78 12.74-3.2732 4.5818-6.0495 9.4818-8.33 14.7 73.1737 1.3063 146.3463 1.3063 219.52 0-8.8004-18.1098-22.5204-31.0132-41.16-38.71-10.4096-3.5157-20.8632-6.7825-31.36-9.8-1.2613-1.3813-2.4049-2.8513-3.43-4.41-3.8955-11.3612-7.9792-22.6312-12.25-33.81-14.3737-.6534-28.7463-.6534-43.12 0-4.2708 11.1788-8.3545 22.4488-12.25 33.81-1.0251 1.5587-2.1687 3.0287-3.43 4.41-9.4452 2.9374-18.9189 5.8774-28.42 8.82-9.1042 1.5894-12.5342-2.1673-10.29-11.27.8163-.8166 1.6337-1.6334 2.45-2.45 8.4858-3.3732 17.1422-6.1498 25.97-8.33 3.92-11.1066 7.84-22.2134 11.76-33.32 1.9747-2.8535 4.4247-5.1401 7.35-6.86Zm-53.9 117.6c54.88 0 109.76 0 164.64 0 0 45.4063 0 90.8137 0 136.22-54.88 0-109.76 0-164.64 0 0-45.4063 0-90.8137 0-136.22Zm74.48 32.34c20.7084-2.1482 34.9184 6.3445 42.63 25.48 4.2806 23.6278-5.0294 38.8178-27.93 45.57-20.8946 2.3834-34.7782-6.274-41.65-25.97-3.8073-22.7772 5.1764-37.8035 26.95-45.08ZM148.51 270.03c69.2537 0 138.5063 0 207.76 0 2.3089 10.5673-1.2838 18.2437-10.78 23.03-62.0663.6537-124.1337.6537-186.2 0-9.4962-4.7863-13.0889-12.4627-10.78-23.03Zm95.06-134.26c30.2134-2.4676 49.9761 10.5997 59.29 39.2 4.5933 28.8757-6.3504 49.292-32.83 61.25-30.2428 7.79-52.2928-2.1736-66.15-29.89-8.0478-26.804-.6978-48.2003 22.05-64.19 5.8163-2.6431 11.6963-4.7667 17.64-6.37Zm.98 15.68c-21.7736 7.2765-30.7573 22.3028-26.95 45.08 6.8718 19.696 20.7554 28.3534 41.65 25.97 22.9006-6.7522 32.2106-21.9422 27.93-45.57-7.7116-19.1355-21.9216-27.6282-42.63-25.48Z" stroke="#44739e" stroke-width="4" fill="none"/>
</svg>