<svg xmlns="http://www.w3.org/2000/svg" viewBox="0 0 512 512">
	<path d="M271.755 9.9c19.998 5.445 44.253 23.364 52.074 38.709 3.762 7.524 1.782 20.097-5.148 32.373-2.574 4.554-2.97 6.138-2.673 11.385l.297 6.039 15.345 5.148c29.007 9.603 43.56 16.434 64.845 30.492 28.512 18.81 45.936 36.036 46.035 45.54 0 3.465-3.861 9.9-7.227 12.276-4.752 3.168-32.175 9.999-58.905 14.553-11.385 1.98-43.857 6.435-46.728 6.435-.396 0-1.485 2.871-2.376 6.336l-1.782 6.336 3.069 5.94c6.336 12.573 8.316 24.849 9.504 58.113.792 21.384 1.782 28.809 4.356 31.581 9.405 10.395 10.197 32.274 1.287 41.481l-2.673 2.772 4.158 3.465c4.554 3.762 16.632 18.513 23.067 28.017 12.87 19.206 22.77 50.292 22.77 71.478v9.207l-6.138 6.039c-3.564 3.366-9.504 7.722-13.662 9.9-7.326 3.96-7.524 3.96-18.315 3.96-11.385 0-16.929-1.287-19.701-4.356-.891-.99-2.079-4.653-2.673-8.118-2.376-14.949-11.385-36.927-17.721-42.966l-2.871-2.772-.891 2.376c-2.673 7.029-3.663 18.117-3.465 39.303l.198 21.978-3.168 2.376c-6.732 5.049-25.344 9.009-42.273 8.811-17.424-.099-37.62-4.95-41.778-9.9-.99-1.188-1.287-7.227-1.386-24.453 0-17.226-.495-24.849-1.683-30.69-.891-4.356-2.079-8.316-2.475-8.712-1.485-1.485-6.831 5.742-11.583 15.345-3.762 7.92-7.029 18.315-10.098 32.769-.495 2.277-1.782 4.554-3.267 5.742-3.465 2.574-13.068 4.059-21.978 3.465-9.702-.594-19.404-5.445-28.314-14.058l-6.138-6.039v-9.207c0-21.186 9.9-52.272 22.77-71.478 6.435-9.504 18.513-24.255 23.067-28.017l4.158-3.465-2.673-2.772c-5.346-5.544-7.524-15.246-5.742-25.146 1.089-5.841 3.267-10.989 8.019-18.414 1.782-2.772 2.178-5.742 2.97-23.265 1.881-41.283 3.465-51.579 9.9-64.35l3.069-5.94-1.782-6.336c-1.881-7.128 1.089-5.94-22.176-8.811-32.373-3.96-78.408-13.86-85.734-18.315-3.267-2.079-7.326-9.009-7.326-12.474.099-9.702 21.681-30.492 50.49-48.609 19.998-12.573 28.809-16.632 56.43-26.136l19.305-6.633.297-5.94c.297-5.148-.099-6.732-2.673-11.286-4.554-8.019-7.029-16.137-7.029-22.968 0-7.821 3.465-14.058 13.266-23.859 11.781-11.781 27.72-21.087 42.273-24.651 8.118-1.98 10.593-1.881 19.206.396ZM248.787 23.661c-9.108 3.168-22.275 11.484-28.908 18.216-4.257 4.356-4.257 4.455-1.98 5.247 3.663 1.188 85.239.99 87.318-.198 1.683-.99 1.188-1.584-3.96-6.336-8.613-7.92-17.919-13.662-27.225-16.929-10.296-3.564-15.048-3.564-25.245 0ZM261.36 59.895c-22.572 0-43.659-.297-46.827-.792l-5.841-.693.693 3.168c.396 1.782 1.98 6.039 3.465 9.405l2.871 6.237H261.36h45.639l2.871-6.237c1.485-3.366 3.069-7.623 3.465-9.405l.693-3.168-5.841.693c-3.168.495-24.255.792-46.827.792ZM218.79 93.06v3.96h42.57 42.57V93.06 89.1H261.36 218.79v3.96Zm-23.859 22.176c-29.601 9.702-48.708 19.206-70.686 35.046C106.128 163.35 93.06 175.626 93.06 179.784c0 1.98 2.277 2.871 18.315 6.633 97.515 23.166 206.811 22.968 301.95-.396 13.959-3.465 16.335-4.356 16.335-6.237 0-4.95-18.612-21.384-40.59-35.838-19.899-13.167-37.224-21.087-65.835-30.195l-11.88-3.762H261.261l-50.094-.099-16.236 5.346ZM261.36 215.325c-20.988 0-41.778-.297-46.332-.792l-8.217-.792.693 2.772c.396 1.584.891 3.069 1.089 3.465.198.495 23.958.792 52.767.792 28.809 0 52.569-.297 52.767-.792.198-.396.693-1.881 1.089-3.465l.693-2.772-8.217.792c-4.554.495-25.344.792-46.332.792Zm5.94 65.835v48.609l9.108-.693c12.474-.891 28.908-3.663 40.887-7.029 9.801-2.772 9.9-2.871 9.702-5.742 0-1.683-.594-14.157-1.188-27.72-1.485-32.373-2.376-37.917-7.722-50.292l-2.574-5.643H291.456 267.3v48.51Zm-61.776-44.847c-5.841 12.078-7.128 20.196-8.514 52.371-.495 13.167-1.287 25.245-1.584 26.928l-.594 2.97 10.692 2.475c16.929 3.96 39.699 7.623 47.52 7.623H255.42V280.665 232.65H231.363 207.306l-1.782 3.663Zm109.989 98.901c-35.343 8.91-72.171 8.217-113.058-2.079-11.682-2.97-12.969-3.069-14.157-1.683-3.168 4.059-4.158 15.147-1.683 19.899 2.772 5.346 14.058 10.692 32.67 15.345 28.71 7.227 64.35 6.039 94.545-3.069 12.672-3.762 20.097-7.92 22.473-12.474 1.881-3.762 1.386-13.662-1.089-18.315l-1.584-3.069-4.257 1.485c-2.277.792-8.514 2.574-13.86 3.96ZM314.82 376.2c-35.739 10.692-74.547 10.296-111.177-1.089l-9.702-2.97-3.168 1.98c-8.316 5.148-24.552 25.641-32.274 40.689-8.118 15.84-14.949 39.897-14.949 52.767 0 5.049.297 5.742 3.366 8.316 1.881 1.485 4.752 3.564 6.336 4.455l2.97 1.782 3.663-10.593c9.702-28.215 20.592-45.342 32.373-51.381 11.484-5.841 23.958-1.287 30.195 10.791 5.247 10.395 6.435 18.117 6.831 42.768.396 18.414.693 22.869 1.881 23.463 3.663 2.079 20.493 4.752 30.195 4.752s26.532-2.673 30.195-4.752c1.188-.594 1.485-5.049 1.881-23.463.297-19.206.693-23.958 2.376-30.393 4.752-17.622 12.276-25.542 24.255-25.542 16.434 0 30.195 17.325 42.768 53.757l3.663 10.494 2.871-1.485c1.584-.792 4.455-2.871 6.435-4.554l3.663-3.168-.693-8.514c-1.089-15.345-6.534-33.759-14.553-49.5-10.197-19.899-30.987-43.659-37.026-42.273-1.089.297-6.633 1.881-12.375 3.663Zm8.415 59.004c7.623 9.306 14.751 25.641 18.216 41.481l1.683 7.92 5.643.297c3.069.198 5.643.099 5.643-.297 0-1.089-8.217-22.671-10.989-28.908-4.653-10.395-11.484-19.998-16.632-23.166-7.425-4.752-8.811-3.762-3.564 2.673Zm-127.314-2.673c-5.148 3.168-11.979 12.771-16.632 23.166-2.772 6.237-10.989 27.819-10.989 28.908 0 .396 2.574.495 5.643.297l5.643-.297 1.683-7.92c3.465-15.939 10.989-32.967 18.909-42.372 3.168-3.762 3.564-4.653 2.079-4.653-1.089 0-3.96 1.287-6.336 2.871ZM315.018 250.173c1.584 1.782 1.782 4.653 1.782 30.294 0 28.314 0 28.413-2.277 29.799-1.188.792-8.811 2.178-16.83 3.168l-14.652 1.683-2.178-2.178c-2.079-2.079-2.178-2.772-2.475-30.69-.297-26.136-.099-28.71 1.485-30.69 1.683-2.079 2.871-2.178 17.622-2.772 14.85-.495 15.939-.396 17.523 1.386ZM291.06 281.655V301.95l2.178-.396c1.287-.297 4.356-.792 6.93-1.089l4.752-.594V280.566 261.36h-6.93-6.93v20.295Zm-54.648-32.472c8.415.594 8.217.198 7.92 33.363-.297 27.621-.396 28.314-2.475 30.393l-2.178 2.178-14.652-1.683c-8.019-.99-15.642-2.376-16.929-3.168-2.178-1.386-2.178-1.485-2.178-29.997 0-26.334.099-28.611 1.782-30.096 1.485-1.386 3.762-1.683 12.672-1.485 5.94.099 13.167.297 16.038.495ZM217.8 280.566v19.305l4.653.594c2.673.297 5.742.792 6.93 1.089l2.277.396V281.655 261.36h-6.93-6.93v19.206Z" stroke="#44739e" stroke-width="4" fill="none"/>
</svg>