<svg xmlns="http://www.w3.org/2000/svg" viewBox="-2.49 -0.783644 509.8 506.9">
	<path d="M503.27 406.25c0 7.84 0 15.68 0 23.52-3.7769 18.6543-13.9033 32.8643-30.38 42.63-19.3893 10.3831-39.9693 17.2431-61.74 20.58-28.5562 4.6668-57.3026 7.2794-86.24 7.84-65.0622 2.4343-130.0685 1.4543-195.02-2.94-22.2529-1.912-44.1395-5.832-65.66-11.76-16.2318-4.6854-30.9318-12.1981-44.1-22.54-9.6935-9.4296-15.9001-20.6996-18.62-33.81 0-7.5137 0-15.0263 0-22.54 3.0201-15.7349 9.7168-29.7822 20.09-42.14 20.3808-21.7109 44.3908-38.2082 72.03-49.49 18.178-7.2569 36.798-13.1369 55.86-17.64-19.2384-2.5215-37.532-8.0752-54.88-16.66-19.1658-12.397-26.5158-29.8743-22.05-52.43 4.6731-16.3582 13.6565-29.9145 26.95-40.67 6.5934-4.9578 13.4534-9.5315 20.58-13.72 7.9909-1.7993 11.7482 1.3044 11.27 9.31-1.0996 2.0815-2.5696 3.8779-4.41 5.39-16.17 8.33-28.42 20.58-36.75 36.75-7.3325 21.7619-.3091 36.9519 21.07 45.57 17.0667 6.419 34.7067 10.339 52.92 11.76 55.1809 4.1464 110.3872 4.4727 165.62.98 20.0773-1.0594 39.6773-4.653 58.8-10.78 31.6726-13.4142 37.3899-34.1569 17.15-62.23-13.427-14.1512-29.2706-24.7675-47.53-31.85-69.2546-24.9361-138.672-25.4261-208.25-1.47-4.9039-.8232-7.6812-3.7632-8.33-8.82.4949-2.6342 1.8012-4.7579 3.92-6.37 11.8423-4.3826 23.9296-7.9762 36.26-10.78-14.356-3.2605-27.7497-8.8131-40.18-16.66-6.9119-5.2812-11.9756-11.9776-15.19-20.09-2.7185-11.4591.7115-20.4423 10.29-26.95 5.8477-3.4127 12.055-6.0259 18.62-7.84 12.3568-2.4424 24.7705-4.4024 37.24-5.88-9.0807-5.813-16.1034-13.4897-21.07-23.03-6.5346-24.6452 2.7754-39.5086 27.93-44.59 17.5087-2.8944 35.1487-4.0377 52.92-3.43 19.1531-.8942 38.1004.5758 56.84 4.41 19.6666 4.5617 28.324 16.8117 25.97 36.75-3.579 13.0602-11.2553 23.0234-23.03 29.89 14.894 1.448 29.594 4.0614 44.1 7.84 24.502 9.4791 29.2383 24.9959 14.21 46.55-13.9287 11.4552-29.7714 19.1316-47.53 23.03 30.3006 5.8437 57.7406 17.9311 82.32 36.26 13.2937 10.7555 22.2764 24.3118 26.95 40.67 4.4659 22.5557-2.8841 40.033-22.05 52.43-17.348 8.5848-35.6416 14.1385-54.88 16.66 23.6905 5.5007 46.5578 13.3407 68.6 23.52 8.3329 4.3982 8.9856 9.6256 1.96 15.68-2.2863.6537-4.5737.6537-6.86 0-41.9489-19.4334-86.0489-30.5407-132.3-33.32-62.2721-5.0793-122.7058 3.088-181.3 24.5-27.0877 10.4468-50.7711 25.9641-71.05 46.55-31.1097 46.1551-20.1664 78.0051 32.83 95.55 25.6616 7.0727 51.795 11.32 78.4 12.74 78.448 4.7461 156.848 4.0925 235.2-1.96 23.1976-1.962 45.7376-6.862 67.62-14.7 39.8096-16.5257 49.4459-43.8021 28.91-81.83-5.2322-7.6626-11.2749-14.6863-18.13-21.07-7.2932-5.3645-14.3168-11.0818-21.07-17.15-1.7875-6.8816.8252-10.8016 7.84-11.76 21.2209 12.0746 37.8809 28.7346 49.98 49.98 3.0703 7.0903 5.5203 14.2776 7.35 21.56ZM225.93 19.15c23.9061-.5858 47.7534.2308 71.54 2.45 25.1135 4.7799 29.0335 16.5399 11.76 35.28-17.099 11.5225-36.0454 17.2392-56.84 17.15-20.7946.0892-39.741-5.6275-56.84-17.15-17.2735-18.74-13.3535-30.5 11.76-35.28 6.37-.6772 12.5773-1.4939 18.62-2.45ZM212.21 89.71c36.9509-.5693 73.8636.2474 110.74 2.45 12.3186.8289 24.0786 3.7689 35.28 8.82 5.5194 3.8759 6.3357 8.6132 2.45 14.21-7.9821 7.8312-17.2921 13.5485-27.93 17.15-47.5702 14.1806-95.5902 15.8143-144.06 4.9-15.5761-3.2183-29.6225-9.5883-42.14-19.11-6.42-5.83-6.42-11.5464 0-17.15 11.2014-5.0511 22.9614-7.9911 35.28-8.82 10.29-.6768 20.4163-1.4934 30.38-2.45Z" stroke="#44739e" stroke-width="4" fill="none"/>
</svg>