<svg xmlns="http://www.w3.org/2000/svg" viewBox="0 0 512 512">
	<path d="M244.55 1.51c5.2263 0 10.4537 0 15.68 0 20.9308 8.2252 27.9545 23.2519 21.07 45.08-2.3638 4.3276-5.4664 8.0842-9.31 11.27 9.8696 7.3844 20.6496 12.9378 32.34 16.66 6.4425 8.6373 11.3425 18.1106 14.7 28.42-.835 3.5407-1.6513 6.9707-2.45 10.29 3.7563 2.45 7.5137 4.9 11.27 7.35 8.4937 7.1863 16.9863 14.3737 25.48 21.56 4.3394 2.0649 8.9131 3.2085 13.72 3.43 4.9078-.8222 9.8078-1.3122 14.7-1.47 5.5458.9761 9.3031 4.0788 11.27 9.31.6537 11.4337.6537 22.8663 0 34.3-1.7963 4.41-4.9 7.5137-9.31 9.31-15.0234.49-30.0497.6537-45.08.49-.1637 37.5683 0 75.1346.49 112.7 4.8089 3.7936 9.8725 7.2236 15.19 10.29 3.2213 3.2271 5.6713 6.9845 7.35 11.27.6537 9.8.6537 19.6 0 29.4-1.6787 4.2855-4.1287 8.0429-7.35 11.27-6.8953 4.754-14.0816 9.0003-21.56 12.74-3.2507.488-6.517.6517-9.8.49-2.8479 37.8858 2.7058 74.4722 16.66 109.76-.6791 3.3418-2.3128 5.9555-4.9 7.84-54.88 0-109.76 0-164.64 0-2.5872-1.8845-4.2209-4.4982-4.9-7.84 13.9542-35.2869 19.5079-71.8732 16.66-109.76-5.9417.6488-11.4954-.4939-16.66-3.43-4.7314-3.5094-9.6314-6.7767-14.7-9.8-3.2213-3.2271-5.6713-6.9845-7.35-11.27-.6537-9.8-.6537-19.6 0-29.4 1.6787-4.2855 4.1287-8.0429 7.35-11.27 5.3175-3.0664 10.3811-6.4964 15.19-10.29.49-37.5654.6537-75.1317.49-112.7-15.0303.1637-30.0566 0-45.08-.49-4.41-1.7963-7.5137-4.9-9.31-9.31-.6537-11.1063-.6537-22.2137 0-33.32 1.8885-4.8294 5.3185-7.9321 10.29-9.31 5.2391-.5194 10.4654-.3557 15.68.49 4.8069-.2215 9.3806-1.3651 13.72-3.43 7.4754-5.8408 14.6628-12.0471 21.56-18.62 4.9784-3.5515 10.0421-6.9815 15.19-10.29-.7889-3.1556-1.6052-6.4229-2.45-9.8 3.2193-10.5232 8.1193-20.1599 14.7-28.91 11.6904-3.7222 22.4704-9.2756 32.34-16.66-10.1695-8.6174-13.9258-19.5608-11.27-32.83 3.282-12.2644 10.9584-20.1044 23.03-23.52Zm2.94 16.66c16.9197-.2384 22.636 7.6016 17.15 23.52-6.126 6.3805-13.1496 7.5238-21.07 3.43-6.3808-6.1262-7.5235-13.1495-3.43-21.07 2.0717-2.5684 4.5217-4.5284 7.35-5.88Zm3.92 48.02c3.3712 1.5238 6.6375 3.3204 9.8 5.39-5.88.6534-11.76.6534-17.64 0 2.8489-1.5769 5.4615-3.3736 7.84-5.39ZM210.25 87.75c28.1005-.3265 56.1942.0002 84.28.98 2.2863 4.5734 4.5737 9.1466 6.86 13.72-32.6663 1.3063-65.3337 1.3063-98 0 2.5656-4.8034 4.853-9.7034 6.86-14.7Zm4.9 31.36c24.8293-.1637 49.6556 0 74.48.49 18.4779 7.1158 34.4852 17.8958 48.02 32.34 11.6561 8.9572 24.7225 12.0609 39.2 9.31 0 6.86 0 13.72 0 20.58-46.7146-.1637-93.4273 0-140.14.49-5.2263 4.9-5.2263 9.8 0 14.7 28.7444.49 57.4917.6537 86.24.49 0 36.5863 0 73.1737 0 109.76-47.04 0-94.08 0-141.12 0 0-36.5863 0-73.1737 0-109.76 10.7849.1637 21.5649 0 32.34-.49 5.2263-4.9 5.2263-9.8 0-14.7-29.0717-.49-58.1444-.6537-87.22-.49 0-6.86 0-13.72 0-20.58 12.9448 2.7254 25.0312.6017 36.26-6.37 15.0587-15.3556 32.3723-27.2793 51.94-35.77Zm-1.96 109.76c2.6137 0 5.2263 0 7.84 0 0 5.2263 0 10.4537 0 15.68-2.6137 0-5.2263 0-7.84 0 0-5.2263 0-10.4537 0-15.68Zm23.52 0c2.6137 0 5.2263 0 7.84 0 0 5.2263 0 10.4537 0 15.68-2.6137 0-5.2263 0-7.84 0 0-5.2263 0-10.4537 0-15.68Zm23.52 0c2.6137 0 5.2263 0 7.84 0 0 5.2263 0 10.4537 0 15.68-2.6137 0-5.2263 0-7.84 0 0-5.2263 0-10.4537 0-15.68Zm23.52 0c2.6137 0 5.2263 0 7.84 0 0 5.2263 0 10.4537 0 15.68-2.6137 0-5.2263 0-7.84 0 0-5.2263 0-10.4537 0-15.68Zm-70.56 31.36c2.6137 0 5.2263 0 7.84 0 0 5.2263 0 10.4537 0 15.68-2.6137 0-5.2263 0-7.84 0 0-5.2263 0-10.4537 0-15.68Zm23.52 0c2.6137 0 5.2263 0 7.84 0 0 5.2263 0 10.4537 0 15.68-2.6137 0-5.2263 0-7.84 0 0-5.2263 0-10.4537 0-15.68Zm23.52 0c2.6137 0 5.2263 0 7.84 0 0 5.2263 0 10.4537 0 15.68-2.6137 0-5.2263 0-7.84 0 0-5.2263 0-10.4537 0-15.68Zm23.52 0c2.6137 0 5.2263 0 7.84 0 0 5.2263 0 10.4537 0 15.68-2.6137 0-5.2263 0-7.84 0 0-5.2263 0-10.4537 0-15.68ZM176.93 322.95c50.3073-.1637 100.6146 0 150.92.49 5.9898 3.7034 11.7061 7.7861 17.15 12.25 1.96 7.1863 1.96 14.3737 0 21.56-4.801 4.115-9.8647 7.8714-15.19 11.27-12.1255.9379-24.2129 1.9179-36.26 2.94-4.4688 12.0413-.2225 16.7776 12.74 14.21-2.6587 34.7155 1.5886 68.5255 12.74 101.43-44.4263.6537-88.8537.6537-133.28 0 11.1524-32.9074 15.3987-66.7174 12.74-101.43 27.1156.1637 54.2283 0 81.34-.49 1.7963-.49 2.94-1.6337 3.43-3.43.6537-2.6137.6537-5.2263 0-7.84-.49-1.7963-1.6337-2.94-3.43-3.43-34.9997-.0255-69.9524-.6791-104.86-1.96-5.3253-3.3986-10.389-7.155-15.19-11.27-1.96-7.1863-1.96-14.3737 0-21.56 5.6193-4.4904 11.3366-8.7367 17.15-12.74Zm24.5-109.76c34.7116-.4773 69.3379.0127 103.88 1.47.6135.735 1.1035 1.5523 1.47 2.45.1637 11.76.3263 23.52.49 35.28.146 12.5028-.344 24.9165-1.47 37.24-.735.6135-1.5523 1.1035-2.45 1.47-16.9863.1637-33.9737.3263-50.96.49-17.7262.1509-35.3662-.3391-52.92-1.47-.6135-.735-1.1035-1.5523-1.47-2.45-.6537-23.52-.6537-47.04 0-70.56.6762-1.813 1.8189-3.1203 3.43-3.92Zm11.76 15.68c0 5.2263 0 10.4537 0 15.68 2.6137 0 5.2263 0 7.84 0 0-5.2263 0-10.4537 0-15.68-2.6137 0-5.2263 0-7.84 0Zm23.52 0c0 5.2263 0 10.4537 0 15.68 2.6137 0 5.2263 0 7.84 0 0-5.2263 0-10.4537 0-15.68-2.6137 0-5.2263 0-7.84 0Zm23.52 0c0 5.2263 0 10.4537 0 15.68 2.6137 0 5.2263 0 7.84 0 0-5.2263 0-10.4537 0-15.68-2.6137 0-5.2263 0-7.84 0Zm23.52 0c0 5.2263 0 10.4537 0 15.68 2.6137 0 5.2263 0 7.84 0 0-5.2263 0-10.4537 0-15.68-2.6137 0-5.2263 0-7.84 0Zm-70.56 31.36c0 5.2263 0 10.4537 0 15.68 2.6137 0 5.2263 0 7.84 0 0-5.2263 0-10.4537 0-15.68-2.6137 0-5.2263 0-7.84 0Zm23.52 0c0 5.2263 0 10.4537 0 15.68 2.6137 0 5.2263 0 7.84 0 0-5.2263 0-10.4537 0-15.68-2.6137 0-5.2263 0-7.84 0Zm23.52 0c0 5.2263 0 10.4537 0 15.68 2.6137 0 5.2263 0 7.84 0 0-5.2263 0-10.4537 0-15.68-2.6137 0-5.2263 0-7.84 0Zm23.52 0c0 5.2263 0 10.4537 0 15.68 2.6137 0 5.2263 0 7.84 0 0-5.2263 0-10.4537 0-15.68-2.6137 0-5.2263 0-7.84 0Z" stroke="#44739e" stroke-width="4" fill="none"/>
</svg>