<svg xmlns="http://www.w3.org/2000/svg" viewBox="0 0 512 512">
	<path d="M223.08 188.16V174.44h27.44 27.44v13.72 13.72H250.52 223.08V188.16Zm65.17-24.01-2.352-2.45H250.52 215.142l-2.352 2.45c-2.45 2.352-2.45 2.352-2.45 23.03 0 20.286.49 23.814 3.332 25.676 1.372.98 72.324.98 73.696 0 2.842-1.862 3.332-5.39 3.332-25.676 0-20.678 0-20.678-2.45-23.03ZM176.04 492.94v-4.9h74.48H325v4.9 4.9H250.52 176.04v-4.9Zm74.48-26.46c42.532 0 66.444-.392 67.62-.98 1.666-.882 2.058-.392 3.43 4.116.784 2.744 1.47 5.194 1.47 5.39s-32.634.294-72.52.294-72.52-.098-72.52-.294.686-2.646 1.47-5.39c1.372-4.508 1.764-4.998 3.43-4.116 1.176.588 25.088.98 67.62.98Zm-58.604-16.954-.294-4.606H250.52h58.898l-.294 4.606-.294 4.704H250.52 192.21l-.294-4.704Zm105.84-34.496c.196-1.764.882-3.038 1.96-3.234 2.058-.392 2.254-.098 4.704 9.604 1.078 4.606 2.254 9.114 2.548 9.996.49 1.666-2.646 1.764-56.448 1.764H193.68l.588-2.744c4.116-16.366 4.802-18.326 6.762-18.326 1.47 0 2.058.784 2.254 2.94.49 5.586 1.176 7.056 3.626 8.134 3.626 1.666 83.594 1.666 87.22 0 2.45-1.078 3.136-2.548 3.626-8.134ZM220.042 286.062l-1.568-8.722H250.52h32.046l-1.568 8.722-1.568 8.722-6.37 4.312c-9.898 6.664-10.78 9.114-10.78 29.106 0 10.192.588 18.718 1.372 22.736.784 3.626 6.076 17.934 11.76 31.752 5.684 13.916 10.388 26.068 10.388 27.048 0 1.764-1.568 1.862-35.28 1.862-33.81 0-35.28-.098-35.28-1.862 0-.98 4.802-13.426 10.682-27.734 6.37-15.484 11.074-28.42 11.76-32.242.588-3.528 1.078-13.524 1.078-22.148 0-19.404-.98-21.952-10.78-28.518l-6.37-4.312-1.568-8.722Zm-28.126-25.676.294-4.116 57.918-.294c31.85-.098 58.212.098 58.506.49.392.294.686 2.352.686 4.41V264.6H250.422h-58.8l.294-4.214Zm7.252-21.266 2.646-4.9H250.52h48.706l2.646 4.9 2.646 4.9H250.52 196.522l2.646-4.9Zm5.292-50.47V154.84h46.06 46.06v33.81 33.81H250.52 204.46V188.65Zm105.252-55.958c4.214-.882 13.328-3.92 20.286-6.762 6.958-2.842 12.642-4.998 12.642-4.802s-2.45 5.292-5.39 11.172l-5.39 10.78H250.52 169.18l-5.488-10.878c-2.94-5.978-5.292-10.976-5.096-11.172.196-.098 5.39 1.96 11.564 4.606 20.678 8.918 36.26 11.074 80.85 10.976 31.164 0 43.218-.784 58.702-3.92ZM227 90.944c8.624-.784 33.026-.686 45.57.098l8.82.588 7.84 5.978c12.152 9.31 17.15 11.564 25.97 11.662 4.018 0 11.27-.294 16.17-.686l8.82-.686-6.37 2.94c-25.48 11.956-41.062 14.21-92.316 13.328-29.4-.49-43.61-1.764-53.704-4.9-6.272-1.96-26.656-10.584-26.166-11.172.294-.196 5.88.098 12.446.686 6.566.686 13.818.882 15.974.588 5.292-.882 13.328-5.194 22.344-12.152 6.958-5.292 7.546-5.586 14.602-6.272ZM250.52 71.54c2.94 0 6.86-.392 8.624-.882l3.136-.98v4.41V78.4H250.52 238.76V74.088v-4.41l3.136.98c1.764.49 5.684.882 8.624.882ZM236.212 23.226c3.038-1.568 6.174-2.058 12.838-2.352 12.054-.294 17.052 1.47 23.324 8.428 8.428 9.31 4.606 21.168-9.016 27.342-7.448 3.43-18.228 3.43-25.676 0-9.604-4.41-14.7-12.054-13.23-19.894.882-4.312 6.37-10.682 11.76-13.524ZM262.28 9.408c-19.992-5.39-43.12 4.606-48.51 21.07-2.058 6.174-1.666 15.484.98 20.972 1.078 2.156 4.018 6.076 6.566 8.624l4.704 4.704V72.03v7.35h-3.234c-5.586 0-9.31 1.666-17.444 7.84-14.112 10.584-15.484 10.878-37.632 8.722-9.506-.882-11.466-.882-14.798.588-6.272 2.646-13.132 7.448-13.72 9.702-.686 2.744 20.188 46.06 23.03 47.53 1.078.588 7.742 1.078 15.68 1.078H191.72v36.358 36.26l-5.88 10.486-5.88 10.584v12.446c0 16.562-.098 16.366 14.994 16.366h11.172l2.058 12.446c2.254 13.72 1.764 12.936 10.976 18.228 2.94 1.764 5.88 4.214 6.566 5.586 1.47 2.94 1.666 22.05.294 31.752-.882 5.978-6.664 21.266-18.816 49.784l-1.96 4.704H198.58c-5.194 0-6.86.392-8.232 1.862-2.058 2.254-10.388 34.104-10.388 39.788 0 3.822-.196 4.214-2.842 4.704-1.666.392-3.332 1.47-3.92 2.45-.49.98-2.94 8.82-5.39 17.346-4.214 14.504-4.508 16.464-4.508 27.048 0 10.094.196 11.662 2.058 14.014l1.96 2.548H250.52h83.202l1.96-2.548c1.862-2.352 2.058-3.92 2.058-13.916 0-10.388-.392-12.544-4.508-27.538-4.606-16.562-6.272-19.698-10.29-19.698-1.568 0-1.862-.784-1.862-4.312 0-5.782-8.232-37.534-10.388-39.886-1.372-1.47-3.038-1.862-8.232-1.862-6.174 0-6.566-.098-7.742-2.646-7.938-17.346-18.816-46.256-19.698-51.842-1.372-9.702-1.176-28.812.294-31.752.686-1.372 3.626-3.822 6.566-5.586 9.212-5.292 8.722-4.508 10.976-18.13l2.058-12.544h11.172c15.19 0 14.994.196 14.994-16.562V248.136l-5.88-10.29-5.88-10.192V191.198 154.84h13.818c8.036 0 14.602-.49 15.778-1.078 2.744-1.47 23.618-44.688 22.932-47.53-.588-2.254-7.35-7.056-13.72-9.702-3.332-1.47-5.292-1.47-14.798-.588-22.148 2.156-23.324 1.862-37.73-8.722-8.428-6.272-11.858-7.84-17.346-7.84H275.02V72.128 64.876l5.292-5.488c6.664-6.86 8.918-12.74 8.232-22.246-.98-12.936-11.074-23.618-26.264-27.734Z" stroke="#44739e" stroke-width="4" fill="none"/>
</svg>