<svg xmlns="http://www.w3.org/2000/svg" viewBox="0 0 512 512">
	<path d="M246.51 1.51c3.92 0 7.84 0 11.76 0 10.1391 7.6901 18.7954 16.8368 25.97 27.44 3.6868 12.9178 3.1968 25.6578-1.47 38.22 6.5836.6067 13.1173 1.4234 19.6 2.45 8.3506 5.1246 11.1279 12.4746 8.33 22.05-5.1038 17.3519-15.7212 30.0919-31.85 38.22-.9771 7.1569-1.3044 14.3443-.98 21.56 29.448-.5645 58.848.2519 88.2 2.45 27.1303 5.1234 53.5903 12.6361 79.38 22.54 3.2654 2.4412 5.7154 5.5448 7.35 9.31.6537 7.1863.6537 14.3737 0 21.56-1.7963 5.7163-5.5537 9.4737-11.27 11.27-12.7361.49-25.4761.6537-38.22.49 0 33.32 0 66.64 0 99.96 8.0958.2087 13.4858 4.1287 16.17 11.76.6537 8.82.6537 17.64 0 26.46-1.47 6.6963-5.5537 10.78-12.25 12.25-16.0063.3263-32.0137.6537-48.02.98 6.7101 8.3535 11.7737 17.6635 15.19 27.93 2.6627 14.6559 4.95 29.3559 6.86 44.1 1.6915 4.3639 3.6515 8.6103 5.88 12.74 5.6487 8.5838 10.8751 17.4038 15.68 26.46 1.5386 9.6589-1.8914 16.8462-10.29 21.56-20.2537 0-40.5063 0-60.76 0-21.1925-20.1939-30.9925-45.0202-29.4-74.48-.195-10.2341-5.095-16.7668-14.7-19.6-5.8398 27.1215-9.2698 54.5615-10.29 82.32-1.8973 5.3234-5.3273 9.2434-10.29 11.76-12.4137 0-24.8263 0-37.24 0-6.1123-3.0184-9.8686-7.9184-11.27-14.7-.7801-26.8177-4.2101-53.2777-10.29-79.38-5.3351 1.566-9.4178 4.8324-12.25 9.8 1.2426 26.0719-5.291 49.9183-19.6 71.54-3.6231 4.7648-7.7067 9.0121-12.25 12.74-19.9263 0-39.8537 0-59.78 0-11.5459-6.3043-14.3226-15.4517-8.33-27.44 7.0217-10.2939 13.228-21.0739 18.62-32.34 2.8557-9.2336 4.163-18.7072 3.92-28.42 1.8591-16.6139 7.9027-31.4776 18.13-44.59-15.68-.3263-31.36-.6537-47.04-.98-7.4619-1.9081-11.8719-6.6444-13.23-14.21-.8583-8.5554-.5317-17.0481.98-25.48 2.7757-6.8639 7.839-10.4576 15.19-10.78 0-33.32 0-66.64 0-99.96-9.8055.1627-19.6055 0-29.4-.49-5.7166-1.7963-9.4734-5.5537-11.27-11.27-.6534-7.1863-.6534-14.3737 0-21.56 1.3719-3.334 3.4952-6.1113 6.37-8.33 26.364-10.4213 53.4776-18.2613 81.34-23.52 7.4931-.8849 15.0058-1.5386 22.54-1.96 21.5571-.49 43.1171-.6537 64.68-.49.3244-7.2157-.0029-14.4031-.98-21.56-21.3081-10.3537-31.9255-27.341-31.85-50.96 1.7434-4.0296 4.5198-7.1329 8.33-9.31 6.4827-1.0266 13.0164-1.8433 19.6-2.45-4.4972-12.584-4.9872-25.324-1.47-38.22 7.1746-10.6032 15.8309-19.7499 25.97-27.44Zm4.9 18.62c6.1466 4.3483 11.5366 9.5749 16.17 15.68 2.3422 8.7505 1.6885 17.2439-1.96 25.48-8.82 9.1466-17.64 9.1466-26.46 0-3.6799-8.2266-4.3336-16.72-1.96-25.48 4.5776-5.3927 9.3139-10.6195 14.21-15.68ZM211.23 85.79c27.4478-.3264 54.8878.0002 82.32.98-8.5044 23.3495-25.1644 33.6395-49.98 30.87-17.1059-4.2022-27.8859-14.8186-32.34-31.85Zm33.32 49c5.0637 1.2838 10.1273 1.2838 15.19 0 .489 5.5439.6527 11.0975.49 16.66-5.2263 0-10.4537 0-15.68 0 0-5.5537 0-11.1063 0-16.66Zm-77.42 34.3c62.4103-.442 124.803.048 187.18 1.47 27.1999 3.9416 53.6599 10.8016 79.38 20.58 1.8248 3.086 2.4784 6.516 1.96 10.29-122.1737 0-244.3463 0-366.52 0-.314-3.33.0127-6.5974.98-9.8 18.6769-6.6072 37.6232-12.3235 56.84-17.15 13.4338-2.5803 26.8275-4.3767 40.18-5.39Zm-56.84 49.98c91.7937 0 183.5863 0 275.38 0 0 33.32 0 66.64 0 99.96-91.7937 0-183.5863 0-275.38 0 0-33.32 0-66.64 0-99.96Zm34.3 33.32c5.2263 0 10.4537 0 15.68 0 0 11.1063 0 22.2137 0 33.32-5.2263 0-10.4537 0-15.68 0 0-11.1063 0-22.2137 0-33.32Zm66.64 0c24.8263 0 49.6537 0 74.48 0 0 11.1063 0 22.2137 0 33.32-24.8263 0-49.6537 0-74.48 0 0-11.1063 0-22.2137 0-33.32Zm125.44 0c5.2263 0 10.4537 0 15.68 0 0 11.1063 0 22.2137 0 33.32-5.2263 0-10.4537 0-15.68 0 0-11.1063 0-22.2137 0-33.32ZM93.63 336.67c102.9 0 205.8 0 308.7 0 0 5.2263 0 10.4537 0 15.68-102.9 0-205.8 0-308.7 0 0-5.2263 0-10.4537 0-15.68Zm77.42 33.32c51.2873-.1637 102.5746 0 153.86.49 13.4397 3.3036 23.0761 11.3072 28.91 24.01 5.241 14.2051 7.8537 28.9051 7.84 44.1 5.0705 16.8237 12.7469 32.34 23.03 46.55-15.0263.6537-30.0537.6537-45.08 0-10.3998-10.8368-16.7698-23.7405-19.11-38.71 4.7608-34.743-10.1028-54.5066-44.59-59.29-18.62-1.96-37.24-1.96-55.86 0-32.8447 4.0925-47.381 22.5498-43.61 55.37-2.0306 16.2435-8.4006 30.4535-19.11 42.63-15.0371.8163-30.0644.6527-45.08-.49 7.3774-10.8319 13.7474-22.2656 19.11-34.3 1.766-4.7775 3.0723-9.6775 3.92-14.7-.6135-16.2082 2.6529-31.5609 9.8-46.06 5.9672-10.2361 14.6236-16.7698 25.97-19.6Zm62.72 33.32c12.4313-.1519 24.844.1744 37.24.98-6.2426 26.7511-9.8363 53.8637-10.78 81.34-8.1663 0-16.3337 0-24.5 0-.5145-27.4508-3.7818-54.5635-9.8-81.34 2.8273.2999 5.441-.0265 7.84-.98ZM134.79 234.75c11.4376-.1637 22.8712 0 34.3.49 4.3502.1274 7.1266 2.2501 8.33 6.37.6537 18.2937.6537 36.5863 0 54.88-.8163 3.43-2.94 5.5537-6.37 6.37-12.74.6537-25.48.6537-38.22 0-1.5494-.6929-3.0194-1.5092-4.41-2.45-1.6101-20.1655-1.9365-40.4191-.98-60.76 1.8747-2.7244 4.3247-4.3581 7.35-4.9Zm9.8 17.64c0 11.1063 0 22.2137 0 33.32 5.2263 0 10.4537 0 15.68 0 0-11.1063 0-22.2137 0-33.32-5.2263 0-10.4537 0-15.68 0Zm56.84-17.64c31.0346-.1637 62.0683 0 93.1.49 4.3502.1274 7.1266 2.2501 8.33 6.37.6537 18.2937.6537 36.5863 0 54.88-.8163 3.43-2.94 5.5537-6.37 6.37-33.0525.9594-66.0461.6331-98.98-.98-1.518-1.1897-2.6607-2.6597-3.43-4.41-.6537-18.9463-.6537-37.8937 0-56.84 1.5112-3.3242 3.9612-5.2842 7.35-5.88Zm9.8 17.64c0 11.1063 0 22.2137 0 33.32 24.8263 0 49.6537 0 74.48 0 0-11.1063 0-22.2137 0-33.32-24.8263 0-49.6537 0-74.48 0Zm115.64-17.64c11.7649-.1637 23.5249 0 35.28.49 2.4833.5057 4.606 1.6493 6.37 3.43 1.6092 19.5118 1.9355 39.1118.98 58.8-.7693 1.7503-1.912 3.2203-3.43 4.41-13.3251 1.5798-26.7187 1.9061-40.18.98-2.301-.3391-4.0974-1.4827-5.39-3.43-1.6092-19.5118-1.9355-39.1118-.98-58.8 1.5112-3.3242 3.9612-5.2842 7.35-5.88Zm9.8 17.64c0 11.1063 0 22.2137 0 33.32 5.2263 0 10.4537 0 15.68 0 0-11.1063 0-22.2137 0-33.32-5.2263 0-10.4537 0-15.68 0Z" stroke="#44739e" stroke-width="4" fill="none"/>
</svg>