<svg xmlns="http://www.w3.org/2000/svg" viewBox="0 0 512 512">
	<path d="M356.27 432.71c-2.8283 1.3514-5.2783 3.3114-7.35 5.88-4.1513 8.5476-3.0076 16.2239 3.43 23.03 8.5476 4.1513 16.2239 3.0076 23.03-3.43 6.1524-17.8595-.2176-26.3522-19.11-25.48Zm-219.52 0c-2.8283 1.3514-5.2783 3.3114-7.35 5.88-4.1513 8.5476-3.0076 16.2239 3.43 23.03 8.5476 4.1513 16.2239 3.0076 23.03-3.43 6.1524-17.8595-.2176-26.3522-19.11-25.48Zm35.28-238.14c15.5595 13.0879 33.3631 21.9079 53.41 26.46 2.2746-.4008 4.3973-1.2181 6.37-2.45 8.4672-12.7292 19.5745-15.6692 33.32-8.82 9.3061 7.3402 12.0824 16.6502 8.33 27.93-3.2477 6.516-8.3114 10.926-15.19 13.23-33.7855 1.4827-60.0828-11.7473-78.89-39.69-3.0008-5.3439-5.4508-10.8976-7.35-16.66Zm-14.7-37.24c-2.7146.7938-4.8383 2.4275-6.37 4.9-1.4445 14.1992.5155 27.9192 5.88 41.16 15.5722 36.2914 42.8495 57.6877 81.83 64.19 22.8007 4.8441 39.6234-2.8322 50.47-23.03 7.5088-24.9871-.4949-42.7897-24.01-53.41-16.2347-4.5168-30.281-.9241-42.14 10.78-2.3647.4743-4.6511.147-6.86-.98-21.6658-8.2771-38.9785-21.9971-51.94-41.16-2.2618-.9712-4.5482-1.7875-6.86-2.45Zm175.42-19.6c-15.5595-13.0879-33.3631-21.9079-53.41-26.46-2.2746.4008-4.3973 1.2181-6.37 2.45-8.4672 12.7292-19.5745 15.6692-33.32 8.82-9.3061-7.3402-12.0824-16.6502-8.33-27.93 3.2477-6.5157 8.3114-10.9257 15.19-13.23 33.7855-1.4823 60.0828 11.7477 78.89 39.69 3.0008 5.3439 5.4508 10.8976 7.35 16.66Zm-89.18-73.5c-12.9723 3.326-22.2823 11.166-27.93 23.52-7.3343 23.4289-.3107 40.9062 21.07 52.43 17.149 5.9231 32.1763 2.6568 45.08-9.8 1.3063-.6537 2.6137-.6537 3.92 0 23.0447 7.9213 41.3384 21.9677 54.88 42.14 4.1954 2.0668 8.279 1.9032 12.25-.49 2.6636-16.6316.3773-32.6379-6.86-48.02-21.4012-41.4965-55.5376-61.4233-102.41-59.78ZM172.03 194.57c15.5595 13.0879 33.3631 21.9079 53.41 26.46 2.2746-.4008 4.3973-1.2181 6.37-2.45 8.4672-12.7292 19.5745-15.6692 33.32-8.82 9.3061 7.3402 12.0824 16.6502 8.33 27.93-3.2477 6.516-8.3114 10.926-15.19 13.23-33.7855 1.4827-60.0828-11.7473-78.89-39.69-3.0008-5.3439-5.4508-10.8976-7.35-16.66Zm160.72-56.84c-15.5595-13.0879-33.3631-21.9079-53.41-26.46-2.2746.4008-4.3973 1.2181-6.37 2.45-8.4672 12.7292-19.5745 15.6692-33.32 8.82-9.3061-7.3402-12.0824-16.6502-8.33-27.93 3.2477-6.5157 8.3114-10.9257 15.19-13.23 33.7855-1.4823 60.0828 11.7477 78.89 39.69 3.0008 5.3439 5.4508 10.8976 7.35 16.66ZM251.41 56.39c41.7157 1.492 73.5657 19.7854 95.55 54.88 16.708 31.7589 18.668 64.4262 5.88 98-23.5612 47.479-61.9448 69.2027-115.15 65.17-52.1037-10.29-83.3-41.4863-93.59-93.59-4.264-42.9044 10.5997-77.3671 44.59-103.39 18.9081-13.2169 39.8145-20.2402 62.72-21.07Zm-14.7-15.68c-52.967 9.02-88.0844 39.0734-105.35 90.16-9.4011 35.1252-5.1548 68.4452 12.74 99.96 29.0717 44.7791 70.3954 64.8691 123.97 60.27 53.1327-8.7044 88.249-38.5944 105.35-89.67 8.5995-32.9456 5.3322-64.633-9.8-95.06-28.5739-47.8554-70.8765-69.7421-126.91-65.66Zm-54.88 392c0 5.2263 0 10.4537 0 15.68 47.04 0 94.08 0 141.12 0 0-5.2263 0-10.4537 0-15.68-47.04 0-94.08 0-141.12 0Zm-15.68-62.72c0 5.2263 0 10.4537 0 15.68 3.9337-.1627 7.8537.001 11.76.49 1.7963.49 2.94 1.6337 3.43 3.43.49 9.1405.6527 18.2878.49 27.44 47.04 0 94.08 0 141.12 0-.44-9.9029.05-19.7029 1.47-29.4.735-.6135 1.5523-1.1035 2.45-1.47 3.9063-.489 7.8263-.6527 11.76-.49 0-5.2263 0-10.4537 0-15.68-57.4937 0-114.9863 0-172.48 0Zm188.16-31.36c.1637 19.6029 0 39.2029-.49 58.8-.49 1.7963-1.6337 2.94-3.43 3.43-3.9063.489-7.8263.6527-11.76.49 0 26.1337 0 52.2663 0 78.4 15.68 0 31.36 0 47.04 0 0-26.1337 0-52.2663 0-78.4-3.9337.1627-7.8537-.001-11.76-.49-1.7963-.49-2.94-1.6337-3.43-3.43-.49-19.5971-.6537-39.1971-.49-58.8-5.2263 0-10.4537 0-15.68 0Zm-219.52 0c.1637 19.6029 0 39.2029-.49 58.8-.49 1.7963-1.6337 2.94-3.43 3.43-3.9063.489-7.8263.6527-11.76.49 0 26.1337 0 52.2663 0 78.4 15.68 0 31.36 0 47.04 0 0-26.1337 0-52.2663 0-78.4-3.9337.1627-7.8537-.001-11.76-.49-1.7963-.49-2.94-1.6337-3.43-3.43-.49-19.5971-.6537-39.1971-.49-58.8-5.2263 0-10.4537 0-15.68 0Zm246.96-47.04c-9.9284 10.4194-20.0557 20.7094-30.38 30.87 10.8751.0431 21.6551.6968 32.34 1.96.6135.735 1.1035 1.5523 1.47 2.45.49 9.1405.6527 18.2878.49 27.44 7.8469.1627 15.6869 0 23.52-.49 4.41-.49 6.86-2.94 7.35-7.35.6537-15.68.6537-31.36 0-47.04-.49-4.41-2.94-6.86-7.35-7.35-9.1405-.49-18.2878-.6527-27.44-.49Zm-234.22.98c13.6994 13.0458 27.0931 26.4394 40.18 40.18-3.5937 4.2463-7.5137 8.1663-11.76 11.76-3.2516-2.7607-6.3553-5.7007-9.31-8.82-.49 6.1985-.6527 12.4048-.49 18.62 57.4937 0 114.9863 0 172.48 0 .1627-6.2152 0-12.4215-.49-18.62-2.9547 3.1193-6.0584 6.0593-9.31 8.82-4.2463-3.5937-8.1663-7.5137-11.76-11.76 13.2163-13.7063 26.6099-27.2626 40.18-40.67-3.5937-.6537-7.1863-.6537-10.78 0-9.1503 6.8659-18.9503 12.7459-29.4 17.64-56.2618 22.8928-109.1818 17.0128-158.76-17.64-3.7808-.7938-7.3735-.6301-10.78.49Zm-51.94-.98c-4.2332.8065-6.6832 3.4192-7.35 7.84-.9378 16.7257-.6111 33.3857.98 49.98 1.3122 2.5421 3.4355 4.0121 6.37 4.41 7.8331.49 15.6731.6527 23.52.49-.1627-9.1522 0-18.2995.49-27.44.3665-.8977.8565-1.715 1.47-2.45 10.6849-1.2632 21.4649-1.9169 32.34-1.96-10.1263-10.1263-20.2537-20.2537-30.38-30.38-9.1405-.49-18.2878-.6527-27.44-.49Zm76.44-97.02c1.8992 5.7624 4.3492 11.3161 7.35 16.66 18.8072 27.9427 45.1045 41.1727 78.89 39.69 6.8786-2.304 11.9423-6.714 15.19-13.23 3.7524-11.2798.9761-20.5898-8.33-27.93-13.7455-6.8492-24.8528-3.9092-33.32 8.82-1.9727 1.2319-4.0954 2.0492-6.37 2.45-20.0469-4.5521-37.8505-13.3721-53.41-26.46Zm291.06-7.84c-10.7457 11.2357-21.6884 22.342-32.83 33.32-.6537.6537-.6537 1.3063 0 1.96 3.1037 3.1037 6.2063 6.2063 9.31 9.31.6537.6537 1.3063.6537 1.96 0 10.9437-10.9437 21.8863-21.8863 32.83-32.83.6537-.6537.6537-1.3063 0-1.96-3.3604-3.8602-7.1177-7.1266-11.27-9.8Zm-423.36 0c-2.9032 3.3947-6.0065 6.6611-9.31 9.8-.6534.6537-.6534 1.3063 0 1.96 10.9434 10.9437 21.8866 21.8863 32.83 32.83.6534.6537 1.3066.6537 1.96 0 3.1034-3.1037 6.2066-6.2063 9.31-9.31.6534-.6537.6534-1.3063 0-1.96-11.1913-11.6845-22.7879-22.7909-34.79-33.32Zm293.02-49c-1.8992-5.7624-4.3492-11.3161-7.35-16.66-18.8072-27.9423-45.1045-41.1723-78.89-39.69-6.8786 2.3043-11.9423 6.7143-15.19 13.23-3.7524 11.2798-.9761 20.5898 8.33 27.93 13.7455 6.8492 24.8528 3.9092 33.32-8.82 1.9727-1.2319 4.0954-2.0492 6.37-2.45 20.0469 4.5521 37.8505 13.3721 53.41 26.46ZM251.41 56.39c-22.9055.8298-43.8119 7.8531-62.72 21.07-33.9903 26.0229-48.854 60.4856-44.59 103.39 10.29 52.1037 41.4863 83.3 93.59 93.59 53.2052 4.0327 91.5888-17.691 115.15-65.17 12.788-33.5738 10.828-66.2411-5.88-98-21.9843-35.0946-53.8343-53.3879-95.55-54.88Zm0-31.36c-62.3809 4.0742-105.9909 34.7809-130.83 92.12-19.6127 63.506-4.4227 116.916 45.57 160.23 57.4937 39.8537 114.9863 39.8537 172.48 0 49.9927-43.3131 65.1827-96.7231 45.57-160.23-25.0341-58.1585-69.2968-88.8652-132.79-92.12ZM245.53 8.37c-9.7441.8563-19.5441 2.3263-29.4 4.41C150.4092 31.1349 110.7192 73.7649 97.06 140.67c-7.2473 51.7558 6.9629 96.6731 42.63 134.75-2.94.6537-5.88.6537-8.82 0-13.8837-13.8837-27.7663-27.7663-41.65-41.65-.6534-.6537-.6534-1.3063 0-1.96 6.2811-4.216 7.9144-9.7696 4.9-16.66-15.8434-15.8437-31.6866-31.6863-47.53-47.53-3.92-1.96-7.84-1.96-11.76 0-8.6868 8.3594-17.0168 17.0157-24.99 25.97-.8003 3.3947-.4736 6.662.98 9.8 15.8434 15.8437 31.6866 31.6863 47.53 47.53 6.8909 3.0145 12.4442 1.3808 16.66-4.9.6534-.6537 1.3066-.6537 1.96 0 9.8 9.8 19.6 19.6 29.4 29.4-6.9373.1117-13.7973.7654-20.58 1.96-5.39 2.7763-9.4734 6.86-12.25 12.25-1.6006 21.1709-1.9274 42.4036-.98 63.7 2.3043 6.8786 6.7143 11.9423 13.23 15.19 11.0313 1.4043 22.1382 1.8943 33.32 1.47 0 5.2263 0 10.4537 0 15.68-3.9337-.1627-7.8537.001-11.76.49-1.7963.49-2.94 1.6337-3.43 3.43-.9663 34.7096-.6399 69.337.98 103.88.735.6135 1.5523 1.1035 2.45 1.47 23.52.6537 47.04.6537 70.56 0 1.7963-.49 2.94-1.6337 3.43-3.43.49-9.1405.6527-18.2878.49-27.44 47.04 0 94.08 0 141.12 0-.1627 9.1522 0 18.2995.49 27.44.49 1.7963 1.6337 2.94 3.43 3.43 23.52.6537 47.04.6537 70.56 0 .8977-.3665 1.715-.8565 2.45-1.47 1.6199-34.543 1.9463-69.1704.98-103.88-.49-1.7963-1.6337-2.94-3.43-3.43-3.9063-.489-7.8263-.6527-11.76-.49 0-5.2263 0-10.4537 0-15.68 11.1818.4243 22.2891-.0657 33.32-1.47 6.516-3.2477 10.926-8.3114 13.23-15.19.9477-21.2964.6203-42.5291-.98-63.7-2.7763-5.39-6.86-9.4737-12.25-12.25-6.7826-1.1946-13.6426-1.8483-20.58-1.96 9.8-9.8 19.6-19.6 29.4-29.4.6537-.6537 1.3063-.6537 1.96 0 4.216 6.2808 9.7696 7.9145 16.66 4.9 15.8437-15.8437 31.6863-31.6863 47.53-47.53 1.4533-3.138 1.7807-6.4053.98-9.8-7.9733-8.9543-16.3033-17.6106-24.99-25.97-3.92-1.96-7.84-1.96-11.76 0-15.8437 15.8437-31.6863 31.6863-47.53 47.53-3.0145 6.8904-1.3808 12.444 4.9 16.66.6537.6537.6537 1.3063 0 1.96-13.8837 13.8837-27.7663 27.7663-41.65 41.65-2.94.6537-5.88.6537-8.82 0 2.7763-2.7763 5.5537-5.5537 8.33-8.33 38.2729-50.0202 46.1129-104.5738 23.52-163.66C366.2954 40.6366 315.8254 8.9499 245.53 8.37Z" stroke="#44739e" stroke-width="4" fill="none"/>
</svg>