<svg xmlns="http://www.w3.org/2000/svg" viewBox="0 0 512 512">
	<path d="M 129.5,-0.5 C 133.5,-0.5 137.5,-0.5 141.5,-0.5C 148.876,3.90925 152.376,10.5759 152,19.5C 153.5,23.6667 156.333,26.5 160.5,28C 192.129,29.1482 223.795,29.6482 255.5,29.5C 287.205,29.6482 318.871,29.1482 350.5,28C 354.667,26.5 357.5,23.6667 359,19.5C 358.624,10.5759 362.124,3.90925 369.5,-0.5C 373.5,-0.5 377.5,-0.5 381.5,-0.5C 385.479,1.31481 388.312,4.31481 390,8.5C 392.37,27.2576 385.87,42.0909 370.5,53C 381.624,70.7941 397.291,82.4607 417.5,88C 425.49,89.0507 433.49,90.0507 441.5,91C 449.915,95.3476 452.748,102.181 450,111.5C 448.833,113.333 447.667,115.167 446.5,117C 431.115,124.963 415.115,131.463 398.5,136.5C 417.866,156.183 440.866,169.683 467.5,177C 479.111,178.788 490.778,180.122 502.5,181C 506.685,182.688 509.685,185.521 511.5,189.5C 511.5,193.5 511.5,197.5 511.5,201.5C 507.9,206.907 502.9,210.74 496.5,213C 481.911,219.586 466.911,225.086 451.5,229.5C 450.667,320.498 450.167,411.498 450,502.5C 448.312,506.685 445.479,509.685 441.5,511.5C 417.5,511.5 393.5,511.5 369.5,511.5C 365.521,509.685 362.688,506.685 361,502.5C 360.5,495.174 360.334,487.841 360.5,480.5C 290.5,480.5 220.5,480.5 150.5,480.5C 150.666,487.841 150.5,495.174 150,502.5C 148.312,506.685 145.479,509.685 141.5,511.5C 117.5,511.5 93.5,511.5 69.5,511.5C 65.5212,509.685 62.6878,506.685 61,502.5C 60.8333,411.498 60.3333,320.498 59.5,229.5C 39.9724,224.049 21.3057,216.549 3.5,207C 2.30342,204.985 0.970083,203.151 -0.5,201.5C -0.5,197.5 -0.5,193.5 -0.5,189.5C 1.31481,185.521 4.31481,182.688 8.5,181C 38.333,181.464 65.333,173.131 89.5,156C 97.3134,149.688 104.98,143.188 112.5,136.5C 95.8854,131.463 79.8854,124.963 64.5,117C 59.3722,109.625 59.2055,102.125 64,94.5C 65.8333,93.3333 67.6667,92.1667 69.5,91C 100.213,91.148 123.88,78.4813 140.5,53C 122.921,40.2649 117.421,23.7649 124,3.5C 126.015,2.30342 127.849,0.970083 129.5,-0.5 Z M 173.5,59.5 C 228.168,59.3333 282.834,59.5 337.5,60C 348.692,79.5268 363.692,95.5268 382.5,108C 297.833,127.333 213.167,127.333 128.5,108C 147.501,95.4617 162.501,79.2951 173.5,59.5 Z M 148.5,144.5 C 219.001,156.424 289.501,156.424 360,144.5C 367.386,149.877 374.219,156.044 380.5,163C 397.617,178.443 416.617,191.109 437.5,201C 415.532,206.704 393.198,209.704 370.5,210C 294.167,210.667 217.833,210.667 141.5,210C 118.462,209.787 95.7958,206.787 73.5,201C 102.344,187.329 127.344,168.496 148.5,144.5 Z M 90.5,236.5 C 100.164,237.916 109.83,239.25 119.5,240.5C 120.5,320.831 120.833,401.164 120.5,481.5C 110.5,481.5 100.5,481.5 90.5,481.5C 90.5,399.833 90.5,318.167 90.5,236.5 Z M 417.5,236.5 C 418.5,236.5 419.5,236.5 420.5,236.5C 420.5,318.167 420.5,399.833 420.5,481.5C 410.5,481.5 400.5,481.5 390.5,481.5C 390.167,401.164 390.5,320.831 391.5,240.5C 400.336,239.482 409.003,238.149 417.5,236.5 Z M 173.5,241.5 C 195.66,240.503 217.994,240.169 240.5,240.5C 240.832,250.855 240.499,261.188 239.5,271.5C 230.799,273.566 222.633,276.899 215,281.5C 201.006,268.34 187.173,255.006 173.5,241.5 Z M 270.5,240.5 C 292.836,240.333 315.169,240.5 337.5,241C 323.959,254.875 310.126,268.375 296,281.5C 288.379,276.902 280.212,273.569 271.5,271.5C 270.501,261.188 270.168,250.855 270.5,240.5 Z M 150.5,263.5 C 164.132,276.631 177.632,289.965 191,303.5C 186.98,312.051 183.814,321.051 181.5,330.5C 171.167,330.5 160.833,330.5 150.5,330.5C 150.5,308.167 150.5,285.833 150.5,263.5 Z M 359.5,263.5 C 360.497,285.66 360.831,307.994 360.5,330.5C 350.145,330.832 339.812,330.499 329.5,329.5C 327.434,320.799 324.101,312.633 319.5,305C 332.66,291.006 345.994,277.173 359.5,263.5 Z M 246.5,301.5 C 273.542,299.067 291.042,310.733 299,336.5C 301.92,363.564 290.42,381.064 264.5,389C 237.436,391.92 219.936,380.42 212,354.5C 209.287,327.411 220.787,309.744 246.5,301.5 Z M 150.5,360.5 C 160.833,360.5 171.167,360.5 181.5,360.5C 183.817,369.96 186.984,378.96 191,387.5C 177.667,400.833 164.333,414.167 151,427.5C 150.5,405.169 150.333,382.836 150.5,360.5 Z M 329.5,360.5 C 339.833,360.5 350.167,360.5 360.5,360.5C 360.667,382.836 360.5,405.169 360,427.5C 346.667,414.167 333.333,400.833 320,387.5C 324.016,378.961 327.182,369.961 329.5,360.5 Z M 213.5,409.5 C 221.717,413.798 230.383,417.131 239.5,419.5C 240.499,429.812 240.832,440.145 240.5,450.5C 218.164,450.667 195.831,450.5 173.5,450C 187.035,436.632 200.369,423.132 213.5,409.5 Z M 294.5,409.5 C 295.552,409.351 296.552,409.517 297.5,410C 310.833,423.333 324.167,436.667 337.5,450C 315.169,450.5 292.836,450.667 270.5,450.5C 270.168,440.145 270.501,429.812 271.5,419.5C 279.952,417.693 287.619,414.36 294.5,409.5 Z" stroke="#44739e" stroke-width="4" fill="none"/>
</svg>