<svg xmlns="http://www.w3.org/2000/svg" viewBox="0 0 512 512">
	<path d="M124.95 234.71c-7.3549 73.0629-14.8686 146.0729-22.54 219.03 15.3497.49 30.7034.6537 46.06.49 0-73.1737 0-146.3463 0-219.52-7.84 0-15.68 0-23.52 0Zm156.8-31.36c0 5.2263 0 10.4537 0 15.68 43.4463 0 86.8937 0 130.34 0 0-5.2263 0-10.4537 0-15.68-43.4463 0-86.8937 0-130.34 0Zm-193.06 0c0 5.2263 0 10.4537 0 15.68 43.4463 0 86.8937 0 130.34 0 0-5.2263 0-10.4537 0-15.68-43.4463 0-86.8937 0-130.34 0Zm263.62-47.04c0 10.4537 0 20.9063 0 31.36 6.2063 0 12.4137 0 18.62 0-.5929-10.4987-1.5729-20.9524-2.94-31.36-5.2263 0-10.4537 0-15.68 0Zm-70.56 0c0 10.4537 0 20.9063 0 31.36 18.2937 0 36.5863 0 54.88 0 0-10.4537 0-20.9063 0-31.36-18.2937 0-36.5863 0-54.88 0Zm-47.04 0c0 20.9063 0 41.8137 0 62.72 10.4537 0 20.9063 0 31.36 0 0-20.9063 0-41.8137 0-62.72-10.4537 0-20.9063 0-31.36 0Zm-70.56 0c0 10.4537 0 20.9063 0 31.36 18.2937 0 36.5863 0 54.88 0 0-10.4537 0-20.9063 0-31.36-18.2937 0-36.5863 0-54.88 0Zm-31.36 0c-1.3671 10.4076-2.3471 20.8613-2.94 31.36 6.2063 0 12.4137 0 18.62 0 0-10.4537 0-20.9063 0-31.36-5.2263 0-10.4537 0-15.68 0ZM461.09 29.89c-18.7543 8.384-38.0269 15.734-57.82 22.05-1.1437 1.1434-2.2863 2.2866-3.43 3.43-2.0531 7.0141.3969 11.2608 7.35 12.74 14.5481-4.5224 28.9218-9.4224 43.12-14.7-2.3353 13.7982-5.1117 27.5182-8.33 41.16-3.2477 6.516-8.3114 10.926-15.19 13.23-103.8506 1.2936-207.7306 1.9473-311.64 1.96-5.2175 4.9451-5.2175 9.8451 0 14.7 98.979.49 197.959.6537 296.94.49 0 5.2263 0 10.4537 0 15.68-107.8 0-215.6 0-323.4 0 .412-9.5521-.078-19.0257-1.47-28.42-.8845-1.177-2.0278-1.9943-3.43-2.45-10.4032-.2166-18.4065-4.6266-24.01-13.23-3.9159-14.1887-7.0193-28.562-9.31-43.12 73.3275 29.0989 149.4402 41.6756 228.34 37.73 32.5654-1.5252 64.5791-6.4252 96.04-14.7 5.0215-7.4389 3.2252-12.5023-5.39-15.19C257.1981 87.0965 148.2544 77.1332 42.63 31.36c-6.9695-2.073-11.2161.377-12.74 7.35 4.2212 20.6157 8.6312 41.1957 13.23 61.74 5.4921 12.7194 14.9654 20.8867 28.42 24.5.3266 6.86.6534 13.72.98 20.58 1.3775 4.9715 4.4809 8.4015 9.31 10.29 11.4334.3263 22.8663.6537 34.3.98-1.3063 10.1263-2.6137 20.2537-3.92 30.38-10.1263.3263-20.2534.6537-30.38.98-4.8291 1.8885-7.9325 5.3185-9.31 10.29-.6534 8.4937-.6534 16.9863 0 25.48 1.3775 4.9715 4.4809 8.4015 9.31 10.29 8.82.3263 17.64.6537 26.46.98-7.6362 71.9487-14.986 143.9787-22.05 216.09-.8851 5.6654-.5585 11.2181.98 16.66.7354.6135 1.5521 1.1035 2.45 1.47 23.52.6537 47.04.6537 70.56 0 1.7963-.49 2.94-1.6337 3.43-3.43.49-77.0927.6537-154.1863.49-231.28 57.4937 0 114.9863 0 172.48 0-.1637 50.961 0 101.921.49 152.88 1.4984 2.9557 3.9484 4.262 7.35 3.92 3.4016.342 5.8516-.9643 7.35-3.92.49-50.959.6537-101.919.49-152.88 7.84 0 15.68 0 23.52 0 7.3549 73.0629 14.8686 146.0729 22.54 219.03-15.3497.49-30.7034.6537-46.06.49.1637-11.7649 0-23.5249-.49-35.28-.49-1.7963-1.6337-2.94-3.43-3.43-2.6137-.6537-5.2263-.6537-7.84 0-1.7963.49-2.94 1.6337-3.43 3.43-.6537 15.68-.6537 31.36 0 47.04.3665.8977.8565 1.715 1.47 2.45 24.0874 1.6141 48.2611 1.9404 72.52.98 1.7963-.49 2.94-1.6337 3.43-3.43.6537-4.9.6537-9.8 0-14.7-7.0638-72.1113-14.4138-144.1413-22.05-216.09 8.82-.3263 17.64-.6537 26.46-.98 4.8294-1.8885 7.9321-5.3185 9.31-10.29.6537-8.4937.6537-16.9863 0-25.48-1.3779-4.9715-4.4806-8.4015-9.31-10.29-10.1263-.3263-20.2537-.6537-30.38-.98-1.3063-10.1263-2.6137-20.2537-3.92-30.38 11.4337-.3263 22.8663-.6537 34.3-.98 4.8294-1.8885 7.9321-5.3185 9.31-10.29.3263-6.86.6537-13.72.98-20.58 16.4424-4.3551 26.5688-14.8088 30.38-31.36 3.5133-18.2192 7.2696-36.3492 11.27-54.39-.5459-5.9355-3.8132-9.0388-9.8-9.31Z" stroke="#44739e" stroke-width="4" fill="none"/>
</svg>