<svg xmlns="http://www.w3.org/2000/svg" viewBox="0 0 512 512">
	<path d="M337.65 439.57c0 11.4337 0 22.8663 0 34.3 31.6863 0 63.3737 0 95.06 0 0-11.4337 0-22.8663 0-34.3-31.6863 0-63.3737 0-95.06 0Zm-265.58 0c0 11.4337 0 22.8663 0 34.3 31.6863 0 63.3737 0 95.06 0 0-11.4337 0-22.8663 0-34.3-31.6863 0-63.3737 0-95.06 0ZM247.49 236.71c-3.53 2.0237-6.6336 4.6374-9.31 7.84-3.9406 10.7467-.8379 18.424 9.31 23.03 9.8029 2.303 16.5003-1.127 20.09-10.29 1.6631-14.947-5.0343-21.807-20.09-20.58Zm121.52-63.7c0 79.0537 0 158.1063 0 237.16 10.78 0 21.56 0 32.34 0 0-79.0537 0-158.1063 0-237.16-10.78 0-21.56 0-32.34 0Zm-265.58 0c0 79.0537 0 158.1063 0 237.16 10.78 0 21.56 0 32.34 0 0-79.0537 0-158.1063 0-237.16-10.78 0-21.56 0-32.34 0Zm31.36-62.72c0 11.1063 0 22.2137 0 33.32 78.4 0 156.8 0 235.2 0 0-11.1063 0-22.2137 0-33.32-78.4 0-156.8 0-235.2 0ZM52.47 36.79C64.3288 51.1684 76.0888 65.705 87.75 80.4c109.76.6534 219.52.6534 329.28 0 11.76-14.7 23.52-29.4 35.28-44.1-32.5781 3.1502-65.2445 5.7636-98 7.84-100.0404 5.4827-199.8367 2.706-299.39-8.33-1.0484.0274-1.8651.3542-2.45.98ZM11.31 1.51c-5.6348 3.3435-8.9015 8.2435-9.8 14.7 0 .3266 0 .6534 0 .98.6171 3.531 2.0871 6.7977 4.41 9.8 21.4432 26.3414 42.5132 52.9648 63.21 79.87 1.6334.98 3.2666 1.96 4.9 2.94 10.1214.49 20.2481.6527 30.38.49 0 11.1063 0 22.2137 0 33.32-17.9697-.1637-35.9363 0-53.9.49-4.0834 1.47-6.86 4.2463-8.33 8.33-2.6933 9.1326.0834 15.829 8.33 20.09 7.5062.49 15.0196.6527 22.54.49 0 79.0537 0 158.1063 0 237.16-7.5204-.1627-15.0338 0-22.54.49-4.0834 1.47-6.86 4.2463-8.33 8.33-.6534 25.1537-.6534 50.3063 0 75.46 1.654 4.1013 4.4308 7.0413 8.33 8.82 45.7334 0 91.4663 0 137.2 0 3.8994-1.7787 6.6758-4.7187 8.33-8.82.6537-25.1537.6537-50.3063 0-75.46-1.47-4.0837-4.2463-6.86-8.33-8.33-7.1795-.49-14.3658-.6527-21.56-.49 0-79.0537 0-158.1063 0-237.16 23.8463 0 47.6937 0 71.54 0 .3254 11.7776-.001 23.5376-.98 35.28-23.2113 10.4791-33.174 28.4465-29.89 53.9 6.3651 23.1897 21.5551 35.2761 45.57 36.26 24.0149-.9839 39.2049-13.0703 45.57-36.26 3.284-25.4535-6.6787-43.4209-29.89-53.9-.979-11.7424-1.3054-23.5024-.98-35.28 24.1737 0 48.3463 0 72.52 0 0 79.0537 0 158.1063 0 237.16-7.5205-.1627-15.0342 0-22.54.49-4.0837 1.47-6.86 4.2463-8.33 8.33-.6537 25.1537-.6537 50.3063 0 75.46 1.6542 4.1013 4.4306 7.0413 8.33 8.82 45.7337 0 91.4663 0 137.2 0 3.8994-1.7787 6.6758-4.7187 8.33-8.82.6537-25.1537.6537-50.3063 0-75.46-1.47-4.0837-4.2463-6.86-8.33-8.33-7.5058-.49-15.0195-.6527-22.54-.49 0-79.0537 0-158.1063 0-237.16 7.5205.1627 15.0342 0 22.54-.49 4.0837-1.47 6.86-4.2463 8.33-8.33 2.693-9.1326-.0833-15.829-8.33-20.09-17.9634-.49-35.9307-.6537-53.9-.49 0-11.1063 0-22.2137 0-33.32 10.1322.1627 20.2586 0 30.38-.49 1.7963-1.1437 3.5937-2.2863 5.39-3.43 21.56-27.44 43.12-54.88 64.68-82.32 3.8749-9.7918 1.4249-17.3051-7.35-22.54-4.9 0-9.8 0-14.7 0-36.2943 5.187-72.8816 8.9436-109.76 11.27-114.8658 7.6984-229.1995 3.9418-343-11.27-4.9 0-9.8 0-14.7 0Z" stroke="#44739e" stroke-width="4" fill="none"/>
</svg>