<svg xmlns="http://www.w3.org/2000/svg" viewBox="0 0 512 512">
	<path d="M242.55 171.99c0 15.68 0 31.36 0 47.04 5.2263 0 10.4537 0 15.68 0 0-15.68 0-31.36 0-47.04-5.2263 0-10.4537 0-15.68 0ZM344.47 462.07c-9.9509.9437-17.1373 6.0074-21.56 15.19 24.8263.6537 49.6537.6537 74.48 0-3.4084-6.6767-8.6358-11.2504-15.68-13.72-12.3676-1.3465-24.7813-1.8365-37.24-1.47Zm-219.52 0c-9.9509.9437-17.1373 6.0074-21.56 15.19 24.8263.6537 49.6537.6537 74.48 0-3.4084-6.6767-8.6358-11.2504-15.68-13.72-12.3676-1.3465-24.7813-1.8365-37.24-1.47Zm227.36-47.04c0 10.4537 0 20.9063 0 31.36 5.2263 0 10.4537 0 15.68 0 0-10.4537 0-20.9063 0-31.36-5.2263 0-10.4537 0-15.68 0Zm-219.52 0c0 10.4537 0 20.9063 0 31.36 5.2263 0 10.4537 0 15.68 0 0-10.4537 0-20.9063 0-31.36-5.2263 0-10.4537 0-15.68 0ZM383.67 281.75c0 5.2263 0 10.4537 0 15.68 10.4537 0 20.9063 0 31.36 0 0-5.2263 0-10.4537 0-15.68-10.4537 0-20.9063 0-31.36 0Zm-219.52 0c0 5.2263 0 10.4537 0 15.68 57.4937 0 114.9863 0 172.48 0 0-5.2263 0-10.4537 0-15.68-57.4937 0-114.9863 0-172.48 0Zm-78.4 0c0 5.2263 0 10.4537 0 15.68 10.4534 0 20.9063 0 31.36 0 0-5.2263 0-10.4537 0-15.68-10.4537 0-20.9066 0-31.36 0Zm266.56-70.56c0 62.72 0 125.44 0 188.16 5.2263 0 10.4537 0 15.68 0 0-62.72 0-125.44 0-188.16-5.2263 0-10.4537 0-15.68 0Zm-219.52 0c0 62.72 0 125.44 0 188.16 5.2263 0 10.4537 0 15.68 0 0-62.72 0-125.44 0-188.16-5.2263 0-10.4537 0-15.68 0Zm211.68-31.36c0 5.2263 0 10.4537 0 15.68 10.4537 0 20.9063 0 31.36 0 0-5.2263 0-10.4537 0-15.68-10.4537 0-20.9063 0-31.36 0Zm-172.48 0c.1627 7.1942 0 14.3805-.49 21.56-1.225 3.3477-3.3487 5.9613-6.37 7.84-.98 18.9356-1.3063 37.8819-.98 56.84 57.4937 0 114.9863 0 172.48 0 .3263-18.9581 0-37.9044-.98-56.84-3.0213-1.8787-5.145-4.4923-6.37-7.84-.49-7.1795-.6527-14.3658-.49-21.56-13.0663 0-26.1337 0-39.2 0 .4704 22.9555-.0196 45.8219-1.47 68.6-.735.6135-1.5523 1.1035-2.45 1.47-23.52.6537-47.04.6537-70.56 0-.8977-.3665-1.715-.8565-2.45-1.47-1.4504-22.7781-1.9404-45.6445-1.47-68.6-13.0663 0-26.1337 0-39.2 0Zm-47.04 0c0 5.2263 0 10.4537 0 15.68 10.4537 0 20.9063 0 31.36 0 0-5.2263 0-10.4537 0-15.68-10.4537 0-20.9063 0-31.36 0Zm101.92-23.52c0 26.1337 0 52.2663 0 78.4 15.68 0 31.36 0 47.04 0 0-26.1337 0-52.2663 0-78.4-15.68 0-31.36 0-47.04 0ZM69.09 122.99c2.1473 5.7653 4.434 11.4827 6.86 17.15 7.1866.3263 14.3734.6537 21.56.98.8977.3665 1.715.8565 2.45 1.47 1.4004 7.0746 1.8904 14.2619 1.47 21.56 36.5863 0 73.1737 0 109.76 0-.1627-6.5415 0-13.0752.49-19.6.3665-.8977.8565-1.715 1.47-2.45 12.3235-1.126 24.7372-1.616 37.24-1.47 12.5028-.146 24.9165.344 37.24 1.47.6135.735 1.1035 1.5523 1.47 2.45.49 6.5248.6527 13.0585.49 19.6 36.5863 0 73.1737 0 109.76 0-.4204-7.2981.0696-14.4854 1.47-21.56.735-.6135 1.5523-1.1035 2.45-1.47 7.1863-.3263 14.3737-.6537 21.56-.98 2.5911-5.6487 4.7148-11.366 6.37-17.15-1.6993.734-3.4957 1.224-5.39 1.47-116.9463.6537-233.8937.6537-350.84 0-2.0439-.3087-4.0039-.7987-5.88-1.47ZM42.63 77.91c6.0626 16.0201 17.4959 25.9837 34.3 29.89 57.7994 1.126 115.6194 1.616 173.46 1.47 57.8406.146 115.6606-.344 173.46-1.47 16.8041-3.9063 28.2377-13.8699 34.3-29.89-16.1004 7.9247-33.0868 12.9879-50.96 15.19-104.5337.6534-209.0663.6534-313.6 0-17.8728-2.2021-34.8595-7.2653-50.96-15.19Zm-19.6-44.1c-.1613 2.958.002 5.898.49 8.82 24.0412 22.5028 52.6245 34.0995 85.75 34.79 98.9927.9459 197.9727.6193 296.94-.98 27.3479-3.7944 51.0315-15.0644 71.05-33.81.6537-2.94.6537-5.88 0-8.82-20.4859 15.3806-43.5159 24.6906-69.09 27.93-105.1863.6534-210.3737.6534-315.56 0-25.6856-3.3786-48.879-12.6885-69.58-27.93ZM11.27 7.35c-1.6107.8001-2.7541 2.1068-3.43 3.92-.945 13.8122-.6183 27.5322.98 41.16 4.5734 3.92 9.1466 7.84 13.72 11.76 1.0918 19.1705 8.9318 34.8508 23.52 47.04 5.88 14.3737 11.76 28.7463 17.64 43.12.7354.6135 1.5521 1.1035 2.45 1.47 6.5251.49 13.0585.6527 19.6.49-.163 6.5415.0004 13.0752.49 19.6.3667.8977.8567 1.715 1.47 2.45 7.075 1.4004 14.2619 1.8904 21.56 1.47-.1627 7.1942 0 14.3805.49 21.56 1.225 3.3477 3.3487 5.9613 6.37 7.84.98 18.9356 1.3063 37.8819.98 56.84-15.1214-.4586-30.1476.0314-45.08 1.47-.6133.735-1.1033 1.5523-1.47 2.45-.6534 13.0663-.6534 26.1337 0 39.2.49 1.7963 1.6334 2.94 3.43 3.43 14.3696.49 28.7434.6537 43.12.49.1637 44.4283 0 88.8546-.49 133.28-21.2607 6.5562-31.3874 20.9299-30.38 43.12.49 1.7963 1.6334 2.94 3.43 3.43 33.9737.6537 67.9463.6537 101.92 0 1.7963-.49 2.94-1.6337 3.43-3.43.7732-5.6223.4469-11.1749-.98-16.66-5.1646-13.9856-14.9646-22.8056-29.4-26.46-.49-44.4254-.6537-88.8517-.49-133.28 57.4937 0 114.9863 0 172.48 0 .1637 44.4283 0 88.8546-.49 133.28-21.2611 6.5562-31.3874 20.9299-30.38 43.12.49 1.7963 1.6337 2.94 3.43 3.43 33.9737.6537 67.9463.6537 101.92 0 1.7963-.49 2.94-1.6337 3.43-3.43.7732-5.6223.4469-11.1749-.98-16.66-5.1646-13.9856-14.9646-22.8056-29.4-26.46-.49-44.4254-.6537-88.8517-.49-133.28 15.1214.4586 30.1477-.0314 45.08-1.47.6135-.735 1.1035-1.5523 1.47-2.45.6537-13.0663.6537-26.1337 0-39.2-.49-1.7963-1.6337-2.94-3.43-3.43-14.3697-.49-28.7434-.6537-43.12-.49-.3263-18.9581 0-37.9044.98-56.84 3.0213-1.8787 5.145-4.4923 6.37-7.84.49-7.1795.6527-14.3658.49-21.56 6.5415.1627 13.0752 0 19.6-.49.8977-.3665 1.715-.8565 2.45-1.47 1.4004-7.0746 1.8904-14.2619 1.47-21.56 6.5415.1627 13.0752 0 19.6-.49.8977-.3665 1.715-.8565 2.45-1.47 5.88-14.3737 11.76-28.7463 17.64-43.12 14.5883-12.1892 22.4283-27.8695 23.52-47.04 4.5737-3.92 9.1463-7.84 13.72-11.76 1.5984-13.6278 1.9247-27.3478.98-41.16-.49-1.7967-1.6337-2.94-3.43-3.43-3.3947-.8003-6.662-.4736-9.8.98-24.2971 24.2229-53.6971 36.6361-88.2 37.24-94.08.6534-188.16.6534-282.24 0-34.5027-.6039-63.9027-13.0171-88.2-37.24-3.1245-1.2894-6.3913-1.7794-9.8-1.47Z" stroke="#44739e" stroke-width="4" fill="none"/>
</svg>