<svg xmlns="http://www.w3.org/2000/svg" viewBox="0 0 512 512">
	<path d="M5.43 1.51c2.6133 0 5.2267 0 7.84 0C46.9203 21.3885 83.1803 34.6185 122.05 41.2c43.0249 6.5554 86.3076 9.6588 129.85 9.31 44.2.4554 88.1363-2.6479 131.81-9.31 7.5685-1.3831 15.0822-3.0163 22.54-4.9 7.2099-2.469 11.7835-.1824 13.72 6.86-.3949 2.8295-1.7013 5.1161-3.92 6.86-35.7112 8.8332-71.9712 13.7332-108.78 14.7-36.5863.6534-73.1737.6534-109.76 0-44.0814-.9304-87.2014-7.7904-129.36-20.58-13.7457-4.5271-27.1389-9.9171-40.18-16.17-1.061.8477-1.2244 1.8277-.49 2.94 11.7974 25.7173 23.7207 51.3606 35.77 76.93 126.0937.6537 252.1863.6537 378.28 0 12.347-26.0009 24.4334-52.1341 36.26-78.4-.3263-.49-.6537-.98-.98-1.47-11.0044 5.258-22.2744 9.8314-33.81 13.72-7.9978-2.4376-9.7951-7.1742-5.39-14.21 19.0238-6.7082 36.9901-15.3648 53.9-25.97 2.94 0 5.88 0 8.82 0 .6537 1.3067 1.6337 2.2867 2.94 2.94 0 2.94 0 5.88 0 8.82-16.9491 35.2986-33.4454 70.9053-49.49 106.82-1.1897 1.518-2.6597 2.6607-4.41 3.43-4.1679.196-8.2516.686-12.25 1.47-2.6137 9.8-5.2263 19.6-7.84 29.4-.4557 1.4024-1.273 2.5451-2.45 3.43-8.0585 1.4092-16.2259 1.8992-24.5 1.47 0 12.74 0 25.48 0 38.22 7.1942-.1627 14.3805 0 21.56.49 2.7763.8163 4.5737 2.6137 5.39 5.39.6537 12.0863.6537 24.1737 0 36.26-.7693 1.7503-1.912 3.2203-3.43 4.41-7.8331.49-15.6731.6527-23.52.49 0 52.92 0 105.84 0 158.76 4.2591-.1627 8.5054.001 12.74.49 3.0017 1.0447 4.4717 3.1683 4.41 6.37.6537 29.0737.6537 58.1463 0 87.22-.5527 2.3393-1.6954 4.2993-3.43 5.88-24.5 0-49 0-73.5 0-1.6111-.7997-2.7538-2.107-3.43-3.92-.6537-30.7063-.6537-61.4137 0-92.12 1.1437-1.1437 2.2863-2.2863 3.43-3.43 4.2346-.489 8.4809-.6527 12.74-.49 0-52.92 0-105.84 0-158.76-68.6 0-137.2 0-205.8 0 0 42.4663 0 84.9337 0 127.4 6.5092.6399 12.3892 2.9273 17.64 6.86 1.4161-8.5623 5.6634-15.2586 12.74-20.09 7.9684-2.8655 14.992-1.3955 21.07 4.41 9.4707-2.938 16.9844-.3254 22.54 7.84 2.0404 6.7777 1.8767 13.474-.49 20.09 5.2263.3263 10.4537.6537 15.68.98 11.2161 4.9627 14.8098 13.2927 10.78 24.99 3.1752 6.6728 3.6652 13.5328 1.47 20.58-1.4288 2.4108-3.2252 4.5345-5.39 6.37-5.3929 2.3765-10.9466 4.1728-16.66 5.39 4.9147 8.1115 5.0784 16.2788.49 24.5-4.9304 5.0382-10.974 7.4882-18.13 7.35-8.3467 8.5133-17.493 9.4933-27.44 2.94-3.3947-4.3336-6.1711-9.0709-8.33-14.21-2.6489 2.9772-5.5889 5.5909-8.82 7.84-.3263 7.1863-.6537 14.3737-.98 21.56-.6762 1.813-1.8189 3.1203-3.43 3.92-24.5 0-49 0-73.5 0-1.7342-1.5807-2.8776-3.5407-3.43-5.88-.6534-7.5137-.6534-15.0263 0-22.54 3.3809-7.9155 8.2809-8.8955 14.7-2.94.489 5.5439.6527 11.0975.49 16.66 16.66 0 33.32 0 49.98 0 .1617-3.283-.002-6.5493-.49-9.8-5.3479-3.4927-8.7779-8.3927-10.29-14.7-10.5213-4.3796-14.6049-12.2196-12.25-23.52 2.5108-5.0421 5.9408-9.2884 10.29-12.74-3.7328-2.5892-7.3265-5.3655-10.78-8.33-8.8141-.49-17.6341-.6527-26.46-.49.1627 10.1322 0 20.2586-.49 30.38-3.352 4.1679-7.4354 4.9853-12.25 2.45-1.1927-1.615-2.0093-3.4114-2.45-5.39-.9079-13.4485-.5811-26.8412.98-40.18.8845-1.177 2.0278-1.9943 3.43-2.45 4.2342-.489 8.4808-.6527 12.74-.49 0-52.92 0-105.84 0-158.76-7.8468.1627-15.6868 0-23.52-.49-1.5178-1.1897-2.6612-2.6597-3.43-4.41-.6534-12.0863-.6534-24.1737 0-36.26.8166-2.7763 2.6134-4.5737 5.39-5.39 7.1793-.49 14.3659-.6527 21.56-.49 0-12.74 0-25.48 0-38.22-8.2744.4292-16.4412-.0608-24.5-1.47-1.1774-.8849-1.9941-2.0276-2.45-3.43-2.6134-9.8-5.2266-19.6-7.84-29.4-3.9984-.784-8.0818-1.274-12.25-1.47-1.7503-.7693-3.2203-1.912-4.41-3.43C34.9556 84.1753 18.459 48.5686 1.51 13.27c0-2.6133 0-5.2267 0-7.84.98-1.6333 2.2867-2.94 3.92-3.92Zm78.4 122.5c112.3756-.3263 224.7483 0 337.12.98-2.0952 6.0927-3.7279 12.3-4.9 18.62-109.1063 0-218.2137 0-327.32 0-1.3272-6.615-2.9605-13.1487-4.9-19.6Zm34.3 35.28c5.2263 0 10.4537 0 15.68 0 0 12.74 0 25.48 0 38.22-5.2263 0-10.4537 0-15.68 0 0-12.74 0-25.48 0-38.22Zm31.36 0c21.56 0 43.12 0 64.68 0 0 12.74 0 25.48 0 38.22-21.56 0-43.12 0-64.68 0 0-12.74 0-25.48 0-38.22Zm80.36 0c15.0263 0 30.0537 0 45.08 0 0 12.74 0 25.48 0 38.22-15.0263 0-30.0537 0-45.08 0 0-12.74 0-25.48 0-38.22Zm60.76 0c21.56 0 43.12 0 64.68 0 0 12.74 0 25.48 0 38.22-21.56 0-43.12 0-64.68 0 0-12.74 0-25.48 0-38.22Zm80.36 0c5.2263 0 10.4537 0 15.68 0 0 12.74 0 25.48 0 38.22-5.2263 0-10.4537 0-15.68 0 0-12.74 0-25.48 0-38.22ZM90.69 213.19c107.8 0 215.6 0 323.4 0 0 5.2263 0 10.4537 0 15.68-107.8 0-215.6 0-323.4 0 0-5.2263 0-10.4537 0-15.68Zm27.44 31.36c5.2263 0 10.4537 0 15.68 0 .1637 49.001 0 98.001-.49 147-4.459 2.8253-7.889 6.5817-10.29 11.27-1.6013.4841-3.235.6468-4.9.49 0-52.92 0-105.84 0-158.76Zm252.84 0c5.2263 0 10.4537 0 15.68 0 0 52.92 0 105.84 0 158.76-5.2263 0-10.4537 0-15.68 0 0-52.92 0-105.84 0-158.76ZM270.03 271.99c2.6705 1.1887 4.9578 2.9851 6.86 5.39 5.6428 1.7219 9.8902.0892 12.74-4.9 1.2583-.6703 2.402-.5067 3.43.49.6537 3.5937.6537 7.1863 0 10.78-1.6582 6.8953-4.1082 13.4289-7.35 19.6 1.1731 6.6375 5.0931 9.0875 11.76 7.35 6.7787-8.1242 15.2723-13.5142 25.48-16.17.5743.2048 1.0643.5321 1.47.98-1.8071 4.3238-2.4598 8.8974-1.96 13.72 2.3598 2.4069 5.1362 4.2032 8.33 5.39.932.7036 1.0947 1.52.49 2.45-9.4864 5.1842-19.4501 6.1642-29.89 2.94-8.5887 3.2644-9.8951 8.3271-3.92 15.19 6.8051 2.9919 12.8488 7.0746 18.13 12.25 1.9531 2.2716 3.0958 4.8843 3.43 7.84-2.8391.1774-5.6154-.149-8.33-.98-5.8692 1.5788-8.6456 5.4988-8.33 11.76-1.1985 1.0917-2.5049 1.2554-3.92.49-6.812-8.0105-10.5683-17.3205-11.27-27.93-4.2571-4.8373-8.8298-5.1636-13.72-.98-1.1064 10.5076-4.5364 20.1439-10.29 28.91-1.2583.6703-2.402.5067-3.43-.49.2078-4.1836-1.2622-7.6136-4.41-10.29-4.0523-1.0084-8.136-1.4984-12.25-1.47 2.1266-6.4004 6.2103-11.464 12.25-15.19 3.2663-1.6337 6.5337-3.2663 9.8-4.9 3.9376-5.1881 3.285-9.7618-1.96-13.72-5.5948-.2411-11.1485.2489-16.66 1.47-3.9729-.5909-7.8929-1.4073-11.76-2.45-1.6885-.5125-2.9949-1.4925-3.92-2.94 3.3624-2.4275 6.4651-5.2048 9.31-8.33.6537-1.6337.6537-3.2663 0-4.9-2.2128-2.7224-2.7028-5.6624-1.47-8.82 3.8063.9222 7.4 2.3922 10.78 4.41 5.5105 3.8759 10.7379 8.1222 15.68 12.74 5.8124.8938 9.406-1.5562 10.78-7.35-3.1321-6.6209-5.5821-13.4809-7.35-20.58-.9006-4.1464-.4106-8.0664 1.47-11.76Zm-83.3 100.94c.7242-.1284 1.3779.0353 1.96.49 4.7344 9.701 11.1044 10.8437 19.11 3.43 1.6689 3.481 1.6689 7.0736 0 10.78-2.9478 6.5542-6.8678 12.4342-11.76 17.64-1.7836 8.0056 1.3201 11.762 9.31 11.27 7.8753-5.4919 16.5316-8.9219 25.97-10.29 1.5768.6341 3.0468 1.4504 4.41 2.45-1.7963 2.45-3.5937 4.9-5.39 7.35-.6537 1.96-.6537 3.92 0 5.88 2.4235 2.4235 4.8735 4.8735 7.35 7.35-2.8214 2.1756-6.0878 3.3193-9.8 3.43-7.8184-.8928-15.3321-2.8528-22.54-5.88-6.3298.8898-8.7798 4.4825-7.35 10.78 6.224 5.5723 11.7767 11.7786 16.66 18.62 4.5129 8.1301 2.7156 10.2528-5.39 6.37-6.7963-.4038-10.7163 2.8626-11.76 9.8-1.028.4822-2.008.3195-2.94-.49-1.9865-2.6666-3.4565-5.6066-4.41-8.82-1.1231-7.4627-1.7758-14.9764-1.96-22.54-1.4984-2.9557-3.9484-4.262-7.35-3.92-2.7685-.3734-4.8912.6066-6.37 2.94-2.9567 9.3453-8.0203 17.3489-15.19 24.01-.929.4733-1.909.636-2.94.49.3469-4.0543-.1431-7.9743-1.47-11.76-.8163-.8163-1.6337-1.6337-2.45-2.45-3.8916-.0833-7.4852-1.0633-10.78-2.94 7.1707-8.3947 16.317-13.2947 27.44-14.7 2.8694-3.1919 3.6868-6.9492 2.45-11.27-1.1897-1.518-2.6597-2.6607-4.41-3.43-10.3204.4234-19.6304-2.353-27.93-8.33-.4969-1.4661-.0069-2.6097 1.47-3.43 3.6819-.3508 6.7855-1.8208 9.31-4.41.5233-4.2718.3606-8.5182-.49-12.74 6.3279 1.1329 11.3915 4.3992 15.19 9.8 2.7763 4.0837 5.5537 8.1663 8.33 12.25 6.9482 2.3873 11.1955.1009 12.74-6.86-2.9753-8.5407-3.4653-17.198-1.47-25.97.3587-1.913 1.175-3.5456 2.45-4.9Zm167.58 46.06c16.66 0 33.32 0 49.98 0 0 23.1937 0 46.3863 0 69.58-16.66 0-33.32 0-49.98 0 0-23.1937 0-46.3863 0-69.58Zm-88.2-162.68c5.4135-.59 10.4762.39 15.19 2.94 19.7235-5.9466 29.0335 1.566 27.93 22.54 4.5011-1.227 9.0738-2.207 13.72-2.94 13.3045 2.0658 19.3472 9.9058 18.13 23.52 8.5701 9.5393 8.4074 18.8493-.49 27.93-4.0984 3.0282-8.672 4.9882-13.72 5.88 8.0389 7.7734 9.8353 16.757 5.39 26.95-3.5986 5.3116-8.6622 7.9253-15.19 7.84-2.5127 7.9723-8.0664 11.8923-16.66 11.76-9.4492-.4557-16.1465-5.0284-20.09-13.72-5.9564 13.522-15.5938 17.2784-28.91 11.27-2.842-2.3491-5.1283-5.1254-6.86-8.33-12.6616-2.3579-18.3779-9.8706-17.15-22.54 1.566-4.9314 4.016-9.3414 7.35-13.23-16.0857-2.9567-22.1294-12.2667-18.13-27.93 1.2642-2.2462 2.8979-4.2062 4.9-5.88-1.5964-13.2565 4.1199-21.0965 17.15-23.52 4.7128.3851 9.1228 1.6915 13.23 3.92-1.3397-12.3607 3.3967-21.1807 14.21-26.46Zm3.92 15.68c-1.8806 3.6936-2.3706 7.6136-1.47 11.76 1.7679 7.0991 4.2179 13.9591 7.35 20.58-1.374 5.7938-4.9676 8.2438-10.78 7.35-4.9421-4.6178-10.1695-8.8641-15.68-12.74-3.38-2.0178-6.9737-3.4878-10.78-4.41-1.2328 3.1576-.7428 6.0976 1.47 8.82.6537 1.6337.6537 3.2663 0 4.9-2.8449 3.1252-5.9476 5.9025-9.31 8.33.9251 1.4475 2.2315 2.4275 3.92 2.94 3.8671 1.0427 7.7871 1.8591 11.76 2.45 5.5115-1.2211 11.0652-1.7111 16.66-1.47 5.245 3.9582 5.8976 8.5319 1.96 13.72-3.2663 1.6337-6.5337 3.2663-9.8 4.9-6.0397 3.726-10.1234 8.7896-12.25 15.19 4.114-.0284 8.1977.4616 12.25 1.47 3.1478 2.6764 4.6178 6.1064 4.41 10.29 1.028.9967 2.1717 1.1603 3.43.49 5.7536-8.7661 9.1836-18.4024 10.29-28.91 4.8902-4.1836 9.4629-3.8573 13.72.98.7017 10.6095 4.458 19.9195 11.27 27.93 1.4151.7654 2.7215.6017 3.92-.49-.3156-6.2612 2.4608-10.1812 8.33-11.76 2.7146.831 5.4909 1.1574 8.33.98-.3342-2.9557-1.4769-5.5684-3.43-7.84-5.2812-5.1754-11.3249-9.2581-18.13-12.25-5.9751-6.8629-4.6687-11.9256 3.92-15.19 10.4399 3.2242 20.4036 2.2442 29.89-2.94.6047-.93.442-1.7464-.49-2.45-3.1938-1.1868-5.9702-2.9831-8.33-5.39-.4998-4.8226.1529-9.3962 1.96-13.72-.4057-.4479-.8957-.7752-1.47-.98-10.2077 2.6558-18.7013 8.0458-25.48 16.17-6.6669 1.7375-10.5869-.7125-11.76-7.35 3.2418-6.1711 5.6918-12.7047 7.35-19.6.6537-3.5937.6537-7.1863 0-10.78-1.028-.9967-2.1717-1.1603-3.43-.49-2.8498 4.9892-7.0972 6.6219-12.74 4.9-1.9022-2.4049-4.1895-4.2013-6.86-5.39Zm6.86 42.14c7.9517-1.3514 11.7081 1.9149 11.27 9.8-3.5211 5.7428-7.9311 6.7228-13.23 2.94-3.0498-4.8912-2.3961-9.1375 1.96-12.74ZM182.81 416.05c10.9407-.3116 13.8807 4.261 8.82 13.72-9.3835 3.528-13.4662.2607-12.25-9.8 1.3485-1.1809 2.4912-2.4872 3.43-3.92Z" stroke="#44739e" stroke-width="4" fill="none"/>
</svg>