<svg xmlns="http://www.w3.org/2000/svg" viewBox="0 0 512 512">
	<path d="M176.89-.49c4.5737 0 9.1463 0 13.72 0 9.0072 3.4636 14.5599 9.997 16.66 19.6 21.708 10.7243 31.8343 28.3643 30.38 52.92 8.4907-1.1394 16.9844-1.3027 25.48-.49.6203-12.2435 3.724-23.8403 9.31-34.79 5.489-7.969 12.6753-13.849 21.56-17.64 2.4745-9.4901 8.1908-16.0234 17.15-19.6 4.5737 0 9.1463 0 13.72 0 16.5003 8.1794 20.5839 20.5927 12.25 37.24-9.5775 10.1477-20.5212 11.9443-32.83 5.39-2.4892-2.1606-4.6129-4.6106-6.37-7.35-8.8484 4.6257-14.4021 11.8123-16.66 21.56-.736 6.2178-1.5533 12.4244-2.45 18.62.3263.98.6537 1.96.98 2.94 4.5668 1.9548 8.8141 4.4048 12.74 7.35 2.2863.6534 4.5737.6534 6.86 0 8.6113-6.1012 18.0849-10.3479 28.42-12.74 6.6542-19.9892 20.3742-31.7492 41.16-35.28 6.5317-11.7584 16.3317-16.0052 29.4-12.74 14.1963 6.5221 18.7699 17.3021 13.72 32.34-6.1309 11.391-15.6045 15.6377-28.42 12.74-8.0291-2.8021-13.4191-8.1921-16.17-16.17-10.3027 2.4639-17.6527 8.5072-22.05 18.13 21.8305 1.1027 38.4905 10.7393 49.98 28.91 5.5458.8928 11.0995.7301 16.66-.49 13.0663-.6537 26.1337-.6537 39.2 0 7.4558 4.261 9.9058 10.631 7.35 19.11-2.0874 9.5628-6.8237 17.5665-14.21 24.01-10.4223 4.6707-20.5486 9.897-30.38 15.68-15.1939 12.251-24.1776 28.0946-26.95 47.53-.3263 21.56-.6537 43.12-.98 64.68-4.4257 7.2736-9.3257 7.5999-14.7.98-.6537-22.54-.6537-45.08 0-67.62 3.6828-29.1158 18.2192-50.8395 43.61-65.17 6.6493-2.7577 13.183-5.6977 19.6-8.82 4.4492-3.9994 7.3892-8.8994 8.82-14.7-62.6083-3.8896-112.0983 19.4677-148.47 70.07-4.0905 6.2191-7.6842 12.7518-10.78 19.6-3.1723 3.674-6.9286 4.4904-11.27 2.45-2.1638-1.7993-3.4712-4.0856-3.92-6.86 4.2395-10.2763 9.6295-19.9126 16.17-28.91 2.5558-21.8628-6.4268-36.4001-26.95-43.61-22.6821-2.1286-36.5658 7.8351-41.65 29.89-.6537 4.9-.6537 9.8 0 14.7 18.1986 25.8416 28.6513 54.588 31.36 86.24.6292 19.2825 1.4455 38.5561 2.45 57.82.5743-.2048 1.0643-.5321 1.47-.98.296-19.9391.9496-39.8664 1.96-59.78.5047-10.0401 2.6274-19.6774 6.37-28.91 4.4472-2.2569 8.5309-1.7669 12.25 1.47-1.517 15.2929-2.8234 30.6456-3.92 46.06-.4675 16.6757-.7938 33.3357-.98 49.98 5.1489 6.2877 8.4153 13.474 9.8 21.56 6.6963-6.6963 13.3937-13.3937 20.09-20.09 13.3192-6.224 19.8519-1.814 19.6 13.23-.048 8.1957-2.008 15.8721-5.88 23.03 31.3561-10.7898 50.7934-32.5135 58.31-65.17 3.8142-5.6438 8.3878-6.2975 13.72-1.96.9045 1.5033 1.3945 3.137 1.47 4.9-7.4353 36.017-28.0153 61.3343-61.74 75.95-8.9151 3.2085-18.0614 5.4958-27.44 6.86-4.114 2.9694-8.3614 5.7457-12.74 8.33-.3714 9.0199-1.8414 17.8399-4.41 26.46-2.0502 3.1174-4.3365 6.0574-6.86 8.82-.3263 22.54-.6537 45.08-.98 67.62-.1303 2.8459-1.274 5.1332-3.43 6.86-2.6137 0-5.2263 0-7.84 0-1.6111-.7997-2.7538-2.107-3.43-3.92-.49-20.9044-.6537-41.8107-.49-62.72-2.94 0-5.88 0-8.82 0 .1637 20.9093 0 41.8156-.49 62.72-1.0114 1.4965-2.155 2.8028-3.43 3.92-2.6137 0-5.2263 0-7.84 0-1.3093-1.4798-2.4529-3.1135-3.43-4.9-.3263-23.1937-.6537-46.3863-.98-69.58-4.1297-3.8044-7.0697-8.377-8.82-13.72-.9506-7.1638-1.7669-14.3501-2.45-21.56-4.5815-2.2893-8.8278-5.0656-12.74-8.33-51.793-8.673-82.0093-38.8893-90.65-90.65-.3263-27.7663-.6537-55.5337-.98-83.3-2.4745-24.3285-14.0708-42.7848-34.79-55.37-11.6123-3.4329-21.5757-9.4766-29.89-18.13-7.6906-10.2939-9.1606-21.2376-4.41-32.83 1.6334-.98 3.2666-1.96 4.9-2.94 12.74-.6537 25.48-.6537 38.22 0 5.4981.391 10.8878 1.2083 16.17 2.45 7.5068-14.3022 19.1031-23.6122 34.79-27.93 5.1636-1.4544 10.39-2.5977 15.68-3.43-4.459-8.8629-11.4817-14.7429-21.07-17.64-7.8478 16.2296-20.0978 20.6396-36.75 13.23-10.9118-10.1093-12.7084-21.7059-5.39-34.79 10.3557-10.1594 21.6257-11.3026 33.81-3.43 2.7607 2.5853 5.047 5.5253 6.86 8.82 20.7809 3.8244 34.1746 15.7478 40.18 35.77 10.388 1.9264 19.8617 6.0098 28.42 12.25 2.6137.6534 5.2263.6534 7.84 0 5.0098-2.8152 9.5824-6.082 13.72-9.8-.882-9.1888-2.6783-18.1721-5.39-26.95-3.0086-5.9494-7.5823-10.196-13.72-12.74-13.428 14.1747-26.8216 14.1747-40.18 0-7.4823-16.6009-3.0723-28.6875 13.23-36.26Zm2.94 15.68c6.3269-1.2524 10.2469 1.1976 11.76 7.35-.8389 4.759-3.6152 7.5356-8.33 8.33-8.3868-3.6037-9.5305-8.8303-3.43-15.68Zm135.24 0c8.8788-.4448 11.9825 3.4752 9.31 11.76-4.2463 5.2266-8.4937 5.2266-12.74 0-2.4912-5.036-1.3485-8.956 3.43-11.76ZM109.27 38.71c5.1793.2945 8.4456 2.9079 9.8 7.84-3.1536 8.7733-8.2173 10.0799-15.19 3.92-1.5925-5.6281.2038-9.5481 5.39-11.76Zm279.3 0c6.8737.4948 9.9764 4.0882 9.31 10.78-2.9527 4.9345-7.0364 6.0779-12.25 3.43-4.3855-5.8174-3.4055-10.554 2.94-14.21ZM158.27 86.73c7.4039.3697 14.5902 1.8397 21.56 4.41 6.0829 3.531 12.2892 6.7977 18.62 9.8 9.6128 2.1442 18.1065.0216 25.48-6.37 1.7846 7.0874 3.0919 14.2747 3.92 21.56-3.3212 2.7264-6.7512 5.339-10.29 7.84-4.0719-3.4173-8.1556-6.8473-12.25-10.29-9.3766-.7458-12.4803 3.3379-9.31 12.25 3.7563 3.7563 7.5137 7.5137 11.27 11.27-2.7989 5.1107-4.9225 10.5007-6.37 16.17-5.4596-6.1172-11.5032-11.5072-18.13-16.17-8.821-1.3024-12.251 2.4539-10.29 11.27 35.4035 29.6421 55.3298 67.5357 59.78 113.68 1.275 21.2209 1.6023 42.4546.98 63.7-4.8059 6.0241-7.7459 12.8841-8.82 20.58-7.0531-7.3804-14.4031-14.404-22.05-21.07-12.5224-4.4923-18.4024.0813-17.64 13.72-.0568 8.0478 1.5768 15.7241 4.9 23.03-.3263.3263-.6537.6537-.98.98-32.6918-12.9321-51.8018-36.7784-57.33-71.54-.3263-28.42-.6537-56.84-.98-85.26-5.3704-37.7143-26.1141-62.7043-62.23-74.97-4.883-4.0562-8.1497-9.1199-9.8-15.19 25.9961-2.7499 51.1491.6801 75.46 10.29 6.3132 2.9116 12.6832 5.6879 19.11 8.33 7.5578-2.205 9.3541-6.7787 5.39-13.72-11.5042-6.5689-23.5915-11.7953-36.26-15.68 5.5791-8.5192 13.4191-13.9092 23.52-16.17 4.3757-.8566 8.622-1.6733 12.74-2.45Zm91.14 0c3.873.7567 7.793 1.0833 11.76.98-.4929 7.8669-1.3103 15.7065-2.45 23.52-5.2989.9535-10.6889 1.2809-16.17.98-.8957-8.1458-1.5494-16.3126-1.96-24.5 3.1487.3038 6.0887-.0228 8.82-.98Zm91.14 0c12.2961.3417 23.4024 4.0985 33.32 11.27 2.5186 2.0257 4.4786 4.4757 5.88 7.35-30.576 9.1552-56.8723 25.1615-78.89 48.02-1.4494-5.4909-3.5731-10.7173-6.37-15.68 4.6374-4.4708 8.72-9.3708 12.25-14.7.443-8.0438-3.3134-11.1475-11.27-9.31-3.7563 3.7563-7.5137 7.5137-11.27 11.27-2.6676-2.8851-5.7712-5.1715-9.31-6.86-.3263-.8163-.6537-1.6337-.98-2.45.7174-7.1246 1.861-14.1473 3.43-21.07 7.2853 6.1289 15.6153 8.2526 24.99 6.37 6.7659-2.7293 13.2996-5.9963 19.6-9.8 6.1593-2.2767 12.3656-3.7467 18.62-4.41ZM249.41 332.71c3.0547.1392 5.5047 1.4465 7.35 3.92 3.4378 6.4308 5.3978 13.2908 5.88 20.58 4.8784 8.0811 11.5748 9.8774 20.09 5.39 6.0123-5.0313 11.7296-10.4213 17.15-16.17-5.6615 20.0224-18.8915 31.946-39.69 35.77-23.766 2.891-42.2223-5.439-55.37-24.99-1.8061-3.4447-2.7861-7.0384-2.94-10.78 5.4204 5.7487 11.1377 11.1387 17.15 16.17 7.2726 3.8788 13.6426 2.7352 19.11-3.43 1.6239-5.7987 2.9312-11.6787 3.92-17.64 1.6092-3.724 4.0592-6.664 7.35-8.82Zm-13.72 64.68c10.1224 1.2769 20.2488 1.2769 30.38 0 .9927 15.8388-6.1936 22.5351-21.56 20.09-7.3794-4.6364-10.3194-11.3337-8.82-20.09Zm93.1-229.32c7.5107-.8173 10.9407 2.45 10.29 9.8-7.0972 8.6426-13.9572 17.4626-20.58 26.46-9.8892 15.6183-16.0955 32.6056-18.62 50.96-.9575 15.0303-1.9375 30.0566-2.94 45.08-4.5737 5.2263-9.1463 5.2263-13.72 0-5.4439-45.3936 5.9898-85.8999 34.3-121.52 3.6544-3.82 7.4108-7.4137 11.27-10.78ZM151.41 205.31c3.6466.2773 6.4229 1.911 8.33 4.9.3263 24.8263.6537 49.6537.98 74.48 1.0907 11.1122 4.5207 21.4022 10.29 30.87-.9251 7.0011-4.8451 9.6148-11.76 7.84-5.3978-5.7281-9.1552-12.4254-11.27-20.09-1.6876-6.0936-2.6676-12.3-2.94-18.62-.6537-24.1737-.6537-48.3463 0-72.52.9976-3.4447 3.1213-5.731 6.37-6.86Z" stroke="#44739e" stroke-width="4" fill="none"/>
</svg>