<svg xmlns="http://www.w3.org/2000/svg" viewBox="0 0 512 512">
	<path d="M231.81 32.87c97.3013-4.8596 169.3313 34.9937 216.09 119.56 24.6627 50.1358 30.5427 102.4031 17.64 156.8-8.5936 31.7314-23.4573 59.9887-44.59 84.77-9.8862 3.5015-14.2962.0715-13.23-10.29 25.2654-31.6001 40.9454-67.5338 47.04-107.8 5.6654-81.9231-24.8783-146.4404-91.63-193.55-73.7999-45.0605-147.6272-45.0605-221.48 0-6.86 4.9-13.72 9.8-20.58 14.7-10.3037 1.1184-13.7337-3.2916-10.29-13.23 35.2614-28.9805 75.605-45.9671 121.03-50.96Zm1.96 39.2c38.5346-4.8058 70.0582 7.6074 94.57 37.24 19.2962 27.8369 23.5425 57.8906 12.74 90.16-14.0062 33.713-38.9962 53.803-74.97 60.27-25.1889-1.5523-47.4026 5.635-66.64 21.56-27.6762 29.6636-32.0862 62.4936-13.23 98.49 15.7956 23.178 37.8456 35.5916 66.15 37.24 74.187-4.3189 125.637-40.5789 154.35-108.78 20.972-67.3191 6.9247-126.1191-42.14-176.4-1.47-8.9837 2.2863-12.74 11.27-11.27 42.9534 41.6186 61.7371 92.415 56.35 152.39-11.81 74.2017-52.8073 124.6717-122.99 151.41-27.6919 8.9993-55.7855 10.633-84.28 4.9-37.1596-12.6587-59.2096-38.3023-66.15-76.93-4.115-41.2531 11.075-73.1031 45.57-95.55 18.6572-9.9176 38.5846-14.4913 59.78-13.72 36.0905-7.3441 57.8141-29.0678 65.17-65.17 3.2075-36.5471-11.0025-63.8245-42.63-81.83-16.6247-6.9957-33.9374-9.2825-51.94-6.86-61.8302 8.7652-106.0928 41.2688-132.79 97.51-26.2659 70.2268-13.5259 132.2941 38.22 186.2 1.47 8.9837-2.2863 12.74-11.27 11.27-42.5364-41.0208-61.3198-91.1635-56.35-150.43 9.5133-69.9171 46.2629-119.4071 110.25-148.47 16.5532-6.5873 33.5405-10.9973 50.96-13.23Zm13.72 79.38c16.9197-.2381 22.636 7.6019 17.15 23.52-6.126 6.3808-13.1496 7.5235-21.07 3.43-6.3808-6.126-7.5235-13.1496-3.43-21.07 2.0717-2.5686 4.5217-4.5286 7.35-5.88Zm0 172.48c16.9197-.2381 22.636 7.6019 17.15 23.52-6.126 6.3808-13.1496 7.5235-21.07 3.43-6.3808-6.126-7.5235-13.1496-3.43-21.07 2.0717-2.5686 4.5217-4.5286 7.35-5.88ZM85.79 109.31c8.974-.9908 12.7306 2.9292 11.27 11.76-27.4604 34.005-43.467 72.8787-48.02 116.62-2.0546 78.3745 28.8154 139.9518 92.61 184.73 73.7999 45.0604 147.6272 45.0604 221.48 0 6.86-4.9 13.72-9.8 20.58-14.7 7.0864-2.0531 11.0064.5606 11.76 7.84.0902 2.7577-.8898 5.0441-2.94 6.86-59.634 46.2286-126.274 60.2759-199.92 42.14-70.1719-21.4983-118.6821-66.4146-145.53-134.75-27.0978-76.5527-16.6445-147.439 31.36-212.66 2.2478-2.9135 4.6978-5.5272 7.35-7.84Zm159.74 25.48c29.692-.5223 41.942 13.8503 36.75 43.12-5.6644 13.0036-15.6281 19.5363-29.89 19.6-23.5955-2.3922-33.8855-15.4595-30.87-39.2 3.38-12.691 11.3827-20.531 24.01-23.52Zm1.96 16.66c-2.8283 1.3514-5.2783 3.3114-7.35 5.88-4.0935 7.9204-2.9508 14.944 3.43 21.07 7.9204 4.0935 14.944 2.9508 21.07-3.43 5.486-15.9181-.2303-23.7581-17.15-23.52Zm-1.96 155.82c29.692-.5223 41.942 13.8503 36.75 43.12-5.6644 13.0036-15.6281 19.5363-29.89 19.6-23.5955-2.3922-33.8855-15.4595-30.87-39.2 3.38-12.691 11.3827-20.531 24.01-23.52Zm1.96 16.66c-2.8283 1.3514-5.2783 3.3114-7.35 5.88-4.0935 7.9204-2.9508 14.944 3.43 21.07 7.9204 4.0935 14.944 2.9508 21.07-3.43 5.486-15.9181-.2303-23.7581-17.15-23.52Z" stroke="#44739e" stroke-width="4" fill="none"/>
</svg>