<svg xmlns="http://www.w3.org/2000/svg" viewBox="0 0 512 512">
	<path d="M159.5 28.5c64.001-.1667 128.001 0 192 .5 4.825 4.1239 9.325 8.6239 13.5 13.5 50.215 61.099 84.548 130.433 103 208 8.306 41.834 15.306 83.834 21 126-1.84 2.676-4.34 4.509-7.5 5.5-30.905 12.371-61.738 24.871-92.5 37.5-.333 19.667-.667 39.333-1 59-.5 1.833-1.667 3-3.5 3.5-86 .667-172 .667-258 0-2.883-1.589-4.383-4.089-4.5-7.5-.167-18.676-.667-37.342-1.5-56-30.2934-12.265-60.6268-24.431-91-36.5-6.7998-2.129-9.2998-6.629-7.5-13.5 6.4509-38.039 13.1176-76.039 20-114 16.3816-72.081 46.7149-137.414 91-196 7.984-10.8131 16.817-20.8131 26.5-30Zm18 17c2.982-.6649 6.148-.9982 9.5-1 3.603.0501 6.936.7168 10 2 16 34 32 68 48 102 .667 1.667.667 3.333 0 5-2.94 5.546-5.606 11.213-8 17-19.881-41.758-39.714-83.4244-59.5-125Zm38-1c26.675-.3331 53.342.0002 80 1-12.804 28.2735-26.137 56.274-40 84-14.148-27.962-27.481-56.2954-40-85Zm99 0c6.342-.1662 12.675.0005 19 .5-25.522 54.2118-51.189 108.378-77 162.5-6 1.333-12 1.333-18 0 25.624-54.246 50.957-108.579 76-163Zm-154 8c2.865 2.6899 5.031 6.0233 6.5 10 20.038 42.909 40.205 85.742 60.5 128.5-3.067 5.301-5.734 10.801-8 16.5-30.995.833-61.995 1.333-93 1.5-1.167 1.167-2.333 2.333-3.5 3.5-1.319 62.622-1.985 125.289-2 188-27.4173-10.965-54.5839-22.299-81.5-34 6.7912-40.79 14.2912-81.457 22.5-122 18.9279-71.531 51.761-135.531 98.5-192Zm188 0c2.216.7026 4.049 2.0359 5.5 4 47.802 59.277 80.469 126.277 98 201 6.718 36.306 13.218 72.64 19.5 109-27.074 11.868-54.408 23.201-82 34-.833-62.664-1.333-125.331-1.5-188-1.167-1.167-2.333-2.333-3.5-3.5-36.333-.333-72.667-.667-109-1 24.473-51.779 48.807-103.613 73-155.5Zm-210 173c77.667 0 155.333 0 233 0 0 22 0 44 0 66-77.667 0-155.333 0-233 0 0-22 0-44 0-66Zm0 83c10.667 0 21.333 0 32 0 0 52.667 0 105.333 0 158-10.667 0-21.333 0-32 0 0-52.667 0-105.333 0-158Zm49 0c11.333 0 22.667 0 34 0 0 52.667 0 105.333 0 158-11.333 0-22.667 0-34 0 0-52.667 0-105.333 0-158Zm51 0c44.333 0 88.667 0 133 0 0 19.667 0 39.333 0 59-22.003-.167-44.003 0-66 .5-6.468 5.74-6.135 11.073 1 16 21.664.5 43.331.667 65 .5 0 3.667 0 7.333 0 11-21.669-.167-43.336 0-65 .5-7.135 4.927-7.468 10.26-1 16 21.997.5 43.997.667 66 .5 0 3.667 0 7.333 0 11-21.003-.167-42.003 0-63 .5-7.354 2.726-9.187 7.56-5.5 14.5.75.626 1.584 1.126 2.5 1.5 21.997.5 43.997.667 66 .5 0 8.667 0 17.333 0 26-44.333 0-88.667 0-133 0 0-52.667 0-105.333 0-158Zm-84-71c5.128-.388 10.128.112 15 1.5 5.525 5.775 4.858 10.775-2 15-5.118.888-10.118.555-15-1-5.641-5.964-4.974-11.131 2-15.5Zm31 0c53.334-.167 106.668 0 160 .5 8 5.333 8 10.667 0 16-53.333.667-106.667.667-160 0-7.935-5.496-7.935-10.996 0-16.5Z" stroke="#44739e" stroke-width="4" fill="none"/>
</svg>