<svg xmlns="http://www.w3.org/2000/svg" viewBox="0 0 512 512">
	<path d="M242.59 1.51c6.5337 0 13.0663 0 19.6 0 4.5815 1.4786 9.1542 3.2752 13.72 5.39 6.5337 4.9 13.0663 9.8 19.6 14.7 12.1363 6.9542 25.2027 10.5474 39.2 10.78 12.74.3266 25.48.6534 38.22.98 18.2368 6.7478 24.4432 19.4878 18.62 38.22 30.7063.3266 61.4137.6534 92.12.98 9.653 3.2844 16.1867 9.6544 19.6 19.11 0 5.2266 0 10.4537 0 15.68-7.5538 16.8442-20.6202 23.3779-39.2 19.6.1637 124.1337 0 248.2673-.49 372.4-.6762 1.813-1.8189 3.1203-3.43 3.92-15.68 0-31.36 0-47.04 0-1.6111-.7997-2.7538-2.107-3.43-3.92-.49-61.4127-.6537-122.8254-.49-184.24-15.68 0-31.36 0-47.04 0-.1637 13.0703 0 26.1376.49 39.2 23.2378 7.5842 33.3651 23.5915 30.38 48.02-8.3378 24.9479-25.4878 34.5852-51.45 28.91-20.6898-8.6446-29.3461-24.1609-25.97-46.55 4.2463-16.0063 14.3737-26.1337 30.38-30.38.49-13.0624.6537-26.1297.49-39.2-28.7463 0-57.4937 0-86.24 0-.1637 13.0703 0 26.1376.49 39.2 23.2378 7.5842 33.3651 23.5915 30.38 48.02-8.3378 24.9479-25.4878 34.5852-51.45 28.91-20.6898-8.6446-29.3461-24.1609-25.97-46.55 4.2463-16.0063 14.3737-26.1337 30.38-30.38.49-13.0624.6537-26.1297.49-39.2-28.7463 0-57.4937 0-86.24 0-.1637 13.0703 0 26.1376.49 39.2 23.2378 7.5842 33.3651 23.5915 30.38 48.02-8.3378 24.9479-25.4878 34.5852-51.45 28.91-20.6898-8.6446-29.3461-24.1609-25.97-46.55 4.2463-16.0063 14.3737-26.1337 30.38-30.38.49-13.0624.6537-26.1297.49-39.2-15.68 0-31.36 0-47.04 0 .1634 61.4146 0 122.8273-.49 184.24-.6759 1.813-1.8193 3.1203-3.43 3.92-15.68 0-31.36 0-47.04 0-1.6107-.7997-2.7541-2.107-3.43-3.92-.49-124.1327-.6534-248.2663-.49-372.4-19.0993 3.8504-32.166-3.0096-39.2-20.58 0-4.9 0-9.8 0-14.7 3.4135-9.4556 9.9468-15.8256 19.6-19.11 30.7119-.1635 61.4186-.6535 92.12-1.47-5.6095-18.0151.2705-30.5918 17.64-37.73 13.0663-.3266 26.1337-.6534 39.2-.98 13.9973-.2326 27.0637-3.8258 39.2-10.78 6.5337-4.9 13.0663-9.8 19.6-14.7 4.5658-2.1148 9.1385-3.9114 13.72-5.39Zm1.96 16.66c2.6137 0 5.2263 0 7.84 0 0 17.9666 0 35.9334 0 53.9-37.5683.1634-75.1346 0-112.7-.49-9.0327-1.1887-12.79-6.2521-11.27-15.19 1.47-2.7766 3.5937-4.9 6.37-6.37 15.9544-1.2479 31.9617-1.9013 48.02-1.96 20.4497-2.884 38.0897-11.3774 52.92-25.48 3.0302-1.515 5.9702-2.985 8.82-4.41Zm31.36 53.9c26.1356-.1633 52.2683 0 78.4.49 6.7101 1.8283 8.5064 5.9117 5.39 12.25-1.615 1.1927-3.4114 2.0093-5.39 2.45-26.1337.6534-52.2663.6534-78.4 0-6.7101-1.8283-8.5064-5.9117-5.39-12.25 1.8385-1.0865 3.6348-2.0665 5.39-2.94ZM28.95 87.75c74.48 0 148.96 0 223.44 0 0 7.84 0 15.68 0 23.52-56.1873-.1637-112.3746 0-168.56.49-1.7966.49-2.94 1.6337-3.43 3.43-.6534 52.2663-.6534 104.5337 0 156.8.49 1.7963 1.6334 2.94 3.43 3.43 56.1854.49 112.3727.6537 168.56.49 0 7.84 0 15.68 0 23.52-56.1873-.1637-112.3746 0-168.56.49-.8979.3665-1.7146.8565-2.45 1.47-1.4628 61.985-1.9528 124.0523-1.47 186.2-7.84 0-15.68 0-23.52 0 .1634-124.1337 0-248.2673-.49-372.4-.49-1.7963-1.6334-2.94-3.43-3.43-9.2051-.1107-18.3519-.7644-27.44-1.96-6.7753-3.6946-8.572-9.0846-5.39-16.17 2.4999-3.1173 5.6032-5.0773 9.31-5.88Zm66.64 39.2c15.68 0 31.36 0 47.04 0 .1637 13.0703 0 26.1376-.49 39.2-23.2378 7.5842-33.3651 23.5915-30.38 48.02 8.3378 24.9479 25.4878 34.5852 51.45 28.91 20.6898-8.6446 29.3461-24.1609 25.97-46.55-4.2463-16.0063-14.3737-26.1337-30.38-30.38-.49-13.0624-.6537-26.1297-.49-39.2 28.7463 0 57.4937 0 86.24 0 .1637 13.0703 0 26.1376-.49 39.2-23.2378 7.5842-33.3651 23.5915-30.38 48.02 8.3378 24.9479 25.4878 34.5852 51.45 28.91 20.6898-8.6446 29.3461-24.1609 25.97-46.55-4.2463-16.0063-14.3737-26.1337-30.38-30.38-.49-13.0624-.6537-26.1297-.49-39.2 28.7463 0 57.4937 0 86.24 0 .1637 13.0703 0 26.1376-.49 39.2-23.2378 7.5842-33.3651 23.5915-30.38 48.02 8.3378 24.9479 25.4878 34.5852 51.45 28.91 20.6898-8.6446 29.3461-24.1609 25.97-46.55-4.2463-16.0063-14.3737-26.1337-30.38-30.38-.49-13.0624-.6537-26.1297-.49-39.2 15.68 0 31.36 0 47.04 0 0 44.4263 0 88.8537 0 133.28-104.5337 0-209.0663 0-313.6 0 0-44.4263 0-88.8537 0-133.28Zm48.02 55.86c14.1914-2.1384 23.8277 3.4153 28.91 16.66 2.3187 13.8239-3.0713 23.1339-16.17 27.93-13.8239 2.3187-23.1339-3.0713-27.93-16.17-2.1256-13.3927 2.938-22.8663 15.19-28.42Zm101.92 0c2.2863 0 4.5737 0 6.86 0 0 15.0263 0 30.0537 0 45.08-16.6816-2.1521-24.0316-11.6257-22.05-28.42 2.8773-7.6107 7.94-13.1643 15.19-16.66ZM143.61 370.97c14.1914-2.1384 23.8277 3.4153 28.91 16.66 2.3187 13.8239-3.0713 23.1339-16.17 27.93-13.8239 2.3187-23.1339-3.0713-27.93-16.17-2.1256-13.3927 2.938-22.8663 15.19-28.42Zm101.92 0c2.2863 0 4.5737 0 6.86 0 0 15.0263 0 30.0537 0 45.08-16.6816-2.1521-24.0316-11.6257-22.05-28.42 2.8773-7.6107 7.94-13.1643 15.19-16.66Z" stroke="#44739e" stroke-width="4" fill="none"/>
</svg>